<svg width="270" height="88" viewBox="0 0 270 88" fill="none" xmlns="http://www.w3.org/2000/svg">
<rect width="270" height="88" rx="40" fill="url(#paint0_linear_8_7)"/>
<path d="M13.2616 56V33.44H17.3896V56H13.2616ZM22.3554 56V33.44H25.4594L38.5474 50.368H37.7154V33.44H41.5554V56H38.4514L25.3954 39.072H26.1954V56H22.3554ZM51.8236 56V36.832H44.3676V33.44H63.4076V36.832H55.9516V56H51.8236ZM66.3241 56V33.44H76.1801C78.6548 33.44 80.5641 34.0267 81.9081 35.2C83.2735 36.3733 83.9561 38.0053 83.9561 40.096C83.9561 41.4827 83.6468 42.6667 83.0281 43.648C82.4308 44.6293 81.5668 45.3867 80.4361 45.92C79.3055 46.432 77.9721 46.688 76.4361 46.688L76.8841 46.08H77.9721C78.8681 46.08 79.6681 46.3147 80.3721 46.784C81.0761 47.2533 81.6521 47.968 82.1001 48.928L85.3961 56H80.8521L77.5241 48.672C77.2255 47.9253 76.7668 47.4347 76.1481 47.2C75.5508 46.9653 74.8255 46.848 73.9721 46.848H70.4521V56H66.3241ZM70.4521 43.808H75.5081C76.9588 43.808 78.0575 43.5093 78.8041 42.912C79.5721 42.2933 79.9561 41.3973 79.9561 40.224C79.9561 39.0507 79.5721 38.1653 78.8041 37.568C78.0575 36.9707 76.9588 36.672 75.5081 36.672H70.4521V43.808ZM87.9006 44.704C87.9006 42.336 88.3273 40.288 89.1806 38.56C90.0553 36.832 91.3033 35.4987 92.9246 34.56C94.546 33.6 96.4766 33.12 98.7166 33.12C100.935 33.12 102.855 33.6 104.477 34.56C106.098 35.4987 107.346 36.832 108.221 38.56C109.117 40.288 109.565 42.3253 109.565 44.672C109.565 47.04 109.117 49.0987 108.221 50.848C107.346 52.576 106.098 53.92 104.477 54.88C102.855 55.84 100.935 56.32 98.7166 56.32C96.4766 56.32 94.546 55.84 92.9246 54.88C91.3246 53.92 90.0873 52.576 89.2126 50.848C88.338 49.0987 87.9006 47.0507 87.9006 44.704ZM92.2206 44.704C92.2206 47.2427 92.7646 49.2267 93.8526 50.656C94.9406 52.0853 96.562 52.8 98.7166 52.8C100.807 52.8 102.418 52.0853 103.549 50.656C104.679 49.2267 105.245 47.2427 105.245 44.704C105.245 42.144 104.679 40.16 103.549 38.752C102.439 37.344 100.829 36.64 98.7166 36.64C96.562 36.64 94.9406 37.344 93.8526 38.752C92.7646 40.16 92.2206 42.144 92.2206 44.704ZM113.824 56V33.44H122.016C124.597 33.44 126.773 33.888 128.544 34.784C130.336 35.6587 131.691 36.9387 132.608 38.624C133.525 40.288 133.984 42.3147 133.984 44.704C133.984 47.072 133.525 49.0987 132.608 50.784C131.691 52.4693 130.336 53.76 128.544 54.656C126.773 55.552 124.597 56 122.016 56H113.824ZM117.952 52.576H121.76C124.491 52.576 126.517 51.9253 127.84 50.624C129.163 49.3227 129.824 47.3493 129.824 44.704C129.824 42.0373 129.163 40.064 127.84 38.784C126.517 37.4827 124.491 36.832 121.76 36.832H117.952V52.576ZM147.607 56.32C144.386 56.32 141.986 55.52 140.407 53.92C138.85 52.2987 138.071 49.9093 138.071 46.752V33.44H142.199V46.72C142.199 48.7253 142.626 50.24 143.479 51.264C144.354 52.288 145.73 52.8 147.607 52.8C149.399 52.8 150.743 52.288 151.639 51.264C152.556 50.24 153.015 48.7253 153.015 46.72V33.44H157.079V46.752C157.079 49.9093 156.279 52.2987 154.679 53.92C153.1 55.52 150.743 56.32 147.607 56.32ZM172.383 56.32C170.036 56.32 168.02 55.8507 166.335 54.912C164.671 53.952 163.391 52.608 162.495 50.88C161.599 49.1307 161.151 47.072 161.151 44.704C161.151 42.336 161.599 40.288 162.495 38.56C163.391 36.832 164.671 35.4987 166.335 34.56C168.02 33.6 170.036 33.12 172.383 33.12C173.961 33.12 175.38 33.344 176.639 33.792C177.919 34.24 179.017 34.9013 179.935 35.776L178.591 39.04C177.588 38.2293 176.617 37.6533 175.679 37.312C174.761 36.9493 173.705 36.768 172.511 36.768C170.228 36.768 168.479 37.4613 167.263 38.848C166.068 40.2133 165.471 42.1653 165.471 44.704C165.471 47.2427 166.068 49.2053 167.263 50.592C168.479 51.9787 170.228 52.672 172.511 52.672C173.705 52.672 174.761 52.5013 175.679 52.16C176.617 51.7973 177.588 51.2 178.591 50.368L179.935 53.632C179.017 54.4853 177.919 55.1467 176.639 55.616C175.38 56.0853 173.961 56.32 172.383 56.32ZM188.792 56V36.832H181.336V33.44H200.376V36.832H192.92V56H188.792ZM203.293 56V33.44H207.421V56H203.293ZM211.651 44.704C211.651 42.336 212.077 40.288 212.931 38.56C213.805 36.832 215.053 35.4987 216.675 34.56C218.296 33.6 220.227 33.12 222.467 33.12C224.685 33.12 226.605 33.6 228.227 34.56C229.848 35.4987 231.096 36.832 231.971 38.56C232.867 40.288 233.315 42.3253 233.315 44.672C233.315 47.04 232.867 49.0987 231.971 50.848C231.096 52.576 229.848 53.92 228.227 54.88C226.605 55.84 224.685 56.32 222.467 56.32C220.227 56.32 218.296 55.84 216.675 54.88C215.075 53.92 213.837 52.576 212.963 50.848C212.088 49.0987 211.651 47.0507 211.651 44.704ZM215.971 44.704C215.971 47.2427 216.515 49.2267 217.603 50.656C218.691 52.0853 220.312 52.8 222.467 52.8C224.557 52.8 226.168 52.0853 227.299 50.656C228.429 49.2267 228.995 47.2427 228.995 44.704C228.995 42.144 228.429 40.16 227.299 38.752C226.189 37.344 224.579 36.64 222.467 36.64C220.312 36.64 218.691 37.344 217.603 38.752C216.515 40.16 215.971 42.144 215.971 44.704ZM237.574 56V33.44H240.678L253.766 50.368H252.934V33.44H256.774V56H253.67L240.614 39.072H241.414V56H237.574Z" fill="white"/>
<defs>
<linearGradient id="paint0_linear_8_7" x1="-172.2" y1="44" x2="246.496" y2="44" gradientUnits="userSpaceOnUse">
<stop stop-color="#00CCFF"/>
<stop offset="1" stop-color="#FF00FF"/>
</linearGradient>
</defs>
</svg>
