<svg width="270" height="88" viewBox="0 0 270 88" fill="none" xmlns="http://www.w3.org/2000/svg">
<rect width="270" height="88" rx="40" fill="url(#paint0_linear_8_7)"/>
<path d="M77.6094 56L87.8174 33.44H91.2734L101.609 56H97.4174L94.6654 49.664L96.3294 50.784H82.7934L84.5214 49.664L81.7694 56H77.6094ZM89.5134 37.856L85.0014 48.544L84.1694 47.552H94.9214L94.2494 48.544L89.6414 37.856H89.5134ZM104.105 56V33.44H113.993C116.447 33.44 118.335 33.9627 119.657 35.008C120.98 36.032 121.641 37.4613 121.641 39.296C121.641 40.6613 121.236 41.8133 120.425 42.752C119.615 43.6907 118.495 44.32 117.065 44.64V44.16C118.708 44.3947 119.977 44.992 120.873 45.952C121.791 46.8907 122.249 48.1387 122.249 49.696C122.249 51.7013 121.556 53.2587 120.169 54.368C118.783 55.456 116.852 56 114.377 56H104.105ZM108.073 52.864H113.897C115.284 52.864 116.361 52.608 117.129 52.096C117.897 51.5627 118.281 50.6987 118.281 49.504C118.281 48.288 117.897 47.424 117.129 46.912C116.361 46.3787 115.284 46.112 113.897 46.112H108.073V52.864ZM108.073 43.008H113.289C114.761 43.008 115.849 42.7413 116.553 42.208C117.279 41.6533 117.641 40.8427 117.641 39.776C117.641 38.7093 117.279 37.9093 116.553 37.376C115.849 36.8213 114.761 36.544 113.289 36.544H108.073V43.008ZM125.463 44.704C125.463 42.336 125.89 40.288 126.743 38.56C127.618 36.832 128.866 35.4987 130.487 34.56C132.108 33.6 134.039 33.12 136.279 33.12C138.498 33.12 140.418 33.6 142.039 34.56C143.66 35.4987 144.908 36.832 145.783 38.56C146.679 40.288 147.127 42.3253 147.127 44.672C147.127 47.04 146.679 49.0987 145.783 50.848C144.908 52.576 143.66 53.92 142.039 54.88C140.418 55.84 138.498 56.32 136.279 56.32C134.039 56.32 132.108 55.84 130.487 54.88C128.887 53.92 127.65 52.576 126.775 50.848C125.9 49.0987 125.463 47.0507 125.463 44.704ZM129.783 44.704C129.783 47.2427 130.327 49.2267 131.415 50.656C132.503 52.0853 134.124 52.8 136.279 52.8C138.37 52.8 139.98 52.0853 141.111 50.656C142.242 49.2267 142.807 47.2427 142.807 44.704C142.807 42.144 142.242 40.16 141.111 38.752C140.002 37.344 138.391 36.64 136.279 36.64C134.124 36.64 132.503 37.344 131.415 38.752C130.327 40.16 129.783 42.144 129.783 44.704ZM160.795 56.32C157.573 56.32 155.173 55.52 153.595 53.92C152.037 52.2987 151.259 49.9093 151.259 46.752V33.44H155.387V46.72C155.387 48.7253 155.813 50.24 156.667 51.264C157.541 52.288 158.917 52.8 160.795 52.8C162.587 52.8 163.931 52.288 164.827 51.264C165.744 50.24 166.203 48.7253 166.203 46.72V33.44H170.267V46.752C170.267 49.9093 169.467 52.2987 167.867 53.92C166.288 55.52 163.931 56.32 160.795 56.32ZM180.386 56V36.832H172.93V33.44H191.97V36.832H184.514V56H180.386Z" fill="white"/>
<defs>
<linearGradient id="paint0_linear_8_7" x1="-172.2" y1="44" x2="246.496" y2="44" gradientUnits="userSpaceOnUse">
<stop stop-color="#00CCFF"/>
<stop offset="1" stop-color="#FF00FF"/>
</linearGradient>
</defs>
</svg>
