<svg width="360" height="49" viewBox="0 0 360 49" fill="none" xmlns="http://www.w3.org/2000/svg">
<rect width="360" height="49" fill="url(#paint0_linear_59_45)"/>
<path d="M103.914 32V17.9H106.494V32H103.914ZM109.597 32V17.9H111.537L119.717 28.48H119.197V17.9H121.597V32H119.657L111.497 21.42H111.997V32H109.597ZM128.015 32V20.02H123.355V17.9H135.255V20.02H130.595V32H128.015ZM137.078 32V17.9H143.238C144.784 17.9 145.978 18.2667 146.818 19C147.671 19.7333 148.098 20.7533 148.098 22.06C148.098 22.9267 147.904 23.6667 147.518 24.28C147.144 24.8933 146.604 25.3667 145.898 25.7C145.191 26.02 144.358 26.18 143.398 26.18L143.678 25.8H144.358C144.918 25.8 145.418 25.9467 145.858 26.24C146.298 26.5333 146.658 26.98 146.938 27.58L148.998 32H146.158L144.078 27.42C143.891 26.9533 143.604 26.6467 143.218 26.5C142.844 26.3533 142.391 26.28 141.858 26.28H139.658V32H137.078ZM139.658 24.38H142.818C143.724 24.38 144.411 24.1933 144.878 23.82C145.358 23.4333 145.598 22.8733 145.598 22.14C145.598 21.4067 145.358 20.8533 144.878 20.48C144.411 20.1067 143.724 19.92 142.818 19.92H139.658V24.38ZM150.563 24.94C150.563 23.46 150.83 22.18 151.363 21.1C151.91 20.02 152.69 19.1867 153.703 18.6C154.716 18 155.923 17.7 157.323 17.7C158.71 17.7 159.91 18 160.923 18.6C161.936 19.1867 162.716 20.02 163.263 21.1C163.823 22.18 164.103 23.4533 164.103 24.92C164.103 26.4 163.823 27.6867 163.263 28.78C162.716 29.86 161.936 30.7 160.923 31.3C159.91 31.9 158.71 32.2 157.323 32.2C155.923 32.2 154.716 31.9 153.703 31.3C152.703 30.7 151.93 29.86 151.383 28.78C150.836 27.6867 150.563 26.4067 150.563 24.94ZM153.263 24.94C153.263 26.5267 153.603 27.7667 154.283 28.66C154.963 29.5533 155.976 30 157.323 30C158.63 30 159.636 29.5533 160.343 28.66C161.05 27.7667 161.403 26.5267 161.403 24.94C161.403 23.34 161.05 22.1 160.343 21.22C159.65 20.34 158.643 19.9 157.323 19.9C155.976 19.9 154.963 20.34 154.283 21.22C153.603 22.1 153.263 23.34 153.263 24.94ZM166.765 32V17.9H171.885C173.498 17.9 174.858 18.18 175.965 18.74C177.085 19.2867 177.932 20.0867 178.505 21.14C179.078 22.18 179.365 23.4467 179.365 24.94C179.365 26.42 179.078 27.6867 178.505 28.74C177.932 29.7933 177.085 30.6 175.965 31.16C174.858 31.72 173.498 32 171.885 32H166.765ZM169.345 29.86H171.725C173.432 29.86 174.698 29.4533 175.525 28.64C176.352 27.8267 176.765 26.5933 176.765 24.94C176.765 23.2733 176.352 22.04 175.525 21.24C174.698 20.4267 173.432 20.02 171.725 20.02H169.345V29.86ZM187.879 32.2C185.866 32.2 184.366 31.7 183.379 30.7C182.406 29.6867 181.919 28.1933 181.919 26.22V17.9H184.499V26.2C184.499 27.4533 184.766 28.4 185.299 29.04C185.846 29.68 186.706 30 187.879 30C188.999 30 189.839 29.68 190.399 29.04C190.973 28.4 191.259 27.4533 191.259 26.2V17.9H193.799V26.22C193.799 28.1933 193.299 29.6867 192.299 30.7C191.313 31.7 189.839 32.2 187.879 32.2ZM203.364 32.2C201.897 32.2 200.637 31.9067 199.584 31.32C198.544 30.72 197.744 29.88 197.184 28.8C196.624 27.7067 196.344 26.42 196.344 24.94C196.344 23.46 196.624 22.18 197.184 21.1C197.744 20.02 198.544 19.1867 199.584 18.6C200.637 18 201.897 17.7 203.364 17.7C204.351 17.7 205.237 17.84 206.024 18.12C206.824 18.4 207.511 18.8133 208.084 19.36L207.244 21.4C206.617 20.8933 206.011 20.5333 205.424 20.32C204.851 20.0933 204.191 19.98 203.444 19.98C202.017 19.98 200.924 20.4133 200.164 21.28C199.417 22.1333 199.044 23.3533 199.044 24.94C199.044 26.5267 199.417 27.7533 200.164 28.62C200.924 29.4867 202.017 29.92 203.444 29.92C204.191 29.92 204.851 29.8133 205.424 29.6C206.011 29.3733 206.617 29 207.244 28.48L208.084 30.52C207.511 31.0533 206.824 31.4667 206.024 31.76C205.237 32.0533 204.351 32.2 203.364 32.2ZM213.62 32V20.02H208.96V17.9H220.86V20.02H216.2V32H213.62ZM222.683 32V17.9H225.263V32H222.683ZM227.907 24.94C227.907 23.46 228.173 22.18 228.707 21.1C229.253 20.02 230.033 19.1867 231.047 18.6C232.06 18 233.267 17.7 234.667 17.7C236.053 17.7 237.253 18 238.267 18.6C239.28 19.1867 240.06 20.02 240.607 21.1C241.167 22.18 241.447 23.4533 241.447 24.92C241.447 26.4 241.167 27.6867 240.607 28.78C240.06 29.86 239.28 30.7 238.267 31.3C237.253 31.9 236.053 32.2 234.667 32.2C233.267 32.2 232.06 31.9 231.047 31.3C230.047 30.7 229.273 29.86 228.727 28.78C228.18 27.6867 227.907 26.4067 227.907 24.94ZM230.607 24.94C230.607 26.5267 230.947 27.7667 231.627 28.66C232.307 29.5533 233.32 30 234.667 30C235.973 30 236.98 29.5533 237.687 28.66C238.393 27.7667 238.747 26.5267 238.747 24.94C238.747 23.34 238.393 22.1 237.687 21.22C236.993 20.34 235.987 19.9 234.667 19.9C233.32 19.9 232.307 20.34 231.627 21.22C230.947 22.1 230.607 23.34 230.607 24.94ZM244.109 32V17.9H246.049L254.229 28.48H253.709V17.9H256.109V32H254.169L246.009 21.42H246.509V32H244.109Z" fill="white"/>
<defs>
<linearGradient id="paint0_linear_59_45" x1="-229.6" y1="24.5" x2="534.804" y2="24.5" gradientUnits="userSpaceOnUse">
<stop stop-color="#00CCFF"/>
<stop offset="1" stop-color="#FF00FF"/>
</linearGradient>
</defs>
</svg>
