<svg width="28" height="16" viewBox="0 0 28 16" fill="none" xmlns="http://www.w3.org/2000/svg">
<path d="M26.7143 -2.28564H1.57145C1.26834 -2.28564 0.977651 -2.16524 0.763324 -1.95091C0.548997 -1.73658 0.428589 -1.44589 0.428589 -1.14279L0.428589 17.1429C0.428589 17.446 0.548997 17.7367 0.763324 17.951C0.977651 18.1654 1.26834 18.2858 1.57145 18.2858H26.7143C27.0174 18.2858 27.3081 18.1654 27.5224 17.951C27.7368 17.7367 27.8572 17.446 27.8572 17.1429V-1.14279C27.8572 -1.44589 27.7368 -1.73658 27.5224 -1.95091C27.3081 -2.16524 27.0174 -2.28564 26.7143 -2.28564V-2.28564Z" fill="#002781"/>
<path d="M27.8572 -1.14279C27.8572 -1.44589 27.7368 -1.73658 27.5224 -1.95091C27.3081 -2.16524 27.0174 -2.28564 26.7143 -2.28564H23.7652L16.4286 3.35778V-2.28564H11.8572V3.35778L4.52059 -2.28564H1.57145C1.26834 -2.28564 0.977651 -2.16524 0.763324 -1.95091C0.548997 -1.73658 0.428589 -1.44589 0.428589 -1.14279L0.428589 0.334927L7.4223 5.71435H0.428589V10.2858H7.4223L0.428589 15.6658V17.1429C0.428589 17.446 0.548997 17.7367 0.763324 17.951C0.977651 18.1654 1.26834 18.2858 1.57145 18.2858H4.52059L11.8572 12.6424V18.2858H16.4286V12.6424L23.7652 18.2858H26.7143C27.0174 18.2858 27.3081 18.1654 27.5224 17.951C27.7368 17.7367 27.8572 17.446 27.8572 17.1429V15.6658L20.8634 10.2858H27.8572V5.71435H20.8634L27.8572 0.334927V-1.14279Z" fill="#E6E6E6"/>
<path d="M27.8572 6.85721H15.2857V-2.28564H13V6.85721H0.428589V9.14293H13V18.2858H15.2857V9.14293H27.8572V6.85721Z" fill="#D10D24"/>
<path d="M11.8572 10.1274L1.33264 18.26C1.41117 18.2767 1.49121 18.2854 1.5715 18.2857H2.93493L11.8572 11.3914V10.1274Z" fill="#D10D24"/>
<path d="M16.4286 5.87264L26.9532 -2.25993C26.8746 -2.27663 26.7946 -2.28525 26.7143 -2.28564H25.3509L16.4286 4.60921V5.87264Z" fill="#D10D24"/>
<path d="M10.7177 5.71426L0.780017 -1.9646C0.668953 -1.85849 0.58055 -1.73097 0.520148 -1.58973C0.459747 -1.4485 0.4286 -1.29649 0.428589 -1.14289L0.428589 -0.971457L9.0823 5.71426H10.7177Z" fill="#D10D24"/>
<path d="M17.568 10.2856L27.5057 17.9645C27.6168 17.8584 27.7052 17.7309 27.7656 17.5896C27.826 17.4484 27.8571 17.2964 27.8571 17.1428V16.9714L19.2034 10.2856H17.568Z" fill="#D10D24"/>
</svg>
