<svg width="360" height="104" viewBox="0 0 360 104" fill="none" xmlns="http://www.w3.org/2000/svg">
<rect x="123.5" y="16" width="113" height="40" rx="8" fill="url(#paint0_linear_8_257)"/>
<path d="M133.729 42V40.288H136.321V32.448H137.313L133.985 34.432V32.48L136.913 30.72H138.385V40.288H140.817V42H133.729ZM146.171 42.16C145.392 42.16 144.646 42.048 143.931 41.824C143.216 41.5893 142.63 41.2693 142.171 40.864L142.843 39.312C143.344 39.696 143.862 39.9787 144.395 40.16C144.939 40.3413 145.51 40.432 146.107 40.432C146.832 40.432 147.382 40.288 147.755 40C148.128 39.712 148.315 39.2907 148.315 38.736C148.315 38.2027 148.128 37.8027 147.755 37.536C147.392 37.2587 146.859 37.12 146.155 37.12H144.331V35.472H145.979C146.587 35.472 147.072 35.3227 147.435 35.024C147.798 34.7253 147.979 34.3147 147.979 33.792C147.979 33.3013 147.808 32.928 147.467 32.672C147.136 32.416 146.656 32.288 146.027 32.288C144.896 32.288 143.899 32.672 143.035 33.44L142.363 31.904C142.822 31.4773 143.387 31.1467 144.059 30.912C144.742 30.6773 145.456 30.56 146.203 30.56C147.376 30.56 148.294 30.8267 148.955 31.36C149.627 31.8827 149.963 32.6133 149.963 33.552C149.963 34.224 149.771 34.8053 149.387 35.296C149.014 35.776 148.496 36.096 147.835 36.256V36.064C148.614 36.192 149.216 36.512 149.643 37.024C150.08 37.5253 150.299 38.1547 150.299 38.912C150.299 39.9147 149.931 40.7093 149.195 41.296C148.459 41.872 147.451 42.16 146.171 42.16ZM152.005 36.128V33.92H154.245V36.128H152.005ZM152.005 42V39.776H154.245V42H152.005ZM159.909 42.16C158.587 42.16 157.568 41.6587 156.853 40.656C156.139 39.6427 155.781 38.2027 155.781 36.336C155.781 34.448 156.139 33.0133 156.853 32.032C157.568 31.0507 158.587 30.56 159.909 30.56C161.243 30.56 162.261 31.0507 162.965 32.032C163.68 33.0133 164.037 34.4427 164.037 36.32C164.037 38.1973 163.68 39.6427 162.965 40.656C162.261 41.6587 161.243 42.16 159.909 42.16ZM159.909 40.464C160.635 40.464 161.173 40.1333 161.525 39.472C161.877 38.8 162.053 37.7493 162.053 36.32C162.053 34.8907 161.877 33.856 161.525 33.216C161.173 32.5653 160.635 32.24 159.909 32.24C159.195 32.24 158.656 32.5653 158.293 33.216C157.941 33.856 157.765 34.8907 157.765 36.32C157.765 37.7493 157.941 38.8 158.293 39.472C158.656 40.1333 159.195 40.464 159.909 40.464ZM169.503 42.16C168.18 42.16 167.162 41.6587 166.447 40.656C165.732 39.6427 165.375 38.2027 165.375 36.336C165.375 34.448 165.732 33.0133 166.447 32.032C167.162 31.0507 168.18 30.56 169.503 30.56C170.836 30.56 171.855 31.0507 172.559 32.032C173.274 33.0133 173.631 34.4427 173.631 36.32C173.631 38.1973 173.274 39.6427 172.559 40.656C171.855 41.6587 170.836 42.16 169.503 42.16ZM169.503 40.464C170.228 40.464 170.767 40.1333 171.119 39.472C171.471 38.8 171.647 37.7493 171.647 36.32C171.647 34.8907 171.471 33.856 171.119 33.216C170.767 32.5653 170.228 32.24 169.503 32.24C168.788 32.24 168.25 32.5653 167.887 33.216C167.535 33.856 167.359 34.8907 167.359 36.32C167.359 37.7493 167.535 38.8 167.887 39.472C168.25 40.1333 168.788 40.464 169.503 40.464ZM175.369 38.384V36.8H180.233V38.384H175.369ZM187.479 42V40.288H190.071V32.448H191.063L187.735 34.432V32.48L190.663 30.72H192.135V40.288H194.567V42H187.479ZM199.921 42.16C199.142 42.16 198.396 42.048 197.681 41.824C196.966 41.5893 196.38 41.2693 195.921 40.864L196.593 39.312C197.094 39.696 197.612 39.9787 198.145 40.16C198.689 40.3413 199.26 40.432 199.857 40.432C200.582 40.432 201.132 40.288 201.505 40C201.878 39.712 202.065 39.2907 202.065 38.736C202.065 38.2027 201.878 37.8027 201.505 37.536C201.142 37.2587 200.609 37.12 199.905 37.12H198.081V35.472H199.729C200.337 35.472 200.822 35.3227 201.185 35.024C201.548 34.7253 201.729 34.3147 201.729 33.792C201.729 33.3013 201.558 32.928 201.217 32.672C200.886 32.416 200.406 32.288 199.777 32.288C198.646 32.288 197.649 32.672 196.785 33.44L196.113 31.904C196.572 31.4773 197.137 31.1467 197.809 30.912C198.492 30.6773 199.206 30.56 199.953 30.56C201.126 30.56 202.044 30.8267 202.705 31.36C203.377 31.8827 203.713 32.6133 203.713 33.552C203.713 34.224 203.521 34.8053 203.137 35.296C202.764 35.776 202.246 36.096 201.585 36.256V36.064C202.364 36.192 202.966 36.512 203.393 37.024C203.83 37.5253 204.049 38.1547 204.049 38.912C204.049 39.9147 203.681 40.7093 202.945 41.296C202.209 41.872 201.201 42.16 199.921 42.16ZM205.755 36.128V33.92H207.995V36.128H205.755ZM205.755 42V39.776H207.995V42H205.755ZM213.483 42.16C212.705 42.16 211.958 42.048 211.243 41.824C210.529 41.5893 209.942 41.2693 209.483 40.864L210.155 39.312C210.657 39.696 211.174 39.9787 211.707 40.16C212.251 40.3413 212.822 40.432 213.419 40.432C214.145 40.432 214.694 40.288 215.067 40C215.441 39.712 215.627 39.2907 215.627 38.736C215.627 38.2027 215.441 37.8027 215.067 37.536C214.705 37.2587 214.171 37.12 213.467 37.12H211.643V35.472H213.291C213.899 35.472 214.385 35.3227 214.747 35.024C215.11 34.7253 215.291 34.3147 215.291 33.792C215.291 33.3013 215.121 32.928 214.779 32.672C214.449 32.416 213.969 32.288 213.339 32.288C212.209 32.288 211.211 32.672 210.347 33.44L209.675 31.904C210.134 31.4773 210.699 31.1467 211.371 30.912C212.054 30.6773 212.769 30.56 213.515 30.56C214.689 30.56 215.606 30.8267 216.267 31.36C216.939 31.8827 217.275 32.6133 217.275 33.552C217.275 34.224 217.083 34.8053 216.699 35.296C216.326 35.776 215.809 36.096 215.147 36.256V36.064C215.926 36.192 216.529 36.512 216.955 37.024C217.393 37.5253 217.611 38.1547 217.611 38.912C217.611 39.9147 217.243 40.7093 216.507 41.296C215.771 41.872 214.763 42.16 213.483 42.16ZM223.253 42.16C221.93 42.16 220.912 41.6587 220.197 40.656C219.482 39.6427 219.125 38.2027 219.125 36.336C219.125 34.448 219.482 33.0133 220.197 32.032C220.912 31.0507 221.93 30.56 223.253 30.56C224.586 30.56 225.605 31.0507 226.309 32.032C227.024 33.0133 227.381 34.4427 227.381 36.32C227.381 38.1973 227.024 39.6427 226.309 40.656C225.605 41.6587 224.586 42.16 223.253 42.16ZM223.253 40.464C223.978 40.464 224.517 40.1333 224.869 39.472C225.221 38.8 225.397 37.7493 225.397 36.32C225.397 34.8907 225.221 33.856 224.869 33.216C224.517 32.5653 223.978 32.24 223.253 32.24C222.538 32.24 222 32.5653 221.637 33.216C221.285 33.856 221.109 34.8907 221.109 36.32C221.109 37.7493 221.285 38.8 221.637 39.472C222 40.1333 222.538 40.464 223.253 40.464Z" fill="white"/>
<path d="M134.248 80V68.72H139.176C140.413 68.72 141.368 69.0133 142.04 69.6C142.723 70.1867 143.064 71.0027 143.064 72.048C143.064 72.7413 142.909 73.3333 142.6 73.824C142.301 74.3147 141.869 74.6933 141.304 74.96C140.739 75.216 140.072 75.344 139.304 75.344L139.528 75.04H140.072C140.52 75.04 140.92 75.1573 141.272 75.392C141.624 75.6267 141.912 75.984 142.136 76.464L143.784 80H141.512L139.848 76.336C139.699 75.9627 139.469 75.7173 139.16 75.6C138.861 75.4827 138.499 75.424 138.072 75.424H136.312V80H134.248ZM136.312 73.904H138.84C139.565 73.904 140.115 73.7547 140.488 73.456C140.872 73.1467 141.064 72.6987 141.064 72.112C141.064 71.5253 140.872 71.0827 140.488 70.784C140.115 70.4853 139.565 70.336 138.84 70.336H136.312V73.904ZM149.023 80.16C147.669 80.16 146.607 79.7867 145.839 79.04C145.071 78.2933 144.687 77.2693 144.687 75.968C144.687 75.1253 144.853 74.3893 145.183 73.76C145.514 73.1307 145.973 72.64 146.559 72.288C147.157 71.936 147.85 71.76 148.639 71.76C149.418 71.76 150.069 71.9253 150.591 72.256C151.114 72.5867 151.509 73.0507 151.775 73.648C152.053 74.2453 152.191 74.944 152.191 75.744V76.272H146.303V75.216H150.767L150.495 75.44C150.495 74.6933 150.335 74.1227 150.015 73.728C149.706 73.3333 149.253 73.136 148.655 73.136C147.994 73.136 147.482 73.3707 147.119 73.84C146.767 74.3093 146.591 74.9653 146.591 75.808V76.016C146.591 76.8907 146.805 77.5467 147.231 77.984C147.669 78.4107 148.282 78.624 149.071 78.624C149.53 78.624 149.957 78.5653 150.351 78.448C150.757 78.32 151.141 78.1173 151.503 77.84L152.095 79.184C151.711 79.4933 151.253 79.7333 150.719 79.904C150.186 80.0747 149.621 80.16 149.023 80.16ZM157.629 83.584C156.882 83.584 156.205 83.504 155.597 83.344C155 83.184 154.466 82.9387 153.997 82.608L154.429 81.168C154.738 81.3707 155.058 81.536 155.389 81.664C155.72 81.792 156.061 81.888 156.413 81.952C156.765 82.016 157.122 82.048 157.485 82.048C158.232 82.048 158.786 81.8613 159.149 81.488C159.522 81.1253 159.709 80.6027 159.709 79.92V77.984H159.869C159.698 78.5387 159.352 78.9813 158.829 79.312C158.317 79.6427 157.725 79.808 157.053 79.808C156.328 79.808 155.693 79.648 155.149 79.328C154.616 78.9973 154.2 78.528 153.901 77.92C153.602 77.312 153.453 76.5973 153.453 75.776C153.453 74.9547 153.602 74.2453 153.901 73.648C154.2 73.04 154.616 72.576 155.149 72.256C155.693 71.9253 156.328 71.76 157.053 71.76C157.736 71.76 158.328 71.9253 158.829 72.256C159.341 72.576 159.682 73.0133 159.853 73.568L159.709 73.472L159.869 71.92H161.805C161.762 72.2507 161.73 72.5867 161.709 72.928C161.688 73.2693 161.677 73.6053 161.677 73.936V79.68C161.677 80.9493 161.33 81.9147 160.637 82.576C159.954 83.248 158.952 83.584 157.629 83.584ZM157.597 78.272C158.237 78.272 158.744 78.0587 159.117 77.632C159.501 77.1947 159.693 76.576 159.693 75.776C159.693 74.976 159.501 74.3627 159.117 73.936C158.744 73.5093 158.237 73.296 157.597 73.296C156.946 73.296 156.429 73.5093 156.045 73.936C155.661 74.3627 155.469 74.976 155.469 75.776C155.469 76.576 155.661 77.1947 156.045 77.632C156.429 78.0587 156.946 78.272 157.597 78.272ZM163.838 80V71.92H165.838V80H163.838ZM163.726 70.4V68.448H165.95V70.4H163.726ZM170.89 80.16C170.197 80.16 169.557 80.08 168.97 79.92C168.394 79.7493 167.909 79.5147 167.514 79.216L168.074 77.872C168.479 78.1493 168.927 78.3627 169.418 78.512C169.909 78.6613 170.405 78.736 170.906 78.736C171.439 78.736 171.834 78.6453 172.09 78.464C172.357 78.2827 172.49 78.0373 172.49 77.728C172.49 77.4827 172.405 77.2907 172.234 77.152C172.074 77.0027 171.813 76.8907 171.45 76.816L169.85 76.512C169.167 76.3627 168.645 76.1067 168.282 75.744C167.93 75.3813 167.754 74.9067 167.754 74.32C167.754 73.8187 167.887 73.376 168.154 72.992C168.431 72.608 168.821 72.3093 169.322 72.096C169.834 71.872 170.431 71.76 171.114 71.76C171.711 71.76 172.271 71.84 172.794 72C173.327 72.16 173.775 72.4 174.138 72.72L173.562 74.016C173.231 73.7493 172.853 73.5413 172.426 73.392C171.999 73.2427 171.583 73.168 171.178 73.168C170.623 73.168 170.218 73.2693 169.962 73.472C169.706 73.664 169.578 73.9147 169.578 74.224C169.578 74.4587 169.653 74.656 169.802 74.816C169.962 74.9653 170.207 75.0773 170.538 75.152L172.138 75.456C172.853 75.5947 173.391 75.84 173.754 76.192C174.127 76.5333 174.314 77.0027 174.314 77.6C174.314 78.1333 174.17 78.592 173.882 78.976C173.594 79.36 173.194 79.6533 172.682 79.856C172.17 80.0587 171.573 80.16 170.89 80.16ZM179.403 80.16C178.443 80.16 177.718 79.9093 177.227 79.408C176.737 78.9067 176.491 78.1547 176.491 77.152V73.424H174.939V71.92H176.491V69.856L178.491 69.344V71.92H180.651V73.424H178.491V77.024C178.491 77.5787 178.598 77.968 178.811 78.192C179.025 78.416 179.318 78.528 179.691 78.528C179.894 78.528 180.065 78.512 180.203 78.48C180.353 78.448 180.497 78.4053 180.635 78.352V79.936C180.454 80.0107 180.251 80.064 180.027 80.096C179.814 80.1387 179.606 80.16 179.403 80.16ZM181.994 80V73.984C181.994 73.6427 181.983 73.296 181.962 72.944C181.951 72.592 181.925 72.2507 181.882 71.92H183.818L184.042 74.128H183.722C183.829 73.5947 184.005 73.152 184.25 72.8C184.506 72.448 184.815 72.1867 185.178 72.016C185.541 71.8453 185.935 71.76 186.362 71.76C186.554 71.76 186.709 71.7707 186.826 71.792C186.943 71.8027 187.061 71.8293 187.178 71.872L187.162 73.632C186.959 73.5467 186.783 73.4933 186.634 73.472C186.495 73.4507 186.319 73.44 186.106 73.44C185.647 73.44 185.258 73.536 184.938 73.728C184.629 73.92 184.394 74.1867 184.234 74.528C184.085 74.8693 184.01 75.2587 184.01 75.696V80H181.994ZM191.333 80.16C190.629 80.16 190.01 79.9947 189.477 79.664C188.944 79.3227 188.528 78.8373 188.229 78.208C187.93 77.5787 187.781 76.8267 187.781 75.952C187.781 75.0773 187.93 74.3307 188.229 73.712C188.528 73.0827 188.944 72.6027 189.477 72.272C190.01 71.9307 190.629 71.76 191.333 71.76C192.016 71.76 192.613 71.9307 193.125 72.272C193.648 72.6027 193.994 73.0507 194.165 73.616H193.989L194.165 71.92H196.085C196.053 72.2507 196.021 72.5867 195.989 72.928C195.968 73.2693 195.957 73.6053 195.957 73.936V80H193.973L193.957 78.336H194.149C193.978 78.8907 193.632 79.3333 193.109 79.664C192.586 79.9947 191.994 80.16 191.333 80.16ZM191.893 78.624C192.522 78.624 193.029 78.4053 193.413 77.968C193.797 77.52 193.989 76.848 193.989 75.952C193.989 75.056 193.797 74.3893 193.413 73.952C193.029 73.5147 192.522 73.296 191.893 73.296C191.264 73.296 190.757 73.5147 190.373 73.952C189.989 74.3893 189.797 75.056 189.797 75.952C189.797 76.848 189.984 77.52 190.357 77.968C190.741 78.4053 191.253 78.624 191.893 78.624ZM201.591 80.16C200.631 80.16 199.906 79.9093 199.415 79.408C198.924 78.9067 198.679 78.1547 198.679 77.152V73.424H197.127V71.92H198.679V69.856L200.679 69.344V71.92H202.839V73.424H200.679V77.024C200.679 77.5787 200.786 77.968 200.999 78.192C201.212 78.416 201.506 78.528 201.879 78.528C202.082 78.528 202.252 78.512 202.391 78.48C202.54 78.448 202.684 78.4053 202.823 78.352V79.936C202.642 80.0107 202.439 80.064 202.215 80.096C202.002 80.1387 201.794 80.16 201.591 80.16ZM204.197 80V71.92H206.197V80H204.197ZM204.085 70.4V68.448H206.309V70.4H204.085ZM212.017 80.16C211.185 80.16 210.465 79.9893 209.857 79.648C209.249 79.3067 208.775 78.8213 208.433 78.192C208.103 77.5627 207.937 76.816 207.937 75.952C207.937 75.088 208.103 74.3467 208.433 73.728C208.775 73.0987 209.249 72.6133 209.857 72.272C210.465 71.9307 211.185 71.76 212.017 71.76C212.849 71.76 213.569 71.9307 214.177 72.272C214.796 72.6133 215.271 73.0987 215.601 73.728C215.943 74.3467 216.113 75.088 216.113 75.952C216.113 76.816 215.943 77.5627 215.601 78.192C215.271 78.8213 214.796 79.3067 214.177 79.648C213.569 79.9893 212.849 80.16 212.017 80.16ZM212.017 78.624C212.647 78.624 213.148 78.4053 213.521 77.968C213.895 77.52 214.081 76.848 214.081 75.952C214.081 75.056 213.895 74.3893 213.521 73.952C213.148 73.5147 212.647 73.296 212.017 73.296C211.388 73.296 210.887 73.5147 210.513 73.952C210.14 74.3893 209.953 75.056 209.953 75.952C209.953 76.848 210.14 77.52 210.513 77.968C210.887 78.4053 211.388 78.624 212.017 78.624ZM217.838 80V73.936C217.838 73.6053 217.827 73.2693 217.806 72.928C217.785 72.5867 217.753 72.2507 217.71 71.92H219.646L219.806 73.52H219.614C219.87 72.9547 220.249 72.5227 220.75 72.224C221.251 71.9147 221.833 71.76 222.494 71.76C223.443 71.76 224.158 72.0267 224.638 72.56C225.118 73.0933 225.358 73.9253 225.358 75.056V80H223.358V75.152C223.358 74.5013 223.23 74.0373 222.974 73.76C222.729 73.472 222.355 73.328 221.854 73.328C221.235 73.328 220.745 73.52 220.382 73.904C220.019 74.288 219.838 74.8 219.838 75.44V80H217.838Z" fill="#1E1E1E"/>
<defs>
<linearGradient id="paint0_linear_8_257" x1="32.9845" y1="36" x2="341.288" y2="36" gradientUnits="userSpaceOnUse">
<stop stop-color="#00CCFF"/>
<stop offset="1" stop-color="#FF00FF"/>
</linearGradient>
</defs>
</svg>
