<svg width="360" height="108" viewBox="0 0 360 108" fill="none" xmlns="http://www.w3.org/2000/svg">
<rect x="123.5" y="12" width="113" height="40" rx="8" fill="url(#paint0_linear_1_38)"/>
<path d="M133.729 38V36.288H136.321V28.448H137.313L133.985 30.432V28.48L136.913 26.72H138.385V36.288H140.817V38H133.729ZM146.171 38.16C145.392 38.16 144.646 38.048 143.931 37.824C143.216 37.5893 142.63 37.2693 142.171 36.864L142.843 35.312C143.344 35.696 143.862 35.9787 144.395 36.16C144.939 36.3413 145.51 36.432 146.107 36.432C146.832 36.432 147.382 36.288 147.755 36C148.128 35.712 148.315 35.2907 148.315 34.736C148.315 34.2027 148.128 33.8027 147.755 33.536C147.392 33.2587 146.859 33.12 146.155 33.12H144.331V31.472H145.979C146.587 31.472 147.072 31.3227 147.435 31.024C147.798 30.7253 147.979 30.3147 147.979 29.792C147.979 29.3013 147.808 28.928 147.467 28.672C147.136 28.416 146.656 28.288 146.027 28.288C144.896 28.288 143.899 28.672 143.035 29.44L142.363 27.904C142.822 27.4773 143.387 27.1467 144.059 26.912C144.742 26.6773 145.456 26.56 146.203 26.56C147.376 26.56 148.294 26.8267 148.955 27.36C149.627 27.8827 149.963 28.6133 149.963 29.552C149.963 30.224 149.771 30.8053 149.387 31.296C149.014 31.776 148.496 32.096 147.835 32.256V32.064C148.614 32.192 149.216 32.512 149.643 33.024C150.08 33.5253 150.299 34.1547 150.299 34.912C150.299 35.9147 149.931 36.7093 149.195 37.296C148.459 37.872 147.451 38.16 146.171 38.16ZM152.005 32.128V29.92H154.245V32.128H152.005ZM152.005 38V35.776H154.245V38H152.005ZM159.733 38.16C158.955 38.16 158.208 38.048 157.493 37.824C156.779 37.5893 156.192 37.2693 155.733 36.864L156.405 35.312C156.907 35.696 157.424 35.9787 157.957 36.16C158.501 36.3413 159.072 36.432 159.669 36.432C160.395 36.432 160.944 36.288 161.317 36C161.691 35.712 161.877 35.2907 161.877 34.736C161.877 34.2027 161.691 33.8027 161.317 33.536C160.955 33.2587 160.421 33.12 159.717 33.12H157.893V31.472H159.541C160.149 31.472 160.635 31.3227 160.997 31.024C161.36 30.7253 161.541 30.3147 161.541 29.792C161.541 29.3013 161.371 28.928 161.029 28.672C160.699 28.416 160.219 28.288 159.589 28.288C158.459 28.288 157.461 28.672 156.597 29.44L155.925 27.904C156.384 27.4773 156.949 27.1467 157.621 26.912C158.304 26.6773 159.019 26.56 159.765 26.56C160.939 26.56 161.856 26.8267 162.517 27.36C163.189 27.8827 163.525 28.6133 163.525 29.552C163.525 30.224 163.333 30.8053 162.949 31.296C162.576 31.776 162.059 32.096 161.397 32.256V32.064C162.176 32.192 162.779 32.512 163.205 33.024C163.643 33.5253 163.861 34.1547 163.861 34.912C163.861 35.9147 163.493 36.7093 162.757 37.296C162.021 37.872 161.013 38.16 159.733 38.16ZM169.503 38.16C168.18 38.16 167.162 37.6587 166.447 36.656C165.732 35.6427 165.375 34.2027 165.375 32.336C165.375 30.448 165.732 29.0133 166.447 28.032C167.162 27.0507 168.18 26.56 169.503 26.56C170.836 26.56 171.855 27.0507 172.559 28.032C173.274 29.0133 173.631 30.4427 173.631 32.32C173.631 34.1973 173.274 35.6427 172.559 36.656C171.855 37.6587 170.836 38.16 169.503 38.16ZM169.503 36.464C170.228 36.464 170.767 36.1333 171.119 35.472C171.471 34.8 171.647 33.7493 171.647 32.32C171.647 30.8907 171.471 29.856 171.119 29.216C170.767 28.5653 170.228 28.24 169.503 28.24C168.788 28.24 168.25 28.5653 167.887 29.216C167.535 29.856 167.359 30.8907 167.359 32.32C167.359 33.7493 167.535 34.8 167.887 35.472C168.25 36.1333 168.788 36.464 169.503 36.464ZM175.369 34.384V32.8H180.233V34.384H175.369ZM187.479 38V36.288H190.071V28.448H191.063L187.735 30.432V28.48L190.663 26.72H192.135V36.288H194.567V38H187.479ZM200.993 38V35.792H195.953V34.352L201.313 26.72H202.977V34.224H204.593V35.792H202.977V38H200.993ZM200.993 34.224V29.152H201.377L197.489 34.704V34.224H200.993ZM205.755 32.128V29.92H207.995V32.128H205.755ZM205.755 38V35.776H207.995V38H205.755ZM210.635 38V36.288H213.227V28.448H214.219L210.891 30.432V28.48L213.819 26.72H215.291V36.288H217.723V38H210.635ZM223.333 38.16C222.842 38.16 222.352 38.1067 221.861 38C221.381 37.8933 220.928 37.744 220.501 37.552C220.085 37.36 219.728 37.1307 219.429 36.864L220.101 35.312C220.602 35.6853 221.114 35.968 221.637 36.16C222.17 36.3413 222.725 36.432 223.301 36.432C223.994 36.432 224.533 36.2613 224.917 35.92C225.312 35.568 225.509 35.0987 225.509 34.512C225.509 33.9147 225.322 33.4347 224.949 33.072C224.576 32.6987 224.064 32.512 223.413 32.512C222.954 32.512 222.533 32.6027 222.149 32.784C221.776 32.9547 221.44 33.2213 221.141 33.584H219.781V26.72H226.789V28.416H221.733V32H221.237C221.514 31.6267 221.882 31.3387 222.341 31.136C222.81 30.9333 223.333 30.832 223.909 30.832C224.634 30.832 225.264 30.9813 225.797 31.28C226.33 31.5787 226.746 32 227.045 32.544C227.344 33.0773 227.493 33.7067 227.493 34.432C227.493 35.168 227.322 35.8187 226.981 36.384C226.65 36.9387 226.17 37.376 225.541 37.696C224.922 38.0053 224.186 38.16 223.333 38.16Z" fill="white"/>
<path d="M101.451 76V64.72H103.515V69.712H103.547L108.459 64.72H110.955L105.067 70.592L105.083 69.696L111.339 76H108.763L103.547 70.784H103.515V76H101.451ZM111.947 76V64.224H113.947V69.536H113.723C113.969 68.96 114.347 68.5227 114.859 68.224C115.371 67.9147 115.958 67.76 116.619 67.76C117.579 67.76 118.294 68.032 118.763 68.576C119.233 69.1093 119.467 69.9253 119.467 71.024V76H117.467V71.12C117.467 70.4907 117.345 70.0373 117.099 69.76C116.865 69.472 116.486 69.328 115.963 69.328C115.355 69.328 114.865 69.52 114.491 69.904C114.129 70.2773 113.947 70.7787 113.947 71.408V76H111.947ZM124.708 76.16C124.004 76.16 123.385 75.9947 122.852 75.664C122.319 75.3227 121.903 74.8373 121.604 74.208C121.305 73.5787 121.156 72.8267 121.156 71.952C121.156 71.0773 121.305 70.3307 121.604 69.712C121.903 69.0827 122.319 68.6027 122.852 68.272C123.385 67.9307 124.004 67.76 124.708 67.76C125.391 67.76 125.988 67.9307 126.5 68.272C127.023 68.6027 127.369 69.0507 127.54 69.616H127.364L127.54 67.92H129.46C129.428 68.2507 129.396 68.5867 129.364 68.928C129.343 69.2693 129.332 69.6053 129.332 69.936V76H127.348L127.332 74.336H127.524C127.353 74.8907 127.007 75.3333 126.484 75.664C125.961 75.9947 125.369 76.16 124.708 76.16ZM125.268 74.624C125.897 74.624 126.404 74.4053 126.788 73.968C127.172 73.52 127.364 72.848 127.364 71.952C127.364 71.056 127.172 70.3893 126.788 69.952C126.404 69.5147 125.897 69.296 125.268 69.296C124.639 69.296 124.132 69.5147 123.748 69.952C123.364 70.3893 123.172 71.056 123.172 71.952C123.172 72.848 123.359 73.52 123.732 73.968C124.116 74.4053 124.628 74.624 125.268 74.624ZM131.51 76V67.92H133.51V76H131.51ZM131.398 66.4V64.448H133.622V66.4H131.398ZM140.072 76V69.936C140.072 69.6053 140.062 69.2693 140.04 68.928C140.019 68.5867 139.987 68.2507 139.944 67.92H141.88L142.04 69.52H141.848C142.072 68.9653 142.414 68.5333 142.872 68.224C143.342 67.9147 143.896 67.76 144.536 67.76C145.176 67.76 145.704 67.9147 146.12 68.224C146.547 68.5227 146.846 68.992 147.016 69.632H146.76C146.984 69.056 147.352 68.6027 147.864 68.272C148.376 67.9307 148.963 67.76 149.624 67.76C150.531 67.76 151.208 68.0267 151.656 68.56C152.104 69.0933 152.328 69.9253 152.328 71.056V76H150.328V71.136C150.328 70.496 150.222 70.0373 150.008 69.76C149.795 69.472 149.454 69.328 148.984 69.328C148.43 69.328 147.992 69.5253 147.672 69.92C147.352 70.304 147.192 70.8267 147.192 71.488V76H145.192V71.136C145.192 70.496 145.086 70.0373 144.872 69.76C144.659 69.472 144.318 69.328 143.848 69.328C143.294 69.328 142.856 69.5253 142.536 69.92C142.227 70.304 142.072 70.8267 142.072 71.488V76H140.072ZM157.583 76.16C156.879 76.16 156.26 75.9947 155.727 75.664C155.194 75.3227 154.778 74.8373 154.479 74.208C154.18 73.5787 154.031 72.8267 154.031 71.952C154.031 71.0773 154.18 70.3307 154.479 69.712C154.778 69.0827 155.194 68.6027 155.727 68.272C156.26 67.9307 156.879 67.76 157.583 67.76C158.266 67.76 158.863 67.9307 159.375 68.272C159.898 68.6027 160.244 69.0507 160.415 69.616H160.239L160.415 67.92H162.335C162.303 68.2507 162.271 68.5867 162.239 68.928C162.218 69.2693 162.207 69.6053 162.207 69.936V76H160.223L160.207 74.336H160.399C160.228 74.8907 159.882 75.3333 159.359 75.664C158.836 75.9947 158.244 76.16 157.583 76.16ZM158.143 74.624C158.772 74.624 159.279 74.4053 159.663 73.968C160.047 73.52 160.239 72.848 160.239 71.952C160.239 71.056 160.047 70.3893 159.663 69.952C159.279 69.5147 158.772 69.296 158.143 69.296C157.514 69.296 157.007 69.5147 156.623 69.952C156.239 70.3893 156.047 71.056 156.047 71.952C156.047 72.848 156.234 73.52 156.607 73.968C156.991 74.4053 157.503 74.624 158.143 74.624ZM157.231 79.264V77.408H159.183V79.264H157.231ZM168.097 76.16C167.265 76.16 166.534 75.9893 165.905 75.648C165.286 75.3067 164.806 74.8213 164.465 74.192C164.124 73.552 163.953 72.7947 163.953 71.92C163.953 71.0453 164.124 70.2987 164.465 69.68C164.817 69.0613 165.302 68.5867 165.921 68.256C166.54 67.9253 167.265 67.76 168.097 67.76C168.63 67.76 169.148 67.8453 169.649 68.016C170.161 68.176 170.577 68.4107 170.897 68.72L170.289 70.112C170.001 69.8453 169.676 69.648 169.313 69.52C168.961 69.3813 168.614 69.312 168.273 69.312C167.558 69.312 166.998 69.536 166.593 69.984C166.198 70.432 166.001 71.0827 166.001 71.936C166.001 72.7893 166.198 73.4453 166.593 73.904C166.998 74.3627 167.558 74.592 168.273 74.592C168.604 74.592 168.945 74.528 169.297 74.4C169.66 74.272 169.99 74.0747 170.289 73.808L170.897 75.184C170.566 75.4933 170.145 75.7333 169.633 75.904C169.132 76.0747 168.62 76.16 168.097 76.16ZM176.998 76V64.72H181.094C182.385 64.72 183.473 64.944 184.358 65.392C185.254 65.8293 185.931 66.4693 186.39 67.312C186.849 68.144 187.078 69.1573 187.078 70.352C187.078 71.536 186.849 72.5493 186.39 73.392C185.931 74.2347 185.254 74.88 184.358 75.328C183.473 75.776 182.385 76 181.094 76H176.998ZM179.062 74.288H180.966C182.331 74.288 183.345 73.9627 184.006 73.312C184.667 72.6613 184.998 71.6747 184.998 70.352C184.998 69.0187 184.667 68.032 184.006 67.392C183.345 66.7413 182.331 66.416 180.966 66.416H179.062V74.288ZM189.026 76V67.92H191.026V76H189.026ZM188.914 66.4V64.448H191.138V66.4H188.914ZM197.101 76.16C195.747 76.16 194.685 75.7867 193.917 75.04C193.149 74.2933 192.765 73.2693 192.765 71.968C192.765 71.1253 192.931 70.3893 193.261 69.76C193.592 69.1307 194.051 68.64 194.637 68.288C195.235 67.936 195.928 67.76 196.717 67.76C197.496 67.76 198.147 67.9253 198.669 68.256C199.192 68.5867 199.587 69.0507 199.853 69.648C200.131 70.2453 200.269 70.944 200.269 71.744V72.272H194.381V71.216H198.845L198.573 71.44C198.573 70.6933 198.413 70.1227 198.093 69.728C197.784 69.3333 197.331 69.136 196.733 69.136C196.072 69.136 195.56 69.3707 195.197 69.84C194.845 70.3093 194.669 70.9653 194.669 71.808V72.016C194.669 72.8907 194.883 73.5467 195.309 73.984C195.747 74.4107 196.36 74.624 197.149 74.624C197.608 74.624 198.035 74.5653 198.429 74.448C198.835 74.32 199.219 74.1173 199.581 73.84L200.173 75.184C199.789 75.4933 199.331 75.7333 198.797 75.904C198.264 76.0747 197.699 76.16 197.101 76.16ZM194.077 67.216L195.837 65.088H197.597L199.357 67.216H198.125L196.717 66.064L195.309 67.216H194.077ZM194.893 64.704L193.965 64.656C194.008 64.08 194.184 63.648 194.493 63.36C194.803 63.072 195.192 62.928 195.661 62.928C195.875 62.928 196.072 62.9653 196.253 63.04C196.445 63.104 196.653 63.1947 196.877 63.312C197.101 63.44 197.272 63.5253 197.389 63.568C197.507 63.6107 197.619 63.632 197.725 63.632C197.971 63.632 198.157 63.5733 198.285 63.456C198.413 63.3387 198.499 63.1573 198.541 62.912L199.469 62.96C199.437 63.536 199.267 63.968 198.957 64.256C198.648 64.544 198.259 64.688 197.789 64.688C197.576 64.688 197.368 64.6507 197.165 64.576C196.963 64.5013 196.739 64.3947 196.493 64.256C196.365 64.1813 196.237 64.1173 196.109 64.064C195.981 64.0107 195.848 63.984 195.709 63.984C195.475 63.984 195.293 64.0427 195.165 64.16C195.037 64.2773 194.947 64.4587 194.893 64.704ZM201.963 76V69.936C201.963 69.6053 201.952 69.2693 201.931 68.928C201.91 68.5867 201.878 68.2507 201.835 67.92H203.771L203.931 69.52H203.739C203.995 68.9547 204.374 68.5227 204.875 68.224C205.376 67.9147 205.958 67.76 206.619 67.76C207.568 67.76 208.283 68.0267 208.763 68.56C209.243 69.0933 209.483 69.9253 209.483 71.056V76H207.483V71.152C207.483 70.5013 207.355 70.0373 207.099 69.76C206.854 69.472 206.48 69.328 205.979 69.328C205.36 69.328 204.87 69.52 204.507 69.904C204.144 70.288 203.963 70.8 203.963 71.44V76H201.963ZM219.114 76.16C218.41 76.16 217.792 76 217.258 75.68C216.725 75.3493 216.309 74.88 216.01 74.272C215.712 73.6533 215.562 72.9227 215.562 72.08C215.562 71.2373 215.712 70.512 216.01 69.904C216.309 69.296 216.725 68.832 217.258 68.512C217.792 68.1813 218.41 68.016 219.114 68.016C219.776 68.016 220.362 68.1813 220.874 68.512C221.386 68.832 221.728 69.2587 221.898 69.792H221.722V66.896H218.666V65.488H221.722V64.224H223.722V65.488H225.178V66.896H223.722V76H221.754V74.32H221.914C221.744 74.8747 221.402 75.3227 220.89 75.664C220.389 75.9947 219.797 76.16 219.114 76.16ZM219.674 74.624C220.293 74.624 220.794 74.4107 221.178 73.984C221.562 73.5573 221.754 72.9227 221.754 72.08C221.754 71.2373 221.562 70.608 221.178 70.192C220.794 69.7653 220.293 69.552 219.674 69.552C219.045 69.552 218.538 69.7653 218.154 70.192C217.77 70.608 217.578 71.2373 217.578 72.08C217.578 72.9227 217.77 73.5573 218.154 73.984C218.538 74.4107 219.045 74.624 219.674 74.624ZM229.036 76.16C228.332 76.16 227.713 75.9947 227.18 75.664C226.647 75.3227 226.231 74.8373 225.932 74.208C225.633 73.5787 225.484 72.8267 225.484 71.952C225.484 71.0773 225.633 70.3307 225.932 69.712C226.231 69.0827 226.647 68.6027 227.18 68.272C227.713 67.9307 228.332 67.76 229.036 67.76C229.719 67.76 230.316 67.9307 230.828 68.272C231.351 68.6027 231.697 69.0507 231.868 69.616H231.692L231.868 67.92H233.788C233.756 68.2507 233.724 68.5867 233.692 68.928C233.671 69.2693 233.66 69.6053 233.66 69.936V76H231.676L231.66 74.336H231.852C231.681 74.8907 231.335 75.3333 230.812 75.664C230.289 75.9947 229.697 76.16 229.036 76.16ZM229.596 74.624C230.225 74.624 230.732 74.4053 231.116 73.968C231.5 73.52 231.692 72.848 231.692 71.952C231.692 71.056 231.5 70.3893 231.116 69.952C230.732 69.5147 230.225 69.296 229.596 69.296C228.967 69.296 228.46 69.5147 228.076 69.952C227.692 70.3893 227.5 71.056 227.5 71.952C227.5 72.848 227.687 73.52 228.06 73.968C228.444 74.4053 228.956 74.624 229.596 74.624ZM229.036 67.136L226.764 63.888H228.732L230.38 67.136H229.036ZM235.838 76V69.936C235.838 69.6053 235.827 69.2693 235.806 68.928C235.785 68.5867 235.753 68.2507 235.71 67.92H237.646L237.806 69.52H237.614C237.87 68.9547 238.249 68.5227 238.75 68.224C239.251 67.9147 239.833 67.76 240.494 67.76C241.443 67.76 242.158 68.0267 242.638 68.56C243.118 69.0933 243.358 69.9253 243.358 71.056V76H241.358V71.152C241.358 70.5013 241.23 70.0373 240.974 69.76C240.729 69.472 240.355 69.328 239.854 69.328C239.235 69.328 238.745 69.52 238.382 69.904C238.019 70.288 237.838 70.8 237.838 71.44V76H235.838ZM259.309 76.16C258.819 75.9893 258.349 75.76 257.901 75.472C257.453 75.1733 257.048 74.8587 256.685 74.528L257.117 74.544C256.627 75.0453 256.056 75.44 255.405 75.728C254.755 76.016 254.061 76.16 253.325 76.16C252.504 76.16 251.795 76.032 251.197 75.776C250.6 75.52 250.141 75.168 249.821 74.72C249.501 74.2613 249.341 73.728 249.341 73.12C249.341 72.3947 249.555 71.776 249.981 71.264C250.408 70.752 250.995 70.272 251.741 69.824L252.285 69.52L251.981 69.888C251.523 69.4293 251.181 68.9867 250.957 68.56C250.733 68.1333 250.621 67.6907 250.621 67.232C250.621 66.6987 250.749 66.2347 251.005 65.84C251.272 65.4347 251.64 65.12 252.109 64.896C252.589 64.672 253.149 64.56 253.789 64.56C254.621 64.56 255.299 64.784 255.821 65.232C256.344 65.6693 256.605 66.2667 256.605 67.024C256.605 67.4293 256.525 67.808 256.365 68.16C256.205 68.512 255.944 68.848 255.581 69.168C255.229 69.488 254.765 69.808 254.189 70.128L254.237 69.728L257.037 72.624H256.621C256.899 72.1867 257.112 71.6747 257.261 71.088C257.411 70.5013 257.501 69.8827 257.533 69.232H259.213C259.181 70.1067 259.043 70.9333 258.797 71.712C258.552 72.4907 258.221 73.1787 257.805 73.776L257.789 73.296C258.077 73.5947 258.408 73.8667 258.781 74.112C259.155 74.3573 259.56 74.56 259.997 74.72L259.309 76.16ZM253.437 74.608C253.971 74.608 254.445 74.5067 254.861 74.304C255.288 74.1013 255.667 73.8027 255.997 73.408L255.949 73.888L252.589 70.48L253.405 70.496L252.941 70.752C252.579 70.976 252.275 71.2 252.029 71.424C251.795 71.648 251.619 71.888 251.501 72.144C251.384 72.3893 251.325 72.672 251.325 72.992C251.325 73.4933 251.507 73.888 251.869 74.176C252.232 74.464 252.755 74.608 253.437 74.608ZM253.789 65.92C253.384 65.92 253.059 66.0373 252.813 66.272C252.568 66.5067 252.445 66.816 252.445 67.2C252.445 67.4027 252.483 67.5947 252.557 67.776C252.632 67.9573 252.755 68.1547 252.925 68.368C253.096 68.5707 253.32 68.8213 253.597 69.12L253.117 69.152C253.779 68.7893 254.259 68.4587 254.557 68.16C254.867 67.8507 255.021 67.4987 255.021 67.104C255.021 66.7307 254.909 66.4427 254.685 66.24C254.461 66.0267 254.163 65.92 253.789 65.92ZM91.2712 96V86.416H87.5432V84.72H97.0632V86.416H93.3352V96H91.2712ZM97.0954 96V89.984C97.0954 89.6427 97.0848 89.296 97.0634 88.944C97.0528 88.592 97.0261 88.2507 96.9834 87.92H98.9194L99.1434 90.128H98.8234C98.9301 89.5947 99.1061 89.152 99.3514 88.8C99.6074 88.448 99.9168 88.1867 100.279 88.016C100.642 87.8453 101.037 87.76 101.463 87.76C101.655 87.76 101.81 87.7707 101.927 87.792C102.045 87.8027 102.162 87.8293 102.279 87.872L102.263 89.632C102.061 89.5467 101.885 89.4933 101.735 89.472C101.597 89.4507 101.421 89.44 101.207 89.44C100.749 89.44 100.359 89.536 100.039 89.728C99.7301 89.92 99.4954 90.1867 99.3354 90.528C99.1861 90.8693 99.1114 91.2587 99.1114 91.696V96H97.0954ZM106.435 96.16C105.731 96.16 105.112 95.9947 104.579 95.664C104.045 95.3227 103.629 94.8373 103.331 94.208C103.032 93.5787 102.883 92.8267 102.883 91.952C102.883 91.0773 103.032 90.3307 103.331 89.712C103.629 89.0827 104.045 88.6027 104.579 88.272C105.112 87.9307 105.731 87.76 106.435 87.76C107.117 87.76 107.715 87.9307 108.227 88.272C108.749 88.6027 109.096 89.0507 109.267 89.616H109.091L109.267 87.92H111.187C111.155 88.2507 111.123 88.5867 111.091 88.928C111.069 89.2693 111.059 89.6053 111.059 89.936V96H109.075L109.059 94.336H109.251C109.08 94.8907 108.733 95.3333 108.211 95.664C107.688 95.9947 107.096 96.16 106.435 96.16ZM106.995 94.624C107.624 94.624 108.131 94.4053 108.515 93.968C108.899 93.52 109.091 92.848 109.091 91.952C109.091 91.056 108.899 90.3893 108.515 89.952C108.131 89.5147 107.624 89.296 106.995 89.296C106.365 89.296 105.859 89.5147 105.475 89.952C105.091 90.3893 104.899 91.056 104.899 91.952C104.899 92.848 105.085 93.52 105.459 93.968C105.843 94.4053 106.355 94.624 106.995 94.624ZM116.884 96.16C116.052 96.16 115.332 95.9893 114.724 95.648C114.116 95.3067 113.642 94.8213 113.3 94.192C112.97 93.5627 112.804 92.816 112.804 91.952C112.804 91.088 112.97 90.3467 113.3 89.728C113.642 89.0987 114.116 88.6133 114.724 88.272C115.332 87.9307 116.052 87.76 116.884 87.76C117.716 87.76 118.436 87.9307 119.044 88.272C119.663 88.6133 120.138 89.0987 120.468 89.728C120.81 90.3467 120.98 91.088 120.98 91.952C120.98 92.816 120.81 93.5627 120.468 94.192C120.138 94.8213 119.663 95.3067 119.044 95.648C118.436 95.9893 117.716 96.16 116.884 96.16ZM116.884 94.624C117.514 94.624 118.015 94.4053 118.388 93.968C118.762 93.52 118.948 92.848 118.948 91.952C118.948 91.056 118.762 90.3893 118.388 89.952C118.015 89.5147 117.514 89.296 116.884 89.296C116.255 89.296 115.754 89.5147 115.38 89.952C115.007 90.3893 114.82 91.056 114.82 91.952C114.82 92.848 115.007 93.52 115.38 93.968C115.754 94.4053 116.255 94.624 116.884 94.624ZM130.552 96.16C129.592 96.16 128.866 95.9093 128.376 95.408C127.885 94.9067 127.64 94.1547 127.64 93.152V89.424H126.088V87.92H127.64V85.856L129.64 85.344V87.92H131.8V89.424H129.64V93.024C129.64 93.5787 129.746 93.968 129.96 94.192C130.173 94.416 130.466 94.528 130.84 94.528C131.042 94.528 131.213 94.512 131.352 94.48C131.501 94.448 131.645 94.4053 131.784 94.352V95.936C131.602 96.0107 131.4 96.064 131.176 96.096C130.962 96.1387 130.754 96.16 130.552 96.16ZM133.158 96V84.224H135.158V89.536H134.934C135.18 88.96 135.558 88.5227 136.07 88.224C136.582 87.9147 137.169 87.76 137.83 87.76C138.79 87.76 139.505 88.032 139.974 88.576C140.444 89.1093 140.678 89.9253 140.678 91.024V96H138.678V91.12C138.678 90.4907 138.556 90.0373 138.31 89.76C138.076 89.472 137.697 89.328 137.174 89.328C136.566 89.328 136.076 89.52 135.702 89.904C135.34 90.2773 135.158 90.7787 135.158 91.408V96H133.158ZM145.711 96.16C144.719 96.16 143.978 95.888 143.487 95.344C142.996 94.8 142.751 93.968 142.751 92.848V87.92H144.751V92.832C144.751 93.4293 144.874 93.872 145.119 94.16C145.364 94.4373 145.738 94.576 146.239 94.576C146.804 94.576 147.263 94.384 147.615 94C147.978 93.616 148.159 93.1093 148.159 92.48V87.92H150.159V96H148.207V94.352H148.431C148.196 94.928 147.839 95.376 147.359 95.696C146.89 96.0053 146.34 96.16 145.711 96.16ZM149.807 88.944L148.655 88.224V87.92C149.039 87.9093 149.343 87.856 149.567 87.76C149.802 87.6533 149.972 87.4773 150.079 87.232C150.186 86.9867 150.239 86.6507 150.239 86.224V85.888H151.967V86.48C151.967 86.9387 151.876 87.344 151.695 87.696C151.524 88.048 151.279 88.336 150.959 88.56C150.639 88.7733 150.255 88.9013 149.807 88.944ZM155.978 96.16C155.146 96.16 154.426 95.9893 153.818 95.648C153.21 95.3067 152.736 94.8213 152.394 94.192C152.064 93.5627 151.898 92.816 151.898 91.952C151.898 91.088 152.064 90.3467 152.394 89.728C152.736 89.0987 153.21 88.6133 153.818 88.272C154.426 87.9307 155.146 87.76 155.978 87.76C156.81 87.76 157.53 87.9307 158.138 88.272C158.757 88.6133 159.232 89.0987 159.562 89.728C159.904 90.3467 160.074 91.088 160.074 91.952C160.074 92.816 159.904 93.5627 159.562 94.192C159.232 94.8213 158.757 95.3067 158.138 95.648C157.53 95.9893 156.81 96.16 155.978 96.16ZM155.978 94.624C156.608 94.624 157.109 94.4053 157.482 93.968C157.856 93.52 158.042 92.848 158.042 91.952C158.042 91.056 157.856 90.3893 157.482 89.952C157.109 89.5147 156.608 89.296 155.978 89.296C155.349 89.296 154.848 89.5147 154.474 89.952C154.101 90.3893 153.914 91.056 153.914 91.952C153.914 92.848 154.101 93.52 154.474 93.968C154.848 94.4053 155.349 94.624 155.978 94.624ZM158.01 88.944L156.858 88.224V87.92C157.242 87.9093 157.546 87.856 157.77 87.76C158.005 87.6533 158.176 87.4773 158.282 87.232C158.389 86.9867 158.442 86.6507 158.442 86.224V85.888H160.17V86.48C160.17 86.9387 160.08 87.344 159.898 87.696C159.728 88.048 159.482 88.336 159.162 88.56C158.842 88.7733 158.458 88.9013 158.01 88.944ZM161.799 96V89.936C161.799 89.6053 161.788 89.2693 161.767 88.928C161.746 88.5867 161.714 88.2507 161.671 87.92H163.607L163.767 89.52H163.575C163.831 88.9547 164.21 88.5227 164.711 88.224C165.212 87.9147 165.794 87.76 166.455 87.76C167.404 87.76 168.119 88.0267 168.599 88.56C169.079 89.0933 169.319 89.9253 169.319 91.056V96H167.319V91.152C167.319 90.5013 167.191 90.0373 166.935 89.76C166.69 89.472 166.316 89.328 165.815 89.328C165.196 89.328 164.706 89.52 164.343 89.904C163.98 90.288 163.799 90.8 163.799 91.44V96H161.799ZM175.184 99.584C174.437 99.584 173.76 99.504 173.152 99.344C172.554 99.184 172.021 98.9387 171.552 98.608L171.984 97.168C172.293 97.3707 172.613 97.536 172.944 97.664C173.274 97.792 173.616 97.888 173.968 97.952C174.32 98.016 174.677 98.048 175.04 98.048C175.786 98.048 176.341 97.8613 176.704 97.488C177.077 97.1253 177.264 96.6027 177.264 95.92V93.984H177.424C177.253 94.5387 176.906 94.9813 176.384 95.312C175.872 95.6427 175.28 95.808 174.608 95.808C173.882 95.808 173.248 95.648 172.704 95.328C172.17 94.9973 171.754 94.528 171.456 93.92C171.157 93.312 171.008 92.5973 171.008 91.776C171.008 90.9547 171.157 90.2453 171.456 89.648C171.754 89.04 172.17 88.576 172.704 88.256C173.248 87.9253 173.882 87.76 174.608 87.76C175.29 87.76 175.882 87.9253 176.384 88.256C176.896 88.576 177.237 89.0133 177.408 89.568L177.264 89.472L177.424 87.92H179.36C179.317 88.2507 179.285 88.5867 179.264 88.928C179.242 89.2693 179.232 89.6053 179.232 89.936V95.68C179.232 96.9493 178.885 97.9147 178.192 98.576C177.509 99.248 176.506 99.584 175.184 99.584ZM175.152 94.272C175.792 94.272 176.298 94.0587 176.672 93.632C177.056 93.1947 177.248 92.576 177.248 91.776C177.248 90.976 177.056 90.3627 176.672 89.936C176.298 89.5093 175.792 89.296 175.152 89.296C174.501 89.296 173.984 89.5093 173.6 89.936C173.216 90.3627 173.024 90.976 173.024 91.776C173.024 92.576 173.216 93.1947 173.6 93.632C173.984 94.0587 174.501 94.272 175.152 94.272ZM188.151 96L184.663 87.92H186.791L189.319 94.24H188.823L191.415 87.92H193.415L189.911 96H188.151ZM197.398 96.16C196.406 96.16 195.665 95.888 195.174 95.344C194.684 94.8 194.438 93.968 194.438 92.848V87.92H196.438V92.832C196.438 93.4293 196.561 93.872 196.806 94.16C197.052 94.4373 197.425 94.576 197.926 94.576C198.492 94.576 198.95 94.384 199.302 94C199.665 93.616 199.846 93.1093 199.846 92.48V87.92H201.846V96H199.894V94.352H200.118C199.884 94.928 199.526 95.376 199.046 95.696C198.577 96.0053 198.028 96.16 197.398 96.16ZM197.19 99.264V97.408H199.142V99.264H197.19ZM211.864 96.16C210.904 96.16 210.179 95.9093 209.688 95.408C209.198 94.9067 208.952 94.1547 208.952 93.152V89.424H207.4V87.92H208.952V85.856L210.952 85.344V87.92H213.112V89.424H210.952V93.024C210.952 93.5787 211.059 93.968 211.272 94.192C211.486 94.416 211.779 94.528 212.152 94.528C212.355 94.528 212.526 94.512 212.664 94.48C212.814 94.448 212.958 94.4053 213.096 94.352V95.936C212.915 96.0107 212.712 96.064 212.488 96.096C212.275 96.1387 212.067 96.16 211.864 96.16ZM214.471 96V87.92H216.471V96H214.471ZM214.359 86.4V84.448H216.583V86.4H214.359ZM222.547 96.16C221.192 96.16 220.131 95.7867 219.363 95.04C218.595 94.2933 218.211 93.2693 218.211 91.968C218.211 91.1253 218.376 90.3893 218.707 89.76C219.037 89.1307 219.496 88.64 220.083 88.288C220.68 87.936 221.373 87.76 222.163 87.76C222.941 87.76 223.592 87.9253 224.115 88.256C224.637 88.5867 225.032 89.0507 225.299 89.648C225.576 90.2453 225.715 90.944 225.715 91.744V92.272H219.827V91.216H224.291L224.019 91.44C224.019 90.6933 223.859 90.1227 223.539 89.728C223.229 89.3333 222.776 89.136 222.179 89.136C221.517 89.136 221.005 89.3707 220.643 89.84C220.291 90.3093 220.115 90.9653 220.115 91.808V92.016C220.115 92.8907 220.328 93.5467 220.755 93.984C221.192 94.4107 221.805 94.624 222.595 94.624C223.053 94.624 223.48 94.5653 223.875 94.448C224.28 94.32 224.664 94.1173 225.027 93.84L225.619 95.184C225.235 95.4933 224.776 95.7333 224.243 95.904C223.709 96.0747 223.144 96.16 222.547 96.16ZM219.523 87.136L221.283 83.888H223.043L224.803 87.136H223.539L222.163 85.024L220.787 87.136H219.523ZM230.32 96.16C229.328 96.16 228.587 95.888 228.096 95.344C227.606 94.8 227.36 93.968 227.36 92.848V87.92H229.36V92.832C229.36 93.4293 229.483 93.872 229.728 94.16C229.974 94.4373 230.347 94.576 230.848 94.576C231.414 94.576 231.872 94.384 232.224 94C232.587 93.616 232.768 93.1093 232.768 92.48V87.92H234.768V96H232.816V94.352H233.04C232.806 94.928 232.448 95.376 231.968 95.696C231.499 96.0053 230.95 96.16 230.32 96.16ZM245.954 96.16C245.272 96.16 244.674 95.9947 244.162 95.664C243.65 95.3227 243.309 94.864 243.138 94.288H243.314V96H241.33V84.224H243.33V89.568H243.138C243.32 89.0133 243.666 88.576 244.178 88.256C244.69 87.9253 245.282 87.76 245.954 87.76C246.669 87.76 247.293 87.9307 247.826 88.272C248.36 88.6133 248.776 89.0987 249.074 89.728C249.373 90.3467 249.522 91.0933 249.522 91.968C249.522 92.8427 249.373 93.5947 249.074 94.224C248.776 94.8427 248.354 95.3227 247.81 95.664C247.277 95.9947 246.658 96.16 245.954 96.16ZM245.394 94.624C246.024 94.624 246.53 94.4053 246.914 93.968C247.309 93.5307 247.506 92.864 247.506 91.968C247.506 91.072 247.309 90.4053 246.914 89.968C246.53 89.52 246.024 89.296 245.394 89.296C244.765 89.296 244.258 89.5147 243.874 89.952C243.49 90.3893 243.298 91.056 243.298 91.952C243.298 92.848 243.49 93.52 243.874 93.968C244.258 94.4053 244.765 94.624 245.394 94.624ZM251.252 96V87.92H253.252V96H251.252ZM251.14 86.4V84.448H253.364V86.4H251.14ZM259.328 96.16C257.973 96.16 256.912 95.7867 256.144 95.04C255.376 94.2933 254.992 93.2693 254.992 91.968C254.992 91.1253 255.157 90.3893 255.488 89.76C255.819 89.1307 256.277 88.64 256.864 88.288C257.461 87.936 258.155 87.76 258.944 87.76C259.723 87.76 260.373 87.9253 260.896 88.256C261.419 88.5867 261.813 89.0507 262.08 89.648C262.357 90.2453 262.496 90.944 262.496 91.744V92.272H256.608V91.216H261.072L260.8 91.44C260.8 90.6933 260.64 90.1227 260.32 89.728C260.011 89.3333 259.557 89.136 258.96 89.136C258.299 89.136 257.787 89.3707 257.424 89.84C257.072 90.3093 256.896 90.9653 256.896 91.808V92.016C256.896 92.8907 257.109 93.5467 257.536 93.984C257.973 94.4107 258.587 94.624 259.376 94.624C259.835 94.624 260.261 94.5653 260.656 94.448C261.061 94.32 261.445 94.1173 261.808 93.84L262.4 95.184C262.016 95.4933 261.557 95.7333 261.024 95.904C260.491 96.0747 259.925 96.16 259.328 96.16ZM256.304 87.216L258.064 84.608H259.824L261.584 87.216H260.32L258.944 85.696L257.568 87.216H256.304ZM260.72 85.52C260.72 85.328 260.757 85.168 260.832 85.04C260.917 84.912 261.013 84.8053 261.12 84.72C261.227 84.6347 261.317 84.5493 261.392 84.464C261.477 84.3787 261.52 84.2827 261.52 84.176C261.52 84.08 261.467 84.016 261.36 83.984C261.264 83.9413 261.131 83.92 260.96 83.92C260.811 83.92 260.656 83.936 260.496 83.968C260.347 83.9893 260.192 84.032 260.032 84.096L259.776 83.344C259.989 83.248 260.219 83.1787 260.464 83.136C260.709 83.0827 261.003 83.056 261.344 83.056C261.824 83.056 262.192 83.1307 262.448 83.28C262.715 83.4187 262.848 83.616 262.848 83.872C262.848 84.0747 262.795 84.24 262.688 84.368C262.592 84.496 262.475 84.6133 262.336 84.72C262.197 84.8267 262.075 84.944 261.968 85.072C261.872 85.1893 261.824 85.3387 261.824 85.52H260.72ZM267.102 96.16C266.11 96.16 265.368 95.888 264.878 95.344C264.387 94.8 264.142 93.968 264.142 92.848V87.92H266.142V92.832C266.142 93.4293 266.264 93.872 266.51 94.16C266.755 94.4373 267.128 94.576 267.63 94.576C268.195 94.576 268.654 94.384 269.006 94C269.368 93.616 269.55 93.1093 269.55 92.48V87.92H271.55V96H269.598V94.352H269.822C269.587 94.928 269.23 95.376 268.75 95.696C268.28 96.0053 267.731 96.16 267.102 96.16Z" fill="#1E1E1E"/>
<defs>
<linearGradient id="paint0_linear_1_38" x1="32.9845" y1="32" x2="341.288" y2="32" gradientUnits="userSpaceOnUse">
<stop stop-color="#00CCFF"/>
<stop offset="1" stop-color="#FF00FF"/>
</linearGradient>
</defs>
</svg>
