<svg width="360" height="101" viewBox="0 0 360 101" fill="none" xmlns="http://www.w3.org/2000/svg">
<rect x="123.5" y="12.2117" width="113" height="40" rx="8" fill="url(#paint0_linear_1_48)"/>
<path d="M133.729 36.2117V34.4997H136.321V26.6597H137.313L133.985 28.6437V26.6917L136.913 24.9317H138.385V34.4997H140.817V36.2117H133.729ZM146.427 36.3717C145.936 36.3717 145.446 36.3183 144.955 36.2117C144.475 36.105 144.022 35.9557 143.595 35.7637C143.179 35.5717 142.822 35.3423 142.523 35.0757L143.195 33.5237C143.696 33.897 144.208 34.1797 144.731 34.3717C145.264 34.553 145.819 34.6437 146.395 34.6437C147.088 34.6437 147.627 34.473 148.011 34.1317C148.406 33.7797 148.603 33.3103 148.603 32.7237C148.603 32.1263 148.416 31.6463 148.043 31.2837C147.67 30.9103 147.158 30.7237 146.507 30.7237C146.048 30.7237 145.627 30.8143 145.243 30.9957C144.87 31.1663 144.534 31.433 144.235 31.7957H142.875V24.9317H149.883V26.6277H144.827V30.2117H144.331C144.608 29.8383 144.976 29.5503 145.435 29.3477C145.904 29.145 146.427 29.0437 147.003 29.0437C147.728 29.0437 148.358 29.193 148.891 29.4917C149.424 29.7903 149.84 30.2117 150.139 30.7557C150.438 31.289 150.587 31.9183 150.587 32.6437C150.587 33.3797 150.416 34.0303 150.075 34.5957C149.744 35.1503 149.264 35.5877 148.635 35.9077C148.016 36.217 147.28 36.3717 146.427 36.3717ZM152.005 30.3397V28.1317H154.245V30.3397H152.005ZM152.005 36.2117V33.9877H154.245V36.2117H152.005ZM160.805 36.2117V34.0037H155.765V32.5637L161.125 24.9317H162.789V32.4357H164.405V34.0037H162.789V36.2117H160.805ZM160.805 32.4357V27.3637H161.189L157.301 32.9157V32.4357H160.805ZM169.583 36.3717C169.092 36.3717 168.602 36.3183 168.111 36.2117C167.631 36.105 167.178 35.9557 166.751 35.7637C166.335 35.5717 165.978 35.3423 165.679 35.0757L166.351 33.5237C166.852 33.897 167.364 34.1797 167.887 34.3717C168.42 34.553 168.975 34.6437 169.551 34.6437C170.244 34.6437 170.783 34.473 171.167 34.1317C171.562 33.7797 171.759 33.3103 171.759 32.7237C171.759 32.1263 171.572 31.6463 171.199 31.2837C170.826 30.9103 170.314 30.7237 169.663 30.7237C169.204 30.7237 168.783 30.8143 168.399 30.9957C168.026 31.1663 167.69 31.433 167.391 31.7957H166.031V24.9317H173.039V26.6277H167.983V30.2117H167.487C167.764 29.8383 168.132 29.5503 168.591 29.3477C169.06 29.145 169.583 29.0437 170.159 29.0437C170.884 29.0437 171.514 29.193 172.047 29.4917C172.58 29.7903 172.996 30.2117 173.295 30.7557C173.594 31.289 173.743 31.9183 173.743 32.6437C173.743 33.3797 173.572 34.0303 173.231 34.5957C172.9 35.1503 172.42 35.5877 171.791 35.9077C171.172 36.217 170.436 36.3717 169.583 36.3717ZM175.369 32.5957V31.0117H180.233V32.5957H175.369ZM187.479 36.2117V34.4997H190.071V26.6597H191.063L187.735 28.6437V26.6917L190.663 24.9317H192.135V34.4997H194.567V36.2117H187.479ZM200.497 36.3717C199.078 36.3717 197.98 35.881 197.201 34.8997C196.433 33.9183 196.049 32.5423 196.049 30.7717C196.049 29.4917 196.246 28.409 196.641 27.5237C197.036 26.6277 197.596 25.945 198.321 25.4757C199.057 25.0063 199.937 24.7717 200.961 24.7717C201.569 24.7717 202.172 24.8837 202.769 25.1077C203.366 25.321 203.878 25.6303 204.305 26.0357L203.617 27.5717C203.222 27.209 202.796 26.9423 202.337 26.7717C201.878 26.5903 201.414 26.4997 200.945 26.4997C199.985 26.4997 199.254 26.825 198.753 27.4757C198.252 28.1263 198.001 29.097 198.001 30.3877V31.5877H197.809C197.894 31.0437 198.076 30.5797 198.353 30.1957C198.63 29.801 198.988 29.5023 199.425 29.2997C199.862 29.0863 200.348 28.9797 200.881 28.9797C201.542 28.9797 202.129 29.1343 202.641 29.4437C203.153 29.753 203.553 30.1797 203.841 30.7237C204.14 31.2677 204.289 31.8917 204.289 32.5957C204.289 33.321 204.124 33.9717 203.793 34.5477C203.473 35.113 203.03 35.561 202.465 35.8917C201.9 36.2117 201.244 36.3717 200.497 36.3717ZM200.385 34.7397C200.78 34.7397 201.126 34.6543 201.425 34.4837C201.724 34.313 201.953 34.073 202.113 33.7637C202.284 33.4437 202.369 33.081 202.369 32.6757C202.369 32.2597 202.284 31.897 202.113 31.5877C201.953 31.2783 201.724 31.0383 201.425 30.8677C201.126 30.6863 200.78 30.5957 200.385 30.5957C199.99 30.5957 199.644 30.6863 199.345 30.8677C199.046 31.0383 198.812 31.2783 198.641 31.5877C198.47 31.897 198.385 32.2597 198.385 32.6757C198.385 33.081 198.47 33.4437 198.641 33.7637C198.812 34.073 199.046 34.313 199.345 34.4837C199.644 34.6543 199.99 34.7397 200.385 34.7397ZM205.755 30.3397V28.1317H207.995V30.3397H205.755ZM205.755 36.2117V33.9877H207.995V36.2117H205.755ZM213.483 36.3717C212.705 36.3717 211.958 36.2597 211.243 36.0357C210.529 35.801 209.942 35.481 209.483 35.0757L210.155 33.5237C210.657 33.9077 211.174 34.1903 211.707 34.3717C212.251 34.553 212.822 34.6437 213.419 34.6437C214.145 34.6437 214.694 34.4997 215.067 34.2117C215.441 33.9237 215.627 33.5023 215.627 32.9477C215.627 32.4143 215.441 32.0143 215.067 31.7477C214.705 31.4703 214.171 31.3317 213.467 31.3317H211.643V29.6837H213.291C213.899 29.6837 214.385 29.5343 214.747 29.2357C215.11 28.937 215.291 28.5263 215.291 28.0037C215.291 27.513 215.121 27.1397 214.779 26.8837C214.449 26.6277 213.969 26.4997 213.339 26.4997C212.209 26.4997 211.211 26.8837 210.347 27.6517L209.675 26.1157C210.134 25.689 210.699 25.3583 211.371 25.1237C212.054 24.889 212.769 24.7717 213.515 24.7717C214.689 24.7717 215.606 25.0383 216.267 25.5717C216.939 26.0943 217.275 26.825 217.275 27.7637C217.275 28.4357 217.083 29.017 216.699 29.5077C216.326 29.9877 215.809 30.3077 215.147 30.4677V30.2757C215.926 30.4037 216.529 30.7237 216.955 31.2357C217.393 31.737 217.611 32.3663 217.611 33.1237C217.611 34.1263 217.243 34.921 216.507 35.5077C215.771 36.0837 214.763 36.3717 213.483 36.3717ZM223.253 36.3717C221.93 36.3717 220.912 35.8703 220.197 34.8677C219.482 33.8543 219.125 32.4143 219.125 30.5477C219.125 28.6597 219.482 27.225 220.197 26.2437C220.912 25.2623 221.93 24.7717 223.253 24.7717C224.586 24.7717 225.605 25.2623 226.309 26.2437C227.024 27.225 227.381 28.6543 227.381 30.5317C227.381 32.409 227.024 33.8543 226.309 34.8677C225.605 35.8703 224.586 36.3717 223.253 36.3717ZM223.253 34.6757C223.978 34.6757 224.517 34.345 224.869 33.6837C225.221 33.0117 225.397 31.961 225.397 30.5317C225.397 29.1023 225.221 28.0677 224.869 27.4277C224.517 26.777 223.978 26.4517 223.253 26.4517C222.538 26.4517 222 26.777 221.637 27.4277C221.285 28.0677 221.109 29.1023 221.109 30.5317C221.109 31.961 221.285 33.0117 221.637 33.6837C222 34.345 222.538 34.6757 223.253 34.6757Z" fill="white"/>
<path d="M122.188 76.3717C120.919 76.3717 119.852 76.137 118.988 75.6677C118.124 75.1983 117.473 74.5317 117.036 73.6677C116.599 72.8037 116.38 71.7797 116.38 70.5957C116.38 69.401 116.615 68.3717 117.084 67.5077C117.553 66.633 118.225 65.961 119.1 65.4917C119.985 65.0117 121.047 64.7717 122.284 64.7717C123.105 64.7717 123.825 64.8837 124.444 65.1077C125.063 65.321 125.607 65.6357 126.076 66.0517L125.388 67.6517C125.047 67.385 124.721 67.1717 124.412 67.0117C124.103 66.8517 123.783 66.7397 123.452 66.6757C123.121 66.601 122.737 66.5637 122.3 66.5637C121.063 66.5637 120.124 66.9157 119.484 67.6197C118.855 68.313 118.54 69.3103 118.54 70.6117C118.54 71.913 118.839 72.905 119.436 73.5877C120.044 74.2703 120.993 74.6117 122.284 74.6117C122.721 74.6117 123.159 74.569 123.596 74.4837C124.044 74.3983 124.481 74.2757 124.908 74.1157L124.524 74.9797V71.6037H121.884V70.0997H126.236V75.5237C125.713 75.7903 125.089 75.9983 124.364 76.1477C123.639 76.297 122.913 76.3717 122.188 76.3717ZM128.432 76.2117V68.1317H130.432V76.2117H128.432ZM128.32 66.6117V64.6597H130.544V66.6117H128.32ZM135.724 76.3717C135.02 76.3717 134.401 76.2063 133.868 75.8757C133.334 75.5343 132.918 75.049 132.62 74.4197C132.321 73.7903 132.172 73.0383 132.172 72.1637C132.172 71.289 132.321 70.5423 132.62 69.9237C132.918 69.2943 133.334 68.8143 133.868 68.4837C134.401 68.1423 135.02 67.9717 135.724 67.9717C136.406 67.9717 137.004 68.1423 137.516 68.4837C138.038 68.8143 138.385 69.2623 138.556 69.8277H138.38L138.556 68.1317H140.476C140.444 68.4623 140.412 68.7983 140.38 69.1397C140.358 69.481 140.348 69.817 140.348 70.1477V76.2117H138.364L138.348 74.5477H138.54C138.369 75.1023 138.022 75.545 137.5 75.8757C136.977 76.2063 136.385 76.3717 135.724 76.3717ZM136.284 74.8357C136.913 74.8357 137.42 74.617 137.804 74.1797C138.188 73.7317 138.38 73.0597 138.38 72.1637C138.38 71.2677 138.188 70.601 137.804 70.1637C137.42 69.7263 136.913 69.5077 136.284 69.5077C135.654 69.5077 135.148 69.7263 134.764 70.1637C134.38 70.601 134.188 71.2677 134.188 72.1637C134.188 73.0597 134.374 73.7317 134.748 74.1797C135.132 74.617 135.644 74.8357 136.284 74.8357ZM135.788 67.3477V67.0117C135.788 66.7877 135.83 66.601 135.916 66.4517C136.012 66.3023 136.118 66.1743 136.236 66.0677C136.353 65.961 136.454 65.8543 136.54 65.7477C136.636 65.641 136.684 65.5183 136.684 65.3797C136.684 65.241 136.63 65.1397 136.524 65.0757C136.417 65.0117 136.257 64.9797 136.044 64.9797C135.873 64.9797 135.713 65.001 135.564 65.0437C135.414 65.0757 135.249 65.1343 135.068 65.2197L134.764 64.3557C134.988 64.2277 135.244 64.1317 135.532 64.0677C135.83 64.0037 136.15 63.9717 136.492 63.9717C137.025 63.9717 137.441 64.073 137.74 64.2757C138.049 64.4677 138.204 64.7503 138.204 65.1237C138.204 65.3903 138.14 65.609 138.012 65.7797C137.894 65.9397 137.756 66.0783 137.596 66.1957C137.446 66.313 137.308 66.441 137.18 66.5797C137.062 66.7077 137.004 66.8783 137.004 67.0917V67.3477H135.788ZM142.526 76.2117V68.1317H144.526V76.2117H142.526ZM142.414 66.6117V64.6597H144.638V66.6117H142.414ZM151.088 76.2117V64.4357H153.088V76.2117H151.088ZM158.38 76.3717C157.676 76.3717 157.057 76.2063 156.524 75.8757C155.991 75.5343 155.575 75.049 155.276 74.4197C154.977 73.7903 154.828 73.0383 154.828 72.1637C154.828 71.289 154.977 70.5423 155.276 69.9237C155.575 69.2943 155.991 68.8143 156.524 68.4837C157.057 68.1423 157.676 67.9717 158.38 67.9717C159.063 67.9717 159.66 68.1423 160.172 68.4837C160.695 68.8143 161.041 69.2623 161.212 69.8277H161.036L161.212 68.1317H163.132C163.1 68.4623 163.068 68.7983 163.036 69.1397C163.015 69.481 163.004 69.817 163.004 70.1477V76.2117H161.02L161.004 74.5477H161.196C161.025 75.1023 160.679 75.545 160.156 75.8757C159.633 76.2063 159.041 76.3717 158.38 76.3717ZM158.94 74.8357C159.569 74.8357 160.076 74.617 160.46 74.1797C160.844 73.7317 161.036 73.0597 161.036 72.1637C161.036 71.2677 160.844 70.601 160.46 70.1637C160.076 69.7263 159.569 69.5077 158.94 69.5077C158.311 69.5077 157.804 69.7263 157.42 70.1637C157.036 70.601 156.844 71.2677 156.844 72.1637C156.844 73.0597 157.031 73.7317 157.404 74.1797C157.788 74.617 158.3 74.8357 158.94 74.8357ZM168.83 76.3717C167.998 76.3717 167.278 76.201 166.67 75.8597C166.062 75.5183 165.587 75.033 165.246 74.4037C164.915 73.7743 164.75 73.0277 164.75 72.1637C164.75 71.2997 164.915 70.5583 165.246 69.9397C165.587 69.3103 166.062 68.825 166.67 68.4837C167.278 68.1423 167.998 67.9717 168.83 67.9717C169.662 67.9717 170.382 68.1423 170.99 68.4837C171.608 68.825 172.083 69.3103 172.414 69.9397C172.755 70.5583 172.926 71.2997 172.926 72.1637C172.926 73.0277 172.755 73.7743 172.414 74.4037C172.083 75.033 171.608 75.5183 170.99 75.8597C170.382 76.201 169.662 76.3717 168.83 76.3717ZM168.83 74.8357C169.459 74.8357 169.96 74.617 170.334 74.1797C170.707 73.7317 170.894 73.0597 170.894 72.1637C170.894 71.2677 170.707 70.601 170.334 70.1637C169.96 69.7263 169.459 69.5077 168.83 69.5077C168.2 69.5077 167.699 69.7263 167.326 70.1637C166.952 70.601 166.766 71.2677 166.766 72.1637C166.766 73.0597 166.952 73.7317 167.326 74.1797C167.699 74.617 168.2 74.8357 168.83 74.8357ZM188.481 76.3717C187.99 76.201 187.521 75.9717 187.073 75.6837C186.625 75.385 186.22 75.0703 185.857 74.7397L186.289 74.7557C185.798 75.257 185.228 75.6517 184.577 75.9397C183.926 76.2277 183.233 76.3717 182.497 76.3717C181.676 76.3717 180.966 76.2437 180.369 75.9877C179.772 75.7317 179.313 75.3797 178.993 74.9317C178.673 74.473 178.513 73.9397 178.513 73.3317C178.513 72.6063 178.726 71.9877 179.153 71.4757C179.58 70.9637 180.166 70.4837 180.913 70.0357L181.457 69.7317L181.153 70.0997C180.694 69.641 180.353 69.1983 180.129 68.7717C179.905 68.345 179.793 67.9023 179.793 67.4437C179.793 66.9103 179.921 66.4463 180.177 66.0517C180.444 65.6463 180.812 65.3317 181.281 65.1077C181.761 64.8837 182.321 64.7717 182.961 64.7717C183.793 64.7717 184.47 64.9957 184.993 65.4437C185.516 65.881 185.777 66.4783 185.777 67.2357C185.777 67.641 185.697 68.0197 185.537 68.3717C185.377 68.7237 185.116 69.0597 184.753 69.3797C184.401 69.6997 183.937 70.0197 183.361 70.3397L183.409 69.9397L186.209 72.8357H185.793C186.07 72.3983 186.284 71.8863 186.433 71.2997C186.582 70.713 186.673 70.0943 186.705 69.4437H188.385C188.353 70.3183 188.214 71.145 187.969 71.9237C187.724 72.7023 187.393 73.3903 186.977 73.9877L186.961 73.5077C187.249 73.8063 187.58 74.0783 187.953 74.3237C188.326 74.569 188.732 74.7717 189.169 74.9317L188.481 76.3717ZM182.609 74.8197C183.142 74.8197 183.617 74.7183 184.033 74.5157C184.46 74.313 184.838 74.0143 185.169 73.6197L185.121 74.0997L181.761 70.6917L182.577 70.7077L182.113 70.9637C181.75 71.1877 181.446 71.4117 181.201 71.6357C180.966 71.8597 180.79 72.0997 180.673 72.3557C180.556 72.601 180.497 72.8837 180.497 73.2037C180.497 73.705 180.678 74.0997 181.041 74.3877C181.404 74.6757 181.926 74.8197 182.609 74.8197ZM182.961 66.1317C182.556 66.1317 182.23 66.249 181.985 66.4837C181.74 66.7183 181.617 67.0277 181.617 67.4117C181.617 67.6143 181.654 67.8063 181.729 67.9877C181.804 68.169 181.926 68.3663 182.097 68.5797C182.268 68.7823 182.492 69.033 182.769 69.3317L182.289 69.3637C182.95 69.001 183.43 68.6703 183.729 68.3717C184.038 68.0623 184.193 67.7103 184.193 67.3157C184.193 66.9423 184.081 66.6543 183.857 66.4517C183.633 66.2383 183.334 66.1317 182.961 66.1317ZM194.447 76.2117V64.4357H196.447V71.5717H196.479L199.759 68.1317H202.175L198.095 72.4037L198.111 71.6037L202.463 76.2117H199.983L196.479 72.5957H196.447V76.2117H194.447ZM207.023 76.3717C205.669 76.3717 204.607 75.9983 203.839 75.2517C203.071 74.505 202.687 73.481 202.687 72.1797C202.687 71.337 202.853 70.601 203.183 69.9717C203.514 69.3423 203.973 68.8517 204.559 68.4997C205.157 68.1477 205.85 67.9717 206.639 67.9717C207.418 67.9717 208.069 68.137 208.591 68.4677C209.114 68.7983 209.509 69.2623 209.775 69.8597C210.053 70.457 210.191 71.1557 210.191 71.9557V72.4837H204.303V71.4277H208.767L208.495 71.6517C208.495 70.905 208.335 70.3343 208.015 69.9397C207.706 69.545 207.253 69.3477 206.655 69.3477C205.994 69.3477 205.482 69.5823 205.119 70.0517C204.767 70.521 204.591 71.177 204.591 72.0197V72.2277C204.591 73.1023 204.805 73.7583 205.231 74.1957C205.669 74.6223 206.282 74.8357 207.071 74.8357C207.53 74.8357 207.957 74.777 208.351 74.6597C208.757 74.5317 209.141 74.329 209.503 74.0517L210.095 75.3957C209.711 75.705 209.253 75.945 208.719 76.1157C208.186 76.2863 207.621 76.3717 207.023 76.3717ZM203.999 67.4277L205.759 64.8197H207.519L209.279 67.4277H208.015L206.639 65.9077L205.263 67.4277H203.999ZM208.383 65.7317L209.727 63.3317H211.391L209.519 65.7317H208.383ZM215.31 76.3717C214.35 76.3717 213.624 76.121 213.134 75.6197C212.643 75.1183 212.398 74.3663 212.398 73.3637V69.6357H210.846V68.1317H212.398V66.0677L214.398 65.5557V68.1317H216.558V69.6357H214.398V73.2357C214.398 73.7903 214.504 74.1797 214.718 74.4037C214.931 74.6277 215.224 74.7397 215.598 74.7397C215.8 74.7397 215.971 74.7237 216.11 74.6917C216.259 74.6597 216.403 74.617 216.542 74.5637V76.1477C216.36 76.2223 216.158 76.2757 215.934 76.3077C215.72 76.3503 215.512 76.3717 215.31 76.3717ZM222.307 76.2117V70.1477C222.307 69.817 222.296 69.481 222.275 69.1397C222.253 68.7983 222.221 68.4623 222.179 68.1317H224.115L224.275 69.7317H224.083C224.339 69.1663 224.717 68.7343 225.219 68.4357C225.72 68.1263 226.301 67.9717 226.963 67.9717C227.912 67.9717 228.627 68.2383 229.107 68.7717C229.587 69.305 229.827 70.137 229.827 71.2677V76.2117H227.827V71.3637C227.827 70.713 227.699 70.249 227.443 69.9717C227.197 69.6837 226.824 69.5397 226.323 69.5397C225.704 69.5397 225.213 69.7317 224.851 70.1157C224.488 70.4997 224.307 71.0117 224.307 71.6517V76.2117H222.307ZM235.595 76.3717C234.763 76.3717 234.043 76.201 233.435 75.8597C232.827 75.5183 232.353 75.033 232.011 74.4037C231.681 73.7743 231.515 73.0277 231.515 72.1637C231.515 71.2997 231.681 70.5583 232.011 69.9397C232.353 69.3103 232.827 68.825 233.435 68.4837C234.043 68.1423 234.763 67.9717 235.595 67.9717C236.427 67.9717 237.147 68.1423 237.755 68.4837C238.374 68.825 238.849 69.3103 239.179 69.9397C239.521 70.5583 239.691 71.2997 239.691 72.1637C239.691 73.0277 239.521 73.7743 239.179 74.4037C238.849 75.033 238.374 75.5183 237.755 75.8597C237.147 76.201 236.427 76.3717 235.595 76.3717ZM235.595 74.8357C236.225 74.8357 236.726 74.617 237.099 74.1797C237.473 73.7317 237.659 73.0597 237.659 72.1637C237.659 71.2677 237.473 70.601 237.099 70.1637C236.726 69.7263 236.225 69.5077 235.595 69.5077C234.966 69.5077 234.465 69.7263 234.091 70.1637C233.718 70.601 233.531 71.2677 233.531 72.1637C233.531 73.0597 233.718 73.7317 234.091 74.1797C234.465 74.617 234.966 74.8357 235.595 74.8357ZM232.971 67.4277L234.731 64.8197H236.491L238.251 67.4277H236.987L235.611 65.9077L234.235 67.4277H232.971ZM237.355 65.7317L238.699 63.3317H240.363L238.491 65.7317H237.355ZM241.416 76.2117V68.1317H243.416V76.2117H241.416ZM241.304 66.6117V64.6597H243.528V66.6117H241.304Z" fill="black"/>
<defs>
<linearGradient id="paint0_linear_1_48" x1="32.9845" y1="32.2117" x2="341.288" y2="32.2117" gradientUnits="userSpaceOnUse">
<stop stop-color="#00CCFF"/>
<stop offset="1" stop-color="#FF00FF"/>
</linearGradient>
</defs>
</svg>
