<svg width="360" height="92" viewBox="0 0 360 92" fill="none" xmlns="http://www.w3.org/2000/svg">
<rect x="123.5" y="8" width="113" height="40" rx="8" fill="url(#paint0_linear_8_282)"/>
<path d="M133.729 34V32.288H136.321V24.448H137.313L133.985 26.432V24.48L136.913 22.72H138.385V32.288H140.817V34H133.729ZM146.347 34.16C145.024 34.16 143.99 33.8773 143.243 33.312C142.507 32.7467 142.139 31.9627 142.139 30.96C142.139 30.1707 142.379 29.5147 142.859 28.992C143.339 28.4693 143.963 28.16 144.731 28.064V28.4C144.038 28.2507 143.478 27.9253 143.051 27.424C142.635 26.9227 142.427 26.3147 142.427 25.6C142.427 24.6507 142.774 23.9093 143.467 23.376C144.171 22.832 145.131 22.56 146.347 22.56C147.574 22.56 148.534 22.832 149.227 23.376C149.931 23.9093 150.283 24.6507 150.283 25.6C150.283 26.3147 150.08 26.928 149.675 27.44C149.28 27.952 148.742 28.2667 148.059 28.384V28.064C148.816 28.1707 149.424 28.4853 149.883 29.008C150.342 29.52 150.571 30.1707 150.571 30.96C150.571 31.9627 150.198 32.7467 149.451 33.312C148.715 33.8773 147.68 34.16 146.347 34.16ZM146.347 32.56C147.126 32.56 147.707 32.416 148.091 32.128C148.475 31.8293 148.667 31.392 148.667 30.816C148.667 30.24 148.475 29.808 148.091 29.52C147.707 29.232 147.126 29.088 146.347 29.088C145.579 29.088 144.998 29.232 144.603 29.52C144.219 29.808 144.027 30.24 144.027 30.816C144.027 31.392 144.219 31.8293 144.603 32.128C144.998 32.416 145.579 32.56 146.347 32.56ZM146.347 27.488C147.008 27.488 147.51 27.3387 147.851 27.04C148.203 26.7413 148.379 26.3307 148.379 25.808C148.379 25.296 148.203 24.896 147.851 24.608C147.51 24.3093 147.008 24.16 146.347 24.16C145.696 24.16 145.195 24.3093 144.843 24.608C144.502 24.896 144.331 25.296 144.331 25.808C144.331 26.3307 144.502 26.7413 144.843 27.04C145.195 27.3387 145.696 27.488 146.347 27.488ZM152.005 28.128V25.92H154.245V28.128H152.005ZM152.005 34V31.776H154.245V34H152.005ZM159.909 34.16C158.587 34.16 157.568 33.6587 156.853 32.656C156.139 31.6427 155.781 30.2027 155.781 28.336C155.781 26.448 156.139 25.0133 156.853 24.032C157.568 23.0507 158.587 22.56 159.909 22.56C161.243 22.56 162.261 23.0507 162.965 24.032C163.68 25.0133 164.037 26.4427 164.037 28.32C164.037 30.1973 163.68 31.6427 162.965 32.656C162.261 33.6587 161.243 34.16 159.909 34.16ZM159.909 32.464C160.635 32.464 161.173 32.1333 161.525 31.472C161.877 30.8 162.053 29.7493 162.053 28.32C162.053 26.8907 161.877 25.856 161.525 25.216C161.173 24.5653 160.635 24.24 159.909 24.24C159.195 24.24 158.656 24.5653 158.293 25.216C157.941 25.856 157.765 26.8907 157.765 28.32C157.765 29.7493 157.941 30.8 158.293 31.472C158.656 32.1333 159.195 32.464 159.909 32.464ZM169.503 34.16C168.18 34.16 167.162 33.6587 166.447 32.656C165.732 31.6427 165.375 30.2027 165.375 28.336C165.375 26.448 165.732 25.0133 166.447 24.032C167.162 23.0507 168.18 22.56 169.503 22.56C170.836 22.56 171.855 23.0507 172.559 24.032C173.274 25.0133 173.631 26.4427 173.631 28.32C173.631 30.1973 173.274 31.6427 172.559 32.656C171.855 33.6587 170.836 34.16 169.503 34.16ZM169.503 32.464C170.228 32.464 170.767 32.1333 171.119 31.472C171.471 30.8 171.647 29.7493 171.647 28.32C171.647 26.8907 171.471 25.856 171.119 25.216C170.767 24.5653 170.228 24.24 169.503 24.24C168.788 24.24 168.25 24.5653 167.887 25.216C167.535 25.856 167.359 26.8907 167.359 28.32C167.359 29.7493 167.535 30.8 167.887 31.472C168.25 32.1333 168.788 32.464 169.503 32.464ZM175.369 30.384V28.8H180.233V30.384H175.369ZM187.479 34V32.288H190.071V24.448H191.063L187.735 26.432V24.48L190.663 22.72H192.135V32.288H194.567V34H187.479ZM200.097 34.16C198.774 34.16 197.74 33.8773 196.993 33.312C196.257 32.7467 195.889 31.9627 195.889 30.96C195.889 30.1707 196.129 29.5147 196.609 28.992C197.089 28.4693 197.713 28.16 198.481 28.064V28.4C197.788 28.2507 197.228 27.9253 196.801 27.424C196.385 26.9227 196.177 26.3147 196.177 25.6C196.177 24.6507 196.524 23.9093 197.217 23.376C197.921 22.832 198.881 22.56 200.097 22.56C201.324 22.56 202.284 22.832 202.977 23.376C203.681 23.9093 204.033 24.6507 204.033 25.6C204.033 26.3147 203.83 26.928 203.425 27.44C203.03 27.952 202.492 28.2667 201.809 28.384V28.064C202.566 28.1707 203.174 28.4853 203.633 29.008C204.092 29.52 204.321 30.1707 204.321 30.96C204.321 31.9627 203.948 32.7467 203.201 33.312C202.465 33.8773 201.43 34.16 200.097 34.16ZM200.097 32.56C200.876 32.56 201.457 32.416 201.841 32.128C202.225 31.8293 202.417 31.392 202.417 30.816C202.417 30.24 202.225 29.808 201.841 29.52C201.457 29.232 200.876 29.088 200.097 29.088C199.329 29.088 198.748 29.232 198.353 29.52C197.969 29.808 197.777 30.24 197.777 30.816C197.777 31.392 197.969 31.8293 198.353 32.128C198.748 32.416 199.329 32.56 200.097 32.56ZM200.097 27.488C200.758 27.488 201.26 27.3387 201.601 27.04C201.953 26.7413 202.129 26.3307 202.129 25.808C202.129 25.296 201.953 24.896 201.601 24.608C201.26 24.3093 200.758 24.16 200.097 24.16C199.446 24.16 198.945 24.3093 198.593 24.608C198.252 24.896 198.081 25.296 198.081 25.808C198.081 26.3307 198.252 26.7413 198.593 27.04C198.945 27.3387 199.446 27.488 200.097 27.488ZM205.755 28.128V25.92H207.995V28.128H205.755ZM205.755 34V31.776H207.995V34H205.755ZM213.483 34.16C212.705 34.16 211.958 34.048 211.243 33.824C210.529 33.5893 209.942 33.2693 209.483 32.864L210.155 31.312C210.657 31.696 211.174 31.9787 211.707 32.16C212.251 32.3413 212.822 32.432 213.419 32.432C214.145 32.432 214.694 32.288 215.067 32C215.441 31.712 215.627 31.2907 215.627 30.736C215.627 30.2027 215.441 29.8027 215.067 29.536C214.705 29.2587 214.171 29.12 213.467 29.12H211.643V27.472H213.291C213.899 27.472 214.385 27.3227 214.747 27.024C215.11 26.7253 215.291 26.3147 215.291 25.792C215.291 25.3013 215.121 24.928 214.779 24.672C214.449 24.416 213.969 24.288 213.339 24.288C212.209 24.288 211.211 24.672 210.347 25.44L209.675 23.904C210.134 23.4773 210.699 23.1467 211.371 22.912C212.054 22.6773 212.769 22.56 213.515 22.56C214.689 22.56 215.606 22.8267 216.267 23.36C216.939 23.8827 217.275 24.6133 217.275 25.552C217.275 26.224 217.083 26.8053 216.699 27.296C216.326 27.776 215.809 28.096 215.147 28.256V28.064C215.926 28.192 216.529 28.512 216.955 29.024C217.393 29.5253 217.611 30.1547 217.611 30.912C217.611 31.9147 217.243 32.7093 216.507 33.296C215.771 33.872 214.763 34.16 213.483 34.16ZM223.253 34.16C221.93 34.16 220.912 33.6587 220.197 32.656C219.482 31.6427 219.125 30.2027 219.125 28.336C219.125 26.448 219.482 25.0133 220.197 24.032C220.912 23.0507 221.93 22.56 223.253 22.56C224.586 22.56 225.605 23.0507 226.309 24.032C227.024 25.0133 227.381 26.4427 227.381 28.32C227.381 30.1973 227.024 31.6427 226.309 32.656C225.605 33.6587 224.586 34.16 223.253 34.16ZM223.253 32.464C223.978 32.464 224.517 32.1333 224.869 31.472C225.221 30.8 225.397 29.7493 225.397 28.32C225.397 26.8907 225.221 25.856 224.869 25.216C224.517 24.5653 223.978 24.24 223.253 24.24C222.538 24.24 222 24.5653 221.637 25.216C221.285 25.856 221.109 26.8907 221.109 28.32C221.109 29.7493 221.285 30.8 221.637 31.472C222 32.1333 222.538 32.464 223.253 32.464Z" fill="white"/>
<path d="M136.592 72V60.72H138.144L144.688 69.184H144.272V60.72H146.192V72H144.64L138.112 63.536H138.512V72H136.592ZM152.414 72.16C151.059 72.16 149.998 71.7867 149.23 71.04C148.462 70.2933 148.078 69.2693 148.078 67.968C148.078 67.1253 148.243 66.3893 148.574 65.76C148.905 65.1307 149.363 64.64 149.95 64.288C150.547 63.936 151.241 63.76 152.03 63.76C152.809 63.76 153.459 63.9253 153.982 64.256C154.505 64.5867 154.899 65.0507 155.166 65.648C155.443 66.2453 155.582 66.944 155.582 67.744V68.272H149.694V67.216H154.158L153.886 67.44C153.886 66.6933 153.726 66.1227 153.406 65.728C153.097 65.3333 152.643 65.136 152.046 65.136C151.385 65.136 150.873 65.3707 150.51 65.84C150.158 66.3093 149.982 66.9653 149.982 67.808V68.016C149.982 68.8907 150.195 69.5467 150.622 69.984C151.059 70.4107 151.673 70.624 152.462 70.624C152.921 70.624 153.347 70.5653 153.742 70.448C154.147 70.32 154.531 70.1173 154.894 69.84L155.486 71.184C155.102 71.4933 154.643 71.7333 154.11 71.904C153.577 72.0747 153.011 72.16 152.414 72.16ZM160.7 72.16C159.74 72.16 159.015 71.9093 158.524 71.408C158.034 70.9067 157.788 70.1547 157.788 69.152V65.424H156.236V63.92H157.788V61.856L159.788 61.344V63.92H161.948V65.424H159.788V69.024C159.788 69.5787 159.895 69.968 160.108 70.192C160.322 70.416 160.615 70.528 160.988 70.528C161.191 70.528 161.362 70.512 161.5 70.48C161.65 70.448 161.794 70.4053 161.932 70.352V71.936C161.751 72.0107 161.548 72.064 161.324 72.096C161.111 72.1387 160.903 72.16 160.7 72.16ZM165.672 72L162.52 63.92H164.584L166.856 70.208H166.44L168.744 63.92H170.168L172.456 70.208H172.088L174.344 63.92H176.296L173.144 72H171.384L168.968 65.568H169.816L167.448 72H165.672ZM181.049 72.16C180.217 72.16 179.497 71.9893 178.889 71.648C178.281 71.3067 177.806 70.8213 177.465 70.192C177.134 69.5627 176.969 68.816 176.969 67.952C176.969 67.088 177.134 66.3467 177.465 65.728C177.806 65.0987 178.281 64.6133 178.889 64.272C179.497 63.9307 180.217 63.76 181.049 63.76C181.881 63.76 182.601 63.9307 183.209 64.272C183.827 64.6133 184.302 65.0987 184.633 65.728C184.974 66.3467 185.145 67.088 185.145 67.952C185.145 68.816 184.974 69.5627 184.633 70.192C184.302 70.8213 183.827 71.3067 183.209 71.648C182.601 71.9893 181.881 72.16 181.049 72.16ZM181.049 70.624C181.678 70.624 182.179 70.4053 182.553 69.968C182.926 69.52 183.113 68.848 183.113 67.952C183.113 67.056 182.926 66.3893 182.553 65.952C182.179 65.5147 181.678 65.296 181.049 65.296C180.419 65.296 179.918 65.5147 179.545 65.952C179.171 66.3893 178.985 67.056 178.985 67.952C178.985 68.848 179.171 69.52 179.545 69.968C179.918 70.4053 180.419 70.624 181.049 70.624ZM186.853 72V65.984C186.853 65.6427 186.843 65.296 186.821 64.944C186.811 64.592 186.784 64.2507 186.741 63.92H188.677L188.901 66.128H188.581C188.688 65.5947 188.864 65.152 189.109 64.8C189.365 64.448 189.675 64.1867 190.037 64.016C190.4 63.8453 190.795 63.76 191.221 63.76C191.413 63.76 191.568 63.7707 191.685 63.792C191.803 63.8027 191.92 63.8293 192.037 63.872L192.021 65.632C191.819 65.5467 191.643 65.4933 191.493 65.472C191.355 65.4507 191.179 65.44 190.965 65.44C190.507 65.44 190.117 65.536 189.797 65.728C189.488 65.92 189.253 66.1867 189.093 66.528C188.944 66.8693 188.869 67.2587 188.869 67.696V72H186.853ZM193.151 72V60.224H195.151V67.36H195.183L198.463 63.92H200.878L196.799 68.192L196.815 67.392L201.167 72H198.687L195.183 68.384H195.151V72H193.151ZM201.979 72V63.92H203.979V72H201.979ZM201.867 62.4V60.448H204.091V62.4H201.867ZM206.151 72V65.936C206.151 65.6053 206.14 65.2693 206.118 64.928C206.097 64.5867 206.065 64.2507 206.023 63.92H207.959L208.119 65.52H207.927C208.183 64.9547 208.561 64.5227 209.062 64.224C209.564 63.9147 210.145 63.76 210.807 63.76C211.756 63.76 212.471 64.0267 212.951 64.56C213.431 65.0933 213.671 65.9253 213.671 67.056V72H211.671V67.152C211.671 66.5013 211.543 66.0373 211.287 65.76C211.041 65.472 210.668 65.328 210.167 65.328C209.548 65.328 209.057 65.52 208.695 65.904C208.332 66.288 208.151 66.8 208.151 67.44V72H206.151ZM219.535 75.584C218.788 75.584 218.111 75.504 217.503 75.344C216.906 75.184 216.372 74.9387 215.903 74.608L216.335 73.168C216.644 73.3707 216.964 73.536 217.295 73.664C217.626 73.792 217.967 73.888 218.319 73.952C218.671 74.016 219.028 74.048 219.391 74.048C220.138 74.048 220.692 73.8613 221.055 73.488C221.428 73.1253 221.615 72.6027 221.615 71.92V69.984H221.775C221.604 70.5387 221.258 70.9813 220.735 71.312C220.223 71.6427 219.631 71.808 218.959 71.808C218.234 71.808 217.599 71.648 217.055 71.328C216.522 70.9973 216.106 70.528 215.807 69.92C215.508 69.312 215.359 68.5973 215.359 67.776C215.359 66.9547 215.508 66.2453 215.807 65.648C216.106 65.04 216.522 64.576 217.055 64.256C217.599 63.9253 218.234 63.76 218.959 63.76C219.642 63.76 220.234 63.9253 220.735 64.256C221.247 64.576 221.588 65.0133 221.759 65.568L221.615 65.472L221.775 63.92H223.711C223.668 64.2507 223.636 64.5867 223.615 64.928C223.594 65.2693 223.583 65.6053 223.583 65.936V71.68C223.583 72.9493 223.236 73.9147 222.543 74.576C221.86 75.248 220.858 75.584 219.535 75.584ZM219.503 70.272C220.143 70.272 220.65 70.0587 221.023 69.632C221.407 69.1947 221.599 68.576 221.599 67.776C221.599 66.976 221.407 66.3627 221.023 65.936C220.65 65.5093 220.143 65.296 219.503 65.296C218.852 65.296 218.335 65.5093 217.951 65.936C217.567 66.3627 217.375 66.976 217.375 67.776C217.375 68.576 217.567 69.1947 217.951 69.632C218.335 70.0587 218.852 70.272 219.503 70.272Z" fill="black"/>
<defs>
<linearGradient id="paint0_linear_8_282" x1="32.9845" y1="28" x2="341.288" y2="28" gradientUnits="userSpaceOnUse">
<stop stop-color="#00CCFF"/>
<stop offset="1" stop-color="#FF00FF"/>
</linearGradient>
</defs>
</svg>
