<svg width="360" height="93" viewBox="0 0 360 93" fill="none" xmlns="http://www.w3.org/2000/svg">
<rect x="123.5" y="8.21167" width="113" height="40" rx="8" fill="url(#paint0_linear_1_58)"/>
<path d="M133.729 34.2117V32.4997H136.321V24.6597H137.313L133.985 26.6437V24.6917L136.913 22.9317H138.385V32.4997H140.817V34.2117H133.729ZM146.347 34.3717C145.024 34.3717 143.99 34.089 143.243 33.5237C142.507 32.9583 142.139 32.1743 142.139 31.1717C142.139 30.3823 142.379 29.7263 142.859 29.2037C143.339 28.681 143.963 28.3717 144.731 28.2757V28.6117C144.038 28.4623 143.478 28.137 143.051 27.6357C142.635 27.1343 142.427 26.5263 142.427 25.8117C142.427 24.8623 142.774 24.121 143.467 23.5877C144.171 23.0437 145.131 22.7717 146.347 22.7717C147.574 22.7717 148.534 23.0437 149.227 23.5877C149.931 24.121 150.283 24.8623 150.283 25.8117C150.283 26.5263 150.08 27.1397 149.675 27.6517C149.28 28.1637 148.742 28.4783 148.059 28.5957V28.2757C148.816 28.3823 149.424 28.697 149.883 29.2197C150.342 29.7317 150.571 30.3823 150.571 31.1717C150.571 32.1743 150.198 32.9583 149.451 33.5237C148.715 34.089 147.68 34.3717 146.347 34.3717ZM146.347 32.7717C147.126 32.7717 147.707 32.6277 148.091 32.3397C148.475 32.041 148.667 31.6037 148.667 31.0277C148.667 30.4517 148.475 30.0197 148.091 29.7317C147.707 29.4437 147.126 29.2997 146.347 29.2997C145.579 29.2997 144.998 29.4437 144.603 29.7317C144.219 30.0197 144.027 30.4517 144.027 31.0277C144.027 31.6037 144.219 32.041 144.603 32.3397C144.998 32.6277 145.579 32.7717 146.347 32.7717ZM146.347 27.6997C147.008 27.6997 147.51 27.5503 147.851 27.2517C148.203 26.953 148.379 26.5423 148.379 26.0197C148.379 25.5077 148.203 25.1077 147.851 24.8197C147.51 24.521 147.008 24.3717 146.347 24.3717C145.696 24.3717 145.195 24.521 144.843 24.8197C144.502 25.1077 144.331 25.5077 144.331 26.0197C144.331 26.5423 144.502 26.953 144.843 27.2517C145.195 27.5503 145.696 27.6997 146.347 27.6997ZM152.005 28.3397V26.1317H154.245V28.3397H152.005ZM152.005 34.2117V31.9877H154.245V34.2117H152.005ZM159.909 34.3717C158.587 34.3717 157.568 33.8703 156.853 32.8677C156.139 31.8543 155.781 30.4143 155.781 28.5477C155.781 26.6597 156.139 25.225 156.853 24.2437C157.568 23.2623 158.587 22.7717 159.909 22.7717C161.243 22.7717 162.261 23.2623 162.965 24.2437C163.68 25.225 164.037 26.6543 164.037 28.5317C164.037 30.409 163.68 31.8543 162.965 32.8677C162.261 33.8703 161.243 34.3717 159.909 34.3717ZM159.909 32.6757C160.635 32.6757 161.173 32.345 161.525 31.6837C161.877 31.0117 162.053 29.961 162.053 28.5317C162.053 27.1023 161.877 26.0677 161.525 25.4277C161.173 24.777 160.635 24.4517 159.909 24.4517C159.195 24.4517 158.656 24.777 158.293 25.4277C157.941 26.0677 157.765 27.1023 157.765 28.5317C157.765 29.961 157.941 31.0117 158.293 31.6837C158.656 32.345 159.195 32.6757 159.909 32.6757ZM169.503 34.3717C168.18 34.3717 167.162 33.8703 166.447 32.8677C165.732 31.8543 165.375 30.4143 165.375 28.5477C165.375 26.6597 165.732 25.225 166.447 24.2437C167.162 23.2623 168.18 22.7717 169.503 22.7717C170.836 22.7717 171.855 23.2623 172.559 24.2437C173.274 25.225 173.631 26.6543 173.631 28.5317C173.631 30.409 173.274 31.8543 172.559 32.8677C171.855 33.8703 170.836 34.3717 169.503 34.3717ZM169.503 32.6757C170.228 32.6757 170.767 32.345 171.119 31.6837C171.471 31.0117 171.647 29.961 171.647 28.5317C171.647 27.1023 171.471 26.0677 171.119 25.4277C170.767 24.777 170.228 24.4517 169.503 24.4517C168.788 24.4517 168.25 24.777 167.887 25.4277C167.535 26.0677 167.359 27.1023 167.359 28.5317C167.359 29.961 167.535 31.0117 167.887 31.6837C168.25 32.345 168.788 32.6757 169.503 32.6757ZM175.369 30.5957V29.0117H180.233V30.5957H175.369ZM187.479 34.2117V32.4997H190.071V24.6597H191.063L187.735 26.6437V24.6917L190.663 22.9317H192.135V32.4997H194.567V34.2117H187.479ZM200.097 34.3717C198.774 34.3717 197.74 34.089 196.993 33.5237C196.257 32.9583 195.889 32.1743 195.889 31.1717C195.889 30.3823 196.129 29.7263 196.609 29.2037C197.089 28.681 197.713 28.3717 198.481 28.2757V28.6117C197.788 28.4623 197.228 28.137 196.801 27.6357C196.385 27.1343 196.177 26.5263 196.177 25.8117C196.177 24.8623 196.524 24.121 197.217 23.5877C197.921 23.0437 198.881 22.7717 200.097 22.7717C201.324 22.7717 202.284 23.0437 202.977 23.5877C203.681 24.121 204.033 24.8623 204.033 25.8117C204.033 26.5263 203.83 27.1397 203.425 27.6517C203.03 28.1637 202.492 28.4783 201.809 28.5957V28.2757C202.566 28.3823 203.174 28.697 203.633 29.2197C204.092 29.7317 204.321 30.3823 204.321 31.1717C204.321 32.1743 203.948 32.9583 203.201 33.5237C202.465 34.089 201.43 34.3717 200.097 34.3717ZM200.097 32.7717C200.876 32.7717 201.457 32.6277 201.841 32.3397C202.225 32.041 202.417 31.6037 202.417 31.0277C202.417 30.4517 202.225 30.0197 201.841 29.7317C201.457 29.4437 200.876 29.2997 200.097 29.2997C199.329 29.2997 198.748 29.4437 198.353 29.7317C197.969 30.0197 197.777 30.4517 197.777 31.0277C197.777 31.6037 197.969 32.041 198.353 32.3397C198.748 32.6277 199.329 32.7717 200.097 32.7717ZM200.097 27.6997C200.758 27.6997 201.26 27.5503 201.601 27.2517C201.953 26.953 202.129 26.5423 202.129 26.0197C202.129 25.5077 201.953 25.1077 201.601 24.8197C201.26 24.521 200.758 24.3717 200.097 24.3717C199.446 24.3717 198.945 24.521 198.593 24.8197C198.252 25.1077 198.081 25.5077 198.081 26.0197C198.081 26.5423 198.252 26.953 198.593 27.2517C198.945 27.5503 199.446 27.6997 200.097 27.6997ZM205.755 28.3397V26.1317H207.995V28.3397H205.755ZM205.755 34.2117V31.9877H207.995V34.2117H205.755ZM213.483 34.3717C212.705 34.3717 211.958 34.2597 211.243 34.0357C210.529 33.801 209.942 33.481 209.483 33.0757L210.155 31.5237C210.657 31.9077 211.174 32.1903 211.707 32.3717C212.251 32.553 212.822 32.6437 213.419 32.6437C214.145 32.6437 214.694 32.4997 215.067 32.2117C215.441 31.9237 215.627 31.5023 215.627 30.9477C215.627 30.4143 215.441 30.0143 215.067 29.7477C214.705 29.4703 214.171 29.3317 213.467 29.3317H211.643V27.6837H213.291C213.899 27.6837 214.385 27.5343 214.747 27.2357C215.11 26.937 215.291 26.5263 215.291 26.0037C215.291 25.513 215.121 25.1397 214.779 24.8837C214.449 24.6277 213.969 24.4997 213.339 24.4997C212.209 24.4997 211.211 24.8837 210.347 25.6517L209.675 24.1157C210.134 23.689 210.699 23.3583 211.371 23.1237C212.054 22.889 212.769 22.7717 213.515 22.7717C214.689 22.7717 215.606 23.0383 216.267 23.5717C216.939 24.0943 217.275 24.825 217.275 25.7637C217.275 26.4357 217.083 27.017 216.699 27.5077C216.326 27.9877 215.809 28.3077 215.147 28.4677V28.2757C215.926 28.4037 216.529 28.7237 216.955 29.2357C217.393 29.737 217.611 30.3663 217.611 31.1237C217.611 32.1263 217.243 32.921 216.507 33.5077C215.771 34.0837 214.763 34.3717 213.483 34.3717ZM223.253 34.3717C221.93 34.3717 220.912 33.8703 220.197 32.8677C219.482 31.8543 219.125 30.4143 219.125 28.5477C219.125 26.6597 219.482 25.225 220.197 24.2437C220.912 23.2623 221.93 22.7717 223.253 22.7717C224.586 22.7717 225.605 23.2623 226.309 24.2437C227.024 25.225 227.381 26.6543 227.381 28.5317C227.381 30.409 227.024 31.8543 226.309 32.8677C225.605 33.8703 224.586 34.3717 223.253 34.3717ZM223.253 32.6757C223.978 32.6757 224.517 32.345 224.869 31.6837C225.221 31.0117 225.397 29.961 225.397 28.5317C225.397 27.1023 225.221 26.0677 224.869 25.4277C224.517 24.777 223.978 24.4517 223.253 24.4517C222.538 24.4517 222 24.777 221.637 25.4277C221.285 26.0677 221.109 27.1023 221.109 28.5317C221.109 29.961 221.285 31.0117 221.637 31.6837C222 32.345 222.538 32.6757 223.253 32.6757Z" fill="white"/>
<path d="M127.912 72.2117V60.9317H129.976V65.9237H130.008L134.92 60.9317H137.416L131.528 66.8037L131.544 65.9077L137.8 72.2117H135.224L130.008 66.9957H129.976V72.2117H127.912ZM142.109 72.3717C140.755 72.3717 139.693 71.9983 138.925 71.2517C138.157 70.505 137.773 69.481 137.773 68.1797C137.773 67.337 137.939 66.601 138.269 65.9717C138.6 65.3423 139.059 64.8517 139.645 64.4997C140.243 64.1477 140.936 63.9717 141.725 63.9717C142.504 63.9717 143.155 64.137 143.677 64.4677C144.2 64.7983 144.595 65.2623 144.861 65.8597C145.139 66.457 145.277 67.1557 145.277 67.9557V68.4837H139.389V67.4277H143.853L143.581 67.6517C143.581 66.905 143.421 66.3343 143.101 65.9397C142.792 65.545 142.339 65.3477 141.741 65.3477C141.08 65.3477 140.568 65.5823 140.205 66.0517C139.853 66.521 139.677 67.177 139.677 68.0197V68.2277C139.677 69.1023 139.891 69.7583 140.317 70.1957C140.755 70.6223 141.368 70.8357 142.157 70.8357C142.616 70.8357 143.043 70.777 143.437 70.6597C143.843 70.5317 144.227 70.329 144.589 70.0517L145.181 71.3957C144.797 71.705 144.339 71.945 143.805 72.1157C143.272 72.2863 142.707 72.3717 142.109 72.3717ZM139.085 63.4277L140.845 60.8197H142.605L144.365 63.4277H143.101L141.725 61.9077L140.349 63.4277H139.085ZM143.469 61.7317L144.813 59.3317H146.477L144.605 61.7317H143.469ZM150.396 72.3717C149.436 72.3717 148.71 72.121 148.22 71.6197C147.729 71.1183 147.484 70.3663 147.484 69.3637V65.6357H145.932V64.1317H147.484V62.0677L149.484 61.5557V64.1317H151.644V65.6357H149.484V69.2357C149.484 69.7903 149.59 70.1797 149.804 70.4037C150.017 70.6277 150.31 70.7397 150.684 70.7397C150.886 70.7397 151.057 70.7237 151.196 70.6917C151.345 70.6597 151.489 70.617 151.628 70.5637V72.1477C151.446 72.2223 151.244 72.2757 151.02 72.3077C150.806 72.3503 150.598 72.3717 150.396 72.3717ZM157.393 72.2117V66.1477C157.393 65.817 157.382 65.481 157.361 65.1397C157.339 64.7983 157.307 64.4623 157.265 64.1317H159.201L159.361 65.7317H159.169C159.425 65.1663 159.803 64.7343 160.305 64.4357C160.806 64.1263 161.387 63.9717 162.049 63.9717C162.998 63.9717 163.713 64.2383 164.193 64.7717C164.673 65.305 164.913 66.137 164.913 67.2677V72.2117H162.913V67.3637C162.913 66.713 162.785 66.249 162.529 65.9717C162.283 65.6837 161.91 65.5397 161.409 65.5397C160.79 65.5397 160.299 65.7317 159.937 66.1157C159.574 66.4997 159.393 67.0117 159.393 67.6517V72.2117H157.393ZM170.681 72.3717C169.849 72.3717 169.129 72.201 168.521 71.8597C167.913 71.5183 167.439 71.033 167.097 70.4037C166.767 69.7743 166.601 69.0277 166.601 68.1637C166.601 67.2997 166.767 66.5583 167.097 65.9397C167.439 65.3103 167.913 64.825 168.521 64.4837C169.129 64.1423 169.849 63.9717 170.681 63.9717C171.513 63.9717 172.233 64.1423 172.841 64.4837C173.46 64.825 173.935 65.3103 174.265 65.9397C174.607 66.5583 174.777 67.2997 174.777 68.1637C174.777 69.0277 174.607 69.7743 174.265 70.4037C173.935 71.033 173.46 71.5183 172.841 71.8597C172.233 72.201 171.513 72.3717 170.681 72.3717ZM170.681 70.8357C171.311 70.8357 171.812 70.617 172.185 70.1797C172.559 69.7317 172.745 69.0597 172.745 68.1637C172.745 67.2677 172.559 66.601 172.185 66.1637C171.812 65.7263 171.311 65.5077 170.681 65.5077C170.052 65.5077 169.551 65.7263 169.177 66.1637C168.804 66.601 168.617 67.2677 168.617 68.1637C168.617 69.0597 168.804 69.7317 169.177 70.1797C169.551 70.617 170.052 70.8357 170.681 70.8357ZM168.057 63.4277L169.817 60.8197H171.577L173.337 63.4277H172.073L170.697 61.9077L169.321 63.4277H168.057ZM172.441 61.7317L173.785 59.3317H175.449L173.577 61.7317H172.441ZM176.502 72.2117V64.1317H178.502V72.2117H176.502ZM176.39 62.6117V60.6597H178.614V62.6117H176.39ZM188.185 72.3717C187.481 72.3717 186.862 72.2117 186.329 71.8917C185.795 71.561 185.379 71.0917 185.081 70.4837C184.782 69.865 184.633 69.1343 184.633 68.2917C184.633 67.449 184.782 66.7237 185.081 66.1157C185.379 65.5077 185.795 65.0437 186.329 64.7237C186.862 64.393 187.481 64.2277 188.185 64.2277C188.846 64.2277 189.433 64.393 189.945 64.7237C190.457 65.0437 190.798 65.4703 190.969 66.0037H190.793V63.1077H187.737V61.6997H190.793V60.4357H192.793V61.6997H194.249V63.1077H192.793V72.2117H190.825V70.5317H190.985C190.814 71.0863 190.473 71.5343 189.961 71.8757C189.459 72.2063 188.867 72.3717 188.185 72.3717ZM188.745 70.8357C189.363 70.8357 189.865 70.6223 190.249 70.1957C190.633 69.769 190.825 69.1343 190.825 68.2917C190.825 67.449 190.633 66.8197 190.249 66.4037C189.865 65.977 189.363 65.7637 188.745 65.7637C188.115 65.7637 187.609 65.977 187.225 66.4037C186.841 66.8197 186.649 67.449 186.649 68.2917C186.649 69.1343 186.841 69.769 187.225 70.1957C187.609 70.6223 188.115 70.8357 188.745 70.8357ZM198.106 72.3717C197.402 72.3717 196.784 72.2063 196.25 71.8757C195.717 71.5343 195.301 71.049 195.002 70.4197C194.704 69.7903 194.554 69.0383 194.554 68.1637C194.554 67.289 194.704 66.5423 195.002 65.9237C195.301 65.2943 195.717 64.8143 196.25 64.4837C196.784 64.1423 197.402 63.9717 198.106 63.9717C198.789 63.9717 199.386 64.1423 199.898 64.4837C200.421 64.8143 200.768 65.2623 200.938 65.8277H200.762L200.938 64.1317H202.858C202.826 64.4623 202.794 64.7983 202.762 65.1397C202.741 65.481 202.73 65.817 202.73 66.1477V72.2117H200.746L200.73 70.5477H200.922C200.752 71.1023 200.405 71.545 199.882 71.8757C199.36 72.2063 198.768 72.3717 198.106 72.3717ZM198.666 70.8357C199.296 70.8357 199.802 70.617 200.186 70.1797C200.57 69.7317 200.762 69.0597 200.762 68.1637C200.762 67.2677 200.57 66.601 200.186 66.1637C199.802 65.7263 199.296 65.5077 198.666 65.5077C198.037 65.5077 197.53 65.7263 197.146 66.1637C196.762 66.601 196.57 67.2677 196.57 68.1637C196.57 69.0597 196.757 69.7317 197.13 70.1797C197.514 70.617 198.026 70.8357 198.666 70.8357ZM196.138 63.4277L197.898 60.8197H199.658L201.418 63.4277H200.154L198.778 61.9077L197.402 63.4277H196.138ZM201.146 61.7317L199.274 59.3317H200.954L202.298 61.7317H201.146ZM207.82 72.3717C206.828 72.3717 206.087 72.0997 205.596 71.5557C205.106 71.0117 204.86 70.1797 204.86 69.0597V64.1317H206.86V69.0437C206.86 69.641 206.983 70.0837 207.228 70.3717C207.474 70.649 207.847 70.7877 208.348 70.7877C208.914 70.7877 209.372 70.5957 209.724 70.2117C210.087 69.8277 210.268 69.321 210.268 68.6917V64.1317H212.268V72.2117H210.316V70.5637H210.54C210.306 71.1397 209.948 71.5877 209.468 71.9077C208.999 72.217 208.45 72.3717 207.82 72.3717ZM222.286 72.3717C221.326 72.3717 220.601 72.121 220.11 71.6197C219.62 71.1183 219.374 70.3663 219.374 69.3637V65.6357H217.822V64.1317H219.374V62.0677L221.374 61.5557V64.1317H223.534V65.6357H221.374V69.2357C221.374 69.7903 221.481 70.1797 221.694 70.4037C221.908 70.6277 222.201 70.7397 222.574 70.7397C222.777 70.7397 222.948 70.7237 223.086 70.6917C223.236 70.6597 223.38 70.617 223.518 70.5637V72.1477C223.337 72.2223 223.134 72.2757 222.91 72.3077C222.697 72.3503 222.489 72.3717 222.286 72.3717ZM227.805 72.3717C226.813 72.3717 226.071 72.0997 225.581 71.5557C225.09 71.0117 224.845 70.1797 224.845 69.0597V64.1317H226.845V69.0437C226.845 69.641 226.967 70.0837 227.213 70.3717C227.458 70.649 227.831 70.7877 228.333 70.7877C228.898 70.7877 229.357 70.5957 229.709 70.2117C230.071 69.8277 230.253 69.321 230.253 68.6917V64.1317H232.253V72.2117H230.301V70.5637H230.525C230.29 71.1397 229.933 71.5877 229.453 71.9077C228.983 72.217 228.434 72.3717 227.805 72.3717ZM231.901 65.1557L230.749 64.4357V64.1317C231.133 64.121 231.437 64.0677 231.661 63.9717C231.895 63.865 232.066 63.689 232.173 63.4437C232.279 63.1983 232.333 62.8623 232.333 62.4357V62.0997H234.061V62.6917C234.061 63.1503 233.97 63.5557 233.789 63.9077C233.618 64.2597 233.373 64.5477 233.053 64.7717C232.733 64.985 232.349 65.113 231.901 65.1557Z" fill="black"/>
<defs>
<linearGradient id="paint0_linear_1_58" x1="32.9845" y1="28.2117" x2="341.288" y2="28.2117" gradientUnits="userSpaceOnUse">
<stop stop-color="#00CCFF"/>
<stop offset="1" stop-color="#FF00FF"/>
</linearGradient>
</defs>
</svg>
