<svg width="360" height="116" viewBox="0 0 360 116" fill="none" xmlns="http://www.w3.org/2000/svg">
<rect x="123.5" y="12" width="113" height="40" rx="8" fill="url(#paint0_linear_1_43)"/>
<path d="M133.729 38.5V36.788H136.321V28.948H137.313L133.985 30.932V28.98L136.913 27.22H138.385V36.788H140.817V38.5H133.729ZM147.243 38.5V36.292H142.203V34.852L147.563 27.22H149.227V34.724H150.843V36.292H149.227V38.5H147.243ZM147.243 34.724V29.652H147.627L143.739 35.204V34.724H147.243ZM152.005 32.628V30.42H154.245V32.628H152.005ZM152.005 38.5V36.276H154.245V38.5H152.005ZM156.885 38.5V36.788H159.477V28.948H160.469L157.141 30.932V28.98L160.069 27.22H161.541V36.788H163.973V38.5H156.885ZM169.583 38.66C169.092 38.66 168.602 38.6067 168.111 38.5C167.631 38.3933 167.178 38.244 166.751 38.052C166.335 37.86 165.978 37.6307 165.679 37.364L166.351 35.812C166.852 36.1853 167.364 36.468 167.887 36.66C168.42 36.8413 168.975 36.932 169.551 36.932C170.244 36.932 170.783 36.7613 171.167 36.42C171.562 36.068 171.759 35.5987 171.759 35.012C171.759 34.4147 171.572 33.9347 171.199 33.572C170.826 33.1987 170.314 33.012 169.663 33.012C169.204 33.012 168.783 33.1027 168.399 33.284C168.026 33.4547 167.69 33.7213 167.391 34.084H166.031V27.22H173.039V28.916H167.983V32.5H167.487C167.764 32.1267 168.132 31.8387 168.591 31.636C169.06 31.4333 169.583 31.332 170.159 31.332C170.884 31.332 171.514 31.4813 172.047 31.78C172.58 32.0787 172.996 32.5 173.295 33.044C173.594 33.5773 173.743 34.2067 173.743 34.932C173.743 35.668 173.572 36.3187 173.231 36.884C172.9 37.4387 172.42 37.876 171.791 38.196C171.172 38.5053 170.436 38.66 169.583 38.66ZM175.369 34.884V33.3H180.233V34.884H175.369ZM187.479 38.5V36.788H190.071V28.948H191.063L187.735 30.932V28.98L190.663 27.22H192.135V36.788H194.567V38.5H187.479ZM200.177 38.66C199.686 38.66 199.196 38.6067 198.705 38.5C198.225 38.3933 197.772 38.244 197.345 38.052C196.929 37.86 196.572 37.6307 196.273 37.364L196.945 35.812C197.446 36.1853 197.958 36.468 198.481 36.66C199.014 36.8413 199.569 36.932 200.145 36.932C200.838 36.932 201.377 36.7613 201.761 36.42C202.156 36.068 202.353 35.5987 202.353 35.012C202.353 34.4147 202.166 33.9347 201.793 33.572C201.42 33.1987 200.908 33.012 200.257 33.012C199.798 33.012 199.377 33.1027 198.993 33.284C198.62 33.4547 198.284 33.7213 197.985 34.084H196.625V27.22H203.633V28.916H198.577V32.5H198.081C198.358 32.1267 198.726 31.8387 199.185 31.636C199.654 31.4333 200.177 31.332 200.753 31.332C201.478 31.332 202.108 31.4813 202.641 31.78C203.174 32.0787 203.59 32.5 203.889 33.044C204.188 33.5773 204.337 34.2067 204.337 34.932C204.337 35.668 204.166 36.3187 203.825 36.884C203.494 37.4387 203.014 37.876 202.385 38.196C201.766 38.5053 201.03 38.66 200.177 38.66ZM205.755 32.628V30.42H207.995V32.628H205.755ZM205.755 38.5V36.276H207.995V38.5H205.755ZM214.555 38.5V36.292H209.515V34.852L214.875 27.22H216.539V34.724H218.155V36.292H216.539V38.5H214.555ZM214.555 34.724V29.652H214.939L211.051 35.204V34.724H214.555ZM223.333 38.66C222.842 38.66 222.352 38.6067 221.861 38.5C221.381 38.3933 220.928 38.244 220.501 38.052C220.085 37.86 219.728 37.6307 219.429 37.364L220.101 35.812C220.602 36.1853 221.114 36.468 221.637 36.66C222.17 36.8413 222.725 36.932 223.301 36.932C223.994 36.932 224.533 36.7613 224.917 36.42C225.312 36.068 225.509 35.5987 225.509 35.012C225.509 34.4147 225.322 33.9347 224.949 33.572C224.576 33.1987 224.064 33.012 223.413 33.012C222.954 33.012 222.533 33.1027 222.149 33.284C221.776 33.4547 221.44 33.7213 221.141 34.084H219.781V27.22H226.789V28.916H221.733V32.5H221.237C221.514 32.1267 221.882 31.8387 222.341 31.636C222.81 31.4333 223.333 31.332 223.909 31.332C224.634 31.332 225.264 31.4813 225.797 31.78C226.33 32.0787 226.746 32.5 227.045 33.044C227.344 33.5773 227.493 34.2067 227.493 34.932C227.493 35.668 227.322 36.3187 226.981 36.884C226.65 37.4387 226.17 37.876 225.541 38.196C224.922 38.5053 224.186 38.66 223.333 38.66Z" fill="white"/>
<path d="M69.2402 78V66.72H74.2482C75.4855 66.72 76.4295 67.0187 77.0802 67.616C77.7309 68.2133 78.0562 69.0347 78.0562 70.08C78.0562 71.1147 77.7309 71.936 77.0802 72.544C76.4295 73.152 75.4855 73.456 74.2482 73.456H71.3042V78H69.2402ZM71.3042 71.824H74.0082C74.6909 71.824 75.2029 71.6747 75.5442 71.376C75.8855 71.0667 76.0562 70.6347 76.0562 70.08C76.0562 69.5253 75.8855 69.0987 75.5442 68.8C75.2029 68.4907 74.6909 68.336 74.0082 68.336H71.3042V71.824ZM79.7364 78V66.224H81.7364V71.536H81.5124C81.7578 70.96 82.1364 70.5227 82.6484 70.224C83.1604 69.9147 83.7471 69.76 84.4084 69.76C85.3684 69.76 86.0831 70.032 86.5524 70.576C87.0218 71.1093 87.2564 71.9253 87.2564 73.024V78H85.2564V73.12C85.2564 72.4907 85.1338 72.0373 84.8884 71.76C84.6538 71.472 84.2751 71.328 83.7524 71.328C83.1444 71.328 82.6538 71.52 82.2804 71.904C81.9178 72.2773 81.7364 72.7787 81.7364 73.408V78H79.7364ZM89.3771 78V69.92H91.3771V78H89.3771ZM89.2651 68.4V66.448H91.4891V68.4H89.2651ZM97.4529 78.16C96.0983 78.16 95.0369 77.7867 94.2689 77.04C93.5009 76.2933 93.1169 75.2693 93.1169 73.968C93.1169 73.1253 93.2823 72.3893 93.6129 71.76C93.9436 71.1307 94.4023 70.64 94.9889 70.288C95.5863 69.936 96.2796 69.76 97.0689 69.76C97.8476 69.76 98.4983 69.9253 99.0209 70.256C99.5436 70.5867 99.9383 71.0507 100.205 71.648C100.482 72.2453 100.621 72.944 100.621 73.744V74.272H94.7329V73.216H99.1969L98.9249 73.44C98.9249 72.6933 98.7649 72.1227 98.4449 71.728C98.1356 71.3333 97.6823 71.136 97.0849 71.136C96.4236 71.136 95.9116 71.3707 95.5489 71.84C95.1969 72.3093 95.0209 72.9653 95.0209 73.808V74.016C95.0209 74.8907 95.2343 75.5467 95.6609 75.984C96.0983 76.4107 96.7116 76.624 97.5009 76.624C97.9596 76.624 98.3863 76.5653 98.7809 76.448C99.1863 76.32 99.5703 76.1173 99.9329 75.84L100.525 77.184C100.141 77.4933 99.6823 77.7333 99.1489 77.904C98.6156 78.0747 98.0503 78.16 97.4529 78.16ZM94.4289 69.136L96.1889 65.888H97.9489L99.7089 69.136H98.4449L97.0689 67.024L95.6929 69.136H94.4289ZM102.315 78V71.936C102.315 71.6053 102.304 71.2693 102.283 70.928C102.261 70.5867 102.229 70.2507 102.187 69.92H104.123L104.283 71.52H104.091C104.347 70.9547 104.725 70.5227 105.227 70.224C105.728 69.9147 106.309 69.76 106.971 69.76C107.92 69.76 108.635 70.0267 109.115 70.56C109.595 71.0933 109.835 71.9253 109.835 73.056V78H107.835V73.152C107.835 72.5013 107.707 72.0373 107.451 71.76C107.205 71.472 106.832 71.328 106.331 71.328C105.712 71.328 105.221 71.52 104.859 71.904C104.496 72.288 104.315 72.8 104.315 73.44V78H102.315ZM117.034 78V76.288H119.626V68.448H120.618L117.29 70.432V68.48L120.218 66.72H121.69V76.288H124.122V78H117.034ZM125.716 72.128V69.92H127.956V72.128H125.716ZM125.716 78V75.776H127.956V78H125.716ZM139.707 78.16C138.534 78.16 137.526 77.9253 136.683 77.456C135.851 76.976 135.211 76.304 134.763 75.44C134.315 74.5653 134.091 73.536 134.091 72.352C134.091 71.168 134.315 70.144 134.763 69.28C135.211 68.416 135.851 67.7493 136.683 67.28C137.526 66.8 138.534 66.56 139.707 66.56C140.496 66.56 141.206 66.672 141.835 66.896C142.475 67.12 143.024 67.4507 143.483 67.888L142.811 69.52C142.31 69.1147 141.824 68.8267 141.355 68.656C140.896 68.4747 140.368 68.384 139.771 68.384C138.63 68.384 137.755 68.7307 137.147 69.424C136.55 70.1067 136.251 71.0827 136.251 72.352C136.251 73.6213 136.55 74.6027 137.147 75.296C137.755 75.9893 138.63 76.336 139.771 76.336C140.368 76.336 140.896 76.2507 141.355 76.08C141.824 75.8987 142.31 75.6 142.811 75.184L143.483 76.816C143.024 77.2427 142.475 77.5733 141.835 77.808C141.206 78.0427 140.496 78.16 139.707 78.16ZM148.338 78.16C147.506 78.16 146.786 77.9893 146.178 77.648C145.57 77.3067 145.095 76.8213 144.754 76.192C144.423 75.5627 144.258 74.816 144.258 73.952C144.258 73.088 144.423 72.3467 144.754 71.728C145.095 71.0987 145.57 70.6133 146.178 70.272C146.786 69.9307 147.506 69.76 148.338 69.76C149.17 69.76 149.89 69.9307 150.498 70.272C151.116 70.6133 151.591 71.0987 151.922 71.728C152.263 72.3467 152.434 73.088 152.434 73.952C152.434 74.816 152.263 75.5627 151.922 76.192C151.591 76.8213 151.116 77.3067 150.498 77.648C149.89 77.9893 149.17 78.16 148.338 78.16ZM148.338 76.624C148.967 76.624 149.468 76.4053 149.842 75.968C150.215 75.52 150.402 74.848 150.402 73.952C150.402 73.056 150.215 72.3893 149.842 71.952C149.468 71.5147 148.967 71.296 148.338 71.296C147.708 71.296 147.207 71.5147 146.834 71.952C146.46 72.3893 146.274 73.056 146.274 73.952C146.274 74.848 146.46 75.52 146.834 75.968C147.207 76.4053 147.708 76.624 148.338 76.624ZM150.37 70.944L149.218 70.224V69.92C149.602 69.9093 149.906 69.856 150.13 69.76C150.364 69.6533 150.535 69.4773 150.642 69.232C150.748 68.9867 150.802 68.6507 150.802 68.224V67.888H152.53V68.48C152.53 68.9387 152.439 69.344 152.258 69.696C152.087 70.048 151.842 70.336 151.522 70.56C151.202 70.7733 150.818 70.9013 150.37 70.944ZM158.549 78V66.224H160.549V71.536H160.325C160.57 70.96 160.949 70.5227 161.461 70.224C161.973 69.9147 162.56 69.76 163.221 69.76C164.181 69.76 164.896 70.032 165.365 70.576C165.834 71.1093 166.069 71.9253 166.069 73.024V78H164.069V73.12C164.069 72.4907 163.946 72.0373 163.701 71.76C163.466 71.472 163.088 71.328 162.565 71.328C161.957 71.328 161.466 71.52 161.093 71.904C160.73 72.2773 160.549 72.7787 160.549 73.408V78H158.549ZM171.838 78.16C171.006 78.16 170.286 77.9893 169.678 77.648C169.07 77.3067 168.595 76.8213 168.254 76.192C167.923 75.5627 167.758 74.816 167.758 73.952C167.758 73.088 167.923 72.3467 168.254 71.728C168.595 71.0987 169.07 70.6133 169.678 70.272C170.286 69.9307 171.006 69.76 171.838 69.76C172.67 69.76 173.39 69.9307 173.998 70.272C174.616 70.6133 175.091 71.0987 175.422 71.728C175.763 72.3467 175.934 73.088 175.934 73.952C175.934 74.816 175.763 75.5627 175.422 76.192C175.091 76.8213 174.616 77.3067 173.998 77.648C173.39 77.9893 172.67 78.16 171.838 78.16ZM171.838 76.624C172.467 76.624 172.968 76.4053 173.342 75.968C173.715 75.52 173.902 74.848 173.902 73.952C173.902 73.056 173.715 72.3893 173.342 71.952C172.968 71.5147 172.467 71.296 171.838 71.296C171.208 71.296 170.707 71.5147 170.334 71.952C169.96 72.3893 169.774 73.056 169.774 73.952C169.774 74.848 169.96 75.52 170.334 75.968C170.707 76.4053 171.208 76.624 171.838 76.624ZM170.878 81.264V79.408H172.83V81.264H170.878ZM169.214 69.136L170.974 65.888H172.734L174.494 69.136H173.23L171.854 67.024L170.478 69.136H169.214ZM177.658 78V69.92H179.658V78H177.658ZM177.546 68.4V66.448H179.77V68.4H177.546ZM186.397 78V66.72H188.205L192.349 76.048H191.853L195.997 66.72H197.789V78H195.917V69.632H196.493L192.701 78H191.469L187.677 69.632H188.269V78H186.397ZM209.583 78.16C209.092 77.9893 208.623 77.76 208.175 77.472C207.727 77.1733 207.321 76.8587 206.959 76.528L207.391 76.544C206.9 77.0453 206.329 77.44 205.679 77.728C205.028 78.016 204.335 78.16 203.599 78.16C202.777 78.16 202.068 78.032 201.471 77.776C200.873 77.52 200.415 77.168 200.095 76.72C199.775 76.2613 199.615 75.728 199.615 75.12C199.615 74.3947 199.828 73.776 200.255 73.264C200.681 72.752 201.268 72.272 202.015 71.824L202.559 71.52L202.255 71.888C201.796 71.4293 201.455 70.9867 201.231 70.56C201.007 70.1333 200.895 69.6907 200.895 69.232C200.895 68.6987 201.023 68.2347 201.279 67.84C201.545 67.4347 201.913 67.12 202.383 66.896C202.863 66.672 203.423 66.56 204.063 66.56C204.895 66.56 205.572 66.784 206.095 67.232C206.617 67.6693 206.879 68.2667 206.879 69.024C206.879 69.4293 206.799 69.808 206.639 70.16C206.479 70.512 206.217 70.848 205.855 71.168C205.503 71.488 205.039 71.808 204.463 72.128L204.511 71.728L207.311 74.624H206.895C207.172 74.1867 207.385 73.6747 207.535 73.088C207.684 72.5013 207.775 71.8827 207.807 71.232H209.487C209.455 72.1067 209.316 72.9333 209.071 73.712C208.825 74.4907 208.495 75.1787 208.079 75.776L208.063 75.296C208.351 75.5947 208.681 75.8667 209.055 76.112C209.428 76.3573 209.833 76.56 210.271 76.72L209.583 78.16ZM203.711 76.608C204.244 76.608 204.719 76.5067 205.135 76.304C205.561 76.1013 205.94 75.8027 206.271 75.408L206.223 75.888L202.863 72.48L203.679 72.496L203.215 72.752C202.852 72.976 202.548 73.2 202.303 73.424C202.068 73.648 201.892 73.888 201.775 74.144C201.657 74.3893 201.599 74.672 201.599 74.992C201.599 75.4933 201.78 75.888 202.143 76.176C202.505 76.464 203.028 76.608 203.711 76.608ZM204.063 67.92C203.657 67.92 203.332 68.0373 203.087 68.272C202.841 68.5067 202.719 68.816 202.719 69.2C202.719 69.4027 202.756 69.5947 202.831 69.776C202.905 69.9573 203.028 70.1547 203.199 70.368C203.369 70.5707 203.593 70.8213 203.871 71.12L203.391 71.152C204.052 70.7893 204.532 70.4587 204.831 70.16C205.14 69.8507 205.295 69.4987 205.295 69.104C205.295 68.7307 205.183 68.4427 204.959 68.24C204.735 68.0267 204.436 67.92 204.063 67.92ZM210.07 78L215.174 66.72H216.902L222.07 78H219.974L218.598 74.832L219.43 75.392H212.662L213.526 74.832L212.15 78H210.07ZM216.022 68.928L213.766 74.272L213.35 73.776H218.726L218.39 74.272L216.086 68.928H216.022ZM231.005 78.16C230.045 78.16 229.32 77.9093 228.829 77.408C228.338 76.9067 228.093 76.1547 228.093 75.152V71.424H226.541V69.92H228.093V67.856L230.093 67.344V69.92H232.253V71.424H230.093V75.024C230.093 75.5787 230.2 75.968 230.413 76.192C230.626 76.416 230.92 76.528 231.293 76.528C231.496 76.528 231.666 76.512 231.805 76.48C231.954 76.448 232.098 76.4053 232.237 76.352V77.936C232.056 78.0107 231.853 78.064 231.629 78.096C231.416 78.1387 231.208 78.16 231.005 78.16ZM233.595 78V71.984C233.595 71.6427 233.585 71.296 233.563 70.944C233.553 70.592 233.526 70.2507 233.483 69.92H235.419L235.643 72.128H235.323C235.43 71.5947 235.606 71.152 235.851 70.8C236.107 70.448 236.417 70.1867 236.779 70.016C237.142 69.8453 237.537 69.76 237.963 69.76C238.155 69.76 238.31 69.7707 238.427 69.792C238.545 69.8027 238.662 69.8293 238.779 69.872L238.763 71.632C238.561 71.5467 238.385 71.4933 238.235 71.472C238.097 71.4507 237.921 71.44 237.707 71.44C237.249 71.44 236.859 71.536 236.539 71.728C236.23 71.92 235.995 72.1867 235.835 72.528C235.686 72.8693 235.611 73.2587 235.611 73.696V78H233.595ZM243.416 78.16C242.584 78.16 241.864 77.9893 241.256 77.648C240.648 77.3067 240.173 76.8213 239.832 76.192C239.501 75.5627 239.336 74.816 239.336 73.952C239.336 73.088 239.501 72.3467 239.832 71.728C240.173 71.0987 240.648 70.6133 241.256 70.272C241.864 69.9307 242.584 69.76 243.416 69.76C244.248 69.76 244.968 69.9307 245.576 70.272C246.194 70.6133 246.669 71.0987 247 71.728C247.341 72.3467 247.512 73.088 247.512 73.952C247.512 74.816 247.341 75.5627 247 76.192C246.669 76.8213 246.194 77.3067 245.576 77.648C244.968 77.9893 244.248 78.16 243.416 78.16ZM243.416 76.624C244.045 76.624 244.546 76.4053 244.92 75.968C245.293 75.52 245.48 74.848 245.48 73.952C245.48 73.056 245.293 72.3893 244.92 71.952C244.546 71.5147 244.045 71.296 243.416 71.296C242.786 71.296 242.285 71.5147 241.912 71.952C241.538 72.3893 241.352 73.056 241.352 73.952C241.352 74.848 241.538 75.52 241.912 75.968C242.285 76.4053 242.786 76.624 243.416 76.624ZM249.236 78V71.936C249.236 71.6053 249.226 71.2693 249.204 70.928C249.183 70.5867 249.151 70.2507 249.108 69.92H251.044L251.204 71.52H251.012C251.268 70.9547 251.647 70.5227 252.148 70.224C252.65 69.9147 253.231 69.76 253.892 69.76C254.842 69.76 255.556 70.0267 256.036 70.56C256.516 71.0933 256.756 71.9253 256.756 73.056V78H254.756V73.152C254.756 72.5013 254.628 72.0373 254.372 71.76C254.127 71.472 253.754 71.328 253.252 71.328C252.634 71.328 252.143 71.52 251.78 71.904C251.418 72.288 251.236 72.8 251.236 73.44V78H249.236ZM262.621 81.584C261.874 81.584 261.197 81.504 260.589 81.344C259.992 81.184 259.458 80.9387 258.989 80.608L259.421 79.168C259.73 79.3707 260.05 79.536 260.381 79.664C260.712 79.792 261.053 79.888 261.405 79.952C261.757 80.016 262.114 80.048 262.477 80.048C263.224 80.048 263.778 79.8613 264.141 79.488C264.514 79.1253 264.701 78.6027 264.701 77.92V75.984H264.861C264.69 76.5387 264.344 76.9813 263.821 77.312C263.309 77.6427 262.717 77.808 262.045 77.808C261.32 77.808 260.685 77.648 260.141 77.328C259.608 76.9973 259.192 76.528 258.893 75.92C258.594 75.312 258.445 74.5973 258.445 73.776C258.445 72.9547 258.594 72.2453 258.893 71.648C259.192 71.04 259.608 70.576 260.141 70.256C260.685 69.9253 261.32 69.76 262.045 69.76C262.728 69.76 263.32 69.9253 263.821 70.256C264.333 70.576 264.674 71.0133 264.845 71.568L264.701 71.472L264.861 69.92H266.797C266.754 70.2507 266.722 70.5867 266.701 70.928C266.68 71.2693 266.669 71.6053 266.669 71.936V77.68C266.669 78.9493 266.322 79.9147 265.629 80.576C264.946 81.248 263.944 81.584 262.621 81.584ZM262.589 76.272C263.229 76.272 263.736 76.0587 264.109 75.632C264.493 75.1947 264.685 74.576 264.685 73.776C264.685 72.976 264.493 72.3627 264.109 71.936C263.736 71.5093 263.229 71.296 262.589 71.296C261.938 71.296 261.421 71.5093 261.037 71.936C260.653 72.3627 260.461 72.976 260.461 73.776C260.461 74.576 260.653 75.1947 261.037 75.632C261.421 76.0587 261.938 76.272 262.589 76.272ZM276.677 78.16C275.717 78.16 274.991 77.9093 274.501 77.408C274.01 76.9067 273.765 76.1547 273.765 75.152V71.424H272.213V69.92H273.765V67.856L275.765 67.344V69.92H277.925V71.424H275.765V75.024C275.765 75.5787 275.871 75.968 276.085 76.192C276.298 76.416 276.591 76.528 276.965 76.528C277.167 76.528 277.338 76.512 277.477 76.48C277.626 76.448 277.77 76.4053 277.909 76.352V77.936C277.727 78.0107 277.525 78.064 277.301 78.096C277.087 78.1387 276.879 78.16 276.677 78.16ZM279.283 78V66.224H281.283V71.536H281.059C281.305 70.96 281.683 70.5227 282.195 70.224C282.707 69.9147 283.294 69.76 283.955 69.76C284.915 69.76 285.63 70.032 286.099 70.576C286.569 71.1093 286.803 71.9253 286.803 73.024V78H284.803V73.12C284.803 72.4907 284.681 72.0373 284.435 71.76C284.201 71.472 283.822 71.328 283.299 71.328C282.691 71.328 282.201 71.52 281.827 71.904C281.465 72.2773 281.283 72.7787 281.283 73.408V78H279.283ZM288.924 78V69.92H290.924V78H288.924ZM288.812 68.4V66.448H291.036V68.4H288.812ZM289.004 81.264V79.408H290.956V81.264H289.004ZM95.8721 102.16C94.9121 102.16 94.1868 101.909 93.6961 101.408C93.2055 100.907 92.9601 100.155 92.9601 99.152V95.424H91.4081V93.92H92.9601V91.856L94.9601 91.344V93.92H97.1201V95.424H94.9601V99.024C94.9601 99.5787 95.0668 99.968 95.2801 100.192C95.4935 100.416 95.7868 100.528 96.1601 100.528C96.3628 100.528 96.5335 100.512 96.6721 100.48C96.8215 100.448 96.9655 100.405 97.1041 100.352V101.936C96.9228 102.011 96.7201 102.064 96.4961 102.096C96.2828 102.139 96.0748 102.16 95.8721 102.16ZM98.4626 102V95.984C98.4626 95.6427 98.452 95.296 98.4306 94.944C98.42 94.592 98.3933 94.2507 98.3506 93.92H100.287L100.511 96.128H100.191C100.297 95.5947 100.473 95.152 100.719 94.8C100.975 94.448 101.284 94.1867 101.647 94.016C102.009 93.8453 102.404 93.76 102.831 93.76C103.023 93.76 103.177 93.7707 103.295 93.792C103.412 93.8027 103.529 93.8293 103.647 93.872L103.631 95.632C103.428 95.5467 103.252 95.4933 103.103 95.472C102.964 95.4507 102.788 95.44 102.575 95.44C102.116 95.44 101.727 95.536 101.407 95.728C101.097 95.92 100.863 96.1867 100.703 96.528C100.553 96.8693 100.479 97.2587 100.479 97.696V102H98.4626ZM107.672 102.16C106.68 102.16 105.939 101.888 105.448 101.344C104.957 100.8 104.712 99.968 104.712 98.848V93.92H106.712V98.832C106.712 99.4293 106.835 99.872 107.08 100.16C107.325 100.437 107.699 100.576 108.2 100.576C108.765 100.576 109.224 100.384 109.576 100C109.939 99.616 110.12 99.1093 110.12 98.48V93.92H112.12V102H110.168V100.352H110.392C110.157 100.928 109.8 101.376 109.32 101.696C108.851 102.005 108.301 102.16 107.672 102.16ZM111.768 94.944L110.616 94.224V93.92C111 93.9093 111.304 93.856 111.528 93.76C111.763 93.6533 111.933 93.4773 112.04 93.232C112.147 92.9867 112.2 92.6507 112.2 92.224V91.888H113.928V92.48C113.928 92.9387 113.837 93.344 113.656 93.696C113.485 94.048 113.24 94.336 112.92 94.56C112.6 94.7733 112.216 94.9013 111.768 94.944ZM117.939 102.16C117.107 102.16 116.387 101.989 115.779 101.648C115.171 101.307 114.696 100.821 114.355 100.192C114.024 99.5627 113.859 98.816 113.859 97.952C113.859 97.088 114.024 96.3467 114.355 95.728C114.696 95.0987 115.171 94.6133 115.779 94.272C116.387 93.9307 117.107 93.76 117.939 93.76C118.771 93.76 119.491 93.9307 120.099 94.272C120.718 94.6133 121.192 95.0987 121.523 95.728C121.864 96.3467 122.035 97.088 122.035 97.952C122.035 98.816 121.864 99.5627 121.523 100.192C121.192 100.821 120.718 101.307 120.099 101.648C119.491 101.989 118.771 102.16 117.939 102.16ZM117.939 100.624C118.568 100.624 119.07 100.405 119.443 99.968C119.816 99.52 120.003 98.848 120.003 97.952C120.003 97.056 119.816 96.3893 119.443 95.952C119.07 95.5147 118.568 95.296 117.939 95.296C117.31 95.296 116.808 95.5147 116.435 95.952C116.062 96.3893 115.875 97.056 115.875 97.952C115.875 98.848 116.062 99.52 116.435 99.968C116.808 100.405 117.31 100.624 117.939 100.624ZM119.971 94.944L118.819 94.224V93.92C119.203 93.9093 119.507 93.856 119.731 93.76C119.966 93.6533 120.136 93.4773 120.243 93.232C120.35 92.9867 120.403 92.6507 120.403 92.224V91.888H122.131V92.48C122.131 92.9387 122.04 93.344 121.859 93.696C121.688 94.048 121.443 94.336 121.123 94.56C120.803 94.7733 120.419 94.9013 119.971 94.944ZM117.107 93.136L114.835 89.888H116.803L118.451 93.136H117.107ZM123.76 102V95.936C123.76 95.6053 123.749 95.2693 123.728 94.928C123.707 94.5867 123.675 94.2507 123.632 93.92H125.568L125.728 95.52H125.536C125.792 94.9547 126.171 94.5227 126.672 94.224C127.173 93.9147 127.755 93.76 128.416 93.76C129.365 93.76 130.08 94.0267 130.56 94.56C131.04 95.0933 131.28 95.9253 131.28 97.056V102H129.28V97.152C129.28 96.5013 129.152 96.0373 128.896 95.76C128.651 95.472 128.277 95.328 127.776 95.328C127.157 95.328 126.667 95.52 126.304 95.904C125.941 96.288 125.76 96.8 125.76 97.44V102H123.76ZM137.145 105.584C136.398 105.584 135.721 105.504 135.113 105.344C134.515 105.184 133.982 104.939 133.513 104.608L133.945 103.168C134.254 103.371 134.574 103.536 134.905 103.664C135.235 103.792 135.577 103.888 135.929 103.952C136.281 104.016 136.638 104.048 137.001 104.048C137.747 104.048 138.302 103.861 138.665 103.488C139.038 103.125 139.225 102.603 139.225 101.92V99.984H139.385C139.214 100.539 138.867 100.981 138.345 101.312C137.833 101.643 137.241 101.808 136.569 101.808C135.843 101.808 135.209 101.648 134.664 101.328C134.131 100.997 133.715 100.528 133.417 99.92C133.118 99.312 132.969 98.5973 132.969 97.776C132.969 96.9547 133.118 96.2453 133.417 95.648C133.715 95.04 134.131 94.576 134.664 94.256C135.209 93.9253 135.843 93.76 136.569 93.76C137.251 93.76 137.843 93.9253 138.345 94.256C138.857 94.576 139.198 95.0133 139.369 95.568L139.225 95.472L139.385 93.92H141.321C141.278 94.2507 141.246 94.5867 141.225 94.928C141.203 95.2693 141.193 95.6053 141.193 95.936V101.68C141.193 102.949 140.846 103.915 140.153 104.576C139.47 105.248 138.467 105.584 137.145 105.584ZM137.113 100.272C137.753 100.272 138.259 100.059 138.633 99.632C139.017 99.1947 139.209 98.576 139.209 97.776C139.209 96.976 139.017 96.3627 138.633 95.936C138.259 95.5093 137.753 95.296 137.113 95.296C136.462 95.296 135.945 95.5093 135.561 95.936C135.177 96.3627 134.985 96.976 134.985 97.776C134.985 98.576 135.177 99.1947 135.561 99.632C135.945 100.059 136.462 100.272 137.113 100.272ZM147.744 102V95.936C147.744 95.6053 147.734 95.2693 147.712 94.928C147.691 94.5867 147.659 94.2507 147.616 93.92H149.552L149.712 95.52H149.52C149.776 94.9547 150.155 94.5227 150.656 94.224C151.158 93.9147 151.739 93.76 152.4 93.76C153.35 93.76 154.064 94.0267 154.544 94.56C155.024 95.0933 155.264 95.9253 155.264 97.056V102H153.264V97.152C153.264 96.5013 153.136 96.0373 152.88 95.76C152.635 95.472 152.262 95.328 151.76 95.328C151.142 95.328 150.651 95.52 150.288 95.904C149.926 96.288 149.744 96.8 149.744 97.44V102H147.744ZM157.385 102V90.224H159.385V95.536H159.161C159.406 94.96 159.785 94.5227 160.297 94.224C160.809 93.9147 161.396 93.76 162.057 93.76C163.017 93.76 163.732 94.032 164.201 94.576C164.67 95.1093 164.905 95.9253 164.905 97.024V102H162.905V97.12C162.905 96.4907 162.782 96.0373 162.537 95.76C162.302 95.472 161.924 95.328 161.401 95.328C160.793 95.328 160.302 95.52 159.929 95.904C159.566 96.2773 159.385 96.7787 159.385 97.408V102H157.385ZM167.026 102V93.92H169.026V102H167.026ZM166.914 92.4V90.448H169.138V92.4H166.914ZM175.101 102.16C173.747 102.16 172.685 101.787 171.917 101.04C171.149 100.293 170.765 99.2693 170.765 97.968C170.765 97.1253 170.931 96.3893 171.261 95.76C171.592 95.1307 172.051 94.64 172.637 94.288C173.235 93.936 173.928 93.76 174.717 93.76C175.496 93.76 176.147 93.9253 176.669 94.256C177.192 94.5867 177.587 95.0507 177.853 95.648C178.131 96.2453 178.269 96.944 178.269 97.744V98.272H172.381V97.216H176.845L176.573 97.44C176.573 96.6933 176.413 96.1227 176.093 95.728C175.784 95.3333 175.331 95.136 174.733 95.136C174.072 95.136 173.56 95.3707 173.197 95.84C172.845 96.3093 172.669 96.9653 172.669 97.808V98.016C172.669 98.8907 172.883 99.5467 173.309 99.984C173.747 100.411 174.36 100.624 175.149 100.624C175.608 100.624 176.035 100.565 176.429 100.448C176.835 100.32 177.219 100.117 177.581 99.84L178.173 101.184C177.789 101.493 177.331 101.733 176.797 101.904C176.264 102.075 175.699 102.16 175.101 102.16ZM172.077 93.216L173.837 90.608H175.597L177.357 93.216H176.093L174.717 91.696L173.341 93.216H172.077ZM177.085 91.52L175.213 89.12H176.893L178.237 91.52H177.085ZM182.875 102.16C181.883 102.16 181.142 101.888 180.651 101.344C180.16 100.8 179.915 99.968 179.915 98.848V93.92H181.915V98.832C181.915 99.4293 182.038 99.872 182.283 100.16C182.528 100.437 182.902 100.576 183.403 100.576C183.968 100.576 184.427 100.384 184.779 100C185.142 99.616 185.323 99.1093 185.323 98.48V93.92H187.323V102H185.371V100.352H185.595C185.36 100.928 185.003 101.376 184.523 101.696C184.054 102.005 183.504 102.16 182.875 102.16ZM198.509 102.16C197.826 102.16 197.229 101.995 196.717 101.664C196.205 101.323 195.864 100.864 195.693 100.288H195.869V102H193.885V90.224H195.885V95.568H195.693C195.874 95.0133 196.221 94.576 196.733 94.256C197.245 93.9253 197.837 93.76 198.509 93.76C199.224 93.76 199.848 93.9307 200.381 94.272C200.914 94.6133 201.33 95.0987 201.629 95.728C201.928 96.3467 202.077 97.0933 202.077 97.968C202.077 98.8427 201.928 99.5947 201.629 100.224C201.33 100.843 200.909 101.323 200.365 101.664C199.832 101.995 199.213 102.16 198.509 102.16ZM197.949 100.624C198.578 100.624 199.085 100.405 199.469 99.968C199.864 99.5307 200.061 98.864 200.061 97.968C200.061 97.072 199.864 96.4053 199.469 95.968C199.085 95.52 198.578 95.296 197.949 95.296C197.32 95.296 196.813 95.5147 196.429 95.952C196.045 96.3893 195.853 97.056 195.853 97.952C195.853 98.848 196.045 99.52 196.429 99.968C196.813 100.405 197.32 100.624 197.949 100.624ZM203.807 102V93.92H205.807V102H203.807ZM203.695 92.4V90.448H205.919V92.4H203.695ZM211.883 102.16C210.528 102.16 209.467 101.787 208.699 101.04C207.931 100.293 207.547 99.2693 207.547 97.968C207.547 97.1253 207.712 96.3893 208.043 95.76C208.373 95.1307 208.832 94.64 209.419 94.288C210.016 93.936 210.709 93.76 211.499 93.76C212.277 93.76 212.928 93.9253 213.451 94.256C213.973 94.5867 214.368 95.0507 214.635 95.648C214.912 96.2453 215.051 96.944 215.051 97.744V98.272H209.163V97.216H213.627L213.355 97.44C213.355 96.6933 213.195 96.1227 212.875 95.728C212.565 95.3333 212.112 95.136 211.515 95.136C210.853 95.136 210.341 95.3707 209.979 95.84C209.627 96.3093 209.451 96.9653 209.451 97.808V98.016C209.451 98.8907 209.664 99.5467 210.091 99.984C210.528 100.411 211.141 100.624 211.931 100.624C212.389 100.624 212.816 100.565 213.211 100.448C213.616 100.32 214 100.117 214.363 99.84L214.955 101.184C214.571 101.493 214.112 101.733 213.579 101.904C213.045 102.075 212.48 102.16 211.883 102.16ZM208.859 93.216L210.619 90.608H212.379L214.139 93.216H212.875L211.499 91.696L210.123 93.216H208.859ZM213.243 91.52L214.587 89.12H216.251L214.379 91.52H213.243ZM216.744 102V95.936C216.744 95.6053 216.734 95.2693 216.712 94.928C216.691 94.5867 216.659 94.2507 216.616 93.92H218.552L218.712 95.52H218.52C218.776 94.9547 219.155 94.5227 219.656 94.224C220.158 93.9147 220.739 93.76 221.4 93.76C222.35 93.76 223.064 94.0267 223.544 94.56C224.024 95.0933 224.264 95.9253 224.264 97.056V102H222.264V97.152C222.264 96.5013 222.136 96.0373 221.88 95.76C221.635 95.472 221.262 95.328 220.76 95.328C220.142 95.328 219.651 95.52 219.288 95.904C218.926 96.288 218.744 96.8 218.744 97.44V102H216.744ZM233.896 102.16C233.192 102.16 232.573 102 232.039 101.68C231.506 101.349 231.09 100.88 230.792 100.272C230.493 99.6533 230.344 98.9227 230.344 98.08C230.344 97.2373 230.493 96.512 230.792 95.904C231.09 95.296 231.506 94.832 232.039 94.512C232.573 94.1813 233.192 94.016 233.896 94.016C234.557 94.016 235.144 94.1813 235.656 94.512C236.168 94.832 236.509 95.2587 236.68 95.792H236.504V92.896H233.448V91.488H236.504V90.224H238.503V91.488H239.96V92.896H238.503V102H236.536V100.32H236.696C236.525 100.875 236.184 101.323 235.672 101.664C235.17 101.995 234.578 102.16 233.896 102.16ZM234.456 100.624C235.074 100.624 235.576 100.411 235.96 99.984C236.344 99.5573 236.536 98.9227 236.536 98.08C236.536 97.2373 236.344 96.608 235.96 96.192C235.576 95.7653 235.074 95.552 234.456 95.552C233.826 95.552 233.32 95.7653 232.936 96.192C232.552 96.608 232.36 97.2373 232.36 98.08C232.36 98.9227 232.552 99.5573 232.936 99.984C233.32 100.411 233.826 100.624 234.456 100.624ZM244.345 102.16C243.513 102.16 242.793 101.989 242.185 101.648C241.577 101.307 241.103 100.821 240.761 100.192C240.431 99.5627 240.265 98.816 240.265 97.952C240.265 97.088 240.431 96.3467 240.761 95.728C241.103 95.0987 241.577 94.6133 242.185 94.272C242.793 93.9307 243.513 93.76 244.345 93.76C245.177 93.76 245.897 93.9307 246.505 94.272C247.124 94.6133 247.599 95.0987 247.929 95.728C248.271 96.3467 248.441 97.088 248.441 97.952C248.441 98.816 248.271 99.5627 247.929 100.192C247.599 100.821 247.124 101.307 246.505 101.648C245.897 101.989 245.177 102.16 244.345 102.16ZM244.345 100.624C244.975 100.624 245.476 100.405 245.849 99.968C246.223 99.52 246.409 98.848 246.409 97.952C246.409 97.056 246.223 96.3893 245.849 95.952C245.476 95.5147 244.975 95.296 244.345 95.296C243.716 95.296 243.215 95.5147 242.841 95.952C242.468 96.3893 242.281 97.056 242.281 97.952C242.281 98.848 242.468 99.52 242.841 99.968C243.215 100.405 243.716 100.624 244.345 100.624ZM243.385 105.264V103.408H245.337V105.264H243.385ZM241.721 93.136L243.481 89.888H245.241L247.001 93.136H245.737L244.361 91.024L242.985 93.136H241.721ZM250.166 102V95.936C250.166 95.6053 250.155 95.2693 250.134 94.928C250.113 94.5867 250.081 94.2507 250.038 93.92H251.974L252.134 95.52H251.942C252.198 94.9547 252.577 94.5227 253.078 94.224C253.579 93.9147 254.161 93.76 254.822 93.76C255.771 93.76 256.486 94.0267 256.966 94.56C257.446 95.0933 257.686 95.9253 257.686 97.056V102H255.686V97.152C255.686 96.5013 255.558 96.0373 255.302 95.76C255.057 95.472 254.683 95.328 254.182 95.328C253.563 95.328 253.073 95.52 252.71 95.904C252.347 96.288 252.166 96.8 252.166 97.44V102H250.166ZM263.551 105.584C262.804 105.584 262.127 105.504 261.519 105.344C260.921 105.184 260.388 104.939 259.919 104.608L260.351 103.168C260.66 103.371 260.98 103.536 261.311 103.664C261.641 103.792 261.983 103.888 262.335 103.952C262.687 104.016 263.044 104.048 263.407 104.048C264.153 104.048 264.708 103.861 265.071 103.488C265.444 103.125 265.631 102.603 265.631 101.92V99.984H265.791C265.62 100.539 265.273 100.981 264.751 101.312C264.239 101.643 263.647 101.808 262.975 101.808C262.249 101.808 261.615 101.648 261.071 101.328C260.537 100.997 260.121 100.528 259.823 99.92C259.524 99.312 259.375 98.5973 259.375 97.776C259.375 96.9547 259.524 96.2453 259.823 95.648C260.121 95.04 260.537 94.576 261.071 94.256C261.615 93.9253 262.249 93.76 262.975 93.76C263.657 93.76 264.249 93.9253 264.751 94.256C265.263 94.576 265.604 95.0133 265.775 95.568L265.631 95.472L265.791 93.92H267.727C267.684 94.2507 267.652 94.5867 267.631 94.928C267.609 95.2693 267.599 95.6053 267.599 95.936V101.68C267.599 102.949 267.252 103.915 266.559 104.576C265.876 105.248 264.873 105.584 263.551 105.584ZM263.519 100.272C264.159 100.272 264.665 100.059 265.039 99.632C265.423 99.1947 265.615 98.576 265.615 97.776C265.615 96.976 265.423 96.3627 265.039 95.936C264.665 95.5093 264.159 95.296 263.519 95.296C262.868 95.296 262.351 95.5093 261.967 95.936C261.583 96.3627 261.391 96.976 261.391 97.776C261.391 98.576 261.583 99.1947 261.967 99.632C262.351 100.059 262.868 100.272 263.519 100.272Z" fill="black"/>
<defs>
<linearGradient id="paint0_linear_1_43" x1="32.9845" y1="32" x2="341.288" y2="32" gradientUnits="userSpaceOnUse">
<stop stop-color="#00CCFF"/>
<stop offset="1" stop-color="#FF00FF"/>
</linearGradient>
</defs>
</svg>
