<svg width="360" height="109" viewBox="0 0 360 109" fill="none" xmlns="http://www.w3.org/2000/svg">
<rect x="123.5" y="12.7883" width="113" height="40" rx="8" fill="url(#paint0_linear_8_262)"/>
<path d="M133.729 38.7883V37.0763H136.321V29.2363H137.313L133.985 31.2203V29.2683L136.913 27.5083H138.385V37.0763H140.817V38.7883H133.729ZM146.171 38.9483C145.392 38.9483 144.646 38.8363 143.931 38.6123C143.216 38.3777 142.63 38.0577 142.171 37.6523L142.843 36.1003C143.344 36.4843 143.862 36.767 144.395 36.9483C144.939 37.1297 145.51 37.2203 146.107 37.2203C146.832 37.2203 147.382 37.0763 147.755 36.7883C148.128 36.5003 148.315 36.079 148.315 35.5243C148.315 34.991 148.128 34.591 147.755 34.3243C147.392 34.047 146.859 33.9083 146.155 33.9083H144.331V32.2603H145.979C146.587 32.2603 147.072 32.111 147.435 31.8123C147.798 31.5137 147.979 31.103 147.979 30.5803C147.979 30.0897 147.808 29.7163 147.467 29.4603C147.136 29.2043 146.656 29.0763 146.027 29.0763C144.896 29.0763 143.899 29.4603 143.035 30.2283L142.363 28.6923C142.822 28.2657 143.387 27.935 144.059 27.7003C144.742 27.4657 145.456 27.3483 146.203 27.3483C147.376 27.3483 148.294 27.615 148.955 28.1483C149.627 28.671 149.963 29.4017 149.963 30.3403C149.963 31.0123 149.771 31.5937 149.387 32.0843C149.014 32.5643 148.496 32.8843 147.835 33.0443V32.8523C148.614 32.9803 149.216 33.3003 149.643 33.8123C150.08 34.3137 150.299 34.943 150.299 35.7003C150.299 36.703 149.931 37.4977 149.195 38.0843C148.459 38.6603 147.451 38.9483 146.171 38.9483ZM152.005 32.9163V30.7083H154.245V32.9163H152.005ZM152.005 38.7883V36.5643H154.245V38.7883H152.005ZM159.733 38.9483C158.955 38.9483 158.208 38.8363 157.493 38.6123C156.779 38.3777 156.192 38.0577 155.733 37.6523L156.405 36.1003C156.907 36.4843 157.424 36.767 157.957 36.9483C158.501 37.1297 159.072 37.2203 159.669 37.2203C160.395 37.2203 160.944 37.0763 161.317 36.7883C161.691 36.5003 161.877 36.079 161.877 35.5243C161.877 34.991 161.691 34.591 161.317 34.3243C160.955 34.047 160.421 33.9083 159.717 33.9083H157.893V32.2603H159.541C160.149 32.2603 160.635 32.111 160.997 31.8123C161.36 31.5137 161.541 31.103 161.541 30.5803C161.541 30.0897 161.371 29.7163 161.029 29.4603C160.699 29.2043 160.219 29.0763 159.589 29.0763C158.459 29.0763 157.461 29.4603 156.597 30.2283L155.925 28.6923C156.384 28.2657 156.949 27.935 157.621 27.7003C158.304 27.4657 159.019 27.3483 159.765 27.3483C160.939 27.3483 161.856 27.615 162.517 28.1483C163.189 28.671 163.525 29.4017 163.525 30.3403C163.525 31.0123 163.333 31.5937 162.949 32.0843C162.576 32.5643 162.059 32.8843 161.397 33.0443V32.8523C162.176 32.9803 162.779 33.3003 163.205 33.8123C163.643 34.3137 163.861 34.943 163.861 35.7003C163.861 36.703 163.493 37.4977 162.757 38.0843C162.021 38.6603 161.013 38.9483 159.733 38.9483ZM169.503 38.9483C168.18 38.9483 167.162 38.447 166.447 37.4443C165.732 36.431 165.375 34.991 165.375 33.1243C165.375 31.2363 165.732 29.8017 166.447 28.8203C167.162 27.839 168.18 27.3483 169.503 27.3483C170.836 27.3483 171.855 27.839 172.559 28.8203C173.274 29.8017 173.631 31.231 173.631 33.1083C173.631 34.9857 173.274 36.431 172.559 37.4443C171.855 38.447 170.836 38.9483 169.503 38.9483ZM169.503 37.2523C170.228 37.2523 170.767 36.9217 171.119 36.2603C171.471 35.5883 171.647 34.5377 171.647 33.1083C171.647 31.679 171.471 30.6443 171.119 30.0043C170.767 29.3537 170.228 29.0283 169.503 29.0283C168.788 29.0283 168.25 29.3537 167.887 30.0043C167.535 30.6443 167.359 31.679 167.359 33.1083C167.359 34.5377 167.535 35.5883 167.887 36.2603C168.25 36.9217 168.788 37.2523 169.503 37.2523ZM175.369 35.1723V33.5883H180.233V35.1723H175.369ZM187.479 38.7883V37.0763H190.071V29.2363H191.063L187.735 31.2203V29.2683L190.663 27.5083H192.135V37.0763H194.567V38.7883H187.479ZM200.993 38.7883V36.5803H195.953V35.1403L201.313 27.5083H202.977V35.0123H204.593V36.5803H202.977V38.7883H200.993ZM200.993 35.0123V29.9403H201.377L197.489 35.4923V35.0123H200.993ZM205.755 32.9163V30.7083H207.995V32.9163H205.755ZM205.755 38.7883V36.5643H207.995V38.7883H205.755ZM210.635 38.7883V37.0763H213.227V29.2363H214.219L210.891 31.2203V29.2683L213.819 27.5083H215.291V37.0763H217.723V38.7883H210.635ZM223.333 38.9483C222.842 38.9483 222.352 38.895 221.861 38.7883C221.381 38.6817 220.928 38.5323 220.501 38.3403C220.085 38.1483 219.728 37.919 219.429 37.6523L220.101 36.1003C220.602 36.4737 221.114 36.7563 221.637 36.9483C222.17 37.1297 222.725 37.2203 223.301 37.2203C223.994 37.2203 224.533 37.0497 224.917 36.7083C225.312 36.3563 225.509 35.887 225.509 35.3003C225.509 34.703 225.322 34.223 224.949 33.8603C224.576 33.487 224.064 33.3003 223.413 33.3003C222.954 33.3003 222.533 33.391 222.149 33.5723C221.776 33.743 221.44 34.0097 221.141 34.3723H219.781V27.5083H226.789V29.2043H221.733V32.7883H221.237C221.514 32.415 221.882 32.127 222.341 31.9243C222.81 31.7217 223.333 31.6203 223.909 31.6203C224.634 31.6203 225.264 31.7697 225.797 32.0683C226.33 32.367 226.746 32.7883 227.045 33.3323C227.344 33.8657 227.493 34.495 227.493 35.2203C227.493 35.9563 227.322 36.607 226.981 37.1723C226.65 37.727 226.17 38.1643 225.541 38.4843C224.922 38.7937 224.186 38.9483 223.333 38.9483Z" fill="white"/>
<path d="M110.591 71.1403C110.591 69.9563 110.804 68.9323 111.231 68.0683C111.668 67.2043 112.292 66.5377 113.103 66.0683C113.914 65.5883 114.879 65.3483 115.999 65.3483C117.108 65.3483 118.068 65.5883 118.879 66.0683C119.69 66.5377 120.314 67.2043 120.751 68.0683C121.199 68.9323 121.423 69.951 121.423 71.1243C121.423 72.3083 121.199 73.3377 120.751 74.2123C120.314 75.0763 119.69 75.7483 118.879 76.2283C118.068 76.7083 117.108 76.9483 115.999 76.9483C114.879 76.9483 113.914 76.7083 113.103 76.2283C112.303 75.7483 111.684 75.0763 111.247 74.2123C110.81 73.3377 110.591 72.3137 110.591 71.1403ZM112.751 71.1403C112.751 72.4097 113.023 73.4017 113.567 74.1163C114.111 74.831 114.922 75.1883 115.999 75.1883C117.044 75.1883 117.85 74.831 118.415 74.1163C118.98 73.4017 119.263 72.4097 119.263 71.1403C119.263 69.8603 118.98 68.8683 118.415 68.1643C117.86 67.4603 117.055 67.1083 115.999 67.1083C114.922 67.1083 114.111 67.4603 113.567 68.1643C113.023 68.8683 112.751 69.8603 112.751 71.1403ZM123.393 80.2443V70.7243C123.393 70.3937 123.382 70.0577 123.361 69.7163C123.339 69.375 123.307 69.039 123.265 68.7083H125.201L125.377 70.4043H125.201C125.361 69.839 125.697 69.391 126.209 69.0603C126.731 68.719 127.334 68.5483 128.017 68.5483C128.731 68.5483 129.355 68.719 129.889 69.0603C130.422 69.391 130.838 69.871 131.137 70.5003C131.435 71.119 131.585 71.8657 131.585 72.7403C131.585 73.615 131.435 74.367 131.137 74.9963C130.838 75.6257 130.422 76.111 129.889 76.4523C129.355 76.783 128.731 76.9483 128.017 76.9483C127.345 76.9483 126.753 76.783 126.241 76.4523C125.729 76.1217 125.387 75.679 125.217 75.1243H125.393V80.2443H123.393ZM127.457 75.4123C128.097 75.4123 128.609 75.1937 128.993 74.7563C129.377 74.3083 129.569 73.6363 129.569 72.7403C129.569 71.8443 129.377 71.1777 128.993 70.7403C128.609 70.303 128.097 70.0843 127.457 70.0843C126.827 70.0843 126.321 70.303 125.937 70.7403C125.553 71.1777 125.361 71.8443 125.361 72.7403C125.361 73.6363 125.553 74.3083 125.937 74.7563C126.321 75.1937 126.827 75.4123 127.457 75.4123ZM137.219 76.9483C135.864 76.9483 134.803 76.575 134.035 75.8283C133.267 75.0817 132.883 74.0577 132.883 72.7563C132.883 71.9137 133.048 71.1777 133.379 70.5483C133.709 69.919 134.168 69.4283 134.755 69.0763C135.352 68.7243 136.045 68.5483 136.835 68.5483C137.613 68.5483 138.264 68.7137 138.787 69.0443C139.309 69.375 139.704 69.839 139.971 70.4363C140.248 71.0337 140.387 71.7323 140.387 72.5323V73.0603H134.499V72.0043H138.963L138.691 72.2283C138.691 71.4817 138.531 70.911 138.211 70.5163C137.901 70.1217 137.448 69.9243 136.851 69.9243C136.189 69.9243 135.677 70.159 135.315 70.6283C134.963 71.0977 134.787 71.7537 134.787 72.5963V72.8043C134.787 73.679 135 74.335 135.427 74.7723C135.864 75.199 136.477 75.4123 137.267 75.4123C137.725 75.4123 138.152 75.3537 138.547 75.2363C138.952 75.1083 139.336 74.9057 139.699 74.6283L140.291 75.9723C139.907 76.2817 139.448 76.5217 138.915 76.6923C138.381 76.863 137.816 76.9483 137.219 76.9483ZM142.08 76.7883V70.7243C142.08 70.3937 142.07 70.0577 142.048 69.7163C142.027 69.375 141.995 69.039 141.952 68.7083H143.888L144.048 70.3083H143.856C144.112 69.743 144.491 69.311 144.992 69.0123C145.494 68.703 146.075 68.5483 146.736 68.5483C147.686 68.5483 148.4 68.815 148.88 69.3483C149.36 69.8817 149.6 70.7137 149.6 71.8443V76.7883H147.6V71.9403C147.6 71.2897 147.472 70.8257 147.216 70.5483C146.971 70.2603 146.598 70.1163 146.096 70.1163C145.478 70.1163 144.987 70.3083 144.624 70.6923C144.262 71.0763 144.08 71.5883 144.08 72.2283V76.7883H142.08ZM151.721 76.7883V68.7083H153.721V76.7883H151.721ZM151.609 67.1883V65.2363H153.833V67.1883H151.609ZM155.893 76.7883V70.7243C155.893 70.3937 155.882 70.0577 155.861 69.7163C155.839 69.375 155.807 69.039 155.765 68.7083H157.701L157.861 70.3083H157.669C157.925 69.743 158.303 69.311 158.805 69.0123C159.306 68.703 159.887 68.5483 160.549 68.5483C161.498 68.5483 162.213 68.815 162.693 69.3483C163.173 69.8817 163.413 70.7137 163.413 71.8443V76.7883H161.413V71.9403C161.413 71.2897 161.285 70.8257 161.029 70.5483C160.783 70.2603 160.41 70.1163 159.909 70.1163C159.29 70.1163 158.799 70.3083 158.437 70.6923C158.074 71.0763 157.893 71.5883 157.893 72.2283V76.7883H155.893ZM169.277 80.3723C168.531 80.3723 167.853 80.2923 167.245 80.1323C166.648 79.9723 166.115 79.727 165.645 79.3963L166.077 77.9563C166.387 78.159 166.707 78.3243 167.037 78.4523C167.368 78.5803 167.709 78.6763 168.061 78.7403C168.413 78.8043 168.771 78.8363 169.133 78.8363C169.88 78.8363 170.435 78.6497 170.797 78.2763C171.171 77.9137 171.357 77.391 171.357 76.7083V74.7723H171.517C171.347 75.327 171 75.7697 170.477 76.1003C169.965 76.431 169.373 76.5963 168.701 76.5963C167.976 76.5963 167.341 76.4363 166.797 76.1163C166.264 75.7857 165.848 75.3163 165.549 74.7083C165.251 74.1003 165.101 73.3857 165.101 72.5643C165.101 71.743 165.251 71.0337 165.549 70.4363C165.848 69.8283 166.264 69.3643 166.797 69.0443C167.341 68.7137 167.976 68.5483 168.701 68.5483C169.384 68.5483 169.976 68.7137 170.477 69.0443C170.989 69.3643 171.331 69.8017 171.501 70.3563L171.357 70.2603L171.517 68.7083H173.453C173.411 69.039 173.379 69.375 173.357 69.7163C173.336 70.0577 173.325 70.3937 173.325 70.7243V76.4683C173.325 77.7377 172.979 78.703 172.285 79.3643C171.603 80.0363 170.6 80.3723 169.277 80.3723ZM169.245 75.0603C169.885 75.0603 170.392 74.847 170.765 74.4203C171.149 73.983 171.341 73.3643 171.341 72.5643C171.341 71.7643 171.149 71.151 170.765 70.7243C170.392 70.2977 169.885 70.0843 169.245 70.0843C168.595 70.0843 168.077 70.2977 167.693 70.7243C167.309 71.151 167.117 71.7643 167.117 72.5643C167.117 73.3643 167.309 73.983 167.693 74.4203C168.077 74.847 168.595 75.0603 169.245 75.0603ZM182.757 76.9483C182.064 76.9483 181.424 76.8683 180.837 76.7083C180.261 76.5377 179.776 76.303 179.381 76.0043L179.941 74.6603C180.346 74.9377 180.794 75.151 181.285 75.3003C181.776 75.4497 182.272 75.5243 182.773 75.5243C183.306 75.5243 183.701 75.4337 183.957 75.2523C184.224 75.071 184.357 74.8257 184.357 74.5163C184.357 74.271 184.272 74.079 184.101 73.9403C183.941 73.791 183.68 73.679 183.317 73.6043L181.717 73.3003C181.034 73.151 180.512 72.895 180.149 72.5323C179.797 72.1697 179.621 71.695 179.621 71.1083C179.621 70.607 179.754 70.1643 180.021 69.7803C180.298 69.3963 180.688 69.0977 181.189 68.8843C181.701 68.6603 182.298 68.5483 182.981 68.5483C183.578 68.5483 184.138 68.6283 184.661 68.7883C185.194 68.9483 185.642 69.1883 186.005 69.5083L185.429 70.8043C185.098 70.5377 184.72 70.3297 184.293 70.1803C183.866 70.031 183.45 69.9563 183.045 69.9563C182.49 69.9563 182.085 70.0577 181.829 70.2603C181.573 70.4523 181.445 70.703 181.445 71.0123C181.445 71.247 181.52 71.4443 181.669 71.6043C181.829 71.7537 182.074 71.8657 182.405 71.9403L184.005 72.2443C184.72 72.383 185.258 72.6283 185.621 72.9803C185.994 73.3217 186.181 73.791 186.181 74.3883C186.181 74.9217 186.037 75.3803 185.749 75.7643C185.461 76.1483 185.061 76.4417 184.549 76.6443C184.037 76.847 183.44 76.9483 182.757 76.9483ZM191.797 76.9483C190.442 76.9483 189.381 76.575 188.613 75.8283C187.845 75.0817 187.461 74.0577 187.461 72.7563C187.461 71.9137 187.626 71.1777 187.957 70.5483C188.287 69.919 188.746 69.4283 189.333 69.0763C189.93 68.7243 190.623 68.5483 191.413 68.5483C192.191 68.5483 192.842 68.7137 193.365 69.0443C193.887 69.375 194.282 69.839 194.549 70.4363C194.826 71.0337 194.965 71.7323 194.965 72.5323V73.0603H189.077V72.0043H193.541L193.269 72.2283C193.269 71.4817 193.109 70.911 192.789 70.5163C192.479 70.1217 192.026 69.9243 191.429 69.9243C190.767 69.9243 190.255 70.159 189.893 70.6283C189.541 71.0977 189.365 71.7537 189.365 72.5963V72.8043C189.365 73.679 189.578 74.335 190.005 74.7723C190.442 75.199 191.055 75.4123 191.845 75.4123C192.303 75.4123 192.73 75.3537 193.125 75.2363C193.53 75.1083 193.914 74.9057 194.277 74.6283L194.869 75.9723C194.485 76.2817 194.026 76.5217 193.493 76.6923C192.959 76.863 192.394 76.9483 191.797 76.9483ZM199.538 76.9483C198.845 76.9483 198.205 76.8683 197.618 76.7083C197.042 76.5377 196.557 76.303 196.162 76.0043L196.722 74.6603C197.128 74.9377 197.576 75.151 198.066 75.3003C198.557 75.4497 199.053 75.5243 199.554 75.5243C200.088 75.5243 200.482 75.4337 200.738 75.2523C201.005 75.071 201.138 74.8257 201.138 74.5163C201.138 74.271 201.053 74.079 200.882 73.9403C200.722 73.791 200.461 73.679 200.098 73.6043L198.498 73.3003C197.816 73.151 197.293 72.895 196.93 72.5323C196.578 72.1697 196.402 71.695 196.402 71.1083C196.402 70.607 196.536 70.1643 196.802 69.7803C197.08 69.3963 197.469 69.0977 197.97 68.8843C198.482 68.6603 199.08 68.5483 199.762 68.5483C200.36 68.5483 200.92 68.6283 201.442 68.7883C201.976 68.9483 202.424 69.1883 202.786 69.5083L202.21 70.8043C201.88 70.5377 201.501 70.3297 201.074 70.1803C200.648 70.031 200.232 69.9563 199.826 69.9563C199.272 69.9563 198.866 70.0577 198.61 70.2603C198.354 70.4523 198.226 70.703 198.226 71.0123C198.226 71.247 198.301 71.4443 198.45 71.6043C198.61 71.7537 198.856 71.8657 199.186 71.9403L200.786 72.2443C201.501 72.383 202.04 72.6283 202.402 72.9803C202.776 73.3217 202.962 73.791 202.962 74.3883C202.962 74.9217 202.818 75.3803 202.53 75.7643C202.242 76.1483 201.842 76.4417 201.33 76.6443C200.818 76.847 200.221 76.9483 199.538 76.9483ZM207.554 76.9483C206.861 76.9483 206.221 76.8683 205.634 76.7083C205.058 76.5377 204.573 76.303 204.178 76.0043L204.738 74.6603C205.143 74.9377 205.591 75.151 206.082 75.3003C206.573 75.4497 207.069 75.5243 207.57 75.5243C208.103 75.5243 208.498 75.4337 208.754 75.2523C209.021 75.071 209.154 74.8257 209.154 74.5163C209.154 74.271 209.069 74.079 208.898 73.9403C208.738 73.791 208.477 73.679 208.114 73.6043L206.514 73.3003C205.831 73.151 205.309 72.895 204.946 72.5323C204.594 72.1697 204.418 71.695 204.418 71.1083C204.418 70.607 204.551 70.1643 204.818 69.7803C205.095 69.3963 205.485 69.0977 205.986 68.8843C206.498 68.6603 207.095 68.5483 207.778 68.5483C208.375 68.5483 208.935 68.6283 209.458 68.7883C209.991 68.9483 210.439 69.1883 210.802 69.5083L210.226 70.8043C209.895 70.5377 209.517 70.3297 209.09 70.1803C208.663 70.031 208.247 69.9563 207.842 69.9563C207.287 69.9563 206.882 70.0577 206.626 70.2603C206.37 70.4523 206.242 70.703 206.242 71.0123C206.242 71.247 206.317 71.4443 206.466 71.6043C206.626 71.7537 206.871 71.8657 207.202 71.9403L208.802 72.2443C209.517 72.383 210.055 72.6283 210.418 72.9803C210.791 73.3217 210.978 73.791 210.978 74.3883C210.978 74.9217 210.834 75.3803 210.546 75.7643C210.258 76.1483 209.858 76.4417 209.346 76.6443C208.834 76.847 208.237 76.9483 207.554 76.9483ZM212.69 76.7883V68.7083H214.69V76.7883H212.69ZM212.578 67.1883V65.2363H214.802V67.1883H212.578ZM220.509 76.9483C219.677 76.9483 218.957 76.7777 218.349 76.4363C217.741 76.095 217.267 75.6097 216.925 74.9803C216.595 74.351 216.429 73.6043 216.429 72.7403C216.429 71.8763 216.595 71.135 216.925 70.5163C217.267 69.887 217.741 69.4017 218.349 69.0603C218.957 68.719 219.677 68.5483 220.509 68.5483C221.341 68.5483 222.061 68.719 222.669 69.0603C223.288 69.4017 223.763 69.887 224.093 70.5163C224.435 71.135 224.605 71.8763 224.605 72.7403C224.605 73.6043 224.435 74.351 224.093 74.9803C223.763 75.6097 223.288 76.095 222.669 76.4363C222.061 76.7777 221.341 76.9483 220.509 76.9483ZM220.509 75.4123C221.139 75.4123 221.64 75.1937 222.013 74.7563C222.387 74.3083 222.573 73.6363 222.573 72.7403C222.573 71.8443 222.387 71.1777 222.013 70.7403C221.64 70.303 221.139 70.0843 220.509 70.0843C219.88 70.0843 219.379 70.303 219.005 70.7403C218.632 71.1777 218.445 71.8443 218.445 72.7403C218.445 73.6363 218.632 74.3083 219.005 74.7563C219.379 75.1937 219.88 75.4123 220.509 75.4123ZM226.33 76.7883V70.7243C226.33 70.3937 226.32 70.0577 226.298 69.7163C226.277 69.375 226.245 69.039 226.202 68.7083H228.138L228.298 70.3083H228.106C228.362 69.743 228.741 69.311 229.242 69.0123C229.744 68.703 230.325 68.5483 230.986 68.5483C231.936 68.5483 232.65 68.815 233.13 69.3483C233.61 69.8817 233.85 70.7137 233.85 71.8443V76.7883H231.85V71.9403C231.85 71.2897 231.722 70.8257 231.466 70.5483C231.221 70.2603 230.848 70.1163 230.346 70.1163C229.728 70.1163 229.237 70.3083 228.874 70.6923C228.512 71.0763 228.33 71.5883 228.33 72.2283V76.7883H226.33ZM249.801 76.9483C249.311 76.7777 248.841 76.5483 248.393 76.2603C247.945 75.9617 247.54 75.647 247.177 75.3163L247.609 75.3323C247.119 75.8337 246.548 76.2283 245.897 76.5163C245.247 76.8043 244.553 76.9483 243.817 76.9483C242.996 76.9483 242.287 76.8203 241.689 76.5643C241.092 76.3083 240.633 75.9563 240.313 75.5083C239.993 75.0497 239.833 74.5163 239.833 73.9083C239.833 73.183 240.047 72.5643 240.473 72.0523C240.9 71.5403 241.487 71.0603 242.233 70.6123L242.777 70.3083L242.473 70.6763C242.015 70.2177 241.673 69.775 241.449 69.3483C241.225 68.9217 241.113 68.479 241.113 68.0203C241.113 67.487 241.241 67.023 241.497 66.6283C241.764 66.223 242.132 65.9083 242.601 65.6843C243.081 65.4603 243.641 65.3483 244.281 65.3483C245.113 65.3483 245.791 65.5723 246.313 66.0203C246.836 66.4577 247.097 67.055 247.097 67.8123C247.097 68.2177 247.017 68.5963 246.857 68.9483C246.697 69.3003 246.436 69.6363 246.073 69.9563C245.721 70.2763 245.257 70.5963 244.681 70.9163L244.729 70.5163L247.529 73.4123H247.113C247.391 72.975 247.604 72.463 247.753 71.8763C247.903 71.2897 247.993 70.671 248.025 70.0203H249.705C249.673 70.895 249.535 71.7217 249.289 72.5003C249.044 73.279 248.713 73.967 248.297 74.5643L248.281 74.0843C248.569 74.383 248.9 74.655 249.273 74.9003C249.647 75.1457 250.052 75.3483 250.489 75.5083L249.801 76.9483ZM243.929 75.3963C244.463 75.3963 244.937 75.295 245.353 75.0923C245.78 74.8897 246.159 74.591 246.489 74.1963L246.441 74.6763L243.081 71.2683L243.897 71.2843L243.433 71.5403C243.071 71.7643 242.767 71.9883 242.521 72.2123C242.287 72.4363 242.111 72.6763 241.993 72.9323C241.876 73.1777 241.817 73.4603 241.817 73.7803C241.817 74.2817 241.999 74.6763 242.361 74.9643C242.724 75.2523 243.247 75.3963 243.929 75.3963ZM244.281 66.7083C243.876 66.7083 243.551 66.8257 243.305 67.0603C243.06 67.295 242.937 67.6043 242.937 67.9883C242.937 68.191 242.975 68.383 243.049 68.5643C243.124 68.7457 243.247 68.943 243.417 69.1563C243.588 69.359 243.812 69.6097 244.089 69.9083L243.609 69.9403C244.271 69.5777 244.751 69.247 245.049 68.9483C245.359 68.639 245.513 68.287 245.513 67.8923C245.513 67.519 245.401 67.231 245.177 67.0283C244.953 66.815 244.655 66.7083 244.281 66.7083ZM107.357 96.7883V87.2043H103.629V85.5083H113.149V87.2043H109.421V96.7883H107.357ZM113.194 100.42L112.73 98.8363C113.231 98.7297 113.652 98.607 113.994 98.4683C114.335 98.3297 114.618 98.1483 114.842 97.9243C115.066 97.7003 115.252 97.4123 115.402 97.0603L115.802 96.1163L115.754 96.9003L112.234 88.7083H114.362L116.89 95.0123H116.426L118.97 88.7083H120.986L117.306 97.2363C117.06 97.8123 116.794 98.287 116.506 98.6603C116.218 99.0443 115.908 99.3483 115.578 99.5723C115.247 99.807 114.884 99.9883 114.49 100.116C114.095 100.244 113.663 100.346 113.194 100.42ZM122.041 100.244V90.7243C122.041 90.3937 122.03 90.0577 122.009 89.7163C121.988 89.375 121.956 89.039 121.913 88.7083H123.849L124.025 90.4043H123.849C124.009 89.839 124.345 89.391 124.857 89.0603C125.38 88.719 125.982 88.5483 126.665 88.5483C127.38 88.5483 128.004 88.719 128.537 89.0603C129.07 89.391 129.486 89.871 129.785 90.5003C130.084 91.119 130.233 91.8657 130.233 92.7403C130.233 93.615 130.084 94.367 129.785 94.9963C129.486 95.6257 129.07 96.111 128.537 96.4523C128.004 96.783 127.38 96.9483 126.665 96.9483C125.993 96.9483 125.401 96.783 124.889 96.4523C124.377 96.1217 124.036 95.679 123.865 95.1243H124.041V100.244H122.041ZM126.105 95.4123C126.745 95.4123 127.257 95.1937 127.641 94.7563C128.025 94.3083 128.217 93.6363 128.217 92.7403C128.217 91.8443 128.025 91.1777 127.641 90.7403C127.257 90.303 126.745 90.0843 126.105 90.0843C125.476 90.0843 124.969 90.303 124.585 90.7403C124.201 91.1777 124.009 91.8443 124.009 92.7403C124.009 93.6363 124.201 94.3083 124.585 94.7563C124.969 95.1937 125.476 95.4123 126.105 95.4123ZM131.963 96.7883V88.7083H133.963V96.7883H131.963ZM131.851 87.1883V85.2363H134.075V87.1883H131.851ZM139.847 96.9483C139.015 96.9483 138.284 96.7777 137.655 96.4363C137.036 96.095 136.556 95.6097 136.215 94.9803C135.874 94.3403 135.703 93.583 135.703 92.7083C135.703 91.8337 135.874 91.087 136.215 90.4683C136.567 89.8497 137.052 89.375 137.671 89.0443C138.29 88.7137 139.015 88.5483 139.847 88.5483C140.38 88.5483 140.898 88.6337 141.399 88.8043C141.911 88.9643 142.327 89.199 142.647 89.5083L142.039 90.9003C141.751 90.6337 141.426 90.4363 141.063 90.3083C140.711 90.1697 140.364 90.1003 140.023 90.1003C139.308 90.1003 138.748 90.3243 138.343 90.7723C137.948 91.2203 137.751 91.871 137.751 92.7243C137.751 93.5777 137.948 94.2337 138.343 94.6923C138.748 95.151 139.308 95.3803 140.023 95.3803C140.354 95.3803 140.695 95.3163 141.047 95.1883C141.41 95.0603 141.74 94.863 142.039 94.5963L142.647 95.9723C142.316 96.2817 141.895 96.5217 141.383 96.6923C140.882 96.863 140.37 96.9483 139.847 96.9483ZM147.271 96.9483C146.567 96.9483 145.948 96.783 145.414 96.4523C144.881 96.111 144.465 95.6257 144.167 94.9963C143.868 94.367 143.719 93.615 143.719 92.7403C143.719 91.8657 143.868 91.119 144.167 90.5003C144.465 89.871 144.881 89.391 145.414 89.0603C145.948 88.719 146.567 88.5483 147.271 88.5483C147.953 88.5483 148.551 88.719 149.063 89.0603C149.585 89.391 149.932 89.839 150.103 90.4043H149.927L150.103 88.7083H152.023C151.991 89.039 151.959 89.375 151.927 89.7163C151.905 90.0577 151.895 90.3937 151.895 90.7243V96.7883H149.911L149.895 95.1243H150.087C149.916 95.679 149.569 96.1217 149.047 96.4523C148.524 96.783 147.932 96.9483 147.271 96.9483ZM147.831 95.4123C148.46 95.4123 148.967 95.1937 149.351 94.7563C149.735 94.3083 149.927 93.6363 149.927 92.7403C149.927 91.8443 149.735 91.1777 149.351 90.7403C148.967 90.303 148.46 90.0843 147.831 90.0843C147.201 90.0843 146.695 90.303 146.311 90.7403C145.927 91.1777 145.735 91.8443 145.735 92.7403C145.735 93.6363 145.921 94.3083 146.295 94.7563C146.679 95.1937 147.191 95.4123 147.831 95.4123ZM154.072 96.7883V85.0123H156.072V96.7883H154.072ZM165.771 96.9483C165.067 96.9483 164.443 96.783 163.899 96.4523C163.366 96.111 162.95 95.6257 162.651 94.9963C162.352 94.367 162.203 93.615 162.203 92.7403C162.203 91.8657 162.352 91.119 162.651 90.5003C162.95 89.871 163.366 89.391 163.899 89.0603C164.443 88.719 165.067 88.5483 165.771 88.5483C166.443 88.5483 167.035 88.7137 167.547 89.0443C168.07 89.3643 168.416 89.8017 168.587 90.3563H168.379V85.0123H170.379V96.7883H168.411V95.0763H168.603C168.432 95.6523 168.086 96.111 167.563 96.4523C167.051 96.783 166.454 96.9483 165.771 96.9483ZM166.331 95.4123C166.96 95.4123 167.467 95.1937 167.851 94.7563C168.235 94.3083 168.427 93.6363 168.427 92.7403C168.427 91.8443 168.235 91.1777 167.851 90.7403C167.467 90.303 166.96 90.0843 166.331 90.0843C165.702 90.0843 165.19 90.303 164.795 90.7403C164.411 91.1777 164.219 91.8443 164.219 92.7403C164.219 93.6363 164.411 94.3083 164.795 94.7563C165.19 95.1937 165.702 95.4123 166.331 95.4123ZM176.461 96.9483C175.106 96.9483 174.045 96.575 173.277 95.8283C172.509 95.0817 172.125 94.0577 172.125 92.7563C172.125 91.9137 172.29 91.1777 172.621 90.5483C172.951 89.919 173.41 89.4283 173.997 89.0763C174.594 88.7243 175.287 88.5483 176.077 88.5483C176.855 88.5483 177.506 88.7137 178.029 89.0443C178.551 89.375 178.946 89.839 179.213 90.4363C179.49 91.0337 179.629 91.7323 179.629 92.5323V93.0603H173.741V92.0043H178.205L177.933 92.2283C177.933 91.4817 177.773 90.911 177.453 90.5163C177.143 90.1217 176.69 89.9243 176.093 89.9243C175.431 89.9243 174.919 90.159 174.557 90.6283C174.205 91.0977 174.029 91.7537 174.029 92.5963V92.8043C174.029 93.679 174.242 94.335 174.669 94.7723C175.106 95.199 175.719 95.4123 176.509 95.4123C176.967 95.4123 177.394 95.3537 177.789 95.2363C178.194 95.1083 178.578 94.9057 178.941 94.6283L179.533 95.9723C179.149 96.2817 178.69 96.5217 178.157 96.6923C177.623 96.863 177.058 96.9483 176.461 96.9483ZM184.442 96.9483C183.738 96.9483 183.12 96.783 182.586 96.4523C182.053 96.111 181.637 95.6257 181.338 94.9963C181.04 94.367 180.89 93.615 180.89 92.7403C180.89 91.8657 181.04 91.119 181.338 90.5003C181.637 89.871 182.053 89.391 182.586 89.0603C183.12 88.719 183.738 88.5483 184.442 88.5483C185.125 88.5483 185.722 88.719 186.234 89.0603C186.757 89.391 187.104 89.839 187.274 90.4043H187.098L187.274 88.7083H189.194C189.162 89.039 189.13 89.375 189.098 89.7163C189.077 90.0577 189.066 90.3937 189.066 90.7243V96.7883H187.082L187.066 95.1243H187.258C187.088 95.679 186.741 96.1217 186.218 96.4523C185.696 96.783 185.104 96.9483 184.442 96.9483ZM185.002 95.4123C185.632 95.4123 186.138 95.1937 186.522 94.7563C186.906 94.3083 187.098 93.6363 187.098 92.7403C187.098 91.8443 186.906 91.1777 186.522 90.7403C186.138 90.303 185.632 90.0843 185.002 90.0843C184.373 90.0843 183.866 90.303 183.482 90.7403C183.098 91.1777 182.906 91.8443 182.906 92.7403C182.906 93.6363 183.093 94.3083 183.466 94.7563C183.85 95.1937 184.362 95.4123 185.002 95.4123ZM191.244 96.7883V85.0123H193.244V96.7883H191.244ZM202.927 96.9483C202.223 96.9483 201.604 96.783 201.071 96.4523C200.537 96.111 200.121 95.6257 199.823 94.9963C199.524 94.367 199.375 93.615 199.375 92.7403C199.375 91.8657 199.524 91.119 199.823 90.5003C200.121 89.871 200.537 89.391 201.071 89.0603C201.604 88.719 202.223 88.5483 202.927 88.5483C203.609 88.5483 204.207 88.719 204.719 89.0603C205.241 89.391 205.588 89.839 205.759 90.4043H205.583L205.759 88.7083H207.679C207.647 89.039 207.615 89.375 207.583 89.7163C207.561 90.0577 207.551 90.3937 207.551 90.7243V96.7883H205.567L205.551 95.1243H205.743C205.572 95.679 205.225 96.1217 204.703 96.4523C204.18 96.783 203.588 96.9483 202.927 96.9483ZM203.487 95.4123C204.116 95.4123 204.623 95.1937 205.007 94.7563C205.391 94.3083 205.583 93.6363 205.583 92.7403C205.583 91.8443 205.391 91.1777 205.007 90.7403C204.623 90.303 204.116 90.0843 203.487 90.0843C202.857 90.0843 202.351 90.303 201.967 90.7403C201.583 91.1777 201.391 91.8443 201.391 92.7403C201.391 93.6363 201.577 94.3083 201.951 94.7563C202.335 95.1937 202.847 95.4123 203.487 95.4123ZM211.891 96.7883L208.739 88.7083H210.803L213.075 94.9963H212.659L214.963 88.7083H216.387L218.675 94.9963H218.307L220.563 88.7083H222.515L219.363 96.7883H217.602L215.187 90.3563H216.035L213.667 96.7883H211.891ZM226.739 96.9483C226.035 96.9483 225.417 96.783 224.883 96.4523C224.35 96.111 223.934 95.6257 223.635 94.9963C223.337 94.367 223.187 93.615 223.187 92.7403C223.187 91.8657 223.337 91.119 223.635 90.5003C223.934 89.871 224.35 89.391 224.883 89.0603C225.417 88.719 226.035 88.5483 226.739 88.5483C227.422 88.5483 228.019 88.719 228.531 89.0603C229.054 89.391 229.401 89.839 229.571 90.4043H229.395L229.571 88.7083H231.491C231.459 89.039 231.427 89.375 231.395 89.7163C231.374 90.0577 231.363 90.3937 231.363 90.7243V96.7883H229.379L229.363 95.1243H229.555C229.385 95.679 229.038 96.1217 228.515 96.4523C227.993 96.783 227.401 96.9483 226.739 96.9483ZM227.299 95.4123C227.929 95.4123 228.435 95.1937 228.819 94.7563C229.203 94.3083 229.395 93.6363 229.395 92.7403C229.395 91.8443 229.203 91.1777 228.819 90.7403C228.435 90.303 227.929 90.0843 227.299 90.0843C226.67 90.0843 226.163 90.303 225.779 90.7403C225.395 91.1777 225.203 91.8443 225.203 92.7403C225.203 93.6363 225.39 94.3083 225.763 94.7563C226.147 95.1937 226.659 95.4123 227.299 95.4123ZM233.525 96.7883V90.7723C233.525 90.431 233.514 90.0843 233.493 89.7323C233.482 89.3803 233.456 89.039 233.413 88.7083H235.349L235.573 90.9163H235.253C235.36 90.383 235.536 89.9403 235.781 89.5883C236.037 89.2363 236.346 88.975 236.709 88.8043C237.072 88.6337 237.466 88.5483 237.893 88.5483C238.085 88.5483 238.24 88.559 238.357 88.5803C238.474 88.591 238.592 88.6177 238.709 88.6603L238.693 90.4203C238.49 90.335 238.314 90.2817 238.165 90.2603C238.026 90.239 237.85 90.2283 237.637 90.2283C237.178 90.2283 236.789 90.3243 236.469 90.5163C236.16 90.7083 235.925 90.975 235.765 91.3163C235.616 91.6577 235.541 92.047 235.541 92.4843V96.7883H233.525ZM242.833 96.9483C242.129 96.9483 241.505 96.783 240.961 96.4523C240.428 96.111 240.012 95.6257 239.713 94.9963C239.415 94.367 239.265 93.615 239.265 92.7403C239.265 91.8657 239.415 91.119 239.713 90.5003C240.012 89.871 240.428 89.391 240.961 89.0603C241.505 88.719 242.129 88.5483 242.833 88.5483C243.505 88.5483 244.097 88.7137 244.609 89.0443C245.132 89.3643 245.479 89.8017 245.649 90.3563H245.441V85.0123H247.441V96.7883H245.473V95.0763H245.665C245.495 95.6523 245.148 96.111 244.625 96.4523C244.113 96.783 243.516 96.9483 242.833 96.9483ZM243.393 95.4123C244.023 95.4123 244.529 95.1937 244.913 94.7563C245.297 94.3083 245.489 93.6363 245.489 92.7403C245.489 91.8443 245.297 91.1777 244.913 90.7403C244.529 90.303 244.023 90.0843 243.393 90.0843C242.764 90.0843 242.252 90.303 241.857 90.7403C241.473 91.1777 241.281 91.8443 241.281 92.7403C241.281 93.6363 241.473 94.3083 241.857 94.7563C242.252 95.1937 242.764 95.4123 243.393 95.4123ZM252.499 96.9483C251.806 96.9483 251.166 96.8683 250.579 96.7083C250.003 96.5377 249.518 96.303 249.123 96.0043L249.683 94.6603C250.089 94.9377 250.537 95.151 251.027 95.3003C251.518 95.4497 252.014 95.5243 252.515 95.5243C253.049 95.5243 253.443 95.4337 253.699 95.2523C253.966 95.071 254.099 94.8257 254.099 94.5163C254.099 94.271 254.014 94.079 253.843 93.9403C253.683 93.791 253.422 93.679 253.059 93.6043L251.459 93.3003C250.777 93.151 250.254 92.895 249.891 92.5323C249.539 92.1697 249.363 91.695 249.363 91.1083C249.363 90.607 249.497 90.1643 249.763 89.7803C250.041 89.3963 250.43 89.0977 250.931 88.8843C251.443 88.6603 252.041 88.5483 252.723 88.5483C253.321 88.5483 253.881 88.6283 254.403 88.7883C254.937 88.9483 255.385 89.1883 255.747 89.5083L255.171 90.8043C254.841 90.5377 254.462 90.3297 254.035 90.1803C253.609 90.031 253.193 89.9563 252.787 89.9563C252.233 89.9563 251.827 90.0577 251.571 90.2603C251.315 90.4523 251.187 90.703 251.187 91.0123C251.187 91.247 251.262 91.4443 251.411 91.6043C251.571 91.7537 251.817 91.8657 252.147 91.9403L253.747 92.2443C254.462 92.383 255.001 92.6283 255.363 92.9803C255.737 93.3217 255.923 93.791 255.923 94.3883C255.923 94.9217 255.779 95.3803 255.491 95.7643C255.203 96.1483 254.803 96.4417 254.291 96.6443C253.779 96.847 253.182 96.9483 252.499 96.9483Z" fill="#1E1E1E"/>
<defs>
<linearGradient id="paint0_linear_8_262" x1="32.9845" y1="32.7883" x2="341.288" y2="32.7883" gradientUnits="userSpaceOnUse">
<stop stop-color="#00CCFF"/>
<stop offset="1" stop-color="#FF00FF"/>
</linearGradient>
</defs>
</svg>
