<svg width="360" height="117" viewBox="0 0 360 117" fill="none" xmlns="http://www.w3.org/2000/svg">
<rect x="123.5" y="12.7883" width="113" height="40" rx="8" fill="url(#paint0_linear_8_267)"/>
<path d="M133.729 39.2883V37.5763H136.321V29.7363H137.313L133.985 31.7203V29.7683L136.913 28.0083H138.385V37.5763H140.817V39.2883H133.729ZM147.243 39.2883V37.0803H142.203V35.6403L147.563 28.0083H149.227V35.5123H150.843V37.0803H149.227V39.2883H147.243ZM147.243 35.5123V30.4403H147.627L143.739 35.9923V35.5123H147.243ZM152.005 33.4163V31.2083H154.245V33.4163H152.005ZM152.005 39.2883V37.0643H154.245V39.2883H152.005ZM156.885 39.2883V37.5763H159.477V29.7363H160.469L157.141 31.7203V29.7683L160.069 28.0083H161.541V37.5763H163.973V39.2883H156.885ZM169.583 39.4483C169.092 39.4483 168.602 39.395 168.111 39.2883C167.631 39.1817 167.178 39.0323 166.751 38.8403C166.335 38.6483 165.978 38.419 165.679 38.1523L166.351 36.6003C166.852 36.9737 167.364 37.2563 167.887 37.4483C168.42 37.6297 168.975 37.7203 169.551 37.7203C170.244 37.7203 170.783 37.5497 171.167 37.2083C171.562 36.8563 171.759 36.387 171.759 35.8003C171.759 35.203 171.572 34.723 171.199 34.3603C170.826 33.987 170.314 33.8003 169.663 33.8003C169.204 33.8003 168.783 33.891 168.399 34.0723C168.026 34.243 167.69 34.5097 167.391 34.8723H166.031V28.0083H173.039V29.7043H167.983V33.2883H167.487C167.764 32.915 168.132 32.627 168.591 32.4243C169.06 32.2217 169.583 32.1203 170.159 32.1203C170.884 32.1203 171.514 32.2697 172.047 32.5683C172.58 32.867 172.996 33.2883 173.295 33.8323C173.594 34.3657 173.743 34.995 173.743 35.7203C173.743 36.4563 173.572 37.107 173.231 37.6723C172.9 38.227 172.42 38.6643 171.791 38.9843C171.172 39.2937 170.436 39.4483 169.583 39.4483ZM175.369 35.6723V34.0883H180.233V35.6723H175.369ZM187.479 39.2883V37.5763H190.071V29.7363H191.063L187.735 31.7203V29.7683L190.663 28.0083H192.135V37.5763H194.567V39.2883H187.479ZM200.177 39.4483C199.686 39.4483 199.196 39.395 198.705 39.2883C198.225 39.1817 197.772 39.0323 197.345 38.8403C196.929 38.6483 196.572 38.419 196.273 38.1523L196.945 36.6003C197.446 36.9737 197.958 37.2563 198.481 37.4483C199.014 37.6297 199.569 37.7203 200.145 37.7203C200.838 37.7203 201.377 37.5497 201.761 37.2083C202.156 36.8563 202.353 36.387 202.353 35.8003C202.353 35.203 202.166 34.723 201.793 34.3603C201.42 33.987 200.908 33.8003 200.257 33.8003C199.798 33.8003 199.377 33.891 198.993 34.0723C198.62 34.243 198.284 34.5097 197.985 34.8723H196.625V28.0083H203.633V29.7043H198.577V33.2883H198.081C198.358 32.915 198.726 32.627 199.185 32.4243C199.654 32.2217 200.177 32.1203 200.753 32.1203C201.478 32.1203 202.108 32.2697 202.641 32.5683C203.174 32.867 203.59 33.2883 203.889 33.8323C204.188 34.3657 204.337 34.995 204.337 35.7203C204.337 36.4563 204.166 37.107 203.825 37.6723C203.494 38.227 203.014 38.6643 202.385 38.9843C201.766 39.2937 201.03 39.4483 200.177 39.4483ZM205.755 33.4163V31.2083H207.995V33.4163H205.755ZM205.755 39.2883V37.0643H207.995V39.2883H205.755ZM214.555 39.2883V37.0803H209.515V35.6403L214.875 28.0083H216.539V35.5123H218.155V37.0803H216.539V39.2883H214.555ZM214.555 35.5123V30.4403H214.939L211.051 35.9923V35.5123H214.555ZM223.333 39.4483C222.842 39.4483 222.352 39.395 221.861 39.2883C221.381 39.1817 220.928 39.0323 220.501 38.8403C220.085 38.6483 219.728 38.419 219.429 38.1523L220.101 36.6003C220.602 36.9737 221.114 37.2563 221.637 37.4483C222.17 37.6297 222.725 37.7203 223.301 37.7203C223.994 37.7203 224.533 37.5497 224.917 37.2083C225.312 36.8563 225.509 36.387 225.509 35.8003C225.509 35.203 225.322 34.723 224.949 34.3603C224.576 33.987 224.064 33.8003 223.413 33.8003C222.954 33.8003 222.533 33.891 222.149 34.0723C221.776 34.243 221.44 34.5097 221.141 34.8723H219.781V28.0083H226.789V29.7043H221.733V33.2883H221.237C221.514 32.915 221.882 32.627 222.341 32.4243C222.81 32.2217 223.333 32.1203 223.909 32.1203C224.634 32.1203 225.264 32.2697 225.797 32.5683C226.33 32.867 226.746 33.2883 227.045 33.8323C227.344 34.3657 227.493 34.995 227.493 35.7203C227.493 36.4563 227.322 37.107 226.981 37.6723C226.65 38.227 226.17 38.6643 225.541 38.9843C224.922 39.2937 224.186 39.4483 223.333 39.4483Z" fill="white"/>
<path d="M64.0824 78.9483C63.1758 78.9483 62.3384 78.8363 61.5704 78.6123C60.8131 78.3777 60.1624 78.0577 59.6184 77.6523L60.2584 76.0363C60.6211 76.2923 60.9998 76.511 61.3944 76.6923C61.7891 76.863 62.2104 76.9963 62.6584 77.0923C63.1064 77.1777 63.5811 77.2203 64.0824 77.2203C64.9251 77.2203 65.5331 77.0817 65.9064 76.8043C66.2798 76.527 66.4664 76.1643 66.4664 75.7163C66.4664 75.3217 66.3384 75.023 66.0824 74.8203C65.8264 74.607 65.3678 74.431 64.7064 74.2923L62.8984 73.9243C61.8638 73.711 61.0904 73.3537 60.5784 72.8523C60.0664 72.351 59.8104 71.679 59.8104 70.8363C59.8104 70.1323 59.9971 69.519 60.3704 68.9963C60.7438 68.4737 61.2664 68.0683 61.9384 67.7803C62.6104 67.4923 63.3944 67.3483 64.2904 67.3483C65.0904 67.3483 65.8318 67.4657 66.5144 67.7003C67.1971 67.9243 67.7678 68.2497 68.2264 68.6763L67.5864 70.2123C67.1278 69.8283 66.6264 69.5457 66.0824 69.3643C65.5384 69.1723 64.9304 69.0763 64.2584 69.0763C63.5011 69.0763 62.9091 69.2257 62.4824 69.5243C62.0664 69.8123 61.8584 70.2123 61.8584 70.7243C61.8584 71.119 61.9864 71.4337 62.2424 71.6683C62.5091 71.903 62.9571 72.0843 63.5864 72.2123L65.3784 72.5643C66.4451 72.7777 67.2344 73.1297 67.7464 73.6203C68.2584 74.1003 68.5144 74.751 68.5144 75.5723C68.5144 76.2443 68.3331 76.8363 67.9704 77.3483C67.6078 77.8497 67.0958 78.2443 66.4344 78.5323C65.7731 78.8097 64.9891 78.9483 64.0824 78.9483ZM74.2029 78.9483C72.8483 78.9483 71.7869 78.575 71.0189 77.8283C70.2509 77.0817 69.8669 76.0577 69.8669 74.7563C69.8669 73.9137 70.0323 73.1777 70.3629 72.5483C70.6936 71.919 71.1523 71.4283 71.7389 71.0763C72.3363 70.7243 73.0296 70.5483 73.8189 70.5483C74.5976 70.5483 75.2483 70.7137 75.7709 71.0443C76.2936 71.375 76.6883 71.839 76.9549 72.4363C77.2323 73.0337 77.3709 73.7323 77.3709 74.5323V75.0603H71.4829V74.0043H75.9469L75.6749 74.2283C75.6749 73.4817 75.5149 72.911 75.1949 72.5163C74.8856 72.1217 74.4323 71.9243 73.8349 71.9243C73.1736 71.9243 72.6616 72.159 72.2989 72.6283C71.9469 73.0977 71.7709 73.7537 71.7709 74.5963V74.8043C71.7709 75.679 71.9843 76.335 72.4109 76.7723C72.8483 77.199 73.4616 77.4123 74.2509 77.4123C74.7096 77.4123 75.1363 77.3537 75.5309 77.2363C75.9363 77.1083 76.3203 76.9057 76.6829 76.6283L77.2749 77.9723C76.8909 78.2817 76.4323 78.5217 75.8989 78.6923C75.3656 78.863 74.8003 78.9483 74.2029 78.9483ZM81.9446 78.9483C81.2512 78.9483 80.6112 78.8683 80.0246 78.7083C79.4486 78.5377 78.9632 78.303 78.5686 78.0043L79.1286 76.6603C79.5339 76.9377 79.9819 77.151 80.4726 77.3003C80.9632 77.4497 81.4592 77.5243 81.9606 77.5243C82.4939 77.5243 82.8886 77.4337 83.1446 77.2523C83.4112 77.071 83.5446 76.8257 83.5446 76.5163C83.5446 76.271 83.4592 76.079 83.2886 75.9403C83.1286 75.791 82.8672 75.679 82.5046 75.6043L80.9046 75.3003C80.2219 75.151 79.6992 74.895 79.3366 74.5323C78.9846 74.1697 78.8086 73.695 78.8086 73.1083C78.8086 72.607 78.9419 72.1643 79.2086 71.7803C79.4859 71.3963 79.8752 71.0977 80.3766 70.8843C80.8886 70.6603 81.4859 70.5483 82.1686 70.5483C82.7659 70.5483 83.3259 70.6283 83.8486 70.7883C84.3819 70.9483 84.8299 71.1883 85.1926 71.5083L84.6166 72.8043C84.2859 72.5377 83.9072 72.3297 83.4806 72.1803C83.0539 72.031 82.6379 71.9563 82.2326 71.9563C81.6779 71.9563 81.2726 72.0577 81.0166 72.2603C80.7606 72.4523 80.6326 72.703 80.6326 73.0123C80.6326 73.247 80.7072 73.4443 80.8566 73.6043C81.0166 73.7537 81.2619 73.8657 81.5926 73.9403L83.1926 74.2443C83.9072 74.383 84.4459 74.6283 84.8086 74.9803C85.1819 75.3217 85.3686 75.791 85.3686 76.3883C85.3686 76.9217 85.2246 77.3803 84.9366 77.7643C84.6486 78.1483 84.2486 78.4417 83.7366 78.6443C83.2246 78.847 82.6272 78.9483 81.9446 78.9483ZM89.9602 78.9483C89.2669 78.9483 88.6269 78.8683 88.0402 78.7083C87.4642 78.5377 86.9789 78.303 86.5842 78.0043L87.1442 76.6603C87.5495 76.9377 87.9975 77.151 88.4882 77.3003C88.9789 77.4497 89.4749 77.5243 89.9762 77.5243C90.5095 77.5243 90.9042 77.4337 91.1602 77.2523C91.4269 77.071 91.5602 76.8257 91.5602 76.5163C91.5602 76.271 91.4749 76.079 91.3042 75.9403C91.1442 75.791 90.8829 75.679 90.5202 75.6043L88.9202 75.3003C88.2375 75.151 87.7149 74.895 87.3522 74.5323C87.0002 74.1697 86.8242 73.695 86.8242 73.1083C86.8242 72.607 86.9575 72.1643 87.2242 71.7803C87.5015 71.3963 87.8909 71.0977 88.3922 70.8843C88.9042 70.6603 89.5015 70.5483 90.1842 70.5483C90.7815 70.5483 91.3415 70.6283 91.8642 70.7883C92.3975 70.9483 92.8455 71.1883 93.2082 71.5083L92.6322 72.8043C92.3015 72.5377 91.9229 72.3297 91.4962 72.1803C91.0695 72.031 90.6535 71.9563 90.2482 71.9563C89.6935 71.9563 89.2882 72.0577 89.0322 72.2603C88.7762 72.4523 88.6482 72.703 88.6482 73.0123C88.6482 73.247 88.7229 73.4443 88.8722 73.6043C89.0322 73.7537 89.2775 73.8657 89.6082 73.9403L91.2082 74.2443C91.9229 74.383 92.4615 74.6283 92.8242 74.9803C93.1975 75.3217 93.3842 75.791 93.3842 76.3883C93.3842 76.9217 93.2402 77.3803 92.9522 77.7643C92.6642 78.1483 92.2642 78.4417 91.7522 78.6443C91.2402 78.847 90.6429 78.9483 89.9602 78.9483ZM95.0958 78.7883V70.7083H97.0958V78.7883H95.0958ZM94.9838 69.1883V67.2363H97.2078V69.1883H94.9838ZM102.916 78.9483C102.084 78.9483 101.364 78.7777 100.756 78.4363C100.148 78.095 99.673 77.6097 99.3317 76.9803C99.001 76.351 98.8357 75.6043 98.8357 74.7403C98.8357 73.8763 99.001 73.135 99.3317 72.5163C99.673 71.887 100.148 71.4017 100.756 71.0603C101.364 70.719 102.084 70.5483 102.916 70.5483C103.748 70.5483 104.468 70.719 105.076 71.0603C105.694 71.4017 106.169 71.887 106.5 72.5163C106.841 73.135 107.012 73.8763 107.012 74.7403C107.012 75.6043 106.841 76.351 106.5 76.9803C106.169 77.6097 105.694 78.095 105.076 78.4363C104.468 78.7777 103.748 78.9483 102.916 78.9483ZM102.916 77.4123C103.545 77.4123 104.046 77.1937 104.42 76.7563C104.793 76.3083 104.98 75.6363 104.98 74.7403C104.98 73.8443 104.793 73.1777 104.42 72.7403C104.046 72.303 103.545 72.0843 102.916 72.0843C102.286 72.0843 101.785 72.303 101.412 72.7403C101.038 73.1777 100.852 73.8443 100.852 74.7403C100.852 75.6363 101.038 76.3083 101.412 76.7563C101.785 77.1937 102.286 77.4123 102.916 77.4123ZM108.736 78.7883V72.7243C108.736 72.3937 108.726 72.0577 108.704 71.7163C108.683 71.375 108.651 71.039 108.608 70.7083H110.544L110.704 72.3083H110.512C110.768 71.743 111.147 71.311 111.648 71.0123C112.15 70.703 112.731 70.5483 113.392 70.5483C114.342 70.5483 115.056 70.815 115.536 71.3483C116.016 71.8817 116.256 72.7137 116.256 73.8443V78.7883H114.256V73.9403C114.256 73.2897 114.128 72.8257 113.872 72.5483C113.627 72.2603 113.254 72.1163 112.752 72.1163C112.134 72.1163 111.643 72.3083 111.28 72.6923C110.918 73.0763 110.736 73.5883 110.736 74.2283V78.7883H108.736ZM123.456 78.7883V77.0763H126.048V69.2363H127.04L123.712 71.2203V69.2683L126.64 67.5083H128.112V77.0763H130.544V78.7883H123.456ZM132.137 72.9163V70.7083H134.377V72.9163H132.137ZM132.137 78.7883V76.5643H134.377V78.7883H132.137ZM140.897 78.7883V67.5083H142.705L146.849 76.8363H146.353L150.497 67.5083H152.289V78.7883H150.417V70.4203H150.993L147.201 78.7883H145.969L142.177 70.4203H142.769V78.7883H140.897ZM164.083 78.9483C163.592 78.7777 163.123 78.5483 162.675 78.2603C162.227 77.9617 161.821 77.647 161.459 77.3163L161.891 77.3323C161.4 77.8337 160.829 78.2283 160.179 78.5163C159.528 78.8043 158.835 78.9483 158.099 78.9483C157.277 78.9483 156.568 78.8203 155.971 78.5643C155.373 78.3083 154.915 77.9563 154.595 77.5083C154.275 77.0497 154.115 76.5163 154.115 75.9083C154.115 75.183 154.328 74.5643 154.755 74.0523C155.181 73.5403 155.768 73.0603 156.515 72.6123L157.059 72.3083L156.755 72.6763C156.296 72.2177 155.955 71.775 155.731 71.3483C155.507 70.9217 155.395 70.479 155.395 70.0203C155.395 69.487 155.523 69.023 155.779 68.6283C156.045 68.223 156.413 67.9083 156.883 67.6843C157.363 67.4603 157.923 67.3483 158.563 67.3483C159.395 67.3483 160.072 67.5723 160.595 68.0203C161.117 68.4577 161.379 69.055 161.379 69.8123C161.379 70.2177 161.299 70.5963 161.139 70.9483C160.979 71.3003 160.717 71.6363 160.355 71.9563C160.003 72.2763 159.539 72.5963 158.963 72.9163L159.011 72.5163L161.811 75.4123H161.395C161.672 74.975 161.885 74.463 162.035 73.8763C162.184 73.2897 162.275 72.671 162.307 72.0203H163.987C163.955 72.895 163.816 73.7217 163.571 74.5003C163.325 75.279 162.995 75.967 162.579 76.5643L162.563 76.0843C162.851 76.383 163.181 76.655 163.555 76.9003C163.928 77.1457 164.333 77.3483 164.771 77.5083L164.083 78.9483ZM158.211 77.3963C158.744 77.3963 159.219 77.295 159.635 77.0923C160.061 76.8897 160.44 76.591 160.771 76.1963L160.723 76.6763L157.363 73.2683L158.179 73.2843L157.715 73.5403C157.352 73.7643 157.048 73.9883 156.803 74.2123C156.568 74.4363 156.392 74.6763 156.275 74.9323C156.157 75.1777 156.099 75.4603 156.099 75.7803C156.099 76.2817 156.28 76.6763 156.643 76.9643C157.005 77.2523 157.528 77.3963 158.211 77.3963ZM158.563 68.7083C158.157 68.7083 157.832 68.8257 157.587 69.0603C157.341 69.295 157.219 69.6043 157.219 69.9883C157.219 70.191 157.256 70.383 157.331 70.5643C157.405 70.7457 157.528 70.943 157.699 71.1563C157.869 71.359 158.093 71.6097 158.371 71.9083L157.891 71.9403C158.552 71.5777 159.032 71.247 159.331 70.9483C159.64 70.639 159.795 70.287 159.795 69.8923C159.795 69.519 159.683 69.231 159.459 69.0283C159.235 68.815 158.936 68.7083 158.563 68.7083ZM164.57 78.7883L169.674 67.5083H171.402L176.57 78.7883H174.474L173.098 75.6203L173.93 76.1803H167.162L168.026 75.6203L166.65 78.7883H164.57ZM170.522 69.7163L168.266 75.0603L167.85 74.5643H173.226L172.89 75.0603L170.586 69.7163H170.522ZM185.697 78.9483C184.865 78.9483 184.145 78.7777 183.537 78.4363C182.929 78.095 182.454 77.6097 182.113 76.9803C181.782 76.351 181.617 75.6043 181.617 74.7403C181.617 73.8763 181.782 73.135 182.113 72.5163C182.454 71.887 182.929 71.4017 183.537 71.0603C184.145 70.719 184.865 70.5483 185.697 70.5483C186.529 70.5483 187.249 70.719 187.857 71.0603C188.476 71.4017 188.95 71.887 189.281 72.5163C189.622 73.135 189.793 73.8763 189.793 74.7403C189.793 75.6043 189.622 76.351 189.281 76.9803C188.95 77.6097 188.476 78.095 187.857 78.4363C187.249 78.7777 186.529 78.9483 185.697 78.9483ZM185.697 77.4123C186.326 77.4123 186.828 77.1937 187.201 76.7563C187.574 76.3083 187.761 75.6363 187.761 74.7403C187.761 73.8443 187.574 73.1777 187.201 72.7403C186.828 72.303 186.326 72.0843 185.697 72.0843C185.068 72.0843 184.566 72.303 184.193 72.7403C183.82 73.1777 183.633 73.8443 183.633 74.7403C183.633 75.6363 183.82 76.3083 184.193 76.7563C184.566 77.1937 185.068 77.4123 185.697 77.4123ZM191.518 82.2443V72.7243C191.518 72.3937 191.507 72.0577 191.486 71.7163C191.464 71.375 191.432 71.039 191.39 70.7083H193.326L193.502 72.4043H193.326C193.486 71.839 193.822 71.391 194.334 71.0603C194.856 70.719 195.459 70.5483 196.142 70.5483C196.856 70.5483 197.48 70.719 198.014 71.0603C198.547 71.391 198.963 71.871 199.262 72.5003C199.56 73.119 199.71 73.8657 199.71 74.7403C199.71 75.615 199.56 76.367 199.262 76.9963C198.963 77.6257 198.547 78.111 198.014 78.4523C197.48 78.783 196.856 78.9483 196.142 78.9483C195.47 78.9483 194.878 78.783 194.366 78.4523C193.854 78.1217 193.512 77.679 193.342 77.1243H193.518V82.2443H191.518ZM195.582 77.4123C196.222 77.4123 196.734 77.1937 197.118 76.7563C197.502 76.3083 197.694 75.6363 197.694 74.7403C197.694 73.8443 197.502 73.1777 197.118 72.7403C196.734 72.303 196.222 72.0843 195.582 72.0843C194.952 72.0843 194.446 72.303 194.062 72.7403C193.678 73.1777 193.486 73.8443 193.486 74.7403C193.486 75.6363 193.678 76.3083 194.062 76.7563C194.446 77.1937 194.952 77.4123 195.582 77.4123ZM201.44 82.2443V72.7243C201.44 72.3937 201.429 72.0577 201.408 71.7163C201.386 71.375 201.354 71.039 201.312 70.7083H203.248L203.424 72.4043H203.248C203.408 71.839 203.744 71.391 204.256 71.0603C204.778 70.719 205.381 70.5483 206.064 70.5483C206.778 70.5483 207.402 70.719 207.936 71.0603C208.469 71.391 208.885 71.871 209.184 72.5003C209.482 73.119 209.632 73.8657 209.632 74.7403C209.632 75.615 209.482 76.367 209.184 76.9963C208.885 77.6257 208.469 78.111 207.936 78.4523C207.402 78.783 206.778 78.9483 206.064 78.9483C205.392 78.9483 204.8 78.783 204.288 78.4523C203.776 78.1217 203.434 77.679 203.264 77.1243H203.44V82.2443H201.44ZM205.504 77.4123C206.144 77.4123 206.656 77.1937 207.04 76.7563C207.424 76.3083 207.616 75.6363 207.616 74.7403C207.616 73.8443 207.424 73.1777 207.04 72.7403C206.656 72.303 206.144 72.0843 205.504 72.0843C204.874 72.0843 204.368 72.303 203.984 72.7403C203.6 73.1777 203.408 73.8443 203.408 74.7403C203.408 75.6363 203.6 76.3083 203.984 76.7563C204.368 77.1937 204.874 77.4123 205.504 77.4123ZM215.009 78.9483C214.177 78.9483 213.457 78.7777 212.849 78.4363C212.241 78.095 211.767 77.6097 211.425 76.9803C211.095 76.351 210.929 75.6043 210.929 74.7403C210.929 73.8763 211.095 73.135 211.425 72.5163C211.767 71.887 212.241 71.4017 212.849 71.0603C213.457 70.719 214.177 70.5483 215.009 70.5483C215.841 70.5483 216.561 70.719 217.169 71.0603C217.788 71.4017 218.263 71.887 218.593 72.5163C218.935 73.135 219.105 73.8763 219.105 74.7403C219.105 75.6043 218.935 76.351 218.593 76.9803C218.263 77.6097 217.788 78.095 217.169 78.4363C216.561 78.7777 215.841 78.9483 215.009 78.9483ZM215.009 77.4123C215.639 77.4123 216.14 77.1937 216.513 76.7563C216.887 76.3083 217.073 75.6363 217.073 74.7403C217.073 73.8443 216.887 73.1777 216.513 72.7403C216.14 72.303 215.639 72.0843 215.009 72.0843C214.38 72.0843 213.879 72.303 213.505 72.7403C213.132 73.1777 212.945 73.8443 212.945 74.7403C212.945 75.6363 213.132 76.3083 213.505 76.7563C213.879 77.1937 214.38 77.4123 215.009 77.4123ZM220.814 78.7883V72.7723C220.814 72.431 220.804 72.0843 220.782 71.7323C220.772 71.3803 220.745 71.039 220.702 70.7083H222.638L222.862 72.9163H222.542C222.649 72.383 222.825 71.9403 223.07 71.5883C223.326 71.2363 223.636 70.975 223.998 70.8043C224.361 70.6337 224.756 70.5483 225.182 70.5483C225.374 70.5483 225.529 70.559 225.646 70.5803C225.764 70.591 225.881 70.6177 225.998 70.6603L225.982 72.4203C225.78 72.335 225.604 72.2817 225.454 72.2603C225.316 72.239 225.14 72.2283 224.926 72.2283C224.468 72.2283 224.078 72.3243 223.758 72.5163C223.449 72.7083 223.214 72.975 223.054 73.3163C222.905 73.6577 222.83 74.047 222.83 74.4843V78.7883H220.814ZM231.021 78.9483C230.061 78.9483 229.335 78.6977 228.845 78.1963C228.354 77.695 228.109 76.943 228.109 75.9403V72.2123H226.557V70.7083H228.109V68.6443L230.109 68.1323V70.7083H232.269V72.2123H230.109V75.8123C230.109 76.367 230.215 76.7563 230.429 76.9803C230.642 77.2043 230.935 77.3163 231.309 77.3163C231.511 77.3163 231.682 77.3003 231.821 77.2683C231.97 77.2363 232.114 77.1937 232.253 77.1403V78.7243C232.071 78.799 231.869 78.8523 231.645 78.8843C231.431 78.927 231.223 78.9483 231.021 78.9483ZM236.539 78.9483C235.547 78.9483 234.806 78.6763 234.315 78.1323C233.824 77.5883 233.579 76.7563 233.579 75.6363V70.7083H235.579V75.6203C235.579 76.2177 235.702 76.6603 235.947 76.9483C236.192 77.2257 236.566 77.3643 237.067 77.3643C237.632 77.3643 238.091 77.1723 238.443 76.7883C238.806 76.4043 238.987 75.8977 238.987 75.2683V70.7083H240.987V78.7883H239.035V77.1403H239.259C239.024 77.7163 238.667 78.1643 238.187 78.4843C237.718 78.7937 237.168 78.9483 236.539 78.9483ZM243.158 78.7883V72.7243C243.158 72.3937 243.148 72.0577 243.126 71.7163C243.105 71.375 243.073 71.039 243.03 70.7083H244.966L245.126 72.3083H244.934C245.19 71.743 245.569 71.311 246.07 71.0123C246.572 70.703 247.153 70.5483 247.814 70.5483C248.764 70.5483 249.478 70.815 249.958 71.3483C250.438 71.8817 250.678 72.7137 250.678 73.8443V78.7883H248.678V73.9403C248.678 73.2897 248.55 72.8257 248.294 72.5483C248.049 72.2603 247.676 72.1163 247.174 72.1163C246.556 72.1163 246.065 72.3083 245.702 72.6923C245.34 73.0763 245.158 73.5883 245.158 74.2283V78.7883H243.158ZM252.799 78.7883V70.7083H254.799V78.7883H252.799ZM252.687 69.1883V67.2363H254.911V69.1883H252.687ZM260.427 78.9483C259.467 78.9483 258.741 78.6977 258.251 78.1963C257.76 77.695 257.515 76.943 257.515 75.9403V72.2123H255.963V70.7083H257.515V68.6443L259.515 68.1323V70.7083H261.675V72.2123H259.515V75.8123C259.515 76.367 259.621 76.7563 259.835 76.9803C260.048 77.2043 260.341 77.3163 260.715 77.3163C260.917 77.3163 261.088 77.3003 261.227 77.2683C261.376 77.2363 261.52 77.1937 261.659 77.1403V78.7243C261.477 78.799 261.275 78.8523 261.051 78.8843C260.837 78.927 260.629 78.9483 260.427 78.9483ZM263.033 78.7883V70.7083H265.033V78.7883H263.033ZM262.921 69.1883V67.2363H265.145V69.1883H262.921ZM271.109 78.9483C269.755 78.9483 268.693 78.575 267.925 77.8283C267.157 77.0817 266.773 76.0577 266.773 74.7563C266.773 73.9137 266.939 73.1777 267.269 72.5483C267.6 71.919 268.059 71.4283 268.645 71.0763C269.243 70.7243 269.936 70.5483 270.725 70.5483C271.504 70.5483 272.155 70.7137 272.677 71.0443C273.2 71.375 273.595 71.839 273.861 72.4363C274.139 73.0337 274.277 73.7323 274.277 74.5323V75.0603H268.389V74.0043H272.853L272.581 74.2283C272.581 73.4817 272.421 72.911 272.101 72.5163C271.792 72.1217 271.339 71.9243 270.741 71.9243C270.08 71.9243 269.568 72.159 269.205 72.6283C268.853 73.0977 268.677 73.7537 268.677 74.5963V74.8043C268.677 75.679 268.891 76.335 269.317 76.7723C269.755 77.199 270.368 77.4123 271.157 77.4123C271.616 77.4123 272.043 77.3537 272.437 77.2363C272.843 77.1083 273.227 76.9057 273.589 76.6283L274.181 77.9723C273.797 78.2817 273.339 78.5217 272.805 78.6923C272.272 78.863 271.707 78.9483 271.109 78.9483ZM278.851 78.9483C278.157 78.9483 277.517 78.8683 276.931 78.7083C276.355 78.5377 275.869 78.303 275.475 78.0043L276.035 76.6603C276.44 76.9377 276.888 77.151 277.379 77.3003C277.869 77.4497 278.365 77.5243 278.867 77.5243C279.4 77.5243 279.795 77.4337 280.051 77.2523C280.317 77.071 280.451 76.8257 280.451 76.5163C280.451 76.271 280.365 76.079 280.195 75.9403C280.035 75.791 279.773 75.679 279.411 75.6043L277.811 75.3003C277.128 75.151 276.605 74.895 276.243 74.5323C275.891 74.1697 275.715 73.695 275.715 73.1083C275.715 72.607 275.848 72.1643 276.115 71.7803C276.392 71.3963 276.781 71.0977 277.283 70.8843C277.795 70.6603 278.392 70.5483 279.075 70.5483C279.672 70.5483 280.232 70.6283 280.755 70.7883C281.288 70.9483 281.736 71.1883 282.099 71.5083L281.523 72.8043C281.192 72.5377 280.813 72.3297 280.387 72.1803C279.96 72.031 279.544 71.9563 279.139 71.9563C278.584 71.9563 278.179 72.0577 277.923 72.2603C277.667 72.4523 277.539 72.703 277.539 73.0123C277.539 73.247 277.613 73.4443 277.763 73.6043C277.923 73.7537 278.168 73.8657 278.499 73.9403L280.099 74.2443C280.813 74.383 281.352 74.6283 281.715 74.9803C282.088 75.3217 282.275 75.791 282.275 76.3883C282.275 76.9217 282.131 77.3803 281.843 77.7643C281.555 78.1483 281.155 78.4417 280.643 78.6443C280.131 78.847 279.533 78.9483 278.851 78.9483ZM288.377 78.7883V70.7083H290.377V78.7883H288.377ZM288.265 69.1883V67.2363H290.489V69.1883H288.265ZM292.549 78.7883V72.7243C292.549 72.3937 292.538 72.0577 292.517 71.7163C292.496 71.375 292.464 71.039 292.421 70.7083H294.357L294.517 72.3083H294.325C294.581 71.743 294.96 71.311 295.461 71.0123C295.962 70.703 296.544 70.5483 297.205 70.5483C298.154 70.5483 298.869 70.815 299.349 71.3483C299.829 71.8817 300.069 72.7137 300.069 73.8443V78.7883H298.069V73.9403C298.069 73.2897 297.941 72.8257 297.685 72.5483C297.44 72.2603 297.066 72.1163 296.565 72.1163C295.946 72.1163 295.456 72.3083 295.093 72.6923C294.73 73.0763 294.549 73.5883 294.549 74.2283V78.7883H292.549ZM120.185 102.948C119.481 102.948 118.862 102.783 118.329 102.452C117.795 102.111 117.379 101.626 117.081 100.996C116.782 100.367 116.633 99.615 116.633 98.7403C116.633 97.8657 116.782 97.119 117.081 96.5003C117.379 95.871 117.795 95.391 118.329 95.0603C118.862 94.719 119.481 94.5483 120.185 94.5483C120.867 94.5483 121.465 94.719 121.977 95.0603C122.499 95.391 122.846 95.839 123.017 96.4043H122.841L123.017 94.7083H124.937C124.905 95.039 124.873 95.375 124.841 95.7163C124.819 96.0577 124.809 96.3937 124.809 96.7243V102.788H122.825L122.809 101.124H123.001C122.83 101.679 122.483 102.122 121.961 102.452C121.438 102.783 120.846 102.948 120.185 102.948ZM120.745 101.412C121.374 101.412 121.881 101.194 122.265 100.756C122.649 100.308 122.841 99.6363 122.841 98.7403C122.841 97.8443 122.649 97.1777 122.265 96.7403C121.881 96.303 121.374 96.0843 120.745 96.0843C120.115 96.0843 119.609 96.303 119.225 96.7403C118.841 97.1777 118.649 97.8443 118.649 98.7403C118.649 99.6363 118.835 100.308 119.209 100.756C119.593 101.194 120.105 101.412 120.745 101.412ZM133.745 102.788L130.257 94.7083H132.385L134.913 101.028H134.417L137.009 94.7083H139.009L135.505 102.788H133.745ZM143.572 102.948C142.74 102.948 142.02 102.778 141.412 102.436C140.804 102.095 140.329 101.61 139.988 100.98C139.657 100.351 139.492 99.6043 139.492 98.7403C139.492 97.8763 139.657 97.135 139.988 96.5163C140.329 95.887 140.804 95.4017 141.412 95.0603C142.02 94.719 142.74 94.5483 143.572 94.5483C144.404 94.5483 145.124 94.719 145.732 95.0603C146.351 95.4017 146.825 95.887 147.156 96.5163C147.497 97.135 147.668 97.8763 147.668 98.7403C147.668 99.6043 147.497 100.351 147.156 100.98C146.825 101.61 146.351 102.095 145.732 102.436C145.124 102.778 144.404 102.948 143.572 102.948ZM143.572 101.412C144.201 101.412 144.703 101.194 145.076 100.756C145.449 100.308 145.636 99.6363 145.636 98.7403C145.636 97.8443 145.449 97.1777 145.076 96.7403C144.703 96.303 144.201 96.0843 143.572 96.0843C142.943 96.0843 142.441 96.303 142.068 96.7403C141.695 97.1777 141.508 97.8443 141.508 98.7403C141.508 99.6363 141.695 100.308 142.068 100.756C142.441 101.194 142.943 101.412 143.572 101.412ZM149.393 102.788V91.0123H151.393V102.788H149.393ZM156.685 102.948C155.981 102.948 155.362 102.783 154.829 102.452C154.295 102.111 153.879 101.626 153.581 100.996C153.282 100.367 153.133 99.615 153.133 98.7403C153.133 97.8657 153.282 97.119 153.581 96.5003C153.879 95.871 154.295 95.391 154.829 95.0603C155.362 94.719 155.981 94.5483 156.685 94.5483C157.367 94.5483 157.965 94.719 158.477 95.0603C158.999 95.391 159.346 95.839 159.517 96.4043H159.341L159.517 94.7083H161.437C161.405 95.039 161.373 95.375 161.341 95.7163C161.319 96.0577 161.309 96.3937 161.309 96.7243V102.788H159.325L159.309 101.124H159.501C159.33 101.679 158.983 102.122 158.461 102.452C157.938 102.783 157.346 102.948 156.685 102.948ZM157.245 101.412C157.874 101.412 158.381 101.194 158.765 100.756C159.149 100.308 159.341 99.6363 159.341 98.7403C159.341 97.8443 159.149 97.1777 158.765 96.7403C158.381 96.303 157.874 96.0843 157.245 96.0843C156.615 96.0843 156.109 96.303 155.725 96.7403C155.341 97.1777 155.149 97.8443 155.149 98.7403C155.149 99.6363 155.335 100.308 155.709 100.756C156.093 101.194 156.605 101.412 157.245 101.412ZM166.942 102.948C165.982 102.948 165.257 102.698 164.766 102.196C164.276 101.695 164.03 100.943 164.03 99.9403V96.2123H162.478V94.7083H164.03V92.6443L166.03 92.1323V94.7083H168.19V96.2123H166.03V99.8123C166.03 100.367 166.137 100.756 166.35 100.98C166.564 101.204 166.857 101.316 167.23 101.316C167.433 101.316 167.604 101.3 167.742 101.268C167.892 101.236 168.036 101.194 168.174 101.14V102.724C167.993 102.799 167.79 102.852 167.566 102.884C167.353 102.927 167.145 102.948 166.942 102.948ZM169.549 102.788V94.7083H171.549V102.788H169.549ZM169.437 93.1883V91.2363H171.661V93.1883H169.437ZM173.721 102.788V91.0123H175.721V102.788H173.721ZM181.797 102.948C180.442 102.948 179.381 102.575 178.613 101.828C177.845 101.082 177.461 100.058 177.461 98.7563C177.461 97.9137 177.626 97.1777 177.957 96.5483C178.287 95.919 178.746 95.4283 179.333 95.0763C179.93 94.7243 180.623 94.5483 181.413 94.5483C182.191 94.5483 182.842 94.7137 183.365 95.0443C183.887 95.375 184.282 95.839 184.549 96.4363C184.826 97.0337 184.965 97.7323 184.965 98.5323V99.0603H179.077V98.0043H183.541L183.269 98.2283C183.269 97.4817 183.109 96.911 182.789 96.5163C182.479 96.1217 182.026 95.9243 181.429 95.9243C180.767 95.9243 180.255 96.159 179.893 96.6283C179.541 97.0977 179.365 97.7537 179.365 98.5963V98.8043C179.365 99.679 179.578 100.335 180.005 100.772C180.442 101.199 181.055 101.412 181.845 101.412C182.303 101.412 182.73 101.354 183.125 101.236C183.53 101.108 183.914 100.906 184.277 100.628L184.869 101.972C184.485 102.282 184.026 102.522 183.493 102.692C182.959 102.863 182.394 102.948 181.797 102.948ZM191.049 102.788V96.7243C191.049 96.3937 191.038 96.0577 191.017 95.7163C190.996 95.375 190.964 95.039 190.921 94.7083H192.857L193.017 96.3083H192.825C193.049 95.7537 193.39 95.3217 193.849 95.0123C194.318 94.703 194.873 94.5483 195.513 94.5483C196.153 94.5483 196.681 94.703 197.097 95.0123C197.524 95.311 197.822 95.7803 197.993 96.4203H197.737C197.961 95.8443 198.329 95.391 198.841 95.0603C199.353 94.719 199.94 94.5483 200.601 94.5483C201.508 94.5483 202.185 94.815 202.633 95.3483C203.081 95.8817 203.305 96.7137 203.305 97.8443V102.788H201.305V97.9243C201.305 97.2843 201.198 96.8257 200.985 96.5483C200.772 96.2603 200.43 96.1163 199.961 96.1163C199.406 96.1163 198.969 96.3137 198.649 96.7083C198.329 97.0923 198.169 97.615 198.169 98.2763V102.788H196.169V97.9243C196.169 97.2843 196.062 96.8257 195.849 96.5483C195.636 96.2603 195.294 96.1163 194.825 96.1163C194.27 96.1163 193.833 96.3137 193.513 96.7083C193.204 97.0923 193.049 97.615 193.049 98.2763V102.788H191.049ZM208.56 102.948C207.856 102.948 207.237 102.783 206.704 102.452C206.17 102.111 205.754 101.626 205.456 100.996C205.157 100.367 205.008 99.615 205.008 98.7403C205.008 97.8657 205.157 97.119 205.456 96.5003C205.754 95.871 206.17 95.391 206.704 95.0603C207.237 94.719 207.856 94.5483 208.56 94.5483C209.242 94.5483 209.84 94.719 210.352 95.0603C210.874 95.391 211.221 95.839 211.392 96.4043H211.216L211.392 94.7083H213.312C213.28 95.039 213.248 95.375 213.216 95.7163C213.194 96.0577 213.184 96.3937 213.184 96.7243V102.788H211.2L211.184 101.124H211.376C211.205 101.679 210.858 102.122 210.336 102.452C209.813 102.783 209.221 102.948 208.56 102.948ZM209.12 101.412C209.749 101.412 210.256 101.194 210.64 100.756C211.024 100.308 211.216 99.6363 211.216 98.7403C211.216 97.8443 211.024 97.1777 210.64 96.7403C210.256 96.303 209.749 96.0843 209.12 96.0843C208.49 96.0843 207.984 96.303 207.6 96.7403C207.216 97.1777 207.024 97.8443 207.024 98.7403C207.024 99.6363 207.21 100.308 207.584 100.756C207.968 101.194 208.48 101.412 209.12 101.412ZM215.345 102.788V96.7723C215.345 96.431 215.335 96.0843 215.313 95.7323C215.303 95.3803 215.276 95.039 215.233 94.7083H217.169L217.393 96.9163H217.073C217.18 96.383 217.356 95.9403 217.601 95.5883C217.857 95.2363 218.167 94.975 218.529 94.8043C218.892 94.6337 219.287 94.5483 219.713 94.5483C219.905 94.5483 220.06 94.559 220.177 94.5803C220.295 94.591 220.412 94.6177 220.529 94.6603L220.513 96.4203C220.311 96.335 220.135 96.2817 219.985 96.2603C219.847 96.239 219.671 96.2283 219.457 96.2283C218.999 96.2283 218.609 96.3243 218.289 96.5163C217.98 96.7083 217.745 96.975 217.585 97.3163C217.436 97.6577 217.361 98.047 217.361 98.4843V102.788H215.345ZM221.643 102.788V91.0123H223.643V98.1483H223.675L226.955 94.7083H229.371L225.291 98.9803L225.307 98.1803L229.659 102.788H227.179L223.675 99.1723H223.643V102.788H221.643ZM234.219 102.948C232.864 102.948 231.803 102.575 231.035 101.828C230.267 101.082 229.883 100.058 229.883 98.7563C229.883 97.9137 230.048 97.1777 230.379 96.5483C230.709 95.919 231.168 95.4283 231.755 95.0763C232.352 94.7243 233.045 94.5483 233.835 94.5483C234.613 94.5483 235.264 94.7137 235.787 95.0443C236.309 95.375 236.704 95.839 236.971 96.4363C237.248 97.0337 237.387 97.7323 237.387 98.5323V99.0603H231.499V98.0043H235.963L235.691 98.2283C235.691 97.4817 235.531 96.911 235.211 96.5163C234.901 96.1217 234.448 95.9243 233.851 95.9243C233.189 95.9243 232.677 96.159 232.315 96.6283C231.963 97.0977 231.787 97.7537 231.787 98.5963V98.8043C231.787 99.679 232 100.335 232.427 100.772C232.864 101.199 233.477 101.412 234.267 101.412C234.725 101.412 235.152 101.354 235.547 101.236C235.952 101.108 236.336 100.906 236.699 100.628L237.291 101.972C236.907 102.282 236.448 102.522 235.915 102.692C235.381 102.863 234.816 102.948 234.219 102.948ZM242.505 102.948C241.545 102.948 240.82 102.698 240.329 102.196C239.838 101.695 239.593 100.943 239.593 99.9403V96.2123H238.041V94.7083H239.593V92.6443L241.593 92.1323V94.7083H243.753V96.2123H241.593V99.8123C241.593 100.367 241.7 100.756 241.913 100.98C242.126 101.204 242.42 101.316 242.793 101.316C242.996 101.316 243.166 101.3 243.305 101.268C243.454 101.236 243.598 101.194 243.737 101.14V102.724C243.556 102.799 243.353 102.852 243.129 102.884C242.916 102.927 242.708 102.948 242.505 102.948Z" fill="black"/>
<defs>
<linearGradient id="paint0_linear_8_267" x1="32.9845" y1="32.7883" x2="341.288" y2="32.7883" gradientUnits="userSpaceOnUse">
<stop stop-color="#00CCFF"/>
<stop offset="1" stop-color="#FF00FF"/>
</linearGradient>
</defs>
</svg>
