<svg width="360" height="105" viewBox="0 0 360 105" fill="none" xmlns="http://www.w3.org/2000/svg">
<rect x="123.5" y="8.78833" width="113" height="40" rx="8" fill="url(#paint0_linear_8_277)"/>
<path d="M133.729 35.2883V33.5763H136.321V25.7363H137.313L133.985 27.7203V25.7683L136.913 24.0083H138.385V33.5763H140.817V35.2883H133.729ZM146.747 35.4483C145.328 35.4483 144.23 34.9577 143.451 33.9763C142.683 32.995 142.299 31.619 142.299 29.8483C142.299 28.5683 142.496 27.4857 142.891 26.6003C143.286 25.7043 143.846 25.0217 144.571 24.5523C145.307 24.083 146.187 23.8483 147.211 23.8483C147.819 23.8483 148.422 23.9603 149.019 24.1843C149.616 24.3977 150.128 24.707 150.555 25.1123L149.867 26.6483C149.472 26.2857 149.046 26.019 148.587 25.8483C148.128 25.667 147.664 25.5763 147.195 25.5763C146.235 25.5763 145.504 25.9017 145.003 26.5523C144.502 27.203 144.251 28.1737 144.251 29.4643V30.6643H144.059C144.144 30.1203 144.326 29.6563 144.603 29.2723C144.88 28.8777 145.238 28.579 145.675 28.3763C146.112 28.163 146.598 28.0563 147.131 28.0563C147.792 28.0563 148.379 28.211 148.891 28.5203C149.403 28.8297 149.803 29.2563 150.091 29.8003C150.39 30.3443 150.539 30.9683 150.539 31.6723C150.539 32.3977 150.374 33.0483 150.043 33.6243C149.723 34.1897 149.28 34.6377 148.715 34.9683C148.15 35.2883 147.494 35.4483 146.747 35.4483ZM146.635 33.8163C147.03 33.8163 147.376 33.731 147.675 33.5603C147.974 33.3897 148.203 33.1497 148.363 32.8403C148.534 32.5203 148.619 32.1577 148.619 31.7523C148.619 31.3363 148.534 30.9737 148.363 30.6643C148.203 30.355 147.974 30.115 147.675 29.9443C147.376 29.763 147.03 29.6723 146.635 29.6723C146.24 29.6723 145.894 29.763 145.595 29.9443C145.296 30.115 145.062 30.355 144.891 30.6643C144.72 30.9737 144.635 31.3363 144.635 31.7523C144.635 32.1577 144.72 32.5203 144.891 32.8403C145.062 33.1497 145.296 33.3897 145.595 33.5603C145.894 33.731 146.24 33.8163 146.635 33.8163ZM152.005 29.4163V27.2083H154.245V29.4163H152.005ZM152.005 35.2883V33.0643H154.245V35.2883H152.005ZM159.733 35.4483C158.955 35.4483 158.208 35.3363 157.493 35.1123C156.779 34.8777 156.192 34.5577 155.733 34.1523L156.405 32.6003C156.907 32.9843 157.424 33.267 157.957 33.4483C158.501 33.6297 159.072 33.7203 159.669 33.7203C160.395 33.7203 160.944 33.5763 161.317 33.2883C161.691 33.0003 161.877 32.579 161.877 32.0243C161.877 31.491 161.691 31.091 161.317 30.8243C160.955 30.547 160.421 30.4083 159.717 30.4083H157.893V28.7603H159.541C160.149 28.7603 160.635 28.611 160.997 28.3123C161.36 28.0137 161.541 27.603 161.541 27.0803C161.541 26.5897 161.371 26.2163 161.029 25.9603C160.699 25.7043 160.219 25.5763 159.589 25.5763C158.459 25.5763 157.461 25.9603 156.597 26.7283L155.925 25.1923C156.384 24.7657 156.949 24.435 157.621 24.2003C158.304 23.9657 159.019 23.8483 159.765 23.8483C160.939 23.8483 161.856 24.115 162.517 24.6483C163.189 25.171 163.525 25.9017 163.525 26.8403C163.525 27.5123 163.333 28.0937 162.949 28.5843C162.576 29.0643 162.059 29.3843 161.397 29.5443V29.3523C162.176 29.4803 162.779 29.8003 163.205 30.3123C163.643 30.8137 163.861 31.443 163.861 32.2003C163.861 33.203 163.493 33.9977 162.757 34.5843C162.021 35.1603 161.013 35.4483 159.733 35.4483ZM169.503 35.4483C168.18 35.4483 167.162 34.947 166.447 33.9443C165.732 32.931 165.375 31.491 165.375 29.6243C165.375 27.7363 165.732 26.3017 166.447 25.3203C167.162 24.339 168.18 23.8483 169.503 23.8483C170.836 23.8483 171.855 24.339 172.559 25.3203C173.274 26.3017 173.631 27.731 173.631 29.6083C173.631 31.4857 173.274 32.931 172.559 33.9443C171.855 34.947 170.836 35.4483 169.503 35.4483ZM169.503 33.7523C170.228 33.7523 170.767 33.4217 171.119 32.7603C171.471 32.0883 171.647 31.0377 171.647 29.6083C171.647 28.179 171.471 27.1443 171.119 26.5043C170.767 25.8537 170.228 25.5283 169.503 25.5283C168.788 25.5283 168.25 25.8537 167.887 26.5043C167.535 27.1443 167.359 28.179 167.359 29.6083C167.359 31.0377 167.535 32.0883 167.887 32.7603C168.25 33.4217 168.788 33.7523 169.503 33.7523ZM175.369 31.6723V30.0883H180.233V31.6723H175.369ZM187.479 35.2883V33.5763H190.071V25.7363H191.063L187.735 27.7203V25.7683L190.663 24.0083H192.135V33.5763H194.567V35.2883H187.479ZM200.097 35.4483C198.774 35.4483 197.74 35.1657 196.993 34.6003C196.257 34.035 195.889 33.251 195.889 32.2483C195.889 31.459 196.129 30.803 196.609 30.2803C197.089 29.7577 197.713 29.4483 198.481 29.3523V29.6883C197.788 29.539 197.228 29.2137 196.801 28.7123C196.385 28.211 196.177 27.603 196.177 26.8883C196.177 25.939 196.524 25.1977 197.217 24.6643C197.921 24.1203 198.881 23.8483 200.097 23.8483C201.324 23.8483 202.284 24.1203 202.977 24.6643C203.681 25.1977 204.033 25.939 204.033 26.8883C204.033 27.603 203.83 28.2163 203.425 28.7283C203.03 29.2403 202.492 29.555 201.809 29.6723V29.3523C202.566 29.459 203.174 29.7737 203.633 30.2963C204.092 30.8083 204.321 31.459 204.321 32.2483C204.321 33.251 203.948 34.035 203.201 34.6003C202.465 35.1657 201.43 35.4483 200.097 35.4483ZM200.097 33.8483C200.876 33.8483 201.457 33.7043 201.841 33.4163C202.225 33.1177 202.417 32.6803 202.417 32.1043C202.417 31.5283 202.225 31.0963 201.841 30.8083C201.457 30.5203 200.876 30.3763 200.097 30.3763C199.329 30.3763 198.748 30.5203 198.353 30.8083C197.969 31.0963 197.777 31.5283 197.777 32.1043C197.777 32.6803 197.969 33.1177 198.353 33.4163C198.748 33.7043 199.329 33.8483 200.097 33.8483ZM200.097 28.7763C200.758 28.7763 201.26 28.627 201.601 28.3283C201.953 28.0297 202.129 27.619 202.129 27.0963C202.129 26.5843 201.953 26.1843 201.601 25.8963C201.26 25.5977 200.758 25.4483 200.097 25.4483C199.446 25.4483 198.945 25.5977 198.593 25.8963C198.252 26.1843 198.081 26.5843 198.081 27.0963C198.081 27.619 198.252 28.0297 198.593 28.3283C198.945 28.627 199.446 28.7763 200.097 28.7763ZM205.755 29.4163V27.2083H207.995V29.4163H205.755ZM205.755 35.2883V33.0643H207.995V35.2883H205.755ZM213.659 35.4483C212.337 35.4483 211.318 34.947 210.603 33.9443C209.889 32.931 209.531 31.491 209.531 29.6243C209.531 27.7363 209.889 26.3017 210.603 25.3203C211.318 24.339 212.337 23.8483 213.659 23.8483C214.993 23.8483 216.011 24.339 216.715 25.3203C217.43 26.3017 217.787 27.731 217.787 29.6083C217.787 31.4857 217.43 32.931 216.715 33.9443C216.011 34.947 214.993 35.4483 213.659 35.4483ZM213.659 33.7523C214.385 33.7523 214.923 33.4217 215.275 32.7603C215.627 32.0883 215.803 31.0377 215.803 29.6083C215.803 28.179 215.627 27.1443 215.275 26.5043C214.923 25.8537 214.385 25.5283 213.659 25.5283C212.945 25.5283 212.406 25.8537 212.043 26.5043C211.691 27.1443 211.515 28.179 211.515 29.6083C211.515 31.0377 211.691 32.0883 212.043 32.7603C212.406 33.4217 212.945 33.7523 213.659 33.7523ZM223.253 35.4483C221.93 35.4483 220.912 34.947 220.197 33.9443C219.482 32.931 219.125 31.491 219.125 29.6243C219.125 27.7363 219.482 26.3017 220.197 25.3203C220.912 24.339 221.93 23.8483 223.253 23.8483C224.586 23.8483 225.605 24.339 226.309 25.3203C227.024 26.3017 227.381 27.731 227.381 29.6083C227.381 31.4857 227.024 32.931 226.309 33.9443C225.605 34.947 224.586 35.4483 223.253 35.4483ZM223.253 33.7523C223.978 33.7523 224.517 33.4217 224.869 32.7603C225.221 32.0883 225.397 31.0377 225.397 29.6083C225.397 28.179 225.221 27.1443 224.869 26.5043C224.517 25.8537 223.978 25.5283 223.253 25.5283C222.538 25.5283 222 25.8537 221.637 26.5043C221.285 27.1443 221.109 28.179 221.109 29.6083C221.109 31.0377 221.285 32.0883 221.637 32.7603C222 33.4217 222.538 33.7523 223.253 33.7523Z" fill="white"/>
<path d="M83.934 72.9483C83.0273 72.9483 82.19 72.8363 81.422 72.6123C80.6647 72.3777 80.014 72.0577 79.47 71.6523L80.11 70.0363C80.4727 70.2923 80.8513 70.511 81.246 70.6923C81.6407 70.863 82.062 70.9963 82.51 71.0923C82.958 71.1777 83.4327 71.2203 83.934 71.2203C84.7767 71.2203 85.3847 71.0817 85.758 70.8043C86.1313 70.527 86.318 70.1643 86.318 69.7163C86.318 69.3217 86.19 69.023 85.934 68.8203C85.678 68.607 85.2193 68.431 84.558 68.2923L82.75 67.9243C81.7153 67.711 80.942 67.3537 80.43 66.8523C79.918 66.351 79.662 65.679 79.662 64.8363C79.662 64.1323 79.8487 63.519 80.222 62.9963C80.5953 62.4737 81.118 62.0683 81.79 61.7803C82.462 61.4923 83.246 61.3483 84.142 61.3483C84.942 61.3483 85.6833 61.4657 86.366 61.7003C87.0487 61.9243 87.6193 62.2497 88.078 62.6763L87.438 64.2123C86.9793 63.8283 86.478 63.5457 85.934 63.3643C85.39 63.1723 84.782 63.0763 84.11 63.0763C83.3527 63.0763 82.7607 63.2257 82.334 63.5243C81.918 63.8123 81.71 64.2123 81.71 64.7243C81.71 65.119 81.838 65.4337 82.094 65.6683C82.3607 65.903 82.8087 66.0843 83.438 66.2123L85.23 66.5643C86.2967 66.7777 87.086 67.1297 87.598 67.6203C88.11 68.1003 88.366 68.751 88.366 69.5723C88.366 70.2443 88.1847 70.8363 87.822 71.3483C87.4593 71.8497 86.9473 72.2443 86.286 72.5323C85.6247 72.8097 84.8407 72.9483 83.934 72.9483ZM94.0545 72.9483C92.6998 72.9483 91.6385 72.575 90.8705 71.8283C90.1025 71.0817 89.7185 70.0577 89.7185 68.7563C89.7185 67.9137 89.8838 67.1777 90.2145 66.5483C90.5452 65.919 91.0038 65.4283 91.5905 65.0763C92.1878 64.7243 92.8812 64.5483 93.6705 64.5483C94.4492 64.5483 95.0998 64.7137 95.6225 65.0443C96.1452 65.375 96.5398 65.839 96.8065 66.4363C97.0838 67.0337 97.2225 67.7323 97.2225 68.5323V69.0603H91.3345V68.0043H95.7985L95.5265 68.2283C95.5265 67.4817 95.3665 66.911 95.0465 66.5163C94.7372 66.1217 94.2838 65.9243 93.6865 65.9243C93.0252 65.9243 92.5132 66.159 92.1505 66.6283C91.7985 67.0977 91.6225 67.7537 91.6225 68.5963V68.8043C91.6225 69.679 91.8358 70.335 92.2625 70.7723C92.6998 71.199 93.3132 71.4123 94.1025 71.4123C94.5612 71.4123 94.9878 71.3537 95.3825 71.2363C95.7878 71.1083 96.1718 70.9057 96.5345 70.6283L97.1265 71.9723C96.7425 72.2817 96.2838 72.5217 95.7505 72.6923C95.2172 72.863 94.6518 72.9483 94.0545 72.9483ZM101.796 72.9483C101.103 72.9483 100.463 72.8683 99.8761 72.7083C99.3001 72.5377 98.8148 72.303 98.4201 72.0043L98.9801 70.6603C99.3855 70.9377 99.8335 71.151 100.324 71.3003C100.815 71.4497 101.311 71.5243 101.812 71.5243C102.345 71.5243 102.74 71.4337 102.996 71.2523C103.263 71.071 103.396 70.8257 103.396 70.5163C103.396 70.271 103.311 70.079 103.14 69.9403C102.98 69.791 102.719 69.679 102.356 69.6043L100.756 69.3003C100.073 69.151 99.5508 68.895 99.1881 68.5323C98.8361 68.1697 98.6601 67.695 98.6601 67.1083C98.6601 66.607 98.7935 66.1643 99.0601 65.7803C99.3375 65.3963 99.7268 65.0977 100.228 64.8843C100.74 64.6603 101.337 64.5483 102.02 64.5483C102.617 64.5483 103.177 64.6283 103.7 64.7883C104.233 64.9483 104.681 65.1883 105.044 65.5083L104.468 66.8043C104.137 66.5377 103.759 66.3297 103.332 66.1803C102.905 66.031 102.489 65.9563 102.084 65.9563C101.529 65.9563 101.124 66.0577 100.868 66.2603C100.612 66.4523 100.484 66.703 100.484 67.0123C100.484 67.247 100.559 67.4443 100.708 67.6043C100.868 67.7537 101.113 67.8657 101.444 67.9403L103.044 68.2443C103.759 68.383 104.297 68.6283 104.66 68.9803C105.033 69.3217 105.22 69.791 105.22 70.3883C105.22 70.9217 105.076 71.3803 104.788 71.7643C104.5 72.1483 104.1 72.4417 103.588 72.6443C103.076 72.847 102.479 72.9483 101.796 72.9483ZM109.812 72.9483C109.118 72.9483 108.478 72.8683 107.892 72.7083C107.316 72.5377 106.83 72.303 106.436 72.0043L106.996 70.6603C107.401 70.9377 107.849 71.151 108.34 71.3003C108.83 71.4497 109.326 71.5243 109.828 71.5243C110.361 71.5243 110.756 71.4337 111.012 71.2523C111.278 71.071 111.412 70.8257 111.412 70.5163C111.412 70.271 111.326 70.079 111.156 69.9403C110.996 69.791 110.734 69.679 110.372 69.6043L108.772 69.3003C108.089 69.151 107.566 68.895 107.204 68.5323C106.852 68.1697 106.676 67.695 106.676 67.1083C106.676 66.607 106.809 66.1643 107.076 65.7803C107.353 65.3963 107.742 65.0977 108.244 64.8843C108.756 64.6603 109.353 64.5483 110.036 64.5483C110.633 64.5483 111.193 64.6283 111.716 64.7883C112.249 64.9483 112.697 65.1883 113.06 65.5083L112.484 66.8043C112.153 66.5377 111.774 66.3297 111.348 66.1803C110.921 66.031 110.505 65.9563 110.1 65.9563C109.545 65.9563 109.14 66.0577 108.884 66.2603C108.628 66.4523 108.5 66.703 108.5 67.0123C108.5 67.247 108.574 67.4443 108.724 67.6043C108.884 67.7537 109.129 67.8657 109.46 67.9403L111.06 68.2443C111.774 68.383 112.313 68.6283 112.676 68.9803C113.049 69.3217 113.236 69.791 113.236 70.3883C113.236 70.9217 113.092 71.3803 112.804 71.7643C112.516 72.1483 112.116 72.4417 111.604 72.6443C111.092 72.847 110.494 72.9483 109.812 72.9483ZM114.947 72.7883V64.7083H116.947V72.7883H114.947ZM114.835 63.1883V61.2363H117.059V63.1883H114.835ZM122.767 72.9483C121.935 72.9483 121.215 72.7777 120.607 72.4363C119.999 72.095 119.525 71.6097 119.183 70.9803C118.853 70.351 118.687 69.6043 118.687 68.7403C118.687 67.8763 118.853 67.135 119.183 66.5163C119.525 65.887 119.999 65.4017 120.607 65.0603C121.215 64.719 121.935 64.5483 122.767 64.5483C123.599 64.5483 124.319 64.719 124.927 65.0603C125.546 65.4017 126.021 65.887 126.351 66.5163C126.693 67.135 126.863 67.8763 126.863 68.7403C126.863 69.6043 126.693 70.351 126.351 70.9803C126.021 71.6097 125.546 72.095 124.927 72.4363C124.319 72.7777 123.599 72.9483 122.767 72.9483ZM122.767 71.4123C123.397 71.4123 123.898 71.1937 124.271 70.7563C124.645 70.3083 124.831 69.6363 124.831 68.7403C124.831 67.8443 124.645 67.1777 124.271 66.7403C123.898 66.303 123.397 66.0843 122.767 66.0843C122.138 66.0843 121.637 66.303 121.263 66.7403C120.89 67.1777 120.703 67.8443 120.703 68.7403C120.703 69.6363 120.89 70.3083 121.263 70.7563C121.637 71.1937 122.138 71.4123 122.767 71.4123ZM128.588 72.7883V66.7243C128.588 66.3937 128.577 66.0577 128.556 65.7163C128.535 65.375 128.503 65.039 128.46 64.7083H130.396L130.556 66.3083H130.364C130.62 65.743 130.999 65.311 131.5 65.0123C132.001 64.703 132.583 64.5483 133.244 64.5483C134.193 64.5483 134.908 64.815 135.388 65.3483C135.868 65.8817 136.108 66.7137 136.108 67.8443V72.7883H134.108V67.9403C134.108 67.2897 133.98 66.8257 133.724 66.5483C133.479 66.2603 133.105 66.1163 132.604 66.1163C131.985 66.1163 131.495 66.3083 131.132 66.6923C130.769 67.0763 130.588 67.5883 130.588 68.2283V72.7883H128.588ZM142.779 72.7883V71.2683L146.523 67.3643C146.993 66.8737 147.339 66.4203 147.563 66.0043C147.787 65.5883 147.899 65.1617 147.899 64.7243C147.899 64.1803 147.729 63.7697 147.387 63.4923C147.046 63.215 146.55 63.0763 145.899 63.0763C145.377 63.0763 144.875 63.1723 144.395 63.3643C143.915 63.5457 143.446 63.8337 142.987 64.2283L142.315 62.6923C142.774 62.287 143.339 61.9617 144.011 61.7163C144.694 61.471 145.409 61.3483 146.155 61.3483C147.371 61.3483 148.305 61.6203 148.955 62.1643C149.606 62.7083 149.931 63.487 149.931 64.5003C149.931 65.2043 149.766 65.8763 149.435 66.5163C149.105 67.1457 148.593 67.807 147.899 68.5003L144.779 71.6203V71.0763H150.379V72.7883H142.779ZM151.989 66.9163V64.7083H154.229V66.9163H151.989ZM151.989 72.7883V70.5643H154.229V72.7883H151.989ZM166.172 72.9483C164.903 72.9483 163.836 72.7137 162.972 72.2443C162.108 71.775 161.458 71.1083 161.02 70.2443C160.583 69.3803 160.364 68.3563 160.364 67.1723C160.364 65.9777 160.599 64.9483 161.068 64.0843C161.538 63.2097 162.21 62.5377 163.084 62.0683C163.97 61.5883 165.031 61.3483 166.268 61.3483C167.09 61.3483 167.81 61.4603 168.428 61.6843C169.047 61.8977 169.591 62.2123 170.06 62.6283L169.372 64.2283C169.031 63.9617 168.706 63.7483 168.396 63.5883C168.087 63.4283 167.767 63.3163 167.436 63.2523C167.106 63.1777 166.722 63.1403 166.284 63.1403C165.047 63.1403 164.108 63.4923 163.468 64.1963C162.839 64.8897 162.524 65.887 162.524 67.1883C162.524 68.4897 162.823 69.4817 163.42 70.1643C164.028 70.847 164.978 71.1883 166.268 71.1883C166.706 71.1883 167.143 71.1457 167.58 71.0603C168.028 70.975 168.466 70.8523 168.892 70.6923L168.508 71.5563V68.1803H165.868V66.6763H170.22V72.1003C169.698 72.367 169.074 72.575 168.348 72.7243C167.623 72.8737 166.898 72.9483 166.172 72.9483ZM176.32 72.9483C174.965 72.9483 173.904 72.575 173.136 71.8283C172.368 71.0817 171.984 70.0577 171.984 68.7563C171.984 67.9137 172.149 67.1777 172.48 66.5483C172.811 65.919 173.269 65.4283 173.856 65.0763C174.453 64.7243 175.147 64.5483 175.936 64.5483C176.715 64.5483 177.365 64.7137 177.888 65.0443C178.411 65.375 178.805 65.839 179.072 66.4363C179.349 67.0337 179.488 67.7323 179.488 68.5323V69.0603H173.6V68.0043H178.064L177.792 68.2283C177.792 67.4817 177.632 66.911 177.312 66.5163C177.003 66.1217 176.549 65.9243 175.952 65.9243C175.291 65.9243 174.779 66.159 174.416 66.6283C174.064 67.0977 173.888 67.7537 173.888 68.5963V68.8043C173.888 69.679 174.101 70.335 174.528 70.7723C174.965 71.199 175.579 71.4123 176.368 71.4123C176.827 71.4123 177.253 71.3537 177.648 71.2363C178.053 71.1083 178.437 70.9057 178.8 70.6283L179.392 71.9723C179.008 72.2817 178.549 72.5217 178.016 72.6923C177.483 72.863 176.917 72.9483 176.32 72.9483ZM181.182 72.7883V66.7243C181.182 66.3937 181.171 66.0577 181.15 65.7163C181.128 65.375 181.096 65.039 181.054 64.7083H182.99L183.15 66.3083H182.958C183.214 65.743 183.592 65.311 184.094 65.0123C184.595 64.703 185.176 64.5483 185.838 64.5483C186.787 64.5483 187.502 64.815 187.982 65.3483C188.462 65.8817 188.702 66.7137 188.702 67.8443V72.7883H186.702V67.9403C186.702 67.2897 186.574 66.8257 186.318 66.5483C186.072 66.2603 185.699 66.1163 185.198 66.1163C184.579 66.1163 184.088 66.3083 183.726 66.6923C183.363 67.0763 183.182 67.5883 183.182 68.2283V72.7883H181.182ZM194.726 72.9483C193.372 72.9483 192.31 72.575 191.542 71.8283C190.774 71.0817 190.39 70.0577 190.39 68.7563C190.39 67.9137 190.556 67.1777 190.886 66.5483C191.217 65.919 191.676 65.4283 192.262 65.0763C192.86 64.7243 193.553 64.5483 194.342 64.5483C195.121 64.5483 195.772 64.7137 196.294 65.0443C196.817 65.375 197.212 65.839 197.478 66.4363C197.756 67.0337 197.894 67.7323 197.894 68.5323V69.0603H192.006V68.0043H196.47L196.198 68.2283C196.198 67.4817 196.038 66.911 195.718 66.5163C195.409 66.1217 194.956 65.9243 194.358 65.9243C193.697 65.9243 193.185 66.159 192.822 66.6283C192.47 67.0977 192.294 67.7537 192.294 68.5963V68.8043C192.294 69.679 192.508 70.335 192.934 70.7723C193.372 71.199 193.985 71.4123 194.774 71.4123C195.233 71.4123 195.66 71.3537 196.054 71.2363C196.46 71.1083 196.844 70.9057 197.206 70.6283L197.798 71.9723C197.414 72.2817 196.956 72.5217 196.422 72.6923C195.889 72.863 195.324 72.9483 194.726 72.9483ZM199.572 72.7883V66.7723C199.572 66.431 199.561 66.0843 199.54 65.7323C199.529 65.3803 199.503 65.039 199.46 64.7083H201.396L201.62 66.9163H201.3C201.407 66.383 201.583 65.9403 201.828 65.5883C202.084 65.2363 202.393 64.975 202.756 64.8043C203.119 64.6337 203.513 64.5483 203.94 64.5483C204.132 64.5483 204.287 64.559 204.404 64.5803C204.521 64.591 204.639 64.6177 204.756 64.6603L204.74 66.4203C204.537 66.335 204.361 66.2817 204.212 66.2603C204.073 66.239 203.897 66.2283 203.684 66.2283C203.225 66.2283 202.836 66.3243 202.516 66.5163C202.207 66.7083 201.972 66.975 201.812 67.3163C201.663 67.6577 201.588 68.047 201.588 68.4843V72.7883H199.572ZM208.911 72.9483C208.207 72.9483 207.588 72.783 207.055 72.4523C206.522 72.111 206.106 71.6257 205.807 70.9963C205.508 70.367 205.359 69.615 205.359 68.7403C205.359 67.8657 205.508 67.119 205.807 66.5003C206.106 65.871 206.522 65.391 207.055 65.0603C207.588 64.719 208.207 64.5483 208.911 64.5483C209.594 64.5483 210.191 64.719 210.703 65.0603C211.226 65.391 211.572 65.839 211.743 66.4043H211.567L211.743 64.7083H213.663C213.631 65.039 213.599 65.375 213.567 65.7163C213.546 66.0577 213.535 66.3937 213.535 66.7243V72.7883H211.551L211.535 71.1243H211.727C211.556 71.679 211.21 72.1217 210.687 72.4523C210.164 72.783 209.572 72.9483 208.911 72.9483ZM209.471 71.4123C210.1 71.4123 210.607 71.1937 210.991 70.7563C211.375 70.3083 211.567 69.6363 211.567 68.7403C211.567 67.8443 211.375 67.1777 210.991 66.7403C210.607 66.303 210.1 66.0843 209.471 66.0843C208.842 66.0843 208.335 66.303 207.951 66.7403C207.567 67.1777 207.375 67.8443 207.375 68.7403C207.375 69.6363 207.562 70.3083 207.935 70.7563C208.319 71.1937 208.831 71.4123 209.471 71.4123ZM219.169 72.9483C218.209 72.9483 217.484 72.6977 216.993 72.1963C216.502 71.695 216.257 70.943 216.257 69.9403V66.2123H214.705V64.7083H216.257V62.6443L218.257 62.1323V64.7083H220.417V66.2123H218.257V69.8123C218.257 70.367 218.364 70.7563 218.577 70.9803C218.79 71.2043 219.084 71.3163 219.457 71.3163C219.66 71.3163 219.83 71.3003 219.969 71.2683C220.118 71.2363 220.262 71.1937 220.401 71.1403V72.7243C220.22 72.799 220.017 72.8523 219.793 72.8843C219.58 72.927 219.372 72.9483 219.169 72.9483ZM221.776 72.7883V64.7083H223.776V72.7883H221.776ZM221.664 63.1883V61.2363H223.888V63.1883H221.664ZM225.947 72.7883V66.7243C225.947 66.3937 225.937 66.0577 225.915 65.7163C225.894 65.375 225.862 65.039 225.819 64.7083H227.755L227.915 66.3083H227.723C227.979 65.743 228.358 65.311 228.859 65.0123C229.361 64.703 229.942 64.5483 230.603 64.5483C231.553 64.5483 232.267 64.815 232.747 65.3483C233.227 65.8817 233.467 66.7137 233.467 67.8443V72.7883H231.467V67.9403C231.467 67.2897 231.339 66.8257 231.083 66.5483C230.838 66.2603 230.465 66.1163 229.963 66.1163C229.345 66.1163 228.854 66.3083 228.491 66.6923C228.129 67.0763 227.947 67.5883 227.947 68.2283V72.7883H225.947ZM239.332 76.3723C238.585 76.3723 237.908 76.2923 237.3 76.1323C236.703 75.9723 236.169 75.727 235.7 75.3963L236.132 73.9563C236.441 74.159 236.761 74.3243 237.092 74.4523C237.423 74.5803 237.764 74.6763 238.116 74.7403C238.468 74.8043 238.825 74.8363 239.188 74.8363C239.935 74.8363 240.489 74.6497 240.852 74.2763C241.225 73.9137 241.412 73.391 241.412 72.7083V70.7723H241.572C241.401 71.327 241.055 71.7697 240.532 72.1003C240.02 72.431 239.428 72.5963 238.756 72.5963C238.031 72.5963 237.396 72.4363 236.852 72.1163C236.319 71.7857 235.903 71.3163 235.604 70.7083C235.305 70.1003 235.156 69.3857 235.156 68.5643C235.156 67.743 235.305 67.0337 235.604 66.4363C235.903 65.8283 236.319 65.3643 236.852 65.0443C237.396 64.7137 238.031 64.5483 238.756 64.5483C239.439 64.5483 240.031 64.7137 240.532 65.0443C241.044 65.3643 241.385 65.8017 241.556 66.3563L241.412 66.2603L241.572 64.7083H243.508C243.465 65.039 243.433 65.375 243.412 65.7163C243.391 66.0577 243.38 66.3937 243.38 66.7243V72.4683C243.38 73.7377 243.033 74.703 242.34 75.3643C241.657 76.0363 240.655 76.3723 239.332 76.3723ZM239.3 71.0603C239.94 71.0603 240.447 70.847 240.82 70.4203C241.204 69.983 241.396 69.3643 241.396 68.5643C241.396 67.7643 241.204 67.151 240.82 66.7243C240.447 66.2977 239.94 66.0843 239.3 66.0843C238.649 66.0843 238.132 66.2977 237.748 66.7243C237.364 67.151 237.172 67.7643 237.172 68.5643C237.172 69.3643 237.364 69.983 237.748 70.4203C238.132 70.847 238.649 71.0603 239.3 71.0603ZM249.932 72.7883V66.7243C249.932 66.3937 249.921 66.0577 249.9 65.7163C249.878 65.375 249.846 65.039 249.804 64.7083H251.74L251.9 66.3083H251.708C251.964 65.743 252.342 65.311 252.844 65.0123C253.345 64.703 253.926 64.5483 254.588 64.5483C255.537 64.5483 256.252 64.815 256.732 65.3483C257.212 65.8817 257.452 66.7137 257.452 67.8443V72.7883H255.452V67.9403C255.452 67.2897 255.324 66.8257 255.068 66.5483C254.822 66.2603 254.449 66.1163 253.948 66.1163C253.329 66.1163 252.838 66.3083 252.476 66.6923C252.113 67.0763 251.932 67.5883 251.932 68.2283V72.7883H249.932ZM263.476 72.9483C262.122 72.9483 261.06 72.575 260.292 71.8283C259.524 71.0817 259.14 70.0577 259.14 68.7563C259.14 67.9137 259.306 67.1777 259.636 66.5483C259.967 65.919 260.426 65.4283 261.012 65.0763C261.61 64.7243 262.303 64.5483 263.092 64.5483C263.871 64.5483 264.522 64.7137 265.044 65.0443C265.567 65.375 265.962 65.839 266.228 66.4363C266.506 67.0337 266.644 67.7323 266.644 68.5323V69.0603H260.756V68.0043H265.22L264.948 68.2283C264.948 67.4817 264.788 66.911 264.468 66.5163C264.159 66.1217 263.706 65.9243 263.108 65.9243C262.447 65.9243 261.935 66.159 261.572 66.6283C261.22 67.0977 261.044 67.7537 261.044 68.5963V68.8043C261.044 69.679 261.258 70.335 261.684 70.7723C262.122 71.199 262.735 71.4123 263.524 71.4123C263.983 71.4123 264.41 71.3537 264.804 71.2363C265.21 71.1083 265.594 70.9057 265.956 70.6283L266.548 71.9723C266.164 72.2817 265.706 72.5217 265.172 72.6923C264.639 72.863 264.074 72.9483 263.476 72.9483ZM270.453 72.7883L267.301 64.7083H269.365L271.637 70.9963H271.221L273.525 64.7083H274.949L277.237 70.9963H276.869L279.125 64.7083H281.077L277.925 72.7883H276.165L273.749 66.3563H274.597L272.229 72.7883H270.453ZM115.851 92.9483C115.157 92.9483 114.517 92.8683 113.931 92.7083C113.355 92.5377 112.869 92.303 112.475 92.0043L113.035 90.6603C113.44 90.9377 113.888 91.151 114.379 91.3003C114.869 91.4497 115.365 91.5243 115.867 91.5243C116.4 91.5243 116.795 91.4337 117.051 91.2523C117.317 91.071 117.451 90.8257 117.451 90.5163C117.451 90.271 117.365 90.079 117.195 89.9403C117.035 89.791 116.773 89.679 116.411 89.6043L114.811 89.3003C114.128 89.151 113.605 88.895 113.243 88.5323C112.891 88.1697 112.715 87.695 112.715 87.1083C112.715 86.607 112.848 86.1643 113.115 85.7803C113.392 85.3963 113.781 85.0977 114.283 84.8843C114.795 84.6603 115.392 84.5483 116.075 84.5483C116.672 84.5483 117.232 84.6283 117.755 84.7883C118.288 84.9483 118.736 85.1883 119.099 85.5083L118.523 86.8043C118.192 86.5377 117.813 86.3297 117.387 86.1803C116.96 86.031 116.544 85.9563 116.139 85.9563C115.584 85.9563 115.179 86.0577 114.923 86.2603C114.667 86.4523 114.539 86.703 114.539 87.0123C114.539 87.247 114.613 87.4443 114.763 87.6043C114.923 87.7537 115.168 87.8657 115.499 87.9403L117.099 88.2443C117.813 88.383 118.352 88.6283 118.715 88.9803C119.088 89.3217 119.275 89.791 119.275 90.3883C119.275 90.9217 119.131 91.3803 118.843 91.7643C118.555 92.1483 118.155 92.4417 117.643 92.6443C117.131 92.847 116.533 92.9483 115.851 92.9483ZM120.67 96.4203L120.206 94.8363C120.708 94.7297 121.129 94.607 121.47 94.4683C121.812 94.3297 122.094 94.1483 122.318 93.9243C122.542 93.7003 122.729 93.4123 122.878 93.0603L123.278 92.1163L123.23 92.9003L119.71 84.7083H121.838L124.366 91.0123H123.902L126.446 84.7083H128.462L124.782 93.2363C124.537 93.8123 124.27 94.287 123.982 94.6603C123.694 95.0443 123.385 95.3483 123.054 95.5723C122.724 95.807 122.361 95.9883 121.966 96.1163C121.572 96.2443 121.14 96.3457 120.67 96.4203ZM129.518 92.7883V86.7243C129.518 86.3937 129.507 86.0577 129.486 85.7163C129.464 85.375 129.432 85.039 129.39 84.7083H131.326L131.486 86.3083H131.294C131.55 85.743 131.928 85.311 132.43 85.0123C132.931 84.703 133.512 84.5483 134.174 84.5483C135.123 84.5483 135.838 84.815 136.318 85.3483C136.798 85.8817 137.038 86.7137 137.038 87.8443V92.7883H135.038V87.9403C135.038 87.2897 134.91 86.8257 134.654 86.5483C134.408 86.2603 134.035 86.1163 133.534 86.1163C132.915 86.1163 132.424 86.3083 132.062 86.6923C131.699 87.0763 131.518 87.5883 131.518 88.2283V92.7883H129.518ZM142.294 92.9483C141.59 92.9483 140.966 92.783 140.422 92.4523C139.889 92.111 139.473 91.6257 139.174 90.9963C138.876 90.367 138.726 89.615 138.726 88.7403C138.726 87.8657 138.876 87.119 139.174 86.5003C139.473 85.871 139.889 85.391 140.422 85.0603C140.966 84.719 141.59 84.5483 142.294 84.5483C142.966 84.5483 143.558 84.7137 144.07 85.0443C144.593 85.3643 144.94 85.8017 145.11 86.3563H144.902V81.0123H146.902V92.7883H144.934V91.0763H145.126C144.956 91.6523 144.609 92.111 144.086 92.4523C143.574 92.783 142.977 92.9483 142.294 92.9483ZM142.854 91.4123C143.484 91.4123 143.99 91.1937 144.374 90.7563C144.758 90.3083 144.95 89.6363 144.95 88.7403C144.95 87.8443 144.758 87.1777 144.374 86.7403C143.99 86.303 143.484 86.0843 142.854 86.0843C142.225 86.0843 141.713 86.303 141.318 86.7403C140.934 87.1777 140.742 87.8443 140.742 88.7403C140.742 89.6363 140.934 90.3083 141.318 90.7563C141.713 91.1937 142.225 91.4123 142.854 91.4123ZM149.08 92.7883V84.7083H151.08V92.7883H149.08ZM148.968 83.1883V81.2363H151.192V83.1883H148.968ZM156.964 92.9483C156.132 92.9483 155.401 92.7777 154.772 92.4363C154.153 92.095 153.673 91.6097 153.332 90.9803C152.991 90.3403 152.82 89.583 152.82 88.7083C152.82 87.8337 152.991 87.087 153.332 86.4683C153.684 85.8497 154.169 85.375 154.788 85.0443C155.407 84.7137 156.132 84.5483 156.964 84.5483C157.497 84.5483 158.015 84.6337 158.516 84.8043C159.028 84.9643 159.444 85.199 159.764 85.5083L159.156 86.9003C158.868 86.6337 158.543 86.4363 158.18 86.3083C157.828 86.1697 157.481 86.1003 157.14 86.1003C156.425 86.1003 155.865 86.3243 155.46 86.7723C155.065 87.2203 154.868 87.871 154.868 88.7243C154.868 89.5777 155.065 90.2337 155.46 90.6923C155.865 91.151 156.425 91.3803 157.14 91.3803C157.471 91.3803 157.812 91.3163 158.164 91.1883C158.527 91.0603 158.857 90.863 159.156 90.5963L159.764 91.9723C159.433 92.2817 159.012 92.5217 158.5 92.6923C157.999 92.863 157.487 92.9483 156.964 92.9483ZM164.388 92.9483C163.684 92.9483 163.065 92.783 162.532 92.4523C161.998 92.111 161.582 91.6257 161.284 90.9963C160.985 90.367 160.836 89.615 160.836 88.7403C160.836 87.8657 160.985 87.119 161.284 86.5003C161.582 85.871 161.998 85.391 162.532 85.0603C163.065 84.719 163.684 84.5483 164.388 84.5483C165.07 84.5483 165.668 84.719 166.18 85.0603C166.702 85.391 167.049 85.839 167.22 86.4043H167.044L167.22 84.7083H169.14C169.108 85.039 169.076 85.375 169.044 85.7163C169.022 86.0577 169.012 86.3937 169.012 86.7243V92.7883H167.028L167.012 91.1243H167.204C167.033 91.679 166.686 92.1217 166.164 92.4523C165.641 92.783 165.049 92.9483 164.388 92.9483ZM164.948 91.4123C165.577 91.4123 166.084 91.1937 166.468 90.7563C166.852 90.3083 167.044 89.6363 167.044 88.7403C167.044 87.8443 166.852 87.1777 166.468 86.7403C166.084 86.303 165.577 86.0843 164.948 86.0843C164.318 86.0843 163.812 86.303 163.428 86.7403C163.044 87.1777 162.852 87.8443 162.852 88.7403C162.852 89.6363 163.038 90.3083 163.412 90.7563C163.796 91.1937 164.308 91.4123 164.948 91.4123ZM174.646 92.9483C173.686 92.9483 172.96 92.6977 172.47 92.1963C171.979 91.695 171.734 90.943 171.734 89.9403V86.2123H170.182V84.7083H171.734V82.6443L173.734 82.1323V84.7083H175.894V86.2123H173.734V89.8123C173.734 90.367 173.84 90.7563 174.054 90.9803C174.267 91.2043 174.56 91.3163 174.934 91.3163C175.136 91.3163 175.307 91.3003 175.446 91.2683C175.595 91.2363 175.739 91.1937 175.878 91.1403V92.7243C175.696 92.799 175.494 92.8523 175.27 92.8843C175.056 92.927 174.848 92.9483 174.646 92.9483ZM181.078 92.9483C179.723 92.9483 178.662 92.575 177.894 91.8283C177.126 91.0817 176.742 90.0577 176.742 88.7563C176.742 87.9137 176.907 87.1777 177.238 86.5483C177.569 85.919 178.027 85.4283 178.614 85.0763C179.211 84.7243 179.905 84.5483 180.694 84.5483C181.473 84.5483 182.123 84.7137 182.646 85.0443C183.169 85.375 183.563 85.839 183.83 86.4363C184.107 87.0337 184.246 87.7323 184.246 88.5323V89.0603H178.358V88.0043H182.822L182.55 88.2283C182.55 87.4817 182.39 86.911 182.07 86.5163C181.761 86.1217 181.307 85.9243 180.71 85.9243C180.049 85.9243 179.537 86.159 179.174 86.6283C178.822 87.0977 178.646 87.7537 178.646 88.5963V88.8043C178.646 89.679 178.859 90.335 179.286 90.7723C179.723 91.199 180.337 91.4123 181.126 91.4123C181.585 91.4123 182.011 91.3537 182.406 91.2363C182.811 91.1083 183.195 90.9057 183.558 90.6283L184.15 91.9723C183.766 92.2817 183.307 92.5217 182.774 92.6923C182.241 92.863 181.675 92.9483 181.078 92.9483ZM189.076 92.9483C188.372 92.9483 187.748 92.783 187.204 92.4523C186.67 92.111 186.254 91.6257 185.956 90.9963C185.657 90.367 185.508 89.615 185.508 88.7403C185.508 87.8657 185.657 87.119 185.956 86.5003C186.254 85.871 186.67 85.391 187.204 85.0603C187.748 84.719 188.372 84.5483 189.076 84.5483C189.748 84.5483 190.34 84.7137 190.852 85.0443C191.374 85.3643 191.721 85.8017 191.892 86.3563H191.684V81.0123H193.684V92.7883H191.716V91.0763H191.908C191.737 91.6523 191.39 92.111 190.868 92.4523C190.356 92.783 189.758 92.9483 189.076 92.9483ZM189.636 91.4123C190.265 91.4123 190.772 91.1937 191.156 90.7563C191.54 90.3083 191.732 89.6363 191.732 88.7403C191.732 87.8443 191.54 87.1777 191.156 86.7403C190.772 86.303 190.265 86.0843 189.636 86.0843C189.006 86.0843 188.494 86.303 188.1 86.7403C187.716 87.1777 187.524 87.8443 187.524 88.7403C187.524 89.6363 187.716 90.3083 188.1 90.7563C188.494 91.1937 189.006 91.4123 189.636 91.4123ZM202.62 92.7883L199.132 84.7083H201.26L203.788 91.0283H203.292L205.884 84.7083H207.884L204.38 92.7883H202.62ZM211.919 92.9483C211.215 92.9483 210.596 92.783 210.063 92.4523C209.53 92.111 209.114 91.6257 208.815 90.9963C208.516 90.367 208.367 89.615 208.367 88.7403C208.367 87.8657 208.516 87.119 208.815 86.5003C209.114 85.871 209.53 85.391 210.063 85.0603C210.596 84.719 211.215 84.5483 211.919 84.5483C212.602 84.5483 213.199 84.719 213.711 85.0603C214.234 85.391 214.58 85.839 214.751 86.4043H214.575L214.751 84.7083H216.671C216.639 85.039 216.607 85.375 216.575 85.7163C216.554 86.0577 216.543 86.3937 216.543 86.7243V92.7883H214.559L214.543 91.1243H214.735C214.564 91.679 214.218 92.1217 213.695 92.4523C213.172 92.783 212.58 92.9483 211.919 92.9483ZM212.479 91.4123C213.108 91.4123 213.615 91.1937 213.999 90.7563C214.383 90.3083 214.575 89.6363 214.575 88.7403C214.575 87.8443 214.383 87.1777 213.999 86.7403C213.615 86.303 213.108 86.0843 212.479 86.0843C211.85 86.0843 211.343 86.303 210.959 86.7403C210.575 87.1777 210.383 87.8443 210.383 88.7403C210.383 89.6363 210.57 90.3083 210.943 90.7563C211.327 91.1937 211.839 91.4123 212.479 91.4123ZM218.721 92.7883V81.0123H220.721V92.7883H218.721ZM225.805 92.9483C224.813 92.9483 224.071 92.6763 223.581 92.1323C223.09 91.5883 222.845 90.7563 222.845 89.6363V84.7083H224.845V89.6203C224.845 90.2177 224.967 90.6603 225.213 90.9483C225.458 91.2257 225.831 91.3643 226.333 91.3643C226.898 91.3643 227.357 91.1723 227.709 90.7883C228.071 90.4043 228.253 89.8977 228.253 89.2683V84.7083H230.253V92.7883H228.301V91.1403H228.525C228.29 91.7163 227.933 92.1643 227.453 92.4843C226.983 92.7937 226.434 92.9483 225.805 92.9483ZM236.328 92.9483C234.973 92.9483 233.912 92.575 233.144 91.8283C232.376 91.0817 231.992 90.0577 231.992 88.7563C231.992 87.9137 232.157 87.1777 232.488 86.5483C232.819 85.919 233.277 85.4283 233.864 85.0763C234.461 84.7243 235.155 84.5483 235.944 84.5483C236.723 84.5483 237.373 84.7137 237.896 85.0443C238.419 85.375 238.813 85.839 239.08 86.4363C239.357 87.0337 239.496 87.7323 239.496 88.5323V89.0603H233.608V88.0043H238.072L237.8 88.2283C237.8 87.4817 237.64 86.911 237.32 86.5163C237.011 86.1217 236.557 85.9243 235.96 85.9243C235.299 85.9243 234.787 86.159 234.424 86.6283C234.072 87.0977 233.896 87.7537 233.896 88.5963V88.8043C233.896 89.679 234.109 90.335 234.536 90.7723C234.973 91.199 235.587 91.4123 236.376 91.4123C236.835 91.4123 237.261 91.3537 237.656 91.2363C238.061 91.1083 238.445 90.9057 238.808 90.6283L239.4 91.9723C239.016 92.2817 238.557 92.5217 238.024 92.6923C237.491 92.863 236.925 92.9483 236.328 92.9483ZM244.07 92.9483C243.376 92.9483 242.736 92.8683 242.15 92.7083C241.574 92.5377 241.088 92.303 240.694 92.0043L241.254 90.6603C241.659 90.9377 242.107 91.151 242.598 91.3003C243.088 91.4497 243.584 91.5243 244.086 91.5243C244.619 91.5243 245.014 91.4337 245.27 91.2523C245.536 91.071 245.67 90.8257 245.67 90.5163C245.67 90.271 245.584 90.079 245.414 89.9403C245.254 89.791 244.992 89.679 244.63 89.6043L243.03 89.3003C242.347 89.151 241.824 88.895 241.462 88.5323C241.11 88.1697 240.934 87.695 240.934 87.1083C240.934 86.607 241.067 86.1643 241.334 85.7803C241.611 85.3963 242 85.0977 242.502 84.8843C243.014 84.6603 243.611 84.5483 244.294 84.5483C244.891 84.5483 245.451 84.6283 245.974 84.7883C246.507 84.9483 246.955 85.1883 247.318 85.5083L246.742 86.8043C246.411 86.5377 246.032 86.3297 245.606 86.1803C245.179 86.031 244.763 85.9563 244.358 85.9563C243.803 85.9563 243.398 86.0577 243.142 86.2603C242.886 86.4523 242.758 86.703 242.758 87.0123C242.758 87.247 242.832 87.4443 242.982 87.6043C243.142 87.7537 243.387 87.8657 243.718 87.9403L245.318 88.2443C246.032 88.383 246.571 88.6283 246.934 88.9803C247.307 89.3217 247.494 89.791 247.494 90.3883C247.494 90.9217 247.35 91.3803 247.062 91.7643C246.774 92.1483 246.374 92.4417 245.862 92.6443C245.35 92.847 244.752 92.9483 244.07 92.9483Z" fill="black"/>
<defs>
<linearGradient id="paint0_linear_8_277" x1="32.9845" y1="28.7883" x2="341.288" y2="28.7883" gradientUnits="userSpaceOnUse">
<stop stop-color="#00CCFF"/>
<stop offset="1" stop-color="#FF00FF"/>
</linearGradient>
</defs>
</svg>
