<svg width="360" height="100" viewBox="0 0 360 100" fill="none" xmlns="http://www.w3.org/2000/svg">
<rect x="123.5" y="12" width="113" height="40" rx="8" fill="url(#paint0_linear_8_272)"/>
<path d="M133.729 36V34.288H136.321V26.448H137.313L133.985 28.432V26.48L136.913 24.72H138.385V34.288H140.817V36H133.729ZM146.427 36.16C145.936 36.16 145.446 36.1067 144.955 36C144.475 35.8933 144.022 35.744 143.595 35.552C143.179 35.36 142.822 35.1307 142.523 34.864L143.195 33.312C143.696 33.6853 144.208 33.968 144.731 34.16C145.264 34.3413 145.819 34.432 146.395 34.432C147.088 34.432 147.627 34.2613 148.011 33.92C148.406 33.568 148.603 33.0987 148.603 32.512C148.603 31.9147 148.416 31.4347 148.043 31.072C147.67 30.6987 147.158 30.512 146.507 30.512C146.048 30.512 145.627 30.6027 145.243 30.784C144.87 30.9547 144.534 31.2213 144.235 31.584H142.875V24.72H149.883V26.416H144.827V30H144.331C144.608 29.6267 144.976 29.3387 145.435 29.136C145.904 28.9333 146.427 28.832 147.003 28.832C147.728 28.832 148.358 28.9813 148.891 29.28C149.424 29.5787 149.84 30 150.139 30.544C150.438 31.0773 150.587 31.7067 150.587 32.432C150.587 33.168 150.416 33.8187 150.075 34.384C149.744 34.9387 149.264 35.376 148.635 35.696C148.016 36.0053 147.28 36.16 146.427 36.16ZM152.005 30.128V27.92H154.245V30.128H152.005ZM152.005 36V33.776H154.245V36H152.005ZM160.805 36V33.792H155.765V32.352L161.125 24.72H162.789V32.224H164.405V33.792H162.789V36H160.805ZM160.805 32.224V27.152H161.189L157.301 32.704V32.224H160.805ZM169.583 36.16C169.092 36.16 168.602 36.1067 168.111 36C167.631 35.8933 167.178 35.744 166.751 35.552C166.335 35.36 165.978 35.1307 165.679 34.864L166.351 33.312C166.852 33.6853 167.364 33.968 167.887 34.16C168.42 34.3413 168.975 34.432 169.551 34.432C170.244 34.432 170.783 34.2613 171.167 33.92C171.562 33.568 171.759 33.0987 171.759 32.512C171.759 31.9147 171.572 31.4347 171.199 31.072C170.826 30.6987 170.314 30.512 169.663 30.512C169.204 30.512 168.783 30.6027 168.399 30.784C168.026 30.9547 167.69 31.2213 167.391 31.584H166.031V24.72H173.039V26.416H167.983V30H167.487C167.764 29.6267 168.132 29.3387 168.591 29.136C169.06 28.9333 169.583 28.832 170.159 28.832C170.884 28.832 171.514 28.9813 172.047 29.28C172.58 29.5787 172.996 30 173.295 30.544C173.594 31.0773 173.743 31.7067 173.743 32.432C173.743 33.168 173.572 33.8187 173.231 34.384C172.9 34.9387 172.42 35.376 171.791 35.696C171.172 36.0053 170.436 36.16 169.583 36.16ZM175.369 32.384V30.8H180.233V32.384H175.369ZM187.479 36V34.288H190.071V26.448H191.063L187.735 28.432V26.48L190.663 24.72H192.135V34.288H194.567V36H187.479ZM200.497 36.16C199.078 36.16 197.98 35.6693 197.201 34.688C196.433 33.7067 196.049 32.3307 196.049 30.56C196.049 29.28 196.246 28.1973 196.641 27.312C197.036 26.416 197.596 25.7333 198.321 25.264C199.057 24.7947 199.937 24.56 200.961 24.56C201.569 24.56 202.172 24.672 202.769 24.896C203.366 25.1093 203.878 25.4187 204.305 25.824L203.617 27.36C203.222 26.9973 202.796 26.7307 202.337 26.56C201.878 26.3787 201.414 26.288 200.945 26.288C199.985 26.288 199.254 26.6133 198.753 27.264C198.252 27.9147 198.001 28.8853 198.001 30.176V31.376H197.809C197.894 30.832 198.076 30.368 198.353 29.984C198.63 29.5893 198.988 29.2907 199.425 29.088C199.862 28.8747 200.348 28.768 200.881 28.768C201.542 28.768 202.129 28.9227 202.641 29.232C203.153 29.5413 203.553 29.968 203.841 30.512C204.14 31.056 204.289 31.68 204.289 32.384C204.289 33.1093 204.124 33.76 203.793 34.336C203.473 34.9013 203.03 35.3493 202.465 35.68C201.9 36 201.244 36.16 200.497 36.16ZM200.385 34.528C200.78 34.528 201.126 34.4427 201.425 34.272C201.724 34.1013 201.953 33.8613 202.113 33.552C202.284 33.232 202.369 32.8693 202.369 32.464C202.369 32.048 202.284 31.6853 202.113 31.376C201.953 31.0667 201.724 30.8267 201.425 30.656C201.126 30.4747 200.78 30.384 200.385 30.384C199.99 30.384 199.644 30.4747 199.345 30.656C199.046 30.8267 198.812 31.0667 198.641 31.376C198.47 31.6853 198.385 32.048 198.385 32.464C198.385 32.8693 198.47 33.232 198.641 33.552C198.812 33.8613 199.046 34.1013 199.345 34.272C199.644 34.4427 199.99 34.528 200.385 34.528ZM205.755 30.128V27.92H207.995V30.128H205.755ZM205.755 36V33.776H207.995V36H205.755ZM213.483 36.16C212.705 36.16 211.958 36.048 211.243 35.824C210.529 35.5893 209.942 35.2693 209.483 34.864L210.155 33.312C210.657 33.696 211.174 33.9787 211.707 34.16C212.251 34.3413 212.822 34.432 213.419 34.432C214.145 34.432 214.694 34.288 215.067 34C215.441 33.712 215.627 33.2907 215.627 32.736C215.627 32.2027 215.441 31.8027 215.067 31.536C214.705 31.2587 214.171 31.12 213.467 31.12H211.643V29.472H213.291C213.899 29.472 214.385 29.3227 214.747 29.024C215.11 28.7253 215.291 28.3147 215.291 27.792C215.291 27.3013 215.121 26.928 214.779 26.672C214.449 26.416 213.969 26.288 213.339 26.288C212.209 26.288 211.211 26.672 210.347 27.44L209.675 25.904C210.134 25.4773 210.699 25.1467 211.371 24.912C212.054 24.6773 212.769 24.56 213.515 24.56C214.689 24.56 215.606 24.8267 216.267 25.36C216.939 25.8827 217.275 26.6133 217.275 27.552C217.275 28.224 217.083 28.8053 216.699 29.296C216.326 29.776 215.809 30.096 215.147 30.256V30.064C215.926 30.192 216.529 30.512 216.955 31.024C217.393 31.5253 217.611 32.1547 217.611 32.912C217.611 33.9147 217.243 34.7093 216.507 35.296C215.771 35.872 214.763 36.16 213.483 36.16ZM223.253 36.16C221.93 36.16 220.912 35.6587 220.197 34.656C219.482 33.6427 219.125 32.2027 219.125 30.336C219.125 28.448 219.482 27.0133 220.197 26.032C220.912 25.0507 221.93 24.56 223.253 24.56C224.586 24.56 225.605 25.0507 226.309 26.032C227.024 27.0133 227.381 28.4427 227.381 30.32C227.381 32.1973 227.024 33.6427 226.309 34.656C225.605 35.6587 224.586 36.16 223.253 36.16ZM223.253 34.464C223.978 34.464 224.517 34.1333 224.869 33.472C225.221 32.8 225.397 31.7493 225.397 30.32C225.397 28.8907 225.221 27.856 224.869 27.216C224.517 26.5653 223.978 26.24 223.253 26.24C222.538 26.24 222 26.5653 221.637 27.216C221.285 27.856 221.109 28.8907 221.109 30.32C221.109 31.7493 221.285 32.8 221.637 33.472C222 34.1333 222.538 34.464 223.253 34.464Z" fill="white"/>
<path d="M91.404 76V66.416H87.676V64.72H97.196V66.416H93.468V76H91.404ZM101.148 76.16C99.7936 76.16 98.7323 75.7867 97.9643 75.04C97.1963 74.2933 96.8123 73.2693 96.8123 71.968C96.8123 71.1253 96.9776 70.3893 97.3083 69.76C97.6389 69.1307 98.0976 68.64 98.6843 68.288C99.2816 67.936 99.9749 67.76 100.764 67.76C101.543 67.76 102.194 67.9253 102.716 68.256C103.239 68.5867 103.634 69.0507 103.9 69.648C104.178 70.2453 104.316 70.944 104.316 71.744V72.272H98.4283V71.216H102.892L102.62 71.44C102.62 70.6933 102.46 70.1227 102.14 69.728C101.831 69.3333 101.378 69.136 100.78 69.136C100.119 69.136 99.6069 69.3707 99.2443 69.84C98.8923 70.3093 98.7163 70.9653 98.7163 71.808V72.016C98.7163 72.8907 98.9296 73.5467 99.3563 73.984C99.7936 74.4107 100.407 74.624 101.196 74.624C101.655 74.624 102.082 74.5653 102.476 74.448C102.882 74.32 103.266 74.1173 103.628 73.84L104.22 75.184C103.836 75.4933 103.378 75.7333 102.844 75.904C102.311 76.0747 101.746 76.16 101.148 76.16ZM109.13 76.16C108.426 76.16 107.807 75.9947 107.274 75.664C106.741 75.3227 106.325 74.8373 106.026 74.208C105.727 73.5787 105.578 72.8267 105.578 71.952C105.578 71.0773 105.727 70.3307 106.026 69.712C106.325 69.0827 106.741 68.6027 107.274 68.272C107.807 67.9307 108.426 67.76 109.13 67.76C109.813 67.76 110.41 67.9307 110.922 68.272C111.445 68.6027 111.791 69.0507 111.962 69.616H111.786L111.962 67.92H113.882C113.85 68.2507 113.818 68.5867 113.786 68.928C113.765 69.2693 113.754 69.6053 113.754 69.936V76H111.77L111.754 74.336H111.946C111.775 74.8907 111.429 75.3333 110.906 75.664C110.383 75.9947 109.791 76.16 109.13 76.16ZM109.69 74.624C110.319 74.624 110.826 74.4053 111.21 73.968C111.594 73.52 111.786 72.848 111.786 71.952C111.786 71.056 111.594 70.3893 111.21 69.952C110.826 69.5147 110.319 69.296 109.69 69.296C109.061 69.296 108.554 69.5147 108.17 69.952C107.786 70.3893 107.594 71.056 107.594 71.952C107.594 72.848 107.781 73.52 108.154 73.968C108.538 74.4053 109.05 74.624 109.69 74.624ZM124.946 76.16C124.264 76.16 123.666 75.9947 123.154 75.664C122.642 75.3227 122.301 74.864 122.13 74.288H122.306V76H120.322V64.224H122.322V69.568H122.13C122.312 69.0133 122.658 68.576 123.17 68.256C123.682 67.9253 124.274 67.76 124.946 67.76C125.661 67.76 126.285 67.9307 126.818 68.272C127.352 68.6133 127.768 69.0987 128.066 69.728C128.365 70.3467 128.514 71.0933 128.514 71.968C128.514 72.8427 128.365 73.5947 128.066 74.224C127.768 74.8427 127.346 75.3227 126.802 75.664C126.269 75.9947 125.65 76.16 124.946 76.16ZM124.386 74.624C125.016 74.624 125.522 74.4053 125.906 73.968C126.301 73.5307 126.498 72.864 126.498 71.968C126.498 71.072 126.301 70.4053 125.906 69.968C125.522 69.52 125.016 69.296 124.386 69.296C123.757 69.296 123.25 69.5147 122.866 69.952C122.482 70.3893 122.29 71.056 122.29 71.952C122.29 72.848 122.482 73.52 122.866 73.968C123.25 74.4053 123.757 74.624 124.386 74.624ZM130.228 76V69.984C130.228 69.6427 130.218 69.296 130.196 68.944C130.186 68.592 130.159 68.2507 130.116 67.92H132.052L132.276 70.128H131.956C132.063 69.5947 132.239 69.152 132.484 68.8C132.74 68.448 133.05 68.1867 133.412 68.016C133.775 67.8453 134.17 67.76 134.596 67.76C134.788 67.76 134.943 67.7707 135.06 67.792C135.178 67.8027 135.295 67.8293 135.412 67.872L135.396 69.632C135.194 69.5467 135.018 69.4933 134.868 69.472C134.73 69.4507 134.554 69.44 134.34 69.44C133.882 69.44 133.492 69.536 133.172 69.728C132.863 69.92 132.628 70.1867 132.468 70.528C132.319 70.8693 132.244 71.2587 132.244 71.696V76H130.228ZM140.305 76.16C138.95 76.16 137.889 75.7867 137.121 75.04C136.353 74.2933 135.969 73.2693 135.969 71.968C135.969 71.1253 136.134 70.3893 136.465 69.76C136.795 69.1307 137.254 68.64 137.841 68.288C138.438 67.936 139.131 67.76 139.921 67.76C140.699 67.76 141.35 67.9253 141.873 68.256C142.395 68.5867 142.79 69.0507 143.057 69.648C143.334 70.2453 143.473 70.944 143.473 71.744V72.272H137.585V71.216H142.049L141.777 71.44C141.777 70.6933 141.617 70.1227 141.297 69.728C140.987 69.3333 140.534 69.136 139.937 69.136C139.275 69.136 138.763 69.3707 138.401 69.84C138.049 70.3093 137.873 70.9653 137.873 71.808V72.016C137.873 72.8907 138.086 73.5467 138.513 73.984C138.95 74.4107 139.563 74.624 140.353 74.624C140.811 74.624 141.238 74.5653 141.633 74.448C142.038 74.32 142.422 74.1173 142.785 73.84L143.377 75.184C142.993 75.4933 142.534 75.7333 142.001 75.904C141.467 76.0747 140.902 76.16 140.305 76.16ZM148.286 76.16C147.582 76.16 146.963 75.9947 146.43 75.664C145.897 75.3227 145.481 74.8373 145.182 74.208C144.883 73.5787 144.734 72.8267 144.734 71.952C144.734 71.0773 144.883 70.3307 145.182 69.712C145.481 69.0827 145.897 68.6027 146.43 68.272C146.963 67.9307 147.582 67.76 148.286 67.76C148.969 67.76 149.566 67.9307 150.078 68.272C150.601 68.6027 150.947 69.0507 151.118 69.616H150.942L151.118 67.92H153.038C153.006 68.2507 152.974 68.5867 152.942 68.928C152.921 69.2693 152.91 69.6053 152.91 69.936V76H150.926L150.91 74.336H151.102C150.931 74.8907 150.585 75.3333 150.062 75.664C149.539 75.9947 148.947 76.16 148.286 76.16ZM148.846 74.624C149.475 74.624 149.982 74.4053 150.366 73.968C150.75 73.52 150.942 72.848 150.942 71.952C150.942 71.056 150.75 70.3893 150.366 69.952C149.982 69.5147 149.475 69.296 148.846 69.296C148.217 69.296 147.71 69.5147 147.326 69.952C146.942 70.3893 146.75 71.056 146.75 71.952C146.75 72.848 146.937 73.52 147.31 73.968C147.694 74.4053 148.206 74.624 148.846 74.624ZM155.088 76V64.224H157.088V71.36H157.12L160.4 67.92H162.816L158.736 72.192L158.752 71.392L163.104 76H160.624L157.12 72.384H157.088V76H155.088ZM177.747 76.16C177.256 75.9893 176.787 75.76 176.339 75.472C175.891 75.1733 175.485 74.8587 175.123 74.528L175.555 74.544C175.064 75.0453 174.493 75.44 173.843 75.728C173.192 76.016 172.499 76.16 171.763 76.16C170.941 76.16 170.232 76.032 169.635 75.776C169.037 75.52 168.579 75.168 168.259 74.72C167.939 74.2613 167.779 73.728 167.779 73.12C167.779 72.3947 167.992 71.776 168.419 71.264C168.845 70.752 169.432 70.272 170.179 69.824L170.723 69.52L170.419 69.888C169.96 69.4293 169.619 68.9867 169.395 68.56C169.171 68.1333 169.059 67.6907 169.059 67.232C169.059 66.6987 169.187 66.2347 169.443 65.84C169.709 65.4347 170.077 65.12 170.547 64.896C171.027 64.672 171.587 64.56 172.227 64.56C173.059 64.56 173.736 64.784 174.259 65.232C174.781 65.6693 175.043 66.2667 175.043 67.024C175.043 67.4293 174.963 67.808 174.803 68.16C174.643 68.512 174.381 68.848 174.019 69.168C173.667 69.488 173.203 69.808 172.627 70.128L172.675 69.728L175.475 72.624H175.059C175.336 72.1867 175.549 71.6747 175.699 71.088C175.848 70.5013 175.939 69.8827 175.971 69.232H177.651C177.619 70.1067 177.48 70.9333 177.235 71.712C176.989 72.4907 176.659 73.1787 176.243 73.776L176.227 73.296C176.515 73.5947 176.845 73.8667 177.219 74.112C177.592 74.3573 177.997 74.56 178.435 74.72L177.747 76.16ZM171.875 74.608C172.408 74.608 172.883 74.5067 173.299 74.304C173.725 74.1013 174.104 73.8027 174.435 73.408L174.387 73.888L171.027 70.48L171.843 70.496L171.379 70.752C171.016 70.976 170.712 71.2 170.467 71.424C170.232 71.648 170.056 71.888 169.939 72.144C169.821 72.3893 169.763 72.672 169.763 72.992C169.763 73.4933 169.944 73.888 170.307 74.176C170.669 74.464 171.192 74.608 171.875 74.608ZM172.227 65.92C171.821 65.92 171.496 66.0373 171.251 66.272C171.005 66.5067 170.883 66.816 170.883 67.2C170.883 67.4027 170.92 67.5947 170.995 67.776C171.069 67.9573 171.192 68.1547 171.363 68.368C171.533 68.5707 171.757 68.8213 172.035 69.12L171.555 69.152C172.216 68.7893 172.696 68.4587 172.995 68.16C173.304 67.8507 173.459 67.4987 173.459 67.104C173.459 66.7307 173.347 66.4427 173.123 66.24C172.899 66.0267 172.6 65.92 172.227 65.92ZM183.873 76V64.72H185.425L191.969 73.184H191.553V64.72H193.473V76H191.921L185.393 67.536H185.793V76H183.873ZM199.695 76.16C198.34 76.16 197.279 75.7867 196.511 75.04C195.743 74.2933 195.359 73.2693 195.359 71.968C195.359 71.1253 195.524 70.3893 195.855 69.76C196.186 69.1307 196.644 68.64 197.231 68.288C197.828 67.936 198.522 67.76 199.311 67.76C200.09 67.76 200.74 67.9253 201.263 68.256C201.786 68.5867 202.18 69.0507 202.447 69.648C202.724 70.2453 202.863 70.944 202.863 71.744V72.272H196.975V71.216H201.439L201.167 71.44C201.167 70.6933 201.007 70.1227 200.687 69.728C200.378 69.3333 199.924 69.136 199.327 69.136C198.666 69.136 198.154 69.3707 197.791 69.84C197.439 70.3093 197.263 70.9653 197.263 71.808V72.016C197.263 72.8907 197.476 73.5467 197.903 73.984C198.34 74.4107 198.954 74.624 199.743 74.624C200.202 74.624 200.628 74.5653 201.023 74.448C201.428 74.32 201.812 74.1173 202.175 73.84L202.767 75.184C202.383 75.4933 201.924 75.7333 201.391 75.904C200.858 76.0747 200.292 76.16 199.695 76.16ZM207.982 76.16C207.022 76.16 206.296 75.9093 205.806 75.408C205.315 74.9067 205.07 74.1547 205.07 73.152V69.424H203.518V67.92H205.07V65.856L207.07 65.344V67.92H209.23V69.424H207.07V73.024C207.07 73.5787 207.176 73.968 207.39 74.192C207.603 74.416 207.896 74.528 208.27 74.528C208.472 74.528 208.643 74.512 208.782 74.48C208.931 74.448 209.075 74.4053 209.214 74.352V75.936C209.032 76.0107 208.83 76.064 208.606 76.096C208.392 76.1387 208.184 76.16 207.982 76.16ZM212.953 76L209.801 67.92H211.865L214.137 74.208H213.721L216.025 67.92H217.449L219.737 74.208H219.369L221.625 67.92H223.577L220.425 76H218.665L216.249 69.568H217.097L214.729 76H212.953ZM228.33 76.16C227.498 76.16 226.778 75.9893 226.17 75.648C225.562 75.3067 225.087 74.8213 224.746 74.192C224.415 73.5627 224.25 72.816 224.25 71.952C224.25 71.088 224.415 70.3467 224.746 69.728C225.087 69.0987 225.562 68.6133 226.17 68.272C226.778 67.9307 227.498 67.76 228.33 67.76C229.162 67.76 229.882 67.9307 230.49 68.272C231.108 68.6133 231.583 69.0987 231.914 69.728C232.255 70.3467 232.426 71.088 232.426 71.952C232.426 72.816 232.255 73.5627 231.914 74.192C231.583 74.8213 231.108 75.3067 230.49 75.648C229.882 75.9893 229.162 76.16 228.33 76.16ZM228.33 74.624C228.959 74.624 229.46 74.4053 229.834 73.968C230.207 73.52 230.394 72.848 230.394 71.952C230.394 71.056 230.207 70.3893 229.834 69.952C229.46 69.5147 228.959 69.296 228.33 69.296C227.7 69.296 227.199 69.5147 226.826 69.952C226.452 70.3893 226.266 71.056 226.266 71.952C226.266 72.848 226.452 73.52 226.826 73.968C227.199 74.4053 227.7 74.624 228.33 74.624ZM234.135 76V69.984C234.135 69.6427 234.124 69.296 234.103 68.944C234.092 68.592 234.065 68.2507 234.023 67.92H235.959L236.183 70.128H235.863C235.969 69.5947 236.145 69.152 236.391 68.8C236.647 68.448 236.956 68.1867 237.319 68.016C237.681 67.8453 238.076 67.76 238.503 67.76C238.695 67.76 238.849 67.7707 238.967 67.792C239.084 67.8027 239.201 67.8293 239.319 67.872L239.303 69.632C239.1 69.5467 238.924 69.4933 238.775 69.472C238.636 69.4507 238.46 69.44 238.247 69.44C237.788 69.44 237.399 69.536 237.079 69.728C236.769 69.92 236.535 70.1867 236.375 70.528C236.225 70.8693 236.151 71.2587 236.151 71.696V76H234.135ZM240.432 76V64.224H242.432V71.36H242.464L245.744 67.92H248.16L244.08 72.192L244.096 71.392L248.448 76H245.968L242.464 72.384H242.432V76H240.432ZM249.26 76V67.92H251.26V76H249.26ZM249.148 66.4V64.448H251.372V66.4H249.148ZM253.432 76V69.936C253.432 69.6053 253.421 69.2693 253.4 68.928C253.378 68.5867 253.346 68.2507 253.304 67.92H255.24L255.4 69.52H255.208C255.464 68.9547 255.842 68.5227 256.344 68.224C256.845 67.9147 257.426 67.76 258.088 67.76C259.037 67.76 259.752 68.0267 260.232 68.56C260.712 69.0933 260.952 69.9253 260.952 71.056V76H258.952V71.152C258.952 70.5013 258.824 70.0373 258.568 69.76C258.322 69.472 257.949 69.328 257.448 69.328C256.829 69.328 256.338 69.52 255.976 69.904C255.613 70.288 255.432 70.8 255.432 71.44V76H253.432ZM266.816 79.584C266.07 79.584 265.392 79.504 264.784 79.344C264.187 79.184 263.654 78.9387 263.184 78.608L263.616 77.168C263.926 77.3707 264.246 77.536 264.576 77.664C264.907 77.792 265.248 77.888 265.6 77.952C265.952 78.016 266.31 78.048 266.672 78.048C267.419 78.048 267.974 77.8613 268.336 77.488C268.71 77.1253 268.896 76.6027 268.896 75.92V73.984H269.056C268.886 74.5387 268.539 74.9813 268.016 75.312C267.504 75.6427 266.912 75.808 266.24 75.808C265.515 75.808 264.88 75.648 264.336 75.328C263.803 74.9973 263.387 74.528 263.088 73.92C262.79 73.312 262.64 72.5973 262.64 71.776C262.64 70.9547 262.79 70.2453 263.088 69.648C263.387 69.04 263.803 68.576 264.336 68.256C264.88 67.9253 265.515 67.76 266.24 67.76C266.923 67.76 267.515 67.9253 268.016 68.256C268.528 68.576 268.87 69.0133 269.04 69.568L268.896 69.472L269.056 67.92H270.992C270.95 68.2507 270.918 68.5867 270.896 68.928C270.875 69.2693 270.864 69.6053 270.864 69.936V75.68C270.864 76.9493 270.518 77.9147 269.824 78.576C269.142 79.248 268.139 79.584 266.816 79.584ZM266.784 74.272C267.424 74.272 267.931 74.0587 268.304 73.632C268.688 73.1947 268.88 72.576 268.88 71.776C268.88 70.976 268.688 70.3627 268.304 69.936C267.931 69.5093 267.424 69.296 266.784 69.296C266.134 69.296 265.616 69.5093 265.232 69.936C264.848 70.3627 264.656 70.976 264.656 71.776C264.656 72.576 264.848 73.1947 265.232 73.632C265.616 74.0587 266.134 74.272 266.784 74.272Z" fill="black"/>
<defs>
<linearGradient id="paint0_linear_8_272" x1="32.9845" y1="32" x2="341.288" y2="32" gradientUnits="userSpaceOnUse">
<stop stop-color="#00CCFF"/>
<stop offset="1" stop-color="#FF00FF"/>
</linearGradient>
</defs>
</svg>
