<svg width="360" height="84" viewBox="0 0 360 84" fill="none" xmlns="http://www.w3.org/2000/svg">
<rect x="123.5" y="8" width="113" height="40" rx="8" fill="url(#paint0_linear_1_53)"/>
<path d="M133.729 34.5V32.788H136.321V24.948H137.313L133.985 26.932V24.98L136.913 23.22H138.385V32.788H140.817V34.5H133.729ZM146.171 34.66C145.392 34.66 144.646 34.548 143.931 34.324C143.216 34.0893 142.63 33.7693 142.171 33.364L142.843 31.812C143.344 32.196 143.862 32.4787 144.395 32.66C144.939 32.8413 145.51 32.932 146.107 32.932C146.832 32.932 147.382 32.788 147.755 32.5C148.128 32.212 148.315 31.7907 148.315 31.236C148.315 30.7027 148.128 30.3027 147.755 30.036C147.392 29.7587 146.859 29.62 146.155 29.62H144.331V27.972H145.979C146.587 27.972 147.072 27.8227 147.435 27.524C147.798 27.2253 147.979 26.8147 147.979 26.292C147.979 25.8013 147.808 25.428 147.467 25.172C147.136 24.916 146.656 24.788 146.027 24.788C144.896 24.788 143.899 25.172 143.035 25.94L142.363 24.404C142.822 23.9773 143.387 23.6467 144.059 23.412C144.742 23.1773 145.456 23.06 146.203 23.06C147.376 23.06 148.294 23.3267 148.955 23.86C149.627 24.3827 149.963 25.1133 149.963 26.052C149.963 26.724 149.771 27.3053 149.387 27.796C149.014 28.276 148.496 28.596 147.835 28.756V28.564C148.614 28.692 149.216 29.012 149.643 29.524C150.08 30.0253 150.299 30.6547 150.299 31.412C150.299 32.4147 149.931 33.2093 149.195 33.796C148.459 34.372 147.451 34.66 146.171 34.66ZM152.005 28.628V26.42H154.245V28.628H152.005ZM152.005 34.5V32.276H154.245V34.5H152.005ZM159.733 34.66C158.955 34.66 158.208 34.548 157.493 34.324C156.779 34.0893 156.192 33.7693 155.733 33.364L156.405 31.812C156.907 32.196 157.424 32.4787 157.957 32.66C158.501 32.8413 159.072 32.932 159.669 32.932C160.395 32.932 160.944 32.788 161.317 32.5C161.691 32.212 161.877 31.7907 161.877 31.236C161.877 30.7027 161.691 30.3027 161.317 30.036C160.955 29.7587 160.421 29.62 159.717 29.62H157.893V27.972H159.541C160.149 27.972 160.635 27.8227 160.997 27.524C161.36 27.2253 161.541 26.8147 161.541 26.292C161.541 25.8013 161.371 25.428 161.029 25.172C160.699 24.916 160.219 24.788 159.589 24.788C158.459 24.788 157.461 25.172 156.597 25.94L155.925 24.404C156.384 23.9773 156.949 23.6467 157.621 23.412C158.304 23.1773 159.019 23.06 159.765 23.06C160.939 23.06 161.856 23.3267 162.517 23.86C163.189 24.3827 163.525 25.1133 163.525 26.052C163.525 26.724 163.333 27.3053 162.949 27.796C162.576 28.276 162.059 28.596 161.397 28.756V28.564C162.176 28.692 162.779 29.012 163.205 29.524C163.643 30.0253 163.861 30.6547 163.861 31.412C163.861 32.4147 163.493 33.2093 162.757 33.796C162.021 34.372 161.013 34.66 159.733 34.66ZM169.503 34.66C168.18 34.66 167.162 34.1587 166.447 33.156C165.732 32.1427 165.375 30.7027 165.375 28.836C165.375 26.948 165.732 25.5133 166.447 24.532C167.162 23.5507 168.18 23.06 169.503 23.06C170.836 23.06 171.855 23.5507 172.559 24.532C173.274 25.5133 173.631 26.9427 173.631 28.82C173.631 30.6973 173.274 32.1427 172.559 33.156C171.855 34.1587 170.836 34.66 169.503 34.66ZM169.503 32.964C170.228 32.964 170.767 32.6333 171.119 31.972C171.471 31.3 171.647 30.2493 171.647 28.82C171.647 27.3907 171.471 26.356 171.119 25.716C170.767 25.0653 170.228 24.74 169.503 24.74C168.788 24.74 168.25 25.0653 167.887 25.716C167.535 26.356 167.359 27.3907 167.359 28.82C167.359 30.2493 167.535 31.3 167.887 31.972C168.25 32.6333 168.788 32.964 169.503 32.964ZM175.369 30.884V29.3H180.233V30.884H175.369ZM187.479 34.5V32.788H190.071V24.948H191.063L187.735 26.932V24.98L190.663 23.22H192.135V32.788H194.567V34.5H187.479ZM200.993 34.5V32.292H195.953V30.852L201.313 23.22H202.977V30.724H204.593V32.292H202.977V34.5H200.993ZM200.993 30.724V25.652H201.377L197.489 31.204V30.724H200.993ZM205.755 28.628V26.42H207.995V28.628H205.755ZM205.755 34.5V32.276H207.995V34.5H205.755ZM210.635 34.5V32.788H213.227V24.948H214.219L210.891 26.932V24.98L213.819 23.22H215.291V32.788H217.723V34.5H210.635ZM223.333 34.66C222.842 34.66 222.352 34.6067 221.861 34.5C221.381 34.3933 220.928 34.244 220.501 34.052C220.085 33.86 219.728 33.6307 219.429 33.364L220.101 31.812C220.602 32.1853 221.114 32.468 221.637 32.66C222.17 32.8413 222.725 32.932 223.301 32.932C223.994 32.932 224.533 32.7613 224.917 32.42C225.312 32.068 225.509 31.5987 225.509 31.012C225.509 30.4147 225.322 29.9347 224.949 29.572C224.576 29.1987 224.064 29.012 223.413 29.012C222.954 29.012 222.533 29.1027 222.149 29.284C221.776 29.4547 221.44 29.7213 221.141 30.084H219.781V23.22H226.789V24.916H221.733V28.5H221.237C221.514 28.1267 221.882 27.8387 222.341 27.636C222.81 27.4333 223.333 27.332 223.909 27.332C224.634 27.332 225.264 27.4813 225.797 27.78C226.33 28.0787 226.746 28.5 227.045 29.044C227.344 29.5773 227.493 30.2067 227.493 30.932C227.493 31.668 227.322 32.3187 226.981 32.884C226.65 33.4387 226.17 33.876 225.541 34.196C224.922 34.5053 224.186 34.66 223.333 34.66Z" fill="white"/>
<path d="M74.2949 72V60.72H79.3029C80.5402 60.72 81.4842 61.0187 82.1349 61.616C82.7855 62.2133 83.1109 63.0347 83.1109 64.08C83.1109 65.1147 82.7855 65.936 82.1349 66.544C81.4842 67.152 80.5402 67.456 79.3029 67.456H76.3589V72H74.2949ZM76.3589 65.824H79.0629C79.7455 65.824 80.2575 65.6747 80.5989 65.376C80.9402 65.0667 81.1109 64.6347 81.1109 64.08C81.1109 63.5253 80.9402 63.0987 80.5989 62.8C80.2575 62.4907 79.7455 62.336 79.0629 62.336H76.3589V65.824ZM84.7911 72V60.224H86.7911V65.536H86.5671C86.8125 64.96 87.1911 64.5227 87.7031 64.224C88.2151 63.9147 88.8018 63.76 89.4631 63.76C90.4231 63.76 91.1378 64.032 91.6071 64.576C92.0765 65.1093 92.3111 65.9253 92.3111 67.024V72H90.3111V67.12C90.3111 66.4907 90.1885 66.0373 89.9431 65.76C89.7085 65.472 89.3298 65.328 88.8071 65.328C88.1991 65.328 87.7085 65.52 87.3351 65.904C86.9725 66.2773 86.7911 66.7787 86.7911 67.408V72H84.7911ZM94.4318 72V63.92H96.4318V72H94.4318ZM94.3198 62.4V60.448H96.5438V62.4H94.3198ZM102.508 72.16C101.153 72.16 100.092 71.7867 99.3236 71.04C98.5556 70.2933 98.1716 69.2693 98.1716 67.968C98.1716 67.1253 98.337 66.3893 98.6676 65.76C98.9983 65.1307 99.457 64.64 100.044 64.288C100.641 63.936 101.334 63.76 102.124 63.76C102.902 63.76 103.553 63.9253 104.076 64.256C104.598 64.5867 104.993 65.0507 105.26 65.648C105.537 66.2453 105.676 66.944 105.676 67.744V68.272H99.7876V67.216H104.252L103.98 67.44C103.98 66.6933 103.82 66.1227 103.5 65.728C103.19 65.3333 102.737 65.136 102.14 65.136C101.478 65.136 100.966 65.3707 100.604 65.84C100.252 66.3093 100.076 66.9653 100.076 67.808V68.016C100.076 68.8907 100.289 69.5467 100.716 69.984C101.153 70.4107 101.766 70.624 102.556 70.624C103.014 70.624 103.441 70.5653 103.836 70.448C104.241 70.32 104.625 70.1173 104.988 69.84L105.58 71.184C105.196 71.4933 104.737 71.7333 104.204 71.904C103.67 72.0747 103.105 72.16 102.508 72.16ZM99.4836 63.136L101.244 59.888H103.004L104.764 63.136H103.5L102.124 61.024L100.748 63.136H99.4836ZM107.369 72V65.936C107.369 65.6053 107.359 65.2693 107.337 64.928C107.316 64.5867 107.284 64.2507 107.241 63.92H109.177L109.337 65.52H109.145C109.401 64.9547 109.78 64.5227 110.281 64.224C110.783 63.9147 111.364 63.76 112.025 63.76C112.975 63.76 113.689 64.0267 114.169 64.56C114.649 65.0933 114.889 65.9253 114.889 67.056V72H112.889V67.152C112.889 66.5013 112.761 66.0373 112.505 65.76C112.26 65.472 111.887 65.328 111.385 65.328C110.767 65.328 110.276 65.52 109.913 65.904C109.551 66.288 109.369 66.8 109.369 67.44V72H107.369ZM121.561 72V70.48L125.305 66.576C125.774 66.0853 126.121 65.632 126.345 65.216C126.569 64.8 126.681 64.3733 126.681 63.936C126.681 63.392 126.51 62.9813 126.169 62.704C125.827 62.4267 125.331 62.288 124.681 62.288C124.158 62.288 123.657 62.384 123.177 62.576C122.697 62.7573 122.227 63.0453 121.769 63.44L121.097 61.904C121.555 61.4987 122.121 61.1733 122.793 60.928C123.475 60.6827 124.19 60.56 124.937 60.56C126.153 60.56 127.086 60.832 127.737 61.376C128.387 61.92 128.713 62.6987 128.713 63.712C128.713 64.416 128.547 65.088 128.217 65.728C127.886 66.3573 127.374 67.0187 126.681 67.712L123.561 70.832V70.288H129.161V72H121.561ZM130.77 66.128V63.92H133.01V66.128H130.77ZM130.77 72V69.776H133.01V72H130.77ZM142.17 72V62.416H138.442V60.72H147.962V62.416H144.234V72H142.17ZM149.26 72V60.224H151.26V65.536H151.036C151.281 64.96 151.66 64.5227 152.172 64.224C152.684 63.9147 153.271 63.76 153.932 63.76C154.892 63.76 155.607 64.032 156.076 64.576C156.545 65.1093 156.78 65.9253 156.78 67.024V72H154.78V67.12C154.78 66.4907 154.657 66.0373 154.412 65.76C154.177 65.472 153.799 65.328 153.276 65.328C152.668 65.328 152.177 65.52 151.804 65.904C151.441 66.2773 151.26 66.7787 151.26 67.408V72H149.26ZM158.901 72V63.92H160.901V72H158.901ZM158.789 62.4V60.448H161.013V62.4H158.789ZM166.976 72.16C165.622 72.16 164.56 71.7867 163.792 71.04C163.024 70.2933 162.64 69.2693 162.64 67.968C162.64 67.1253 162.806 66.3893 163.136 65.76C163.467 65.1307 163.926 64.64 164.512 64.288C165.11 63.936 165.803 63.76 166.592 63.76C167.371 63.76 168.022 63.9253 168.544 64.256C169.067 64.5867 169.462 65.0507 169.728 65.648C170.006 66.2453 170.144 66.944 170.144 67.744V68.272H164.256V67.216H168.72L168.448 67.44C168.448 66.6933 168.288 66.1227 167.968 65.728C167.659 65.3333 167.206 65.136 166.608 65.136C165.947 65.136 165.435 65.3707 165.072 65.84C164.72 66.3093 164.544 66.9653 164.544 67.808V68.016C164.544 68.8907 164.758 69.5467 165.184 69.984C165.622 70.4107 166.235 70.624 167.024 70.624C167.483 70.624 167.91 70.5653 168.304 70.448C168.71 70.32 169.094 70.1173 169.456 69.84L170.048 71.184C169.664 71.4933 169.206 71.7333 168.672 71.904C168.139 72.0747 167.574 72.16 166.976 72.16ZM163.952 63.216L165.712 60.608H167.472L169.232 63.216H167.968L166.592 61.696L165.216 63.216H163.952ZM168.336 61.52L169.68 59.12H171.344L169.472 61.52H168.336ZM175.263 72.16C174.303 72.16 173.577 71.9093 173.087 71.408C172.596 70.9067 172.351 70.1547 172.351 69.152V65.424H170.799V63.92H172.351V61.856L174.351 61.344V63.92H176.511V65.424H174.351V69.024C174.351 69.5787 174.457 69.968 174.671 70.192C174.884 70.416 175.177 70.528 175.551 70.528C175.753 70.528 175.924 70.512 176.063 70.48C176.212 70.448 176.356 70.4053 176.495 70.352V71.936C176.313 72.0107 176.111 72.064 175.887 72.096C175.673 72.1387 175.465 72.16 175.263 72.16ZM182.26 72V60.224H184.26V72H182.26ZM189.552 72.16C188.848 72.16 188.229 71.9947 187.696 71.664C187.162 71.3227 186.746 70.8373 186.448 70.208C186.149 69.5787 186 68.8267 186 67.952C186 67.0773 186.149 66.3307 186.448 65.712C186.746 65.0827 187.162 64.6027 187.696 64.272C188.229 63.9307 188.848 63.76 189.552 63.76C190.234 63.76 190.832 63.9307 191.344 64.272C191.866 64.6027 192.213 65.0507 192.384 65.616H192.208L192.384 63.92H194.304C194.272 64.2507 194.24 64.5867 194.208 64.928C194.186 65.2693 194.176 65.6053 194.176 65.936V72H192.192L192.176 70.336H192.368C192.197 70.8907 191.85 71.3333 191.328 71.664C190.805 71.9947 190.213 72.16 189.552 72.16ZM190.112 70.624C190.741 70.624 191.248 70.4053 191.632 69.968C192.016 69.52 192.208 68.848 192.208 67.952C192.208 67.056 192.016 66.3893 191.632 65.952C191.248 65.5147 190.741 65.296 190.112 65.296C189.482 65.296 188.976 65.5147 188.592 65.952C188.208 66.3893 188.016 67.056 188.016 67.952C188.016 68.848 188.202 69.52 188.576 69.968C188.96 70.4053 189.472 70.624 190.112 70.624ZM189.2 75.264V73.408H191.152V75.264H189.2ZM187.584 63.136L189.344 59.888H191.104L192.864 63.136H191.6L190.224 61.024L188.848 63.136H187.584ZM196.354 75.456V65.936C196.354 65.6053 196.343 65.2693 196.322 64.928C196.3 64.5867 196.268 64.2507 196.226 63.92H198.162L198.338 65.616H198.162C198.322 65.0507 198.658 64.6027 199.17 64.272C199.692 63.9307 200.295 63.76 200.978 63.76C201.692 63.76 202.316 63.9307 202.85 64.272C203.383 64.6027 203.799 65.0827 204.098 65.712C204.396 66.3307 204.546 67.0773 204.546 67.952C204.546 68.8267 204.396 69.5787 204.098 70.208C203.799 70.8373 203.383 71.3227 202.85 71.664C202.316 71.9947 201.692 72.16 200.978 72.16C200.306 72.16 199.714 71.9947 199.202 71.664C198.69 71.3333 198.348 70.8907 198.178 70.336H198.354V75.456H196.354ZM200.418 70.624C201.058 70.624 201.57 70.4053 201.954 69.968C202.338 69.52 202.53 68.848 202.53 67.952C202.53 67.056 202.338 66.3893 201.954 65.952C201.57 65.5147 201.058 65.296 200.418 65.296C199.788 65.296 199.282 65.5147 198.898 65.952C198.514 66.3893 198.322 67.056 198.322 67.952C198.322 68.848 198.514 69.52 198.898 69.968C199.282 70.4053 199.788 70.624 200.418 70.624ZM214.41 75.584C213.663 75.584 212.986 75.504 212.378 75.344C211.781 75.184 211.247 74.9387 210.778 74.608L211.21 73.168C211.519 73.3707 211.839 73.536 212.17 73.664C212.501 73.792 212.842 73.888 213.194 73.952C213.546 74.016 213.903 74.048 214.266 74.048C215.013 74.048 215.567 73.8613 215.93 73.488C216.303 73.1253 216.49 72.6027 216.49 71.92V69.984H216.65C216.479 70.5387 216.133 70.9813 215.61 71.312C215.098 71.6427 214.506 71.808 213.834 71.808C213.109 71.808 212.474 71.648 211.93 71.328C211.397 70.9973 210.981 70.528 210.682 69.92C210.383 69.312 210.234 68.5973 210.234 67.776C210.234 66.9547 210.383 66.2453 210.682 65.648C210.981 65.04 211.397 64.576 211.93 64.256C212.474 63.9253 213.109 63.76 213.834 63.76C214.517 63.76 215.109 63.9253 215.61 64.256C216.122 64.576 216.463 65.0133 216.634 65.568L216.49 65.472L216.65 63.92H218.586C218.543 64.2507 218.511 64.5867 218.49 64.928C218.469 65.2693 218.458 65.6053 218.458 65.936V71.68C218.458 72.9493 218.111 73.9147 217.418 74.576C216.735 75.248 215.733 75.584 214.41 75.584ZM214.378 70.272C215.018 70.272 215.525 70.0587 215.898 69.632C216.282 69.1947 216.474 68.576 216.474 67.776C216.474 66.976 216.282 66.3627 215.898 65.936C215.525 65.5093 215.018 65.296 214.378 65.296C213.727 65.296 213.21 65.5093 212.826 65.936C212.442 66.3627 212.25 66.976 212.25 67.776C212.25 68.576 212.442 69.1947 212.826 69.632C213.21 70.0587 213.727 70.272 214.378 70.272ZM220.619 72V63.92H222.619V72H220.619ZM220.507 62.4V60.448H222.731V62.4H220.507ZM227.911 72.16C227.207 72.16 226.588 71.9947 226.055 71.664C225.522 71.3227 225.106 70.8373 224.807 70.208C224.508 69.5787 224.359 68.8267 224.359 67.952C224.359 67.0773 224.508 66.3307 224.807 65.712C225.106 65.0827 225.522 64.6027 226.055 64.272C226.588 63.9307 227.207 63.76 227.911 63.76C228.594 63.76 229.191 63.9307 229.703 64.272C230.226 64.6027 230.572 65.0507 230.743 65.616H230.567L230.743 63.92H232.663C232.631 64.2507 232.599 64.5867 232.567 64.928C232.546 65.2693 232.535 65.6053 232.535 65.936V72H230.551L230.535 70.336H230.727C230.556 70.8907 230.21 71.3333 229.687 71.664C229.164 71.9947 228.572 72.16 227.911 72.16ZM228.471 70.624C229.1 70.624 229.607 70.4053 229.991 69.968C230.375 69.52 230.567 68.848 230.567 67.952C230.567 67.056 230.375 66.3893 229.991 65.952C229.607 65.5147 229.1 65.296 228.471 65.296C227.842 65.296 227.335 65.5147 226.951 65.952C226.567 66.3893 226.375 67.056 226.375 67.952C226.375 68.848 226.562 69.52 226.935 69.968C227.319 70.4053 227.831 70.624 228.471 70.624ZM227.911 63.136L229.559 59.888H231.527L229.255 63.136H227.911ZM242.56 72.16C241.6 72.16 240.874 71.9093 240.384 71.408C239.893 70.9067 239.648 70.1547 239.648 69.152V65.424H238.096V63.92H239.648V61.856L241.648 61.344V63.92H243.808V65.424H241.648V69.024C241.648 69.5787 241.754 69.968 241.968 70.192C242.181 70.416 242.474 70.528 242.848 70.528C243.05 70.528 243.221 70.512 243.36 70.48C243.509 70.448 243.653 70.4053 243.792 70.352V71.936C243.61 72.0107 243.408 72.064 243.184 72.096C242.97 72.1387 242.762 72.16 242.56 72.16ZM245.15 72V65.984C245.15 65.6427 245.139 65.296 245.118 64.944C245.107 64.592 245.081 64.2507 245.038 63.92H246.974L247.198 66.128H246.878C246.985 65.5947 247.161 65.152 247.406 64.8C247.662 64.448 247.971 64.1867 248.334 64.016C248.697 63.8453 249.091 63.76 249.518 63.76C249.71 63.76 249.865 63.7707 249.982 63.792C250.099 63.8027 250.217 63.8293 250.334 63.872L250.318 65.632C250.115 65.5467 249.939 65.4933 249.79 65.472C249.651 65.4507 249.475 65.44 249.262 65.44C248.803 65.44 248.414 65.536 248.094 65.728C247.785 65.92 247.55 66.1867 247.39 66.528C247.241 66.8693 247.166 67.2587 247.166 67.696V72H245.15ZM251.447 72V63.92H253.447V72H251.447ZM251.335 62.4V60.448H253.559V62.4H251.335ZM251.527 75.264V73.408H253.479V75.264H251.527ZM260.01 72V65.936C260.01 65.6053 259.999 65.2693 259.978 64.928C259.957 64.5867 259.925 64.2507 259.882 63.92H261.818L261.978 65.52H261.786C262.01 64.9653 262.351 64.5333 262.81 64.224C263.279 63.9147 263.834 63.76 264.474 63.76C265.114 63.76 265.642 63.9147 266.058 64.224C266.485 64.5227 266.783 64.992 266.954 65.632H266.698C266.922 65.056 267.29 64.6027 267.802 64.272C268.314 63.9307 268.901 63.76 269.562 63.76C270.469 63.76 271.146 64.0267 271.594 64.56C272.042 65.0933 272.266 65.9253 272.266 67.056V72H270.266V67.136C270.266 66.496 270.159 66.0373 269.946 65.76C269.733 65.472 269.391 65.328 268.922 65.328C268.367 65.328 267.93 65.5253 267.61 65.92C267.29 66.304 267.13 66.8267 267.13 67.488V72H265.13V67.136C265.13 66.496 265.023 66.0373 264.81 65.76C264.597 65.472 264.255 65.328 263.786 65.328C263.231 65.328 262.794 65.5253 262.474 65.92C262.165 66.304 262.01 66.8267 262.01 67.488V72H260.01ZM278.049 72.16C277.217 72.16 276.497 71.9893 275.889 71.648C275.281 71.3067 274.806 70.8213 274.465 70.192C274.134 69.5627 273.969 68.816 273.969 67.952C273.969 67.088 274.134 66.3467 274.465 65.728C274.806 65.0987 275.281 64.6133 275.889 64.272C276.497 63.9307 277.217 63.76 278.049 63.76C278.881 63.76 279.601 63.9307 280.209 64.272C280.827 64.6133 281.302 65.0987 281.633 65.728C281.974 66.3467 282.145 67.088 282.145 67.952C282.145 68.816 281.974 69.5627 281.633 70.192C281.302 70.8213 280.827 71.3067 280.209 71.648C279.601 71.9893 278.881 72.16 278.049 72.16ZM278.049 70.624C278.678 70.624 279.179 70.4053 279.553 69.968C279.926 69.52 280.113 68.848 280.113 67.952C280.113 67.056 279.926 66.3893 279.553 65.952C279.179 65.5147 278.678 65.296 278.049 65.296C277.419 65.296 276.918 65.5147 276.545 65.952C276.171 66.3893 275.985 67.056 275.985 67.952C275.985 68.848 276.171 69.52 276.545 69.968C276.918 70.4053 277.419 70.624 278.049 70.624ZM280.081 64.944L278.929 64.224V63.92C279.313 63.9093 279.617 63.856 279.841 63.76C280.075 63.6533 280.246 63.4773 280.353 63.232C280.459 62.9867 280.513 62.6507 280.513 62.224V61.888H282.241V62.48C282.241 62.9387 282.15 63.344 281.969 63.696C281.798 64.048 281.553 64.336 281.233 64.56C280.913 64.7733 280.529 64.9013 280.081 64.944ZM277.217 63.136L278.865 59.888H280.833L278.561 63.136H277.217ZM283.869 72V63.92H285.869V72H283.869ZM283.757 62.4V60.448H285.981V62.4H283.757Z" fill="black"/>
<defs>
<linearGradient id="paint0_linear_1_53" x1="32.9845" y1="28" x2="341.288" y2="28" gradientUnits="userSpaceOnUse">
<stop stop-color="#00CCFF"/>
<stop offset="1" stop-color="#FF00FF"/>
</linearGradient>
</defs>
</svg>
