<svg width="360" height="168" viewBox="0 0 360 168" fill="none" xmlns="http://www.w3.org/2000/svg">
<rect width="360" height="168" rx="24" fill="white"/>
<path d="M24.0056 28.576C23.483 28.576 22.9976 28.4533 22.5496 28.208C22.1016 27.952 21.7443 27.6053 21.4776 27.168C21.211 26.7307 21.0776 26.2453 21.0776 25.712C21.0776 25.2213 21.2003 24.7573 21.4456 24.32C21.7016 23.8827 22.0483 23.5307 22.4856 23.264C22.9336 22.9867 23.4403 22.848 24.0056 22.848C24.5283 22.848 25.0083 22.976 25.4456 23.232C25.883 23.4773 26.235 23.8133 26.5016 24.24C26.779 24.6667 26.9176 25.1573 26.9176 25.712C26.9176 26.2347 26.7843 26.7147 26.5176 27.152C26.2616 27.5893 25.9096 27.936 25.4616 28.192C25.0243 28.448 24.539 28.576 24.0056 28.576ZM37.408 30V18.72H42C43.184 18.72 44.096 19.008 44.736 19.584C45.376 20.1493 45.696 20.9387 45.696 21.952C45.696 22.944 45.376 23.7333 44.736 24.32C44.096 24.896 43.184 25.184 42 25.184H38.736V30H37.408ZM38.736 24.08H41.872C42.6933 24.08 43.312 23.8933 43.728 23.52C44.1547 23.1467 44.368 22.624 44.368 21.952C44.368 21.2693 44.1547 20.7413 43.728 20.368C43.312 19.9947 42.6933 19.808 41.872 19.808H38.736V24.08ZM47.6859 30V18.224H48.9819V23.744H48.7739C48.9979 23.1147 49.3712 22.64 49.8939 22.32C50.4272 21.9893 51.0405 21.824 51.7339 21.824C52.6939 21.824 53.4085 22.0853 53.8779 22.608C54.3472 23.12 54.5819 23.8987 54.5819 24.944V30H53.2859V25.024C53.2859 24.2773 53.1365 23.7333 52.8379 23.392C52.5499 23.0507 52.0805 22.88 51.4299 22.88C50.6832 22.88 50.0859 23.1093 49.6379 23.568C49.2005 24.0267 48.9819 24.6293 48.9819 25.376V30H47.6859ZM60.1169 30.144C59.4022 30.144 58.7782 29.9787 58.2449 29.648C57.7115 29.3067 57.2955 28.8267 56.9969 28.208C56.7089 27.5893 56.5649 26.848 56.5649 25.984C56.5649 25.1093 56.7089 24.3627 56.9969 23.744C57.2955 23.1253 57.7115 22.6507 58.2449 22.32C58.7782 21.9893 59.4022 21.824 60.1169 21.824C60.8422 21.824 61.4662 22.0107 61.9889 22.384C62.5222 22.7467 62.8742 23.2427 63.0449 23.872H62.8529L63.0289 21.968H64.2769C64.2449 22.2773 64.2129 22.592 64.1809 22.912C64.1595 23.2213 64.1489 23.5253 64.1489 23.824V30H62.8529V28.112H63.0289C62.8582 28.7413 62.5062 29.2373 61.9729 29.6C61.4395 29.9627 60.8209 30.144 60.1169 30.144ZM60.3729 29.088C61.1409 29.088 61.7489 28.8267 62.1969 28.304C62.6449 27.7707 62.8689 26.9973 62.8689 25.984C62.8689 24.96 62.6449 24.1867 62.1969 23.664C61.7489 23.1307 61.1409 22.864 60.3729 22.864C59.6155 22.864 59.0075 23.1307 58.5489 23.664C58.1009 24.1867 57.8769 24.96 57.8769 25.984C57.8769 26.9973 58.1009 27.7707 58.5489 28.304C59.0075 28.8267 59.6155 29.088 60.3729 29.088ZM60.0369 21.184L61.6849 17.952H63.0769L60.9649 21.184H60.0369ZM69.5026 30.144C68.7133 30.144 68.1106 29.92 67.6946 29.472C67.2786 29.0133 67.0706 28.3253 67.0706 27.408V22.976H65.5026V21.968H67.0706V19.776L68.3666 19.408V21.968H70.6706V22.976H68.3666V27.264C68.3666 27.904 68.4733 28.3627 68.6866 28.64C68.9106 28.9067 69.2413 29.04 69.6786 29.04C69.8813 29.04 70.0626 29.024 70.2226 28.992C70.3826 28.9493 70.5266 28.9013 70.6546 28.848V29.936C70.5053 30 70.324 30.048 70.1106 30.08C69.908 30.1227 69.7053 30.144 69.5026 30.144ZM81.3585 30.144C80.6332 30.144 80.0092 29.9627 79.4865 29.6C78.9638 29.2267 78.6118 28.72 78.4305 28.08H78.6065V30H77.3265V18.224H78.6225V23.84H78.4305C78.6118 23.2213 78.9638 22.7307 79.4865 22.368C80.0092 22.0053 80.6332 21.824 81.3585 21.824C82.0838 21.824 82.7078 21.9947 83.2305 22.336C83.7638 22.6667 84.1745 23.1413 84.4625 23.76C84.7612 24.3787 84.9105 25.12 84.9105 25.984C84.9105 26.848 84.7612 27.5893 84.4625 28.208C84.1638 28.8267 83.7478 29.3067 83.2145 29.648C82.6918 29.9787 82.0732 30.144 81.3585 30.144ZM81.0865 29.088C81.8438 29.088 82.4518 28.8267 82.9105 28.304C83.3692 27.7813 83.5985 27.008 83.5985 25.984C83.5985 24.96 83.3692 24.1867 82.9105 23.664C82.4518 23.1307 81.8438 22.864 81.0865 22.864C80.3292 22.864 79.7212 23.1307 79.2625 23.664C78.8145 24.1867 78.5905 24.96 78.5905 25.984C78.5905 26.9973 78.8145 27.7707 79.2625 28.304C79.7212 28.8267 80.3292 29.088 81.0865 29.088ZM86.9203 30V21.968H88.2163V30H86.9203ZM86.7603 20.144V18.688H88.3603V20.144H86.7603ZM94.3008 30.144C93.0421 30.144 92.0501 29.7813 91.3248 29.056C90.5994 28.32 90.2368 27.3013 90.2368 26C90.2368 25.1573 90.3968 24.4267 90.7168 23.808C91.0368 23.1787 91.4848 22.6933 92.0608 22.352C92.6368 22 93.2981 21.824 94.0448 21.824C94.7808 21.824 95.3994 21.9787 95.9008 22.288C96.4021 22.5973 96.7861 23.04 97.0528 23.616C97.3194 24.1813 97.4528 24.8533 97.4528 25.632V26.112H91.2288V25.296H96.6048L96.3328 25.504C96.3328 24.6507 96.1408 23.984 95.7568 23.504C95.3728 23.024 94.8021 22.784 94.0448 22.784C93.2448 22.784 92.6208 23.0667 92.1728 23.632C91.7248 24.1867 91.5008 24.9387 91.5008 25.888V26.032C91.5008 27.0347 91.7461 27.7973 92.2368 28.32C92.7381 28.832 93.4368 29.088 94.3328 29.088C94.8128 29.088 95.2608 29.0187 95.6768 28.88C96.1034 28.7307 96.5088 28.4907 96.8928 28.16L97.3408 29.072C96.9888 29.4133 96.5408 29.68 95.9968 29.872C95.4634 30.0533 94.8981 30.144 94.3008 30.144ZM91.6768 21.216L93.4208 18.624H94.6688L96.4128 21.216H95.5328L94.0448 19.456L92.5568 21.216H91.6768ZM95.6608 19.552C95.6608 19.328 95.7088 19.1467 95.8048 19.008C95.9008 18.8693 96.0128 18.7573 96.1408 18.672C96.2688 18.576 96.3754 18.4853 96.4608 18.4C96.5568 18.3147 96.6048 18.208 96.6048 18.08C96.6048 17.9627 96.5461 17.8827 96.4288 17.84C96.3114 17.7973 96.1354 17.776 95.9008 17.776C95.7621 17.776 95.6128 17.792 95.4528 17.824C95.2928 17.8453 95.1221 17.8933 94.9408 17.968L94.7488 17.36C94.9301 17.2747 95.1328 17.2107 95.3568 17.168C95.5914 17.1147 95.8474 17.088 96.1248 17.088C96.5834 17.088 96.9354 17.1627 97.1808 17.312C97.4368 17.4613 97.5648 17.664 97.5648 17.92C97.5648 18.1333 97.5114 18.304 97.4048 18.432C97.2981 18.5493 97.1701 18.6613 97.0208 18.768C96.8714 18.864 96.7434 18.9707 96.6368 19.088C96.5301 19.2053 96.4768 19.36 96.4768 19.552H95.6608ZM102.268 30.144C101.319 30.144 100.599 29.8827 100.108 29.36C99.6279 28.8373 99.3879 28.0373 99.3879 26.96V21.968H100.684V26.928C100.684 27.664 100.833 28.208 101.132 28.56C101.431 28.9013 101.895 29.072 102.524 29.072C103.228 29.072 103.793 28.8427 104.22 28.384C104.647 27.9253 104.86 27.312 104.86 26.544V21.968H106.156V30H104.892V28.192H105.1C104.876 28.8107 104.513 29.2907 104.012 29.632C103.521 29.9733 102.94 30.144 102.268 30.144ZM113.748 30V18.224H115.044V25.536H115.076L118.804 21.968H120.436L116.036 26.16L116.068 25.504L120.852 30H119.172L115.076 26.224H115.044V30H113.748ZM121.983 30V18.224H123.279V23.744H123.071C123.295 23.1147 123.668 22.64 124.191 22.32C124.724 21.9893 125.337 21.824 126.031 21.824C126.991 21.824 127.705 22.0853 128.175 22.608C128.644 23.12 128.879 23.8987 128.879 24.944V30H127.583V25.024C127.583 24.2773 127.433 23.7333 127.135 23.392C126.847 23.0507 126.377 22.88 125.727 22.88C124.98 22.88 124.383 23.1093 123.935 23.568C123.497 24.0267 123.279 24.6293 123.279 25.376V30H121.983ZM134.414 30.144C133.699 30.144 133.075 29.9787 132.542 29.648C132.008 29.3067 131.592 28.8267 131.294 28.208C131.006 27.5893 130.862 26.848 130.862 25.984C130.862 25.1093 131.006 24.3627 131.294 23.744C131.592 23.1253 132.008 22.6507 132.542 22.32C133.075 21.9893 133.699 21.824 134.414 21.824C135.139 21.824 135.763 22.0107 136.286 22.384C136.819 22.7467 137.171 23.2427 137.342 23.872H137.15L137.326 21.968H138.574C138.542 22.2773 138.51 22.592 138.478 22.912C138.456 23.2213 138.446 23.5253 138.446 23.824V30H137.15V28.112H137.326C137.155 28.7413 136.803 29.2373 136.27 29.6C135.736 29.9627 135.118 30.144 134.414 30.144ZM134.67 29.088C135.438 29.088 136.046 28.8267 136.494 28.304C136.942 27.7707 137.166 26.9973 137.166 25.984C137.166 24.96 136.942 24.1867 136.494 23.664C136.046 23.1307 135.438 22.864 134.67 22.864C133.912 22.864 133.304 23.1307 132.846 23.664C132.398 24.1867 132.174 24.96 132.174 25.984C132.174 26.9973 132.398 27.7707 132.846 28.304C133.304 28.8267 133.912 29.088 134.67 29.088ZM140.952 30V21.968H142.248V30H140.952ZM140.792 20.144V18.688H142.392V20.144H140.792ZM149.842 30V23.824C149.842 23.5253 149.826 23.2213 149.794 22.912C149.773 22.592 149.746 22.2773 149.714 21.968H150.962L151.122 23.728H150.93C151.143 23.12 151.479 22.6507 151.938 22.32C152.407 21.9893 152.973 21.824 153.634 21.824C154.306 21.824 154.85 21.984 155.266 22.304C155.693 22.624 155.981 23.12 156.13 23.792H155.89C156.093 23.184 156.45 22.704 156.962 22.352C157.474 22 158.071 21.824 158.754 21.824C159.639 21.824 160.306 22.08 160.754 22.592C161.202 23.0933 161.426 23.888 161.426 24.976V30H160.13V25.056C160.13 24.2987 159.997 23.7493 159.73 23.408C159.463 23.056 159.037 22.88 158.45 22.88C157.778 22.88 157.245 23.1147 156.85 23.584C156.466 24.0427 156.274 24.6613 156.274 25.44V30H154.978V25.056C154.978 24.2987 154.845 23.7493 154.578 23.408C154.311 23.056 153.885 22.88 153.298 22.88C152.626 22.88 152.098 23.1147 151.714 23.584C151.33 24.0427 151.138 24.6613 151.138 25.44V30H149.842ZM166.945 30.144C166.23 30.144 165.606 29.9787 165.073 29.648C164.54 29.3067 164.124 28.8267 163.825 28.208C163.537 27.5893 163.393 26.848 163.393 25.984C163.393 25.1093 163.537 24.3627 163.825 23.744C164.124 23.1253 164.54 22.6507 165.073 22.32C165.606 21.9893 166.23 21.824 166.945 21.824C167.67 21.824 168.294 22.0107 168.817 22.384C169.35 22.7467 169.702 23.2427 169.873 23.872H169.681L169.857 21.968H171.105C171.073 22.2773 171.041 22.592 171.009 22.912C170.988 23.2213 170.977 23.5253 170.977 23.824V30H169.681V28.112H169.857C169.686 28.7413 169.334 29.2373 168.801 29.6C168.268 29.9627 167.649 30.144 166.945 30.144ZM167.201 29.088C167.969 29.088 168.577 28.8267 169.025 28.304C169.473 27.7707 169.697 26.9973 169.697 25.984C169.697 24.96 169.473 24.1867 169.025 23.664C168.577 23.1307 167.969 22.864 167.201 22.864C166.444 22.864 165.836 23.1307 165.377 23.664C164.929 24.1867 164.705 24.96 164.705 25.984C164.705 26.9973 164.929 27.7707 165.377 28.304C165.836 28.8267 166.444 29.088 167.201 29.088ZM166.577 32.992V31.584H168.049V32.992H166.577ZM176.859 30.144C176.069 30.144 175.381 29.9733 174.795 29.632C174.219 29.2907 173.771 28.8053 173.451 28.176C173.141 27.5467 172.987 26.8 172.987 25.936C172.987 25.0613 173.147 24.32 173.467 23.712C173.787 23.0933 174.235 22.624 174.811 22.304C175.397 21.984 176.08 21.824 176.859 21.824C177.371 21.824 177.867 21.9147 178.347 22.096C178.837 22.2773 179.243 22.5333 179.563 22.864L179.099 23.792C178.779 23.4827 178.427 23.2533 178.043 23.104C177.669 22.9547 177.301 22.88 176.939 22.88C176.107 22.88 175.461 23.1413 175.003 23.664C174.544 24.1867 174.315 24.9493 174.315 25.952C174.315 26.944 174.544 27.712 175.003 28.256C175.461 28.8 176.107 29.072 176.939 29.072C177.291 29.072 177.653 29.0027 178.027 28.864C178.411 28.7253 178.768 28.496 179.099 28.176L179.563 29.088C179.232 29.4293 178.821 29.6907 178.331 29.872C177.84 30.0533 177.349 30.144 176.859 30.144ZM189.859 30.144C189.069 30.144 188.381 29.9733 187.795 29.632C187.219 29.2907 186.771 28.8053 186.451 28.176C186.141 27.5467 185.987 26.8 185.987 25.936C185.987 25.0613 186.147 24.32 186.467 23.712C186.787 23.0933 187.235 22.624 187.811 22.304C188.397 21.984 189.08 21.824 189.859 21.824C190.371 21.824 190.867 21.9147 191.347 22.096C191.837 22.2773 192.243 22.5333 192.563 22.864L192.099 23.792C191.779 23.4827 191.427 23.2533 191.043 23.104C190.669 22.9547 190.301 22.88 189.939 22.88C189.107 22.88 188.461 23.1413 188.003 23.664C187.544 24.1867 187.315 24.9493 187.315 25.952C187.315 26.944 187.544 27.712 188.003 28.256C188.461 28.8 189.107 29.072 189.939 29.072C190.291 29.072 190.653 29.0027 191.027 28.864C191.411 28.7253 191.768 28.496 192.099 28.176L192.563 29.088C192.232 29.4293 191.821 29.6907 191.331 29.872C190.84 30.0533 190.349 30.144 189.859 30.144ZM197.237 30.144C196.287 30.144 195.567 29.8827 195.077 29.36C194.597 28.8373 194.357 28.0373 194.357 26.96V21.968H195.653V26.928C195.653 27.664 195.802 28.208 196.101 28.56C196.399 28.9013 196.863 29.072 197.493 29.072C198.197 29.072 198.762 28.8427 199.189 28.384C199.615 27.9253 199.829 27.312 199.829 26.544V21.968H201.125V30H199.861V28.192H200.069C199.845 28.8107 199.482 29.2907 198.981 29.632C198.49 29.9733 197.909 30.144 197.237 30.144ZM197.333 21.168V20.832C197.333 20.5867 197.381 20.384 197.477 20.224C197.583 20.064 197.701 19.9307 197.829 19.824C197.957 19.7067 198.069 19.5893 198.165 19.472C198.271 19.3547 198.325 19.2213 198.325 19.072C198.325 18.9227 198.261 18.8107 198.133 18.736C198.015 18.6613 197.834 18.624 197.589 18.624C197.418 18.624 197.253 18.6453 197.093 18.688C196.943 18.72 196.767 18.7787 196.565 18.864L196.357 18.192C196.549 18.064 196.767 17.9733 197.013 17.92C197.269 17.8667 197.541 17.84 197.829 17.84C198.319 17.84 198.698 17.936 198.965 18.128C199.242 18.3093 199.381 18.576 199.381 18.928C199.381 19.1947 199.322 19.408 199.205 19.568C199.087 19.728 198.949 19.8667 198.789 19.984C198.639 20.1013 198.501 20.2293 198.373 20.368C198.255 20.5067 198.197 20.688 198.197 20.912V21.168H197.333ZM206.695 30.144C205.98 30.144 205.356 29.9787 204.823 29.648C204.29 29.3067 203.874 28.8267 203.575 28.208C203.287 27.5893 203.143 26.848 203.143 25.984C203.143 25.1093 203.287 24.3627 203.575 23.744C203.874 23.1253 204.29 22.6507 204.823 22.32C205.356 21.9893 205.98 21.824 206.695 21.824C207.42 21.824 208.044 22.0107 208.567 22.384C209.1 22.7467 209.452 23.2427 209.623 23.872H209.431L209.607 21.968H210.855C210.823 22.2773 210.791 22.592 210.759 22.912C210.738 23.2213 210.727 23.5253 210.727 23.824V30H209.431V28.112H209.607C209.436 28.7413 209.084 29.2373 208.551 29.6C208.018 29.9627 207.399 30.144 206.695 30.144ZM206.951 29.088C207.719 29.088 208.327 28.8267 208.775 28.304C209.223 27.7707 209.447 26.9973 209.447 25.984C209.447 24.96 209.223 24.1867 208.775 23.664C208.327 23.1307 207.719 22.864 206.951 22.864C206.194 22.864 205.586 23.1307 205.127 23.664C204.679 24.1867 204.455 24.96 204.455 25.984C204.455 26.9973 204.679 27.7707 205.127 28.304C205.586 28.8267 206.194 29.088 206.951 29.088ZM218.455 30V18.72H222.967C224.162 18.72 225.084 18.976 225.735 19.488C226.386 20 226.711 20.7253 226.711 21.664C226.711 22.368 226.498 22.9547 226.071 23.424C225.655 23.8933 225.074 24.2027 224.327 24.352V24.128C225.159 24.224 225.81 24.512 226.279 24.992C226.759 25.4613 226.999 26.096 226.999 26.896C226.999 27.8987 226.663 28.6667 225.991 29.2C225.33 29.7333 224.391 30 223.175 30H218.455ZM219.751 28.928H223.047C223.858 28.928 224.498 28.7733 224.967 28.464C225.447 28.144 225.687 27.616 225.687 26.88C225.687 26.1333 225.447 25.6053 224.967 25.296C224.498 24.976 223.858 24.816 223.047 24.816H219.751V28.928ZM219.751 23.76H222.775C223.65 23.76 224.306 23.5893 224.743 23.248C225.18 22.9067 225.399 22.416 225.399 21.776C225.399 21.1147 225.18 20.6187 224.743 20.288C224.306 19.9467 223.65 19.776 222.775 19.776H219.751V23.76ZM232.242 30.144C231.527 30.144 230.903 29.9787 230.37 29.648C229.837 29.3067 229.421 28.8267 229.122 28.208C228.834 27.5893 228.69 26.848 228.69 25.984C228.69 25.1093 228.834 24.3627 229.122 23.744C229.421 23.1253 229.837 22.6507 230.37 22.32C230.903 21.9893 231.527 21.824 232.242 21.824C232.967 21.824 233.591 22.0107 234.114 22.384C234.647 22.7467 234.999 23.2427 235.17 23.872H234.978L235.154 21.968H236.402C236.37 22.2773 236.338 22.592 236.306 22.912C236.285 23.2213 236.274 23.5253 236.274 23.824V30H234.978V28.112H235.154C234.983 28.7413 234.631 29.2373 234.098 29.6C233.565 29.9627 232.946 30.144 232.242 30.144ZM232.498 29.088C233.266 29.088 233.874 28.8267 234.322 28.304C234.77 27.7707 234.994 26.9973 234.994 25.984C234.994 24.96 234.77 24.1867 234.322 23.664C233.874 23.1307 233.266 22.864 232.498 22.864C231.741 22.864 231.133 23.1307 230.674 23.664C230.226 24.1867 230.002 24.96 230.002 25.984C230.002 26.9973 230.226 27.7707 230.674 28.304C231.133 28.8267 231.741 29.088 232.498 29.088ZM238.78 30V23.824C238.78 23.5253 238.764 23.2213 238.732 22.912C238.71 22.592 238.684 22.2773 238.652 21.968H239.9L240.06 23.728H239.868C240.102 23.1093 240.476 22.64 240.988 22.32C241.51 21.9893 242.113 21.824 242.796 21.824C243.745 21.824 244.46 22.08 244.94 22.592C245.43 23.0933 245.676 23.888 245.676 24.976V30H244.38V25.056C244.38 24.2987 244.225 23.7493 243.916 23.408C243.617 23.056 243.148 22.88 242.508 22.88C241.761 22.88 241.169 23.1093 240.732 23.568C240.294 24.0267 240.076 24.64 240.076 25.408V30H238.78ZM256.113 30V19.84H252.129V18.72H261.409V19.84H257.441V30H256.113ZM264.966 30.144C264.198 30.144 263.526 29.9787 262.95 29.648C262.385 29.3067 261.948 28.8267 261.638 28.208C261.329 27.5787 261.174 26.8373 261.174 25.984C261.174 25.12 261.329 24.3787 261.638 23.76C261.948 23.1413 262.385 22.6667 262.95 22.336C263.526 21.9947 264.198 21.824 264.966 21.824C265.745 21.824 266.417 21.9947 266.982 22.336C267.558 22.6667 268.001 23.1413 268.31 23.76C268.63 24.3787 268.79 25.12 268.79 25.984C268.79 26.8373 268.63 27.5787 268.31 28.208C268.001 28.8267 267.558 29.3067 266.982 29.648C266.417 29.9787 265.745 30.144 264.966 30.144ZM264.966 29.088C265.734 29.088 266.342 28.8267 266.79 28.304C267.238 27.7707 267.462 26.9973 267.462 25.984C267.462 24.96 267.233 24.1867 266.774 23.664C266.326 23.1307 265.724 22.864 264.966 22.864C264.209 22.864 263.606 23.1307 263.158 23.664C262.71 24.1867 262.486 24.96 262.486 25.984C262.486 26.9973 262.71 27.7707 263.158 28.304C263.606 28.8267 264.209 29.088 264.966 29.088ZM262.614 21.216L264.358 18.624H265.606L267.35 21.216H266.47L264.982 19.456L263.494 21.216H262.614ZM266.598 19.552C266.598 19.328 266.646 19.1467 266.742 19.008C266.838 18.8693 266.95 18.7573 267.078 18.672C267.206 18.576 267.313 18.4853 267.398 18.4C267.494 18.3147 267.542 18.208 267.542 18.08C267.542 17.9627 267.484 17.8827 267.366 17.84C267.249 17.7973 267.073 17.776 266.838 17.776C266.7 17.776 266.55 17.792 266.39 17.824C266.23 17.8453 266.06 17.8933 265.878 17.968L265.686 17.36C265.868 17.2747 266.07 17.2107 266.294 17.168C266.529 17.1147 266.785 17.088 267.062 17.088C267.521 17.088 267.873 17.1627 268.118 17.312C268.374 17.4613 268.502 17.664 268.502 17.92C268.502 18.1333 268.449 18.304 268.342 18.432C268.236 18.5493 268.108 18.6613 267.958 18.768C267.809 18.864 267.681 18.9707 267.574 19.088C267.468 19.2053 267.414 19.36 267.414 19.552H266.598ZM279.265 30.144C278.476 30.144 277.788 29.9733 277.201 29.632C276.625 29.2907 276.177 28.8053 275.857 28.176C275.548 27.5467 275.393 26.8 275.393 25.936C275.393 25.0613 275.553 24.32 275.873 23.712C276.193 23.0933 276.641 22.624 277.217 22.304C277.804 21.984 278.486 21.824 279.265 21.824C279.777 21.824 280.273 21.9147 280.753 22.096C281.244 22.2773 281.649 22.5333 281.969 22.864L281.505 23.792C281.185 23.4827 280.833 23.2533 280.449 23.104C280.076 22.9547 279.708 22.88 279.345 22.88C278.513 22.88 277.868 23.1413 277.409 23.664C276.95 24.1867 276.721 24.9493 276.721 25.952C276.721 26.944 276.95 27.712 277.409 28.256C277.868 28.8 278.513 29.072 279.345 29.072C279.697 29.072 280.06 29.0027 280.433 28.864C280.817 28.7253 281.174 28.496 281.505 28.176L281.969 29.088C281.638 29.4293 281.228 29.6907 280.737 29.872C280.246 30.0533 279.756 30.144 279.265 30.144ZM283.811 30V18.224H285.107V23.744H284.899C285.123 23.1147 285.496 22.64 286.019 22.32C286.552 21.9893 287.166 21.824 287.859 21.824C288.819 21.824 289.534 22.0853 290.003 22.608C290.472 23.12 290.707 23.8987 290.707 24.944V30H289.411V25.024C289.411 24.2773 289.262 23.7333 288.963 23.392C288.675 23.0507 288.206 22.88 287.555 22.88C286.808 22.88 286.211 23.1093 285.763 23.568C285.326 24.0267 285.107 24.6293 285.107 25.376V30H283.811ZM296.018 30.144C295.069 30.144 294.349 29.8827 293.858 29.36C293.378 28.8373 293.138 28.0373 293.138 26.96V21.968H294.434V26.928C294.434 27.664 294.583 28.208 294.882 28.56C295.181 28.9013 295.645 29.072 296.274 29.072C296.978 29.072 297.543 28.8427 297.97 28.384C298.397 27.9253 298.61 27.312 298.61 26.544V21.968H299.906V30H298.642V28.192H298.85C298.626 28.8107 298.263 29.2907 297.762 29.632C297.271 29.9733 296.69 30.144 296.018 30.144ZM299.506 22.768L298.834 22.32V21.968C299.282 21.9573 299.634 21.888 299.89 21.76C300.146 21.632 300.327 21.4347 300.434 21.168C300.541 20.9013 300.594 20.56 300.594 20.144V19.888H301.746V20.336C301.746 20.816 301.655 21.232 301.474 21.584C301.303 21.936 301.047 22.2133 300.706 22.416C300.375 22.6187 299.975 22.736 299.506 22.768ZM296.098 21.184L297.746 17.952H299.138L297.026 21.184H296.098ZM305.796 30.144C305.007 30.144 304.319 29.9733 303.732 29.632C303.156 29.2907 302.708 28.8053 302.388 28.176C302.079 27.5467 301.924 26.8 301.924 25.936C301.924 25.0613 302.084 24.32 302.404 23.712C302.724 23.0933 303.172 22.624 303.748 22.304C304.335 21.984 305.018 21.824 305.796 21.824C306.308 21.824 306.804 21.9147 307.284 22.096C307.775 22.2773 308.18 22.5333 308.5 22.864L308.036 23.792C307.716 23.4827 307.364 23.2533 306.98 23.104C306.607 22.9547 306.239 22.88 305.876 22.88C305.044 22.88 304.399 23.1413 303.94 23.664C303.482 24.1867 303.252 24.9493 303.252 25.952C303.252 26.944 303.482 27.712 303.94 28.256C304.399 28.8 305.044 29.072 305.876 29.072C306.228 29.072 306.591 29.0027 306.964 28.864C307.348 28.7253 307.706 28.496 308.036 28.176L308.5 29.088C308.17 29.4293 307.759 29.6907 307.268 29.872C306.778 30.0533 306.287 30.144 305.796 30.144ZM315.564 30V18.72H319.308C320.556 18.72 321.612 18.9387 322.476 19.376C323.34 19.8027 323.996 20.4373 324.444 21.28C324.892 22.112 325.116 23.136 325.116 24.352C325.116 25.5573 324.892 26.5813 324.444 27.424C323.996 28.2667 323.34 28.9067 322.476 29.344C321.612 29.7813 320.556 30 319.308 30H315.564ZM316.892 28.864H319.212C320.748 28.864 321.89 28.4907 322.636 27.744C323.383 26.9867 323.756 25.856 323.756 24.352C323.756 22.8373 323.383 21.7067 322.636 20.96C321.89 20.2133 320.748 19.84 319.212 19.84H316.892V28.864ZM327.373 30V21.968H328.669V30H327.373ZM327.213 20.144V18.688H328.813V20.144H327.213ZM334.754 30.144C333.495 30.144 332.503 29.7813 331.778 29.056C331.053 28.32 330.69 27.3013 330.69 26C330.69 25.1573 330.85 24.4267 331.17 23.808C331.49 23.1787 331.938 22.6933 332.514 22.352C333.09 22 333.751 21.824 334.498 21.824C335.234 21.824 335.853 21.9787 336.354 22.288C336.855 22.5973 337.239 23.04 337.506 23.616C337.773 24.1813 337.906 24.8533 337.906 25.632V26.112H331.682V25.296H337.058L336.786 25.504C336.786 24.6507 336.594 23.984 336.21 23.504C335.826 23.024 335.255 22.784 334.498 22.784C333.698 22.784 333.074 23.0667 332.626 23.632C332.178 24.1867 331.954 24.9387 331.954 25.888V26.032C331.954 27.0347 332.199 27.7973 332.69 28.32C333.191 28.832 333.89 29.088 334.786 29.088C335.266 29.088 335.714 29.0187 336.13 28.88C336.557 28.7307 336.962 28.4907 337.346 28.16L337.794 29.072C337.442 29.4133 336.994 29.68 336.45 29.872C335.917 30.0533 335.351 30.144 334.754 30.144ZM332.13 21.216L333.874 19.104H335.122L336.866 21.216H336.002L334.498 19.856L332.994 21.216H332.13ZM332.69 18.704L331.97 18.672C332.013 18.128 332.167 17.7227 332.434 17.456C332.711 17.1787 333.058 17.04 333.474 17.04C333.677 17.04 333.863 17.0827 334.034 17.168C334.215 17.2427 334.418 17.3547 334.642 17.504C334.877 17.6533 335.053 17.7547 335.17 17.808C335.287 17.8613 335.399 17.888 335.506 17.888C335.751 17.888 335.933 17.8187 336.05 17.68C336.178 17.5413 336.263 17.3227 336.306 17.024L337.026 17.056C336.994 17.6 336.845 18.0107 336.578 18.288C336.311 18.5547 335.965 18.688 335.538 18.688C335.335 18.688 335.138 18.6453 334.946 18.56C334.765 18.4747 334.541 18.3413 334.274 18.16C334.157 18.0853 334.034 18.016 333.906 17.952C333.778 17.8773 333.639 17.84 333.49 17.84C333.255 17.84 333.074 17.9093 332.946 18.048C332.829 18.1867 332.743 18.4053 332.69 18.704ZM339.889 30V23.824C339.889 23.5253 339.873 23.2213 339.841 22.912C339.82 22.592 339.793 22.2773 339.761 21.968H341.009L341.169 23.728H340.977C341.212 23.1093 341.585 22.64 342.097 22.32C342.62 21.9893 343.222 21.824 343.905 21.824C344.854 21.824 345.569 22.08 346.049 22.592C346.54 23.0933 346.785 23.888 346.785 24.976V30H345.489V25.056C345.489 24.2987 345.334 23.7493 345.025 23.408C344.726 23.056 344.257 22.88 343.617 22.88C342.87 22.88 342.278 23.1093 341.841 23.568C341.404 24.0267 341.185 24.64 341.185 25.408V30H339.889ZM40.304 54.144C39.6 54.144 38.9813 53.9787 38.448 53.648C37.9147 53.3173 37.4987 52.848 37.2 52.24C36.912 51.6213 36.768 50.8853 36.768 50.032C36.768 49.1787 36.912 48.448 37.2 47.84C37.4987 47.232 37.9147 46.7627 38.448 46.432C38.9813 46.1013 39.6 45.936 40.304 45.936C41.0187 45.936 41.6373 46.1173 42.16 46.48C42.6933 46.8427 43.0453 47.3333 43.216 47.952H43.04V44.688H39.952V43.712H43.04V42.224H44.336V43.712H45.856V44.688H44.336V54H43.056V52.096H43.232C43.0507 52.7253 42.6987 53.2267 42.176 53.6C41.6533 53.9627 41.0293 54.144 40.304 54.144ZM40.576 53.088C41.3227 53.088 41.9253 52.832 42.384 52.32C42.8427 51.7973 43.072 51.0347 43.072 50.032C43.072 49.04 42.8427 48.288 42.384 47.776C41.9253 47.2533 41.3227 46.992 40.576 46.992C39.8187 46.992 39.2107 47.2533 38.752 47.776C38.304 48.288 38.08 49.04 38.08 50.032C38.08 51.0347 38.304 51.7973 38.752 52.32C39.2107 52.832 39.8187 53.088 40.576 53.088ZM49.9138 54.144C49.1991 54.144 48.5751 53.9787 48.0418 53.648C47.5084 53.3067 47.0924 52.8267 46.7938 52.208C46.5058 51.5893 46.3618 50.848 46.3618 49.984C46.3618 49.1093 46.5058 48.3627 46.7938 47.744C47.0924 47.1253 47.5084 46.6507 48.0418 46.32C48.5751 45.9893 49.1991 45.824 49.9138 45.824C50.6391 45.824 51.2631 46.0107 51.7858 46.384C52.3191 46.7467 52.6711 47.2427 52.8418 47.872H52.6498L52.8258 45.968H54.0738C54.0418 46.2773 54.0098 46.592 53.9778 46.912C53.9564 47.2213 53.9458 47.5253 53.9458 47.824V54H52.6498V52.112H52.8258C52.6551 52.7413 52.3031 53.2373 51.7698 53.6C51.2364 53.9627 50.6178 54.144 49.9138 54.144ZM50.1698 53.088C50.9378 53.088 51.5458 52.8267 51.9938 52.304C52.4418 51.7707 52.6658 50.9973 52.6658 49.984C52.6658 48.96 52.4418 48.1867 51.9938 47.664C51.5458 47.1307 50.9378 46.864 50.1698 46.864C49.4124 46.864 48.8044 47.1307 48.3458 47.664C47.8978 48.1867 47.6738 48.96 47.6738 49.984C47.6738 50.9973 47.8978 51.7707 48.3458 52.304C48.8044 52.8267 49.4124 53.088 50.1698 53.088ZM49.8338 45.184L47.7218 41.952H49.1138L50.7618 45.184H49.8338ZM56.4515 54V47.824C56.4515 47.5253 56.4355 47.2213 56.4035 46.912C56.3822 46.592 56.3555 46.2773 56.3235 45.968H57.5715L57.7315 47.728H57.5395C57.7742 47.1093 58.1475 46.64 58.6595 46.32C59.1822 45.9893 59.7848 45.824 60.4675 45.824C61.4168 45.824 62.1315 46.08 62.6115 46.592C63.1022 47.0933 63.3475 47.888 63.3475 48.976V54H62.0515V49.056C62.0515 48.2987 61.8968 47.7493 61.5875 47.408C61.2888 47.056 60.8195 46.88 60.1795 46.88C59.4328 46.88 58.8408 47.1093 58.4035 47.568C57.9662 48.0267 57.7475 48.64 57.7475 49.408V54H56.4515ZM65.5705 54V52.368H67.2025V54H65.5705ZM24.0056 76.576C23.483 76.576 22.9976 76.4533 22.5496 76.208C22.1016 75.952 21.7443 75.6053 21.4776 75.168C21.211 74.7307 21.0776 74.2453 21.0776 73.712C21.0776 73.2213 21.2003 72.7573 21.4456 72.32C21.7016 71.8827 22.0483 71.5307 22.4856 71.264C22.9336 70.9867 23.4403 70.848 24.0056 70.848C24.5283 70.848 25.0083 70.976 25.4456 71.232C25.883 71.4773 26.235 71.8133 26.5016 72.24C26.779 72.6667 26.9176 73.1573 26.9176 73.712C26.9176 74.2347 26.7843 74.7147 26.5176 75.152C26.2616 75.5893 25.9096 75.936 25.4616 76.192C25.0243 76.448 24.539 76.576 24.0056 76.576ZM37.408 78V66.72H42C43.184 66.72 44.096 67.008 44.736 67.584C45.376 68.1493 45.696 68.9387 45.696 69.952C45.696 70.944 45.376 71.7333 44.736 72.32C44.096 72.896 43.184 73.184 42 73.184H38.736V78H37.408ZM38.736 72.08H41.872C42.6933 72.08 43.312 71.8933 43.728 71.52C44.1547 71.1467 44.368 70.624 44.368 69.952C44.368 69.2693 44.1547 68.7413 43.728 68.368C43.312 67.9947 42.6933 67.808 41.872 67.808H38.736V72.08ZM47.6859 78V66.224H48.9819V71.744H48.7739C48.9979 71.1147 49.3712 70.64 49.8939 70.32C50.4272 69.9893 51.0405 69.824 51.7339 69.824C52.6939 69.824 53.4085 70.0853 53.8779 70.608C54.3472 71.12 54.5819 71.8987 54.5819 72.944V78H53.2859V73.024C53.2859 72.2773 53.1365 71.7333 52.8379 71.392C52.5499 71.0507 52.0805 70.88 51.4299 70.88C50.6832 70.88 50.0859 71.1093 49.6379 71.568C49.2005 72.0267 48.9819 72.6293 48.9819 73.376V78H47.6859ZM60.1169 78.144C59.4022 78.144 58.7782 77.9787 58.2449 77.648C57.7115 77.3067 57.2955 76.8267 56.9969 76.208C56.7089 75.5893 56.5649 74.848 56.5649 73.984C56.5649 73.1093 56.7089 72.3627 56.9969 71.744C57.2955 71.1253 57.7115 70.6507 58.2449 70.32C58.7782 69.9893 59.4022 69.824 60.1169 69.824C60.8422 69.824 61.4662 70.0107 61.9889 70.384C62.5222 70.7467 62.8742 71.2427 63.0449 71.872H62.8529L63.0289 69.968H64.2769C64.2449 70.2773 64.2129 70.592 64.1809 70.912C64.1595 71.2213 64.1489 71.5253 64.1489 71.824V78H62.8529V76.112H63.0289C62.8582 76.7413 62.5062 77.2373 61.9729 77.6C61.4395 77.9627 60.8209 78.144 60.1169 78.144ZM60.3729 77.088C61.1409 77.088 61.7489 76.8267 62.1969 76.304C62.6449 75.7707 62.8689 74.9973 62.8689 73.984C62.8689 72.96 62.6449 72.1867 62.1969 71.664C61.7489 71.1307 61.1409 70.864 60.3729 70.864C59.6155 70.864 59.0075 71.1307 58.5489 71.664C58.1009 72.1867 57.8769 72.96 57.8769 73.984C57.8769 74.9973 58.1009 75.7707 58.5489 76.304C59.0075 76.8267 59.6155 77.088 60.3729 77.088ZM60.0369 69.184L61.6849 65.952H63.0769L60.9649 69.184H60.0369ZM69.5026 78.144C68.7133 78.144 68.1106 77.92 67.6946 77.472C67.2786 77.0133 67.0706 76.3253 67.0706 75.408V70.976H65.5026V69.968H67.0706V67.776L68.3666 67.408V69.968H70.6706V70.976H68.3666V75.264C68.3666 75.904 68.4733 76.3627 68.6866 76.64C68.9106 76.9067 69.2413 77.04 69.6786 77.04C69.8813 77.04 70.0626 77.024 70.2226 76.992C70.3826 76.9493 70.5266 76.9013 70.6546 76.848V77.936C70.5053 78 70.324 78.048 70.1106 78.08C69.908 78.1227 69.7053 78.144 69.5026 78.144ZM81.5906 78.144C80.8653 78.144 80.2413 77.9627 79.7186 77.6C79.196 77.2267 78.844 76.72 78.6626 76.08H78.8386V78H77.5586V66.224H78.8546V71.84H78.6626C78.844 71.2213 79.196 70.7307 79.7186 70.368C80.2413 70.0053 80.8653 69.824 81.5906 69.824C82.316 69.824 82.94 69.9947 83.4626 70.336C83.996 70.6667 84.4066 71.1413 84.6946 71.76C84.9933 72.3787 85.1426 73.12 85.1426 73.984C85.1426 74.848 84.9933 75.5893 84.6946 76.208C84.396 76.8267 83.98 77.3067 83.4466 77.648C82.924 77.9787 82.3053 78.144 81.5906 78.144ZM81.3186 77.088C82.076 77.088 82.684 76.8267 83.1426 76.304C83.6013 75.7813 83.8306 75.008 83.8306 73.984C83.8306 72.96 83.6013 72.1867 83.1426 71.664C82.684 71.1307 82.076 70.864 81.3186 70.864C80.5613 70.864 79.9533 71.1307 79.4946 71.664C79.0466 72.1867 78.8226 72.96 78.8226 73.984C78.8226 74.9973 79.0466 75.7707 79.4946 76.304C79.9533 76.8267 80.5613 77.088 81.3186 77.088ZM87.1524 78V69.968H88.4484V78H87.1524ZM86.9924 68.144V66.688H88.5924V68.144H86.9924ZM94.5329 78.144C93.2742 78.144 92.2822 77.7813 91.5569 77.056C90.8316 76.32 90.4689 75.3013 90.4689 74C90.4689 73.1573 90.6289 72.4267 90.9489 71.808C91.2689 71.1787 91.7169 70.6933 92.2929 70.352C92.8689 70 93.5302 69.824 94.2769 69.824C95.0129 69.824 95.6316 69.9787 96.1329 70.288C96.6342 70.5973 97.0182 71.04 97.2849 71.616C97.5516 72.1813 97.6849 72.8533 97.6849 73.632V74.112H91.4609V73.296H96.8369L96.5649 73.504C96.5649 72.6507 96.3729 71.984 95.9889 71.504C95.6049 71.024 95.0342 70.784 94.2769 70.784C93.4769 70.784 92.8529 71.0667 92.4049 71.632C91.9569 72.1867 91.7329 72.9387 91.7329 73.888V74.032C91.7329 75.0347 91.9782 75.7973 92.4689 76.32C92.9702 76.832 93.6689 77.088 94.5649 77.088C95.0449 77.088 95.4929 77.0187 95.9089 76.88C96.3356 76.7307 96.7409 76.4907 97.1249 76.16L97.5729 77.072C97.2209 77.4133 96.7729 77.68 96.2289 77.872C95.6956 78.0533 95.1302 78.144 94.5329 78.144ZM91.9089 69.216L93.6529 66.624H94.9009L96.6449 69.216H95.7649L94.2769 67.456L92.7889 69.216H91.9089ZM95.8929 67.552C95.8929 67.328 95.9409 67.1467 96.0369 67.008C96.1329 66.8693 96.2449 66.7573 96.3729 66.672C96.5009 66.576 96.6076 66.4853 96.6929 66.4C96.7889 66.3147 96.8369 66.208 96.8369 66.08C96.8369 65.9627 96.7782 65.8827 96.6609 65.84C96.5436 65.7973 96.3676 65.776 96.1329 65.776C95.9942 65.776 95.8449 65.792 95.6849 65.824C95.5249 65.8453 95.3542 65.8933 95.1729 65.968L94.9809 65.36C95.1622 65.2747 95.3649 65.2107 95.5889 65.168C95.8236 65.1147 96.0796 65.088 96.3569 65.088C96.8156 65.088 97.1676 65.1627 97.4129 65.312C97.6689 65.4613 97.7969 65.664 97.7969 65.92C97.7969 66.1333 97.7436 66.304 97.6369 66.432C97.5302 66.5493 97.4022 66.6613 97.2529 66.768C97.1036 66.864 96.9756 66.9707 96.8689 67.088C96.7622 67.2053 96.7089 67.36 96.7089 67.552H95.8929ZM102.5 78.144C101.551 78.144 100.831 77.8827 100.34 77.36C99.86 76.8373 99.62 76.0373 99.62 74.96V69.968H100.916V74.928C100.916 75.664 101.065 76.208 101.364 76.56C101.663 76.9013 102.127 77.072 102.756 77.072C103.46 77.072 104.025 76.8427 104.452 76.384C104.879 75.9253 105.092 75.312 105.092 74.544V69.968H106.388V78H105.124V76.192H105.332C105.108 76.8107 104.745 77.2907 104.244 77.632C103.753 77.9733 103.172 78.144 102.5 78.144ZM117.589 78.144C116.799 78.144 116.111 77.9733 115.525 77.632C114.949 77.2907 114.501 76.8053 114.181 76.176C113.871 75.5467 113.717 74.8 113.717 73.936C113.717 73.0613 113.877 72.32 114.197 71.712C114.517 71.0933 114.965 70.624 115.541 70.304C116.127 69.984 116.81 69.824 117.589 69.824C118.101 69.824 118.597 69.9147 119.077 70.096C119.567 70.2773 119.973 70.5333 120.293 70.864L119.829 71.792C119.509 71.4827 119.157 71.2533 118.773 71.104C118.399 70.9547 118.031 70.88 117.669 70.88C116.837 70.88 116.191 71.1413 115.733 71.664C115.274 72.1867 115.045 72.9493 115.045 73.952C115.045 74.944 115.274 75.712 115.733 76.256C116.191 76.8 116.837 77.072 117.669 77.072C118.021 77.072 118.383 77.0027 118.757 76.864C119.141 76.7253 119.498 76.496 119.829 76.176L120.293 77.088C119.962 77.4293 119.551 77.6907 119.061 77.872C118.57 78.0533 118.079 78.144 117.589 78.144ZM122.135 78V66.224H123.431V71.744H123.223C123.447 71.1147 123.82 70.64 124.343 70.32C124.876 69.9893 125.489 69.824 126.183 69.824C127.143 69.824 127.857 70.0853 128.327 70.608C128.796 71.12 129.031 71.8987 129.031 72.944V78H127.735V73.024C127.735 72.2773 127.585 71.7333 127.287 71.392C126.999 71.0507 126.529 70.88 125.879 70.88C125.132 70.88 124.535 71.1093 124.087 71.568C123.649 72.0267 123.431 72.6293 123.431 73.376V78H122.135ZM134.566 78.144C133.851 78.144 133.227 77.9787 132.694 77.648C132.16 77.3067 131.744 76.8267 131.446 76.208C131.158 75.5893 131.014 74.848 131.014 73.984C131.014 73.1093 131.158 72.3627 131.446 71.744C131.744 71.1253 132.16 70.6507 132.694 70.32C133.227 69.9893 133.851 69.824 134.566 69.824C135.291 69.824 135.915 70.0107 136.438 70.384C136.971 70.7467 137.323 71.2427 137.494 71.872H137.302L137.478 69.968H138.726C138.694 70.2773 138.662 70.592 138.63 70.912C138.608 71.2213 138.598 71.5253 138.598 71.824V78H137.302V76.112H137.478C137.307 76.7413 136.955 77.2373 136.422 77.6C135.888 77.9627 135.27 78.144 134.566 78.144ZM134.822 77.088C135.59 77.088 136.198 76.8267 136.646 76.304C137.094 75.7707 137.318 74.9973 137.318 73.984C137.318 72.96 137.094 72.1867 136.646 71.664C136.198 71.1307 135.59 70.864 134.822 70.864C134.064 70.864 133.456 71.1307 132.998 71.664C132.55 72.1867 132.326 72.96 132.326 73.984C132.326 74.9973 132.55 75.7707 132.998 76.304C133.456 76.8267 134.064 77.088 134.822 77.088ZM134.486 69.184L132.374 65.952H133.766L135.414 69.184H134.486ZM144.399 78.144C143.631 78.144 142.959 77.9787 142.383 77.648C141.818 77.3067 141.381 76.8267 141.071 76.208C140.762 75.5787 140.607 74.8373 140.607 73.984C140.607 73.12 140.762 72.3787 141.071 71.76C141.381 71.1413 141.818 70.6667 142.383 70.336C142.959 69.9947 143.631 69.824 144.399 69.824C145.178 69.824 145.85 69.9947 146.415 70.336C146.991 70.6667 147.434 71.1413 147.743 71.76C148.063 72.3787 148.223 73.12 148.223 73.984C148.223 74.8373 148.063 75.5787 147.743 76.208C147.434 76.8267 146.991 77.3067 146.415 77.648C145.85 77.9787 145.178 78.144 144.399 78.144ZM144.399 77.088C145.167 77.088 145.775 76.8267 146.223 76.304C146.671 75.7707 146.895 74.9973 146.895 73.984C146.895 72.96 146.666 72.1867 146.207 71.664C145.759 71.1307 145.157 70.864 144.399 70.864C143.642 70.864 143.039 71.1307 142.591 71.664C142.143 72.1867 141.919 72.96 141.919 73.984C141.919 74.9973 142.143 75.7707 142.591 76.304C143.039 76.8267 143.642 77.088 144.399 77.088ZM155.554 78V71.824C155.554 71.5253 155.538 71.2213 155.506 70.912C155.485 70.592 155.458 70.2773 155.426 69.968H156.674L156.834 71.728H156.642C156.856 71.12 157.192 70.6507 157.65 70.32C158.12 69.9893 158.685 69.824 159.346 69.824C160.018 69.824 160.562 69.984 160.978 70.304C161.405 70.624 161.693 71.12 161.842 71.792H161.602C161.805 71.184 162.162 70.704 162.674 70.352C163.186 70 163.784 69.824 164.466 69.824C165.352 69.824 166.018 70.08 166.466 70.592C166.914 71.0933 167.138 71.888 167.138 72.976V78H165.842V73.056C165.842 72.2987 165.709 71.7493 165.442 71.408C165.176 71.056 164.749 70.88 164.162 70.88C163.49 70.88 162.957 71.1147 162.562 71.584C162.178 72.0427 161.986 72.6613 161.986 73.44V78H160.69V73.056C160.69 72.2987 160.557 71.7493 160.29 71.408C160.024 71.056 159.597 70.88 159.01 70.88C158.338 70.88 157.81 71.1147 157.426 71.584C157.042 72.0427 156.85 72.6613 156.85 73.44V78H155.554ZM172.433 78.144C171.484 78.144 170.764 77.8827 170.273 77.36C169.793 76.8373 169.553 76.0373 169.553 74.96V69.968H170.849V74.928C170.849 75.664 170.998 76.208 171.297 76.56C171.596 76.9013 172.06 77.072 172.689 77.072C173.393 77.072 173.958 76.8427 174.385 76.384C174.812 75.9253 175.025 75.312 175.025 74.544V69.968H176.321V78H175.057V76.192H175.265C175.041 76.8107 174.678 77.2907 174.177 77.632C173.686 77.9733 173.105 78.144 172.433 78.144ZM175.921 70.768L175.249 70.32V69.968C175.697 69.9573 176.049 69.888 176.305 69.76C176.561 69.632 176.742 69.4347 176.849 69.168C176.956 68.9013 177.009 68.56 177.009 68.144V67.888H178.161V68.336C178.161 68.816 178.07 69.232 177.889 69.584C177.718 69.936 177.462 70.2133 177.121 70.416C176.79 70.6187 176.39 70.736 175.921 70.768ZM172.513 69.184L170.401 65.952H171.793L173.441 69.184H172.513ZM178.898 78V71.824C178.898 71.5253 178.882 71.2213 178.85 70.912C178.829 70.592 178.802 70.2773 178.77 69.968H180.018L180.178 71.728H179.986C180.221 71.1093 180.594 70.64 181.106 70.32C181.629 69.9893 182.231 69.824 182.914 69.824C183.863 69.824 184.578 70.08 185.058 70.592C185.549 71.0933 185.794 71.888 185.794 72.976V78H184.498V73.056C184.498 72.2987 184.343 71.7493 184.034 71.408C183.735 71.056 183.266 70.88 182.626 70.88C181.879 70.88 181.287 71.1093 180.85 71.568C180.413 72.0267 180.194 72.64 180.194 73.408V78H178.898ZM191.809 81.568C191.116 81.568 190.476 81.4827 189.889 81.312C189.302 81.1413 188.774 80.88 188.305 80.528L188.689 79.552C189.02 79.7867 189.345 79.9733 189.665 80.112C189.985 80.2507 190.316 80.352 190.657 80.416C190.998 80.4907 191.361 80.528 191.745 80.528C192.534 80.528 193.132 80.32 193.537 79.904C193.942 79.488 194.145 78.896 194.145 78.128V75.776H194.305C194.134 76.4053 193.782 76.9067 193.249 77.28C192.716 77.6427 192.092 77.824 191.377 77.824C190.641 77.824 190.001 77.664 189.457 77.344C188.924 77.0133 188.508 76.5493 188.209 75.952C187.921 75.344 187.777 74.6293 187.777 73.808C187.777 72.9973 187.921 72.2933 188.209 71.696C188.508 71.0987 188.924 70.64 189.457 70.32C190.001 69.9893 190.641 69.824 191.377 69.824C192.102 69.824 192.726 70.0053 193.249 70.368C193.782 70.7307 194.134 71.232 194.305 71.872L194.145 71.712L194.289 69.968H195.553C195.51 70.2773 195.478 70.592 195.457 70.912C195.436 71.2213 195.425 71.5253 195.425 71.824V77.952C195.425 79.1467 195.116 80.048 194.497 80.656C193.889 81.264 192.993 81.568 191.809 81.568ZM191.617 76.768C192.396 76.768 193.009 76.512 193.457 76C193.905 75.4773 194.129 74.7467 194.129 73.808C194.129 72.8693 193.905 72.144 193.457 71.632C193.009 71.12 192.396 70.864 191.617 70.864C190.849 70.864 190.236 71.12 189.777 71.632C189.318 72.144 189.089 72.8693 189.089 73.808C189.089 74.7467 189.318 75.4773 189.777 76C190.236 76.512 190.849 76.768 191.617 76.768ZM206.6 78.144C205.81 78.144 205.122 77.9733 204.536 77.632C203.96 77.2907 203.512 76.8053 203.192 76.176C202.882 75.5467 202.728 74.8 202.728 73.936C202.728 73.0613 202.888 72.32 203.208 71.712C203.528 71.0933 203.976 70.624 204.552 70.304C205.138 69.984 205.821 69.824 206.6 69.824C207.112 69.824 207.608 69.9147 208.088 70.096C208.578 70.2773 208.984 70.5333 209.304 70.864L208.84 71.792C208.52 71.4827 208.168 71.2533 207.784 71.104C207.41 70.9547 207.042 70.88 206.68 70.88C205.848 70.88 205.202 71.1413 204.744 71.664C204.285 72.1867 204.056 72.9493 204.056 73.952C204.056 74.944 204.285 75.712 204.744 76.256C205.202 76.8 205.848 77.072 206.68 77.072C207.032 77.072 207.394 77.0027 207.768 76.864C208.152 76.7253 208.509 76.496 208.84 76.176L209.304 77.088C208.973 77.4293 208.562 77.6907 208.072 77.872C207.581 78.0533 207.09 78.144 206.6 78.144ZM213.978 78.144C213.028 78.144 212.308 77.8827 211.818 77.36C211.338 76.8373 211.098 76.0373 211.098 74.96V69.968H212.394V74.928C212.394 75.664 212.543 76.208 212.842 76.56C213.14 76.9013 213.604 77.072 214.234 77.072C214.938 77.072 215.503 76.8427 215.93 76.384C216.356 75.9253 216.57 75.312 216.57 74.544V69.968H217.866V78H216.602V76.192H216.81C216.586 76.8107 216.223 77.2907 215.722 77.632C215.231 77.9733 214.65 78.144 213.978 78.144ZM214.074 69.168V68.832C214.074 68.5867 214.122 68.384 214.218 68.224C214.324 68.064 214.442 67.9307 214.57 67.824C214.698 67.7067 214.81 67.5893 214.906 67.472C215.012 67.3547 215.066 67.2213 215.066 67.072C215.066 66.9227 215.002 66.8107 214.874 66.736C214.756 66.6613 214.575 66.624 214.33 66.624C214.159 66.624 213.994 66.6453 213.834 66.688C213.684 66.72 213.508 66.7787 213.306 66.864L213.098 66.192C213.29 66.064 213.508 65.9733 213.754 65.92C214.01 65.8667 214.282 65.84 214.57 65.84C215.06 65.84 215.439 65.936 215.706 66.128C215.983 66.3093 216.122 66.576 216.122 66.928C216.122 67.1947 216.063 67.408 215.946 67.568C215.828 67.728 215.69 67.8667 215.53 67.984C215.38 68.1013 215.242 68.2293 215.114 68.368C214.996 68.5067 214.938 68.688 214.938 68.912V69.168H214.074ZM223.436 78.144C222.721 78.144 222.097 77.9787 221.564 77.648C221.031 77.3067 220.615 76.8267 220.316 76.208C220.028 75.5893 219.884 74.848 219.884 73.984C219.884 73.1093 220.028 72.3627 220.316 71.744C220.615 71.1253 221.031 70.6507 221.564 70.32C222.097 69.9893 222.721 69.824 223.436 69.824C224.161 69.824 224.785 70.0107 225.308 70.384C225.841 70.7467 226.193 71.2427 226.364 71.872H226.172L226.348 69.968H227.596C227.564 70.2773 227.532 70.592 227.5 70.912C227.479 71.2213 227.468 71.5253 227.468 71.824V78H226.172V76.112H226.348C226.177 76.7413 225.825 77.2373 225.292 77.6C224.759 77.9627 224.14 78.144 223.436 78.144ZM223.692 77.088C224.46 77.088 225.068 76.8267 225.516 76.304C225.964 75.7707 226.188 74.9973 226.188 73.984C226.188 72.96 225.964 72.1867 225.516 71.664C225.068 71.1307 224.46 70.864 223.692 70.864C222.935 70.864 222.327 71.1307 221.868 71.664C221.42 72.1867 221.196 72.96 221.196 73.984C221.196 74.9973 221.42 75.7707 221.868 76.304C222.327 76.8267 222.935 77.088 223.692 77.088ZM235.284 78V66.224H236.58V78H235.284ZM242.153 78.144C241.438 78.144 240.814 77.9787 240.281 77.648C239.747 77.3067 239.331 76.8267 239.033 76.208C238.745 75.5893 238.601 74.848 238.601 73.984C238.601 73.1093 238.745 72.3627 239.033 71.744C239.331 71.1253 239.747 70.6507 240.281 70.32C240.814 69.9893 241.438 69.824 242.153 69.824C242.878 69.824 243.502 70.0107 244.025 70.384C244.558 70.7467 244.91 71.2427 245.081 71.872H244.889L245.065 69.968H246.313C246.281 70.2773 246.249 70.592 246.217 70.912C246.195 71.2213 246.185 71.5253 246.185 71.824V78H244.889V76.112H245.065C244.894 76.7413 244.542 77.2373 244.009 77.6C243.475 77.9627 242.857 78.144 242.153 78.144ZM242.409 77.088C243.177 77.088 243.785 76.8267 244.233 76.304C244.681 75.7707 244.905 74.9973 244.905 73.984C244.905 72.96 244.681 72.1867 244.233 71.664C243.785 71.1307 243.177 70.864 242.409 70.864C241.651 70.864 241.043 71.1307 240.585 71.664C240.137 72.1867 239.913 72.96 239.913 73.984C239.913 74.9973 240.137 75.7707 240.585 76.304C241.043 76.8267 241.651 77.088 242.409 77.088ZM240.393 68.56L239.657 68.512C239.71 67.8293 239.891 67.3067 240.201 66.944C240.51 66.5707 240.899 66.384 241.369 66.384C241.603 66.384 241.817 66.4373 242.009 66.544C242.211 66.6507 242.441 66.816 242.697 67.04C242.931 67.2533 243.118 67.4027 243.257 67.488C243.406 67.5627 243.55 67.6 243.689 67.6C244.233 67.6 244.563 67.1787 244.681 66.336L245.417 66.384C245.363 67.0667 245.182 67.5947 244.873 67.968C244.574 68.3307 244.19 68.512 243.721 68.512C243.497 68.512 243.283 68.4587 243.081 68.352C242.878 68.2453 242.643 68.0747 242.377 67.84C242.153 67.6373 241.966 67.4987 241.817 67.424C241.678 67.3387 241.534 67.296 241.385 67.296C241.107 67.296 240.883 67.408 240.713 67.632C240.553 67.8453 240.446 68.1547 240.393 68.56ZM248.69 78V71.824C248.69 71.5253 248.674 71.2213 248.642 70.912C248.621 70.592 248.594 70.2773 248.562 69.968H249.81L249.97 71.728H249.778C250.013 71.1093 250.386 70.64 250.898 70.32C251.421 69.9893 252.024 69.824 252.706 69.824C253.656 69.824 254.37 70.08 254.85 70.592C255.341 71.0933 255.586 71.888 255.586 72.976V78H254.29V73.056C254.29 72.2987 254.136 71.7493 253.826 71.408C253.528 71.056 253.058 70.88 252.418 70.88C251.672 70.88 251.08 71.1093 250.642 71.568C250.205 72.0267 249.986 72.64 249.986 73.408V78H248.69ZM258.065 78V66.224H259.361V71.744H259.153C259.377 71.1147 259.751 70.64 260.273 70.32C260.807 69.9893 261.42 69.824 262.113 69.824C263.073 69.824 263.788 70.0853 264.257 70.608C264.727 71.12 264.961 71.8987 264.961 72.944V78H263.665V73.024C263.665 72.2773 263.516 71.7333 263.217 71.392C262.929 71.0507 262.46 70.88 261.809 70.88C261.063 70.88 260.465 71.1093 260.017 71.568C259.58 72.0267 259.361 72.6293 259.361 73.376V78H258.065ZM275.791 78.144C275.087 78.144 274.468 77.9787 273.935 77.648C273.401 77.3173 272.985 76.848 272.687 76.24C272.399 75.6213 272.255 74.8853 272.255 74.032C272.255 73.1787 272.399 72.448 272.687 71.84C272.985 71.232 273.401 70.7627 273.935 70.432C274.468 70.1013 275.087 69.936 275.791 69.936C276.505 69.936 277.124 70.1173 277.647 70.48C278.18 70.8427 278.532 71.3333 278.703 71.952H278.527V68.688H275.439V67.712H278.527V66.224H279.823V67.712H281.343V68.688H279.823V78H278.543V76.096H278.719C278.537 76.7253 278.185 77.2267 277.663 77.6C277.14 77.9627 276.516 78.144 275.791 78.144ZM276.063 77.088C276.809 77.088 277.412 76.832 277.871 76.32C278.329 75.7973 278.559 75.0347 278.559 74.032C278.559 73.04 278.329 72.288 277.871 71.776C277.412 71.2533 276.809 70.992 276.063 70.992C275.305 70.992 274.697 71.2533 274.239 71.776C273.791 72.288 273.567 73.04 273.567 74.032C273.567 75.0347 273.791 75.7973 274.239 76.32C274.697 76.832 275.305 77.088 276.063 77.088ZM285.4 78.144C284.686 78.144 284.062 77.9787 283.528 77.648C282.995 77.3067 282.579 76.8267 282.28 76.208C281.992 75.5893 281.848 74.848 281.848 73.984C281.848 73.1093 281.992 72.3627 282.28 71.744C282.579 71.1253 282.995 70.6507 283.528 70.32C284.062 69.9893 284.686 69.824 285.4 69.824C286.126 69.824 286.75 70.0107 287.272 70.384C287.806 70.7467 288.158 71.2427 288.328 71.872H288.136L288.312 69.968H289.56C289.528 70.2773 289.496 70.592 289.464 70.912C289.443 71.2213 289.432 71.5253 289.432 71.824V78H288.136V76.112H288.312C288.142 76.7413 287.79 77.2373 287.256 77.6C286.723 77.9627 286.104 78.144 285.4 78.144ZM285.656 77.088C286.424 77.088 287.032 76.8267 287.48 76.304C287.928 75.7707 288.152 74.9973 288.152 73.984C288.152 72.96 287.928 72.1867 287.48 71.664C287.032 71.1307 286.424 70.864 285.656 70.864C284.899 70.864 284.291 71.1307 283.832 71.664C283.384 72.1867 283.16 72.96 283.16 73.984C283.16 74.9973 283.384 75.7707 283.832 76.304C284.291 76.8267 284.899 77.088 285.656 77.088ZM285.032 80.992V79.584H286.504V80.992H285.032ZM295.234 78.144C294.466 78.144 293.794 77.9787 293.218 77.648C292.653 77.3067 292.215 76.8267 291.906 76.208C291.597 75.5787 291.442 74.8373 291.442 73.984C291.442 73.12 291.597 72.3787 291.906 71.76C292.215 71.1413 292.653 70.6667 293.218 70.336C293.794 69.9947 294.466 69.824 295.234 69.824C296.013 69.824 296.685 69.9947 297.25 70.336C297.826 70.6667 298.269 71.1413 298.578 71.76C298.898 72.3787 299.058 73.12 299.058 73.984C299.058 74.8373 298.898 75.5787 298.578 76.208C298.269 76.8267 297.826 77.3067 297.25 77.648C296.685 77.9787 296.013 78.144 295.234 78.144ZM295.234 77.088C296.002 77.088 296.61 76.8267 297.058 76.304C297.506 75.7707 297.73 74.9973 297.73 73.984C297.73 72.96 297.501 72.1867 297.042 71.664C296.594 71.1307 295.991 70.864 295.234 70.864C294.477 70.864 293.874 71.1307 293.426 71.664C292.978 72.1867 292.754 72.96 292.754 73.984C292.754 74.9973 292.978 75.7707 293.426 76.304C293.874 76.8267 294.477 77.088 295.234 77.088ZM311.445 78.144C310.314 78.144 309.354 77.9093 308.565 77.44C307.776 76.9707 307.168 76.304 306.741 75.44C306.325 74.576 306.117 73.5467 306.117 72.352C306.117 71.1573 306.325 70.1333 306.741 69.28C307.168 68.416 307.776 67.7493 308.565 67.28C309.354 66.8107 310.314 66.576 311.445 66.576C312.245 66.576 312.96 66.6987 313.589 66.944C314.218 67.1893 314.768 67.5467 315.237 68.016L314.741 69.072C314.229 68.624 313.722 68.2987 313.221 68.096C312.72 67.8827 312.133 67.776 311.461 67.776C310.17 67.776 309.189 68.176 308.517 68.976C307.845 69.776 307.509 70.9013 307.509 72.352C307.509 73.8027 307.845 74.9333 308.517 75.744C309.189 76.544 310.17 76.944 311.461 76.944C312.133 76.944 312.72 76.8427 313.221 76.64C313.722 76.4267 314.229 76.0907 314.741 75.632L315.237 76.704C314.768 77.1627 314.218 77.52 313.589 77.776C312.96 78.0213 312.245 78.144 311.445 78.144ZM317.327 78V66.224H318.623V71.744H318.414C318.639 71.1147 319.012 70.64 319.535 70.32C320.068 69.9893 320.681 69.824 321.375 69.824C322.335 69.824 323.049 70.0853 323.519 70.608C323.988 71.12 324.223 71.8987 324.223 72.944V78H322.927V73.024C322.927 72.2773 322.777 71.7333 322.479 71.392C322.191 71.0507 321.721 70.88 321.071 70.88C320.324 70.88 319.727 71.1093 319.279 71.568C318.841 72.0267 318.623 72.6293 318.623 73.376V78H317.327ZM326.702 78V69.968H327.998V78H326.702ZM326.878 69.184L328.526 65.952H329.918L327.806 69.184H326.878ZM330.514 78V71.824C330.514 71.5253 330.498 71.2213 330.466 70.912C330.445 70.592 330.418 70.2773 330.386 69.968H331.634L331.794 71.728H331.602C331.837 71.1093 332.21 70.64 332.722 70.32C333.245 69.9893 333.847 69.824 334.53 69.824C335.479 69.824 336.194 70.08 336.674 70.592C337.165 71.0933 337.41 71.888 337.41 72.976V78H336.114V73.056C336.114 72.2987 335.959 71.7493 335.65 71.408C335.351 71.056 334.882 70.88 334.242 70.88C333.495 70.88 332.903 71.1093 332.466 71.568C332.029 72.0267 331.81 72.64 331.81 73.408V78H330.514ZM339.889 78V66.224H341.185V71.744H340.977C341.201 71.1147 341.574 70.64 342.097 70.32C342.63 69.9893 343.244 69.824 343.937 69.824C344.897 69.824 345.612 70.0853 346.081 70.608C346.55 71.12 346.785 71.8987 346.785 72.944V78H345.489V73.024C345.489 72.2773 345.34 71.7333 345.041 71.392C344.753 71.0507 344.284 70.88 343.633 70.88C342.886 70.88 342.289 71.1093 341.841 71.568C341.404 72.0267 341.185 72.6293 341.185 73.376V78H339.889ZM37.264 105.456V95.824C37.264 95.5253 37.248 95.2213 37.216 94.912C37.1947 94.592 37.168 94.2773 37.136 93.968H38.384L38.56 95.872H38.368C38.5387 95.2427 38.8853 94.7467 39.408 94.384C39.9307 94.0107 40.5547 93.824 41.28 93.824C42.0053 93.824 42.6293 93.9893 43.152 94.32C43.6853 94.6507 44.1013 95.1253 44.4 95.744C44.6987 96.3627 44.848 97.1093 44.848 97.984C44.848 98.848 44.6987 99.5893 44.4 100.208C44.112 100.827 43.7013 101.307 43.168 101.648C42.6347 101.979 42.0053 102.144 41.28 102.144C40.5653 102.144 39.9467 101.963 39.424 101.6C38.9013 101.237 38.5547 100.741 38.384 100.112H38.56V105.456H37.264ZM41.024 101.088C41.792 101.088 42.4 100.827 42.848 100.304C43.3067 99.7707 43.536 98.9973 43.536 97.984C43.536 96.96 43.3067 96.1867 42.848 95.664C42.4 95.1307 41.792 94.864 41.024 94.864C40.2667 94.864 39.6587 95.1307 39.2 95.664C38.752 96.1867 38.528 96.96 38.528 97.984C38.528 98.9973 38.752 99.7707 39.2 100.304C39.6587 100.827 40.2667 101.088 41.024 101.088ZM46.8578 102V90.224H48.1538V95.744H47.9457C48.1698 95.1147 48.5431 94.64 49.0658 94.32C49.5991 93.9893 50.2124 93.824 50.9058 93.824C51.8658 93.824 52.5804 94.0853 53.0498 94.608C53.5191 95.12 53.7538 95.8987 53.7538 96.944V102H52.4578V97.024C52.4578 96.2773 52.3084 95.7333 52.0098 95.392C51.7218 95.0507 51.2524 94.88 50.6018 94.88C49.8551 94.88 49.2578 95.1093 48.8098 95.568C48.3724 96.0267 48.1538 96.6293 48.1538 97.376V102H46.8578ZM59.0648 102.144C58.1154 102.144 57.3954 101.883 56.9048 101.36C56.4248 100.837 56.1848 100.037 56.1848 98.96V93.968H57.4808V98.928C57.4808 99.664 57.6301 100.208 57.9288 100.56C58.2274 100.901 58.6914 101.072 59.3208 101.072C60.0248 101.072 60.5901 100.843 61.0168 100.384C61.4434 99.9253 61.6568 99.312 61.6568 98.544V93.968H62.9528V102H61.6888V100.192H61.8968C61.6728 100.811 61.3101 101.291 60.8088 101.632C60.3181 101.973 59.7368 102.144 59.0648 102.144ZM59.1608 93.168V92.832C59.1608 92.5867 59.2088 92.384 59.3048 92.224C59.4114 92.064 59.5288 91.9307 59.6568 91.824C59.7848 91.7067 59.8968 91.5893 59.9928 91.472C60.0994 91.3547 60.1528 91.2213 60.1528 91.072C60.1528 90.9227 60.0888 90.8107 59.9608 90.736C59.8434 90.6613 59.6621 90.624 59.4168 90.624C59.2461 90.624 59.0808 90.6453 58.9208 90.688C58.7714 90.72 58.5954 90.7787 58.3928 90.864L58.1848 90.192C58.3768 90.064 58.5954 89.9733 58.8408 89.92C59.0968 89.8667 59.3688 89.84 59.6568 89.84C60.1474 89.84 60.5261 89.936 60.7928 90.128C61.0701 90.3093 61.2088 90.576 61.2088 90.928C61.2088 91.1947 61.1501 91.408 61.0328 91.568C60.9154 91.728 60.7768 91.8667 60.6168 91.984C60.4674 92.1013 60.3288 92.2293 60.2008 92.368C60.0834 92.5067 60.0248 92.688 60.0248 92.912V93.168H59.1608ZM72.007 102L68.567 93.968H69.975L72.855 101.04H72.423L75.335 93.968H76.679L73.239 102H72.007ZM81.195 102.144C80.4803 102.144 79.8563 101.979 79.323 101.648C78.7897 101.307 78.3737 100.827 78.075 100.208C77.787 99.5893 77.643 98.848 77.643 97.984C77.643 97.1093 77.787 96.3627 78.075 95.744C78.3737 95.1253 78.7897 94.6507 79.323 94.32C79.8563 93.9893 80.4803 93.824 81.195 93.824C81.9203 93.824 82.5443 94.0107 83.067 94.384C83.6003 94.7467 83.9523 95.2427 84.123 95.872H83.931L84.107 93.968H85.355C85.323 94.2773 85.291 94.592 85.259 94.912C85.2377 95.2213 85.227 95.5253 85.227 95.824V102H83.931V100.112H84.107C83.9363 100.741 83.5843 101.237 83.051 101.6C82.5177 101.963 81.899 102.144 81.195 102.144ZM81.451 101.088C82.219 101.088 82.827 100.827 83.275 100.304C83.723 99.7707 83.947 98.9973 83.947 97.984C83.947 96.96 83.723 96.1867 83.275 95.664C82.827 95.1307 82.219 94.864 81.451 94.864C80.6937 94.864 80.0857 95.1307 79.627 95.664C79.179 96.1867 78.955 96.96 78.955 97.984C78.955 98.9973 79.179 99.7707 79.627 100.304C80.0857 100.827 80.6937 101.088 81.451 101.088ZM81.115 93.184L79.003 89.952H80.395L82.043 93.184H81.115ZM92.0486 102V90.72H96.5606C97.7553 90.72 98.678 90.976 99.3286 91.488C99.9793 92 100.305 92.7253 100.305 93.664C100.305 94.368 100.091 94.9547 99.6646 95.424C99.2486 95.8933 98.6673 96.2027 97.9206 96.352V96.128C98.7526 96.224 99.4033 96.512 99.8726 96.992C100.353 97.4613 100.593 98.096 100.593 98.896C100.593 99.8987 100.257 100.667 99.5846 101.2C98.9233 101.733 97.9846 102 96.7686 102H92.0486ZM93.3446 100.928H96.6406C97.4513 100.928 98.0913 100.773 98.5606 100.464C99.0406 100.144 99.2806 99.616 99.2806 98.88C99.2806 98.1333 99.0406 97.6053 98.5606 97.296C98.0913 96.976 97.4513 96.816 96.6406 96.816H93.3446V100.928ZM93.3446 95.76H96.3686C97.2433 95.76 97.8993 95.5893 98.3366 95.248C98.774 94.9067 98.9926 94.416 98.9926 93.776C98.9926 93.1147 98.774 92.6187 98.3366 92.288C97.8993 91.9467 97.2433 91.776 96.3686 91.776H93.3446V95.76ZM106.076 102.144C105.308 102.144 104.636 101.979 104.06 101.648C103.494 101.307 103.057 100.827 102.748 100.208C102.438 99.5787 102.284 98.8373 102.284 97.984C102.284 97.12 102.438 96.3787 102.748 95.76C103.057 95.1413 103.494 94.6667 104.06 94.336C104.636 93.9947 105.308 93.824 106.076 93.824C106.854 93.824 107.526 93.9947 108.092 94.336C108.668 94.6667 109.11 95.1413 109.42 95.76C109.74 96.3787 109.9 97.12 109.9 97.984C109.9 98.8373 109.74 99.5787 109.42 100.208C109.11 100.827 108.668 101.307 108.092 101.648C107.526 101.979 106.854 102.144 106.076 102.144ZM106.076 101.088C106.844 101.088 107.452 100.827 107.9 100.304C108.348 99.7707 108.572 98.9973 108.572 97.984C108.572 96.96 108.342 96.1867 107.884 95.664C107.436 95.1307 106.833 94.864 106.076 94.864C105.318 94.864 104.716 95.1307 104.268 95.664C103.82 96.1867 103.596 96.96 103.596 97.984C103.596 98.9973 103.82 99.7707 104.268 100.304C104.716 100.827 105.318 101.088 106.076 101.088ZM105.356 104.992V103.584H106.828V104.992H105.356ZM103.724 93.184L105.468 89.952H106.716L108.46 93.184H107.564L106.092 90.816L104.62 93.184H103.724ZM116.236 102V90.72H117.564V95.84H117.596L123.004 90.72H124.7L118.476 96.544L118.492 95.872L125.148 102H123.404L117.596 96.688H117.564V102H116.236ZM129.629 102.144C128.37 102.144 127.378 101.781 126.653 101.056C125.928 100.32 125.565 99.3013 125.565 98C125.565 97.1573 125.725 96.4267 126.045 95.808C126.365 95.1787 126.813 94.6933 127.389 94.352C127.965 94 128.626 93.824 129.373 93.824C130.109 93.824 130.728 93.9787 131.229 94.288C131.73 94.5973 132.114 95.04 132.381 95.616C132.648 96.1813 132.781 96.8533 132.781 97.632V98.112H126.557V97.296H131.933L131.661 97.504C131.661 96.6507 131.469 95.984 131.085 95.504C130.701 95.024 130.13 94.784 129.373 94.784C128.573 94.784 127.949 95.0667 127.501 95.632C127.053 96.1867 126.829 96.9387 126.829 97.888V98.032C126.829 99.0347 127.074 99.7973 127.565 100.32C128.066 100.832 128.765 101.088 129.661 101.088C130.141 101.088 130.589 101.019 131.005 100.88C131.432 100.731 131.837 100.491 132.221 100.16L132.669 101.072C132.317 101.413 131.869 101.68 131.325 101.872C130.792 102.053 130.226 102.144 129.629 102.144ZM127.005 93.216L128.749 90.624H129.997L131.741 93.216H130.861L129.373 91.456L127.885 93.216H127.005ZM130.877 91.552L132.253 89.152H133.501L131.725 91.552H130.877ZM138.936 102V90.224H140.232V95.744H140.024C140.248 95.1147 140.621 94.64 141.144 94.32C141.677 93.9893 142.291 93.824 142.984 93.824C143.944 93.824 144.659 94.0853 145.128 94.608C145.597 95.12 145.832 95.8987 145.832 96.944V102H144.536V97.024C144.536 96.2773 144.387 95.7333 144.088 95.392C143.8 95.0507 143.331 94.88 142.68 94.88C141.933 94.88 141.336 95.1093 140.888 95.568C140.451 96.0267 140.232 96.6293 140.232 97.376V102H138.936ZM151.607 102.144C150.839 102.144 150.167 101.979 149.591 101.648C149.026 101.307 148.588 100.827 148.279 100.208C147.97 99.5787 147.815 98.8373 147.815 97.984C147.815 97.12 147.97 96.3787 148.279 95.76C148.588 95.1413 149.026 94.6667 149.591 94.336C150.167 93.9947 150.839 93.824 151.607 93.824C152.386 93.824 153.058 93.9947 153.623 94.336C154.199 94.6667 154.642 95.1413 154.951 95.76C155.271 96.3787 155.431 97.12 155.431 97.984C155.431 98.8373 155.271 99.5787 154.951 100.208C154.642 100.827 154.199 101.307 153.623 101.648C153.058 101.979 152.386 102.144 151.607 102.144ZM151.607 101.088C152.375 101.088 152.983 100.827 153.431 100.304C153.879 99.7707 154.103 98.9973 154.103 97.984C154.103 96.96 153.874 96.1867 153.415 95.664C152.967 95.1307 152.364 94.864 151.607 94.864C150.85 94.864 150.247 95.1307 149.799 95.664C149.351 96.1867 149.127 96.96 149.127 97.984C149.127 98.9973 149.351 99.7707 149.799 100.304C150.247 100.827 150.85 101.088 151.607 101.088ZM160.508 102.144C159.793 102.144 159.169 101.979 158.636 101.648C158.102 101.307 157.686 100.827 157.388 100.208C157.1 99.5893 156.956 98.848 156.956 97.984C156.956 97.1093 157.1 96.3627 157.388 95.744C157.686 95.1253 158.102 94.6507 158.636 94.32C159.169 93.9893 159.793 93.824 160.508 93.824C161.233 93.824 161.857 94.0107 162.38 94.384C162.913 94.7467 163.265 95.2427 163.436 95.872H163.244L163.42 93.968H164.668C164.636 94.2773 164.604 94.592 164.572 94.912C164.55 95.2213 164.54 95.5253 164.54 95.824V102H163.244V100.112H163.42C163.249 100.741 162.897 101.237 162.364 101.6C161.83 101.963 161.212 102.144 160.508 102.144ZM160.764 101.088C161.532 101.088 162.14 100.827 162.588 100.304C163.036 99.7707 163.26 98.9973 163.26 97.984C163.26 96.96 163.036 96.1867 162.588 95.664C162.14 95.1307 161.532 94.864 160.764 94.864C160.006 94.864 159.398 95.1307 158.94 95.664C158.492 96.1867 158.268 96.96 158.268 97.984C158.268 98.9973 158.492 99.7707 158.94 100.304C159.398 100.827 160.006 101.088 160.764 101.088ZM160.14 104.992V103.584H161.612V104.992H160.14ZM170.421 102.144C169.632 102.144 168.944 101.973 168.357 101.632C167.781 101.291 167.333 100.805 167.013 100.176C166.704 99.5467 166.549 98.8 166.549 97.936C166.549 97.0613 166.709 96.32 167.029 95.712C167.349 95.0933 167.797 94.624 168.373 94.304C168.96 93.984 169.643 93.824 170.421 93.824C170.933 93.824 171.429 93.9147 171.909 94.096C172.4 94.2773 172.805 94.5333 173.125 94.864L172.661 95.792C172.341 95.4827 171.989 95.2533 171.605 95.104C171.232 94.9547 170.864 94.88 170.501 94.88C169.669 94.88 169.024 95.1413 168.565 95.664C168.107 96.1867 167.877 96.9493 167.877 97.952C167.877 98.944 168.107 99.712 168.565 100.256C169.024 100.8 169.669 101.072 170.501 101.072C170.853 101.072 171.216 101.003 171.589 100.864C171.973 100.725 172.331 100.496 172.661 100.176L173.125 101.088C172.795 101.429 172.384 101.691 171.893 101.872C171.403 102.053 170.912 102.144 170.421 102.144ZM174.967 102V90.224H176.263V95.744H176.055C176.279 95.1147 176.652 94.64 177.175 94.32C177.708 93.9893 178.322 93.824 179.015 93.824C179.975 93.824 180.69 94.0853 181.159 94.608C181.628 95.12 181.863 95.8987 181.863 96.944V102H180.567V97.024C180.567 96.2773 180.418 95.7333 180.119 95.392C179.831 95.0507 179.362 94.88 178.711 94.88C177.964 94.88 177.367 95.1093 176.919 95.568C176.482 96.0267 176.263 96.6293 176.263 97.376V102H174.967ZM190.882 102L187.442 93.968H188.85L191.73 101.04H191.298L194.21 93.968H195.554L192.114 102H190.882ZM200.07 102.144C199.355 102.144 198.731 101.979 198.198 101.648C197.665 101.307 197.249 100.827 196.95 100.208C196.662 99.5893 196.518 98.848 196.518 97.984C196.518 97.1093 196.662 96.3627 196.95 95.744C197.249 95.1253 197.665 94.6507 198.198 94.32C198.731 93.9893 199.355 93.824 200.07 93.824C200.795 93.824 201.419 94.0107 201.942 94.384C202.475 94.7467 202.827 95.2427 202.998 95.872H202.806L202.982 93.968H204.23C204.198 94.2773 204.166 94.592 204.134 94.912C204.113 95.2213 204.102 95.5253 204.102 95.824V102H202.806V100.112H202.982C202.811 100.741 202.459 101.237 201.926 101.6C201.393 101.963 200.774 102.144 200.07 102.144ZM200.326 101.088C201.094 101.088 201.702 100.827 202.15 100.304C202.598 99.7707 202.822 98.9973 202.822 97.984C202.822 96.96 202.598 96.1867 202.15 95.664C201.702 95.1307 201.094 94.864 200.326 94.864C199.569 94.864 198.961 95.1307 198.502 95.664C198.054 96.1867 197.83 96.96 197.83 97.984C197.83 98.9973 198.054 99.7707 198.502 100.304C198.961 100.827 199.569 101.088 200.326 101.088ZM199.99 93.184L197.878 89.952H199.27L200.918 93.184H199.99ZM210.924 102V90.72H214.668C215.916 90.72 216.972 90.9387 217.836 91.376C218.7 91.8027 219.356 92.4373 219.804 93.28C220.252 94.112 220.476 95.136 220.476 96.352C220.476 97.5573 220.252 98.5813 219.804 99.424C219.356 100.267 218.7 100.907 217.836 101.344C216.972 101.781 215.916 102 214.668 102H210.924ZM212.252 100.864H214.572C216.108 100.864 217.249 100.491 217.996 99.744C218.742 98.9867 219.116 97.856 219.116 96.352C219.116 94.8373 218.742 93.7067 217.996 92.96C217.249 92.2133 216.108 91.84 214.572 91.84H212.252V100.864ZM209.548 96.784V95.76H215.42V96.784H209.548ZM225.789 102.144C225.074 102.144 224.45 101.979 223.917 101.648C223.383 101.307 222.967 100.827 222.669 100.208C222.381 99.5893 222.237 98.848 222.237 97.984C222.237 97.1093 222.381 96.3627 222.669 95.744C222.967 95.1253 223.383 94.6507 223.917 94.32C224.45 93.9893 225.074 93.824 225.789 93.824C226.514 93.824 227.138 94.0107 227.661 94.384C228.194 94.7467 228.546 95.2427 228.717 95.872H228.525L228.701 93.968H229.949C229.917 94.2773 229.885 94.592 229.853 94.912C229.831 95.2213 229.821 95.5253 229.821 95.824V102H228.525V100.112H228.701C228.53 100.741 228.178 101.237 227.645 101.6C227.111 101.963 226.493 102.144 225.789 102.144ZM226.045 101.088C226.813 101.088 227.421 100.827 227.869 100.304C228.317 99.7707 228.541 98.9973 228.541 97.984C228.541 96.96 228.317 96.1867 227.869 95.664C227.421 95.1307 226.813 94.864 226.045 94.864C225.287 94.864 224.679 95.1307 224.221 95.664C223.773 96.1867 223.549 96.96 223.549 97.984C223.549 98.9973 223.773 99.7707 224.221 100.304C224.679 100.827 225.287 101.088 226.045 101.088ZM223.805 93.216L225.549 90.624H226.797L228.541 93.216H227.661L226.173 91.456L224.685 93.216H223.805ZM228.317 91.552L226.541 89.152H227.789L229.165 91.552H228.317ZM235.159 102.144C234.209 102.144 233.489 101.883 232.999 101.36C232.519 100.837 232.279 100.037 232.279 98.96V93.968H233.575V98.928C233.575 99.664 233.724 100.208 234.023 100.56C234.321 100.901 234.785 101.072 235.415 101.072C236.119 101.072 236.684 100.843 237.111 100.384C237.537 99.9253 237.751 99.312 237.751 98.544V93.968H239.047V102H237.783V100.192H237.991C237.767 100.811 237.404 101.291 236.903 101.632C236.412 101.973 235.831 102.144 235.159 102.144ZM248.581 102.144C247.791 102.144 247.189 101.92 246.773 101.472C246.357 101.013 246.149 100.325 246.149 99.408V94.976H244.581V93.968H246.149V91.776L247.445 91.408V93.968H249.749V94.976H247.445V99.264C247.445 99.904 247.551 100.363 247.765 100.64C247.989 100.907 248.319 101.04 248.757 101.04C248.959 101.04 249.141 101.024 249.301 100.992C249.461 100.949 249.605 100.901 249.733 100.848V101.936C249.583 102 249.402 102.048 249.189 102.08C248.986 102.123 248.783 102.144 248.581 102.144ZM254.159 102.144C253.209 102.144 252.489 101.883 251.999 101.36C251.519 100.837 251.279 100.037 251.279 98.96V93.968H252.575V98.928C252.575 99.664 252.724 100.208 253.023 100.56C253.321 100.901 253.785 101.072 254.415 101.072C255.119 101.072 255.684 100.843 256.111 100.384C256.537 99.9253 256.751 99.312 256.751 98.544V93.968H258.047V102H256.783V100.192H256.991C256.767 100.811 256.404 101.291 255.903 101.632C255.412 101.973 254.831 102.144 254.159 102.144ZM257.647 94.768L256.975 94.32V93.968C257.423 93.9573 257.775 93.888 258.031 93.76C258.287 93.632 258.468 93.4347 258.575 93.168C258.681 92.9013 258.735 92.56 258.735 92.144V91.888H259.887V92.336C259.887 92.816 259.796 93.232 259.615 93.584C259.444 93.936 259.188 94.2133 258.847 94.416C258.516 94.6187 258.116 94.736 257.647 94.768ZM260.211 102V100.368H261.843V102H260.211ZM24.0056 124.576C23.483 124.576 22.9976 124.453 22.5496 124.208C22.1016 123.952 21.7443 123.605 21.4776 123.168C21.211 122.731 21.0776 122.245 21.0776 121.712C21.0776 121.221 21.2003 120.757 21.4456 120.32C21.7016 119.883 22.0483 119.531 22.4856 119.264C22.9336 118.987 23.4403 118.848 24.0056 118.848C24.5283 118.848 25.0083 118.976 25.4456 119.232C25.883 119.477 26.235 119.813 26.5016 120.24C26.779 120.667 26.9176 121.157 26.9176 121.712C26.9176 122.235 26.7843 122.715 26.5176 123.152C26.2616 123.589 25.9096 123.936 25.4616 124.192C25.0243 124.448 24.539 124.576 24.0056 124.576ZM40.96 126L36.048 114.72H37.472L41.84 124.944H41.344L45.744 114.72H47.12L42.176 126H40.96ZM48.4359 126V117.968H49.7319V126H48.4359ZM48.2759 116.144V114.688H49.8759V116.144H48.2759ZM52.2484 126V119.824C52.2484 119.525 52.2324 119.221 52.2004 118.912C52.179 118.592 52.1524 118.277 52.1204 117.968H53.3684L53.5284 119.728H53.3364C53.571 119.109 53.9444 118.64 54.4564 118.32C54.979 117.989 55.5817 117.824 56.2644 117.824C57.2137 117.824 57.9284 118.08 58.4084 118.592C58.899 119.093 59.1444 119.888 59.1444 120.976V126H57.8484V121.056C57.8484 120.299 57.6937 119.749 57.3844 119.408C57.0857 119.056 56.6164 118.88 55.9764 118.88C55.2297 118.88 54.6377 119.109 54.2004 119.568C53.763 120.027 53.5444 120.64 53.5444 121.408V126H52.2484ZM61.6234 126V114.224H62.9194V119.744H62.7114C62.9354 119.115 63.3087 118.64 63.8314 118.32C64.3647 117.989 64.978 117.824 65.6714 117.824C66.6314 117.824 67.346 118.085 67.8154 118.608C68.2847 119.12 68.5194 119.899 68.5194 120.944V126H67.2234V121.024C67.2234 120.277 67.074 119.733 66.7754 119.392C66.4874 119.051 66.018 118.88 65.3674 118.88C64.6207 118.88 64.0234 119.109 63.5754 119.568C63.138 120.027 62.9194 120.629 62.9194 121.376V126H61.6234ZM81.136 126.144C80.432 126.144 79.8134 125.979 79.28 125.648C78.7467 125.307 78.3307 124.827 78.032 124.208C77.744 123.589 77.6 122.848 77.6 121.984C77.6 121.109 77.744 120.363 78.032 119.744C78.3307 119.125 78.7467 118.651 79.28 118.32C79.8134 117.989 80.432 117.824 81.136 117.824C81.8614 117.824 82.4854 118.005 83.008 118.368C83.5414 118.731 83.8987 119.221 84.08 119.84H83.888V114.224H85.184V126H83.904V124.08H84.08C83.9094 124.72 83.5574 125.227 83.024 125.6C82.4907 125.963 81.8614 126.144 81.136 126.144ZM81.408 125.088C82.1654 125.088 82.7734 124.827 83.232 124.304C83.6907 123.771 83.92 122.997 83.92 121.984C83.92 120.96 83.6907 120.187 83.232 119.664C82.7734 119.131 82.1654 118.864 81.408 118.864C80.6507 118.864 80.0427 119.131 79.584 119.664C79.136 120.187 78.912 120.96 78.912 121.984C78.912 122.997 79.136 123.771 79.584 124.304C80.0427 124.827 80.6507 125.088 81.408 125.088ZM90.7458 126.144C90.0311 126.144 89.4071 125.979 88.8738 125.648C88.3404 125.307 87.9244 124.827 87.6258 124.208C87.3378 123.589 87.1938 122.848 87.1938 121.984C87.1938 121.109 87.3378 120.363 87.6258 119.744C87.9244 119.125 88.3404 118.651 88.8738 118.32C89.4071 117.989 90.0311 117.824 90.7458 117.824C91.4711 117.824 92.0951 118.011 92.6178 118.384C93.1511 118.747 93.5031 119.243 93.6738 119.872H93.4818L93.6578 117.968H94.9058C94.8738 118.277 94.8418 118.592 94.8098 118.912C94.7884 119.221 94.7778 119.525 94.7778 119.824V126H93.4818V124.112H93.6578C93.4871 124.741 93.1351 125.237 92.6018 125.6C92.0684 125.963 91.4498 126.144 90.7458 126.144ZM91.0018 125.088C91.7698 125.088 92.3778 124.827 92.8258 124.304C93.2738 123.771 93.4978 122.997 93.4978 121.984C93.4978 120.96 93.2738 120.187 92.8258 119.664C92.3778 119.131 91.7698 118.864 91.0018 118.864C90.2444 118.864 89.6364 119.131 89.1778 119.664C88.7298 120.187 88.5058 120.96 88.5058 121.984C88.5058 122.997 88.7298 123.771 89.1778 124.304C89.6364 124.827 90.2444 125.088 91.0018 125.088ZM97.2835 126V119.824C97.2835 119.525 97.2675 119.221 97.2355 118.912C97.2142 118.592 97.1875 118.277 97.1555 117.968H98.4035L98.5635 119.728H98.3715C98.6062 119.109 98.9795 118.64 99.4915 118.32C100.014 117.989 100.617 117.824 101.3 117.824C102.249 117.824 102.964 118.08 103.444 118.592C103.934 119.093 104.18 119.888 104.18 120.976V126H102.884V121.056C102.884 120.299 102.729 119.749 102.42 119.408C102.121 119.056 101.652 118.88 101.012 118.88C100.265 118.88 99.6729 119.109 99.2355 119.568C98.7982 120.027 98.5795 120.64 98.5795 121.408V126H97.2835ZM106.659 126V114.224H107.955V119.744H107.747C107.971 119.115 108.344 118.64 108.867 118.32C109.4 117.989 110.013 117.824 110.707 117.824C111.667 117.824 112.381 118.085 112.851 118.608C113.32 119.12 113.555 119.899 113.555 120.944V126H112.259V121.024C112.259 120.277 112.109 119.733 111.811 119.392C111.523 119.051 111.053 118.88 110.403 118.88C109.656 118.88 109.059 119.109 108.611 119.568C108.173 120.027 107.955 120.629 107.955 121.376V126H106.659ZM126.507 126.144C125.718 126.144 125.03 125.973 124.443 125.632C123.867 125.291 123.419 124.805 123.099 124.176C122.79 123.547 122.635 122.8 122.635 121.936C122.635 121.061 122.795 120.32 123.115 119.712C123.435 119.093 123.883 118.624 124.459 118.304C125.046 117.984 125.729 117.824 126.507 117.824C127.019 117.824 127.515 117.915 127.995 118.096C128.486 118.277 128.891 118.533 129.211 118.864L128.747 119.792C128.427 119.483 128.075 119.253 127.691 119.104C127.318 118.955 126.95 118.88 126.587 118.88C125.755 118.88 125.11 119.141 124.651 119.664C124.193 120.187 123.963 120.949 123.963 121.952C123.963 122.944 124.193 123.712 124.651 124.256C125.11 124.8 125.755 125.072 126.587 125.072C126.939 125.072 127.302 125.003 127.675 124.864C128.059 124.725 128.417 124.496 128.747 124.176L129.211 125.088C128.881 125.429 128.47 125.691 127.979 125.872C127.489 126.053 126.998 126.144 126.507 126.144ZM134.109 126.144C133.394 126.144 132.77 125.979 132.237 125.648C131.704 125.307 131.288 124.827 130.989 124.208C130.701 123.589 130.557 122.848 130.557 121.984C130.557 121.109 130.701 120.363 130.989 119.744C131.288 119.125 131.704 118.651 132.237 118.32C132.77 117.989 133.394 117.824 134.109 117.824C134.834 117.824 135.458 118.011 135.981 118.384C136.514 118.747 136.866 119.243 137.037 119.872H136.845L137.021 117.968H138.269C138.237 118.277 138.205 118.592 138.173 118.912C138.152 119.221 138.141 119.525 138.141 119.824V126H136.845V124.112H137.021C136.85 124.741 136.498 125.237 135.965 125.6C135.432 125.963 134.813 126.144 134.109 126.144ZM134.365 125.088C135.133 125.088 135.741 124.827 136.189 124.304C136.637 123.771 136.861 122.997 136.861 121.984C136.861 120.96 136.637 120.187 136.189 119.664C135.741 119.131 135.133 118.864 134.365 118.864C133.608 118.864 133 119.131 132.541 119.664C132.093 120.187 131.869 120.96 131.869 121.984C131.869 122.997 132.093 123.771 132.541 124.304C133 124.827 133.608 125.088 134.365 125.088ZM134.029 117.184L135.677 113.952H137.069L134.957 117.184H134.029ZM144.023 126.144C143.233 126.144 142.545 125.973 141.959 125.632C141.383 125.291 140.935 124.805 140.615 124.176C140.305 123.547 140.151 122.8 140.151 121.936C140.151 121.061 140.311 120.32 140.631 119.712C140.951 119.093 141.399 118.624 141.975 118.304C142.561 117.984 143.244 117.824 144.023 117.824C144.535 117.824 145.031 117.915 145.511 118.096C146.001 118.277 146.407 118.533 146.727 118.864L146.263 119.792C145.943 119.483 145.591 119.253 145.207 119.104C144.833 118.955 144.465 118.88 144.103 118.88C143.271 118.88 142.625 119.141 142.167 119.664C141.708 120.187 141.479 120.949 141.479 121.952C141.479 122.944 141.708 123.712 142.167 124.256C142.625 124.8 143.271 125.072 144.103 125.072C144.455 125.072 144.817 125.003 145.191 124.864C145.575 124.725 145.932 124.496 146.263 124.176L146.727 125.088C146.396 125.429 145.985 125.691 145.495 125.872C145.004 126.053 144.513 126.144 144.023 126.144ZM158.546 126V115.84H154.562V114.72H163.842V115.84H159.874V126H158.546ZM165.323 126V114.224H166.619V119.744H166.411C166.635 119.115 167.008 118.64 167.531 118.32C168.064 117.989 168.677 117.824 169.371 117.824C170.331 117.824 171.045 118.085 171.515 118.608C171.984 119.12 172.219 119.899 172.219 120.944V126H170.923V121.024C170.923 120.277 170.773 119.733 170.475 119.392C170.187 119.051 169.717 118.88 169.067 118.88C168.32 118.88 167.723 119.109 167.275 119.568C166.837 120.027 166.619 120.629 166.619 121.376V126H165.323ZM177.53 126.144C176.58 126.144 175.86 125.883 175.37 125.36C174.89 124.837 174.65 124.037 174.65 122.96V117.968H175.946V122.928C175.946 123.664 176.095 124.208 176.394 124.56C176.692 124.901 177.156 125.072 177.786 125.072C178.49 125.072 179.055 124.843 179.482 124.384C179.908 123.925 180.122 123.312 180.122 122.544V117.968H181.418V126H180.154V124.192H180.362C180.138 124.811 179.775 125.291 179.274 125.632C178.783 125.973 178.202 126.144 177.53 126.144ZM181.018 118.768L180.346 118.32V117.968C180.794 117.957 181.146 117.888 181.402 117.76C181.658 117.632 181.839 117.435 181.946 117.168C182.052 116.901 182.106 116.56 182.106 116.144V115.888H183.258V116.336C183.258 116.816 183.167 117.232 182.986 117.584C182.815 117.936 182.559 118.213 182.218 118.416C181.887 118.619 181.487 118.736 181.018 118.768ZM187.228 126.144C186.46 126.144 185.788 125.979 185.212 125.648C184.647 125.307 184.209 124.827 183.9 124.208C183.591 123.579 183.436 122.837 183.436 121.984C183.436 121.12 183.591 120.379 183.9 119.76C184.209 119.141 184.647 118.667 185.212 118.336C185.788 117.995 186.46 117.824 187.228 117.824C188.007 117.824 188.679 117.995 189.244 118.336C189.82 118.667 190.263 119.141 190.572 119.76C190.892 120.379 191.052 121.12 191.052 121.984C191.052 122.837 190.892 123.579 190.572 124.208C190.263 124.827 189.82 125.307 189.244 125.648C188.679 125.979 188.007 126.144 187.228 126.144ZM187.228 125.088C187.996 125.088 188.604 124.827 189.052 124.304C189.5 123.771 189.724 122.997 189.724 121.984C189.724 120.96 189.495 120.187 189.036 119.664C188.588 119.131 187.985 118.864 187.228 118.864C186.471 118.864 185.868 119.131 185.42 119.664C184.972 120.187 184.748 120.96 184.748 121.984C184.748 122.997 184.972 123.771 185.42 124.304C185.868 124.827 186.471 125.088 187.228 125.088ZM188.732 118.768L188.06 118.32V117.968C188.508 117.957 188.86 117.888 189.116 117.76C189.372 117.632 189.553 117.435 189.66 117.168C189.767 116.901 189.82 116.56 189.82 116.144V115.888H190.972V116.336C190.972 116.816 190.881 117.232 190.7 117.584C190.529 117.936 190.273 118.213 189.932 118.416C189.601 118.619 189.201 118.736 188.732 118.768ZM193.073 126V119.824C193.073 119.525 193.057 119.221 193.025 118.912C193.003 118.592 192.977 118.277 192.945 117.968H194.193L194.353 119.728H194.161C194.395 119.109 194.769 118.64 195.281 118.32C195.803 117.989 196.406 117.824 197.089 117.824C198.038 117.824 198.753 118.08 199.233 118.592C199.723 119.093 199.969 119.888 199.969 120.976V126H198.673V121.056C198.673 120.299 198.518 119.749 198.209 119.408C197.91 119.056 197.441 118.88 196.801 118.88C196.054 118.88 195.462 119.109 195.025 119.568C194.587 120.027 194.369 120.64 194.369 121.408V126H193.073ZM205.984 129.568C205.29 129.568 204.65 129.483 204.064 129.312C203.477 129.141 202.949 128.88 202.48 128.528L202.864 127.552C203.194 127.787 203.52 127.973 203.84 128.112C204.16 128.251 204.49 128.352 204.832 128.416C205.173 128.491 205.536 128.528 205.92 128.528C206.709 128.528 207.306 128.32 207.712 127.904C208.117 127.488 208.32 126.896 208.32 126.128V123.776H208.48C208.309 124.405 207.957 124.907 207.424 125.28C206.89 125.643 206.266 125.824 205.552 125.824C204.816 125.824 204.176 125.664 203.632 125.344C203.098 125.013 202.682 124.549 202.384 123.952C202.096 123.344 201.952 122.629 201.952 121.808C201.952 120.997 202.096 120.293 202.384 119.696C202.682 119.099 203.098 118.64 203.632 118.32C204.176 117.989 204.816 117.824 205.552 117.824C206.277 117.824 206.901 118.005 207.424 118.368C207.957 118.731 208.309 119.232 208.48 119.872L208.32 119.712L208.464 117.968H209.728C209.685 118.277 209.653 118.592 209.632 118.912C209.61 119.221 209.6 119.525 209.6 119.824V125.952C209.6 127.147 209.29 128.048 208.672 128.656C208.064 129.264 207.168 129.568 205.984 129.568ZM205.792 124.768C206.57 124.768 207.184 124.512 207.632 124C208.08 123.477 208.304 122.747 208.304 121.808C208.304 120.869 208.08 120.144 207.632 119.632C207.184 119.12 206.57 118.864 205.792 118.864C205.024 118.864 204.41 119.12 203.952 119.632C203.493 120.144 203.264 120.869 203.264 121.808C203.264 122.747 203.493 123.477 203.952 124C204.41 124.512 205.024 124.768 205.792 124.768ZM221.554 126L218.114 117.968H219.522L222.402 125.04H221.97L224.882 117.968H226.226L222.786 126H221.554ZM230.518 126.144C229.569 126.144 228.849 125.883 228.358 125.36C227.878 124.837 227.638 124.037 227.638 122.96V117.968H228.934V122.928C228.934 123.664 229.083 124.208 229.382 124.56C229.681 124.901 230.145 125.072 230.774 125.072C231.478 125.072 232.043 124.843 232.47 124.384C232.897 123.925 233.11 123.312 233.11 122.544V117.968H234.406V126H233.142V124.192H233.35C233.126 124.811 232.763 125.291 232.262 125.632C231.771 125.973 231.19 126.144 230.518 126.144ZM230.31 128.992V127.584H231.782V128.992H230.31ZM253.186 126.144C252.695 125.92 252.237 125.648 251.81 125.328C251.383 124.997 251.021 124.677 250.722 124.368L251.042 124.384C250.583 124.939 250.029 125.371 249.378 125.68C248.727 125.989 248.018 126.144 247.25 126.144C246.482 126.144 245.821 126.027 245.266 125.792C244.722 125.547 244.301 125.211 244.002 124.784C243.714 124.357 243.57 123.861 243.57 123.296C243.57 122.56 243.783 121.936 244.21 121.424C244.637 120.912 245.245 120.4 246.034 119.888L246.562 119.552L246.37 119.792C245.869 119.259 245.501 118.784 245.266 118.368C245.042 117.941 244.93 117.504 244.93 117.056C244.93 116.565 245.047 116.133 245.282 115.76C245.517 115.387 245.842 115.099 246.258 114.896C246.685 114.683 247.186 114.576 247.762 114.576C248.487 114.576 249.09 114.784 249.57 115.2C250.061 115.605 250.306 116.16 250.306 116.864C250.306 117.248 250.226 117.611 250.066 117.952C249.917 118.283 249.661 118.613 249.298 118.944C248.935 119.264 248.445 119.616 247.826 120L247.858 119.696L250.962 123.056H250.674C250.951 122.619 251.165 122.08 251.314 121.44C251.474 120.789 251.565 120.107 251.586 119.392H252.722C252.701 120.277 252.578 121.104 252.354 121.872C252.13 122.629 251.831 123.301 251.458 123.888L251.426 123.504C251.703 123.803 252.039 124.107 252.434 124.416C252.829 124.715 253.255 124.971 253.714 125.184L253.186 126.144ZM247.298 125.088C247.938 125.088 248.503 124.96 248.994 124.704C249.495 124.448 249.933 124.075 250.306 123.584L250.274 123.952L246.802 120.24L247.298 120.256L246.802 120.56C246.354 120.859 245.986 121.141 245.698 121.408C245.41 121.675 245.197 121.952 245.058 122.24C244.919 122.528 244.85 122.853 244.85 123.216C244.85 123.803 245.058 124.261 245.474 124.592C245.901 124.923 246.509 125.088 247.298 125.088ZM247.762 115.552C247.282 115.552 246.893 115.691 246.594 115.968C246.295 116.235 246.146 116.592 246.146 117.04C246.146 117.275 246.183 117.493 246.258 117.696C246.343 117.899 246.482 118.123 246.674 118.368C246.866 118.603 247.122 118.901 247.442 119.264L247.09 119.312C247.826 118.864 248.359 118.464 248.69 118.112C249.031 117.749 249.202 117.355 249.202 116.928C249.202 116.512 249.069 116.181 248.802 115.936C248.546 115.68 248.199 115.552 247.762 115.552ZM261.994 126V114.72H263.034L270.266 124.32H269.898V114.72H271.13V126H270.106L262.874 116.4H263.226V126H261.994ZM273.803 126V114.224H275.099V119.744H274.891C275.115 119.115 275.488 118.64 276.011 118.32C276.544 117.989 277.158 117.824 277.851 117.824C278.811 117.824 279.526 118.085 279.995 118.608C280.464 119.12 280.699 119.899 280.699 120.944V126H279.403V121.024C279.403 120.277 279.254 119.733 278.955 119.392C278.667 119.051 278.198 118.88 277.547 118.88C276.8 118.88 276.203 119.109 275.755 119.568C275.318 120.027 275.099 120.629 275.099 121.376V126H273.803ZM286.234 126.144C285.519 126.144 284.895 125.979 284.362 125.648C283.829 125.307 283.413 124.827 283.114 124.208C282.826 123.589 282.682 122.848 282.682 121.984C282.682 121.109 282.826 120.363 283.114 119.744C283.413 119.125 283.829 118.651 284.362 118.32C284.895 117.989 285.519 117.824 286.234 117.824C286.959 117.824 287.583 118.011 288.106 118.384C288.639 118.747 288.991 119.243 289.162 119.872H288.97L289.146 117.968H290.394C290.362 118.277 290.33 118.592 290.298 118.912C290.277 119.221 290.266 119.525 290.266 119.824V126H288.97V124.112H289.146C288.975 124.741 288.623 125.237 288.09 125.6C287.557 125.963 286.938 126.144 286.234 126.144ZM286.49 125.088C287.258 125.088 287.866 124.827 288.314 124.304C288.762 123.771 288.986 122.997 288.986 121.984C288.986 120.96 288.762 120.187 288.314 119.664C287.866 119.131 287.258 118.864 286.49 118.864C285.733 118.864 285.125 119.131 284.666 119.664C284.218 120.187 283.994 120.96 283.994 121.984C283.994 122.997 284.218 123.771 284.666 124.304C285.125 124.827 285.733 125.088 286.49 125.088ZM286.154 117.184L284.042 113.952H285.434L287.082 117.184H286.154ZM302.717 126.144C301.928 126.144 301.325 125.92 300.909 125.472C300.493 125.013 300.285 124.325 300.285 123.408V118.976H298.717V117.968H300.285V115.776L301.581 115.408V117.968H303.885V118.976H301.581V123.264C301.581 123.904 301.688 124.363 301.901 124.64C302.125 124.907 302.456 125.04 302.893 125.04C303.096 125.04 303.277 125.024 303.437 124.992C303.597 124.949 303.741 124.901 303.869 124.848V125.936C303.72 126 303.539 126.048 303.325 126.08C303.123 126.123 302.92 126.144 302.717 126.144ZM308.295 126.144C307.346 126.144 306.626 125.883 306.135 125.36C305.655 124.837 305.415 124.037 305.415 122.96V117.968H306.711V122.928C306.711 123.664 306.861 124.208 307.159 124.56C307.458 124.901 307.922 125.072 308.551 125.072C309.255 125.072 309.821 124.843 310.247 124.384C310.674 123.925 310.887 123.312 310.887 122.544V117.968H312.183V126H310.919V124.192H311.127C310.903 124.811 310.541 125.291 310.039 125.632C309.549 125.973 308.967 126.144 308.295 126.144ZM311.783 118.768L311.111 118.32V117.968C311.559 117.957 311.911 117.888 312.167 117.76C312.423 117.632 312.605 117.435 312.711 117.168C312.818 116.901 312.871 116.56 312.871 116.144V115.888H314.023V116.336C314.023 116.816 313.933 117.232 313.751 117.584C313.581 117.936 313.325 118.213 312.983 118.416C312.653 118.619 312.253 118.736 311.783 118.768ZM324.163 126L320.723 117.968H322.131L325.011 125.04H324.579L327.491 117.968H328.835L325.395 126H324.163ZM333.351 126.144C332.637 126.144 332.013 125.979 331.479 125.648C330.946 125.307 330.53 124.827 330.231 124.208C329.943 123.589 329.799 122.848 329.799 121.984C329.799 121.109 329.943 120.363 330.231 119.744C330.53 119.125 330.946 118.651 331.479 118.32C332.013 117.989 332.637 117.824 333.351 117.824C334.077 117.824 334.701 118.011 335.223 118.384C335.757 118.747 336.109 119.243 336.279 119.872H336.087L336.263 117.968H337.511C337.479 118.277 337.447 118.592 337.415 118.912C337.394 119.221 337.383 119.525 337.383 119.824V126H336.087V124.112H336.263C336.093 124.741 335.741 125.237 335.207 125.6C334.674 125.963 334.055 126.144 333.351 126.144ZM333.607 125.088C334.375 125.088 334.983 124.827 335.431 124.304C335.879 123.771 336.103 122.997 336.103 121.984C336.103 120.96 335.879 120.187 335.431 119.664C334.983 119.131 334.375 118.864 333.607 118.864C332.85 118.864 332.242 119.131 331.783 119.664C331.335 120.187 331.111 120.96 331.111 121.984C331.111 122.997 331.335 123.771 331.783 124.304C332.242 124.827 332.85 125.088 333.607 125.088ZM331.367 117.216L333.111 114.624H334.359L336.103 117.216H335.223L333.735 115.456L332.247 117.216H331.367ZM335.239 115.552L336.615 113.152H337.863L336.087 115.552H335.239ZM339.889 126V119.824C339.889 119.525 339.873 119.221 339.841 118.912C339.82 118.592 339.793 118.277 339.761 117.968H341.009L341.169 119.728H340.977C341.212 119.109 341.585 118.64 342.097 118.32C342.62 117.989 343.222 117.824 343.905 117.824C344.854 117.824 345.569 118.08 346.049 118.592C346.54 119.093 346.785 119.888 346.785 120.976V126H345.489V121.056C345.489 120.299 345.334 119.749 345.025 119.408C344.726 119.056 344.257 118.88 343.617 118.88C342.87 118.88 342.278 119.109 341.841 119.568C341.404 120.027 341.185 120.64 341.185 121.408V126H339.889ZM37.424 150V138.72H38.576L43.104 148.944H42.64L47.168 138.72H48.32V150H47.104V140.432H47.584L43.312 150H42.432L38.144 140.432H38.624V150H37.424ZM60.1664 150.144C59.6757 149.92 59.217 149.648 58.7904 149.328C58.3637 148.997 58.001 148.677 57.7024 148.368L58.0224 148.384C57.5637 148.939 57.009 149.371 56.3584 149.68C55.7077 149.989 54.9984 150.144 54.2304 150.144C53.4624 150.144 52.801 150.027 52.2464 149.792C51.7024 149.547 51.281 149.211 50.9824 148.784C50.6944 148.357 50.5504 147.861 50.5504 147.296C50.5504 146.56 50.7637 145.936 51.1904 145.424C51.617 144.912 52.225 144.4 53.0144 143.888L53.5424 143.552L53.3504 143.792C52.849 143.259 52.481 142.784 52.2464 142.368C52.0224 141.941 51.9104 141.504 51.9104 141.056C51.9104 140.565 52.0277 140.133 52.2624 139.76C52.497 139.387 52.8224 139.099 53.2384 138.896C53.665 138.683 54.1664 138.576 54.7424 138.576C55.4677 138.576 56.0704 138.784 56.5504 139.2C57.041 139.605 57.2864 140.16 57.2864 140.864C57.2864 141.248 57.2064 141.611 57.0464 141.952C56.897 142.283 56.641 142.613 56.2784 142.944C55.9157 143.264 55.425 143.616 54.8064 144L54.8384 143.696L57.9424 147.056H57.6544C57.9317 146.619 58.145 146.08 58.2944 145.44C58.4544 144.789 58.545 144.107 58.5664 143.392H59.7024C59.681 144.277 59.5584 145.104 59.3344 145.872C59.1104 146.629 58.8117 147.301 58.4384 147.888L58.4064 147.504C58.6837 147.803 59.0197 148.107 59.4144 148.416C59.809 148.715 60.2357 148.971 60.6944 149.184L60.1664 150.144ZM54.2784 149.088C54.9184 149.088 55.4837 148.96 55.9744 148.704C56.4757 148.448 56.913 148.075 57.2864 147.584L57.2544 147.952L53.7824 144.24L54.2784 144.256L53.7824 144.56C53.3344 144.859 52.9664 145.141 52.6784 145.408C52.3904 145.675 52.177 145.952 52.0384 146.24C51.8997 146.528 51.8304 146.853 51.8304 147.216C51.8304 147.803 52.0384 148.261 52.4544 148.592C52.881 148.923 53.489 149.088 54.2784 149.088ZM54.7424 139.552C54.2624 139.552 53.873 139.691 53.5744 139.968C53.2757 140.235 53.1264 140.592 53.1264 141.04C53.1264 141.275 53.1637 141.493 53.2384 141.696C53.3237 141.899 53.4624 142.123 53.6544 142.368C53.8464 142.603 54.1024 142.901 54.4224 143.264L54.0704 143.312C54.8064 142.864 55.3397 142.464 55.6704 142.112C56.0117 141.749 56.1824 141.355 56.1824 140.928C56.1824 140.512 56.049 140.181 55.7824 139.936C55.5264 139.68 55.1797 139.552 54.7424 139.552ZM60.7568 150L65.7328 138.72H66.8848L71.9408 150H70.5648L69.1568 146.784L69.7488 147.12H62.8528L63.4928 146.784L62.1168 150H60.7568ZM66.2928 140.24L63.7008 146.32L63.3168 146.032H69.2688L68.9808 146.32L66.3248 140.24H66.2928ZM80.5182 150.144C79.7289 150.144 79.1263 149.92 78.7103 149.472C78.2943 149.013 78.0863 148.325 78.0863 147.408V142.976H76.5183V141.968H78.0863V139.776L79.3823 139.408V141.968H81.6863V142.976H79.3823V147.264C79.3823 147.904 79.4889 148.363 79.7023 148.64C79.9263 148.907 80.2569 149.04 80.6943 149.04C80.8969 149.04 81.0783 149.024 81.2383 148.992C81.3983 148.949 81.5423 148.901 81.6703 148.848V149.936C81.5209 150 81.3396 150.048 81.1263 150.08C80.9236 150.123 80.7209 150.144 80.5182 150.144ZM83.264 150V141.968H84.56V150H83.264ZM83.104 140.144V138.688H84.704V140.144H83.104ZM90.6445 150.144C89.3858 150.144 88.3938 149.781 87.6685 149.056C86.9432 148.32 86.5805 147.301 86.5805 146C86.5805 145.157 86.7405 144.427 87.0605 143.808C87.3805 143.179 87.8285 142.693 88.4045 142.352C88.9805 142 89.6418 141.824 90.3885 141.824C91.1245 141.824 91.7432 141.979 92.2445 142.288C92.7458 142.597 93.1298 143.04 93.3965 143.616C93.6632 144.181 93.7965 144.853 93.7965 145.632V146.112H87.5725V145.296H92.9485L92.6765 145.504C92.6765 144.651 92.4845 143.984 92.1005 143.504C91.7165 143.024 91.1458 142.784 90.3885 142.784C89.5885 142.784 88.9645 143.067 88.5165 143.632C88.0685 144.187 87.8445 144.939 87.8445 145.888V146.032C87.8445 147.035 88.0898 147.797 88.5805 148.32C89.0818 148.832 89.7805 149.088 90.6765 149.088C91.1565 149.088 91.6045 149.019 92.0205 148.88C92.4472 148.731 92.8525 148.491 93.2365 148.16L93.6845 149.072C93.3325 149.413 92.8845 149.68 92.3405 149.872C91.8072 150.053 91.2418 150.144 90.6445 150.144ZM88.0205 141.184L89.7645 137.952H91.0125L92.7565 141.184H91.8605L90.3885 138.816L88.9165 141.184H88.0205ZM98.6116 150.144C97.6623 150.144 96.9423 149.883 96.4516 149.36C95.9716 148.837 95.7316 148.037 95.7316 146.96V141.968H97.0276V146.928C97.0276 147.664 97.177 148.208 97.4756 148.56C97.7743 148.901 98.2383 149.072 98.8676 149.072C99.5716 149.072 100.137 148.843 100.564 148.384C100.99 147.925 101.204 147.312 101.204 146.544V141.968H102.5V150H101.236V148.192H101.444C101.22 148.811 100.857 149.291 100.356 149.632C99.865 149.973 99.2836 150.144 98.6116 150.144ZM113.218 150.144C112.493 150.144 111.869 149.963 111.346 149.6C110.823 149.227 110.471 148.72 110.29 148.08H110.466V150H109.186V138.224H110.482V143.84H110.29C110.471 143.221 110.823 142.731 111.346 142.368C111.869 142.005 112.493 141.824 113.218 141.824C113.943 141.824 114.567 141.995 115.09 142.336C115.623 142.667 116.034 143.141 116.322 143.76C116.621 144.379 116.77 145.12 116.77 145.984C116.77 146.848 116.621 147.589 116.322 148.208C116.023 148.827 115.607 149.307 115.074 149.648C114.551 149.979 113.933 150.144 113.218 150.144ZM112.946 149.088C113.703 149.088 114.311 148.827 114.77 148.304C115.229 147.781 115.458 147.008 115.458 145.984C115.458 144.96 115.229 144.187 114.77 143.664C114.311 143.131 113.703 142.864 112.946 142.864C112.189 142.864 111.581 143.131 111.122 143.664C110.674 144.187 110.45 144.96 110.45 145.984C110.45 146.997 110.674 147.771 111.122 148.304C111.581 148.827 112.189 149.088 112.946 149.088ZM118.78 150V141.968H120.076V150H118.78ZM118.62 140.144V138.688H120.22V140.144H118.62ZM126.16 150.144C124.901 150.144 123.909 149.781 123.184 149.056C122.459 148.32 122.096 147.301 122.096 146C122.096 145.157 122.256 144.427 122.576 143.808C122.896 143.179 123.344 142.693 123.92 142.352C124.496 142 125.157 141.824 125.904 141.824C126.64 141.824 127.259 141.979 127.76 142.288C128.261 142.597 128.645 143.04 128.912 143.616C129.179 144.181 129.312 144.853 129.312 145.632V146.112H123.088V145.296H128.464L128.192 145.504C128.192 144.651 128 143.984 127.616 143.504C127.232 143.024 126.661 142.784 125.904 142.784C125.104 142.784 124.48 143.067 124.032 143.632C123.584 144.187 123.36 144.939 123.36 145.888V146.032C123.36 147.035 123.605 147.797 124.096 148.32C124.597 148.832 125.296 149.088 126.192 149.088C126.672 149.088 127.12 149.019 127.536 148.88C127.963 148.731 128.368 148.491 128.752 148.16L129.2 149.072C128.848 149.413 128.4 149.68 127.856 149.872C127.323 150.053 126.757 150.144 126.16 150.144ZM123.536 141.216L125.28 138.624H126.528L128.272 141.216H127.392L125.904 139.456L124.416 141.216H123.536ZM127.52 139.552C127.52 139.328 127.568 139.147 127.664 139.008C127.76 138.869 127.872 138.757 128 138.672C128.128 138.576 128.235 138.485 128.32 138.4C128.416 138.315 128.464 138.208 128.464 138.08C128.464 137.963 128.405 137.883 128.288 137.84C128.171 137.797 127.995 137.776 127.76 137.776C127.621 137.776 127.472 137.792 127.312 137.824C127.152 137.845 126.981 137.893 126.8 137.968L126.608 137.36C126.789 137.275 126.992 137.211 127.216 137.168C127.451 137.115 127.707 137.088 127.984 137.088C128.443 137.088 128.795 137.163 129.04 137.312C129.296 137.461 129.424 137.664 129.424 137.92C129.424 138.133 129.371 138.304 129.264 138.432C129.157 138.549 129.029 138.661 128.88 138.768C128.731 138.864 128.603 138.971 128.496 139.088C128.389 139.205 128.336 139.36 128.336 139.552H127.52ZM134.127 150.144C133.178 150.144 132.458 149.883 131.967 149.36C131.487 148.837 131.247 148.037 131.247 146.96V141.968H132.543V146.928C132.543 147.664 132.693 148.208 132.991 148.56C133.29 148.901 133.754 149.072 134.383 149.072C135.087 149.072 135.653 148.843 136.079 148.384C136.506 147.925 136.719 147.312 136.719 146.544V141.968H138.015V150H136.751V148.192H136.959C136.735 148.811 136.373 149.291 135.871 149.632C135.381 149.973 134.799 150.144 134.127 150.144ZM144.814 150V149.008L148.814 144.832C149.336 144.288 149.726 143.771 149.982 143.28C150.248 142.779 150.382 142.261 150.382 141.728C150.382 141.077 150.179 140.587 149.774 140.256C149.368 139.915 148.782 139.744 148.014 139.744C147.416 139.744 146.862 139.851 146.35 140.064C145.848 140.267 145.363 140.592 144.894 141.04L144.414 140C144.84 139.573 145.384 139.232 146.046 138.976C146.707 138.709 147.406 138.576 148.141 138.576C149.283 138.576 150.163 138.843 150.782 139.376C151.4 139.899 151.71 140.645 151.71 141.616C151.71 142.331 151.534 143.013 151.182 143.664C150.84 144.304 150.339 144.965 149.678 145.648L146.142 149.232V148.864H152.19V150H144.814ZM157.831 150.144C156.551 150.144 155.57 149.648 154.887 148.656C154.205 147.664 153.863 146.229 153.863 144.352C153.863 142.464 154.205 141.029 154.887 140.048C155.57 139.067 156.551 138.576 157.831 138.576C159.122 138.576 160.103 139.067 160.775 140.048C161.458 141.029 161.799 142.459 161.799 144.336C161.799 146.224 161.458 147.664 160.775 148.656C160.093 149.648 159.111 150.144 157.831 150.144ZM157.831 148.992C158.727 148.992 159.394 148.613 159.831 147.856C160.269 147.099 160.487 145.925 160.487 144.336C160.487 142.736 160.269 141.568 159.831 140.832C159.394 140.085 158.727 139.712 157.831 139.712C156.946 139.712 156.279 140.085 155.831 140.832C155.394 141.579 155.175 142.747 155.175 144.336C155.175 145.925 155.394 147.099 155.831 147.856C156.279 148.613 156.946 148.992 157.831 148.992ZM164.001 150V149.008L168.001 144.832C168.524 144.288 168.913 143.771 169.169 143.28C169.436 142.779 169.569 142.261 169.569 141.728C169.569 141.077 169.366 140.587 168.961 140.256C168.556 139.915 167.969 139.744 167.201 139.744C166.604 139.744 166.049 139.851 165.537 140.064C165.036 140.267 164.55 140.592 164.081 141.04L163.601 140C164.028 139.573 164.572 139.232 165.233 138.976C165.894 138.709 166.593 138.576 167.329 138.576C168.47 138.576 169.35 138.843 169.969 139.376C170.588 139.899 170.897 140.645 170.897 141.616C170.897 142.331 170.721 143.013 170.369 143.664C170.028 144.304 169.526 144.965 168.865 145.648L165.329 149.232V148.864H171.377V150H164.001ZM174.251 150V148.864H176.907V139.856H177.611L174.507 141.792V140.464L177.275 138.72H178.235V148.864H180.731V150H174.251ZM182.965 146.144V145.072H187.525V146.144H182.965ZM194.204 150V149.008L198.204 144.832C198.727 144.288 199.116 143.771 199.372 143.28C199.639 142.779 199.772 142.261 199.772 141.728C199.772 141.077 199.569 140.587 199.164 140.256C198.759 139.915 198.172 139.744 197.404 139.744C196.807 139.744 196.252 139.851 195.74 140.064C195.239 140.267 194.753 140.592 194.284 141.04L193.804 140C194.231 139.573 194.775 139.232 195.436 138.976C196.097 138.709 196.796 138.576 197.532 138.576C198.673 138.576 199.553 138.843 200.172 139.376C200.791 139.899 201.1 140.645 201.1 141.616C201.1 142.331 200.924 143.013 200.572 143.664C200.231 144.304 199.729 144.965 199.068 145.648L195.532 149.232V148.864H201.58V150H194.204ZM207.222 150.144C205.942 150.144 204.961 149.648 204.278 148.656C203.595 147.664 203.254 146.229 203.254 144.352C203.254 142.464 203.595 141.029 204.278 140.048C204.961 139.067 205.942 138.576 207.222 138.576C208.513 138.576 209.494 139.067 210.166 140.048C210.849 141.029 211.19 142.459 211.19 144.336C211.19 146.224 210.849 147.664 210.166 148.656C209.483 149.648 208.502 150.144 207.222 150.144ZM207.222 148.992C208.118 148.992 208.785 148.613 209.222 147.856C209.659 147.099 209.878 145.925 209.878 144.336C209.878 142.736 209.659 141.568 209.222 140.832C208.785 140.085 208.118 139.712 207.222 139.712C206.337 139.712 205.67 140.085 205.222 140.832C204.785 141.579 204.566 142.747 204.566 144.336C204.566 145.925 204.785 147.099 205.222 147.856C205.67 148.613 206.337 148.992 207.222 148.992ZM213.392 150V149.008L217.392 144.832C217.914 144.288 218.304 143.771 218.56 143.28C218.826 142.779 218.96 142.261 218.96 141.728C218.96 141.077 218.757 140.587 218.352 140.256C217.946 139.915 217.36 139.744 216.592 139.744C215.994 139.744 215.44 139.851 214.928 140.064C214.426 140.267 213.941 140.592 213.472 141.04L212.992 140C213.418 139.573 213.962 139.232 214.624 138.976C215.285 138.709 215.984 138.576 216.72 138.576C217.861 138.576 218.741 138.843 219.36 139.376C219.978 139.899 220.288 140.645 220.288 141.616C220.288 142.331 220.112 143.013 219.76 143.664C219.418 144.304 218.917 144.965 218.256 145.648L214.72 149.232V148.864H220.768V150H213.392ZM222.985 150V149.008L226.985 144.832C227.508 144.288 227.897 143.771 228.153 143.28C228.42 142.779 228.553 142.261 228.553 141.728C228.553 141.077 228.351 140.587 227.945 140.256C227.54 139.915 226.953 139.744 226.185 139.744C225.588 139.744 225.033 139.851 224.521 140.064C224.02 140.267 223.535 140.592 223.065 141.04L222.585 140C223.012 139.573 223.556 139.232 224.217 138.976C224.879 138.709 225.577 138.576 226.313 138.576C227.455 138.576 228.335 138.843 228.953 139.376C229.572 139.899 229.881 140.645 229.881 141.616C229.881 142.331 229.705 143.013 229.353 143.664C229.012 144.304 228.511 144.965 227.849 145.648L224.313 149.232V148.864H230.361V150H222.985ZM232.211 150V148.368H233.843V150H232.211Z" fill="black"/>
</svg>
