<svg width="360" height="105" viewBox="0 0 360 105" fill="none" xmlns="http://www.w3.org/2000/svg">
<rect x="123.5" y="16.2117" width="113" height="40" rx="8" fill="url(#paint0_linear_1_33)"/>
<path d="M133.729 42.2117V40.4997H136.321V32.6597H137.313L133.985 34.6437V32.6917L136.913 30.9317H138.385V40.4997H140.817V42.2117H133.729ZM146.171 42.3717C145.392 42.3717 144.646 42.2597 143.931 42.0357C143.216 41.801 142.63 41.481 142.171 41.0757L142.843 39.5237C143.344 39.9077 143.862 40.1903 144.395 40.3717C144.939 40.553 145.51 40.6437 146.107 40.6437C146.832 40.6437 147.382 40.4997 147.755 40.2117C148.128 39.9237 148.315 39.5023 148.315 38.9477C148.315 38.4143 148.128 38.0143 147.755 37.7477C147.392 37.4703 146.859 37.3317 146.155 37.3317H144.331V35.6837H145.979C146.587 35.6837 147.072 35.5343 147.435 35.2357C147.798 34.937 147.979 34.5263 147.979 34.0037C147.979 33.513 147.808 33.1397 147.467 32.8837C147.136 32.6277 146.656 32.4997 146.027 32.4997C144.896 32.4997 143.899 32.8837 143.035 33.6517L142.363 32.1157C142.822 31.689 143.387 31.3583 144.059 31.1237C144.742 30.889 145.456 30.7717 146.203 30.7717C147.376 30.7717 148.294 31.0383 148.955 31.5717C149.627 32.0943 149.963 32.825 149.963 33.7637C149.963 34.4357 149.771 35.017 149.387 35.5077C149.014 35.9877 148.496 36.3077 147.835 36.4677V36.2757C148.614 36.4037 149.216 36.7237 149.643 37.2357C150.08 37.737 150.299 38.3663 150.299 39.1237C150.299 40.1263 149.931 40.921 149.195 41.5077C148.459 42.0837 147.451 42.3717 146.171 42.3717ZM152.005 36.3397V34.1317H154.245V36.3397H152.005ZM152.005 42.2117V39.9877H154.245V42.2117H152.005ZM159.909 42.3717C158.587 42.3717 157.568 41.8703 156.853 40.8677C156.139 39.8543 155.781 38.4143 155.781 36.5477C155.781 34.6597 156.139 33.225 156.853 32.2437C157.568 31.2623 158.587 30.7717 159.909 30.7717C161.243 30.7717 162.261 31.2623 162.965 32.2437C163.68 33.225 164.037 34.6543 164.037 36.5317C164.037 38.409 163.68 39.8543 162.965 40.8677C162.261 41.8703 161.243 42.3717 159.909 42.3717ZM159.909 40.6757C160.635 40.6757 161.173 40.345 161.525 39.6837C161.877 39.0117 162.053 37.961 162.053 36.5317C162.053 35.1023 161.877 34.0677 161.525 33.4277C161.173 32.777 160.635 32.4517 159.909 32.4517C159.195 32.4517 158.656 32.777 158.293 33.4277C157.941 34.0677 157.765 35.1023 157.765 36.5317C157.765 37.961 157.941 39.0117 158.293 39.6837C158.656 40.345 159.195 40.6757 159.909 40.6757ZM169.503 42.3717C168.18 42.3717 167.162 41.8703 166.447 40.8677C165.732 39.8543 165.375 38.4143 165.375 36.5477C165.375 34.6597 165.732 33.225 166.447 32.2437C167.162 31.2623 168.18 30.7717 169.503 30.7717C170.836 30.7717 171.855 31.2623 172.559 32.2437C173.274 33.225 173.631 34.6543 173.631 36.5317C173.631 38.409 173.274 39.8543 172.559 40.8677C171.855 41.8703 170.836 42.3717 169.503 42.3717ZM169.503 40.6757C170.228 40.6757 170.767 40.345 171.119 39.6837C171.471 39.0117 171.647 37.961 171.647 36.5317C171.647 35.1023 171.471 34.0677 171.119 33.4277C170.767 32.777 170.228 32.4517 169.503 32.4517C168.788 32.4517 168.25 32.777 167.887 33.4277C167.535 34.0677 167.359 35.1023 167.359 36.5317C167.359 37.961 167.535 39.0117 167.887 39.6837C168.25 40.345 168.788 40.6757 169.503 40.6757ZM175.369 38.5957V37.0117H180.233V38.5957H175.369ZM187.479 42.2117V40.4997H190.071V32.6597H191.063L187.735 34.6437V32.6917L190.663 30.9317H192.135V40.4997H194.567V42.2117H187.479ZM199.921 42.3717C199.142 42.3717 198.396 42.2597 197.681 42.0357C196.966 41.801 196.38 41.481 195.921 41.0757L196.593 39.5237C197.094 39.9077 197.612 40.1903 198.145 40.3717C198.689 40.553 199.26 40.6437 199.857 40.6437C200.582 40.6437 201.132 40.4997 201.505 40.2117C201.878 39.9237 202.065 39.5023 202.065 38.9477C202.065 38.4143 201.878 38.0143 201.505 37.7477C201.142 37.4703 200.609 37.3317 199.905 37.3317H198.081V35.6837H199.729C200.337 35.6837 200.822 35.5343 201.185 35.2357C201.548 34.937 201.729 34.5263 201.729 34.0037C201.729 33.513 201.558 33.1397 201.217 32.8837C200.886 32.6277 200.406 32.4997 199.777 32.4997C198.646 32.4997 197.649 32.8837 196.785 33.6517L196.113 32.1157C196.572 31.689 197.137 31.3583 197.809 31.1237C198.492 30.889 199.206 30.7717 199.953 30.7717C201.126 30.7717 202.044 31.0383 202.705 31.5717C203.377 32.0943 203.713 32.825 203.713 33.7637C203.713 34.4357 203.521 35.017 203.137 35.5077C202.764 35.9877 202.246 36.3077 201.585 36.4677V36.2757C202.364 36.4037 202.966 36.7237 203.393 37.2357C203.83 37.737 204.049 38.3663 204.049 39.1237C204.049 40.1263 203.681 40.921 202.945 41.5077C202.209 42.0837 201.201 42.3717 199.921 42.3717ZM205.755 36.3397V34.1317H207.995V36.3397H205.755ZM205.755 42.2117V39.9877H207.995V42.2117H205.755ZM213.483 42.3717C212.705 42.3717 211.958 42.2597 211.243 42.0357C210.529 41.801 209.942 41.481 209.483 41.0757L210.155 39.5237C210.657 39.9077 211.174 40.1903 211.707 40.3717C212.251 40.553 212.822 40.6437 213.419 40.6437C214.145 40.6437 214.694 40.4997 215.067 40.2117C215.441 39.9237 215.627 39.5023 215.627 38.9477C215.627 38.4143 215.441 38.0143 215.067 37.7477C214.705 37.4703 214.171 37.3317 213.467 37.3317H211.643V35.6837H213.291C213.899 35.6837 214.385 35.5343 214.747 35.2357C215.11 34.937 215.291 34.5263 215.291 34.0037C215.291 33.513 215.121 33.1397 214.779 32.8837C214.449 32.6277 213.969 32.4997 213.339 32.4997C212.209 32.4997 211.211 32.8837 210.347 33.6517L209.675 32.1157C210.134 31.689 210.699 31.3583 211.371 31.1237C212.054 30.889 212.769 30.7717 213.515 30.7717C214.689 30.7717 215.606 31.0383 216.267 31.5717C216.939 32.0943 217.275 32.825 217.275 33.7637C217.275 34.4357 217.083 35.017 216.699 35.5077C216.326 35.9877 215.809 36.3077 215.147 36.4677V36.2757C215.926 36.4037 216.529 36.7237 216.955 37.2357C217.393 37.737 217.611 38.3663 217.611 39.1237C217.611 40.1263 217.243 40.921 216.507 41.5077C215.771 42.0837 214.763 42.3717 213.483 42.3717ZM223.253 42.3717C221.93 42.3717 220.912 41.8703 220.197 40.8677C219.482 39.8543 219.125 38.4143 219.125 36.5477C219.125 34.6597 219.482 33.225 220.197 32.2437C220.912 31.2623 221.93 30.7717 223.253 30.7717C224.586 30.7717 225.605 31.2623 226.309 32.2437C227.024 33.225 227.381 34.6543 227.381 36.5317C227.381 38.409 227.024 39.8543 226.309 40.8677C225.605 41.8703 224.586 42.3717 223.253 42.3717ZM223.253 40.6757C223.978 40.6757 224.517 40.345 224.869 39.6837C225.221 39.0117 225.397 37.961 225.397 36.5317C225.397 35.1023 225.221 34.0677 224.869 33.4277C224.517 32.777 223.978 32.4517 223.253 32.4517C222.538 32.4517 222 32.777 221.637 33.4277C221.285 34.0677 221.109 35.1023 221.109 36.5317C221.109 37.961 221.285 39.0117 221.637 39.6837C222 40.345 222.538 40.6757 223.253 40.6757Z" fill="white"/>
<path d="M140.248 80.2117V68.9317H144.344C145.635 68.9317 146.723 69.1557 147.608 69.6037C148.504 70.041 149.181 70.681 149.64 71.5237C150.099 72.3557 150.328 73.369 150.328 74.5637C150.328 75.7477 150.099 76.761 149.64 77.6037C149.181 78.4463 148.504 79.0917 147.608 79.5397C146.723 79.9877 145.635 80.2117 144.344 80.2117H140.248ZM142.312 78.4997H144.216C145.581 78.4997 146.595 78.1743 147.256 77.5237C147.917 76.873 148.248 75.8863 148.248 74.5637C148.248 73.2303 147.917 72.2437 147.256 71.6037C146.595 70.953 145.581 70.6277 144.216 70.6277H142.312V78.4997ZM138.904 75.2517V73.7477H145.384V75.2517H138.904ZM155.924 80.3717C155.092 80.3717 154.372 80.201 153.764 79.8597C153.156 79.5183 152.681 79.033 152.34 78.4037C152.009 77.7743 151.844 77.0277 151.844 76.1637C151.844 75.2997 152.009 74.5583 152.34 73.9397C152.681 73.3103 153.156 72.825 153.764 72.4837C154.372 72.1423 155.092 71.9717 155.924 71.9717C156.756 71.9717 157.476 72.1423 158.084 72.4837C158.702 72.825 159.177 73.3103 159.508 73.9397C159.849 74.5583 160.02 75.2997 160.02 76.1637C160.02 77.0277 159.849 77.7743 159.508 78.4037C159.177 79.033 158.702 79.5183 158.084 79.8597C157.476 80.201 156.756 80.3717 155.924 80.3717ZM155.924 78.8357C156.553 78.8357 157.054 78.617 157.428 78.1797C157.801 77.7317 157.988 77.0597 157.988 76.1637C157.988 75.2677 157.801 74.601 157.428 74.1637C157.054 73.7263 156.553 73.5077 155.924 73.5077C155.294 73.5077 154.793 73.7263 154.42 74.1637C154.046 74.601 153.86 75.2677 153.86 76.1637C153.86 77.0597 154.046 77.7317 154.42 78.1797C154.793 78.617 155.294 78.8357 155.924 78.8357ZM155.268 71.3477L156.916 68.0997H158.884L156.612 71.3477H155.268ZM161.744 80.2117V74.1477C161.744 73.817 161.734 73.481 161.712 73.1397C161.691 72.7983 161.659 72.4623 161.616 72.1317H163.552L163.712 73.7317H163.52C163.776 73.1663 164.155 72.7343 164.656 72.4357C165.158 72.1263 165.739 71.9717 166.4 71.9717C167.35 71.9717 168.064 72.2383 168.544 72.7717C169.024 73.305 169.264 74.137 169.264 75.2677V80.2117H167.264V75.3637C167.264 74.713 167.136 74.249 166.88 73.9717C166.635 73.6837 166.262 73.5397 165.76 73.5397C165.142 73.5397 164.651 73.7317 164.288 74.1157C163.926 74.4997 163.744 75.0117 163.744 75.6517V80.2117H161.744ZM175.776 80.2117V68.4357H177.776V75.5717H177.808L181.088 72.1317H183.503L179.424 76.4037L179.44 75.6037L183.792 80.2117H181.312L177.808 76.5957H177.776V80.2117H175.776ZM184.604 80.2117V68.4357H186.604V73.7477H186.38C186.625 73.1717 187.004 72.7343 187.516 72.4357C188.028 72.1263 188.614 71.9717 189.276 71.9717C190.236 71.9717 190.95 72.2437 191.42 72.7877C191.889 73.321 192.124 74.137 192.124 75.2357V80.2117H190.124V75.3317C190.124 74.7023 190.001 74.249 189.756 73.9717C189.521 73.6837 189.142 73.5397 188.62 73.5397C188.012 73.5397 187.521 73.7317 187.148 74.1157C186.785 74.489 186.604 74.9903 186.604 75.6197V80.2117H184.604ZM197.364 80.3717C196.66 80.3717 196.042 80.2063 195.508 79.8757C194.975 79.5343 194.559 79.049 194.26 78.4197C193.962 77.7903 193.812 77.0383 193.812 76.1637C193.812 75.289 193.962 74.5423 194.26 73.9237C194.559 73.2943 194.975 72.8143 195.508 72.4837C196.042 72.1423 196.66 71.9717 197.364 71.9717C198.047 71.9717 198.644 72.1423 199.156 72.4837C199.679 72.8143 200.026 73.2623 200.196 73.8277H200.02L200.196 72.1317H202.116C202.084 72.4623 202.052 72.7983 202.02 73.1397C201.999 73.481 201.988 73.817 201.988 74.1477V80.2117H200.004L199.988 78.5477H200.18C200.01 79.1023 199.663 79.545 199.14 79.8757C198.618 80.2063 198.026 80.3717 197.364 80.3717ZM197.924 78.8357C198.554 78.8357 199.06 78.617 199.444 78.1797C199.828 77.7317 200.02 77.0597 200.02 76.1637C200.02 75.2677 199.828 74.601 199.444 74.1637C199.06 73.7263 198.554 73.5077 197.924 73.5077C197.295 73.5077 196.788 73.7263 196.404 74.1637C196.02 74.601 195.828 75.2677 195.828 76.1637C195.828 77.0597 196.015 77.7317 196.388 78.1797C196.772 78.617 197.284 78.8357 197.924 78.8357ZM197.364 71.3477L199.012 68.0997H200.98L198.708 71.3477H197.364ZM207.878 80.3717C207.046 80.3717 206.315 80.201 205.686 79.8597C205.067 79.5183 204.587 79.033 204.246 78.4037C203.905 77.7637 203.734 77.0063 203.734 76.1317C203.734 75.257 203.905 74.5103 204.246 73.8917C204.598 73.273 205.083 72.7983 205.702 72.4677C206.321 72.137 207.046 71.9717 207.878 71.9717C208.411 71.9717 208.929 72.057 209.43 72.2277C209.942 72.3877 210.358 72.6223 210.678 72.9317L210.07 74.3237C209.782 74.057 209.457 73.8597 209.094 73.7317C208.742 73.593 208.395 73.5237 208.054 73.5237C207.339 73.5237 206.779 73.7477 206.374 74.1957C205.979 74.6437 205.782 75.2943 205.782 76.1477C205.782 77.001 205.979 77.657 206.374 78.1157C206.779 78.5743 207.339 78.8037 208.054 78.8037C208.385 78.8037 208.726 78.7397 209.078 78.6117C209.441 78.4837 209.771 78.2863 210.07 78.0197L210.678 79.3957C210.347 79.705 209.926 79.945 209.414 80.1157C208.913 80.2863 208.401 80.3717 207.878 80.3717ZM212.229 80.2117V68.4357H214.229V73.7477H214.005C214.25 73.1717 214.629 72.7343 215.141 72.4357C215.653 72.1263 216.239 71.9717 216.901 71.9717C217.861 71.9717 218.575 72.2437 219.045 72.7877C219.514 73.321 219.749 74.137 219.749 75.2357V80.2117H217.749V75.3317C217.749 74.7023 217.626 74.249 217.381 73.9717C217.146 73.6837 216.767 73.5397 216.245 73.5397C215.637 73.5397 215.146 73.7317 214.773 74.1157C214.41 74.489 214.229 74.9903 214.229 75.6197V80.2117H212.229Z" fill="#1E1E1E"/>
<defs>
<linearGradient id="paint0_linear_1_33" x1="32.9845" y1="36.2117" x2="341.288" y2="36.2117" gradientUnits="userSpaceOnUse">
<stop stop-color="#00CCFF"/>
<stop offset="1" stop-color="#FF00FF"/>
</linearGradient>
</defs>
</svg>
