<svg width="360" height="49" viewBox="0 0 360 49" fill="none" xmlns="http://www.w3.org/2000/svg">
<rect width="360" height="49" fill="url(#paint0_linear_8_255)"/>
<path d="M136.777 32L143.157 17.9H145.317L151.777 32H149.157L147.437 28.04L148.477 28.74H140.017L141.097 28.04L139.377 32H136.777ZM144.217 20.66L141.397 27.34L140.877 26.72H147.597L147.177 27.34L144.297 20.66H144.217ZM159.844 32.2C158.258 32.2 156.924 31.9067 155.844 31.32C154.764 30.7333 153.951 29.9 153.404 28.82C152.858 27.74 152.584 26.46 152.584 24.98C152.584 23.4867 152.878 22.2 153.464 21.12C154.051 20.0267 154.891 19.1867 155.984 18.6C157.091 18 158.418 17.7 159.964 17.7C160.991 17.7 161.891 17.84 162.664 18.12C163.438 18.3867 164.118 18.78 164.704 19.3L163.844 21.3C163.418 20.9667 163.011 20.7 162.624 20.5C162.238 20.3 161.838 20.16 161.424 20.08C161.011 19.9867 160.531 19.94 159.984 19.94C158.438 19.94 157.264 20.38 156.464 21.26C155.678 22.1267 155.284 23.3733 155.284 25C155.284 26.6267 155.658 27.8667 156.404 28.72C157.164 29.5733 158.351 30 159.964 30C160.511 30 161.058 29.9467 161.604 29.84C162.164 29.7333 162.711 29.58 163.244 29.38L162.764 30.46V26.24H159.464V24.36H164.904V31.14C164.251 31.4733 163.471 31.7333 162.564 31.92C161.658 32.1067 160.751 32.2 159.844 32.2ZM167.849 32V17.9H177.349V19.92H170.329V23.82H176.889V25.86H170.329V29.96H177.349V32H167.849ZM179.744 32V17.9H181.684L189.864 28.48H189.344V17.9H191.744V32H189.804L181.644 21.42H182.144V32H179.744ZM194.841 32V17.9H199.961C201.575 17.9 202.935 18.18 204.041 18.74C205.161 19.2867 206.008 20.0867 206.581 21.14C207.155 22.18 207.441 23.4467 207.441 24.94C207.441 26.42 207.155 27.6867 206.581 28.74C206.008 29.7933 205.161 30.6 204.041 31.16C202.935 31.72 201.575 32 199.961 32H194.841ZM197.421 29.86H199.801C201.508 29.86 202.775 29.4533 203.601 28.64C204.428 27.8267 204.841 26.5933 204.841 24.94C204.841 23.2733 204.428 22.04 203.601 21.24C202.775 20.4267 201.508 20.02 199.801 20.02H197.421V29.86ZM208.223 32L214.603 17.9H216.763L223.223 32H220.603L218.883 28.04L219.923 28.74H211.463L212.543 28.04L210.823 32H208.223ZM215.663 20.66L212.843 27.34L212.323 26.72H219.043L218.623 27.34L215.743 20.66H215.663Z" fill="white"/>
<defs>
<linearGradient id="paint0_linear_8_255" x1="-229.6" y1="24.5" x2="534.804" y2="24.5" gradientUnits="userSpaceOnUse">
<stop stop-color="#00CCFF"/>
<stop offset="1" stop-color="#FF00FF"/>
</linearGradient>
</defs>
</svg>
