<svg width="360" height="49" viewBox="0 0 360 49" fill="none" xmlns="http://www.w3.org/2000/svg">
<rect width="360" height="49" fill="url(#paint0_linear_3_503)"/>
<path d="M109.214 32.2C107.747 32.2 106.487 31.9067 105.434 31.32C104.394 30.72 103.594 29.88 103.034 28.8C102.474 27.7067 102.194 26.42 102.194 24.94C102.194 23.46 102.474 22.18 103.034 21.1C103.594 20.02 104.394 19.1867 105.434 18.6C106.487 18 107.747 17.7 109.214 17.7C110.2 17.7 111.087 17.84 111.874 18.12C112.674 18.4 113.36 18.8133 113.934 19.36L113.094 21.4C112.467 20.8933 111.86 20.5333 111.274 20.32C110.7 20.0933 110.04 19.98 109.294 19.98C107.867 19.98 106.774 20.4133 106.014 21.28C105.267 22.1333 104.894 23.3533 104.894 24.94C104.894 26.5267 105.267 27.7533 106.014 28.62C106.774 29.4867 107.867 29.92 109.294 29.92C110.04 29.92 110.7 29.8133 111.274 29.6C111.86 29.3733 112.467 29 113.094 28.48L113.934 30.52C113.36 31.0533 112.674 31.4667 111.874 31.76C111.087 32.0533 110.2 32.2 109.214 32.2ZM116.345 32V17.9H118.925V23.78H126.145V17.9H128.725V32H126.145V25.92H118.925V32H116.345ZM137.713 32.2C135.7 32.2 134.2 31.7 133.213 30.7C132.24 29.6867 131.753 28.1933 131.753 26.22V17.9H134.333V26.2C134.333 27.4533 134.6 28.4 135.133 29.04C135.68 29.68 136.54 30 137.713 30C138.833 30 139.673 29.68 140.233 29.04C140.807 28.4 141.093 27.4533 141.093 26.2V17.9H143.633V26.22C143.633 28.1933 143.133 29.6867 142.133 30.7C141.147 31.7 139.673 32.2 137.713 32.2ZM143.413 19.18L141.993 18.28V17.9C142.473 17.8867 142.853 17.82 143.133 17.7C143.427 17.5667 143.633 17.3467 143.753 17.04C143.887 16.7333 143.953 16.3133 143.953 15.78V15.36H146.133V16.1C146.133 16.6733 146.02 17.18 145.793 17.62C145.58 18.06 145.267 18.42 144.853 18.7C144.453 18.9667 143.973 19.1267 143.413 19.18ZM146.178 24.94C146.178 23.46 146.445 22.18 146.978 21.1C147.525 20.02 148.305 19.1867 149.318 18.6C150.331 18 151.538 17.7 152.938 17.7C154.325 17.7 155.525 18 156.538 18.6C157.551 19.1867 158.331 20.02 158.878 21.1C159.438 22.18 159.718 23.4533 159.718 24.92C159.718 26.4 159.438 27.6867 158.878 28.78C158.331 29.86 157.551 30.7 156.538 31.3C155.525 31.9 154.325 32.2 152.938 32.2C151.538 32.2 150.331 31.9 149.318 31.3C148.318 30.7 147.545 29.86 146.998 28.78C146.451 27.6867 146.178 26.4067 146.178 24.94ZM148.878 24.94C148.878 26.5267 149.218 27.7667 149.898 28.66C150.578 29.5533 151.591 30 152.938 30C154.245 30 155.251 29.5533 155.958 28.66C156.665 27.7667 157.018 26.5267 157.018 24.94C157.018 23.34 156.665 22.1 155.958 21.22C155.265 20.34 154.258 19.9 152.938 19.9C151.591 19.9 150.578 20.34 149.898 21.22C149.218 22.1 148.878 23.34 148.878 24.94ZM155.138 19.18L154.258 17.82C154.565 17.8333 154.825 17.8533 155.038 17.88C155.251 17.8933 155.465 17.9 155.678 17.9C156.158 17.9 156.538 17.84 156.818 17.72C157.111 17.5867 157.325 17.3667 157.458 17.06C157.591 16.74 157.658 16.3133 157.658 15.78V15.36H159.818V16.1C159.818 16.6733 159.698 17.1933 159.458 17.66C159.218 18.1267 158.885 18.5 158.458 18.78C158.031 19.0467 157.538 19.18 156.978 19.18H155.138ZM162.38 32V17.9H164.32L172.5 28.48H171.98V17.9H174.38V32H172.44L164.28 21.42H164.78V32H162.38ZM184.278 32.2C182.691 32.2 181.358 31.9067 180.278 31.32C179.198 30.7333 178.385 29.9 177.838 28.82C177.291 27.74 177.018 26.46 177.018 24.98C177.018 23.4867 177.311 22.2 177.898 21.12C178.485 20.0267 179.325 19.1867 180.418 18.6C181.525 18 182.851 17.7 184.398 17.7C185.425 17.7 186.325 17.84 187.098 18.12C187.871 18.3867 188.551 18.78 189.138 19.3L188.278 21.3C187.851 20.9667 187.445 20.7 187.058 20.5C186.671 20.3 186.271 20.16 185.858 20.08C185.445 19.9867 184.965 19.94 184.418 19.94C182.871 19.94 181.698 20.38 180.898 21.26C180.111 22.1267 179.718 23.3733 179.718 25C179.718 26.6267 180.091 27.8667 180.838 28.72C181.598 29.5733 182.785 30 184.398 30C184.945 30 185.491 29.9467 186.038 29.84C186.598 29.7333 187.145 29.58 187.678 29.38L187.198 30.46V26.24H183.898V24.36H189.338V31.14C188.685 31.4733 187.905 31.7333 186.998 31.92C186.091 32.1067 185.185 32.2 184.278 32.2ZM201.091 32V20.02H196.431V17.9H208.331V20.02H203.671V32H201.091ZM210.154 32V17.9H216.314C217.86 17.9 219.054 18.2667 219.894 19C220.747 19.7333 221.174 20.7533 221.174 22.06C221.174 22.9267 220.98 23.6667 220.594 24.28C220.22 24.8933 219.68 25.3667 218.974 25.7C218.267 26.02 217.434 26.18 216.474 26.18L216.754 25.8H217.434C217.994 25.8 218.494 25.9467 218.934 26.24C219.374 26.5333 219.734 26.98 220.014 27.58L222.074 32H219.234L217.154 27.42C216.967 26.9533 216.68 26.6467 216.294 26.5C215.92 26.3533 215.467 26.28 214.934 26.28H212.734V32H210.154ZM212.734 24.38H215.894C216.8 24.38 217.487 24.1933 217.954 23.82C218.434 23.4333 218.674 22.8733 218.674 22.14C218.674 21.4067 218.434 20.8533 217.954 20.48C217.487 20.1067 216.8 19.92 215.894 19.92H212.734V24.38ZM224.197 32V17.9H226.777V32H224.197ZM224.577 16.7L221.397 13.22H223.997L226.377 16.7H224.577ZM229.88 32V17.9H231.82L240 28.48H239.48V17.9H241.88V32H239.94L231.78 21.42H232.28V32H229.88ZM244.978 32V17.9H247.558V23.78H254.778V17.9H257.358V32H254.778V25.92H247.558V32H244.978Z" fill="white"/>
<defs>
<linearGradient id="paint0_linear_3_503" x1="-229.6" y1="24.5" x2="534.804" y2="24.5" gradientUnits="userSpaceOnUse">
<stop stop-color="#00CCFF"/>
<stop offset="1" stop-color="#FF00FF"/>
</linearGradient>
</defs>
</svg>
