<svg width="1440" height="88" viewBox="0 0 1440 88" fill="none" xmlns="http://www.w3.org/2000/svg">
<rect width="1440" height="88" fill="url(#paint0_linear_8_253)"/>
<path d="M650.844 56L661.052 33.44H664.508L674.844 56H670.652L667.9 49.664L669.564 50.784H656.028L657.756 49.664L655.004 56H650.844ZM662.748 37.856L658.236 48.544L657.404 47.552H668.156L667.484 48.544L662.876 37.856H662.748ZM687.751 56.32C685.212 56.32 683.079 55.8507 681.351 54.912C679.623 53.9733 678.322 52.64 677.447 50.912C676.572 49.184 676.135 47.136 676.135 44.768C676.135 42.3787 676.604 40.32 677.543 38.592C678.482 36.8427 679.826 35.4987 681.575 34.56C683.346 33.6 685.468 33.12 687.943 33.12C689.586 33.12 691.026 33.344 692.263 33.792C693.5 34.2187 694.588 34.848 695.527 35.68L694.151 38.88C693.468 38.3467 692.818 37.92 692.199 37.6C691.58 37.28 690.94 37.056 690.279 36.928C689.618 36.7787 688.85 36.704 687.975 36.704C685.5 36.704 683.623 37.408 682.343 38.816C681.084 40.2027 680.455 42.1973 680.455 44.8C680.455 47.4027 681.052 49.3867 682.247 50.752C683.463 52.1173 685.362 52.8 687.943 52.8C688.818 52.8 689.692 52.7147 690.567 52.544C691.463 52.3733 692.338 52.128 693.191 51.808L692.423 53.536V46.784H687.143V43.776H695.847V54.624C694.802 55.1573 693.554 55.5733 692.103 55.872C690.652 56.1707 689.202 56.32 687.751 56.32ZM700.559 56V33.44H715.759V36.672H704.527V42.912H715.023V46.176H704.527V52.736H715.759V56H700.559ZM719.59 56V33.44H722.694L735.782 50.368H734.95V33.44H738.79V56H735.686L722.63 39.072H723.43V56H719.59ZM743.746 56V33.44H751.938C754.519 33.44 756.695 33.888 758.466 34.784C760.258 35.6587 761.613 36.9387 762.53 38.624C763.447 40.288 763.906 42.3147 763.906 44.704C763.906 47.072 763.447 49.0987 762.53 50.784C761.613 52.4693 760.258 53.76 758.466 54.656C756.695 55.552 754.519 56 751.938 56H743.746ZM747.874 52.576H751.682C754.413 52.576 756.439 51.9253 757.762 50.624C759.085 49.3227 759.746 47.3493 759.746 44.704C759.746 42.0373 759.085 40.064 757.762 38.784C756.439 37.4827 754.413 36.832 751.682 36.832H747.874V52.576ZM765.156 56L775.364 33.44H778.82L789.156 56H784.964L782.212 49.664L783.876 50.784H770.34L772.068 49.664L769.316 56H765.156ZM777.06 37.856L772.548 48.544L771.716 47.552H782.468L781.796 48.544L777.188 37.856H777.06Z" fill="white"/>
<defs>
<linearGradient id="paint0_linear_8_253" x1="-918.4" y1="44" x2="2139.22" y2="44" gradientUnits="userSpaceOnUse">
<stop stop-color="#00CCFF"/>
<stop offset="1" stop-color="#FF00FF"/>
</linearGradient>
</defs>
</svg>
