<svg width="360" height="49" viewBox="0 0 360 49" fill="none" xmlns="http://www.w3.org/2000/svg">
<rect width="360" height="49" fill="url(#paint0_linear_302_7365)"/>
<path d="M134.532 32.2C132.945 32.2 131.612 31.9067 130.532 31.32C129.452 30.7333 128.639 29.9 128.092 28.82C127.545 27.74 127.272 26.46 127.272 24.98C127.272 23.4867 127.565 22.2 128.152 21.12C128.739 20.0267 129.579 19.1867 130.672 18.6C131.779 18 133.105 17.7 134.652 17.7C135.679 17.7 136.579 17.84 137.352 18.12C138.125 18.3867 138.805 18.78 139.392 19.3L138.532 21.3C138.105 20.9667 137.699 20.7 137.312 20.5C136.925 20.3 136.525 20.16 136.112 20.08C135.699 19.9867 135.219 19.94 134.672 19.94C133.125 19.94 131.952 20.38 131.152 21.26C130.365 22.1267 129.972 23.3733 129.972 25C129.972 26.6267 130.345 27.8667 131.092 28.72C131.852 29.5733 133.039 30 134.652 30C135.199 30 135.745 29.9467 136.292 29.84C136.852 29.7333 137.399 29.58 137.932 29.38L137.452 30.46V26.24H134.152V24.36H139.592V31.14C138.939 31.4733 138.159 31.7333 137.252 31.92C136.345 32.1067 135.439 32.2 134.532 32.2ZM142.537 32V17.9H145.117V32H142.537ZM147.76 24.94C147.76 23.46 148.027 22.18 148.56 21.1C149.107 20.02 149.887 19.1867 150.9 18.6C151.913 18 153.12 17.7 154.52 17.7C155.907 17.7 157.107 18 158.12 18.6C159.133 19.1867 159.913 20.02 160.46 21.1C161.02 22.18 161.3 23.4533 161.3 24.92C161.3 26.4 161.02 27.6867 160.46 28.78C159.913 29.86 159.133 30.7 158.12 31.3C157.107 31.9 155.907 32.2 154.52 32.2C153.12 32.2 151.913 31.9 150.9 31.3C149.9 30.7 149.127 29.86 148.58 28.78C148.033 27.6867 147.76 26.4067 147.76 24.94ZM150.46 24.94C150.46 26.5267 150.8 27.7667 151.48 28.66C152.16 29.5533 153.173 30 154.52 30C155.827 30 156.833 29.5533 157.54 28.66C158.247 27.7667 158.6 26.5267 158.6 24.94C158.6 23.34 158.247 22.1 157.54 21.22C156.847 20.34 155.84 19.9 154.52 19.9C153.173 19.9 152.16 20.34 151.48 21.22C150.8 22.1 150.46 23.34 150.46 24.94ZM156.72 19.18L155.84 17.82C156.147 17.8333 156.407 17.8533 156.62 17.88C156.833 17.8933 157.047 17.9 157.26 17.9C157.74 17.9 158.12 17.84 158.4 17.72C158.693 17.5867 158.907 17.3667 159.04 17.06C159.173 16.74 159.24 16.3133 159.24 15.78V15.36H161.4V16.1C161.4 16.6733 161.28 17.1933 161.04 17.66C160.8 18.1267 160.467 18.5 160.04 18.78C159.613 19.0467 159.12 19.18 158.56 19.18H156.72ZM153.78 16.7L156.16 13.22H158.76L155.58 16.7H153.78ZM163.962 32V17.9H166.542V32H163.962ZM178.454 32V20.02H173.794V17.9H185.694V20.02H181.034V32H178.454ZM187.517 32V17.9H190.097V23.78H197.317V17.9H199.897V32H197.317V25.92H190.097V32H187.517ZM203.005 32V17.9H205.585V32H203.005ZM208.689 32V17.9H218.189V19.92H211.169V23.82H217.729V25.86H211.169V29.96H218.189V32H208.689ZM212.569 36.08V33.76H215.009V36.08H212.569ZM210.229 16.7L212.709 13.22H214.869L217.349 16.7H215.609L213.789 14.62L211.969 16.7H210.229ZM226.463 32.2C224.45 32.2 222.95 31.7 221.963 30.7C220.99 29.6867 220.503 28.1933 220.503 26.22V17.9H223.083V26.2C223.083 27.4533 223.35 28.4 223.883 29.04C224.43 29.68 225.29 30 226.463 30C227.583 30 228.423 29.68 228.983 29.04C229.557 28.4 229.843 27.4533 229.843 26.2V17.9H232.383V26.22C232.383 28.1933 231.883 29.6867 230.883 30.7C229.897 31.7 228.423 32.2 226.463 32.2Z" fill="white"/>
<defs>
<linearGradient id="paint0_linear_302_7365" x1="-229.6" y1="24.5" x2="534.804" y2="24.5" gradientUnits="userSpaceOnUse">
<stop stop-color="#00CCFF"/>
<stop offset="1" stop-color="#FF00FF"/>
</linearGradient>
</defs>
</svg>
