<svg width="1440" height="88" viewBox="0 0 1440 88" fill="none" xmlns="http://www.w3.org/2000/svg">
<rect width="1440" height="88" fill="url(#paint0_linear_202_6537)"/>
<path d="M606.742 56.32C604.395 56.32 602.379 55.8507 600.694 54.912C599.03 53.952 597.75 52.608 596.854 50.88C595.958 49.1307 595.51 47.072 595.51 44.704C595.51 42.336 595.958 40.288 596.854 38.56C597.75 36.832 599.03 35.4987 600.694 34.56C602.379 33.6 604.395 33.12 606.742 33.12C608.321 33.12 609.739 33.344 610.998 33.792C612.278 34.24 613.377 34.9013 614.294 35.776L612.95 39.04C611.947 38.2293 610.977 37.6533 610.038 37.312C609.121 36.9493 608.065 36.768 606.87 36.768C604.587 36.768 602.838 37.4613 601.622 38.848C600.427 40.2133 599.83 42.1653 599.83 44.704C599.83 47.2427 600.427 49.2053 601.622 50.592C602.838 51.9787 604.587 52.672 606.87 52.672C608.065 52.672 609.121 52.5013 610.038 52.16C610.977 51.7973 611.947 51.2 612.95 50.368L614.294 53.632C613.377 54.4853 612.278 55.1467 610.998 55.616C609.739 56.0853 608.321 56.32 606.742 56.32ZM618.152 56V33.44H622.28V42.848H633.832V33.44H637.96V56H633.832V46.272H622.28V56H618.152ZM652.342 56.32C649.12 56.32 646.72 55.52 645.141 53.92C643.584 52.2987 642.806 49.9093 642.806 46.752V33.44H646.934V46.72C646.934 48.7253 647.36 50.24 648.214 51.264C649.088 52.288 650.464 52.8 652.342 52.8C654.134 52.8 655.478 52.288 656.374 51.264C657.291 50.24 657.75 48.7253 657.75 46.72V33.44H661.814V46.752C661.814 49.9093 661.014 52.2987 659.414 53.92C657.835 55.52 655.478 56.32 652.342 56.32ZM661.462 35.488L659.19 34.048V33.44C659.958 33.4187 660.566 33.312 661.014 33.12C661.483 32.9067 661.814 32.5547 662.006 32.064C662.219 31.5733 662.326 30.9013 662.326 30.048V29.376H665.814V30.56C665.814 31.4773 665.632 32.288 665.27 32.992C664.928 33.696 664.427 34.272 663.766 34.72C663.126 35.1467 662.358 35.4027 661.462 35.488ZM665.885 44.704C665.885 42.336 666.312 40.288 667.165 38.56C668.04 36.832 669.288 35.4987 670.909 34.56C672.53 33.6 674.461 33.12 676.701 33.12C678.92 33.12 680.84 33.6 682.461 34.56C684.082 35.4987 685.33 36.832 686.205 38.56C687.101 40.288 687.549 42.3253 687.549 44.672C687.549 47.04 687.101 49.0987 686.205 50.848C685.33 52.576 684.082 53.92 682.461 54.88C680.84 55.84 678.92 56.32 676.701 56.32C674.461 56.32 672.53 55.84 670.909 54.88C669.309 53.92 668.072 52.576 667.197 50.848C666.322 49.0987 665.885 47.0507 665.885 44.704ZM670.205 44.704C670.205 47.2427 670.749 49.2267 671.837 50.656C672.925 52.0853 674.546 52.8 676.701 52.8C678.792 52.8 680.402 52.0853 681.533 50.656C682.664 49.2267 683.229 47.2427 683.229 44.704C683.229 42.144 682.664 40.16 681.533 38.752C680.424 37.344 678.813 36.64 676.701 36.64C674.546 36.64 672.925 37.344 671.837 38.752C670.749 40.16 670.205 42.144 670.205 44.704ZM680.221 35.488L678.813 33.312C679.304 33.3333 679.72 33.3653 680.061 33.408C680.402 33.4293 680.744 33.44 681.085 33.44C681.853 33.44 682.461 33.344 682.909 33.152C683.378 32.9387 683.72 32.5867 683.933 32.096C684.146 31.584 684.253 30.9013 684.253 30.048V29.376H687.709V30.56C687.709 31.4773 687.517 32.3093 687.133 33.056C686.749 33.8027 686.216 34.4 685.533 34.848C684.85 35.2747 684.061 35.488 683.165 35.488H680.221ZM691.809 56V33.44H694.913L708.001 50.368H707.169V33.44H711.009V56H707.905L694.849 39.072H695.649V56H691.809ZM726.845 56.32C724.306 56.32 722.173 55.8507 720.445 54.912C718.717 53.9733 717.415 52.64 716.541 50.912C715.666 49.184 715.229 47.136 715.229 44.768C715.229 42.3787 715.698 40.32 716.637 38.592C717.575 36.8427 718.919 35.4987 720.669 34.56C722.439 33.6 724.562 33.12 727.037 33.12C728.679 33.12 730.119 33.344 731.357 33.792C732.594 34.2187 733.682 34.848 734.621 35.68L733.245 38.88C732.562 38.3467 731.911 37.92 731.293 37.6C730.674 37.28 730.034 37.056 729.373 36.928C728.711 36.7787 727.943 36.704 727.069 36.704C724.594 36.704 722.717 37.408 721.437 38.816C720.178 40.2027 719.549 42.1973 719.549 44.8C719.549 47.4027 720.146 49.3867 721.341 50.752C722.557 52.1173 724.455 52.8 727.037 52.8C727.911 52.8 728.786 52.7147 729.661 52.544C730.557 52.3733 731.431 52.128 732.285 51.808L731.517 53.536V46.784H726.237V43.776H734.941V54.624C733.895 55.1573 732.647 55.5733 731.197 55.872C729.746 56.1707 728.295 56.32 726.845 56.32ZM753.746 56V36.832H746.29V33.44H765.33V36.832H757.874V56H753.746ZM768.246 56V33.44H778.102C780.577 33.44 782.486 34.0267 783.83 35.2C785.195 36.3733 785.878 38.0053 785.878 40.096C785.878 41.4827 785.569 42.6667 784.95 43.648C784.353 44.6293 783.489 45.3867 782.358 45.92C781.227 46.432 779.894 46.688 778.358 46.688L778.806 46.08H779.894C780.79 46.08 781.59 46.3147 782.294 46.784C782.998 47.2533 783.574 47.968 784.022 48.928L787.318 56H782.774L779.446 48.672C779.147 47.9253 778.689 47.4347 778.07 47.2C777.473 46.9653 776.747 46.848 775.894 46.848H772.374V56H768.246ZM772.374 43.808H777.43C778.881 43.808 779.979 43.5093 780.726 42.912C781.494 42.2933 781.878 41.3973 781.878 40.224C781.878 39.0507 781.494 38.1653 780.726 37.568C779.979 36.9707 778.881 36.672 777.43 36.672H772.374V43.808ZM790.715 56V33.44H794.843V56H790.715ZM791.323 31.52L786.235 25.952H790.395L794.203 31.52H791.323ZM799.809 56V33.44H802.913L816.001 50.368H815.169V33.44H819.009V56H815.905L802.849 39.072H803.649V56H799.809ZM823.965 56V33.44H828.093V42.848H839.645V33.44H843.773V56H839.645V46.272H828.093V56H823.965Z" fill="white"/>
<defs>
<linearGradient id="paint0_linear_202_6537" x1="-918.4" y1="44" x2="2139.22" y2="44" gradientUnits="userSpaceOnUse">
<stop stop-color="#00CCFF"/>
<stop offset="1" stop-color="#FF00FF"/>
</linearGradient>
</defs>
</svg>
