<svg width="312" height="60" viewBox="0 0 312 60" fill="none" xmlns="http://www.w3.org/2000/svg">
<path d="M291.063 0H20.9374C9.37399 0 0 9.37399 0 20.9374C0 32.5008 9.37401 41.8748 20.9374 41.8748H145.361L156 59.2117L166.824 41.8748H291.063C302.626 41.8748 312 32.5008 312 20.9374C312 9.37399 302.626 0 291.063 0Z" fill="url(#paint0_linear_8_291)"/>
<path d="M109.5 30.2C108.366 30.2 107.32 30.06 106.36 29.78C105.413 29.4867 104.6 29.0867 103.92 28.58L104.72 26.56C105.173 26.88 105.646 27.1533 106.14 27.38C106.633 27.5933 107.16 27.76 107.72 27.88C108.28 27.9867 108.873 28.04 109.5 28.04C110.553 28.04 111.313 27.8667 111.78 27.52C112.246 27.1733 112.48 26.72 112.48 26.16C112.48 25.6667 112.32 25.2933 112 25.04C111.68 24.7733 111.106 24.5533 110.28 24.38L108.02 23.92C106.726 23.6533 105.76 23.2067 105.12 22.58C104.48 21.9533 104.16 21.1133 104.16 20.06C104.16 19.18 104.393 18.4133 104.86 17.76C105.326 17.1067 105.98 16.6 106.82 16.24C107.66 15.88 108.64 15.7 109.76 15.7C110.76 15.7 111.686 15.8467 112.54 16.14C113.393 16.42 114.106 16.8267 114.68 17.36L113.88 19.28C113.306 18.8 112.68 18.4467 112 18.22C111.32 17.98 110.56 17.86 109.72 17.86C108.773 17.86 108.033 18.0467 107.5 18.42C106.98 18.78 106.72 19.28 106.72 19.92C106.72 20.4133 106.88 20.8067 107.2 21.1C107.533 21.3933 108.093 21.62 108.88 21.78L111.12 22.22C112.453 22.4867 113.44 22.9267 114.08 23.54C114.72 24.14 115.04 24.9533 115.04 25.98C115.04 26.82 114.813 27.56 114.36 28.2C113.906 28.8267 113.266 29.32 112.44 29.68C111.613 30.0267 110.633 30.2 109.5 30.2ZM117.47 30V15.9H123.73C125.277 15.9 126.457 16.2733 127.27 17.02C128.083 17.7667 128.49 18.7933 128.49 20.1C128.49 21.3933 128.083 22.42 127.27 23.18C126.457 23.94 125.277 24.32 123.73 24.32H120.05V30H117.47ZM120.05 22.28H123.43C124.283 22.28 124.923 22.0933 125.35 21.72C125.777 21.3333 125.99 20.7933 125.99 20.1C125.99 19.4067 125.777 18.8733 125.35 18.5C124.923 18.1133 124.283 17.92 123.43 17.92H120.05V22.28ZM130.79 30V15.9H140.29V17.92H133.27V21.82H139.83V23.86H133.27V27.96H140.29V30H130.79ZM140.871 30L147.251 15.9H149.411L155.871 30H153.251L151.531 26.04L152.571 26.74H144.111L145.191 26.04L143.471 30H140.871ZM148.311 18.66L145.491 25.34L144.971 24.72H151.691L151.271 25.34L148.391 18.66H148.311ZM157.431 30V15.9H160.011V22.14H160.051L166.191 15.9H169.311L161.951 23.24L161.971 22.12L169.791 30H166.571L160.051 23.48H160.011V30H157.431ZM170.751 30V15.9H180.251V17.92H173.231V21.82H179.791V23.86H173.231V27.96H180.251V30H170.751ZM182.646 30V15.9H188.806C190.353 15.9 191.546 16.2667 192.386 17C193.239 17.7333 193.666 18.7533 193.666 20.06C193.666 20.9267 193.473 21.6667 193.086 22.28C192.713 22.8933 192.173 23.3667 191.466 23.7C190.759 24.02 189.926 24.18 188.966 24.18L189.246 23.8H189.926C190.486 23.8 190.986 23.9467 191.426 24.24C191.866 24.5333 192.226 24.98 192.506 25.58L194.566 30H191.726L189.646 25.42C189.459 24.9533 189.173 24.6467 188.786 24.5C188.413 24.3533 187.959 24.28 187.426 24.28H185.226V30H182.646ZM185.226 22.38H188.386C189.293 22.38 189.979 22.1933 190.446 21.82C190.926 21.4333 191.166 20.8733 191.166 20.14C191.166 19.4067 190.926 18.8533 190.446 18.48C189.979 18.1067 189.293 17.92 188.386 17.92H185.226V22.38ZM201.57 30.2C200.437 30.2 199.39 30.06 198.43 29.78C197.483 29.4867 196.67 29.0867 195.99 28.58L196.79 26.56C197.243 26.88 197.717 27.1533 198.21 27.38C198.703 27.5933 199.23 27.76 199.79 27.88C200.35 27.9867 200.943 28.04 201.57 28.04C202.623 28.04 203.383 27.8667 203.85 27.52C204.317 27.1733 204.55 26.72 204.55 26.16C204.55 25.6667 204.39 25.2933 204.07 25.04C203.75 24.7733 203.177 24.5533 202.35 24.38L200.09 23.92C198.797 23.6533 197.83 23.2067 197.19 22.58C196.55 21.9533 196.23 21.1133 196.23 20.06C196.23 19.18 196.463 18.4133 196.93 17.76C197.397 17.1067 198.05 16.6 198.89 16.24C199.73 15.88 200.71 15.7 201.83 15.7C202.83 15.7 203.757 15.8467 204.61 16.14C205.463 16.42 206.177 16.8267 206.75 17.36L205.95 19.28C205.377 18.8 204.75 18.4467 204.07 18.22C203.39 17.98 202.63 17.86 201.79 17.86C200.843 17.86 200.103 18.0467 199.57 18.42C199.05 18.78 198.79 19.28 198.79 19.92C198.79 20.4133 198.95 20.8067 199.27 21.1C199.603 21.3933 200.163 21.62 200.95 21.78L203.19 22.22C204.523 22.4867 205.51 22.9267 206.15 23.54C206.79 24.14 207.11 24.9533 207.11 25.98C207.11 26.82 206.883 27.56 206.43 28.2C205.977 28.8267 205.337 29.32 204.51 29.68C203.683 30.0267 202.703 30.2 201.57 30.2Z" fill="white"/>
<defs>
<linearGradient id="paint0_linear_8_291" x1="-249.929" y1="20.9374" x2="601.321" y2="20.9374" gradientUnits="userSpaceOnUse">
<stop stop-color="#00CCFF"/>
<stop offset="1" stop-color="#FF00FF"/>
</linearGradient>
</defs>
</svg>
