<svg width="270" height="78" viewBox="0 0 270 78" fill="none" xmlns="http://www.w3.org/2000/svg">
<path d="M217.919 0H63.081C47.8484 0 35.5 12.3484 35.5 27.581C35.5 42.8135 47.8484 55.162 63.081 55.162H120.485L134.5 78L148.759 55.162H217.919C233.152 55.162 245.5 42.8135 245.5 27.581C245.5 12.3484 233.152 0 217.919 0Z" fill="url(#paint0_linear_8_287)"/>
<rect width="270" height="56" rx="28" fill="url(#paint1_linear_8_287)"/>
<path d="M61.3993 40.32C59.5859 40.32 57.9113 40.096 56.3753 39.648C54.8606 39.1787 53.5593 38.5387 52.4713 37.728L53.7513 34.496C54.4766 35.008 55.2339 35.4453 56.0233 35.808C56.8126 36.1493 57.6553 36.416 58.5513 36.608C59.4473 36.7787 60.3966 36.864 61.3993 36.864C63.0846 36.864 64.3006 36.5867 65.0473 36.032C65.7939 35.4773 66.1673 34.752 66.1673 33.856C66.1673 33.0667 65.9113 32.4693 65.3993 32.064C64.8873 31.6373 63.9699 31.2853 62.6473 31.008L59.0312 30.272C56.9619 29.8453 55.4153 29.1307 54.3913 28.128C53.3673 27.1253 52.8553 25.7813 52.8553 24.096C52.8553 22.688 53.2286 21.4613 53.9753 20.416C54.7219 19.3707 55.7673 18.56 57.1113 17.984C58.4553 17.408 60.0233 17.12 61.8153 17.12C63.4153 17.12 64.8979 17.3547 66.2633 17.824C67.6286 18.272 68.7699 18.9227 69.6873 19.776L68.4073 22.848C67.4899 22.08 66.4873 21.5147 65.3993 21.152C64.3113 20.768 63.0953 20.576 61.7513 20.576C60.2366 20.576 59.0526 20.8747 58.1993 21.472C57.3673 22.048 56.9513 22.848 56.9513 23.872C56.9513 24.6613 57.2073 25.2907 57.7193 25.76C58.2526 26.2293 59.1486 26.592 60.4073 26.848L63.9913 27.552C66.1246 27.9787 67.7033 28.6827 68.7273 29.664C69.7513 30.624 70.2633 31.9253 70.2633 33.568C70.2633 34.912 69.9006 36.096 69.1753 37.12C68.4499 38.1227 67.4259 38.912 66.1033 39.488C64.7806 40.0427 63.2126 40.32 61.3993 40.32ZM74.1523 40V17.44H84.1683C86.6429 17.44 88.5309 18.0373 89.8323 19.232C91.1336 20.4267 91.7843 22.0693 91.7843 24.16C91.7843 26.2293 91.1336 27.872 89.8323 29.088C88.5309 30.304 86.6429 30.912 84.1683 30.912H78.2803V40H74.1523ZM78.2803 27.648H83.6883C85.0536 27.648 86.0776 27.3493 86.7603 26.752C87.4429 26.1333 87.7843 25.2693 87.7843 24.16C87.7843 23.0507 87.4429 22.1973 86.7603 21.6C86.0776 20.9813 85.0536 20.672 83.6883 20.672H78.2803V27.648ZM95.4648 40V17.44H110.665V20.672H99.4328V26.912H109.929V30.176H99.4328V36.736H110.665V40H95.4648ZM111.594 40L121.802 17.44H125.258L135.594 40H131.402L128.65 33.664L130.314 34.784H116.778L118.506 33.664L115.754 40H111.594ZM123.498 21.856L118.986 32.544L118.154 31.552H128.906L128.234 32.544L123.626 21.856H123.498ZM138.09 40V17.44H142.218V27.424H142.282L152.106 17.44H157.098L145.322 29.184L145.354 27.392L157.866 40H152.714L142.282 29.568H142.218V40H138.09ZM159.402 40V17.44H174.602V20.672H163.37V26.912H173.866V30.176H163.37V36.736H174.602V40H159.402ZM178.434 40V17.44H188.29C190.764 17.44 192.674 18.0267 194.017 19.2C195.383 20.3733 196.066 22.0053 196.066 24.096C196.066 25.4827 195.756 26.6667 195.138 27.648C194.54 28.6293 193.676 29.3867 192.546 29.92C191.415 30.432 190.082 30.688 188.546 30.688L188.994 30.08H190.082C190.978 30.08 191.778 30.3147 192.482 30.784C193.186 31.2533 193.762 31.968 194.21 32.928L197.506 40H192.962L189.634 32.672C189.335 31.9253 188.876 31.4347 188.258 31.2C187.66 30.9653 186.935 30.848 186.082 30.848H182.562V40H178.434ZM182.562 27.808H187.618C189.068 27.808 190.167 27.5093 190.914 26.912C191.682 26.2933 192.066 25.3973 192.066 24.224C192.066 23.0507 191.682 22.1653 190.914 21.568C190.167 20.9707 189.068 20.672 187.618 20.672H182.562V27.808ZM208.712 40.32C206.898 40.32 205.224 40.096 203.688 39.648C202.173 39.1787 200.872 38.5387 199.784 37.728L201.064 34.496C201.789 35.008 202.546 35.4453 203.336 35.808C204.125 36.1493 204.968 36.416 205.864 36.608C206.76 36.7787 207.709 36.864 208.712 36.864C210.397 36.864 211.613 36.5867 212.36 36.032C213.106 35.4773 213.48 34.752 213.48 33.856C213.48 33.0667 213.224 32.4693 212.712 32.064C212.2 31.6373 211.282 31.2853 209.96 31.008L206.344 30.272C204.274 29.8453 202.728 29.1307 201.704 28.128C200.68 27.1253 200.168 25.7813 200.168 24.096C200.168 22.688 200.541 21.4613 201.288 20.416C202.034 19.3707 203.08 18.56 204.424 17.984C205.768 17.408 207.336 17.12 209.128 17.12C210.728 17.12 212.21 17.3547 213.576 17.824C214.941 18.272 216.082 18.9227 217 19.776L215.72 22.848C214.802 22.08 213.8 21.5147 212.712 21.152C211.624 20.768 210.408 20.576 209.064 20.576C207.549 20.576 206.365 20.8747 205.512 21.472C204.68 22.048 204.264 22.848 204.264 23.872C204.264 24.6613 204.52 25.2907 205.032 25.76C205.565 26.2293 206.461 26.592 207.72 26.848L211.304 27.552C213.437 27.9787 215.016 28.6827 216.04 29.664C217.064 30.624 217.576 31.9253 217.576 33.568C217.576 34.912 217.213 36.096 216.488 37.12C215.762 38.1227 214.738 38.912 213.416 39.488C212.093 40.0427 210.525 40.32 208.712 40.32Z" fill="white"/>
<defs>
<linearGradient id="paint0_linear_8_287" x1="-400.233" y1="27.581" x2="721.125" y2="27.581" gradientUnits="userSpaceOnUse">
<stop stop-color="#00CCFF"/>
<stop offset="1" stop-color="#FF00FF"/>
</linearGradient>
<linearGradient id="paint1_linear_8_287" x1="-216.284" y1="28" x2="520.374" y2="28" gradientUnits="userSpaceOnUse">
<stop stop-color="#00CCFF"/>
<stop offset="1" stop-color="#FF00FF"/>
</linearGradient>
</defs>
</svg>
