<svg width="1168" height="88" viewBox="0 0 1168 88" fill="none" xmlns="http://www.w3.org/2000/svg">
<rect width="1168" height="88" fill="url(#paint0_linear_202_5904)"/>
<path d="M493.387 56V33.44H501.579C504.16 33.44 506.336 33.888 508.107 34.784C509.899 35.6587 511.253 36.9387 512.171 38.624C513.088 40.288 513.547 42.3147 513.547 44.704C513.547 47.072 513.088 49.0987 512.171 50.784C511.253 52.4693 509.899 53.76 508.107 54.656C506.336 55.552 504.16 56 501.579 56H493.387ZM497.515 52.576H501.323C504.053 52.576 506.08 51.9253 507.403 50.624C508.725 49.3227 509.387 47.3493 509.387 44.704C509.387 42.0373 508.725 40.064 507.403 38.784C506.08 37.4827 504.053 36.832 501.323 36.832H497.515V52.576ZM490.699 46.08V43.072H503.659V46.08H490.699ZM517.762 56V33.44H521.89V56H517.762ZM526.855 56V33.44H542.055V36.672H530.823V42.912H541.319V46.176H530.823V52.736H542.055V56H526.855ZM529.735 31.52L533.255 26.272H536.775L540.295 31.52H537.767L535.015 28.448L532.263 31.52H529.735ZM538.567 28.096C538.567 27.712 538.642 27.4027 538.791 27.168C538.962 26.912 539.154 26.6987 539.367 26.528C539.581 26.336 539.762 26.1653 539.911 26.016C540.082 25.8453 540.167 25.6533 540.167 25.44C540.167 25.2267 540.061 25.088 539.847 25.024C539.655 24.9387 539.389 24.896 539.047 24.896C538.749 24.896 538.439 24.928 538.119 24.992C537.821 25.0347 537.511 25.1307 537.191 25.28L536.679 23.776C537.106 23.584 537.565 23.4347 538.055 23.328C538.546 23.2213 539.133 23.168 539.815 23.168C540.775 23.168 541.511 23.3173 542.023 23.616C542.557 23.9147 542.823 24.3093 542.823 24.8C542.823 25.2053 542.717 25.536 542.503 25.792C542.311 26.048 542.077 26.2827 541.799 26.496C541.522 26.7093 541.277 26.944 541.063 27.2C540.871 27.4347 540.775 27.7333 540.775 28.096H538.567ZM545.919 56V33.44H549.535L557.823 52.096H556.831L565.119 33.44H568.703V56H564.959V39.264H566.111L558.527 56H556.063L548.479 39.264H549.663V56H545.919ZM582.512 56V33.44H585.616L598.704 50.368H597.872V33.44H601.712V56H598.608L585.552 39.072H586.352V56H582.512ZM606.668 56V33.44H610.796V42.848H622.348V33.44H626.476V56H622.348V46.272H610.796V56H606.668ZM628.953 56L639.161 33.44H642.617L652.953 56H648.761L646.009 49.664L647.673 50.784H634.137L635.865 49.664L633.113 56H628.953ZM640.857 37.856L636.345 48.544L635.513 47.552H646.265L645.593 48.544L640.985 37.856H640.857ZM635.641 31.52L639.161 26.272H642.681L646.201 31.52H643.673L640.921 28.448L638.169 31.52H635.641ZM644.409 28.096L647.097 23.296H650.425L646.681 28.096H644.409ZM655.449 56V33.44H658.553L671.641 50.368H670.809V33.44H674.649V56H671.545L658.489 39.072H659.289V56H655.449Z" fill="white"/>
<defs>
<linearGradient id="paint0_linear_202_5904" x1="-744.925" y1="44" x2="1735.14" y2="44" gradientUnits="userSpaceOnUse">
<stop stop-color="#00CCFF"/>
<stop offset="1" stop-color="#FF00FF"/>
</linearGradient>
</defs>
</svg>
