<svg width="360" height="49" viewBox="0 0 360 49" fill="none" xmlns="http://www.w3.org/2000/svg">
<rect width="360" height="49" fill="url(#paint0_linear_302_3823)"/>
<path d="M123.367 32V17.9H128.487C130.1 17.9 131.46 18.18 132.567 18.74C133.687 19.2867 134.533 20.0867 135.107 21.14C135.68 22.18 135.967 23.4467 135.967 24.94C135.967 26.42 135.68 27.6867 135.107 28.74C134.533 29.7933 133.687 30.6 132.567 31.16C131.46 31.72 130.1 32 128.487 32H123.367ZM125.947 29.86H128.327C130.033 29.86 131.3 29.4533 132.127 28.64C132.953 27.8267 133.367 26.5933 133.367 24.94C133.367 23.2733 132.953 22.04 132.127 21.24C131.3 20.4267 130.033 20.02 128.327 20.02H125.947V29.86ZM121.687 25.8V23.92H129.787V25.8H121.687ZM138.601 32V17.9H141.181V32H138.601ZM144.285 32V17.9H153.785V19.92H146.765V23.82H153.325V25.86H146.765V29.96H153.785V32H144.285ZM146.085 16.7L148.285 13.42H150.485L152.685 16.7H151.105L149.385 14.78L147.665 16.7H146.085ZM151.605 14.56C151.605 14.32 151.651 14.1267 151.745 13.98C151.851 13.82 151.971 13.6867 152.105 13.58C152.238 13.46 152.351 13.3533 152.445 13.26C152.551 13.1533 152.605 13.0333 152.605 12.9C152.605 12.7667 152.538 12.68 152.405 12.64C152.285 12.5867 152.118 12.56 151.905 12.56C151.718 12.56 151.525 12.58 151.325 12.62C151.138 12.6467 150.945 12.7067 150.745 12.8L150.425 11.86C150.691 11.74 150.978 11.6467 151.285 11.58C151.591 11.5133 151.958 11.48 152.385 11.48C152.985 11.48 153.445 11.5733 153.765 11.76C154.098 11.9467 154.265 12.1933 154.265 12.5C154.265 12.7533 154.198 12.96 154.065 13.12C153.945 13.28 153.798 13.4267 153.625 13.56C153.451 13.6933 153.298 13.84 153.165 14C153.045 14.1467 152.985 14.3333 152.985 14.56H151.605ZM156.199 32V17.9H158.459L163.639 29.56H163.019L168.199 17.9H170.439V32H168.099V21.54H168.819L164.079 32H162.539L157.799 21.54H158.539V32H156.199ZM179.07 32V17.9H181.01L189.19 28.48H188.67V17.9H191.07V32H189.13L180.97 21.42H181.47V32H179.07ZM194.167 32V17.9H196.747V23.78H203.967V17.9H206.547V32H203.967V25.92H196.747V32H194.167ZM208.096 32L214.476 17.9H216.636L223.096 32H220.476L218.756 28.04L219.796 28.74H211.336L212.416 28.04L210.696 32H208.096ZM215.536 20.66L212.716 27.34L212.196 26.72H218.916L218.496 27.34L215.616 20.66H215.536ZM212.276 16.7L214.476 13.42H216.676L218.876 16.7H217.296L215.576 14.78L213.856 16.7H212.276ZM217.756 14.56L219.436 11.56H221.516L219.176 14.56H217.756ZM224.656 32V17.9H226.596L234.776 28.48H234.256V17.9H236.656V32H234.716L226.556 21.42H227.056V32H224.656Z" fill="white"/>
<defs>
<linearGradient id="paint0_linear_302_3823" x1="-229.6" y1="24.5" x2="534.804" y2="24.5" gradientUnits="userSpaceOnUse">
<stop stop-color="#00CCFF"/>
<stop offset="1" stop-color="#FF00FF"/>
</linearGradient>
</defs>
</svg>
