<svg width="1168" height="88" viewBox="0 0 1168 88" fill="none" xmlns="http://www.w3.org/2000/svg">
<rect width="1168" height="88" fill="url(#paint0_linear_8_108)"/>
<path d="M487.746 56V33.44H491.874V42.848H503.426V33.44H507.554V56H503.426V46.272H491.874V56H487.746ZM512.527 56V33.44H516.655V56H512.527ZM532.501 56.32C529.962 56.32 527.829 55.8507 526.101 54.912C524.373 53.9733 523.072 52.64 522.197 50.912C521.322 49.184 520.885 47.136 520.885 44.768C520.885 42.3787 521.354 40.32 522.293 38.592C523.232 36.8427 524.576 35.4987 526.325 34.56C528.096 33.6 530.218 33.12 532.693 33.12C534.336 33.12 535.776 33.344 537.013 33.792C538.25 34.2187 539.338 34.848 540.277 35.68L538.901 38.88C538.218 38.3467 537.568 37.92 536.949 37.6C536.33 37.28 535.69 37.056 535.029 36.928C534.368 36.7787 533.6 36.704 532.725 36.704C530.25 36.704 528.373 37.408 527.093 38.816C525.834 40.2027 525.205 42.1973 525.205 44.8C525.205 47.4027 525.802 49.3867 526.997 50.752C528.213 52.1173 530.112 52.8 532.693 52.8C533.568 52.8 534.442 52.7147 535.317 52.544C536.213 52.3733 537.088 52.128 537.941 51.808L537.173 53.536V46.784H531.893V43.776H540.597V54.624C539.552 55.1573 538.304 55.5733 536.853 55.872C535.402 56.1707 533.952 56.32 532.501 56.32ZM545.309 56V33.44H549.437V42.848H560.989V33.44H565.117V56H560.989V46.272H549.437V56H545.309ZM570.09 56V33.44H574.218V52.512H584.842V56H570.09ZM587.996 56V33.44H592.124V56H587.996ZM607.97 56.32C605.431 56.32 603.298 55.8507 601.57 54.912C599.842 53.9733 598.54 52.64 597.666 50.912C596.791 49.184 596.354 47.136 596.354 44.768C596.354 42.3787 596.823 40.32 597.762 38.592C598.7 36.8427 600.044 35.4987 601.794 34.56C603.564 33.6 605.687 33.12 608.162 33.12C609.804 33.12 611.244 33.344 612.482 33.792C613.719 34.2187 614.807 34.848 615.746 35.68L614.37 38.88C613.687 38.3467 613.036 37.92 612.418 37.6C611.799 37.28 611.159 37.056 610.498 36.928C609.836 36.7787 609.068 36.704 608.194 36.704C605.719 36.704 603.842 37.408 602.562 38.816C601.303 40.2027 600.674 42.1973 600.674 44.8C600.674 47.4027 601.271 49.3867 602.466 50.752C603.682 52.1173 605.58 52.8 608.162 52.8C609.036 52.8 609.911 52.7147 610.786 52.544C611.682 52.3733 612.556 52.128 613.41 51.808L612.642 53.536V46.784H607.362V43.776H616.066V54.624C615.02 55.1573 613.772 55.5733 612.322 55.872C610.871 56.1707 609.42 56.32 607.97 56.32ZM620.777 56V33.44H624.905V42.848H636.457V33.44H640.585V56H636.457V46.272H624.905V56H620.777ZM650.871 56V36.832H643.415V33.44H662.455V36.832H654.999V56H650.871ZM672.493 56.32C670.68 56.32 669.005 56.096 667.469 55.648C665.954 55.1787 664.653 54.5387 663.565 53.728L664.845 50.496C665.57 51.008 666.328 51.4453 667.117 51.808C667.906 52.1493 668.749 52.416 669.645 52.608C670.541 52.7787 671.49 52.864 672.493 52.864C674.178 52.864 675.394 52.5867 676.141 52.032C676.888 51.4773 677.261 50.752 677.261 49.856C677.261 49.0667 677.005 48.4693 676.493 48.064C675.981 47.6373 675.064 47.2853 673.741 47.008L670.125 46.272C668.056 45.8453 666.509 45.1307 665.485 44.128C664.461 43.1253 663.949 41.7813 663.949 40.096C663.949 38.688 664.322 37.4613 665.069 36.416C665.816 35.3707 666.861 34.56 668.205 33.984C669.549 33.408 671.117 33.12 672.909 33.12C674.509 33.12 675.992 33.3547 677.357 33.824C678.722 34.272 679.864 34.9227 680.781 35.776L679.501 38.848C678.584 38.08 677.581 37.5147 676.493 37.152C675.405 36.768 674.189 36.576 672.845 36.576C671.33 36.576 670.146 36.8747 669.293 37.472C668.461 38.048 668.045 38.848 668.045 39.872C668.045 40.6613 668.301 41.2907 668.813 41.76C669.346 42.2293 670.242 42.592 671.501 42.848L675.085 43.552C677.218 43.9787 678.797 44.6827 679.821 45.664C680.845 46.624 681.357 47.9253 681.357 49.568C681.357 50.912 680.994 52.096 680.269 53.12C679.544 54.1227 678.52 54.912 677.197 55.488C675.874 56.0427 674.306 56.32 672.493 56.32Z" fill="white"/>
<defs>
<linearGradient id="paint0_linear_8_108" x1="-744.925" y1="44" x2="1735.14" y2="44" gradientUnits="userSpaceOnUse">
<stop stop-color="#00CCFF"/>
<stop offset="1" stop-color="#FF00FF"/>
</linearGradient>
</defs>
</svg>
