<svg width="360" height="49" viewBox="0 0 360 49" fill="none" xmlns="http://www.w3.org/2000/svg">
<rect width="360" height="49" fill="url(#paint0_linear_8_106)"/>
<path d="M119.841 32V17.9H122.421V23.78H129.641V17.9H132.221V32H129.641V25.92H122.421V32H119.841ZM135.33 32V17.9H137.91V32H135.33ZM147.813 32.2C146.226 32.2 144.893 31.9067 143.813 31.32C142.733 30.7333 141.92 29.9 141.373 28.82C140.826 27.74 140.553 26.46 140.553 24.98C140.553 23.4867 140.846 22.2 141.433 21.12C142.02 20.0267 142.86 19.1867 143.953 18.6C145.06 18 146.386 17.7 147.933 17.7C148.96 17.7 149.86 17.84 150.633 18.12C151.406 18.3867 152.086 18.78 152.673 19.3L151.813 21.3C151.386 20.9667 150.98 20.7 150.593 20.5C150.206 20.3 149.806 20.16 149.393 20.08C148.98 19.9867 148.5 19.94 147.953 19.94C146.406 19.94 145.233 20.38 144.433 21.26C143.646 22.1267 143.253 23.3733 143.253 25C143.253 26.6267 143.626 27.8667 144.373 28.72C145.133 29.5733 146.32 30 147.933 30C148.48 30 149.026 29.9467 149.573 29.84C150.133 29.7333 150.68 29.58 151.213 29.38L150.733 30.46V26.24H147.433V24.36H152.873V31.14C152.22 31.4733 151.44 31.7333 150.533 31.92C149.626 32.1067 148.72 32.2 147.813 32.2ZM155.818 32V17.9H158.398V23.78H165.618V17.9H168.198V32H165.618V25.92H158.398V32H155.818ZM171.306 32V17.9H173.886V29.82H180.526V32H171.306ZM182.498 32V17.9H185.078V32H182.498ZM194.981 32.2C193.394 32.2 192.061 31.9067 190.981 31.32C189.901 30.7333 189.088 29.9 188.541 28.82C187.994 27.74 187.721 26.46 187.721 24.98C187.721 23.4867 188.014 22.2 188.601 21.12C189.188 20.0267 190.028 19.1867 191.121 18.6C192.228 18 193.554 17.7 195.101 17.7C196.128 17.7 197.028 17.84 197.801 18.12C198.574 18.3867 199.254 18.78 199.841 19.3L198.981 21.3C198.554 20.9667 198.148 20.7 197.761 20.5C197.374 20.3 196.974 20.16 196.561 20.08C196.148 19.9867 195.668 19.94 195.121 19.94C193.574 19.94 192.401 20.38 191.601 21.26C190.814 22.1267 190.421 23.3733 190.421 25C190.421 26.6267 190.794 27.8667 191.541 28.72C192.301 29.5733 193.488 30 195.101 30C195.648 30 196.194 29.9467 196.741 29.84C197.301 29.7333 197.848 29.58 198.381 29.38L197.901 30.46V26.24H194.601V24.36H200.041V31.14C199.388 31.4733 198.608 31.7333 197.701 31.92C196.794 32.1067 195.888 32.2 194.981 32.2ZM202.986 32V17.9H205.566V23.78H212.786V17.9H215.366V32H212.786V25.92H205.566V32H202.986ZM221.794 32V20.02H217.134V17.9H229.034V20.02H224.374V32H221.794ZM235.308 32.2C234.175 32.2 233.128 32.06 232.168 31.78C231.221 31.4867 230.408 31.0867 229.728 30.58L230.528 28.56C230.981 28.88 231.455 29.1533 231.948 29.38C232.441 29.5933 232.968 29.76 233.528 29.88C234.088 29.9867 234.681 30.04 235.308 30.04C236.361 30.04 237.121 29.8667 237.588 29.52C238.055 29.1733 238.288 28.72 238.288 28.16C238.288 27.6667 238.128 27.2933 237.808 27.04C237.488 26.7733 236.915 26.5533 236.088 26.38L233.828 25.92C232.535 25.6533 231.568 25.2067 230.928 24.58C230.288 23.9533 229.968 23.1133 229.968 22.06C229.968 21.18 230.201 20.4133 230.668 19.76C231.135 19.1067 231.788 18.6 232.628 18.24C233.468 17.88 234.448 17.7 235.568 17.7C236.568 17.7 237.495 17.8467 238.348 18.14C239.201 18.42 239.915 18.8267 240.488 19.36L239.688 21.28C239.115 20.8 238.488 20.4467 237.808 20.22C237.128 19.98 236.368 19.86 235.528 19.86C234.581 19.86 233.841 20.0467 233.308 20.42C232.788 20.78 232.528 21.28 232.528 21.92C232.528 22.4133 232.688 22.8067 233.008 23.1C233.341 23.3933 233.901 23.62 234.688 23.78L236.928 24.22C238.261 24.4867 239.248 24.9267 239.888 25.54C240.528 26.14 240.848 26.9533 240.848 27.98C240.848 28.82 240.621 29.56 240.168 30.2C239.715 30.8267 239.075 31.32 238.248 31.68C237.421 32.0267 236.441 32.2 235.308 32.2Z" fill="white"/>
<defs>
<linearGradient id="paint0_linear_8_106" x1="-229.6" y1="24.5" x2="534.804" y2="24.5" gradientUnits="userSpaceOnUse">
<stop stop-color="#00CCFF"/>
<stop offset="1" stop-color="#FF00FF"/>
</linearGradient>
</defs>
</svg>
