<svg width="270" height="78" viewBox="0 0 270 78" fill="none" xmlns="http://www.w3.org/2000/svg">
<path d="M217.919 0H63.081C47.8484 0 35.5 12.3484 35.5 27.581C35.5 42.8135 47.8484 55.162 63.081 55.162H120.485L134.5 78L148.759 55.162H217.919C233.152 55.162 245.5 42.8135 245.5 27.581C245.5 12.3484 233.152 0 217.919 0Z" fill="url(#paint0_linear_202_6514)"/>
<rect width="270" height="56" rx="28" fill="url(#paint1_linear_202_6514)"/>
<path d="M66.3866 40V17.44H74.5786C77.16 17.44 79.336 17.888 81.1066 18.784C82.8986 19.6587 84.2533 20.9387 85.1706 22.624C86.088 24.288 86.5466 26.3147 86.5466 28.704C86.5466 31.072 86.088 33.0987 85.1706 34.784C84.2533 36.4693 82.8986 37.76 81.1066 38.656C79.336 39.552 77.16 40 74.5786 40H66.3866ZM70.5146 36.576H74.3226C77.0533 36.576 79.08 35.9253 80.4026 34.624C81.7253 33.3227 82.3866 31.3493 82.3866 28.704C82.3866 26.0373 81.7253 24.064 80.4026 22.784C79.08 21.4827 77.0533 20.832 74.3226 20.832H70.5146V36.576ZM90.7616 40V17.44H94.8896V40H90.7616ZM99.8554 40V17.44H115.055V20.672H103.823V26.912H114.319V30.176H103.823V36.736H115.055V40H99.8554ZM102.735 15.52L106.255 11.232H109.775L113.295 15.52H110.831L108.015 13.216L105.199 15.52H102.735ZM104.367 10.528L102.511 10.432C102.597 9.30133 102.949 8.448 103.567 7.872C104.186 7.27466 104.965 6.976 105.903 6.976C106.33 6.976 106.725 7.05066 107.087 7.2C107.471 7.328 107.887 7.52 108.335 7.776C108.783 8.032 109.125 8.20266 109.359 8.288C109.594 8.352 109.818 8.384 110.031 8.384C110.522 8.384 110.895 8.27733 111.151 8.064C111.407 7.82933 111.578 7.456 111.663 6.944L113.519 7.072C113.455 8.20266 113.114 9.06666 112.495 9.664C111.877 10.24 111.098 10.528 110.159 10.528C109.733 10.528 109.317 10.4533 108.911 10.304C108.506 10.1333 108.058 9.90933 107.567 9.632C107.311 9.504 107.055 9.38667 106.799 9.28C106.543 9.152 106.277 9.088 105.999 9.088C105.53 9.088 105.167 9.20533 104.911 9.44C104.655 9.67466 104.474 10.0373 104.367 10.528ZM118.887 40V17.44H121.991L135.079 34.368H134.247V17.44H138.087V40H134.983L121.927 23.072H122.727V40H118.887ZM162.704 40.32C160.165 40.32 158.032 39.8507 156.304 38.912C154.576 37.9733 153.275 36.64 152.4 34.912C151.525 33.184 151.088 31.136 151.088 28.768C151.088 26.3787 151.557 24.32 152.496 22.592C153.435 20.8427 154.779 19.4987 156.528 18.56C158.299 17.6 160.421 17.12 162.896 17.12C164.539 17.12 165.979 17.344 167.216 17.792C168.453 18.2187 169.541 18.848 170.48 19.68L169.104 22.88C168.421 22.3467 167.771 21.92 167.152 21.6C166.533 21.28 165.893 21.056 165.232 20.928C164.571 20.7787 163.803 20.704 162.928 20.704C160.453 20.704 158.576 21.408 157.296 22.816C156.037 24.2027 155.408 26.1973 155.408 28.8C155.408 31.4027 156.005 33.3867 157.2 34.752C158.416 36.1173 160.315 36.8 162.896 36.8C163.771 36.8 164.645 36.7147 165.52 36.544C166.416 36.3733 167.291 36.128 168.144 35.808L167.376 37.536V30.784H162.096V27.776H170.8V38.624C169.755 39.1573 168.507 39.5733 167.056 39.872C165.605 40.1707 164.155 40.32 162.704 40.32ZM175.512 40V17.44H179.64V40H175.512ZM182.109 40L192.317 17.44H195.773L206.109 40H201.917L199.165 33.664L200.829 34.784H187.293L189.021 33.664L186.269 40H182.109ZM194.013 21.856L189.501 32.544L188.669 31.552H199.421L198.749 32.544L194.141 21.856H194.013ZM192.829 15.52V14.944C192.829 14.56 192.915 14.2507 193.085 14.016C193.277 13.7813 193.491 13.5787 193.725 13.408C193.981 13.216 194.195 13.0453 194.365 12.896C194.557 12.7253 194.653 12.5333 194.653 12.32C194.653 12.1067 194.547 11.9467 194.333 11.84C194.12 11.7333 193.8 11.68 193.373 11.68C193.032 11.68 192.712 11.712 192.413 11.776C192.115 11.84 191.784 11.9467 191.421 12.096L190.813 10.4C191.709 9.952 192.883 9.728 194.333 9.728C195.379 9.728 196.2 9.90933 196.797 10.272C197.395 10.6347 197.693 11.1253 197.693 11.744C197.693 12.2133 197.576 12.5867 197.341 12.864C197.107 13.1413 196.829 13.3867 196.509 13.6C196.189 13.792 195.912 14.0053 195.677 14.24C195.443 14.4533 195.325 14.752 195.325 15.136V15.52H192.829Z" fill="white"/>
<defs>
<linearGradient id="paint0_linear_202_6514" x1="-400.233" y1="27.581" x2="721.125" y2="27.581" gradientUnits="userSpaceOnUse">
<stop stop-color="#00CCFF"/>
<stop offset="1" stop-color="#FF00FF"/>
</linearGradient>
<linearGradient id="paint1_linear_202_6514" x1="-216.284" y1="28" x2="520.374" y2="28" gradientUnits="userSpaceOnUse">
<stop stop-color="#00CCFF"/>
<stop offset="1" stop-color="#FF00FF"/>
</linearGradient>
</defs>
</svg>
