<svg width="312" height="60" viewBox="0 0 312 60" fill="none" xmlns="http://www.w3.org/2000/svg">
<path d="M291.063 0.21167H20.9374C9.37399 0.21167 0 9.58566 0 21.1491C0 32.7125 9.37401 42.0865 20.9374 42.0865H145.361L156 59.4233L166.824 42.0865H291.063C302.626 42.0865 312 32.7125 312 21.1491C312 9.58566 302.626 0.21167 291.063 0.21167Z" fill="url(#paint0_linear_302_4602)"/>
<path d="M113.617 25.5082V11.4082H118.737C120.35 11.4082 121.71 11.6882 122.817 12.2482C123.937 12.7948 124.783 13.5948 125.357 14.6482C125.93 15.6882 126.217 16.9548 126.217 18.4482C126.217 19.9282 125.93 21.1948 125.357 22.2482C124.783 23.3015 123.937 24.1082 122.817 24.6682C121.71 25.2282 120.35 25.5082 118.737 25.5082H113.617ZM116.197 23.3682H118.577C120.283 23.3682 121.55 22.9615 122.377 22.1482C123.203 21.3348 123.617 20.1015 123.617 18.4482C123.617 16.7815 123.203 15.5482 122.377 14.7482C121.55 13.9348 120.283 13.5282 118.577 13.5282H116.197V23.3682ZM128.851 25.5082V11.4082H131.431V25.5082H128.851ZM134.535 25.5082V11.4082H144.035V13.4282H137.015V17.3282H143.575V19.3682H137.015V23.4682H144.035V25.5082H134.535ZM136.335 10.2082L138.535 7.52818H140.735L142.935 10.2082H141.395L139.635 8.76818L137.875 10.2082H136.335ZM137.355 7.08818L136.195 7.02818C136.248 6.32151 136.468 5.78818 136.855 5.42818C137.241 5.05484 137.728 4.86818 138.315 4.86818C138.581 4.86818 138.828 4.91484 139.055 5.00818C139.295 5.08818 139.555 5.20818 139.835 5.36818C140.115 5.52818 140.328 5.63484 140.475 5.68818C140.621 5.72818 140.761 5.74818 140.895 5.74818C141.201 5.74818 141.435 5.68151 141.595 5.54818C141.755 5.40151 141.861 5.16818 141.915 4.84818L143.075 4.92818C143.035 5.63484 142.821 6.17484 142.435 6.54818C142.048 6.90818 141.561 7.08818 140.975 7.08818C140.708 7.08818 140.448 7.04151 140.195 6.94818C139.941 6.84151 139.661 6.70151 139.355 6.52818C139.195 6.44818 139.035 6.37484 138.875 6.30818C138.715 6.22818 138.548 6.18818 138.375 6.18818C138.081 6.18818 137.855 6.26151 137.695 6.40818C137.535 6.55484 137.421 6.78151 137.355 7.08818ZM146.429 25.5082V11.4082H148.369L156.549 21.9882H156.029V11.4082H158.429V25.5082H156.489L148.329 14.9282H148.829V25.5082H146.429ZM173.815 25.7082C172.228 25.7082 170.895 25.4148 169.815 24.8282C168.735 24.2415 167.922 23.4082 167.375 22.3282C166.828 21.2482 166.555 19.9682 166.555 18.4882C166.555 16.9948 166.848 15.7082 167.435 14.6282C168.022 13.5348 168.862 12.6948 169.955 12.1082C171.062 11.5082 172.388 11.2082 173.935 11.2082C174.962 11.2082 175.862 11.3482 176.635 11.6282C177.408 11.8948 178.088 12.2882 178.675 12.8082L177.815 14.8082C177.388 14.4748 176.982 14.2082 176.595 14.0082C176.208 13.8082 175.808 13.6682 175.395 13.5882C174.982 13.4948 174.502 13.4482 173.955 13.4482C172.408 13.4482 171.235 13.8882 170.435 14.7682C169.648 15.6348 169.255 16.8815 169.255 18.5082C169.255 20.1348 169.628 21.3748 170.375 22.2282C171.135 23.0815 172.322 23.5082 173.935 23.5082C174.482 23.5082 175.028 23.4548 175.575 23.3482C176.135 23.2415 176.682 23.0882 177.215 22.8882L176.735 23.9682V19.7482H173.435V17.8682H178.875V24.6482C178.222 24.9815 177.442 25.2415 176.535 25.4282C175.628 25.6148 174.722 25.7082 173.815 25.7082ZM181.82 25.5082V11.4082H184.4V25.5082H181.82ZM185.943 25.5082L192.323 11.4082H194.483L200.943 25.5082H198.323L196.603 21.5482L197.643 22.2482H189.183L190.263 21.5482L188.543 25.5082H185.943ZM193.383 14.1682L190.563 20.8482L190.043 20.2282H196.763L196.343 20.8482L193.463 14.1682H193.383ZM192.643 10.2082V9.84818C192.643 9.60818 192.697 9.41484 192.803 9.26818C192.923 9.12151 193.057 8.99484 193.203 8.88818C193.363 8.76818 193.497 8.66151 193.603 8.56818C193.723 8.46151 193.783 8.34151 193.783 8.20818C193.783 8.07484 193.717 7.97484 193.583 7.90818C193.45 7.84151 193.25 7.80818 192.983 7.80818C192.77 7.80818 192.57 7.82818 192.383 7.86818C192.197 7.90818 191.99 7.97484 191.763 8.06818L191.383 7.00818C191.943 6.72818 192.677 6.58818 193.583 6.58818C194.237 6.58818 194.75 6.70151 195.123 6.92818C195.497 7.15484 195.683 7.46151 195.683 7.84818C195.683 8.14151 195.61 8.37484 195.463 8.54818C195.317 8.72151 195.143 8.87484 194.943 9.00818C194.743 9.12818 194.57 9.26151 194.423 9.40818C194.277 9.54151 194.203 9.72818 194.203 9.96818V10.2082H192.643Z" fill="white"/>
<defs>
<linearGradient id="paint0_linear_302_4602" x1="-249.929" y1="21.1491" x2="601.321" y2="21.1491" gradientUnits="userSpaceOnUse">
<stop stop-color="#00CCFF"/>
<stop offset="1" stop-color="#FF00FF"/>
</linearGradient>
</defs>
</svg>
