<svg width="1168" height="88" viewBox="0 0 1168 88" fill="none" xmlns="http://www.w3.org/2000/svg">
<rect width="1168" height="88" fill="url(#paint0_linear_8_9)"/>
<path d="M526.609 56L536.817 33.44H540.273L550.609 56H546.417L543.665 49.664L545.329 50.784H531.793L533.521 49.664L530.769 56H526.609ZM538.513 37.856L534.001 48.544L533.169 47.552H543.921L543.249 48.544L538.641 37.856H538.513ZM553.105 56V33.44H562.993C565.447 33.44 567.335 33.9627 568.657 35.008C569.98 36.032 570.641 37.4613 570.641 39.296C570.641 40.6613 570.236 41.8133 569.425 42.752C568.615 43.6907 567.495 44.32 566.065 44.64V44.16C567.708 44.3947 568.977 44.992 569.873 45.952C570.791 46.8907 571.249 48.1387 571.249 49.696C571.249 51.7013 570.556 53.2587 569.169 54.368C567.783 55.456 565.852 56 563.377 56H553.105ZM557.073 52.864H562.897C564.284 52.864 565.361 52.608 566.129 52.096C566.897 51.5627 567.281 50.6987 567.281 49.504C567.281 48.288 566.897 47.424 566.129 46.912C565.361 46.3787 564.284 46.112 562.897 46.112H557.073V52.864ZM557.073 43.008H562.289C563.761 43.008 564.849 42.7413 565.553 42.208C566.279 41.6533 566.641 40.8427 566.641 39.776C566.641 38.7093 566.279 37.9093 565.553 37.376C564.849 36.8213 563.761 36.544 562.289 36.544H557.073V43.008ZM574.463 44.704C574.463 42.336 574.89 40.288 575.743 38.56C576.618 36.832 577.866 35.4987 579.487 34.56C581.108 33.6 583.039 33.12 585.279 33.12C587.498 33.12 589.418 33.6 591.039 34.56C592.66 35.4987 593.908 36.832 594.783 38.56C595.679 40.288 596.127 42.3253 596.127 44.672C596.127 47.04 595.679 49.0987 594.783 50.848C593.908 52.576 592.66 53.92 591.039 54.88C589.418 55.84 587.498 56.32 585.279 56.32C583.039 56.32 581.108 55.84 579.487 54.88C577.887 53.92 576.65 52.576 575.775 50.848C574.9 49.0987 574.463 47.0507 574.463 44.704ZM578.783 44.704C578.783 47.2427 579.327 49.2267 580.415 50.656C581.503 52.0853 583.124 52.8 585.279 52.8C587.37 52.8 588.98 52.0853 590.111 50.656C591.242 49.2267 591.807 47.2427 591.807 44.704C591.807 42.144 591.242 40.16 590.111 38.752C589.002 37.344 587.391 36.64 585.279 36.64C583.124 36.64 581.503 37.344 580.415 38.752C579.327 40.16 578.783 42.144 578.783 44.704ZM609.795 56.32C606.573 56.32 604.173 55.52 602.595 53.92C601.037 52.2987 600.259 49.9093 600.259 46.752V33.44H604.387V46.72C604.387 48.7253 604.813 50.24 605.667 51.264C606.541 52.288 607.917 52.8 609.795 52.8C611.587 52.8 612.931 52.288 613.827 51.264C614.744 50.24 615.203 48.7253 615.203 46.72V33.44H619.267V46.752C619.267 49.9093 618.467 52.2987 616.867 53.92C615.288 55.52 612.931 56.32 609.795 56.32ZM629.386 56V36.832H621.93V33.44H640.97V36.832H633.514V56H629.386Z" fill="white"/>
<defs>
<linearGradient id="paint0_linear_8_9" x1="-744.925" y1="44" x2="1735.14" y2="44" gradientUnits="userSpaceOnUse">
<stop stop-color="#00CCFF"/>
<stop offset="1" stop-color="#FF00FF"/>
</linearGradient>
</defs>
</svg>
