<svg width="312" height="37" viewBox="0 0 312 37" fill="none" xmlns="http://www.w3.org/2000/svg">
<rect width="312" height="36" transform="translate(0 0.131348)" fill="url(#paint0_linear_302_4636)"/>
<path d="M49.996 24.2913C48.8227 24.2913 47.8147 24.0567 46.972 23.5873C46.14 23.1073 45.5 22.4353 45.052 21.5713C44.604 20.6967 44.38 19.6673 44.38 18.4833C44.38 17.2993 44.604 16.2753 45.052 15.4113C45.5 14.5473 46.14 13.8807 46.972 13.4113C47.8147 12.9313 48.8227 12.6913 49.996 12.6913C50.7853 12.6913 51.4947 12.8033 52.124 13.0273C52.764 13.2513 53.3133 13.582 53.772 14.0193L53.1 15.6513C52.5987 15.246 52.1133 14.958 51.644 14.7873C51.1853 14.606 50.6573 14.5153 50.06 14.5153C48.9187 14.5153 48.044 14.862 47.436 15.5553C46.8387 16.238 46.54 17.214 46.54 18.4833C46.54 19.7527 46.8387 20.734 47.436 21.4273C48.044 22.1207 48.9187 22.4673 50.06 22.4673C50.6573 22.4673 51.1853 22.382 51.644 22.2113C52.1133 22.03 52.5987 21.7313 53.1 21.3153L53.772 22.9473C53.3133 23.374 52.764 23.7047 52.124 23.9393C51.4947 24.174 50.7853 24.2913 49.996 24.2913ZM54.2188 24.1313L59.3228 12.8513H61.0508L66.2188 24.1313H64.1228L62.7468 20.9633L63.5788 21.5233H56.8108L57.6748 20.9633L56.2988 24.1313H54.2188ZM60.1708 15.0593L57.9148 20.4033L57.4988 19.9073H62.8748L62.5388 20.4033L60.2348 15.0593H60.1708ZM59.4828 11.8913L61.3868 9.10735H63.4668L60.9228 11.8913H59.4828ZM72.4804 24.2913C71.307 24.2913 70.299 24.0567 69.4564 23.5873C68.6244 23.1073 67.9844 22.4353 67.5364 21.5713C67.0884 20.6967 66.8644 19.6673 66.8644 18.4833C66.8644 17.2993 67.0884 16.2753 67.5364 15.4113C67.9844 14.5473 68.6244 13.8807 69.4564 13.4113C70.299 12.9313 71.307 12.6913 72.4804 12.6913C73.2697 12.6913 73.979 12.8033 74.6084 13.0273C75.2484 13.2513 75.7977 13.582 76.2564 14.0193L75.5844 15.6513C75.083 15.246 74.5977 14.958 74.1284 14.7873C73.6697 14.606 73.1417 14.5153 72.5444 14.5153C71.403 14.5153 70.5284 14.862 69.9204 15.5553C69.323 16.238 69.0244 17.214 69.0244 18.4833C69.0244 19.7527 69.323 20.734 69.9204 21.4273C70.5284 22.1207 71.403 22.4673 72.5444 22.4673C73.1417 22.4673 73.6697 22.382 74.1284 22.2113C74.5977 22.03 75.083 21.7313 75.5844 21.3153L76.2564 22.9473C75.7977 23.374 75.2484 23.7047 74.6084 23.9393C73.979 24.174 73.2697 24.2913 72.4804 24.2913ZM82.5761 24.1313V12.8513H84.6401V17.5553H90.4161V12.8513H92.4801V24.1313H90.4161V19.2673H84.6401V24.1313H82.5761ZM93.7188 24.1313L98.8228 12.8513H100.551L105.719 24.1313H103.623L102.247 20.9633L103.079 21.5233H96.3108L97.1748 20.9633L95.7988 24.1313H93.7188ZM99.6708 15.0593L97.4148 20.4033L96.9988 19.9073H102.375L102.039 20.4033L99.7348 15.0593H99.6708ZM98.7268 27.3953V25.5393H100.679V27.3953H98.7268ZM106.967 24.1313V12.8513H108.519L115.063 21.3153H114.647V12.8513H116.567V24.1313H115.015L108.487 15.6673H108.887V24.1313H106.967ZM124.485 24.2913C123.216 24.2913 122.149 24.0567 121.285 23.5873C120.421 23.118 119.77 22.4513 119.333 21.5873C118.896 20.7233 118.677 19.6993 118.677 18.5153C118.677 17.3207 118.912 16.2913 119.381 15.4273C119.85 14.5527 120.522 13.8807 121.397 13.4113C122.282 12.9313 123.344 12.6913 124.581 12.6913C125.402 12.6913 126.122 12.8033 126.741 13.0273C127.36 13.2407 127.904 13.5553 128.373 13.9713L127.685 15.5713C127.344 15.3047 127.018 15.0913 126.709 14.9313C126.4 14.7713 126.08 14.6593 125.749 14.5953C125.418 14.5207 125.034 14.4833 124.597 14.4833C123.36 14.4833 122.421 14.8353 121.781 15.5393C121.152 16.2327 120.837 17.23 120.837 18.5313C120.837 19.8327 121.136 20.8247 121.733 21.5073C122.341 22.19 123.29 22.5313 124.581 22.5313C125.018 22.5313 125.456 22.4887 125.893 22.4033C126.341 22.318 126.778 22.1953 127.205 22.0353L126.821 22.8993V19.5233H124.181V18.0193H128.533V23.4433C128.01 23.71 127.386 23.918 126.661 24.0673C125.936 24.2167 125.21 24.2913 124.485 24.2913ZM135.295 24.1313V12.8513H137.103L141.247 22.1793H140.751L144.895 12.8513H146.687V24.1313H144.815V15.7633H145.391L141.599 24.1313H140.367L136.575 15.7633H137.167V24.1313H135.295ZM153.905 24.2913C152.294 24.2913 151.094 23.8913 150.305 23.0913C149.526 22.2807 149.137 21.086 149.137 19.5073V12.8513H151.201V19.4913C151.201 20.494 151.414 21.2513 151.841 21.7633C152.278 22.2753 152.966 22.5313 153.905 22.5313C154.801 22.5313 155.473 22.2753 155.921 21.7633C156.38 21.2513 156.609 20.494 156.609 19.4913V12.8513H158.641V19.5073C158.641 21.086 158.241 22.2807 157.441 23.0913C156.652 23.8913 155.473 24.2913 153.905 24.2913ZM152.929 27.3953V25.5393H154.881V27.3953H152.929ZM166.293 24.2913C165.12 24.2913 164.112 24.0567 163.269 23.5873C162.437 23.1073 161.797 22.4353 161.349 21.5713C160.901 20.6967 160.677 19.6673 160.677 18.4833C160.677 17.2993 160.901 16.2753 161.349 15.4113C161.797 14.5473 162.437 13.8807 163.269 13.4113C164.112 12.9313 165.12 12.6913 166.293 12.6913C167.082 12.6913 167.792 12.8033 168.421 13.0273C169.061 13.2513 169.61 13.582 170.069 14.0193L169.397 15.6513C168.896 15.246 168.41 14.958 167.941 14.7873C167.482 14.606 166.954 14.5153 166.357 14.5153C165.216 14.5153 164.341 14.862 163.733 15.5553C163.136 16.238 162.837 17.214 162.837 18.4833C162.837 19.7527 163.136 20.734 163.733 21.4273C164.341 22.1207 165.216 22.4673 166.357 22.4673C166.954 22.4673 167.482 22.382 167.941 22.2113C168.41 22.03 168.896 21.7313 169.397 21.3153L170.069 22.9473C169.61 23.374 169.061 23.7047 168.421 23.9393C167.792 24.174 167.082 24.2913 166.293 24.2913ZM180.037 24.1313L175.013 12.8513H177.237L181.285 22.3233H180.613L184.661 12.8513H186.805L181.781 24.1313H180.037ZM187.92 24.1313V12.8513H189.984V24.1313H187.92ZM192.467 24.1313V12.8513H194.019L200.563 21.3153H200.147V12.8513H202.067V24.1313H200.515L193.987 15.6673H194.387V24.1313H192.467ZM204.545 24.1313V12.8513H206.609V17.5553H212.385V12.8513H214.449V24.1313H212.385V19.2673H206.609V24.1313H204.545ZM221.326 24.1313V12.8513H225.422C226.713 12.8513 227.801 13.0753 228.686 13.5233C229.582 13.9607 230.259 14.6007 230.718 15.4433C231.177 16.2753 231.406 17.2887 231.406 18.4833C231.406 19.6673 231.177 20.6807 230.718 21.5233C230.259 22.366 229.582 23.0113 228.686 23.4593C227.801 23.9073 226.713 24.1313 225.422 24.1313H221.326ZM223.39 22.4193H225.294C226.659 22.4193 227.673 22.094 228.334 21.4433C228.995 20.7927 229.326 19.806 229.326 18.4833C229.326 17.15 228.995 16.1633 228.334 15.5233C227.673 14.8727 226.659 14.5473 225.294 14.5473H223.39V22.4193ZM232.031 24.1313L237.135 12.8513H238.863L244.031 24.1313H241.935L240.559 20.9633L241.391 21.5233H234.623L235.487 20.9633L234.111 24.1313H232.031ZM237.983 15.0593L235.727 20.4033L235.311 19.9073H240.687L240.351 20.4033L238.047 15.0593H237.983ZM245.279 24.1313V12.8513H246.831L253.375 21.3153H252.959V12.8513H254.879V24.1313H253.327L246.799 15.6673H247.199V24.1313H245.279ZM257.357 24.1313V12.8513H259.421V17.5553H265.197V12.8513H267.261V24.1313H265.197V19.2673H259.421V24.1313H257.357Z" fill="white"/>
<defs>
<linearGradient id="paint0_linear_302_4636" x1="-249.919" y1="18" x2="601.327" y2="18" gradientUnits="userSpaceOnUse">
<stop stop-color="#00CCFF"/>
<stop offset="1" stop-color="#FF00FF"/>
</linearGradient>
</defs>
</svg>
