<svg width="78" height="14" viewBox="0 0 78 14" fill="none" xmlns="http://www.w3.org/2000/svg">
<g clip-path="url(#clip0_302_7883)">
<path d="M22.5652 8.99475V12.9252C22.1529 12.8878 21.7755 12.7613 21.4256 12.5472C21.0133 12.2986 20.6983 11.9465 20.4936 11.491C20.2889 11.0512 20.2033 10.5813 20.2526 10.0668C20.3528 9.02349 20.9495 8.25753 22.0281 7.76893C22.1979 8.17849 22.3678 8.58662 22.5638 8.99475M0.220658 13.9541V0.133738H7.1351L11.3915 8.92865L15.5361 0.0805664H22.5638V3.05244C22.2952 3.25076 22.0644 3.49793 21.8713 3.78822C21.6013 4.18629 21.4401 4.64328 21.3922 5.14195C21.3603 5.46529 21.3763 5.77426 21.4503 6.05162C21.5272 6.33185 21.6463 6.74285 21.8423 7.28607L21.2427 7.62522C20.7172 7.95144 20.2817 8.24604 19.9217 8.52627C19.5602 8.8065 19.2524 9.13128 18.9998 9.49917C18.7313 9.86849 18.5774 10.2795 18.5338 10.7351C18.4932 11.3084 18.6195 11.8071 18.9418 12.2469C19.2626 12.688 19.6807 13.0243 20.2251 13.2571C20.7549 13.4899 21.2964 13.6049 21.864 13.6035C22.0978 13.6035 22.3315 13.5862 22.5667 13.5532V14.0001H18.319V3.75086L13.0348 13.8966H9.48395L4.358 3.58416V13.8966H0L0.220658 13.9541Z" fill="white"/>
<path d="M22.5652 12.925C22.6552 12.9337 22.7481 12.9365 22.8425 12.9365C23.5117 12.9351 24.0808 12.7569 24.5671 12.3861C24.3464 12.1088 24.1432 11.8012 23.9283 11.4635C23.7135 11.1258 23.4885 10.745 23.2533 10.3196C23.0181 9.89424 22.7975 9.46887 22.5899 9.04349L22.5652 8.9932V3.05232C22.6784 2.96897 22.7975 2.89424 22.9238 2.82957C23.352 2.60683 23.8296 2.48899 24.3522 2.48755C24.7602 2.48755 25.1449 2.5594 25.4947 2.70311C25.8446 2.84826 26.1291 3.05519 26.3352 3.33255C26.5414 3.61134 26.6285 3.91888 26.5922 4.28533C26.5341 4.90327 26.1901 5.44936 25.5513 5.90635C24.9256 6.36334 24.1882 6.77722 23.3375 7.16236C23.7585 8.0864 24.1461 8.87823 24.4916 9.52491C24.824 10.1544 25.2276 10.7996 25.6762 11.429C26.4732 10.5294 26.9116 9.58814 27.0074 8.58938C27.0234 8.28184 26.9725 8.04472 26.8695 7.91395C26.7679 7.76737 26.6314 7.67827 26.4732 7.6524C26.3019 7.62222 26.042 7.60929 25.7067 7.60929L25.7502 7.15374L29.6321 7.13937L29.59 7.59492C29.1385 7.59492 28.7799 7.70126 28.5142 7.89239C28.4039 7.98293 28.3052 8.09933 28.2196 8.23154C28.1194 8.36519 28.0149 8.55489 27.8915 8.7762C27.7681 8.99751 27.6969 9.12972 27.681 9.1599C27.5706 9.39558 27.4603 9.63126 27.3674 9.85113C27.26 10.071 27.1351 10.3067 27.0103 10.5424C26.8695 10.7924 26.717 11.0281 26.5646 11.2494C26.3991 11.4693 26.2031 11.6906 25.9781 11.9119C26.4572 12.3646 26.974 12.5974 27.5271 12.5959C27.8029 12.5959 28.0715 12.5356 28.2994 12.4177C28.5288 12.2985 28.793 12.1203 29.0761 11.899L29.3766 12.251C28.4039 13.1521 27.4734 13.6091 26.6009 13.6134C25.9607 13.6163 25.3786 13.3245 24.8705 12.7224C24.1025 13.165 23.3346 13.4438 22.5666 13.5502V12.9236L22.5652 12.925ZM24.6571 5.8345C25.0999 5.46661 25.3583 5.0398 25.4352 4.52532C25.457 4.30545 25.4352 4.08414 25.3554 3.8499C25.277 3.61422 25.1347 3.42452 24.946 3.26213C24.7442 3.10118 24.5047 3.03076 24.2129 3.03076H24.1838C23.7628 3.03364 23.4144 3.18022 23.1386 3.46189C22.8657 3.74212 22.7162 4.07983 22.6784 4.47646C22.6421 5.02111 22.8018 5.75402 23.1488 6.70824C23.7077 6.4855 24.1998 6.20527 24.6571 5.8345Z" fill="white"/>
<path d="M34.6216 0L27.5837 13.8678H32.0056L33.1554 11.4952H41.9759L43.1808 13.8146H47.819L45.0869 8.52618H34.7305L38.711 0.107781L34.6216 0Z" fill="white"/>
<path d="M48.433 7.48855H40.1699L40.9205 4.38159C40.9205 4.38159 41.4198 3.02068 42.8323 3.02068H47.2702L47.4821 2.04347H42.3068L41.9308 0.583396C41.9308 0.583396 41.7929 0.237061 42.2691 0.237061H49.1937C49.1937 0.237061 50.281 0.360649 50.0444 1.35079L49.5058 3.36845C49.5058 3.36845 49.1559 4.71787 47.7812 4.76673H43.2316L42.9194 5.74394H48.5317C48.5317 5.74394 48.9933 5.65771 48.8569 6.11614L48.4315 7.48999L48.433 7.48855Z" fill="white"/>
<path d="M55.8715 5.69365H52.1842L53.196 1.95725H56.8586L55.8715 5.69365ZM58.7096 0.199707H52.7344C51.3335 0.237071 50.8341 1.87103 50.8341 1.87103L49.8223 5.84311C49.3838 7.60065 50.5844 7.51443 50.5844 7.51443H56.3723C57.9982 7.51443 58.2726 5.91784 58.2726 5.91784L59.3352 1.67271C59.6851 0.347726 58.7096 0.199707 58.7096 0.199707Z" fill="white"/>
<path d="M54.4445 10.8801H53.3993V13.6982H54.4445V10.8801Z" fill="white"/>
<path d="M54.4256 9.71167H53.3993V10.5064H54.4256V9.71167Z" fill="white"/>
<path d="M47.321 9.68311H48.6479L50.1286 12.7498H50.4088L51.8997 9.71185H53.2062L51.2319 13.7084H49.3157L47.321 9.68311Z" fill="white"/>
<path d="M56.4102 11.4548C56.6032 11.416 57.3291 11.4548 57.3291 11.4548C57.8125 11.5123 57.7457 11.9822 57.7457 11.9822H55.9645C55.9166 11.4936 56.4102 11.4548 56.4102 11.4548ZM57.3871 13.1793L56.5553 13.1894C56.5553 13.1894 55.8774 13.2469 55.9746 12.5283H58.7822C58.7822 12.5283 58.7822 11.9061 58.7532 11.7422C58.7532 11.7422 58.8214 10.936 57.5047 10.8513C57.5047 10.8513 56.2853 10.8412 55.8004 10.9188C55.8004 10.9188 55.0833 10.9763 54.9773 11.7236C54.9773 11.7236 54.8801 12.7295 55.0252 13.1994C55.0252 13.1994 55.1123 13.8706 56.8253 13.8131C56.8253 13.8131 58.3366 13.7944 58.5863 13.3532C58.5863 13.3532 58.7706 13.0097 58.7605 12.856H57.7152C57.7152 12.856 57.7443 13.1721 57.3857 13.1808L57.3871 13.1793Z" fill="white"/>
<path d="M62.3344 10.9089H59.0144V11.6088H62.3344V10.9089Z" fill="white"/>
<path d="M60.6215 10.2292H59.614V12.6823C59.614 12.6823 59.4688 13.7644 60.485 13.7745C60.485 13.7745 62.0528 13.9656 62.3243 13.2959C62.3243 13.2959 62.4898 12.8921 62.4709 12.5372H61.5505C61.5505 12.5372 61.6768 13.0746 61.1252 13.0833C61.1252 13.0833 60.5924 13.1795 60.5924 12.6708L60.6215 10.2278V10.2292Z" fill="white"/>
<path d="M65.2481 10.8227C65.2481 10.8227 64.2116 10.7207 63.8443 11.3386V10.8902H62.7991V13.717H63.8443V11.9465C63.9764 11.7827 64.2725 11.5254 64.8213 11.5513C64.8213 11.5513 65.595 11.4751 65.6923 12.1649V13.6796H66.7085V12.0701C66.7085 12.0701 66.7477 10.7954 65.2466 10.8241" fill="white"/>
<path d="M69.6424 13.1608H68.481C68.3097 13.1608 68.1704 13.0171 68.1704 12.8404C68.1704 12.6636 68.3097 12.5185 68.481 12.5185H69.6424C69.8137 12.5185 69.953 12.6622 69.953 12.8404C69.953 13.0186 69.8151 13.1608 69.6424 13.1608ZM70.5134 10.9563C69.9995 10.7638 68.4796 10.8414 68.4796 10.8414C67.2021 10.8902 67.2413 11.7511 67.2413 11.7511H68.2575C68.2967 11.4636 68.6349 11.4536 68.6349 11.4536C68.857 11.4148 69.6322 11.4622 69.6322 11.4622C70.0968 11.5297 69.9414 12.1908 69.9414 12.1908C69.9022 12.1434 69.6119 12.0183 69.6119 12.0183C68.9049 11.8172 67.7828 12.0471 67.7828 12.0471C66.9887 12.2009 67.1251 13.0056 67.1251 13.0056C67.1745 13.6854 67.822 13.7716 67.822 13.7716C68.2096 13.8391 69.3419 13.7615 69.3419 13.7615C69.6714 13.6954 69.9618 13.3117 69.9618 13.3117V13.6954H70.9779V11.8172C70.9779 11.136 70.5134 10.9549 70.5134 10.9549V10.9563Z" fill="white"/>
<path d="M76.4479 10.8326C75.2372 10.7464 75.0731 11.4462 75.0731 11.4462C74.6376 10.8139 73.7172 10.824 73.7172 10.824C73.0567 10.7895 72.704 11.1286 72.5559 11.3284V10.9001H71.5295V13.6996H72.5559V11.9334C72.7896 11.5037 73.485 11.5813 73.485 11.5813C74.1716 11.5526 74.1339 12.1087 74.1339 12.1087V13.6794H75.1791V12.2611C75.227 11.4376 76.0313 11.5612 76.0313 11.5612C76.834 11.5325 76.7571 12.1748 76.7571 12.1748V13.7182H77.8125V12.2438C77.7835 10.7679 76.4479 10.834 76.4479 10.834" fill="white"/>
<path d="M67.0656 7.48855H58.8025L59.553 4.38159C59.553 4.38159 60.0524 3.02068 61.4664 3.02068H65.9042L66.1162 2.04347H60.9408L60.5663 0.583396C60.5663 0.583396 60.4284 0.237061 60.9046 0.237061H67.8292C67.8292 0.237061 68.9165 0.360649 68.6799 1.35079L68.1427 3.36845C68.1427 3.36845 67.7929 4.71787 66.4181 4.76673H61.8685L61.5564 5.74394H67.1686C67.1686 5.74394 67.6303 5.65771 67.4938 6.11614L67.0699 7.48999L67.0656 7.48855Z" fill="white"/>
<path d="M76.1677 7.48855H67.9047L68.6552 4.38159C68.6552 4.38159 69.1546 3.02068 70.5685 3.02068H75.0064L75.2183 2.04347H70.043L69.6685 0.583396C69.6685 0.583396 69.5306 0.237061 70.0067 0.237061H76.9313C76.9313 0.237061 78.0186 0.360649 77.782 1.35079L77.2449 3.36845C77.2449 3.36845 76.895 4.71787 75.5203 4.76673H70.9706L70.6585 5.74394H76.2708C76.2708 5.74394 76.7324 5.65771 76.596 6.11614L76.1721 7.48999L76.1677 7.48855Z" fill="white"/>
</g>
<defs>
<clipPath id="clip0_302_7883">
<rect width="77.814" height="14" fill="white"/>
</clipPath>
</defs>
</svg>
