<svg width="270" height="88" viewBox="0 0 270 88" fill="none" xmlns="http://www.w3.org/2000/svg">
<rect width="270" height="88" rx="40" fill="url(#paint0_linear_202_5901)"/>
<path d="M62.251 56.32C59.7123 56.32 57.579 55.8507 55.851 54.912C54.123 53.9733 52.8217 52.64 51.947 50.912C51.0723 49.184 50.635 47.136 50.635 44.768C50.635 42.3787 51.1043 40.32 52.043 38.592C52.9817 36.8427 54.3257 35.4987 56.075 34.56C57.8457 33.6 59.9683 33.12 62.443 33.12C64.0857 33.12 65.5257 33.344 66.763 33.792C68.0003 34.2187 69.0883 34.848 70.027 35.68L68.651 38.88C67.9683 38.3467 67.3177 37.92 66.699 37.6C66.0803 37.28 65.4403 37.056 64.779 36.928C64.1177 36.7787 63.3497 36.704 62.475 36.704C60.0003 36.704 58.123 37.408 56.843 38.816C55.5843 40.2027 54.955 42.1973 54.955 44.8C54.955 47.4027 55.5523 49.3867 56.747 50.752C57.963 52.1173 59.8617 52.8 62.443 52.8C63.3177 52.8 64.1923 52.7147 65.067 52.544C65.963 52.3733 66.8377 52.128 67.691 51.808L66.923 53.536V46.784H61.643V43.776H70.347V54.624C69.3017 55.1573 68.0537 55.5733 66.603 55.872C65.1523 56.1707 63.7017 56.32 62.251 56.32ZM75.0585 56V33.44H79.1865V56H75.0585ZM83.4163 44.704C83.4163 42.336 83.8429 40.288 84.6963 38.56C85.5709 36.832 86.8189 35.4987 88.4403 34.56C90.0616 33.6 91.9923 33.12 94.2323 33.12C96.4509 33.12 98.3709 33.6 99.9923 34.56C101.614 35.4987 102.862 36.832 103.736 38.56C104.632 40.288 105.08 42.3253 105.08 44.672C105.08 47.04 104.632 49.0987 103.736 50.848C102.862 52.576 101.614 53.92 99.9923 54.88C98.3709 55.84 96.4509 56.32 94.2323 56.32C91.9923 56.32 90.0616 55.84 88.4403 54.88C86.8403 53.92 85.6029 52.576 84.7283 50.848C83.8536 49.0987 83.4163 47.0507 83.4163 44.704ZM87.7363 44.704C87.7363 47.2427 88.2803 49.2267 89.3683 50.656C90.4563 52.0853 92.0776 52.8 94.2323 52.8C96.3229 52.8 97.9336 52.0853 99.0643 50.656C100.195 49.2267 100.76 47.2427 100.76 44.704C100.76 42.144 100.195 40.16 99.0643 38.752C97.9549 37.344 96.3443 36.64 94.2323 36.64C92.0776 36.64 90.4563 37.344 89.3683 38.752C88.2803 40.16 87.7363 42.144 87.7363 44.704ZM97.7523 35.488L96.3443 33.312C96.8349 33.3333 97.2509 33.3653 97.5923 33.408C97.9336 33.4293 98.2749 33.44 98.6163 33.44C99.3843 33.44 99.9923 33.344 100.44 33.152C100.91 32.9387 101.251 32.5867 101.464 32.096C101.678 31.584 101.784 30.9013 101.784 30.048V29.376H105.24V30.56C105.24 31.4773 105.048 32.3093 104.664 33.056C104.28 33.8027 103.747 34.4 103.064 34.848C102.382 35.2747 101.592 35.488 100.696 35.488H97.7523ZM93.0483 31.52L96.8563 25.952H101.016L95.9283 31.52H93.0483ZM109.34 56V33.44H113.468V56H109.34ZM132.527 56V36.832H125.071V33.44H144.111V36.832H136.655V56H132.527ZM147.027 56V33.44H151.155V42.848H162.707V33.44H166.835V56H162.707V46.272H151.155V56H147.027ZM171.809 56V33.44H175.937V56H171.809ZM180.902 56V33.44H196.102V36.672H184.87V42.912H195.366V46.176H184.87V52.736H196.102V56H180.902ZM187.11 62.528V58.816H191.014V62.528H187.11ZM183.366 31.52L187.334 25.952H190.79L194.758 31.52H191.974L189.062 28.192L186.15 31.52H183.366ZM209.342 56.32C206.12 56.32 203.72 55.52 202.141 53.92C200.584 52.2987 199.806 49.9093 199.806 46.752V33.44H203.934V46.72C203.934 48.7253 204.36 50.24 205.214 51.264C206.088 52.288 207.464 52.8 209.342 52.8C211.134 52.8 212.478 52.288 213.374 51.264C214.291 50.24 214.75 48.7253 214.75 46.72V33.44H218.814V46.752C218.814 49.9093 218.014 52.2987 216.414 53.92C214.835 55.52 212.478 56.32 209.342 56.32Z" fill="white"/>
<defs>
<linearGradient id="paint0_linear_202_5901" x1="-172.2" y1="44" x2="246.496" y2="44" gradientUnits="userSpaceOnUse">
<stop stop-color="#00CCFF"/>
<stop offset="1" stop-color="#FF00FF"/>
</linearGradient>
</defs>
</svg>
