<svg width="1440" height="571" viewBox="0 0 1440 571" fill="none" xmlns="http://www.w3.org/2000/svg">
<rect width="1440" height="569.115" transform="translate(0 0.958008)" fill="url(#paint0_linear_1_2)"/>
<path d="M150.616 74.958V36.622H135.704V29.838H173.784V36.622H158.872V74.958H150.616ZM179.617 74.958V29.838H187.873V48.654H210.977V29.838H219.233V74.958H210.977V55.502H187.873V74.958H179.617ZM227.708 52.366C227.708 47.63 228.561 43.534 230.268 40.078C232.017 36.622 234.513 33.9553 237.756 32.078C240.998 30.158 244.86 29.198 249.34 29.198C253.777 29.198 257.617 30.158 260.86 32.078C264.102 33.9553 266.598 36.622 268.348 40.078C270.14 43.534 271.036 47.6087 271.036 52.302C271.036 57.038 270.14 61.1553 268.348 64.654C266.598 68.11 264.102 70.798 260.86 72.718C257.617 74.638 253.777 75.598 249.34 75.598C244.86 75.598 240.998 74.638 237.756 72.718C234.556 70.798 232.081 68.11 230.332 64.654C228.582 61.1553 227.708 57.0593 227.708 52.366ZM236.348 52.366C236.348 57.4433 237.436 61.4113 239.612 64.27C241.788 67.1287 245.03 68.558 249.34 68.558C253.521 68.558 256.742 67.1287 259.004 64.27C261.265 61.4113 262.396 57.4433 262.396 52.366C262.396 47.246 261.265 43.278 259.004 40.462C256.785 37.646 253.564 36.238 249.34 36.238C245.03 36.238 241.788 37.646 239.612 40.462C237.436 43.278 236.348 47.246 236.348 52.366ZM237.948 25.998L245.884 14.862H252.796L260.732 25.998H255.164L249.34 19.342L243.516 25.998H237.948ZM279.555 74.958V29.838H285.763L311.939 63.694H310.275V29.838H317.955V74.958H311.747L285.635 41.102H287.235V74.958H279.555ZM349.627 75.598C344.55 75.598 340.283 74.6593 336.827 72.782C333.371 70.9047 330.768 68.238 329.019 64.782C327.27 61.326 326.395 57.23 326.395 52.494C326.395 47.7153 327.334 43.598 329.211 40.142C331.088 36.6433 333.776 33.9553 337.275 32.078C340.816 30.158 345.062 29.198 350.011 29.198C353.296 29.198 356.176 29.646 358.651 30.542C361.126 31.3953 363.302 32.654 365.179 34.318L362.427 40.718C361.062 39.6513 359.76 38.798 358.523 38.158C357.286 37.518 356.006 37.07 354.683 36.814C353.36 36.5153 351.824 36.366 350.075 36.366C345.126 36.366 341.371 37.774 338.811 40.59C336.294 43.3633 335.035 47.3527 335.035 52.558C335.035 57.7633 336.23 61.7313 338.619 64.462C341.051 67.1927 344.848 68.558 350.011 68.558C351.76 68.558 353.51 68.3873 355.259 68.046C357.051 67.7047 358.8 67.214 360.507 66.574L358.971 70.03V56.526H348.411V50.51H365.819V72.206C363.728 73.2727 361.232 74.1047 358.331 74.702C355.43 75.2993 352.528 75.598 349.627 75.598ZM403.429 74.958V36.622H388.517V29.838H426.597V36.622H411.685V74.958H403.429ZM432.43 74.958V29.838H440.686V74.958H432.43ZM450.617 74.958V29.838H456.825L483.001 63.694H481.337V29.838H489.017V74.958H482.809L456.697 41.102H458.297V74.958H450.617ZM531.084 74.958L510.988 29.838H519.884L536.076 67.726H533.388L549.58 29.838H558.156L538.06 74.958H531.084ZM562.617 74.958V29.838H593.017V36.302H570.553V48.782H591.545V55.31H570.553V68.43H593.017V74.958H562.617ZM576.057 25.998L583.673 14.862H591.993L581.817 25.998H576.057Z" fill="white"/>
<line x1="135.603" y1="108" x2="241.638" y2="108" stroke="white" stroke-width="8"/>
<rect width="424" height="378.073" transform="translate(280 152)" fill="white"/>
<path d="M408.451 218L400.225 195.781L397.939 195.5V192.406H408.117V195.5L405.814 195.852L410.842 210.951L411.229 212.357H411.334L411.703 210.986L416.73 195.852L414.041 195.5V192.406H423.744V195.5L421.424 195.781L413.707 218H408.451ZM425.326 218V214.924L428.051 214.396V196.027L425.326 195.5V192.406H445.189V199.314H441.252L441.023 196.361H433.184V202.795H441.85V206.75H433.184V214.062H441.445L441.674 211.004H445.576V218H425.326ZM432.779 190.42L436.277 185.621H441.709L441.744 185.727L436.893 190.42H432.92H432.779ZM469.816 218.369C467.777 218.369 465.984 218.023 464.438 217.332C462.902 216.629 461.707 215.609 460.852 214.273C459.996 212.926 459.568 211.297 459.568 209.387V196.027L456.844 195.5V192.406H467.443V195.5L464.719 196.027V209.387C464.719 210.512 464.924 211.449 465.334 212.199C465.744 212.949 466.33 213.512 467.092 213.887C467.854 214.25 468.762 214.432 469.816 214.432C470.883 214.432 471.797 214.25 472.559 213.887C473.332 213.512 473.924 212.949 474.334 212.199C474.744 211.449 474.949 210.512 474.949 209.387V196.027L472.225 195.5V192.406H480.117V209.387C480.117 211.297 479.684 212.926 478.816 214.273C477.949 215.609 476.742 216.629 475.195 217.332C473.648 218.023 471.855 218.369 469.816 218.369ZM479.555 200.053L479.643 196.801C480.967 196.836 481.84 196.455 482.262 195.658C482.684 194.861 482.895 193.566 482.895 191.773H487.008V191.861C487.043 194.545 486.498 196.572 485.373 197.943C484.248 199.303 482.309 200.006 479.555 200.053ZM500.982 218.369C498.955 218.369 497.168 218.018 495.621 217.314C494.086 216.611 492.891 215.592 492.035 214.256C491.18 212.92 490.752 211.297 490.752 209.387V196.027L488.027 195.5V192.406H498.627V195.5L495.885 196.027V209.387C495.885 210.512 496.09 211.449 496.5 212.199C496.91 212.949 497.496 213.512 498.258 213.887C499.02 214.25 499.928 214.432 500.982 214.432C502.061 214.432 502.98 214.25 503.742 213.887C504.516 213.512 505.107 212.949 505.518 212.199C505.928 211.449 506.133 210.512 506.133 209.387V196.027L503.408 195.5V192.406H514.008V195.5L511.266 196.027V209.387C511.266 211.297 510.832 212.926 509.965 214.273C509.109 215.609 507.908 216.629 506.361 217.332C504.826 218.023 503.033 218.369 500.982 218.369ZM524.502 218V214.924L527.262 214.344V196.098L524.502 195.5V192.406H527.262H535.734C538.02 192.406 540.035 192.945 541.781 194.023C543.527 195.09 544.887 196.572 545.859 198.471C546.844 200.357 547.336 202.525 547.336 204.975V205.449C547.336 207.875 546.85 210.037 545.877 211.936C544.916 213.822 543.568 215.305 541.834 216.383C540.1 217.461 538.09 218 535.805 218H524.502ZM532.395 214.08H535.541C536.959 214.08 538.16 213.711 539.145 212.973C540.129 212.223 540.879 211.197 541.395 209.896C541.922 208.596 542.186 207.113 542.186 205.449V204.957C542.186 203.27 541.922 201.781 541.395 200.492C540.879 199.191 540.129 198.178 539.145 197.451C538.16 196.713 536.959 196.344 535.541 196.344H532.395V214.08ZM524.309 206.398V203.674H535.893V206.398H524.309ZM548.25 218V214.924L550.078 214.66L558.217 192.406H563.473L571.559 214.66L573.387 214.924V218H564.668V214.924L566.443 214.607L565.318 211.092H556.318L555.193 214.607L556.969 214.924V218H548.25ZM557.531 207.312H564.105L561.117 198.541L560.871 197.768H560.766L560.502 198.594L557.531 207.312ZM556.916 190.49L554.262 189.787C554.262 189.002 554.443 188.275 554.807 187.607C555.182 186.939 555.674 186.4 556.283 185.99C556.893 185.58 557.555 185.375 558.27 185.375C558.832 185.375 559.418 185.516 560.027 185.797C560.637 186.078 561.217 186.365 561.768 186.658C562.33 186.939 562.805 187.08 563.191 187.08C563.672 187.068 564.053 186.887 564.334 186.535C564.627 186.172 564.773 185.715 564.773 185.164L567.428 185.902C567.428 186.711 567.24 187.449 566.865 188.117C566.502 188.773 566.016 189.301 565.406 189.699C564.797 190.086 564.129 190.279 563.402 190.279C562.793 190.279 562.184 190.139 561.574 189.857C560.965 189.576 560.396 189.295 559.869 189.014C559.342 188.721 558.879 188.574 558.48 188.574C558 188.574 557.619 188.762 557.338 189.137C557.057 189.512 556.916 189.963 556.916 190.49ZM575.092 218V214.924L577.816 214.396V196.027L575.092 195.5V192.406H585.674V195.5L582.949 196.027V214.396L585.674 214.924V218H575.092Z" fill="#FF6600"/>
<path d="M376.181 244.073V232.793H379.925C381.173 232.793 382.229 233.012 383.093 233.449C383.957 233.876 384.613 234.511 385.061 235.353C385.509 236.185 385.733 237.209 385.733 238.425C385.733 239.631 385.509 240.655 385.061 241.497C384.613 242.34 383.957 242.98 383.093 243.417C382.229 243.855 381.173 244.073 379.925 244.073H376.181ZM377.509 242.937H379.829C381.365 242.937 382.507 242.564 383.253 241.817C384 241.06 384.373 239.929 384.373 238.425C384.373 236.911 384 235.78 383.253 235.033C382.507 234.287 381.365 233.913 379.829 233.913H377.509V242.937ZM374.805 238.857V237.833H380.677V238.857H374.805ZM391.047 244.217C390.332 244.217 389.708 244.052 389.175 243.721C388.641 243.38 388.225 242.9 387.927 242.281C387.639 241.663 387.495 240.921 387.495 240.057C387.495 239.183 387.639 238.436 387.927 237.817C388.225 237.199 388.641 236.724 389.175 236.393C389.708 236.063 390.332 235.897 391.047 235.897C391.772 235.897 392.396 236.084 392.919 236.457C393.452 236.82 393.804 237.316 393.975 237.945H393.783L393.959 236.041H395.207C395.175 236.351 395.143 236.665 395.111 236.985C395.089 237.295 395.079 237.599 395.079 237.897V244.073H393.783V242.185H393.959C393.788 242.815 393.436 243.311 392.903 243.673C392.369 244.036 391.751 244.217 391.047 244.217ZM391.303 243.161C392.071 243.161 392.679 242.9 393.127 242.377C393.575 241.844 393.799 241.071 393.799 240.057C393.799 239.033 393.575 238.26 393.127 237.737C392.679 237.204 392.071 236.937 391.303 236.937C390.545 236.937 389.937 237.204 389.479 237.737C389.031 238.26 388.807 239.033 388.807 240.057C388.807 241.071 389.031 241.844 389.479 242.377C389.937 242.9 390.545 243.161 391.303 243.161ZM391.431 235.289C390.951 235.289 390.529 235.167 390.167 234.921C389.804 234.676 389.521 234.329 389.319 233.881C389.116 233.423 388.999 232.879 388.967 232.249L389.783 232.169C389.825 232.884 389.985 233.439 390.263 233.833C390.551 234.217 390.94 234.409 391.431 234.409C391.921 234.409 392.305 234.217 392.583 233.833C392.871 233.439 393.036 232.884 393.079 232.169L393.895 232.249C393.873 232.879 393.756 233.423 393.543 233.881C393.34 234.329 393.057 234.676 392.695 234.921C392.332 235.167 391.911 235.289 391.431 235.289ZM397.584 244.073V237.897C397.584 237.599 397.568 237.295 397.536 236.985C397.515 236.665 397.488 236.351 397.456 236.041H398.704L398.864 237.801H398.672C398.907 237.183 399.28 236.713 399.792 236.393C400.315 236.063 400.918 235.897 401.6 235.897C402.55 235.897 403.264 236.153 403.744 236.665C404.235 237.167 404.48 237.961 404.48 239.049V244.073H403.184V239.129C403.184 238.372 403.03 237.823 402.72 237.481C402.422 237.129 401.952 236.953 401.312 236.953C400.566 236.953 399.974 237.183 399.536 237.641C399.099 238.1 398.88 238.713 398.88 239.481V244.073H397.584ZM410.495 247.641C409.802 247.641 409.162 247.556 408.575 247.385C407.989 247.215 407.461 246.953 406.991 246.601L407.375 245.625C407.706 245.86 408.031 246.047 408.351 246.185C408.671 246.324 409.002 246.425 409.343 246.489C409.685 246.564 410.047 246.601 410.431 246.601C411.221 246.601 411.818 246.393 412.223 245.977C412.629 245.561 412.831 244.969 412.831 244.201V241.849H412.991C412.821 242.479 412.469 242.98 411.935 243.353C411.402 243.716 410.778 243.897 410.063 243.897C409.327 243.897 408.687 243.737 408.143 243.417C407.61 243.087 407.194 242.623 406.895 242.025C406.607 241.417 406.463 240.703 406.463 239.881C406.463 239.071 406.607 238.367 406.895 237.769C407.194 237.172 407.61 236.713 408.143 236.393C408.687 236.063 409.327 235.897 410.063 235.897C410.789 235.897 411.413 236.079 411.935 236.441C412.469 236.804 412.821 237.305 412.991 237.945L412.831 237.785L412.975 236.041H414.239C414.197 236.351 414.165 236.665 414.143 236.985C414.122 237.295 414.111 237.599 414.111 237.897V244.025C414.111 245.22 413.802 246.121 413.183 246.729C412.575 247.337 411.679 247.641 410.495 247.641ZM410.303 242.841C411.082 242.841 411.695 242.585 412.143 242.073C412.591 241.551 412.815 240.82 412.815 239.881C412.815 238.943 412.591 238.217 412.143 237.705C411.695 237.193 411.082 236.937 410.303 236.937C409.535 236.937 408.922 237.193 408.463 237.705C408.005 238.217 407.775 238.943 407.775 239.881C407.775 240.82 408.005 241.551 408.463 242.073C408.922 242.585 409.535 242.841 410.303 242.841ZM420.772 244.073V232.297H422.068V239.609H422.1L425.828 236.041H427.46L423.06 240.233L423.092 239.577L427.876 244.073H426.196L422.1 240.297H422.068V244.073H420.772ZM428.436 247.705L428.132 246.633C428.634 246.516 429.05 246.377 429.38 246.217C429.722 246.068 430.004 245.865 430.228 245.609C430.452 245.353 430.644 245.033 430.804 244.649L431.22 243.705L431.188 244.249L427.684 236.041H429.092L431.988 243.097H431.572L434.436 236.041H435.796L432.084 244.745C431.871 245.257 431.636 245.684 431.38 246.025C431.124 246.377 430.847 246.66 430.548 246.873C430.26 247.097 429.94 247.273 429.588 247.401C429.236 247.529 428.852 247.631 428.436 247.705ZM431.268 235.257L432.916 232.025H434.308L432.196 235.257H431.268ZM444.276 244.217C443.487 244.217 442.884 243.993 442.468 243.545C442.052 243.087 441.844 242.399 441.844 241.481V237.049H440.276V236.041H441.844V233.849L443.14 233.481V236.041H445.444V237.049H443.14V241.337C443.14 241.977 443.247 242.436 443.46 242.713C443.684 242.98 444.015 243.113 444.452 243.113C444.655 243.113 444.836 243.097 444.996 243.065C445.156 243.023 445.3 242.975 445.428 242.921V244.009C445.279 244.073 445.097 244.121 444.884 244.153C444.681 244.196 444.479 244.217 444.276 244.217ZM446.99 244.073V237.977C446.99 237.657 446.979 237.332 446.958 237.001C446.947 236.671 446.926 236.351 446.894 236.041H448.142L448.302 237.993L448.078 238.009C448.184 237.529 448.371 237.135 448.638 236.825C448.904 236.516 449.219 236.287 449.582 236.137C449.944 235.977 450.323 235.897 450.718 235.897C450.878 235.897 451.016 235.903 451.134 235.913C451.262 235.924 451.379 235.951 451.486 235.993L451.47 237.145C451.31 237.092 451.16 237.06 451.022 237.049C450.894 237.028 450.744 237.017 450.574 237.017C450.104 237.017 449.694 237.129 449.342 237.353C449 237.577 448.739 237.865 448.558 238.217C448.387 238.569 448.302 238.943 448.302 239.337V244.073H446.99ZM455.666 244.217C454.717 244.217 453.997 243.956 453.506 243.433C453.026 242.911 452.786 242.111 452.786 241.033V236.041H454.082V241.001C454.082 241.737 454.232 242.281 454.53 242.633C454.829 242.975 455.293 243.145 455.922 243.145C456.626 243.145 457.192 242.916 457.618 242.457C458.045 241.999 458.258 241.385 458.258 240.617V236.041H459.554V244.073H458.29V242.265H458.498C458.274 242.884 457.912 243.364 457.41 243.705C456.92 244.047 456.338 244.217 455.666 244.217ZM459.154 236.841L458.482 236.393V236.041C458.93 236.031 459.282 235.961 459.538 235.833C459.794 235.705 459.976 235.508 460.082 235.241C460.189 234.975 460.242 234.633 460.242 234.217V233.961H461.394V234.409C461.394 234.889 461.304 235.305 461.122 235.657C460.952 236.009 460.696 236.287 460.354 236.489C460.024 236.692 459.624 236.809 459.154 236.841ZM465.365 244.217C464.597 244.217 463.925 244.052 463.349 243.721C462.783 243.38 462.346 242.9 462.037 242.281C461.727 241.652 461.573 240.911 461.573 240.057C461.573 239.193 461.727 238.452 462.037 237.833C462.346 237.215 462.783 236.74 463.349 236.409C463.925 236.068 464.597 235.897 465.365 235.897C466.143 235.897 466.815 236.068 467.381 236.409C467.957 236.74 468.399 237.215 468.709 237.833C469.029 238.452 469.189 239.193 469.189 240.057C469.189 240.911 469.029 241.652 468.709 242.281C468.399 242.9 467.957 243.38 467.381 243.721C466.815 244.052 466.143 244.217 465.365 244.217ZM465.365 243.161C466.133 243.161 466.741 242.9 467.189 242.377C467.637 241.844 467.861 241.071 467.861 240.057C467.861 239.033 467.631 238.26 467.173 237.737C466.725 237.204 466.122 236.937 465.365 236.937C464.607 236.937 464.005 237.204 463.557 237.737C463.109 238.26 462.885 239.033 462.885 240.057C462.885 241.071 463.109 241.844 463.557 242.377C464.005 242.9 464.607 243.161 465.365 243.161ZM466.869 236.841L466.197 236.393V236.041C466.645 236.031 466.997 235.961 467.253 235.833C467.509 235.705 467.69 235.508 467.797 235.241C467.903 234.975 467.957 234.633 467.957 234.217V233.961H469.109V234.409C469.109 234.889 469.018 235.305 468.837 235.657C468.666 236.009 468.41 236.287 468.069 236.489C467.738 236.692 467.338 236.809 466.869 236.841ZM464.837 235.257L466.485 232.025H467.877L465.765 235.257H464.837ZM474.585 244.217C473.796 244.217 473.108 244.047 472.521 243.705C471.945 243.364 471.497 242.879 471.177 242.249C470.868 241.62 470.713 240.873 470.713 240.009C470.713 239.135 470.873 238.393 471.193 237.785C471.513 237.167 471.961 236.697 472.537 236.377C473.124 236.057 473.807 235.897 474.585 235.897C475.097 235.897 475.593 235.988 476.073 236.169C476.564 236.351 476.969 236.607 477.289 236.937L476.825 237.865C476.505 237.556 476.153 237.327 475.769 237.177C475.396 237.028 475.028 236.953 474.665 236.953C473.833 236.953 473.188 237.215 472.729 237.737C472.271 238.26 472.041 239.023 472.041 240.025C472.041 241.017 472.271 241.785 472.729 242.329C473.188 242.873 473.833 243.145 474.665 243.145C475.017 243.145 475.38 243.076 475.753 242.937C476.137 242.799 476.495 242.569 476.825 242.249L477.289 243.161C476.959 243.503 476.548 243.764 476.057 243.945C475.567 244.127 475.076 244.217 474.585 244.217ZM483.303 244.073V237.897C483.303 237.599 483.287 237.295 483.255 236.985C483.234 236.665 483.207 236.351 483.175 236.041H484.423L484.583 237.801H484.391C484.626 237.183 484.999 236.713 485.511 236.393C486.034 236.063 486.636 235.897 487.319 235.897C488.268 235.897 488.983 236.153 489.463 236.665C489.954 237.167 490.199 237.961 490.199 239.049V244.073H488.903V239.129C488.903 238.372 488.748 237.823 488.439 237.481C488.14 237.129 487.671 236.953 487.031 236.953C486.284 236.953 485.692 237.183 485.255 237.641C484.818 238.1 484.599 238.713 484.599 239.481V244.073H483.303ZM496.214 247.641C495.521 247.641 494.881 247.556 494.294 247.385C493.707 247.215 493.179 246.953 492.71 246.601L493.094 245.625C493.425 245.86 493.75 246.047 494.07 246.185C494.39 246.324 494.721 246.425 495.062 246.489C495.403 246.564 495.766 246.601 496.15 246.601C496.939 246.601 497.537 246.393 497.942 245.977C498.347 245.561 498.55 244.969 498.55 244.201V241.849H498.71C498.539 242.479 498.187 242.98 497.654 243.353C497.121 243.716 496.497 243.897 495.782 243.897C495.046 243.897 494.406 243.737 493.862 243.417C493.329 243.087 492.913 242.623 492.614 242.025C492.326 241.417 492.182 240.703 492.182 239.881C492.182 239.071 492.326 238.367 492.614 237.769C492.913 237.172 493.329 236.713 493.862 236.393C494.406 236.063 495.046 235.897 495.782 235.897C496.507 235.897 497.131 236.079 497.654 236.441C498.187 236.804 498.539 237.305 498.71 237.945L498.55 237.785L498.694 236.041H499.958C499.915 236.351 499.883 236.665 499.862 236.985C499.841 237.295 499.83 237.599 499.83 237.897V244.025C499.83 245.22 499.521 246.121 498.902 246.729C498.294 247.337 497.398 247.641 496.214 247.641ZM496.022 242.841C496.801 242.841 497.414 242.585 497.862 242.073C498.31 241.551 498.534 240.82 498.534 239.881C498.534 238.943 498.31 238.217 497.862 237.705C497.414 237.193 496.801 236.937 496.022 236.937C495.254 236.937 494.641 237.193 494.182 237.705C493.723 238.217 493.494 238.943 493.494 239.881C493.494 240.82 493.723 241.551 494.182 242.073C494.641 242.585 495.254 242.841 496.022 242.841ZM505.375 244.217C504.66 244.217 504.036 244.052 503.503 243.721C502.969 243.38 502.553 242.9 502.255 242.281C501.967 241.663 501.823 240.921 501.823 240.057C501.823 239.183 501.967 238.436 502.255 237.817C502.553 237.199 502.969 236.724 503.503 236.393C504.036 236.063 504.66 235.897 505.375 235.897C506.1 235.897 506.724 236.084 507.247 236.457C507.78 236.82 508.132 237.316 508.303 237.945H508.111L508.287 236.041H509.535C509.503 236.351 509.471 236.665 509.439 236.985C509.417 237.295 509.407 237.599 509.407 237.897V244.073H508.111V242.185H508.287C508.116 242.815 507.764 243.311 507.231 243.673C506.697 244.036 506.079 244.217 505.375 244.217ZM505.631 243.161C506.399 243.161 507.007 242.9 507.455 242.377C507.903 241.844 508.127 241.071 508.127 240.057C508.127 239.033 507.903 238.26 507.455 237.737C507.007 237.204 506.399 236.937 505.631 236.937C504.873 236.937 504.265 237.204 503.807 237.737C503.359 238.26 503.135 239.033 503.135 240.057C503.135 241.071 503.359 241.844 503.807 242.377C504.265 242.9 504.873 243.161 505.631 243.161ZM505.295 235.257L503.183 232.025H504.575L506.223 235.257H505.295ZM511.592 247.705L511.288 246.633C511.79 246.516 512.206 246.377 512.536 246.217C512.878 246.068 513.16 245.865 513.384 245.609C513.608 245.353 513.8 245.033 513.96 244.649L514.376 243.705L514.344 244.249L510.84 236.041H512.248L515.144 243.097H514.728L517.592 236.041H518.952L515.24 244.745C515.027 245.257 514.792 245.684 514.536 246.025C514.28 246.377 514.003 246.66 513.704 246.873C513.416 247.097 513.096 247.273 512.744 247.401C512.392 247.529 512.008 247.631 511.592 247.705ZM524.696 244.073V243.081L528.696 238.905C529.219 238.361 529.608 237.844 529.864 237.353C530.131 236.852 530.264 236.335 530.264 235.801C530.264 235.151 530.062 234.66 529.656 234.329C529.251 233.988 528.664 233.817 527.896 233.817C527.299 233.817 526.744 233.924 526.232 234.137C525.731 234.34 525.246 234.665 524.776 235.113L524.296 234.073C524.723 233.647 525.267 233.305 525.928 233.049C526.59 232.783 527.288 232.649 528.024 232.649C529.166 232.649 530.046 232.916 530.664 233.449C531.283 233.972 531.592 234.719 531.592 235.689C531.592 236.404 531.416 237.087 531.064 237.737C530.723 238.377 530.222 239.039 529.56 239.721L526.024 243.305V242.937H532.072V244.073H524.696ZM537.65 244.217C536.893 244.217 536.167 244.1 535.474 243.865C534.781 243.631 534.199 243.295 533.73 242.857L534.226 241.833C534.749 242.26 535.287 242.569 535.842 242.761C536.397 242.953 536.994 243.049 537.634 243.049C538.477 243.049 539.117 242.873 539.554 242.521C539.991 242.159 540.21 241.631 540.21 240.937C540.21 240.276 539.986 239.775 539.538 239.433C539.09 239.081 538.434 238.905 537.57 238.905H535.874V237.801H537.458C538.205 237.801 538.797 237.609 539.234 237.225C539.671 236.841 539.89 236.319 539.89 235.657C539.89 235.06 539.687 234.607 539.282 234.297C538.887 233.977 538.317 233.817 537.57 233.817C536.354 233.817 535.303 234.249 534.418 235.113L533.922 234.073C534.359 233.625 534.909 233.279 535.57 233.033C536.231 232.777 536.925 232.649 537.65 232.649C538.759 232.649 539.629 232.905 540.258 233.417C540.887 233.929 541.202 234.639 541.202 235.545C541.202 236.239 541.005 236.836 540.61 237.337C540.215 237.828 539.682 238.164 539.01 238.345V238.169C539.81 238.297 540.429 238.617 540.866 239.129C541.303 239.631 541.522 240.265 541.522 241.033C541.522 242.015 541.175 242.793 540.482 243.369C539.799 243.935 538.855 244.217 537.65 244.217ZM543.26 244.953H542.14L546.332 232.105H547.452L543.26 244.953ZM549.118 244.073V242.937H551.774V233.929H552.478L549.374 235.865V234.537L552.142 232.793H553.102V242.937H555.598V244.073H549.118ZM561.48 244.217C560.2 244.217 559.218 243.721 558.536 242.729C557.853 241.737 557.512 240.303 557.512 238.425C557.512 236.537 557.853 235.103 558.536 234.121C559.218 233.14 560.2 232.649 561.48 232.649C562.77 232.649 563.752 233.14 564.424 234.121C565.106 235.103 565.448 236.532 565.448 238.409C565.448 240.297 565.106 241.737 564.424 242.729C563.741 243.721 562.76 244.217 561.48 244.217ZM561.48 243.065C562.376 243.065 563.042 242.687 563.48 241.929C563.917 241.172 564.136 239.999 564.136 238.409C564.136 236.809 563.917 235.641 563.48 234.905C563.042 234.159 562.376 233.785 561.48 233.785C560.594 233.785 559.928 234.159 559.48 234.905C559.042 235.652 558.824 236.82 558.824 238.409C558.824 239.999 559.042 241.172 559.48 241.929C559.928 242.687 560.594 243.065 561.48 243.065ZM567.025 244.953H565.905L570.097 232.105H571.217L567.025 244.953ZM572.228 244.073V243.081L576.228 238.905C576.75 238.361 577.14 237.844 577.396 237.353C577.662 236.852 577.796 236.335 577.796 235.801C577.796 235.151 577.593 234.66 577.188 234.329C576.782 233.988 576.196 233.817 575.428 233.817C574.83 233.817 574.276 233.924 573.764 234.137C573.262 234.34 572.777 234.665 572.308 235.113L571.828 234.073C572.254 233.647 572.798 233.305 573.46 233.049C574.121 232.783 574.82 232.649 575.556 232.649C576.697 232.649 577.577 232.916 578.196 233.449C578.814 233.972 579.124 234.719 579.124 235.689C579.124 236.404 578.948 237.087 578.596 237.737C578.254 238.377 577.753 239.039 577.092 239.721L573.556 243.305V242.937H579.604V244.073H572.228ZM585.245 244.217C583.965 244.217 582.984 243.721 582.301 242.729C581.619 241.737 581.277 240.303 581.277 238.425C581.277 236.537 581.619 235.103 582.301 234.121C582.984 233.14 583.965 232.649 585.245 232.649C586.536 232.649 587.517 233.14 588.189 234.121C588.872 235.103 589.213 236.532 589.213 238.409C589.213 240.297 588.872 241.737 588.189 242.729C587.507 243.721 586.525 244.217 585.245 244.217ZM585.245 243.065C586.141 243.065 586.808 242.687 587.245 241.929C587.683 241.172 587.901 239.999 587.901 238.409C587.901 236.809 587.683 235.641 587.245 234.905C586.808 234.159 586.141 233.785 585.245 233.785C584.36 233.785 583.693 234.159 583.245 234.905C582.808 235.652 582.589 236.82 582.589 238.409C582.589 239.999 582.808 241.172 583.245 241.929C583.693 242.687 584.36 243.065 585.245 243.065ZM591.415 244.073V243.081L595.415 238.905C595.938 238.361 596.327 237.844 596.583 237.353C596.85 236.852 596.983 236.335 596.983 235.801C596.983 235.151 596.78 234.66 596.375 234.329C595.97 233.988 595.383 233.817 594.615 233.817C594.018 233.817 593.463 233.924 592.951 234.137C592.45 234.34 591.964 234.665 591.495 235.113L591.015 234.073C591.442 233.647 591.986 233.305 592.647 233.049C593.308 232.783 594.007 232.649 594.743 232.649C595.884 232.649 596.764 232.916 597.383 233.449C598.002 233.972 598.311 234.719 598.311 235.689C598.311 236.404 598.135 237.087 597.783 237.737C597.442 238.377 596.94 239.039 596.279 239.721L592.743 243.305V242.937H598.791V244.073H591.415ZM601.009 244.073V243.081L605.009 238.905C605.531 238.361 605.921 237.844 606.177 237.353C606.443 236.852 606.577 236.335 606.577 235.801C606.577 235.151 606.374 234.66 605.969 234.329C605.563 233.988 604.977 233.817 604.209 233.817C603.611 233.817 603.057 233.924 602.545 234.137C602.043 234.34 601.558 234.665 601.089 235.113L600.609 234.073C601.035 233.647 601.579 233.305 602.241 233.049C602.902 232.783 603.601 232.649 604.337 232.649C605.478 232.649 606.358 232.916 606.977 233.449C607.595 233.972 607.905 234.719 607.905 235.689C607.905 236.404 607.729 237.087 607.377 237.737C607.035 238.377 606.534 239.039 605.873 239.721L602.337 243.305V242.937H608.385V244.073H601.009ZM392.483 264.073V252.297H393.779V257.817H393.571C393.795 257.188 394.168 256.713 394.691 256.393C395.224 256.063 395.837 255.897 396.531 255.897C397.491 255.897 398.205 256.159 398.675 256.681C399.144 257.193 399.379 257.972 399.379 259.017V264.073H398.083V259.097C398.083 258.351 397.933 257.807 397.635 257.465C397.347 257.124 396.877 256.953 396.227 256.953C395.48 256.953 394.883 257.183 394.435 257.641C393.997 258.1 393.779 258.703 393.779 259.449V264.073H392.483ZM405.154 264.217C404.386 264.217 403.714 264.052 403.138 263.721C402.572 263.38 402.135 262.9 401.826 262.281C401.516 261.652 401.362 260.911 401.362 260.057C401.362 259.193 401.516 258.452 401.826 257.833C402.135 257.215 402.572 256.74 403.138 256.409C403.714 256.068 404.386 255.897 405.154 255.897C405.932 255.897 406.604 256.068 407.17 256.409C407.746 256.74 408.188 257.215 408.498 257.833C408.818 258.452 408.978 259.193 408.978 260.057C408.978 260.911 408.818 261.652 408.498 262.281C408.188 262.9 407.746 263.38 407.17 263.721C406.604 264.052 405.932 264.217 405.154 264.217ZM405.154 263.161C405.922 263.161 406.53 262.9 406.978 262.377C407.426 261.844 407.65 261.071 407.65 260.057C407.65 259.033 407.42 258.26 406.962 257.737C406.514 257.204 405.911 256.937 405.154 256.937C404.396 256.937 403.794 257.204 403.346 257.737C402.898 258.26 402.674 259.033 402.674 260.057C402.674 261.071 402.898 261.844 403.346 262.377C403.794 262.9 404.396 263.161 405.154 263.161ZM414.054 264.217C413.34 264.217 412.716 264.052 412.182 263.721C411.649 263.38 411.233 262.9 410.934 262.281C410.646 261.663 410.502 260.921 410.502 260.057C410.502 259.183 410.646 258.436 410.934 257.817C411.233 257.199 411.649 256.724 412.182 256.393C412.716 256.063 413.34 255.897 414.054 255.897C414.78 255.897 415.404 256.084 415.926 256.457C416.46 256.82 416.812 257.316 416.982 257.945H416.79L416.966 256.041H418.214C418.182 256.351 418.15 256.665 418.118 256.985C418.097 257.295 418.086 257.599 418.086 257.897V264.073H416.79V262.185H416.966C416.796 262.815 416.444 263.311 415.91 263.673C415.377 264.036 414.758 264.217 414.054 264.217ZM414.31 263.161C415.078 263.161 415.686 262.9 416.134 262.377C416.582 261.844 416.806 261.071 416.806 260.057C416.806 259.033 416.582 258.26 416.134 257.737C415.686 257.204 415.078 256.937 414.31 256.937C413.553 256.937 412.945 257.204 412.486 257.737C412.038 258.26 411.814 259.033 411.814 260.057C411.814 261.071 412.038 261.844 412.486 262.377C412.945 262.9 413.553 263.161 414.31 263.161ZM413.686 267.065V265.657H415.158V267.065H413.686ZM414.438 255.289C413.958 255.289 413.537 255.167 413.174 254.921C412.812 254.676 412.529 254.329 412.326 253.881C412.124 253.423 412.006 252.879 411.974 252.249L412.79 252.169C412.833 252.884 412.993 253.439 413.27 253.833C413.558 254.217 413.948 254.409 414.438 254.409C414.929 254.409 415.313 254.217 415.59 253.833C415.878 253.439 416.044 252.884 416.086 252.169L416.902 252.249C416.881 252.879 416.764 253.423 416.55 253.881C416.348 254.329 416.065 254.676 415.702 254.921C415.34 255.167 414.918 255.289 414.438 255.289ZM423.968 264.217C423.179 264.217 422.491 264.047 421.904 263.705C421.328 263.364 420.88 262.879 420.56 262.249C420.251 261.62 420.096 260.873 420.096 260.009C420.096 259.135 420.256 258.393 420.576 257.785C420.896 257.167 421.344 256.697 421.92 256.377C422.507 256.057 423.189 255.897 423.968 255.897C424.48 255.897 424.976 255.988 425.456 256.169C425.947 256.351 426.352 256.607 426.672 256.937L426.208 257.865C425.888 257.556 425.536 257.327 425.152 257.177C424.779 257.028 424.411 256.953 424.048 256.953C423.216 256.953 422.571 257.215 422.112 257.737C421.653 258.26 421.424 259.023 421.424 260.025C421.424 261.017 421.653 261.785 422.112 262.329C422.571 262.873 423.216 263.145 424.048 263.145C424.4 263.145 424.763 263.076 425.136 262.937C425.52 262.799 425.877 262.569 426.208 262.249L426.672 263.161C426.341 263.503 425.931 263.764 425.44 263.945C424.949 264.127 424.459 264.217 423.968 264.217ZM432.686 264.073V257.897C432.686 257.599 432.67 257.295 432.638 256.985C432.617 256.665 432.59 256.351 432.558 256.041H433.806L433.966 257.801H433.774C434.009 257.183 434.382 256.713 434.894 256.393C435.417 256.063 436.019 255.897 436.702 255.897C437.651 255.897 438.366 256.153 438.846 256.665C439.337 257.167 439.582 257.961 439.582 259.049V264.073H438.286V259.129C438.286 258.372 438.131 257.823 437.822 257.481C437.523 257.129 437.054 256.953 436.414 256.953C435.667 256.953 435.075 257.183 434.638 257.641C434.201 258.1 433.982 258.713 433.982 259.481V264.073H432.686ZM442.061 264.073V252.297H443.357V257.817H443.149C443.373 257.188 443.746 256.713 444.269 256.393C444.802 256.063 445.416 255.897 446.109 255.897C447.069 255.897 447.784 256.159 448.253 256.681C448.722 257.193 448.957 257.972 448.957 259.017V264.073H447.661V259.097C447.661 258.351 447.512 257.807 447.213 257.465C446.925 257.124 446.456 256.953 445.805 256.953C445.058 256.953 444.461 257.183 444.013 257.641C443.576 258.1 443.357 258.703 443.357 259.449V264.073H442.061ZM454.732 264.217C453.964 264.217 453.292 264.052 452.716 263.721C452.151 263.38 451.713 262.9 451.404 262.281C451.095 261.652 450.94 260.911 450.94 260.057C450.94 259.193 451.095 258.452 451.404 257.833C451.713 257.215 452.151 256.74 452.716 256.409C453.292 256.068 453.964 255.897 454.732 255.897C455.511 255.897 456.183 256.068 456.748 256.409C457.324 256.74 457.767 257.215 458.076 257.833C458.396 258.452 458.556 259.193 458.556 260.057C458.556 260.911 458.396 261.652 458.076 262.281C457.767 262.9 457.324 263.38 456.748 263.721C456.183 264.052 455.511 264.217 454.732 264.217ZM454.732 263.161C455.5 263.161 456.108 262.9 456.556 262.377C457.004 261.844 457.228 261.071 457.228 260.057C457.228 259.033 456.999 258.26 456.54 257.737C456.092 257.204 455.489 256.937 454.732 256.937C453.975 256.937 453.372 257.204 452.924 257.737C452.476 258.26 452.252 259.033 452.252 260.057C452.252 261.071 452.476 261.844 452.924 262.377C453.372 262.9 453.975 263.161 454.732 263.161ZM454.284 255.257L455.932 252.025H457.324L455.212 255.257H454.284ZM460.577 264.073V257.897C460.577 257.599 460.561 257.295 460.529 256.985C460.507 256.665 460.481 256.351 460.449 256.041H461.697L461.857 257.801H461.664C461.878 257.193 462.214 256.724 462.673 256.393C463.142 256.063 463.707 255.897 464.369 255.897C465.041 255.897 465.585 256.057 466.001 256.377C466.427 256.697 466.715 257.193 466.865 257.865H466.625C466.827 257.257 467.185 256.777 467.697 256.425C468.209 256.073 468.806 255.897 469.489 255.897C470.374 255.897 471.041 256.153 471.489 256.665C471.937 257.167 472.161 257.961 472.161 259.049V264.073H470.865V259.129C470.865 258.372 470.731 257.823 470.465 257.481C470.198 257.129 469.771 256.953 469.185 256.953C468.513 256.953 467.979 257.188 467.585 257.657C467.201 258.116 467.009 258.735 467.009 259.513V264.073H465.713V259.129C465.713 258.372 465.579 257.823 465.313 257.481C465.046 257.129 464.619 256.953 464.033 256.953C463.361 256.953 462.833 257.188 462.449 257.657C462.065 258.116 461.873 258.735 461.873 259.513V264.073H460.577ZM482.331 264.217C481.051 264.217 480.07 263.721 479.387 262.729C478.705 261.737 478.363 260.303 478.363 258.425C478.363 256.537 478.705 255.103 479.387 254.121C480.07 253.14 481.051 252.649 482.331 252.649C483.622 252.649 484.603 253.14 485.275 254.121C485.958 255.103 486.299 256.532 486.299 258.409C486.299 260.297 485.958 261.737 485.275 262.729C484.593 263.721 483.611 264.217 482.331 264.217ZM482.331 263.065C483.227 263.065 483.894 262.687 484.331 261.929C484.769 261.172 484.987 259.999 484.987 258.409C484.987 256.809 484.769 255.641 484.331 254.905C483.894 254.159 483.227 253.785 482.331 253.785C481.446 253.785 480.779 254.159 480.331 254.905C479.894 255.652 479.675 256.82 479.675 258.409C479.675 259.999 479.894 261.172 480.331 261.929C480.779 262.687 481.446 263.065 482.331 263.065ZM491.861 264.217C491.104 264.217 490.378 264.1 489.685 263.865C488.992 263.631 488.41 263.295 487.941 262.857L488.437 261.833C488.96 262.26 489.498 262.569 490.053 262.761C490.608 262.953 491.205 263.049 491.845 263.049C492.688 263.049 493.328 262.873 493.765 262.521C494.202 262.159 494.421 261.631 494.421 260.937C494.421 260.276 494.197 259.775 493.749 259.433C493.301 259.081 492.645 258.905 491.781 258.905H490.085V257.801H491.669C492.416 257.801 493.008 257.609 493.445 257.225C493.882 256.841 494.101 256.319 494.101 255.657C494.101 255.06 493.898 254.607 493.493 254.297C493.098 253.977 492.528 253.817 491.781 253.817C490.565 253.817 489.514 254.249 488.629 255.113L488.133 254.073C488.57 253.625 489.12 253.279 489.781 253.033C490.442 252.777 491.136 252.649 491.861 252.649C492.97 252.649 493.84 252.905 494.469 253.417C495.098 253.929 495.413 254.639 495.413 255.545C495.413 256.239 495.216 256.836 494.821 257.337C494.426 257.828 493.893 258.164 493.221 258.345V258.169C494.021 258.297 494.64 258.617 495.077 259.129C495.514 259.631 495.733 260.265 495.733 261.033C495.733 262.015 495.386 262.793 494.693 263.369C494.01 263.935 493.066 264.217 491.861 264.217ZM502.155 264.073V257.897C502.155 257.599 502.139 257.295 502.107 256.985C502.085 256.665 502.059 256.351 502.027 256.041H503.275L503.435 257.801H503.243C503.477 257.183 503.851 256.713 504.363 256.393C504.885 256.063 505.488 255.897 506.171 255.897C507.12 255.897 507.835 256.153 508.315 256.665C508.805 257.167 509.051 257.961 509.051 259.049V264.073H507.755V259.129C507.755 258.372 507.6 257.823 507.291 257.481C506.992 257.129 506.523 256.953 505.883 256.953C505.136 256.953 504.544 257.183 504.107 257.641C503.669 258.1 503.451 258.713 503.451 259.481V264.073H502.155ZM515.066 267.641C514.372 267.641 513.732 267.556 513.146 267.385C512.559 267.215 512.031 266.953 511.562 266.601L511.946 265.625C512.276 265.86 512.602 266.047 512.922 266.185C513.242 266.324 513.572 266.425 513.914 266.489C514.255 266.564 514.618 266.601 515.002 266.601C515.791 266.601 516.388 266.393 516.794 265.977C517.199 265.561 517.402 264.969 517.402 264.201V261.849H517.562C517.391 262.479 517.039 262.98 516.506 263.353C515.972 263.716 515.348 263.897 514.634 263.897C513.898 263.897 513.258 263.737 512.714 263.417C512.18 263.087 511.764 262.623 511.466 262.025C511.178 261.417 511.034 260.703 511.034 259.881C511.034 259.071 511.178 258.367 511.466 257.769C511.764 257.172 512.18 256.713 512.714 256.393C513.258 256.063 513.898 255.897 514.634 255.897C515.359 255.897 515.983 256.079 516.506 256.441C517.039 256.804 517.391 257.305 517.562 257.945L517.402 257.785L517.546 256.041H518.81C518.767 256.351 518.735 256.665 518.714 256.985C518.692 257.295 518.682 257.599 518.682 257.897V264.025C518.682 265.22 518.372 266.121 517.754 266.729C517.146 267.337 516.25 267.641 515.066 267.641ZM514.874 262.841C515.652 262.841 516.266 262.585 516.714 262.073C517.162 261.551 517.386 260.82 517.386 259.881C517.386 258.943 517.162 258.217 516.714 257.705C516.266 257.193 515.652 256.937 514.874 256.937C514.106 256.937 513.492 257.193 513.034 257.705C512.575 258.217 512.346 258.943 512.346 259.881C512.346 260.82 512.575 261.551 513.034 262.073C513.492 262.585 514.106 262.841 514.874 262.841ZM524.002 264.217C523.053 264.217 522.333 263.956 521.842 263.433C521.362 262.911 521.122 262.111 521.122 261.033V256.041H522.418V261.001C522.418 261.737 522.568 262.281 522.866 262.633C523.165 262.975 523.629 263.145 524.258 263.145C524.962 263.145 525.528 262.916 525.954 262.457C526.381 261.999 526.594 261.385 526.594 260.617V256.041H527.89V264.073H526.626V262.265H526.834C526.61 262.884 526.248 263.364 525.746 263.705C525.256 264.047 524.674 264.217 524.002 264.217ZM527.49 256.841L526.818 256.393V256.041C527.266 256.031 527.618 255.961 527.874 255.833C528.13 255.705 528.312 255.508 528.418 255.241C528.525 254.975 528.578 254.633 528.578 254.217V253.961H529.73V254.409C529.73 254.889 529.64 255.305 529.458 255.657C529.288 256.009 529.032 256.287 528.69 256.489C528.36 256.692 527.96 256.809 527.49 256.841ZM533.701 264.217C532.933 264.217 532.261 264.052 531.685 263.721C531.119 263.38 530.682 262.9 530.373 262.281C530.063 261.652 529.909 260.911 529.909 260.057C529.909 259.193 530.063 258.452 530.373 257.833C530.682 257.215 531.119 256.74 531.685 256.409C532.261 256.068 532.933 255.897 533.701 255.897C534.479 255.897 535.151 256.068 535.717 256.409C536.293 256.74 536.735 257.215 537.045 257.833C537.365 258.452 537.525 259.193 537.525 260.057C537.525 260.911 537.365 261.652 537.045 262.281C536.735 262.9 536.293 263.38 535.717 263.721C535.151 264.052 534.479 264.217 533.701 264.217ZM533.701 263.161C534.469 263.161 535.077 262.9 535.525 262.377C535.973 261.844 536.197 261.071 536.197 260.057C536.197 259.033 535.967 258.26 535.509 257.737C535.061 257.204 534.458 256.937 533.701 256.937C532.943 256.937 532.341 257.204 531.893 257.737C531.445 258.26 531.221 259.033 531.221 260.057C531.221 261.071 531.445 261.844 531.893 262.377C532.341 262.9 532.943 263.161 533.701 263.161ZM535.205 256.841L534.533 256.393V256.041C534.981 256.031 535.333 255.961 535.589 255.833C535.845 255.705 536.026 255.508 536.133 255.241C536.239 254.975 536.293 254.633 536.293 254.217V253.961H537.445V254.409C537.445 254.889 537.354 255.305 537.173 255.657C537.002 256.009 536.746 256.287 536.405 256.489C536.074 256.692 535.674 256.809 535.205 256.841ZM533.173 255.257L531.061 252.025H532.453L534.101 255.257H533.173ZM539.545 264.073V256.041H540.841V264.073H539.545ZM539.385 254.217V252.761H540.985V254.217H539.385ZM550.378 264.217C549.588 264.217 548.986 263.993 548.57 263.545C548.154 263.087 547.946 262.399 547.946 261.481V257.049H546.378V256.041H547.946V253.849L549.242 253.481V256.041H551.546V257.049H549.242V261.337C549.242 261.977 549.348 262.436 549.562 262.713C549.786 262.98 550.116 263.113 550.554 263.113C550.756 263.113 550.938 263.097 551.098 263.065C551.258 263.023 551.402 262.975 551.53 262.921V264.009C551.38 264.073 551.199 264.121 550.986 264.153C550.783 264.196 550.58 264.217 550.378 264.217ZM553.091 264.073V257.977C553.091 257.657 553.081 257.332 553.059 257.001C553.049 256.671 553.027 256.351 552.995 256.041H554.243L554.403 257.993L554.179 258.009C554.286 257.529 554.473 257.135 554.739 256.825C555.006 256.516 555.321 256.287 555.683 256.137C556.046 255.977 556.425 255.897 556.819 255.897C556.979 255.897 557.118 255.903 557.235 255.913C557.363 255.924 557.481 255.951 557.587 255.993L557.571 257.145C557.411 257.092 557.262 257.06 557.123 257.049C556.995 257.028 556.846 257.017 556.675 257.017C556.206 257.017 555.795 257.129 555.443 257.353C555.102 257.577 554.841 257.865 554.659 258.217C554.489 258.569 554.403 258.943 554.403 259.337V264.073H553.091ZM562.138 264.217C561.37 264.217 560.698 264.052 560.122 263.721C559.557 263.38 559.119 262.9 558.81 262.281C558.501 261.652 558.346 260.911 558.346 260.057C558.346 259.193 558.501 258.452 558.81 257.833C559.119 257.215 559.557 256.74 560.122 256.409C560.698 256.068 561.37 255.897 562.138 255.897C562.917 255.897 563.589 256.068 564.154 256.409C564.73 256.74 565.173 257.215 565.482 257.833C565.802 258.452 565.962 259.193 565.962 260.057C565.962 260.911 565.802 261.652 565.482 262.281C565.173 262.9 564.73 263.38 564.154 263.721C563.589 264.052 562.917 264.217 562.138 264.217ZM562.138 263.161C562.906 263.161 563.514 262.9 563.962 262.377C564.41 261.844 564.634 261.071 564.634 260.057C564.634 259.033 564.405 258.26 563.946 257.737C563.498 257.204 562.895 256.937 562.138 256.937C561.381 256.937 560.778 257.204 560.33 257.737C559.882 258.26 559.658 259.033 559.658 260.057C559.658 261.071 559.882 261.844 560.33 262.377C560.778 262.9 561.381 263.161 562.138 263.161ZM563.642 256.841L562.97 256.393V256.041C563.418 256.031 563.77 255.961 564.026 255.833C564.282 255.705 564.463 255.508 564.57 255.241C564.677 254.975 564.73 254.633 564.73 254.217V253.961H565.882V254.409C565.882 254.889 565.791 255.305 565.61 255.657C565.439 256.009 565.183 256.287 564.842 256.489C564.511 256.692 564.111 256.809 563.642 256.841ZM561.642 255.257V254.921C561.642 254.676 561.69 254.473 561.786 254.313C561.893 254.153 562.01 254.02 562.138 253.913C562.266 253.796 562.378 253.679 562.474 253.561C562.581 253.444 562.634 253.311 562.634 253.161C562.634 253.012 562.57 252.9 562.442 252.825C562.325 252.751 562.143 252.713 561.898 252.713C561.727 252.713 561.562 252.735 561.402 252.777C561.253 252.809 561.077 252.868 560.874 252.953L560.666 252.281C560.858 252.153 561.077 252.063 561.322 252.009C561.578 251.956 561.85 251.929 562.138 251.929C562.629 251.929 563.007 252.025 563.274 252.217C563.551 252.399 563.69 252.665 563.69 253.017C563.69 253.284 563.631 253.497 563.514 253.657C563.397 253.817 563.258 253.956 563.098 254.073C562.949 254.191 562.81 254.319 562.682 254.457C562.565 254.596 562.506 254.777 562.506 255.001V255.257H561.642ZM572.155 264.073V252.297H573.451V264.073H572.155ZM579.535 264.217C578.276 264.217 577.284 263.855 576.559 263.129C575.834 262.393 575.471 261.375 575.471 260.073C575.471 259.231 575.631 258.5 575.951 257.881C576.271 257.252 576.719 256.767 577.295 256.425C577.871 256.073 578.532 255.897 579.279 255.897C580.015 255.897 580.634 256.052 581.135 256.361C581.636 256.671 582.02 257.113 582.287 257.689C582.554 258.255 582.687 258.927 582.687 259.705V260.185H576.463V259.369H581.839L581.567 259.577C581.567 258.724 581.375 258.057 580.991 257.577C580.607 257.097 580.036 256.857 579.279 256.857C578.479 256.857 577.855 257.14 577.407 257.705C576.959 258.26 576.735 259.012 576.735 259.961V260.105C576.735 261.108 576.98 261.871 577.471 262.393C577.972 262.905 578.671 263.161 579.567 263.161C580.047 263.161 580.495 263.092 580.911 262.953C581.338 262.804 581.743 262.564 582.127 262.233L582.575 263.145C582.223 263.487 581.775 263.753 581.231 263.945C580.698 264.127 580.132 264.217 579.535 264.217ZM576.911 255.257L578.655 252.025H579.903L581.647 255.257H580.751L579.279 252.889L577.807 255.257H576.911ZM584.67 264.073V257.897C584.67 257.599 584.654 257.295 584.622 256.985C584.601 256.665 584.574 256.351 584.542 256.041H585.79L585.95 257.801H585.758C585.993 257.183 586.366 256.713 586.878 256.393C587.401 256.063 588.004 255.897 588.686 255.897C589.636 255.897 590.35 256.153 590.83 256.665C591.321 257.167 591.566 257.961 591.566 259.049V264.073H590.27V259.129C590.27 258.372 590.116 257.823 589.806 257.481C589.508 257.129 589.038 256.953 588.398 256.953C587.652 256.953 587.06 257.183 586.622 257.641C586.185 258.1 585.966 258.713 585.966 259.481V264.073H584.67Z" fill="#005AAA"/>
<path d="M351.344 351.073V345.854L366.156 329.698C367.76 327.886 369.021 326.323 369.938 325.011C370.854 323.698 371.5 322.5 371.875 321.417C372.25 320.334 372.438 319.24 372.438 318.136C372.438 316.157 371.854 314.479 370.688 313.104C369.521 311.729 367.833 311.042 365.625 311.042C363.292 311.042 361.5 311.782 360.25 313.261C359 314.719 358.375 316.761 358.375 319.386H350.75L350.688 319.198C350.625 316.511 351.198 314.094 352.406 311.948C353.615 309.782 355.354 308.073 357.625 306.823C359.917 305.552 362.635 304.917 365.781 304.917C368.802 304.917 371.396 305.469 373.562 306.573C375.729 307.677 377.396 309.209 378.562 311.167C379.75 313.125 380.344 315.386 380.344 317.948C380.344 319.677 380.01 321.354 379.344 322.979C378.698 324.604 377.708 326.292 376.375 328.042C375.062 329.792 373.406 331.74 371.406 333.886L361.25 344.854L361.312 345.011H374.938L375.406 340.292H381.688V351.073H351.344ZM388.344 351.073V343.792H396.188V351.073H388.344ZM416.219 351.073V346.261L421.188 345.323V340.354H401.844L401.562 336.323L420.969 305.573H429.031V334.823H434.656V340.354H429.031V345.323L433.969 346.261V351.073H416.219ZM409.281 334.823H421.188V316.292L421 316.229L420.312 317.698L409.281 334.823ZM455 351.729C450.354 351.729 446.677 350.177 443.969 347.073C441.281 343.948 439.938 339.427 439.938 333.511V323.167C439.938 317.25 441.281 312.729 443.969 309.604C446.656 306.479 450.312 304.917 454.938 304.917C459.542 304.917 463.198 306.479 465.906 309.604C468.615 312.729 469.969 317.25 469.969 323.167V333.511C469.969 339.448 468.625 343.969 465.938 347.073C463.25 350.177 459.604 351.729 455 351.729ZM455 345.667C457.312 345.667 459.073 344.761 460.281 342.948C461.49 341.136 462.094 338.334 462.094 334.542V322.073C462.094 318.323 461.479 315.542 460.25 313.729C459.021 311.917 457.25 311.011 454.938 311.011C452.604 311.011 450.823 311.917 449.594 313.729C448.385 315.521 447.781 318.302 447.781 322.073V334.542C447.781 338.334 448.396 341.136 449.625 342.948C450.854 344.761 452.646 345.667 455 345.667ZM491.562 351.729C486.917 351.729 483.24 350.177 480.531 347.073C477.844 343.948 476.5 339.427 476.5 333.511V323.167C476.5 317.25 477.844 312.729 480.531 309.604C483.219 306.479 486.875 304.917 491.5 304.917C496.104 304.917 499.76 306.479 502.469 309.604C505.177 312.729 506.531 317.25 506.531 323.167V333.511C506.531 339.448 505.188 343.969 502.5 347.073C499.812 350.177 496.167 351.729 491.562 351.729ZM491.562 345.667C493.875 345.667 495.635 344.761 496.844 342.948C498.052 341.136 498.656 338.334 498.656 334.542V322.073C498.656 318.323 498.042 315.542 496.812 313.729C495.583 311.917 493.812 311.011 491.5 311.011C489.167 311.011 487.385 311.917 486.156 313.729C484.948 315.521 484.344 318.302 484.344 322.073V334.542C484.344 338.334 484.958 341.136 486.188 342.948C487.417 344.761 489.208 345.667 491.562 345.667ZM513.969 351.073V343.792H521.812V351.073H513.969ZM544.062 351.729C539.417 351.729 535.74 350.177 533.031 347.073C530.344 343.948 529 339.427 529 333.511V323.167C529 317.25 530.344 312.729 533.031 309.604C535.719 306.479 539.375 304.917 544 304.917C548.604 304.917 552.26 306.479 554.969 309.604C557.677 312.729 559.031 317.25 559.031 323.167V333.511C559.031 339.448 557.688 343.969 555 347.073C552.312 350.177 548.667 351.729 544.062 351.729ZM544.062 345.667C546.375 345.667 548.135 344.761 549.344 342.948C550.552 341.136 551.156 338.334 551.156 334.542V322.073C551.156 318.323 550.542 315.542 549.312 313.729C548.083 311.917 546.312 311.011 544 311.011C541.667 311.011 539.885 311.917 538.656 313.729C537.448 315.521 536.844 318.302 536.844 322.073V334.542C536.844 338.334 537.458 341.136 538.688 342.948C539.917 344.761 541.708 345.667 544.062 345.667ZM580.625 351.729C575.979 351.729 572.302 350.177 569.594 347.073C566.906 343.948 565.562 339.427 565.562 333.511V323.167C565.562 317.25 566.906 312.729 569.594 309.604C572.281 306.479 575.938 304.917 580.562 304.917C585.167 304.917 588.823 306.479 591.531 309.604C594.24 312.729 595.594 317.25 595.594 323.167V333.511C595.594 339.448 594.25 343.969 591.562 347.073C588.875 350.177 585.229 351.729 580.625 351.729ZM580.625 345.667C582.938 345.667 584.698 344.761 585.906 342.948C587.115 341.136 587.719 338.334 587.719 334.542V322.073C587.719 318.323 587.104 315.542 585.875 313.729C584.646 311.917 582.875 311.011 580.562 311.011C578.229 311.011 576.448 311.917 575.219 313.729C574.01 315.521 573.406 318.302 573.406 322.073V334.542C573.406 338.334 574.021 341.136 575.25 342.948C576.479 344.761 578.271 345.667 580.625 345.667ZM617.188 351.729C612.542 351.729 608.865 350.177 606.156 347.073C603.469 343.948 602.125 339.427 602.125 333.511V323.167C602.125 317.25 603.469 312.729 606.156 309.604C608.844 306.479 612.5 304.917 617.125 304.917C621.729 304.917 625.385 306.479 628.094 309.604C630.802 312.729 632.156 317.25 632.156 323.167V333.511C632.156 339.448 630.812 343.969 628.125 347.073C625.438 350.177 621.792 351.729 617.188 351.729ZM617.188 345.667C619.5 345.667 621.26 344.761 622.469 342.948C623.677 341.136 624.281 338.334 624.281 334.542V322.073C624.281 318.323 623.667 315.542 622.438 313.729C621.208 311.917 619.438 311.011 617.125 311.011C614.792 311.011 613.01 311.917 611.781 313.729C610.573 315.521 609.969 318.302 609.969 322.073V334.542C609.969 338.334 610.583 341.136 611.812 342.948C613.042 344.761 614.833 345.667 617.188 345.667Z" fill="#005AAA"/>
<path d="M547.065 396.073L539.697 379.153H541.833L548.385 394.489H547.641L554.241 379.153H556.305L548.889 396.073H547.065ZM558.495 396.073V379.153H560.055L570.903 393.553H570.351V379.153H572.199V396.073H570.663L559.815 381.673H560.343V396.073H558.495ZM576.425 396.073V379.153H582.041C583.913 379.153 585.497 379.481 586.793 380.137C588.089 380.777 589.073 381.729 589.745 382.993C590.417 384.241 590.753 385.777 590.753 387.601C590.753 389.409 590.417 390.945 589.745 392.209C589.073 393.473 588.089 394.433 586.793 395.089C585.497 395.745 583.913 396.073 582.041 396.073H576.425ZM578.417 394.369H581.897C584.201 394.369 585.913 393.809 587.033 392.689C588.153 391.553 588.713 389.857 588.713 387.601C588.713 385.329 588.153 383.633 587.033 382.513C585.913 381.393 584.201 380.833 581.897 380.833H578.417V394.369ZM574.361 388.249V386.713H583.169V388.249H574.361ZM593.136 397.393H591.456L597.744 378.121H599.424L593.136 397.393ZM612.573 396.073L605.205 379.153H607.341L613.893 394.489H613.149L619.749 379.153H621.813L614.397 396.073H612.573ZM624.003 396.073V379.153H634.803V380.785H625.947V386.665H634.275V388.321H625.947V394.417H634.803V396.073H624.003ZM629.019 377.713L631.851 373.585H634.035L630.507 377.713H629.019Z" fill="#005AAA"/>
<rect width="424" height="377.073" transform="translate(736 152)" fill="white"/>
<path d="M815.76 218L807.533 195.781L805.248 195.5V192.406H815.426V195.5L813.123 195.852L818.15 210.951L818.537 212.357H818.643L819.012 210.986L824.039 195.852L821.35 195.5V192.406H831.053V195.5L828.732 195.781L821.016 218H815.76ZM832.635 218V214.924L835.359 214.396V196.027L832.635 195.5V192.406H852.498V199.314H848.561L848.332 196.361H840.492V202.795H849.158V206.75H840.492V214.062H848.754L848.982 211.004H852.885V218H832.635ZM840.088 190.42L843.586 185.621H849.018L849.053 185.727L844.201 190.42H840.229H840.088ZM870.34 218V214.924L873.082 214.396V196.361H868.424L868.143 199.42H864.258V192.406H887.092V199.42H883.189L882.908 196.361H878.215V214.396L880.975 214.924V218H870.34ZM888.885 218V214.924L891.609 214.396V196.027L888.885 195.5V192.406H899.467V195.5L896.742 196.027V214.396L899.467 214.924V218H888.885ZM901.436 218V214.924L904.16 214.396V196.027L901.436 195.5V192.406H921.299V199.314H917.361L917.133 196.361H909.293V202.795H917.959V206.75H909.293V214.062H917.555L917.783 211.004H921.686V218H901.436ZM905.584 190.35V189.893L910.066 185.621H913.846L918.293 189.945V190.35H914.285L911.947 187.818L909.539 190.35H905.584ZM937.084 218.369C935.057 218.369 933.27 218.018 931.723 217.314C930.188 216.611 928.992 215.592 928.137 214.256C927.281 212.92 926.854 211.297 926.854 209.387V196.027L924.129 195.5V192.406H934.729V195.5L931.986 196.027V209.387C931.986 210.512 932.191 211.449 932.602 212.199C933.012 212.949 933.598 213.512 934.359 213.887C935.121 214.25 936.029 214.432 937.084 214.432C938.162 214.432 939.082 214.25 939.844 213.887C940.617 213.512 941.209 212.949 941.619 212.199C942.029 211.449 942.234 210.512 942.234 209.387V196.027L939.51 195.5V192.406H950.109V195.5L947.367 196.027V209.387C947.367 211.297 946.934 212.926 946.066 214.273C945.211 215.609 944.01 216.629 942.463 217.332C940.928 218.023 939.135 218.369 937.084 218.369ZM972.785 218.369C970.301 218.369 968.139 217.854 966.299 216.822C964.459 215.779 963.035 214.309 962.027 212.41C961.031 210.5 960.533 208.244 960.533 205.643V204.781C960.533 202.297 961.014 200.1 961.975 198.189C962.947 196.268 964.33 194.762 966.123 193.672C967.916 192.582 970.049 192.037 972.521 192.037C974.256 192.037 975.879 192.283 977.391 192.775C978.914 193.268 980.273 194.018 981.469 195.025V201.213H977.654L977.127 197.328C976.74 197.047 976.318 196.807 975.861 196.607C975.404 196.408 974.906 196.256 974.367 196.15C973.84 196.045 973.266 195.992 972.645 195.992C971.191 195.992 969.943 196.35 968.9 197.064C967.857 197.779 967.055 198.793 966.492 200.105C965.941 201.406 965.666 202.953 965.666 204.746V205.643C965.666 207.436 965.959 208.988 966.545 210.301C967.131 211.613 967.963 212.633 969.041 213.359C970.119 214.074 971.396 214.432 972.873 214.432C973.611 214.432 974.35 214.35 975.088 214.186C975.838 214.01 976.518 213.787 977.127 213.518L977.654 209.914H981.469V216.031C980.473 216.688 979.23 217.244 977.742 217.701C976.254 218.146 974.602 218.369 972.785 218.369ZM983.842 218V214.924L986.566 214.396V196.027L983.842 195.5V192.406H994.441V195.5L991.699 196.027V203.41H1002.14V196.027L999.398 195.5V192.406H1002.14H1007.26H1010V195.5L1007.26 196.027V214.396L1010 214.924V218H999.398V214.924L1002.14 214.396V207.365H991.699V214.396L994.441 214.924V218H983.842ZM1024.62 218.369C1022.6 218.369 1020.81 218.018 1019.26 217.314C1017.73 216.611 1016.53 215.592 1015.68 214.256C1014.82 212.92 1014.39 211.297 1014.39 209.387V196.027L1011.67 195.5V192.406H1022.27V195.5L1019.53 196.027V209.387C1019.53 210.512 1019.73 211.449 1020.14 212.199C1020.55 212.949 1021.14 213.512 1021.9 213.887C1022.66 214.25 1023.57 214.432 1024.62 214.432C1025.7 214.432 1026.62 214.25 1027.38 213.887C1028.16 213.512 1028.75 212.949 1029.16 212.199C1029.57 211.449 1029.77 210.512 1029.77 209.387V196.027L1027.05 195.5V192.406H1037.65V195.5L1034.91 196.027V209.387C1034.91 211.297 1034.47 212.926 1033.61 214.273C1032.75 215.609 1031.55 216.629 1030 217.332C1028.47 218.023 1026.67 218.369 1024.62 218.369ZM1037.3 218V214.924L1039.12 214.66L1047.26 192.406H1052.52L1060.61 214.66L1062.43 214.924V218H1053.71V214.924L1055.49 214.607L1054.37 211.092H1045.37L1044.24 214.607L1046.02 214.924V218H1037.3ZM1046.58 207.312H1053.15L1050.16 198.541L1049.92 197.768H1049.81L1049.55 198.594L1046.58 207.312ZM1043.5 191.053V190.596L1047.98 186.658H1051.83L1056.28 190.648V191.053H1052.2L1049.88 188.768L1047.51 191.053H1043.5ZM1053.89 187.414L1053.63 185.375C1054.41 185.352 1054.98 185.27 1055.33 185.129C1055.68 184.977 1055.86 184.742 1055.86 184.426C1055.86 184.062 1055.66 183.805 1055.26 183.652C1054.86 183.5 1054.31 183.424 1053.61 183.424L1053.73 181.42C1055.61 181.42 1057.04 181.666 1058.04 182.158C1059.04 182.65 1059.53 183.324 1059.53 184.18C1059.53 184.836 1059.3 185.346 1058.83 185.709C1058.36 186.061 1057.77 186.283 1057.05 186.377L1057.04 187.414H1053.89ZM1064.14 218V214.924L1066.86 214.396V196.027L1064.14 195.5V192.406H1066.86H1072.07L1083.21 210.16L1083.32 210.143V196.027L1080.05 195.5V192.406H1087.9H1090.65V195.5L1087.9 196.027V218H1082.95L1071.56 200.422L1071.45 200.439V214.396L1074.74 214.924V218H1064.14Z" fill="#FF6600"/>
<path d="M822.031 350.729C819.177 350.729 816.604 350.219 814.312 349.198C812.042 348.177 810.25 346.719 808.938 344.823C807.625 342.907 807 340.604 807.062 337.917L807.125 337.729H814.719C814.719 339.104 815.01 340.313 815.594 341.354C816.198 342.375 817.042 343.188 818.125 343.792C819.229 344.375 820.531 344.667 822.031 344.667C824.344 344.667 826.156 344.032 827.469 342.761C828.802 341.469 829.469 339.625 829.469 337.229C829.469 334.813 828.844 332.99 827.594 331.761C826.344 330.511 824.417 329.886 821.812 329.886H816.688V323.886H821.938C823.542 323.886 824.844 323.615 825.844 323.073C826.865 322.511 827.604 321.719 828.062 320.698C828.542 319.657 828.781 318.427 828.781 317.011C828.781 314.782 828.208 313.063 827.062 311.854C825.917 310.625 824.24 310.011 822.031 310.011C820.656 310.011 819.458 310.282 818.438 310.823C817.417 311.365 816.615 312.125 816.031 313.104C815.469 314.084 815.188 315.229 815.188 316.542H807.562L807.5 316.354C807.438 314 808.01 311.886 809.219 310.011C810.448 308.115 812.167 306.625 814.375 305.542C816.583 304.459 819.115 303.917 821.969 303.917C826.427 303.917 829.99 305.042 832.656 307.292C835.323 309.521 836.656 312.698 836.656 316.823C836.656 318.844 836.073 320.74 834.906 322.511C833.76 324.282 832.031 325.688 829.719 326.729C832.323 327.625 834.24 329.011 835.469 330.886C836.719 332.761 837.344 334.917 837.344 337.354C837.344 340.125 836.688 342.511 835.375 344.511C834.062 346.511 832.25 348.052 829.938 349.136C827.625 350.198 824.99 350.729 822.031 350.729ZM843.969 350.073V342.792H851.812V350.073H843.969ZM874.062 350.729C869.417 350.729 865.74 349.177 863.031 346.073C860.344 342.948 859 338.427 859 332.511V322.167C859 316.25 860.344 311.729 863.031 308.604C865.719 305.479 869.375 303.917 874 303.917C878.604 303.917 882.26 305.479 884.969 308.604C887.677 311.729 889.031 316.25 889.031 322.167V332.511C889.031 338.448 887.688 342.969 885 346.073C882.312 349.177 878.667 350.729 874.062 350.729ZM874.062 344.667C876.375 344.667 878.135 343.761 879.344 341.948C880.552 340.136 881.156 337.334 881.156 333.542V321.073C881.156 317.323 880.542 314.542 879.312 312.729C878.083 310.917 876.312 310.011 874 310.011C871.667 310.011 869.885 310.917 868.656 312.729C867.448 314.521 866.844 317.302 866.844 321.073V333.542C866.844 337.334 867.458 340.136 868.688 341.948C869.917 343.761 871.708 344.667 874.062 344.667ZM910.625 350.729C905.979 350.729 902.302 349.177 899.594 346.073C896.906 342.948 895.562 338.427 895.562 332.511V322.167C895.562 316.25 896.906 311.729 899.594 308.604C902.281 305.479 905.938 303.917 910.562 303.917C915.167 303.917 918.823 305.479 921.531 308.604C924.24 311.729 925.594 316.25 925.594 322.167V332.511C925.594 338.448 924.25 342.969 921.562 346.073C918.875 349.177 915.229 350.729 910.625 350.729ZM910.625 344.667C912.938 344.667 914.698 343.761 915.906 341.948C917.115 340.136 917.719 337.334 917.719 333.542V321.073C917.719 317.323 917.104 314.542 915.875 312.729C914.646 310.917 912.875 310.011 910.562 310.011C908.229 310.011 906.448 310.917 905.219 312.729C904.01 314.521 903.406 317.302 903.406 321.073V333.542C903.406 337.334 904.021 340.136 905.25 341.948C906.479 343.761 908.271 344.667 910.625 344.667ZM947.188 350.729C942.542 350.729 938.865 349.177 936.156 346.073C933.469 342.948 932.125 338.427 932.125 332.511V322.167C932.125 316.25 933.469 311.729 936.156 308.604C938.844 305.479 942.5 303.917 947.125 303.917C951.729 303.917 955.385 305.479 958.094 308.604C960.802 311.729 962.156 316.25 962.156 322.167V332.511C962.156 338.448 960.812 342.969 958.125 346.073C955.438 349.177 951.792 350.729 947.188 350.729ZM947.188 344.667C949.5 344.667 951.26 343.761 952.469 341.948C953.677 340.136 954.281 337.334 954.281 333.542V321.073C954.281 317.323 953.667 314.542 952.438 312.729C951.208 310.917 949.438 310.011 947.125 310.011C944.792 310.011 943.01 310.917 941.781 312.729C940.573 314.521 939.969 317.302 939.969 321.073V333.542C939.969 337.334 940.583 340.136 941.812 341.948C943.042 343.761 944.833 344.667 947.188 344.667ZM969.594 350.073V342.792H977.438V350.073H969.594ZM999.688 350.729C995.042 350.729 991.365 349.177 988.656 346.073C985.969 342.948 984.625 338.427 984.625 332.511V322.167C984.625 316.25 985.969 311.729 988.656 308.604C991.344 305.479 995 303.917 999.625 303.917C1004.23 303.917 1007.89 305.479 1010.59 308.604C1013.3 311.729 1014.66 316.25 1014.66 322.167V332.511C1014.66 338.448 1013.31 342.969 1010.62 346.073C1007.94 349.177 1004.29 350.729 999.688 350.729ZM999.688 344.667C1002 344.667 1003.76 343.761 1004.97 341.948C1006.18 340.136 1006.78 337.334 1006.78 333.542V321.073C1006.78 317.323 1006.17 314.542 1004.94 312.729C1003.71 310.917 1001.94 310.011 999.625 310.011C997.292 310.011 995.51 310.917 994.281 312.729C993.073 314.521 992.469 317.302 992.469 321.073V333.542C992.469 337.334 993.083 340.136 994.312 341.948C995.542 343.761 997.333 344.667 999.688 344.667ZM1036.25 350.729C1031.6 350.729 1027.93 349.177 1025.22 346.073C1022.53 342.948 1021.19 338.427 1021.19 332.511V322.167C1021.19 316.25 1022.53 311.729 1025.22 308.604C1027.91 305.479 1031.56 303.917 1036.19 303.917C1040.79 303.917 1044.45 305.479 1047.16 308.604C1049.86 311.729 1051.22 316.25 1051.22 322.167V332.511C1051.22 338.448 1049.88 342.969 1047.19 346.073C1044.5 349.177 1040.85 350.729 1036.25 350.729ZM1036.25 344.667C1038.56 344.667 1040.32 343.761 1041.53 341.948C1042.74 340.136 1043.34 337.334 1043.34 333.542V321.073C1043.34 317.323 1042.73 314.542 1041.5 312.729C1040.27 310.917 1038.5 310.011 1036.19 310.011C1033.85 310.011 1032.07 310.917 1030.84 312.729C1029.64 314.521 1029.03 317.302 1029.03 321.073V333.542C1029.03 337.334 1029.65 340.136 1030.88 341.948C1032.1 343.761 1033.9 344.667 1036.25 344.667ZM1072.81 350.729C1068.17 350.729 1064.49 349.177 1061.78 346.073C1059.09 342.948 1057.75 338.427 1057.75 332.511V322.167C1057.75 316.25 1059.09 311.729 1061.78 308.604C1064.47 305.479 1068.12 303.917 1072.75 303.917C1077.35 303.917 1081.01 305.479 1083.72 308.604C1086.43 311.729 1087.78 316.25 1087.78 322.167V332.511C1087.78 338.448 1086.44 342.969 1083.75 346.073C1081.06 349.177 1077.42 350.729 1072.81 350.729ZM1072.81 344.667C1075.12 344.667 1076.89 343.761 1078.09 341.948C1079.3 340.136 1079.91 337.334 1079.91 333.542V321.073C1079.91 317.323 1079.29 314.542 1078.06 312.729C1076.83 310.917 1075.06 310.011 1072.75 310.011C1070.42 310.011 1068.64 310.917 1067.41 312.729C1066.2 314.521 1065.59 317.302 1065.59 321.073V333.542C1065.59 337.334 1066.21 340.136 1067.44 341.948C1068.67 343.761 1070.46 344.667 1072.81 344.667Z" fill="#005AAA"/>
<path d="M1003.07 395.073L995.697 378.153H997.833L1004.39 393.489H1003.64L1010.24 378.153H1012.31L1004.89 395.073H1003.07ZM1014.49 395.073V378.153H1016.05L1026.9 392.553H1026.35V378.153H1028.2V395.073H1026.66L1015.81 380.673H1016.34V395.073H1014.49ZM1032.42 395.073V378.153H1038.04C1039.91 378.153 1041.5 378.481 1042.79 379.137C1044.09 379.777 1045.07 380.729 1045.74 381.993C1046.42 383.241 1046.75 384.777 1046.75 386.601C1046.75 388.409 1046.42 389.945 1045.74 391.209C1045.07 392.473 1044.09 393.433 1042.79 394.089C1041.5 394.745 1039.91 395.073 1038.04 395.073H1032.42ZM1034.42 393.369H1037.9C1040.2 393.369 1041.91 392.809 1043.03 391.689C1044.15 390.553 1044.71 388.857 1044.71 386.601C1044.71 384.329 1044.15 382.633 1043.03 381.513C1041.91 380.393 1040.2 379.833 1037.9 379.833H1034.42V393.369ZM1030.36 387.249V385.713H1039.17V387.249H1030.36ZM1049.14 396.393H1047.46L1053.74 377.121H1055.42L1049.14 396.393ZM1068.57 395.073L1061.2 378.153H1063.34L1069.89 393.489H1069.15L1075.75 378.153H1077.81L1070.4 395.073H1068.57ZM1080 395.073V378.153H1090.8V379.785H1081.95V385.665H1090.27V387.321H1081.95V393.417H1090.8V395.073H1080ZM1085.02 376.713L1087.85 372.585H1090.03L1086.51 376.713H1085.02Z" fill="#005AAA"/>
<defs>
<linearGradient id="paint0_linear_1_2" x1="-1153.52" y1="284.558" x2="2775.32" y2="284.558" gradientUnits="userSpaceOnUse">
<stop stop-color="#00CCFF"/>
<stop offset="1" stop-color="#FF00FF"/>
</linearGradient>
</defs>
</svg>
