<svg width="360" height="279" viewBox="0 0 360 279" fill="none" xmlns="http://www.w3.org/2000/svg">
<rect width="360" height="278.312" fill="url(#paint0_linear_8_362)"/>
<path d="M28.88 36V24.02H24.22V21.9H36.12V24.02H31.46V36H28.88ZM37.9428 36V21.9H40.5228V36H37.9428ZM50.1864 36.2C48.7197 36.2 47.4597 35.9067 46.4064 35.32C45.3664 34.72 44.5664 33.88 44.0064 32.8C43.4464 31.7067 43.1664 30.42 43.1664 28.94C43.1664 27.46 43.4464 26.18 44.0064 25.1C44.5664 24.02 45.3664 23.1867 46.4064 22.6C47.4597 22 48.7197 21.7 50.1864 21.7C51.1731 21.7 52.0597 21.84 52.8464 22.12C53.6464 22.4 54.3331 22.8133 54.9064 23.36L54.0664 25.4C53.4397 24.8933 52.8331 24.5333 52.2464 24.32C51.6731 24.0933 51.0131 23.98 50.2664 23.98C48.8397 23.98 47.7464 24.4133 46.9864 25.28C46.2397 26.1333 45.8664 27.3533 45.8664 28.94C45.8664 30.5267 46.2397 31.7533 46.9864 32.62C47.7464 33.4867 48.8397 33.92 50.2664 33.92C51.0131 33.92 51.6731 33.8133 52.2464 33.6C52.8331 33.3733 53.4397 33 54.0664 32.48L54.9064 34.52C54.3331 35.0533 53.6464 35.4667 52.8464 35.76C52.0597 36.0533 51.1731 36.2 50.1864 36.2ZM57.3178 36V21.9H59.8978V28.14H59.9378L66.0778 21.9H69.1978L61.8378 29.24L61.8578 28.12L69.6778 36H66.4578L59.9378 29.48H59.8978V36H57.3178ZM70.6381 36V21.9H80.1381V23.92H73.1181V27.82H79.6781V29.86H73.1181V33.96H80.1381V36H70.6381ZM85.755 36V24.02H81.095V21.9H92.995V24.02H88.335V36H85.755Z" fill="white"/>
<line x1="24" y1="47" x2="134" y2="47" stroke="white" stroke-width="2"/>
<rect width="154" height="196.312" transform="translate(24 58)" fill="white"/>
<path d="M55.6173 82.1641C54.7787 82.1641 54.0157 82.0703 53.3282 81.8828C52.6407 81.6953 51.9636 81.3698 51.2969 80.9062V78.1562H53.0626L53.3048 79.7734C53.5391 79.9714 53.8621 80.1328 54.2735 80.2578C54.685 80.3776 55.1329 80.4375 55.6173 80.4375C56.0287 80.4375 56.3751 80.3802 56.6563 80.2656C56.9428 80.151 57.1589 79.9896 57.3048 79.7812C57.4558 79.5677 57.5313 79.3177 57.5313 79.0312C57.5313 78.7604 57.4636 78.5208 57.3282 78.3125C57.198 78.099 56.9792 77.9062 56.6719 77.7344C56.3699 77.5573 55.9584 77.388 55.4376 77.2266C54.5365 76.9609 53.7891 76.6719 53.1954 76.3594C52.6068 76.0417 52.1641 75.6641 51.8673 75.2266C51.5756 74.7839 51.4298 74.2526 51.4298 73.6328C51.4298 73.0182 51.599 72.4766 51.9376 72.0078C52.2813 71.5339 52.7553 71.1615 53.3594 70.8906C53.9636 70.6198 54.6615 70.4792 55.4532 70.4688C56.3282 70.4583 57.1016 70.5625 57.7735 70.7812C58.4506 71 59.0339 71.3047 59.5235 71.6953V74.2578H57.8126L57.5157 72.6953C57.3178 72.5703 57.0496 72.4609 56.711 72.3672C56.3777 72.2734 55.9975 72.2266 55.5704 72.2266C55.2058 72.2266 54.8829 72.2812 54.6016 72.3906C54.3256 72.5 54.1068 72.6589 53.9454 72.8672C53.7839 73.0755 53.7032 73.3281 53.7032 73.625C53.7032 73.8802 53.7735 74.1042 53.9141 74.2969C54.0548 74.4844 54.2891 74.6641 54.6173 74.8359C54.9506 75.0026 55.4089 75.1823 55.9923 75.375C57.2475 75.724 58.198 76.1849 58.8438 76.7578C59.4949 77.3307 59.8204 78.0833 59.8204 79.0156C59.8204 79.6615 59.6459 80.2214 59.2969 80.6953C58.948 81.1641 58.4584 81.526 57.8282 81.7812C57.198 82.0365 56.461 82.1641 55.6173 82.1641ZM60.7266 82V80.6328L61.9376 80.3984V72.2344L60.7266 72V70.625H61.9376H66.1407C67.0105 70.625 67.7605 70.7786 68.3907 71.0859C69.0209 71.388 69.5053 71.8125 69.8438 72.3594C70.1824 72.901 70.3516 73.5339 70.3516 74.2578C70.3516 74.9818 70.1824 75.6172 69.8438 76.1641C69.5053 76.7057 69.0209 77.1276 68.3907 77.4297C67.7605 77.7266 67.0105 77.875 66.1407 77.875H64.2188V80.3984L65.4376 80.6328V82H60.7266ZM64.2188 76.1172H66.1407C66.7761 76.1172 67.2553 75.9453 67.5782 75.6016C67.9063 75.2526 68.0704 74.8099 68.0704 74.2734C68.0704 73.7266 67.9063 73.276 67.5782 72.9219C67.2553 72.5625 66.7761 72.3828 66.1407 72.3828H64.2188V76.1172ZM71.086 82V80.6328L72.2969 80.3984V72.2344L71.086 72V70.625H79.9141V73.6953H78.1641L78.0626 72.3828H74.5782V75.2422H78.4298V77H74.5782V80.25H78.2501L78.3516 78.8906H80.086V82H71.086ZM86.7188 82.1641C85.6147 82.1641 84.6537 81.9349 83.836 81.4766C83.0183 81.013 82.3855 80.3594 81.9376 79.5156C81.4949 78.6667 81.2735 77.6641 81.2735 76.5078V76.125C81.2735 75.0208 81.4871 74.0443 81.9141 73.1953C82.3464 72.3411 82.961 71.6719 83.7579 71.1875C84.5548 70.7031 85.5027 70.4609 86.6016 70.4609C87.3725 70.4609 88.0938 70.5703 88.7657 70.7891C89.4428 71.0078 90.0469 71.3411 90.5782 71.7891V74.5391H88.8829L88.6485 72.8125C88.4766 72.6875 88.2891 72.5807 88.086 72.4922C87.8829 72.4036 87.6615 72.3359 87.4219 72.2891C87.1876 72.2422 86.9324 72.2188 86.6563 72.2188C86.0105 72.2188 85.4558 72.3776 84.9923 72.6953C84.5287 73.013 84.1719 73.4635 83.9219 74.0469C83.6772 74.625 83.5548 75.3125 83.5548 76.1094V76.5078C83.5548 77.3047 83.685 77.9948 83.9454 78.5781C84.2058 79.1615 84.5756 79.6146 85.0548 79.9375C85.5339 80.2552 86.1016 80.4141 86.7579 80.4141C87.086 80.4141 87.4141 80.3776 87.7423 80.3047C88.0756 80.2266 88.3777 80.1276 88.6485 80.0078L88.8829 78.4062H90.5782V81.125C90.1355 81.4167 89.5834 81.6641 88.9219 81.8672C88.2605 82.0651 87.5261 82.1641 86.7188 82.1641ZM91.6329 82V80.6328L92.8438 80.3984V72.2344L91.6329 72V70.625H96.336V72L95.1251 72.2344V80.3984L96.336 80.6328V82H91.6329ZM96.3438 82V80.6328L97.1563 80.5156L100.774 70.625H103.109L106.703 80.5156L107.516 80.6328V82H103.641V80.6328L104.43 80.4922L103.93 78.9297H99.9298L99.4298 80.4922L100.219 80.6328V82H96.3438ZM100.469 77.25H103.391L102.063 73.3516L101.953 73.0078H101.906L101.789 73.375L100.469 77.25ZM108.274 82V80.6328L109.484 80.3984V72.2344L108.274 72V70.625H109.484H111.766H113.141V72L111.766 72.2344V80.25H114.977L115.086 78.5859H116.828V82H108.274ZM121.57 82V80.6328L122.781 80.3984V72.2344L121.57 72V70.625H130.625V73.7422H128.875L128.774 72.3828H125.063V75.5156H129.047V77.2734H125.063V80.3984L126.281 80.6328V82H121.57ZM131.461 82V80.6328L132.672 80.3984V72.2344L131.461 72V70.625H140.289V73.6953H138.539L138.438 72.3828H134.953V75.2422H138.805V77H134.953V80.25H138.625L138.727 78.8906H140.461V82H131.461ZM141.68 82V80.6328L142.891 80.3984V72.2344L141.68 72V70.625H150.508V73.6953H148.758L148.656 72.3828H145.172V75.2422H149.024V77H145.172V80.25H148.844L148.945 78.8906H150.68V82H141.68Z" fill="#FF6600"/>
<path d="M41.8654 96.3396V89.2896H44.7454C45.4854 89.2896 46.0587 89.4663 46.4654 89.8196C46.872 90.1663 47.0754 90.653 47.0754 91.2796C47.0754 91.693 46.982 92.0463 46.7954 92.3396C46.6154 92.6263 46.3587 92.8463 46.0254 92.9996C45.6987 93.153 45.3154 93.2296 44.8754 93.2296L45.0554 93.0996H45.2554C45.5287 93.0996 45.772 93.1663 45.9854 93.2996C46.2054 93.433 46.3787 93.6563 46.5054 93.9696L47.5054 96.3396H46.5954L45.6354 94.0096C45.522 93.7096 45.352 93.5163 45.1254 93.4296C44.8987 93.3363 44.6154 93.2896 44.2754 93.2896H42.6954V96.3396H41.8654ZM42.6954 92.6396H44.6254C45.1587 92.6396 45.562 92.5263 45.8354 92.2996C46.1154 92.0663 46.2554 91.733 46.2554 91.2996C46.2554 90.8663 46.1154 90.5363 45.8354 90.3096C45.562 90.083 45.1587 89.9696 44.6254 89.9696H42.6954V92.6396ZM50.8218 96.4296C50.0351 96.4296 49.4151 96.203 48.9618 95.7496C48.5084 95.2896 48.2818 94.653 48.2818 93.8396C48.2818 93.313 48.3818 92.8563 48.5818 92.4696C48.7818 92.0763 49.0618 91.773 49.4218 91.5596C49.7818 91.3396 50.1951 91.2296 50.6618 91.2296C51.1218 91.2296 51.5084 91.3263 51.8218 91.5196C52.1351 91.713 52.3751 91.9896 52.5418 92.3496C52.7084 92.703 52.7918 93.123 52.7918 93.6096V93.9096H48.9018V93.3996H52.2618L52.0918 93.5296C52.0918 92.9963 51.9718 92.5796 51.7318 92.2796C51.4918 91.9796 51.1351 91.8296 50.6618 91.8296C50.1618 91.8296 49.7718 92.0063 49.4918 92.3596C49.2118 92.7063 49.0718 93.1763 49.0718 93.7696V93.8596C49.0718 94.4863 49.2251 94.963 49.5318 95.2896C49.8451 95.6096 50.2818 95.7696 50.8418 95.7696C51.1418 95.7696 51.4218 95.7263 51.6818 95.6396C51.9484 95.5463 52.2018 95.3963 52.4418 95.1896L52.7218 95.7596C52.5018 95.973 52.2218 96.1396 51.8818 96.2596C51.5484 96.373 51.1951 96.4296 50.8218 96.4296ZM56.2412 98.5696C55.8079 98.5696 55.4079 98.5163 55.0412 98.4096C54.6745 98.303 54.3445 98.1396 54.0512 97.9196L54.2912 97.3096C54.4979 97.4563 54.7012 97.573 54.9012 97.6596C55.1012 97.7463 55.3079 97.8096 55.5212 97.8496C55.7345 97.8963 55.9612 97.9196 56.2012 97.9196C56.6945 97.9196 57.0679 97.7896 57.3212 97.5296C57.5745 97.2696 57.7012 96.8996 57.7012 96.4196V94.9496H57.8012C57.6945 95.343 57.4745 95.6563 57.1412 95.8896C56.8079 96.1163 56.4179 96.2296 55.9712 96.2296C55.5112 96.2296 55.1112 96.1296 54.7712 95.9296C54.4379 95.723 54.1779 95.433 53.9912 95.0596C53.8112 94.6796 53.7212 94.233 53.7212 93.7196C53.7212 93.213 53.8112 92.773 53.9912 92.3996C54.1779 92.0263 54.4379 91.7396 54.7712 91.5396C55.1112 91.333 55.5112 91.2296 55.9712 91.2296C56.4245 91.2296 56.8145 91.343 57.1412 91.5696C57.4745 91.7963 57.6945 92.1096 57.8012 92.5096L57.7012 92.4096L57.7912 91.3196H58.5812C58.5545 91.513 58.5345 91.7096 58.5212 91.9096C58.5079 92.103 58.5012 92.293 58.5012 92.4796V96.3096C58.5012 97.0563 58.3079 97.6196 57.9212 97.9996C57.5412 98.3796 56.9812 98.5696 56.2412 98.5696ZM56.1212 95.5696C56.6079 95.5696 56.9912 95.4096 57.2712 95.0896C57.5512 94.763 57.6912 94.3063 57.6912 93.7196C57.6912 93.133 57.5512 92.6796 57.2712 92.3596C56.9912 92.0396 56.6079 91.8796 56.1212 91.8796C55.6412 91.8796 55.2579 92.0396 54.9712 92.3596C54.6845 92.6796 54.5412 93.133 54.5412 93.7196C54.5412 94.3063 54.6845 94.763 54.9712 95.0896C55.2579 95.4096 55.6412 95.5696 56.1212 95.5696ZM60.0566 96.3396V91.3196H60.8666V96.3396H60.0566ZM59.9566 90.1796V89.2696H60.9566V90.1796H59.9566ZM64.1094 96.4296C63.7094 96.4296 63.3361 96.3763 62.9894 96.2696C62.6427 96.1563 62.3561 95.9996 62.1294 95.7996L62.4094 95.2296C62.6561 95.423 62.9227 95.5663 63.2094 95.6596C63.5027 95.753 63.8061 95.7996 64.1194 95.7996C64.5194 95.7996 64.8194 95.7296 65.0194 95.5896C65.2261 95.443 65.3294 95.243 65.3294 94.9896C65.3294 94.7963 65.2627 94.643 65.1294 94.5296C65.0027 94.4096 64.7927 94.3163 64.4994 94.2496L63.5694 94.0596C63.1427 93.9663 62.8227 93.8096 62.6094 93.5896C62.3961 93.363 62.2894 93.0763 62.2894 92.7296C62.2894 92.4363 62.3661 92.1796 62.5194 91.9596C62.6727 91.733 62.8961 91.5563 63.1894 91.4296C63.4827 91.2963 63.8261 91.2296 64.2194 91.2296C64.5861 91.2296 64.9227 91.2863 65.2294 91.3996C65.5427 91.5063 65.8027 91.663 66.0094 91.8696L65.7194 92.4296C65.5194 92.2363 65.2894 92.093 65.0294 91.9996C64.7761 91.8996 64.5127 91.8496 64.2394 91.8496C63.8461 91.8496 63.5494 91.9296 63.3494 92.0896C63.1561 92.243 63.0594 92.4463 63.0594 92.6996C63.0594 92.893 63.1194 93.053 63.2394 93.1796C63.3661 93.2996 63.5594 93.3896 63.8194 93.4496L64.7494 93.6396C65.2027 93.7396 65.5394 93.8963 65.7594 94.1096C65.9861 94.3163 66.0994 94.5963 66.0994 94.9496C66.0994 95.2496 66.0161 95.513 65.8494 95.7396C65.6827 95.9596 65.4494 96.1296 65.1494 96.2496C64.8561 96.3696 64.5094 96.4296 64.1094 96.4296ZM69.1315 96.4296C68.6382 96.4296 68.2615 96.2896 68.0015 96.0096C67.7415 95.723 67.6115 95.293 67.6115 94.7196V91.9496H66.6315V91.3196H67.6115V89.9496L68.4215 89.7196V91.3196H69.8615V91.9496H68.4215V94.6296C68.4215 95.0296 68.4882 95.3163 68.6215 95.4896C68.7615 95.6563 68.9682 95.7396 69.2415 95.7396C69.3682 95.7396 69.4815 95.7296 69.5815 95.7096C69.6815 95.683 69.7715 95.653 69.8515 95.6196V96.2996C69.7582 96.3396 69.6449 96.3696 69.5115 96.3896C69.3849 96.4163 69.2582 96.4296 69.1315 96.4296ZM73.0288 96.4296C72.2421 96.4296 71.6221 96.203 71.1688 95.7496C70.7155 95.2896 70.4888 94.653 70.4888 93.8396C70.4888 93.313 70.5888 92.8563 70.7888 92.4696C70.9888 92.0763 71.2688 91.773 71.6288 91.5596C71.9888 91.3396 72.4021 91.2296 72.8688 91.2296C73.3288 91.2296 73.7155 91.3263 74.0288 91.5196C74.3421 91.713 74.5821 91.9896 74.7488 92.3496C74.9155 92.703 74.9988 93.123 74.9988 93.6096V93.9096H71.1088V93.3996H74.4688L74.2988 93.5296C74.2988 92.9963 74.1788 92.5796 73.9388 92.2796C73.6988 91.9796 73.3421 91.8296 72.8688 91.8296C72.3688 91.8296 71.9788 92.0063 71.6988 92.3596C71.4188 92.7063 71.2788 93.1763 71.2788 93.7696V93.8596C71.2788 94.4863 71.4321 94.963 71.7388 95.2896C72.0521 95.6096 72.4888 95.7696 73.0488 95.7696C73.3488 95.7696 73.6288 95.7263 73.8888 95.6396C74.1555 95.5463 74.4088 95.3963 74.6488 95.1896L74.9288 95.7596C74.7088 95.973 74.4288 96.1396 74.0888 96.2596C73.7555 96.373 73.4021 96.4296 73.0288 96.4296ZM76.2182 96.3396V92.5296C76.2182 92.3296 76.2116 92.1263 76.1982 91.9196C76.1916 91.713 76.1782 91.513 76.1582 91.3196H76.9382L77.0382 92.5396L76.8982 92.5496C76.9649 92.2496 77.0816 92.003 77.2482 91.8096C77.4149 91.6163 77.6116 91.473 77.8382 91.3796C78.0649 91.2796 78.3016 91.2296 78.5482 91.2296C78.6482 91.2296 78.7349 91.233 78.8082 91.2396C78.8882 91.2463 78.9616 91.263 79.0282 91.2896L79.0182 92.0096C78.9182 91.9763 78.8249 91.9563 78.7382 91.9496C78.6582 91.9363 78.5649 91.9296 78.4582 91.9296C78.1649 91.9296 77.9082 91.9996 77.6882 92.1396C77.4749 92.2796 77.3116 92.4596 77.1982 92.6796C77.0916 92.8996 77.0382 93.133 77.0382 93.3796V96.3396H76.2182ZM79.8711 96.3396V91.3196H80.6811V96.3396H79.8711ZM79.7711 90.1796V89.2696H80.7711V90.1796H79.7711ZM82.2539 96.3396V92.4796C82.2539 92.293 82.2439 92.103 82.2239 91.9096C82.2105 91.7096 82.1939 91.513 82.1739 91.3196H82.9539L83.0539 92.4196H82.9339C83.0805 92.033 83.3139 91.7396 83.6339 91.5396C83.9605 91.333 84.3372 91.2296 84.7639 91.2296C85.3572 91.2296 85.8039 91.3896 86.1039 91.7096C86.4105 92.023 86.5639 92.5196 86.5639 93.1996V96.3396H85.7539V93.2496C85.7539 92.7763 85.6572 92.433 85.4639 92.2196C85.2772 91.9996 84.9839 91.8896 84.5839 91.8896C84.1172 91.8896 83.7472 92.033 83.4739 92.3196C83.2005 92.6063 83.0639 92.9896 83.0639 93.4696V96.3396H82.2539ZM90.3232 98.5696C89.8899 98.5696 89.4899 98.5163 89.1232 98.4096C88.7566 98.303 88.4266 98.1396 88.1332 97.9196L88.3732 97.3096C88.5799 97.4563 88.7832 97.573 88.9832 97.6596C89.1832 97.7463 89.3899 97.8096 89.6032 97.8496C89.8166 97.8963 90.0432 97.9196 90.2832 97.9196C90.7766 97.9196 91.1499 97.7896 91.4032 97.5296C91.6566 97.2696 91.7832 96.8996 91.7832 96.4196V94.9496H91.8832C91.7766 95.343 91.5566 95.6563 91.2232 95.8896C90.8899 96.1163 90.4999 96.2296 90.0532 96.2296C89.5932 96.2296 89.1932 96.1296 88.8532 95.9296C88.5199 95.723 88.2599 95.433 88.0732 95.0596C87.8932 94.6796 87.8032 94.233 87.8032 93.7196C87.8032 93.213 87.8932 92.773 88.0732 92.3996C88.2599 92.0263 88.5199 91.7396 88.8532 91.5396C89.1932 91.333 89.5932 91.2296 90.0532 91.2296C90.5066 91.2296 90.8966 91.343 91.2232 91.5696C91.5566 91.7963 91.7766 92.1096 91.8832 92.5096L91.7832 92.4096L91.8732 91.3196H92.6632C92.6366 91.513 92.6166 91.7096 92.6032 91.9096C92.5899 92.103 92.5832 92.293 92.5832 92.4796V96.3096C92.5832 97.0563 92.3899 97.6196 92.0032 97.9996C91.6232 98.3796 91.0632 98.5696 90.3232 98.5696ZM90.2032 95.5696C90.6899 95.5696 91.0732 95.4096 91.3532 95.0896C91.6332 94.763 91.7732 94.3063 91.7732 93.7196C91.7732 93.133 91.6332 92.6796 91.3532 92.3596C91.0732 92.0396 90.6899 91.8796 90.2032 91.8796C89.7232 91.8796 89.3399 92.0396 89.0532 92.3596C88.7666 92.6796 88.6232 93.133 88.6232 93.7196C88.6232 94.3063 88.7666 94.763 89.0532 95.0896C89.3399 95.4096 89.7232 95.5696 90.2032 95.5696ZM99.2661 96.4296C98.8127 96.4296 98.4227 96.3163 98.0961 96.0896C97.7694 95.8563 97.5494 95.5396 97.4361 95.1396H97.5461V96.3396H96.7461V88.9796H97.5561V92.4896H97.4361C97.5494 92.103 97.7694 91.7963 98.0961 91.5696C98.4227 91.343 98.8127 91.2296 99.2661 91.2296C99.7194 91.2296 100.109 91.3363 100.436 91.5496C100.769 91.7563 101.026 92.053 101.206 92.4396C101.393 92.8263 101.486 93.2896 101.486 93.8296C101.486 94.3696 101.393 94.833 101.206 95.2196C101.019 95.6063 100.759 95.9063 100.426 96.1196C100.099 96.3263 99.7127 96.4296 99.2661 96.4296ZM99.0961 95.7696C99.5694 95.7696 99.9494 95.6063 100.236 95.2796C100.523 94.953 100.666 94.4696 100.666 93.8296C100.666 93.1896 100.523 92.7063 100.236 92.3796C99.9494 92.0463 99.5694 91.8796 99.0961 91.8796C98.6227 91.8796 98.2427 92.0463 97.9561 92.3796C97.6761 92.7063 97.5361 93.1896 97.5361 93.8296C97.5361 94.463 97.6761 94.9463 97.9561 95.2796C98.2427 95.6063 98.6227 95.7696 99.0961 95.7696ZM104.972 96.4296C104.185 96.4296 103.565 96.203 103.112 95.7496C102.659 95.2896 102.432 94.653 102.432 93.8396C102.432 93.313 102.532 92.8563 102.732 92.4696C102.932 92.0763 103.212 91.773 103.572 91.5596C103.932 91.3396 104.345 91.2296 104.812 91.2296C105.272 91.2296 105.659 91.3263 105.972 91.5196C106.285 91.713 106.525 91.9896 106.692 92.3496C106.859 92.703 106.942 93.123 106.942 93.6096V93.9096H103.052V93.3996H106.412L106.242 93.5296C106.242 92.9963 106.122 92.5796 105.882 92.2796C105.642 91.9796 105.285 91.8296 104.812 91.8296C104.312 91.8296 103.922 92.0063 103.642 92.3596C103.362 92.7063 103.222 93.1763 103.222 93.7696V93.8596C103.222 94.4863 103.375 94.963 103.682 95.2896C103.995 95.6096 104.432 95.7696 104.992 95.7696C105.292 95.7696 105.572 95.7263 105.832 95.6396C106.099 95.5463 106.352 95.3963 106.592 95.1896L106.872 95.7596C106.652 95.973 106.372 96.1396 106.032 96.2596C105.699 96.373 105.345 96.4296 104.972 96.4296ZM108.442 96.3396V91.9496H107.462V91.3196H108.662L108.442 91.5296V90.6896C108.442 90.123 108.585 89.6896 108.872 89.3896C109.158 89.0896 109.568 88.9396 110.102 88.9396C110.235 88.9396 110.372 88.953 110.512 88.9796C110.658 88.9996 110.778 89.0296 110.872 89.0696V89.7396C110.792 89.7063 110.692 89.6796 110.572 89.6596C110.458 89.633 110.342 89.6196 110.222 89.6196C110.015 89.6196 109.838 89.663 109.692 89.7496C109.545 89.8296 109.435 89.953 109.362 90.1196C109.288 90.2863 109.252 90.4996 109.252 90.7596V91.4896L109.122 91.3196H110.652V91.9496H109.252V96.3396H108.442ZM113.484 96.4296C113.004 96.4296 112.584 96.3263 112.224 96.1196C111.87 95.9063 111.597 95.6063 111.404 95.2196C111.21 94.8263 111.114 94.363 111.114 93.8296C111.114 93.2896 111.21 92.8263 111.404 92.4396C111.597 92.053 111.87 91.7563 112.224 91.5496C112.584 91.3363 113.004 91.2296 113.484 91.2296C113.97 91.2296 114.39 91.3363 114.744 91.5496C115.104 91.7563 115.38 92.053 115.574 92.4396C115.774 92.8263 115.874 93.2896 115.874 93.8296C115.874 94.363 115.774 94.8263 115.574 95.2196C115.38 95.6063 115.104 95.9063 114.744 96.1196C114.39 96.3263 113.97 96.4296 113.484 96.4296ZM113.484 95.7696C113.964 95.7696 114.344 95.6063 114.624 95.2796C114.904 94.9463 115.044 94.463 115.044 93.8296C115.044 93.1896 114.9 92.7063 114.614 92.3796C114.334 92.0463 113.957 91.8796 113.484 91.8796C113.01 91.8796 112.634 92.0463 112.354 92.3796C112.074 92.7063 111.934 93.1896 111.934 93.8296C111.934 94.463 112.074 94.9463 112.354 95.2796C112.634 95.6063 113.01 95.7696 113.484 95.7696ZM117.117 96.3396V92.5296C117.117 92.3296 117.11 92.1263 117.097 91.9196C117.09 91.713 117.077 91.513 117.057 91.3196H117.837L117.937 92.5396L117.797 92.5496C117.863 92.2496 117.98 92.003 118.147 91.8096C118.313 91.6163 118.51 91.473 118.737 91.3796C118.963 91.2796 119.2 91.2296 119.447 91.2296C119.547 91.2296 119.633 91.233 119.707 91.2396C119.787 91.2463 119.86 91.263 119.927 91.2896L119.917 92.0096C119.817 91.9763 119.723 91.9563 119.637 91.9496C119.557 91.9363 119.463 91.9296 119.357 91.9296C119.063 91.9296 118.807 91.9996 118.587 92.1396C118.373 92.2796 118.21 92.4596 118.097 92.6796C117.99 92.8996 117.937 93.133 117.937 93.3796V96.3396H117.117ZM122.941 96.4296C122.154 96.4296 121.534 96.203 121.081 95.7496C120.628 95.2896 120.401 94.653 120.401 93.8396C120.401 93.313 120.501 92.8563 120.701 92.4696C120.901 92.0763 121.181 91.773 121.541 91.5596C121.901 91.3396 122.314 91.2296 122.781 91.2296C123.241 91.2296 123.628 91.3263 123.941 91.5196C124.254 91.713 124.494 91.9896 124.661 92.3496C124.828 92.703 124.911 93.123 124.911 93.6096V93.9096H121.021V93.3996H124.381L124.211 93.5296C124.211 92.9963 124.091 92.5796 123.851 92.2796C123.611 91.9796 123.254 91.8296 122.781 91.8296C122.281 91.8296 121.891 92.0063 121.611 92.3596C121.331 92.7063 121.191 93.1763 121.191 93.7696V93.8596C121.191 94.4863 121.344 94.963 121.651 95.2896C121.964 95.6096 122.401 95.7696 122.961 95.7696C123.261 95.7696 123.541 95.7263 123.801 95.6396C124.068 95.5463 124.321 95.3963 124.561 95.1896L124.841 95.7596C124.621 95.973 124.341 96.1396 124.001 96.2596C123.668 96.373 123.314 96.4296 122.941 96.4296ZM128.588 92.8096C128.588 92.063 128.714 91.423 128.968 90.8896C129.228 90.3496 129.598 89.933 130.078 89.6396C130.564 89.3463 131.148 89.1996 131.828 89.1996C132.488 89.1996 133.061 89.3463 133.548 89.6396C134.034 89.933 134.408 90.3496 134.668 90.8896C134.934 91.423 135.068 92.0596 135.068 92.7996C135.068 93.5463 134.934 94.1896 134.668 94.7296C134.401 95.2696 134.024 95.6896 133.538 95.9896C133.058 96.283 132.488 96.4296 131.828 96.4296C131.148 96.4296 130.568 96.283 130.088 95.9896C129.608 95.6896 129.238 95.2696 128.978 94.7296C128.718 94.1896 128.588 93.5496 128.588 92.8096ZM129.458 92.8096C129.458 93.7163 129.658 94.4263 130.058 94.9396C130.458 95.4463 131.048 95.6996 131.828 95.6996C132.574 95.6996 133.154 95.4463 133.568 94.9396C133.988 94.4263 134.198 93.7163 134.198 92.8096C134.198 91.8963 133.991 91.1896 133.578 90.6896C133.164 90.183 132.581 89.9296 131.828 89.9296C131.048 89.9296 130.458 90.183 130.058 90.6896C129.658 91.1896 129.458 91.8963 129.458 92.8096ZM138.592 96.4296C138.099 96.4296 137.669 96.323 137.302 96.1096C136.942 95.8963 136.662 95.593 136.462 95.1996C136.269 94.8063 136.172 94.3396 136.172 93.7996C136.172 93.253 136.272 92.7896 136.472 92.4096C136.672 92.023 136.952 91.7296 137.312 91.5296C137.679 91.3296 138.106 91.2296 138.592 91.2296C138.912 91.2296 139.222 91.2863 139.522 91.3996C139.829 91.513 140.082 91.673 140.282 91.8796L139.992 92.4596C139.792 92.2663 139.572 92.123 139.332 92.0296C139.099 91.9363 138.869 91.8896 138.642 91.8896C138.122 91.8896 137.719 92.053 137.432 92.3796C137.146 92.7063 137.002 93.183 137.002 93.8096C137.002 94.4296 137.146 94.9096 137.432 95.2496C137.719 95.5896 138.122 95.7596 138.642 95.7596C138.862 95.7596 139.089 95.7163 139.322 95.6296C139.562 95.543 139.786 95.3996 139.992 95.1996L140.282 95.7696C140.076 95.983 139.819 96.1463 139.512 96.2596C139.206 96.373 138.899 96.4296 138.592 96.4296ZM143.214 96.4296C142.72 96.4296 142.344 96.2896 142.084 96.0096C141.824 95.723 141.694 95.293 141.694 94.7196V91.9496H140.714V91.3196H141.694V89.9496L142.504 89.7196V91.3196H143.944V91.9496H142.504V94.6296C142.504 95.0296 142.57 95.3163 142.704 95.4896C142.844 95.6563 143.05 95.7396 143.324 95.7396C143.45 95.7396 143.564 95.7296 143.664 95.7096C143.764 95.683 143.854 95.653 143.934 95.6196V96.2996C143.84 96.3396 143.727 96.3696 143.594 96.3896C143.467 96.4163 143.34 96.4296 143.214 96.4296ZM147.607 96.3396V95.7196L150.107 93.1096C150.434 92.7696 150.677 92.4463 150.837 92.1396C151.004 91.8263 151.087 91.503 151.087 91.1696C151.087 90.763 150.96 90.4563 150.707 90.2496C150.454 90.0363 150.087 89.9296 149.607 89.9296C149.234 89.9296 148.887 89.9963 148.567 90.1296C148.254 90.2563 147.95 90.4596 147.657 90.7396L147.357 90.0896C147.624 89.823 147.964 89.6096 148.377 89.4496C148.79 89.283 149.227 89.1996 149.687 89.1996C150.4 89.1996 150.95 89.3663 151.337 89.6996C151.724 90.0263 151.917 90.493 151.917 91.0996C151.917 91.5463 151.807 91.973 151.587 92.3796C151.374 92.7796 151.06 93.193 150.647 93.6196L148.437 95.8596V95.6296H152.217V96.3396H147.607ZM155.703 96.4296C155.23 96.4296 154.776 96.3563 154.343 96.2096C153.91 96.063 153.546 95.853 153.253 95.5796L153.563 94.9396C153.89 95.2063 154.226 95.3996 154.573 95.5196C154.92 95.6396 155.293 95.6996 155.693 95.6996C156.22 95.6996 156.62 95.5896 156.893 95.3696C157.166 95.143 157.303 94.813 157.303 94.3796C157.303 93.9663 157.163 93.653 156.883 93.4396C156.603 93.2196 156.193 93.1096 155.653 93.1096H154.593V92.4196H155.583C156.05 92.4196 156.42 92.2996 156.693 92.0596C156.966 91.8196 157.103 91.493 157.103 91.0796C157.103 90.7063 156.976 90.423 156.723 90.2296C156.476 90.0296 156.12 89.9296 155.653 89.9296C154.893 89.9296 154.236 90.1996 153.683 90.7396L153.373 90.0896C153.646 89.8096 153.99 89.593 154.403 89.4396C154.816 89.2796 155.25 89.1996 155.703 89.1996C156.396 89.1996 156.94 89.3596 157.333 89.6796C157.726 89.9996 157.923 90.443 157.923 91.0096C157.923 91.443 157.8 91.8163 157.553 92.1296C157.306 92.4363 156.973 92.6463 156.553 92.7596V92.6496C157.053 92.7296 157.44 92.9296 157.713 93.2496C157.986 93.563 158.123 93.9596 158.123 94.4396C158.123 95.053 157.906 95.5396 157.473 95.8996C157.046 96.253 156.456 96.4296 155.703 96.4296ZM159.789 97.4796L159.409 97.1896C159.589 97.003 159.706 96.8263 159.759 96.6596C159.819 96.4996 159.849 96.3363 159.849 96.1696L160.029 96.3396H159.369V95.3196H160.389V96.0396C160.389 96.3063 160.346 96.5563 160.259 96.7896C160.173 97.0296 160.016 97.2596 159.789 97.4796ZM52.6022 109.34V108.72L55.1022 106.11C55.4289 105.77 55.6722 105.446 55.8322 105.14C55.9989 104.826 56.0822 104.503 56.0822 104.17C56.0822 103.763 55.9555 103.456 55.7022 103.25C55.4489 103.036 55.0822 102.93 54.6022 102.93C54.2289 102.93 53.8822 102.996 53.5622 103.13C53.2489 103.256 52.9455 103.46 52.6522 103.74L52.3522 103.09C52.6189 102.823 52.9589 102.61 53.3722 102.45C53.7855 102.283 54.2222 102.2 54.6822 102.2C55.3955 102.2 55.9455 102.366 56.3322 102.7C56.7189 103.026 56.9122 103.493 56.9122 104.1C56.9122 104.546 56.8022 104.973 56.5822 105.38C56.3689 105.78 56.0555 106.193 55.6422 106.62L53.4322 108.86V108.63H57.2122V109.34H52.6022ZM60.7383 109.43C59.9383 109.43 59.3249 109.12 58.8983 108.5C58.4716 107.88 58.2583 106.983 58.2583 105.81C58.2583 104.63 58.4716 103.733 58.8983 103.12C59.3249 102.506 59.9383 102.2 60.7383 102.2C61.5449 102.2 62.1583 102.506 62.5783 103.12C63.0049 103.733 63.2183 104.626 63.2183 105.8C63.2183 106.98 63.0049 107.88 62.5783 108.5C62.1516 109.12 61.5383 109.43 60.7383 109.43ZM60.7383 108.71C61.2983 108.71 61.7149 108.473 61.9883 108C62.2616 107.526 62.3983 106.793 62.3983 105.8C62.3983 104.8 62.2616 104.07 61.9883 103.61C61.7149 103.143 61.2983 102.91 60.7383 102.91C60.1849 102.91 59.7683 103.143 59.4883 103.61C59.2149 104.076 59.0783 104.806 59.0783 105.8C59.0783 106.793 59.2149 107.526 59.4883 108C59.7683 108.473 60.1849 108.71 60.7383 108.71ZM64.5944 109.34V108.72L67.0944 106.11C67.421 105.77 67.6644 105.446 67.8244 105.14C67.991 104.826 68.0744 104.503 68.0744 104.17C68.0744 103.763 67.9477 103.456 67.6944 103.25C67.441 103.036 67.0744 102.93 66.5944 102.93C66.221 102.93 65.8744 102.996 65.5544 103.13C65.241 103.256 64.9377 103.46 64.6444 103.74L64.3444 103.09C64.611 102.823 64.951 102.61 65.3644 102.45C65.7777 102.283 66.2144 102.2 66.6744 102.2C67.3877 102.2 67.9377 102.366 68.3244 102.7C68.711 103.026 68.9044 103.493 68.9044 104.1C68.9044 104.546 68.7944 104.973 68.5744 105.38C68.361 105.78 68.0477 106.193 67.6344 106.62L65.4244 108.86V108.63H69.2044V109.34H64.5944ZM70.5905 109.34V108.72L73.0905 106.11C73.4171 105.77 73.6605 105.446 73.8205 105.14C73.9871 104.826 74.0705 104.503 74.0705 104.17C74.0705 103.763 73.9438 103.456 73.6905 103.25C73.4371 103.036 73.0705 102.93 72.5905 102.93C72.2171 102.93 71.8705 102.996 71.5505 103.13C71.2371 103.256 70.9338 103.46 70.6405 103.74L70.3405 103.09C70.6071 102.823 70.9471 102.61 71.3605 102.45C71.7738 102.283 72.2105 102.2 72.6705 102.2C73.3838 102.2 73.9338 102.366 74.3205 102.7C74.7071 103.026 74.9005 103.493 74.9005 104.1C74.9005 104.546 74.7905 104.973 74.5705 105.38C74.3571 105.78 74.0438 106.193 73.6305 106.62L71.4205 108.86V108.63H75.2005V109.34H70.5905ZM81.184 109.43C80.704 109.43 80.284 109.326 79.924 109.12C79.5707 108.906 79.2973 108.606 79.104 108.22C78.9107 107.826 78.814 107.363 78.814 106.83C78.814 106.29 78.9107 105.826 79.104 105.44C79.2973 105.053 79.5707 104.756 79.924 104.55C80.284 104.336 80.704 104.23 81.184 104.23C81.6707 104.23 82.0907 104.336 82.444 104.55C82.804 104.756 83.0807 105.053 83.274 105.44C83.474 105.826 83.574 106.29 83.574 106.83C83.574 107.363 83.474 107.826 83.274 108.22C83.0807 108.606 82.804 108.906 82.444 109.12C82.0907 109.326 81.6707 109.43 81.184 109.43ZM81.184 108.77C81.664 108.77 82.044 108.606 82.324 108.28C82.604 107.946 82.744 107.463 82.744 106.83C82.744 106.19 82.6007 105.706 82.314 105.38C82.034 105.046 81.6573 104.88 81.184 104.88C80.7107 104.88 80.334 105.046 80.054 105.38C79.774 105.706 79.634 106.19 79.634 106.83C79.634 107.463 79.774 107.946 80.054 108.28C80.334 108.606 80.7107 108.77 81.184 108.77ZM84.8169 109.34V105.53C84.8169 105.33 84.8102 105.126 84.7969 104.92C84.7902 104.713 84.7769 104.513 84.7569 104.32H85.5369L85.6369 105.54L85.4969 105.55C85.5635 105.25 85.6802 105.003 85.8469 104.81C86.0135 104.616 86.2102 104.473 86.4369 104.38C86.6635 104.28 86.9002 104.23 87.1469 104.23C87.2469 104.23 87.3335 104.233 87.4069 104.24C87.4869 104.246 87.5602 104.263 87.6269 104.29L87.6169 105.01C87.5169 104.976 87.4235 104.956 87.3369 104.95C87.2569 104.936 87.1635 104.93 87.0569 104.93C86.7635 104.93 86.5069 105 86.2869 105.14C86.0735 105.28 85.9102 105.46 85.7969 105.68C85.6902 105.9 85.6369 106.133 85.6369 106.38V109.34H84.8169ZM91.0571 109.34V105.53C91.0571 105.33 91.0504 105.126 91.0371 104.92C91.0304 104.713 91.0171 104.513 90.9971 104.32H91.7771L91.8771 105.54L91.7371 105.55C91.8038 105.25 91.9204 105.003 92.0871 104.81C92.2538 104.616 92.4504 104.473 92.6771 104.38C92.9038 104.28 93.1404 104.23 93.3871 104.23C93.4871 104.23 93.5738 104.233 93.6471 104.24C93.7271 104.246 93.8004 104.263 93.8671 104.29L93.8571 105.01C93.7571 104.976 93.6638 104.956 93.5771 104.95C93.4971 104.936 93.4038 104.93 93.2971 104.93C93.0038 104.93 92.7471 105 92.5271 105.14C92.3138 105.28 92.1504 105.46 92.0371 105.68C91.9304 105.9 91.8771 106.133 91.8771 106.38V109.34H91.0571ZM96.8813 109.43C96.0947 109.43 95.4747 109.203 95.0213 108.75C94.568 108.29 94.3413 107.653 94.3413 106.84C94.3413 106.313 94.4413 105.856 94.6413 105.47C94.8413 105.076 95.1213 104.773 95.4813 104.56C95.8413 104.34 96.2547 104.23 96.7213 104.23C97.1813 104.23 97.568 104.326 97.8813 104.52C98.1947 104.713 98.4347 104.99 98.6013 105.35C98.768 105.703 98.8513 106.123 98.8513 106.61V106.91H94.9613V106.4H98.3213L98.1513 106.53C98.1513 105.996 98.0313 105.58 97.7913 105.28C97.5513 104.98 97.1947 104.83 96.7213 104.83C96.2213 104.83 95.8313 105.006 95.5513 105.36C95.2713 105.706 95.1313 106.176 95.1313 106.77V106.86C95.1313 107.486 95.2847 107.963 95.5913 108.29C95.9047 108.61 96.3413 108.77 96.9013 108.77C97.2013 108.77 97.4813 108.726 97.7413 108.64C98.008 108.546 98.2613 108.396 98.5013 108.19L98.7813 108.76C98.5613 108.973 98.2813 109.14 97.9413 109.26C97.608 109.373 97.2547 109.43 96.8813 109.43ZM102.301 111.57C101.867 111.57 101.467 111.516 101.101 111.41C100.734 111.303 100.404 111.14 100.111 110.92L100.351 110.31C100.557 110.456 100.761 110.573 100.961 110.66C101.161 110.746 101.367 110.81 101.581 110.85C101.794 110.896 102.021 110.92 102.261 110.92C102.754 110.92 103.127 110.79 103.381 110.53C103.634 110.27 103.761 109.9 103.761 109.42V107.95H103.861C103.754 108.343 103.534 108.656 103.201 108.89C102.867 109.116 102.477 109.23 102.031 109.23C101.571 109.23 101.171 109.13 100.831 108.93C100.497 108.723 100.237 108.433 100.051 108.06C99.8708 107.68 99.7808 107.233 99.7808 106.72C99.7808 106.213 99.8708 105.773 100.051 105.4C100.237 105.026 100.497 104.74 100.831 104.54C101.171 104.333 101.571 104.23 102.031 104.23C102.484 104.23 102.874 104.343 103.201 104.57C103.534 104.796 103.754 105.11 103.861 105.51L103.761 105.41L103.851 104.32H104.641C104.614 104.513 104.594 104.71 104.581 104.91C104.567 105.103 104.561 105.293 104.561 105.48V109.31C104.561 110.056 104.367 110.62 103.981 111C103.601 111.38 103.041 111.57 102.301 111.57ZM102.181 108.57C102.667 108.57 103.051 108.41 103.331 108.09C103.611 107.763 103.751 107.306 103.751 106.72C103.751 106.133 103.611 105.68 103.331 105.36C103.051 105.04 102.667 104.88 102.181 104.88C101.701 104.88 101.317 105.04 101.031 105.36C100.744 105.68 100.601 106.133 100.601 106.72C100.601 107.306 100.744 107.763 101.031 108.09C101.317 108.41 101.701 108.57 102.181 108.57ZM106.116 109.34V104.32H106.926V109.34H106.116ZM106.016 103.18V102.27H107.016V103.18H106.016ZM110.169 109.43C109.769 109.43 109.396 109.376 109.049 109.27C108.702 109.156 108.416 109 108.189 108.8L108.469 108.23C108.716 108.423 108.982 108.566 109.269 108.66C109.562 108.753 109.866 108.8 110.179 108.8C110.579 108.8 110.879 108.73 111.079 108.59C111.286 108.443 111.389 108.243 111.389 107.99C111.389 107.796 111.322 107.643 111.189 107.53C111.062 107.41 110.852 107.316 110.559 107.25L109.629 107.06C109.202 106.966 108.882 106.81 108.669 106.59C108.456 106.363 108.349 106.076 108.349 105.73C108.349 105.436 108.426 105.18 108.579 104.96C108.732 104.733 108.956 104.556 109.249 104.43C109.542 104.296 109.886 104.23 110.279 104.23C110.646 104.23 110.982 104.286 111.289 104.4C111.602 104.506 111.862 104.663 112.069 104.87L111.779 105.43C111.579 105.236 111.349 105.093 111.089 105C110.836 104.9 110.572 104.85 110.299 104.85C109.906 104.85 109.609 104.93 109.409 105.09C109.216 105.243 109.119 105.446 109.119 105.7C109.119 105.893 109.179 106.053 109.299 106.18C109.426 106.3 109.619 106.39 109.879 106.45L110.809 106.64C111.262 106.74 111.599 106.896 111.819 107.11C112.046 107.316 112.159 107.596 112.159 107.95C112.159 108.25 112.076 108.513 111.909 108.74C111.742 108.96 111.509 109.13 111.209 109.25C110.916 109.37 110.569 109.43 110.169 109.43ZM115.191 109.43C114.698 109.43 114.321 109.29 114.061 109.01C113.801 108.723 113.671 108.293 113.671 107.72V104.95H112.691V104.32H113.671V102.95L114.481 102.72V104.32H115.921V104.95H114.481V107.63C114.481 108.03 114.548 108.316 114.681 108.49C114.821 108.656 115.028 108.74 115.301 108.74C115.428 108.74 115.541 108.73 115.641 108.71C115.741 108.683 115.831 108.653 115.911 108.62V109.3C115.818 109.34 115.704 109.37 115.571 109.39C115.444 109.416 115.318 109.43 115.191 109.43ZM119.088 109.43C118.302 109.43 117.682 109.203 117.228 108.75C116.775 108.29 116.548 107.653 116.548 106.84C116.548 106.313 116.648 105.856 116.848 105.47C117.048 105.076 117.328 104.773 117.688 104.56C118.048 104.34 118.462 104.23 118.928 104.23C119.388 104.23 119.775 104.326 120.088 104.52C120.402 104.713 120.642 104.99 120.808 105.35C120.975 105.703 121.058 106.123 121.058 106.61V106.91H117.168V106.4H120.528L120.358 106.53C120.358 105.996 120.238 105.58 119.998 105.28C119.758 104.98 119.402 104.83 118.928 104.83C118.428 104.83 118.038 105.006 117.758 105.36C117.478 105.706 117.338 106.176 117.338 106.77V106.86C117.338 107.486 117.492 107.963 117.798 108.29C118.112 108.61 118.548 108.77 119.108 108.77C119.408 108.77 119.688 108.726 119.948 108.64C120.215 108.546 120.468 108.396 120.708 108.19L120.988 108.76C120.768 108.973 120.488 109.14 120.148 109.26C119.815 109.373 119.462 109.43 119.088 109.43ZM122.278 109.34V105.53C122.278 105.33 122.271 105.126 122.258 104.92C122.251 104.713 122.238 104.513 122.218 104.32H122.998L123.098 105.54L122.958 105.55C123.024 105.25 123.141 105.003 123.308 104.81C123.474 104.616 123.671 104.473 123.898 104.38C124.124 104.28 124.361 104.23 124.608 104.23C124.708 104.23 124.794 104.233 124.868 104.24C124.948 104.246 125.021 104.263 125.088 104.29L125.078 105.01C124.978 104.976 124.884 104.956 124.798 104.95C124.718 104.936 124.624 104.93 124.518 104.93C124.224 104.93 123.968 105 123.748 105.14C123.534 105.28 123.371 105.46 123.258 105.68C123.151 105.9 123.098 106.133 123.098 106.38V109.34H122.278ZM125.931 109.34V104.32H126.741V109.34H125.931ZM125.831 103.18V102.27H126.831V103.18H125.831ZM128.313 109.34V105.48C128.313 105.293 128.303 105.103 128.283 104.91C128.27 104.71 128.253 104.513 128.233 104.32H129.013L129.113 105.42H128.993C129.14 105.033 129.373 104.74 129.693 104.54C130.02 104.333 130.397 104.23 130.823 104.23C131.417 104.23 131.863 104.39 132.163 104.71C132.47 105.023 132.623 105.52 132.623 106.2V109.34H131.813V106.25C131.813 105.776 131.717 105.433 131.523 105.22C131.337 105 131.043 104.89 130.643 104.89C130.177 104.89 129.807 105.033 129.533 105.32C129.26 105.606 129.123 105.99 129.123 106.47V109.34H128.313ZM136.383 111.57C135.949 111.57 135.549 111.516 135.183 111.41C134.816 111.303 134.486 111.14 134.193 110.92L134.433 110.31C134.639 110.456 134.843 110.573 135.043 110.66C135.243 110.746 135.449 110.81 135.663 110.85C135.876 110.896 136.103 110.92 136.343 110.92C136.836 110.92 137.209 110.79 137.463 110.53C137.716 110.27 137.843 109.9 137.843 109.42V107.95H137.943C137.836 108.343 137.616 108.656 137.283 108.89C136.949 109.116 136.559 109.23 136.113 109.23C135.653 109.23 135.253 109.13 134.913 108.93C134.579 108.723 134.319 108.433 134.133 108.06C133.953 107.68 133.863 107.233 133.863 106.72C133.863 106.213 133.953 105.773 134.133 105.4C134.319 105.026 134.579 104.74 134.913 104.54C135.253 104.333 135.653 104.23 136.113 104.23C136.566 104.23 136.956 104.343 137.283 104.57C137.616 104.796 137.836 105.11 137.943 105.51L137.843 105.41L137.933 104.32H138.723C138.696 104.513 138.676 104.71 138.663 104.91C138.649 105.103 138.643 105.293 138.643 105.48V109.31C138.643 110.056 138.449 110.62 138.063 111C137.683 111.38 137.123 111.57 136.383 111.57ZM136.263 108.57C136.749 108.57 137.133 108.41 137.413 108.09C137.693 107.763 137.833 107.306 137.833 106.72C137.833 106.133 137.693 105.68 137.413 105.36C137.133 105.04 136.749 104.88 136.263 104.88C135.783 104.88 135.399 105.04 135.113 105.36C134.826 105.68 134.683 106.133 134.683 106.72C134.683 107.306 134.826 107.763 135.113 108.09C135.399 108.41 135.783 108.57 136.263 108.57ZM142.806 109.34V104.32H143.616V109.34H142.806ZM142.706 103.18V102.27H143.706V103.18H142.706ZM145.188 109.34V105.48C145.188 105.293 145.178 105.103 145.158 104.91C145.145 104.71 145.128 104.513 145.108 104.32H145.888L145.988 105.42H145.868C146.015 105.033 146.248 104.74 146.568 104.54C146.895 104.333 147.272 104.23 147.698 104.23C148.292 104.23 148.738 104.39 149.038 104.71C149.345 105.023 149.498 105.52 149.498 106.2V109.34H148.688V106.25C148.688 105.776 148.592 105.433 148.398 105.22C148.212 105 147.918 104.89 147.518 104.89C147.052 104.89 146.682 105.033 146.408 105.32C146.135 105.606 145.998 105.99 145.998 106.47V109.34H145.188ZM52.3936 124.57C51.9602 124.57 51.5602 124.516 51.1936 124.41C50.8269 124.303 50.4969 124.14 50.2036 123.92L50.4436 123.31C50.6502 123.456 50.8536 123.573 51.0536 123.66C51.2536 123.746 51.4602 123.81 51.6736 123.85C51.8869 123.896 52.1136 123.92 52.3536 123.92C52.8469 123.92 53.2202 123.79 53.4736 123.53C53.7269 123.27 53.8536 122.9 53.8536 122.42V120.95H53.9536C53.8469 121.343 53.6269 121.656 53.2936 121.89C52.9602 122.116 52.5702 122.23 52.1236 122.23C51.6636 122.23 51.2636 122.13 50.9236 121.93C50.5902 121.723 50.3302 121.433 50.1436 121.06C49.9636 120.68 49.8736 120.233 49.8736 119.72C49.8736 119.213 49.9636 118.773 50.1436 118.4C50.3302 118.026 50.5902 117.74 50.9236 117.54C51.2636 117.333 51.6636 117.23 52.1236 117.23C52.5769 117.23 52.9669 117.343 53.2936 117.57C53.6269 117.796 53.8469 118.11 53.9536 118.51L53.8536 118.41L53.9436 117.32H54.7336C54.7069 117.513 54.6869 117.71 54.6736 117.91C54.6602 118.103 54.6536 118.293 54.6536 118.48V122.31C54.6536 123.056 54.4602 123.62 54.0736 124C53.6936 124.38 53.1336 124.57 52.3936 124.57ZM52.2736 121.57C52.7602 121.57 53.1436 121.41 53.4236 121.09C53.7036 120.763 53.8436 120.306 53.8436 119.72C53.8436 119.133 53.7036 118.68 53.4236 118.36C53.1436 118.04 52.7602 117.88 52.2736 117.88C51.7936 117.88 51.4102 118.04 51.1236 118.36C50.8369 118.68 50.6936 119.133 50.6936 119.72C50.6936 120.306 50.8369 120.763 51.1236 121.09C51.4102 121.41 51.7936 121.57 52.2736 121.57ZM56.1889 122.34V118.53C56.1889 118.33 56.1823 118.126 56.1689 117.92C56.1623 117.713 56.1489 117.513 56.1289 117.32H56.9089L57.0089 118.54L56.8689 118.55C56.9356 118.25 57.0523 118.003 57.2189 117.81C57.3856 117.616 57.5823 117.473 57.8089 117.38C58.0356 117.28 58.2723 117.23 58.5189 117.23C58.6189 117.23 58.7056 117.233 58.7789 117.24C58.8589 117.246 58.9323 117.263 58.9989 117.29L58.9889 118.01C58.8889 117.976 58.7956 117.956 58.7089 117.95C58.6289 117.936 58.5356 117.93 58.4289 117.93C58.1356 117.93 57.8789 118 57.6589 118.14C57.4456 118.28 57.2823 118.46 57.1689 118.68C57.0623 118.9 57.0089 119.133 57.0089 119.38V122.34H56.1889ZM61.8432 122.43C61.3632 122.43 60.9432 122.326 60.5832 122.12C60.2298 121.906 59.9565 121.606 59.7632 121.22C59.5698 120.826 59.4732 120.363 59.4732 119.83C59.4732 119.29 59.5698 118.826 59.7632 118.44C59.9565 118.053 60.2298 117.756 60.5832 117.55C60.9432 117.336 61.3632 117.23 61.8432 117.23C62.3298 117.23 62.7498 117.336 63.1032 117.55C63.4632 117.756 63.7398 118.053 63.9332 118.44C64.1332 118.826 64.2332 119.29 64.2332 119.83C64.2332 120.363 64.1332 120.826 63.9332 121.22C63.7398 121.606 63.4632 121.906 63.1032 122.12C62.7498 122.326 62.3298 122.43 61.8432 122.43ZM61.8432 121.77C62.3232 121.77 62.7032 121.606 62.9832 121.28C63.2632 120.946 63.4032 120.463 63.4032 119.83C63.4032 119.19 63.2598 118.706 62.9732 118.38C62.6932 118.046 62.3165 117.88 61.8432 117.88C61.3698 117.88 60.9932 118.046 60.7132 118.38C60.4332 118.706 60.2932 119.19 60.2932 119.83C60.2932 120.463 60.4332 120.946 60.7132 121.28C60.9932 121.606 61.3698 121.77 61.8432 121.77ZM67.2661 122.43C66.6727 122.43 66.2227 122.266 65.9161 121.94C65.6161 121.613 65.4661 121.113 65.4661 120.44V117.32H66.2761V120.42C66.2761 120.88 66.3694 121.22 66.5561 121.44C66.7427 121.653 67.0327 121.76 67.4261 121.76C67.8661 121.76 68.2194 121.616 68.4861 121.33C68.7527 121.043 68.8861 120.66 68.8861 120.18V117.32H69.6961V122.34H68.9061V121.21H69.0361C68.8961 121.596 68.6694 121.896 68.3561 122.11C68.0494 122.323 67.6861 122.43 67.2661 122.43ZM71.2675 124.5V118.48C71.2675 118.293 71.2575 118.103 71.2375 117.91C71.2242 117.71 71.2075 117.513 71.1875 117.32H71.9675L72.0775 118.51H71.9575C72.0642 118.116 72.2809 117.806 72.6075 117.58C72.9342 117.346 73.3242 117.23 73.7775 117.23C74.2309 117.23 74.6209 117.333 74.9475 117.54C75.2809 117.746 75.5409 118.043 75.7275 118.43C75.9142 118.816 76.0075 119.283 76.0075 119.83C76.0075 120.37 75.9142 120.833 75.7275 121.22C75.5475 121.606 75.2909 121.906 74.9575 122.12C74.6242 122.326 74.2309 122.43 73.7775 122.43C73.3309 122.43 72.9442 122.316 72.6175 122.09C72.2909 121.863 72.0742 121.553 71.9675 121.16H72.0775V124.5H71.2675ZM73.6175 121.77C74.0975 121.77 74.4775 121.606 74.7575 121.28C75.0442 120.946 75.1875 120.463 75.1875 119.83C75.1875 119.19 75.0442 118.706 74.7575 118.38C74.4775 118.046 74.0975 117.88 73.6175 117.88C73.1442 117.88 72.7642 118.046 72.4775 118.38C72.1975 118.706 72.0575 119.19 72.0575 119.83C72.0575 120.463 72.1975 120.946 72.4775 121.28C72.7642 121.606 73.1442 121.77 73.6175 121.77ZM81.9311 122.43C81.4511 122.43 81.0311 122.326 80.6711 122.12C80.3177 121.906 80.0444 121.606 79.8511 121.22C79.6577 120.826 79.5611 120.363 79.5611 119.83C79.5611 119.29 79.6577 118.826 79.8511 118.44C80.0444 118.053 80.3177 117.756 80.6711 117.55C81.0311 117.336 81.4511 117.23 81.9311 117.23C82.4177 117.23 82.8377 117.336 83.1911 117.55C83.5511 117.756 83.8277 118.053 84.0211 118.44C84.2211 118.826 84.3211 119.29 84.3211 119.83C84.3211 120.363 84.2211 120.826 84.0211 121.22C83.8277 121.606 83.5511 121.906 83.1911 122.12C82.8377 122.326 82.4177 122.43 81.9311 122.43ZM81.9311 121.77C82.4111 121.77 82.7911 121.606 83.0711 121.28C83.3511 120.946 83.4911 120.463 83.4911 119.83C83.4911 119.19 83.3477 118.706 83.0611 118.38C82.7811 118.046 82.4044 117.88 81.9311 117.88C81.4577 117.88 81.0811 118.046 80.8011 118.38C80.5211 118.706 80.3811 119.19 80.3811 119.83C80.3811 120.463 80.5211 120.946 80.8011 121.28C81.0811 121.606 81.4577 121.77 81.9311 121.77ZM85.7951 122.34V117.95H84.8151V117.32H86.0151L85.7951 117.53V116.69C85.7951 116.123 85.9385 115.69 86.2251 115.39C86.5118 115.09 86.9218 114.94 87.4551 114.94C87.5885 114.94 87.7251 114.953 87.8651 114.98C88.0118 115 88.1318 115.03 88.2251 115.07V115.74C88.1451 115.706 88.0451 115.68 87.9251 115.66C87.8118 115.633 87.6951 115.62 87.5751 115.62C87.3685 115.62 87.1918 115.663 87.0451 115.75C86.8985 115.83 86.7885 115.953 86.7151 116.12C86.6418 116.286 86.6051 116.5 86.6051 116.76V117.49L86.4751 117.32H88.0051V117.95H86.6051V122.34H85.7951ZM93.3014 122.43C92.8081 122.43 92.4314 122.29 92.1714 122.01C91.9114 121.723 91.7814 121.293 91.7814 120.72V117.95H90.8014V117.32H91.7814V115.95L92.5914 115.72V117.32H94.0314V117.95H92.5914V120.63C92.5914 121.03 92.6581 121.316 92.7914 121.49C92.9314 121.656 93.1381 121.74 93.4114 121.74C93.5381 121.74 93.6514 121.73 93.7514 121.71C93.8514 121.683 93.9414 121.653 94.0214 121.62V122.3C93.9281 122.34 93.8148 122.37 93.6814 122.39C93.5548 122.416 93.4281 122.43 93.3014 122.43ZM95.0175 122.34V114.98H95.8275V118.43H95.6975C95.8375 118.036 96.0709 117.74 96.3975 117.54C96.7309 117.333 97.1142 117.23 97.5475 117.23C98.1475 117.23 98.5942 117.393 98.8875 117.72C99.1809 118.04 99.3275 118.526 99.3275 119.18V122.34H98.5175V119.23C98.5175 118.763 98.4242 118.423 98.2375 118.21C98.0575 117.996 97.7642 117.89 97.3575 117.89C96.8909 117.89 96.5175 118.033 96.2375 118.32C95.9642 118.606 95.8275 118.983 95.8275 119.45V122.34H95.0175ZM100.857 122.34V118.53C100.857 118.33 100.85 118.126 100.837 117.92C100.83 117.713 100.817 117.513 100.797 117.32H101.577L101.677 118.54L101.537 118.55C101.604 118.25 101.72 118.003 101.887 117.81C102.054 117.616 102.25 117.473 102.477 117.38C102.704 117.28 102.94 117.23 103.187 117.23C103.287 117.23 103.374 117.233 103.447 117.24C103.527 117.246 103.6 117.263 103.667 117.29L103.657 118.01C103.557 117.976 103.464 117.956 103.377 117.95C103.297 117.936 103.204 117.93 103.097 117.93C102.804 117.93 102.547 118 102.327 118.14C102.114 118.28 101.95 118.46 101.837 118.68C101.73 118.9 101.677 119.133 101.677 119.38V122.34H100.857ZM106.681 122.43C105.894 122.43 105.274 122.203 104.821 121.75C104.368 121.29 104.141 120.653 104.141 119.84C104.141 119.313 104.241 118.856 104.441 118.47C104.641 118.076 104.921 117.773 105.281 117.56C105.641 117.34 106.054 117.23 106.521 117.23C106.981 117.23 107.368 117.326 107.681 117.52C107.994 117.713 108.234 117.99 108.401 118.35C108.568 118.703 108.651 119.123 108.651 119.61V119.91H104.761V119.4H108.121L107.951 119.53C107.951 118.996 107.831 118.58 107.591 118.28C107.351 117.98 106.994 117.83 106.521 117.83C106.021 117.83 105.631 118.006 105.351 118.36C105.071 118.706 104.931 119.176 104.931 119.77V119.86C104.931 120.486 105.084 120.963 105.391 121.29C105.704 121.61 106.141 121.77 106.701 121.77C107.001 121.77 107.281 121.726 107.541 121.64C107.808 121.546 108.061 121.396 108.301 121.19L108.581 121.76C108.361 121.973 108.081 122.14 107.741 122.26C107.408 122.373 107.054 122.43 106.681 122.43ZM112.121 122.43C111.334 122.43 110.714 122.203 110.261 121.75C109.807 121.29 109.581 120.653 109.581 119.84C109.581 119.313 109.681 118.856 109.881 118.47C110.081 118.076 110.361 117.773 110.721 117.56C111.081 117.34 111.494 117.23 111.961 117.23C112.421 117.23 112.807 117.326 113.121 117.52C113.434 117.713 113.674 117.99 113.841 118.35C114.007 118.703 114.091 119.123 114.091 119.61V119.91H110.201V119.4H113.561L113.391 119.53C113.391 118.996 113.271 118.58 113.031 118.28C112.791 117.98 112.434 117.83 111.961 117.83C111.461 117.83 111.071 118.006 110.791 118.36C110.511 118.706 110.371 119.176 110.371 119.77V119.86C110.371 120.486 110.524 120.963 110.831 121.29C111.144 121.61 111.581 121.77 112.141 121.77C112.441 121.77 112.721 121.726 112.981 121.64C113.247 121.546 113.501 121.396 113.741 121.19L114.021 121.76C113.801 121.973 113.521 122.14 113.181 122.26C112.847 122.373 112.494 122.43 112.121 122.43ZM119.997 122.43C119.517 122.43 119.097 122.326 118.737 122.12C118.384 121.906 118.111 121.606 117.917 121.22C117.724 120.826 117.627 120.363 117.627 119.83C117.627 119.29 117.724 118.826 117.917 118.44C118.111 118.053 118.384 117.756 118.737 117.55C119.097 117.336 119.517 117.23 119.997 117.23C120.484 117.23 120.904 117.336 121.257 117.55C121.617 117.756 121.894 118.053 122.087 118.44C122.287 118.826 122.387 119.29 122.387 119.83C122.387 120.363 122.287 120.826 122.087 121.22C121.894 121.606 121.617 121.906 121.257 122.12C120.904 122.326 120.484 122.43 119.997 122.43ZM119.997 121.77C120.477 121.77 120.857 121.606 121.137 121.28C121.417 120.946 121.557 120.463 121.557 119.83C121.557 119.19 121.414 118.706 121.127 118.38C120.847 118.046 120.471 117.88 119.997 117.88C119.524 117.88 119.147 118.046 118.867 118.38C118.587 118.706 118.447 119.19 118.447 119.83C118.447 120.463 118.587 120.946 118.867 121.28C119.147 121.606 119.524 121.77 119.997 121.77ZM123.63 122.34V118.53C123.63 118.33 123.624 118.126 123.61 117.92C123.604 117.713 123.59 117.513 123.57 117.32H124.35L124.45 118.54L124.31 118.55C124.377 118.25 124.494 118.003 124.66 117.81C124.827 117.616 125.024 117.473 125.25 117.38C125.477 117.28 125.714 117.23 125.96 117.23C126.06 117.23 126.147 117.233 126.22 117.24C126.3 117.246 126.374 117.263 126.44 117.29L126.43 118.01C126.33 117.976 126.237 117.956 126.15 117.95C126.07 117.936 125.977 117.93 125.87 117.93C125.577 117.93 125.32 118 125.1 118.14C124.887 118.28 124.724 118.46 124.61 118.68C124.504 118.9 124.45 119.133 124.45 119.38V122.34H123.63ZM129.891 122.34V118.48C129.891 118.293 129.881 118.103 129.861 117.91C129.847 117.71 129.831 117.513 129.811 117.32H130.591L130.691 118.42H130.571C130.704 118.04 130.914 117.746 131.201 117.54C131.494 117.333 131.847 117.23 132.261 117.23C132.681 117.23 133.021 117.33 133.281 117.53C133.547 117.73 133.727 118.04 133.821 118.46H133.671C133.797 118.08 134.021 117.78 134.341 117.56C134.661 117.34 135.034 117.23 135.461 117.23C136.014 117.23 136.431 117.39 136.711 117.71C136.991 118.023 137.131 118.52 137.131 119.2V122.34H136.321V119.25C136.321 118.776 136.237 118.433 136.071 118.22C135.904 118 135.637 117.89 135.271 117.89C134.851 117.89 134.517 118.036 134.271 118.33C134.031 118.616 133.911 119.003 133.911 119.49V122.34H133.101V119.25C133.101 118.776 133.017 118.433 132.851 118.22C132.684 118 132.417 117.89 132.051 117.89C131.631 117.89 131.301 118.036 131.061 118.33C130.821 118.616 130.701 119.003 130.701 119.49V122.34H129.891ZM140.73 122.43C140.25 122.43 139.83 122.326 139.47 122.12C139.117 121.906 138.843 121.606 138.65 121.22C138.457 120.826 138.36 120.363 138.36 119.83C138.36 119.29 138.457 118.826 138.65 118.44C138.843 118.053 139.117 117.756 139.47 117.55C139.83 117.336 140.25 117.23 140.73 117.23C141.217 117.23 141.637 117.336 141.99 117.55C142.35 117.756 142.627 118.053 142.82 118.44C143.02 118.826 143.12 119.29 143.12 119.83C143.12 120.363 143.02 120.826 142.82 121.22C142.627 121.606 142.35 121.906 141.99 122.12C141.637 122.326 141.217 122.43 140.73 122.43ZM140.73 121.77C141.21 121.77 141.59 121.606 141.87 121.28C142.15 120.946 142.29 120.463 142.29 119.83C142.29 119.19 142.147 118.706 141.86 118.38C141.58 118.046 141.203 117.88 140.73 117.88C140.257 117.88 139.88 118.046 139.6 118.38C139.32 118.706 139.18 119.19 139.18 119.83C139.18 120.463 139.32 120.946 139.6 121.28C139.88 121.606 140.257 121.77 140.73 121.77ZM144.363 122.34V118.53C144.363 118.33 144.356 118.126 144.343 117.92C144.336 117.713 144.323 117.513 144.303 117.32H145.083L145.183 118.54L145.043 118.55C145.109 118.25 145.226 118.003 145.393 117.81C145.559 117.616 145.756 117.473 145.983 117.38C146.209 117.28 146.446 117.23 146.693 117.23C146.793 117.23 146.879 117.233 146.953 117.24C147.033 117.246 147.106 117.263 147.173 117.29L147.163 118.01C147.063 117.976 146.969 117.956 146.883 117.95C146.803 117.936 146.709 117.93 146.603 117.93C146.309 117.93 146.053 118 145.833 118.14C145.619 118.28 145.456 118.46 145.343 118.68C145.236 118.9 145.183 119.133 145.183 119.38V122.34H144.363ZM150.187 122.43C149.4 122.43 148.78 122.203 148.327 121.75C147.874 121.29 147.647 120.653 147.647 119.84C147.647 119.313 147.747 118.856 147.947 118.47C148.147 118.076 148.427 117.773 148.787 117.56C149.147 117.34 149.56 117.23 150.027 117.23C150.487 117.23 150.874 117.326 151.187 117.52C151.5 117.713 151.74 117.99 151.907 118.35C152.074 118.703 152.157 119.123 152.157 119.61V119.91H148.267V119.4H151.627L151.457 119.53C151.457 118.996 151.337 118.58 151.097 118.28C150.857 117.98 150.5 117.83 150.027 117.83C149.527 117.83 149.137 118.006 148.857 118.36C148.577 118.706 148.437 119.176 148.437 119.77V119.86C148.437 120.486 148.59 120.963 148.897 121.29C149.21 121.61 149.647 121.77 150.207 121.77C150.507 121.77 150.787 121.726 151.047 121.64C151.314 121.546 151.567 121.396 151.807 121.19L152.087 121.76C151.867 121.973 151.587 122.14 151.247 122.26C150.914 122.373 150.56 122.43 150.187 122.43Z" fill="#005AAA"/>
<path d="M48.2539 154.34V152.383L53.8086 146.324C54.4102 145.644 54.8828 145.058 55.2266 144.566C55.5703 144.074 55.8125 143.625 55.9531 143.219C56.0938 142.812 56.1641 142.402 56.1641 141.988C56.1641 141.246 55.9453 140.617 55.5078 140.101C55.0703 139.586 54.4375 139.328 53.6094 139.328C52.7344 139.328 52.0625 139.605 51.5938 140.16C51.125 140.707 50.8906 141.472 50.8906 142.457H48.0312L48.0078 142.387C47.9844 141.379 48.1992 140.472 48.6523 139.668C49.1055 138.855 49.7578 138.215 50.6094 137.746C51.4688 137.269 52.4883 137.031 53.668 137.031C54.8008 137.031 55.7734 137.238 56.5859 137.652C57.3984 138.066 58.0234 138.64 58.4609 139.375C58.9062 140.109 59.1289 140.957 59.1289 141.918C59.1289 142.566 59.0039 143.195 58.7539 143.804C58.5117 144.414 58.1406 145.047 57.6406 145.703C57.1484 146.359 56.5273 147.09 55.7773 147.894L51.9688 152.008L51.9922 152.066H57.1016L57.2773 150.297H59.6328V154.34H48.2539ZM62.1289 154.34V151.609H65.0703V154.34H62.1289ZM72.582 154.34V152.535L74.4453 152.183V150.32H67.1914L67.0859 148.808L74.3633 137.277H77.3867V148.246H79.4961V150.32H77.3867V152.183L79.2383 152.535V154.34H72.582ZM69.9805 148.246H74.4453V141.297L74.375 141.273L74.1172 141.824L69.9805 148.246ZM87.125 154.586C85.3828 154.586 84.0039 154.004 82.9883 152.84C81.9805 151.668 81.4766 149.972 81.4766 147.754V143.875C81.4766 141.656 81.9805 139.961 82.9883 138.789C83.9961 137.617 85.3672 137.031 87.1016 137.031C88.8281 137.031 90.1992 137.617 91.2148 138.789C92.2305 139.961 92.7383 141.656 92.7383 143.875V147.754C92.7383 149.98 92.2344 151.676 91.2266 152.84C90.2188 154.004 88.8516 154.586 87.125 154.586ZM87.125 152.312C87.9922 152.312 88.6523 151.972 89.1055 151.293C89.5586 150.613 89.7852 149.562 89.7852 148.14V143.465C89.7852 142.058 89.5547 141.015 89.0938 140.336C88.6328 139.656 87.9688 139.316 87.1016 139.316C86.2266 139.316 85.5586 139.656 85.0977 140.336C84.6445 141.008 84.418 142.051 84.418 143.465V148.14C84.418 149.562 84.6484 150.613 85.1094 151.293C85.5703 151.972 86.2422 152.312 87.125 152.312ZM100.836 154.586C99.0938 154.586 97.7148 154.004 96.6992 152.84C95.6914 151.668 95.1875 149.972 95.1875 147.754V143.875C95.1875 141.656 95.6914 139.961 96.6992 138.789C97.707 137.617 99.0781 137.031 100.812 137.031C102.539 137.031 103.91 137.617 104.926 138.789C105.941 139.961 106.449 141.656 106.449 143.875V147.754C106.449 149.98 105.945 151.676 104.938 152.84C103.93 154.004 102.562 154.586 100.836 154.586ZM100.836 152.312C101.703 152.312 102.363 151.972 102.816 151.293C103.27 150.613 103.496 149.562 103.496 148.14V143.465C103.496 142.058 103.266 141.015 102.805 140.336C102.344 139.656 101.68 139.316 100.812 139.316C99.9375 139.316 99.2695 139.656 98.8086 140.336C98.3555 141.008 98.1289 142.051 98.1289 143.465V148.14C98.1289 149.562 98.3594 150.613 98.8203 151.293C99.2812 151.972 99.9531 152.312 100.836 152.312ZM109.238 154.34V151.609H112.18V154.34H109.238ZM120.523 154.586C118.781 154.586 117.402 154.004 116.387 152.84C115.379 151.668 114.875 149.972 114.875 147.754V143.875C114.875 141.656 115.379 139.961 116.387 138.789C117.395 137.617 118.766 137.031 120.5 137.031C122.227 137.031 123.598 137.617 124.613 138.789C125.629 139.961 126.137 141.656 126.137 143.875V147.754C126.137 149.98 125.633 151.676 124.625 152.84C123.617 154.004 122.25 154.586 120.523 154.586ZM120.523 152.312C121.391 152.312 122.051 151.972 122.504 151.293C122.957 150.613 123.184 149.562 123.184 148.14V143.465C123.184 142.058 122.953 141.015 122.492 140.336C122.031 139.656 121.367 139.316 120.5 139.316C119.625 139.316 118.957 139.656 118.496 140.336C118.043 141.008 117.816 142.051 117.816 143.465V148.14C117.816 149.562 118.047 150.613 118.508 151.293C118.969 151.972 119.641 152.312 120.523 152.312ZM134.234 154.586C132.492 154.586 131.113 154.004 130.098 152.84C129.09 151.668 128.586 149.972 128.586 147.754V143.875C128.586 141.656 129.09 139.961 130.098 138.789C131.105 137.617 132.477 137.031 134.211 137.031C135.938 137.031 137.309 137.617 138.324 138.789C139.34 139.961 139.848 141.656 139.848 143.875V147.754C139.848 149.98 139.344 151.676 138.336 152.84C137.328 154.004 135.961 154.586 134.234 154.586ZM134.234 152.312C135.102 152.312 135.762 151.972 136.215 151.293C136.668 150.613 136.895 149.562 136.895 148.14V143.465C136.895 142.058 136.664 141.015 136.203 140.336C135.742 139.656 135.078 139.316 134.211 139.316C133.336 139.316 132.668 139.656 132.207 140.336C131.754 141.008 131.527 142.051 131.527 143.465V148.14C131.527 149.562 131.758 150.613 132.219 151.293C132.68 151.972 133.352 152.312 134.234 152.312ZM147.945 154.586C146.203 154.586 144.824 154.004 143.809 152.84C142.801 151.668 142.297 149.972 142.297 147.754V143.875C142.297 141.656 142.801 139.961 143.809 138.789C144.816 137.617 146.188 137.031 147.922 137.031C149.648 137.031 151.02 137.617 152.035 138.789C153.051 139.961 153.559 141.656 153.559 143.875V147.754C153.559 149.98 153.055 151.676 152.047 152.84C151.039 154.004 149.672 154.586 147.945 154.586ZM147.945 152.312C148.812 152.312 149.473 151.972 149.926 151.293C150.379 150.613 150.605 149.562 150.605 148.14V143.465C150.605 142.058 150.375 141.015 149.914 140.336C149.453 139.656 148.789 139.316 147.922 139.316C147.047 139.316 146.379 139.656 145.918 140.336C145.465 141.008 145.238 142.051 145.238 143.465V148.14C145.238 149.562 145.469 150.613 145.93 151.293C146.391 151.972 147.062 152.312 147.945 152.312Z" fill="#005AAA"/>
<path d="M107.079 170.792L104.623 165.152H105.335L107.519 170.264H107.271L109.471 165.152H110.159L107.687 170.792H107.079ZM110.889 170.792V165.152H111.409L115.025 169.952H114.841V165.152H115.457V170.792H114.945L111.329 165.992H111.505V170.792H110.889ZM116.865 170.792V165.152H118.737C119.361 165.152 119.889 165.262 120.321 165.48C120.753 165.694 121.081 166.011 121.305 166.432C121.529 166.848 121.641 167.36 121.641 167.968C121.641 168.571 121.529 169.083 121.305 169.504C121.081 169.926 120.753 170.246 120.321 170.464C119.889 170.683 119.361 170.792 118.737 170.792H116.865ZM117.529 170.224H118.689C119.457 170.224 120.028 170.038 120.401 169.664C120.775 169.286 120.961 168.72 120.961 167.968C120.961 167.211 120.775 166.646 120.401 166.272C120.028 165.899 119.457 165.712 118.689 165.712H117.529V170.224ZM116.177 168.184V167.672H119.113V168.184H116.177ZM122.436 171.232H121.876L123.972 164.808H124.532L122.436 171.232ZM128.507 170.792V165.712H126.515V165.152H131.155V165.712H129.171V170.792H128.507ZM131.967 170.792V165.152H132.631V170.792H131.967ZM136.493 170.864C135.928 170.864 135.448 170.747 135.053 170.512C134.659 170.278 134.355 169.944 134.141 169.512C133.933 169.08 133.829 168.566 133.829 167.968C133.829 167.371 133.933 166.859 134.141 166.432C134.355 166 134.659 165.667 135.053 165.432C135.448 165.198 135.928 165.08 136.493 165.08C136.893 165.08 137.251 165.142 137.565 165.264C137.88 165.387 138.155 165.566 138.389 165.8L138.141 166.328C137.885 166.104 137.632 165.942 137.381 165.84C137.131 165.734 136.837 165.68 136.501 165.68C135.856 165.68 135.365 165.88 135.029 166.28C134.693 166.68 134.525 167.243 134.525 167.968C134.525 168.694 134.693 169.259 135.029 169.664C135.365 170.064 135.856 170.264 136.501 170.264C136.837 170.264 137.131 170.214 137.381 170.112C137.632 170.006 137.885 169.838 138.141 169.608L138.389 170.144C138.155 170.374 137.88 170.552 137.565 170.68C137.251 170.803 136.893 170.864 136.493 170.864ZM139.506 170.792V165.152H140.17V167.712H140.186L142.89 165.152H143.738L140.626 168.064L140.634 167.728L143.962 170.792H143.09L140.186 168.136H140.17V170.792H139.506ZM144.576 170.792V165.152H148.176V165.696H145.224V167.656H148V168.208H145.224V170.24H148.176V170.792H144.576ZM150.546 170.792V165.712H148.554V165.152H153.194V165.712H151.21V170.792H150.546Z" fill="#005AAA"/>
<rect width="154" height="195.973" transform="translate(182 58)" fill="white"/>
<path d="M202.867 82.1641C202.029 82.1641 201.266 82.0703 200.578 81.8828C199.891 81.6953 199.214 81.3698 198.547 80.9062V78.1562H200.312L200.555 79.7734C200.789 79.9714 201.112 80.1328 201.523 80.2578C201.935 80.3776 202.383 80.4375 202.867 80.4375C203.279 80.4375 203.625 80.3802 203.906 80.2656C204.193 80.151 204.409 79.9896 204.555 79.7812C204.706 79.5677 204.781 79.3177 204.781 79.0312C204.781 78.7604 204.714 78.5208 204.578 78.3125C204.448 78.099 204.229 77.9062 203.922 77.7344C203.62 77.5573 203.208 77.388 202.688 77.2266C201.786 76.9609 201.039 76.6719 200.445 76.3594C199.857 76.0417 199.414 75.6641 199.117 75.2266C198.826 74.7839 198.68 74.2526 198.68 73.6328C198.68 73.0182 198.849 72.4766 199.188 72.0078C199.531 71.5339 200.005 71.1615 200.609 70.8906C201.214 70.6198 201.911 70.4792 202.703 70.4688C203.578 70.4583 204.352 70.5625 205.023 70.7812C205.701 71 206.284 71.3047 206.773 71.6953V74.2578H205.062L204.766 72.6953C204.568 72.5703 204.299 72.4609 203.961 72.3672C203.628 72.2734 203.247 72.2266 202.82 72.2266C202.456 72.2266 202.133 72.2812 201.852 72.3906C201.576 72.5 201.357 72.6589 201.195 72.8672C201.034 73.0755 200.953 73.3281 200.953 73.625C200.953 73.8802 201.023 74.1042 201.164 74.2969C201.305 74.4844 201.539 74.6641 201.867 74.8359C202.201 75.0026 202.659 75.1823 203.242 75.375C204.497 75.724 205.448 76.1849 206.094 76.7578C206.745 77.3307 207.07 78.0833 207.07 79.0156C207.07 79.6615 206.896 80.2214 206.547 80.6953C206.198 81.1641 205.708 81.526 205.078 81.7812C204.448 82.0365 203.711 82.1641 202.867 82.1641ZM210.594 82V80.6328L211.812 80.3984V72.3828H209.742L209.617 73.7422H207.891V70.625H218.039V73.7422H216.305L216.18 72.3828H214.094V80.3984L215.32 80.6328V82H210.594ZM217.312 82V80.6328L218.125 80.5156L221.742 70.625H224.078L227.672 80.5156L228.484 80.6328V82H224.609V80.6328L225.398 80.4922L224.898 78.9297H220.898L220.398 80.4922L221.188 80.6328V82H217.312ZM221.438 77.25H224.359L223.031 73.3516L222.922 73.0078H222.875L222.758 73.375L221.438 77.25ZM229.242 82V80.6328L230.453 80.3984V72.2344L229.242 72V70.625H230.453H232.766L237.719 78.5156L237.766 78.5078V72.2344L236.312 72V70.625H239.805H241.023V72L239.805 72.2344V82H237.602L232.539 74.1875L232.492 74.1953V80.3984L233.953 80.6328V82H229.242ZM241.773 82V80.6328L243 80.375V72.2656L241.773 72V70.625H243H246.766C247.781 70.625 248.677 70.8646 249.453 71.3438C250.229 71.8177 250.833 72.4766 251.266 73.3203C251.703 74.1589 251.922 75.1224 251.922 76.2109V76.4219C251.922 77.5 251.706 78.4609 251.273 79.3047C250.846 80.1432 250.247 80.8021 249.477 81.2812C248.706 81.7604 247.812 82 246.797 82H241.773ZM245.281 80.2578H246.68C247.31 80.2578 247.844 80.0938 248.281 79.7656C248.719 79.4323 249.052 78.9766 249.281 78.3984C249.516 77.8203 249.633 77.1615 249.633 76.4219V76.2031C249.633 75.4531 249.516 74.7917 249.281 74.2188C249.052 73.6406 248.719 73.1901 248.281 72.8672C247.844 72.5391 247.31 72.375 246.68 72.375H245.281V80.2578ZM252.328 82V80.6328L253.141 80.5156L256.758 70.625H259.094L262.688 80.5156L263.5 80.6328V82H259.625V80.6328L260.414 80.4922L259.914 78.9297H255.914L255.414 80.4922L256.203 80.6328V82H252.328ZM256.453 77.25H259.375L258.047 73.3516L257.938 73.0078H257.891L257.773 73.375L256.453 77.25ZM264.258 82V80.6328L265.469 80.3984V72.2344L264.258 72V70.625H269.648C270.523 70.625 271.273 70.7604 271.898 71.0312C272.523 71.3021 273.003 71.6901 273.336 72.1953C273.674 72.7005 273.844 73.3073 273.844 74.0156C273.844 74.6823 273.677 75.2786 273.344 75.8047C273.01 76.3307 272.547 76.7448 271.953 77.0469C271.359 77.349 270.674 77.5026 269.898 77.5078H267.75V80.3984L268.969 80.6328V82H264.258ZM271.578 82L269.664 77.0859L271.719 76.5781L273.375 80.4062L274.344 80.6328V82H271.578ZM267.75 75.75H269.609C270.266 75.75 270.755 75.612 271.078 75.3359C271.406 75.0547 271.57 74.6484 271.57 74.1172C271.57 73.5911 271.409 73.1719 271.086 72.8594C270.763 72.5417 270.284 72.3828 269.648 72.3828H267.75V75.75ZM275.258 82V80.6328L276.484 80.375V72.2656L275.258 72V70.625H276.484H280.25C281.266 70.625 282.161 70.8646 282.938 71.3438C283.714 71.8177 284.318 72.4766 284.75 73.3203C285.188 74.1589 285.406 75.1224 285.406 76.2109V76.4219C285.406 77.5 285.19 78.4609 284.758 79.3047C284.331 80.1432 283.732 80.8021 282.961 81.2812C282.19 81.7604 281.297 82 280.281 82H275.258ZM278.766 80.2578H280.164C280.794 80.2578 281.328 80.0938 281.766 79.7656C282.203 79.4323 282.536 78.9766 282.766 78.3984C283 77.8203 283.117 77.1615 283.117 76.4219V76.2031C283.117 75.4531 283 74.7917 282.766 74.2188C282.536 73.6406 282.203 73.1901 281.766 72.8672C281.328 72.5391 280.794 72.375 280.164 72.375H278.766V80.2578ZM290.32 82V80.6328L291.531 80.3984V72.2344L290.32 72V70.625H299.375V73.7422H297.625L297.523 72.3828H293.812V75.5156H297.797V77.2734H293.812V80.3984L295.031 80.6328V82H290.32ZM300.211 82V80.6328L301.422 80.3984V72.2344L300.211 72V70.625H309.039V73.6953H307.289L307.188 72.3828H303.703V75.2422H307.555V77H303.703V80.25H307.375L307.477 78.8906H309.211V82H300.211ZM310.43 82V80.6328L311.641 80.3984V72.2344L310.43 72V70.625H319.258V73.6953H317.508L317.406 72.3828H313.922V75.2422H317.773V77H313.922V80.25H317.594L317.695 78.8906H319.43V82H310.43Z" fill="#FF6600"/>
<path d="M211.762 154.246C210.691 154.246 209.727 154.055 208.867 153.672C208.016 153.289 207.344 152.742 206.852 152.031C206.359 151.312 206.125 150.449 206.148 149.441L206.172 149.371H209.02C209.02 149.887 209.129 150.34 209.348 150.73C209.574 151.113 209.891 151.418 210.297 151.645C210.711 151.863 211.199 151.973 211.762 151.973C212.629 151.973 213.309 151.734 213.801 151.258C214.301 150.773 214.551 150.082 214.551 149.184C214.551 148.277 214.316 147.594 213.848 147.133C213.379 146.664 212.656 146.43 211.68 146.43H209.758V144.18H211.727C212.328 144.18 212.816 144.078 213.191 143.875C213.574 143.664 213.852 143.367 214.023 142.984C214.203 142.594 214.293 142.133 214.293 141.602C214.293 140.766 214.078 140.121 213.648 139.668C213.219 139.207 212.59 138.977 211.762 138.977C211.246 138.977 210.797 139.078 210.414 139.281C210.031 139.484 209.73 139.77 209.512 140.137C209.301 140.504 209.195 140.934 209.195 141.426H206.336L206.312 141.355C206.289 140.473 206.504 139.68 206.957 138.977C207.418 138.266 208.062 137.707 208.891 137.301C209.719 136.895 210.668 136.691 211.738 136.691C213.41 136.691 214.746 137.113 215.746 137.957C216.746 138.793 217.246 139.984 217.246 141.531C217.246 142.289 217.027 143 216.59 143.664C216.16 144.328 215.512 144.855 214.645 145.246C215.621 145.582 216.34 146.102 216.801 146.805C217.27 147.508 217.504 148.316 217.504 149.23C217.504 150.27 217.258 151.164 216.766 151.914C216.273 152.664 215.594 153.242 214.727 153.648C213.859 154.047 212.871 154.246 211.762 154.246ZM219.988 154V151.27H222.93V154H219.988ZM231.273 154.246C229.531 154.246 228.152 153.664 227.137 152.5C226.129 151.328 225.625 149.633 225.625 147.414V143.535C225.625 141.316 226.129 139.621 227.137 138.449C228.145 137.277 229.516 136.691 231.25 136.691C232.977 136.691 234.348 137.277 235.363 138.449C236.379 139.621 236.887 141.316 236.887 143.535V147.414C236.887 149.641 236.383 151.336 235.375 152.5C234.367 153.664 233 154.246 231.273 154.246ZM231.273 151.973C232.141 151.973 232.801 151.633 233.254 150.953C233.707 150.273 233.934 149.223 233.934 147.801V143.125C233.934 141.719 233.703 140.676 233.242 139.996C232.781 139.316 232.117 138.977 231.25 138.977C230.375 138.977 229.707 139.316 229.246 139.996C228.793 140.668 228.566 141.711 228.566 143.125V147.801C228.566 149.223 228.797 150.273 229.258 150.953C229.719 151.633 230.391 151.973 231.273 151.973ZM244.984 154.246C243.242 154.246 241.863 153.664 240.848 152.5C239.84 151.328 239.336 149.633 239.336 147.414V143.535C239.336 141.316 239.84 139.621 240.848 138.449C241.855 137.277 243.227 136.691 244.961 136.691C246.688 136.691 248.059 137.277 249.074 138.449C250.09 139.621 250.598 141.316 250.598 143.535V147.414C250.598 149.641 250.094 151.336 249.086 152.5C248.078 153.664 246.711 154.246 244.984 154.246ZM244.984 151.973C245.852 151.973 246.512 151.633 246.965 150.953C247.418 150.273 247.645 149.223 247.645 147.801V143.125C247.645 141.719 247.414 140.676 246.953 139.996C246.492 139.316 245.828 138.977 244.961 138.977C244.086 138.977 243.418 139.316 242.957 139.996C242.504 140.668 242.277 141.711 242.277 143.125V147.801C242.277 149.223 242.508 150.273 242.969 150.953C243.43 151.633 244.102 151.973 244.984 151.973ZM258.695 154.246C256.953 154.246 255.574 153.664 254.559 152.5C253.551 151.328 253.047 149.633 253.047 147.414V143.535C253.047 141.316 253.551 139.621 254.559 138.449C255.566 137.277 256.938 136.691 258.672 136.691C260.398 136.691 261.77 137.277 262.785 138.449C263.801 139.621 264.309 141.316 264.309 143.535V147.414C264.309 149.641 263.805 151.336 262.797 152.5C261.789 153.664 260.422 154.246 258.695 154.246ZM258.695 151.973C259.562 151.973 260.223 151.633 260.676 150.953C261.129 150.273 261.355 149.223 261.355 147.801V143.125C261.355 141.719 261.125 140.676 260.664 139.996C260.203 139.316 259.539 138.977 258.672 138.977C257.797 138.977 257.129 139.316 256.668 139.996C256.215 140.668 255.988 141.711 255.988 143.125V147.801C255.988 149.223 256.219 150.273 256.68 150.953C257.141 151.633 257.812 151.973 258.695 151.973ZM267.098 154V151.27H270.039V154H267.098ZM278.383 154.246C276.641 154.246 275.262 153.664 274.246 152.5C273.238 151.328 272.734 149.633 272.734 147.414V143.535C272.734 141.316 273.238 139.621 274.246 138.449C275.254 137.277 276.625 136.691 278.359 136.691C280.086 136.691 281.457 137.277 282.473 138.449C283.488 139.621 283.996 141.316 283.996 143.535V147.414C283.996 149.641 283.492 151.336 282.484 152.5C281.477 153.664 280.109 154.246 278.383 154.246ZM278.383 151.973C279.25 151.973 279.91 151.633 280.363 150.953C280.816 150.273 281.043 149.223 281.043 147.801V143.125C281.043 141.719 280.812 140.676 280.352 139.996C279.891 139.316 279.227 138.977 278.359 138.977C277.484 138.977 276.816 139.316 276.355 139.996C275.902 140.668 275.676 141.711 275.676 143.125V147.801C275.676 149.223 275.906 150.273 276.367 150.953C276.828 151.633 277.5 151.973 278.383 151.973ZM292.094 154.246C290.352 154.246 288.973 153.664 287.957 152.5C286.949 151.328 286.445 149.633 286.445 147.414V143.535C286.445 141.316 286.949 139.621 287.957 138.449C288.965 137.277 290.336 136.691 292.07 136.691C293.797 136.691 295.168 137.277 296.184 138.449C297.199 139.621 297.707 141.316 297.707 143.535V147.414C297.707 149.641 297.203 151.336 296.195 152.5C295.188 153.664 293.82 154.246 292.094 154.246ZM292.094 151.973C292.961 151.973 293.621 151.633 294.074 150.953C294.527 150.273 294.754 149.223 294.754 147.801V143.125C294.754 141.719 294.523 140.676 294.062 139.996C293.602 139.316 292.938 138.977 292.07 138.977C291.195 138.977 290.527 139.316 290.066 139.996C289.613 140.668 289.387 141.711 289.387 143.125V147.801C289.387 149.223 289.617 150.273 290.078 150.953C290.539 151.633 291.211 151.973 292.094 151.973ZM305.805 154.246C304.062 154.246 302.684 153.664 301.668 152.5C300.66 151.328 300.156 149.633 300.156 147.414V143.535C300.156 141.316 300.66 139.621 301.668 138.449C302.676 137.277 304.047 136.691 305.781 136.691C307.508 136.691 308.879 137.277 309.895 138.449C310.91 139.621 311.418 141.316 311.418 143.535V147.414C311.418 149.641 310.914 151.336 309.906 152.5C308.898 153.664 307.531 154.246 305.805 154.246ZM305.805 151.973C306.672 151.973 307.332 151.633 307.785 150.953C308.238 150.273 308.465 149.223 308.465 147.801V143.125C308.465 141.719 308.234 140.676 307.773 139.996C307.312 139.316 306.648 138.977 305.781 138.977C304.906 138.977 304.238 139.316 303.777 139.996C303.324 140.668 303.098 141.711 303.098 143.125V147.801C303.098 149.223 303.328 150.273 303.789 150.953C304.25 151.633 304.922 151.973 305.805 151.973Z" fill="#005AAA"/>
<path d="M265.079 170.453L262.623 164.813H263.335L265.519 169.925H265.271L267.471 164.813H268.159L265.687 170.453H265.079ZM268.889 170.453V164.813H269.409L273.025 169.613H272.841V164.813H273.457V170.453H272.945L269.329 165.653H269.505V170.453H268.889ZM274.865 170.453V164.813H276.737C277.361 164.813 277.889 164.922 278.321 165.141C278.753 165.354 279.081 165.671 279.305 166.093C279.529 166.509 279.641 167.021 279.641 167.629C279.641 168.231 279.529 168.743 279.305 169.165C279.081 169.586 278.753 169.906 278.321 170.125C277.889 170.343 277.361 170.453 276.737 170.453H274.865ZM275.529 169.885H276.689C277.457 169.885 278.028 169.698 278.401 169.325C278.775 168.946 278.961 168.381 278.961 167.629C278.961 166.871 278.775 166.306 278.401 165.933C278.028 165.559 277.457 165.373 276.689 165.373H275.529V169.885ZM274.177 167.845V167.333H277.113V167.845H274.177ZM280.436 170.893H279.876L281.972 164.469H282.532L280.436 170.893ZM286.507 170.453V165.373H284.515V164.813H289.155V165.373H287.171V170.453H286.507ZM289.967 170.453V164.813H290.631V170.453H289.967ZM294.493 170.525C293.928 170.525 293.448 170.407 293.053 170.173C292.659 169.938 292.355 169.605 292.141 169.173C291.933 168.741 291.829 168.226 291.829 167.629C291.829 167.031 291.933 166.519 292.141 166.093C292.355 165.661 292.659 165.327 293.053 165.093C293.448 164.858 293.928 164.741 294.493 164.741C294.893 164.741 295.251 164.802 295.565 164.925C295.88 165.047 296.155 165.226 296.389 165.461L296.141 165.989C295.885 165.765 295.632 165.602 295.381 165.501C295.131 165.394 294.837 165.341 294.501 165.341C293.856 165.341 293.365 165.541 293.029 165.941C292.693 166.341 292.525 166.903 292.525 167.629C292.525 168.354 292.693 168.919 293.029 169.325C293.365 169.725 293.856 169.925 294.501 169.925C294.837 169.925 295.131 169.874 295.381 169.773C295.632 169.666 295.885 169.498 296.141 169.269L296.389 169.805C296.155 170.034 295.88 170.213 295.565 170.341C295.251 170.463 294.893 170.525 294.493 170.525ZM297.506 170.453V164.813H298.17V167.373H298.186L300.89 164.813H301.738L298.626 167.725L298.634 167.389L301.962 170.453H301.09L298.186 167.797H298.17V170.453H297.506ZM302.576 170.453V164.813H306.176V165.357H303.224V167.317H306V167.869H303.224V169.901H306.176V170.453H302.576ZM308.546 170.453V165.373H306.554V164.813H311.194V165.373H309.21V170.453H308.546Z" fill="#005AAA"/>
<defs>
<linearGradient id="paint0_linear_8_362" x1="-288.38" y1="139.156" x2="693.83" y2="139.156" gradientUnits="userSpaceOnUse">
<stop stop-color="#00CCFF"/>
<stop offset="1" stop-color="#FF00FF"/>
</linearGradient>
</defs>
</svg>
