<svg width="1440" height="570" viewBox="0 0 1440 570" fill="none" xmlns="http://www.w3.org/2000/svg">
<rect width="1440" height="569.115" fill="url(#paint0_linear_8_331)"/>
<path d="M150.616 74V35.664H135.704V28.88H173.784V35.664H158.872V74H150.616ZM179.617 74V28.88H187.873V74H179.617ZM218.797 74.64C214.103 74.64 210.071 73.7013 206.701 71.824C203.373 69.904 200.813 67.216 199.021 63.76C197.229 60.2613 196.333 56.144 196.333 51.408C196.333 46.672 197.229 42.576 199.021 39.12C200.813 35.664 203.373 32.9973 206.701 31.12C210.071 29.2 214.103 28.24 218.797 28.24C221.954 28.24 224.791 28.688 227.309 29.584C229.869 30.48 232.066 31.8027 233.901 33.552L231.213 40.08C229.207 38.4587 227.266 37.3067 225.389 36.624C223.554 35.8987 221.442 35.536 219.053 35.536C214.487 35.536 210.989 36.9227 208.557 39.696C206.167 42.4267 204.973 46.3307 204.973 51.408C204.973 56.4853 206.167 60.4107 208.557 63.184C210.989 65.9573 214.487 67.344 219.053 67.344C221.442 67.344 223.554 67.0027 225.389 66.32C227.266 65.5947 229.207 64.4 231.213 62.736L233.901 69.264C232.066 70.9707 229.869 72.2933 227.309 73.232C224.791 74.1707 221.954 74.64 218.797 74.64ZM241.617 74V28.88H249.873V48.848H250.001L269.649 28.88H279.633L256.081 52.368L256.145 48.784L281.169 74H270.865L250.001 53.136H249.873V74H241.617ZM284.242 74V28.88H314.642V35.344H292.178V47.824H313.17V54.352H292.178V67.472H314.642V74H284.242ZM332.616 74V35.664H317.704V28.88H355.784V35.664H340.872V74H332.616Z" fill="white"/>
<line x1="135.603" y1="107.042" x2="241.638" y2="107.042" stroke="white" stroke-width="8"/>
<rect width="424" height="378.073" transform="translate(280 151.042)" fill="white"/>
<path d="M389.889 217.411C388.002 217.411 386.285 217.2 384.738 216.778C383.191 216.356 381.668 215.624 380.168 214.581V208.394H384.141L384.686 212.032C385.213 212.478 385.939 212.841 386.865 213.122C387.791 213.392 388.799 213.526 389.889 213.526C390.814 213.526 391.594 213.397 392.227 213.14C392.871 212.882 393.357 212.519 393.686 212.05C394.025 211.569 394.195 211.007 394.195 210.362C394.195 209.753 394.043 209.214 393.738 208.745C393.445 208.265 392.953 207.831 392.262 207.444C391.582 207.046 390.656 206.665 389.484 206.302C387.457 205.704 385.775 205.054 384.439 204.351C383.115 203.636 382.119 202.786 381.451 201.802C380.795 200.806 380.467 199.61 380.467 198.216C380.467 196.833 380.848 195.614 381.609 194.56C382.383 193.493 383.449 192.655 384.809 192.046C386.168 191.437 387.738 191.12 389.52 191.097C391.488 191.073 393.229 191.308 394.74 191.8C396.264 192.292 397.576 192.978 398.678 193.856V199.622H394.828L394.16 196.106C393.715 195.825 393.111 195.579 392.35 195.368C391.6 195.157 390.744 195.052 389.783 195.052C388.963 195.052 388.236 195.175 387.604 195.421C386.982 195.667 386.49 196.024 386.127 196.493C385.764 196.962 385.582 197.53 385.582 198.198C385.582 198.772 385.74 199.276 386.057 199.71C386.373 200.132 386.9 200.536 387.639 200.923C388.389 201.298 389.42 201.702 390.732 202.136C393.557 202.921 395.695 203.958 397.148 205.247C398.613 206.536 399.346 208.229 399.346 210.327C399.346 211.78 398.953 213.04 398.168 214.106C397.383 215.161 396.281 215.976 394.863 216.55C393.445 217.124 391.787 217.411 389.889 217.411ZM401.385 217.042V213.966L404.109 213.438V195.069L401.385 194.542V191.448H404.109H413.566C415.523 191.448 417.211 191.794 418.629 192.485C420.047 193.165 421.137 194.12 421.898 195.351C422.66 196.569 423.041 197.993 423.041 199.622C423.041 201.251 422.66 202.681 421.898 203.911C421.137 205.13 420.047 206.079 418.629 206.759C417.211 207.427 415.523 207.761 413.566 207.761H409.242V213.438L411.984 213.966V217.042H401.385ZM409.242 203.806H413.566C414.996 203.806 416.074 203.419 416.801 202.646C417.539 201.86 417.908 200.864 417.908 199.657C417.908 198.427 417.539 197.413 416.801 196.616C416.074 195.808 414.996 195.403 413.566 195.403H409.242V203.806ZM424.693 217.042V213.966L427.418 213.438V195.069L424.693 194.542V191.448H444.557V198.356H440.619L440.391 195.403H432.551V201.837H441.217V205.792H432.551V213.104H440.812L441.041 210.046H444.943V217.042H424.693ZM459.867 217.411C457.383 217.411 455.221 216.896 453.381 215.864C451.541 214.821 450.117 213.351 449.109 211.452C448.113 209.542 447.615 207.286 447.615 204.685V203.823C447.615 201.339 448.096 199.142 449.057 197.231C450.029 195.31 451.412 193.804 453.205 192.714C454.998 191.624 457.131 191.079 459.604 191.079C461.338 191.079 462.961 191.325 464.473 191.817C465.996 192.31 467.355 193.06 468.551 194.067V200.255H464.736L464.209 196.37C463.822 196.089 463.4 195.849 462.943 195.649C462.486 195.45 461.988 195.298 461.449 195.192C460.922 195.087 460.348 195.034 459.727 195.034C458.273 195.034 457.025 195.392 455.982 196.106C454.939 196.821 454.137 197.835 453.574 199.147C453.023 200.448 452.748 201.995 452.748 203.788V204.685C452.748 206.478 453.041 208.03 453.627 209.343C454.213 210.655 455.045 211.675 456.123 212.401C457.201 213.116 458.479 213.474 459.955 213.474C460.693 213.474 461.432 213.392 462.17 213.228C462.92 213.052 463.6 212.829 464.209 212.56L464.736 208.956H468.551V215.073C467.555 215.729 466.312 216.286 464.824 216.743C463.336 217.188 461.684 217.411 459.867 217.411ZM470.924 217.042V213.966L473.648 213.438V195.069L470.924 194.542V191.448H481.506V194.542L478.781 195.069V213.438L481.506 213.966V217.042H470.924ZM481.523 217.042V213.966L483.352 213.702L491.49 191.448H496.746L504.832 213.702L506.66 213.966V217.042H497.941V213.966L499.717 213.649L498.592 210.134H489.592L488.467 213.649L490.242 213.966V217.042H481.523ZM490.805 206.354H497.379L494.391 197.583L494.145 196.81H494.039L493.775 197.636L490.805 206.354ZM508.365 217.042V213.966L511.09 213.438V195.069L508.365 194.542V191.448H511.09H516.223H519.316V194.542L516.223 195.069V213.104H523.447L523.693 209.36H527.613V217.042H508.365ZM538.283 217.042V213.966L541.008 213.438V195.069L538.283 194.542V191.448H558.656V198.462H554.719L554.49 195.403H546.141V202.452H555.105V206.407H546.141V213.438L548.883 213.966V217.042H538.283ZM560.537 217.042V213.966L563.262 213.438V195.069L560.537 194.542V191.448H580.4V198.356H576.463L576.234 195.403H568.395V201.837H577.061V205.792H568.395V213.104H576.656L576.885 210.046H580.787V217.042H560.537ZM583.529 217.042V213.966L586.254 213.438V195.069L583.529 194.542V191.448H603.393V198.356H599.455L599.227 195.403H591.387V201.837H600.053V205.792H591.387V213.104H599.648L599.877 210.046H603.779V217.042H583.529Z" fill="#FF6600"/>
<path d="M329.986 243.115V231.835H334.578C335.762 231.835 336.674 232.123 337.314 232.699C337.954 233.265 338.274 234.054 338.274 235.067C338.274 236.059 337.954 236.849 337.314 237.435C336.674 238.011 335.762 238.299 334.578 238.299H331.314V243.115H329.986ZM331.314 237.195H334.45C335.271 237.195 335.89 237.009 336.306 236.635C336.733 236.262 336.946 235.739 336.946 235.067C336.946 234.385 336.733 233.857 336.306 233.483C335.89 233.11 335.271 232.923 334.45 232.923H331.314V237.195ZM342.929 243.259C342.215 243.259 341.591 243.094 341.057 242.763C340.524 242.422 340.108 241.942 339.809 241.323C339.521 240.705 339.377 239.963 339.377 239.099C339.377 238.225 339.521 237.478 339.809 236.859C340.108 236.241 340.524 235.766 341.057 235.435C341.591 235.105 342.215 234.939 342.929 234.939C343.655 234.939 344.279 235.126 344.801 235.499C345.335 235.862 345.687 236.358 345.857 236.987H345.665L345.841 235.083H347.089C347.057 235.393 347.025 235.707 346.993 236.027C346.972 236.337 346.961 236.641 346.961 236.939V243.115H345.665V241.227H345.841C345.671 241.857 345.319 242.353 344.785 242.715C344.252 243.078 343.633 243.259 342.929 243.259ZM343.185 242.203C343.953 242.203 344.561 241.942 345.009 241.419C345.457 240.886 345.681 240.113 345.681 239.099C345.681 238.075 345.457 237.302 345.009 236.779C344.561 236.246 343.953 235.979 343.185 235.979C342.428 235.979 341.82 236.246 341.361 236.779C340.913 237.302 340.689 238.075 340.689 239.099C340.689 240.113 340.913 240.886 341.361 241.419C341.82 241.942 342.428 242.203 343.185 242.203ZM349.435 243.115V237.019C349.435 236.699 349.424 236.374 349.403 236.043C349.392 235.713 349.371 235.393 349.339 235.083H350.587L350.747 237.035L350.523 237.051C350.63 236.571 350.816 236.177 351.083 235.867C351.35 235.558 351.664 235.329 352.027 235.179C352.39 235.019 352.768 234.939 353.163 234.939C353.323 234.939 353.462 234.945 353.579 234.955C353.707 234.966 353.824 234.993 353.931 235.035L353.915 236.187C353.755 236.134 353.606 236.102 353.467 236.091C353.339 236.07 353.19 236.059 353.019 236.059C352.55 236.059 352.139 236.171 351.787 236.395C351.446 236.619 351.184 236.907 351.003 237.259C350.832 237.611 350.747 237.985 350.747 238.379V243.115H349.435ZM358.549 243.259C357.76 243.259 357.158 243.035 356.742 242.587C356.326 242.129 356.118 241.441 356.118 240.523V236.091H354.55V235.083H356.118V232.891L357.414 232.523V235.083H359.718V236.091H357.414V240.379C357.414 241.019 357.52 241.478 357.734 241.755C357.958 242.022 358.288 242.155 358.726 242.155C358.928 242.155 359.11 242.139 359.27 242.107C359.43 242.065 359.574 242.017 359.702 241.963V243.051C359.552 243.115 359.371 243.163 359.158 243.195C358.955 243.238 358.752 243.259 358.549 243.259ZM361.295 243.115V235.083H362.591V243.115H361.295ZM361.135 233.259V231.803H362.735V233.259H361.135ZM368.484 243.259C367.694 243.259 367.006 243.089 366.42 242.747C365.844 242.406 365.396 241.921 365.076 241.291C364.766 240.662 364.612 239.915 364.612 239.051C364.612 238.177 364.772 237.435 365.092 236.827C365.412 236.209 365.86 235.739 366.436 235.419C367.022 235.099 367.705 234.939 368.484 234.939C368.996 234.939 369.492 235.03 369.972 235.211C370.462 235.393 370.868 235.649 371.188 235.979L370.724 236.907C370.404 236.598 370.052 236.369 369.668 236.219C369.294 236.07 368.926 235.995 368.564 235.995C367.732 235.995 367.086 236.257 366.628 236.779C366.169 237.302 365.94 238.065 365.94 239.067C365.94 240.059 366.169 240.827 366.628 241.371C367.086 241.915 367.732 242.187 368.564 242.187C368.916 242.187 369.278 242.118 369.652 241.979C370.036 241.841 370.393 241.611 370.724 241.291L371.188 242.203C370.857 242.545 370.446 242.806 369.956 242.987C369.465 243.169 368.974 243.259 368.484 243.259ZM373.03 243.115V235.083H374.326V243.115H373.03ZM372.87 233.259V231.803H374.47V233.259H372.87ZM376.842 246.571V236.939C376.842 236.641 376.826 236.337 376.794 236.027C376.773 235.707 376.746 235.393 376.714 235.083H377.962L378.138 236.987H377.946C378.117 236.358 378.463 235.862 378.986 235.499C379.509 235.126 380.133 234.939 380.858 234.939C381.583 234.939 382.207 235.105 382.73 235.435C383.263 235.766 383.679 236.241 383.978 236.859C384.277 237.478 384.426 238.225 384.426 239.099C384.426 239.963 384.277 240.705 383.978 241.323C383.69 241.942 383.279 242.422 382.746 242.763C382.213 243.094 381.583 243.259 380.858 243.259C380.143 243.259 379.525 243.078 379.002 242.715C378.479 242.353 378.133 241.857 377.962 241.227H378.138V246.571H376.842ZM380.602 242.203C381.37 242.203 381.978 241.942 382.426 241.419C382.885 240.886 383.114 240.113 383.114 239.099C383.114 238.075 382.885 237.302 382.426 236.779C381.978 236.246 381.37 235.979 380.602 235.979C379.845 235.979 379.237 236.246 378.778 236.779C378.33 237.302 378.106 238.075 378.106 239.099C378.106 240.113 378.33 240.886 378.778 241.419C379.237 241.942 379.845 242.203 380.602 242.203ZM389.492 243.259C388.777 243.259 388.153 243.094 387.62 242.763C387.087 242.422 386.671 241.942 386.372 241.323C386.084 240.705 385.94 239.963 385.94 239.099C385.94 238.225 386.084 237.478 386.372 236.859C386.671 236.241 387.087 235.766 387.62 235.435C388.153 235.105 388.777 234.939 389.492 234.939C390.217 234.939 390.841 235.126 391.364 235.499C391.897 235.862 392.249 236.358 392.42 236.987H392.228L392.404 235.083H393.652C393.62 235.393 393.588 235.707 393.556 236.027C393.535 236.337 393.524 236.641 393.524 236.939V243.115H392.228V241.227H392.404C392.233 241.857 391.881 242.353 391.348 242.715C390.815 243.078 390.196 243.259 389.492 243.259ZM389.748 242.203C390.516 242.203 391.124 241.942 391.572 241.419C392.02 240.886 392.244 240.113 392.244 239.099C392.244 238.075 392.02 237.302 391.572 236.779C391.124 236.246 390.516 235.979 389.748 235.979C388.991 235.979 388.383 236.246 387.924 236.779C387.476 237.302 387.252 238.075 387.252 239.099C387.252 240.113 387.476 240.886 387.924 241.419C388.383 241.942 388.991 242.203 389.748 242.203ZM396.03 243.115V236.939C396.03 236.641 396.014 236.337 395.982 236.027C395.96 235.707 395.934 235.393 395.902 235.083H397.15L397.31 236.843H397.118C397.352 236.225 397.726 235.755 398.238 235.435C398.76 235.105 399.363 234.939 400.046 234.939C400.995 234.939 401.71 235.195 402.19 235.707C402.68 236.209 402.926 237.003 402.926 238.091V243.115H401.63V238.171C401.63 237.414 401.475 236.865 401.166 236.523C400.867 236.171 400.398 235.995 399.758 235.995C399.011 235.995 398.419 236.225 397.982 236.683C397.544 237.142 397.326 237.755 397.326 238.523V243.115H396.03ZM408.253 243.259C407.463 243.259 406.861 243.035 406.445 242.587C406.029 242.129 405.821 241.441 405.821 240.523V236.091H404.253V235.083H405.821V232.891L407.117 232.523V235.083H409.421V236.091H407.117V240.379C407.117 241.019 407.223 241.478 407.437 241.755C407.661 242.022 407.991 242.155 408.429 242.155C408.631 242.155 408.813 242.139 408.973 242.107C409.133 242.065 409.277 242.017 409.405 241.963V243.051C409.255 243.115 409.074 243.163 408.861 243.195C408.658 243.238 408.455 243.259 408.253 243.259ZM413.67 243.259C413.03 243.259 412.433 243.174 411.878 243.003C411.324 242.822 410.865 242.571 410.502 242.251L410.95 241.339C411.345 241.649 411.772 241.878 412.23 242.027C412.7 242.177 413.185 242.251 413.686 242.251C414.326 242.251 414.806 242.139 415.126 241.915C415.457 241.681 415.622 241.361 415.622 240.955C415.622 240.646 415.516 240.401 415.302 240.219C415.1 240.027 414.764 239.878 414.294 239.771L412.806 239.467C412.124 239.318 411.612 239.067 411.27 238.715C410.929 238.353 410.758 237.894 410.758 237.339C410.758 236.87 410.881 236.459 411.126 236.107C411.372 235.745 411.729 235.462 412.198 235.259C412.668 235.046 413.217 234.939 413.846 234.939C414.433 234.939 414.972 235.03 415.462 235.211C415.964 235.382 416.38 235.633 416.71 235.963L416.246 236.859C415.926 236.55 415.558 236.321 415.142 236.171C414.737 236.011 414.316 235.931 413.878 235.931C413.249 235.931 412.774 236.059 412.454 236.315C412.145 236.561 411.99 236.886 411.99 237.291C411.99 237.601 412.086 237.857 412.278 238.059C412.481 238.251 412.79 238.395 413.206 238.491L414.694 238.795C415.42 238.955 415.958 239.206 416.31 239.547C416.673 239.878 416.854 240.326 416.854 240.891C416.854 241.371 416.721 241.793 416.454 242.155C416.188 242.507 415.814 242.779 415.334 242.971C414.865 243.163 414.31 243.259 413.67 243.259ZM423.076 243.115V237.019C423.076 236.699 423.065 236.374 423.044 236.043C423.033 235.713 423.012 235.393 422.98 235.083H424.228L424.388 237.035L424.164 237.051C424.27 236.571 424.457 236.177 424.724 235.867C424.99 235.558 425.305 235.329 425.668 235.179C426.03 235.019 426.409 234.939 426.804 234.939C426.964 234.939 427.102 234.945 427.22 234.955C427.348 234.966 427.465 234.993 427.572 235.035L427.556 236.187C427.396 236.134 427.246 236.102 427.108 236.091C426.98 236.07 426.83 236.059 426.66 236.059C426.19 236.059 425.78 236.171 425.428 236.395C425.086 236.619 424.825 236.907 424.644 237.259C424.473 237.611 424.388 237.985 424.388 238.379V243.115H423.076ZM432.395 243.259C431.136 243.259 430.144 242.897 429.419 242.171C428.693 241.435 428.331 240.417 428.331 239.115C428.331 238.273 428.491 237.542 428.811 236.923C429.131 236.294 429.579 235.809 430.155 235.467C430.731 235.115 431.392 234.939 432.139 234.939C432.875 234.939 433.493 235.094 433.995 235.403C434.496 235.713 434.88 236.155 435.147 236.731C435.413 237.297 435.547 237.969 435.547 238.747V239.227H429.323V238.411H434.699L434.427 238.619C434.427 237.766 434.235 237.099 433.851 236.619C433.467 236.139 432.896 235.899 432.139 235.899C431.339 235.899 430.715 236.182 430.267 236.747C429.819 237.302 429.595 238.054 429.595 239.003V239.147C429.595 240.15 429.84 240.913 430.331 241.435C430.832 241.947 431.531 242.203 432.427 242.203C432.907 242.203 433.355 242.134 433.771 241.995C434.197 241.846 434.603 241.606 434.987 241.275L435.435 242.187C435.083 242.529 434.635 242.795 434.091 242.987C433.557 243.169 432.992 243.259 432.395 243.259ZM441.066 246.683C440.372 246.683 439.732 246.598 439.146 246.427C438.559 246.257 438.031 245.995 437.562 245.643L437.946 244.667C438.276 244.902 438.602 245.089 438.922 245.227C439.242 245.366 439.572 245.467 439.914 245.531C440.255 245.606 440.618 245.643 441.002 245.643C441.791 245.643 442.388 245.435 442.794 245.019C443.199 244.603 443.402 244.011 443.402 243.243V240.891H443.562C443.391 241.521 443.039 242.022 442.506 242.395C441.972 242.758 441.348 242.939 440.634 242.939C439.898 242.939 439.258 242.779 438.714 242.459C438.18 242.129 437.764 241.665 437.466 241.067C437.178 240.459 437.034 239.745 437.034 238.923C437.034 238.113 437.178 237.409 437.466 236.811C437.764 236.214 438.18 235.755 438.714 235.435C439.258 235.105 439.898 234.939 440.634 234.939C441.359 234.939 441.983 235.121 442.506 235.483C443.039 235.846 443.391 236.347 443.562 236.987L443.402 236.827L443.546 235.083H444.81C444.767 235.393 444.735 235.707 444.714 236.027C444.692 236.337 444.682 236.641 444.682 236.939V243.067C444.682 244.262 444.372 245.163 443.754 245.771C443.146 246.379 442.25 246.683 441.066 246.683ZM440.874 241.883C441.652 241.883 442.266 241.627 442.714 241.115C443.162 240.593 443.386 239.862 443.386 238.923C443.386 237.985 443.162 237.259 442.714 236.747C442.266 236.235 441.652 235.979 440.874 235.979C440.106 235.979 439.492 236.235 439.034 236.747C438.575 237.259 438.346 237.985 438.346 238.923C438.346 239.862 438.575 240.593 439.034 241.115C439.492 241.627 440.106 241.883 440.874 241.883ZM447.17 243.115V235.083H448.466V243.115H447.17ZM447.01 233.259V231.803H448.61V233.259H447.01ZM453.655 243.259C453.015 243.259 452.417 243.174 451.863 243.003C451.308 242.822 450.849 242.571 450.487 242.251L450.935 241.339C451.329 241.649 451.756 241.878 452.215 242.027C452.684 242.177 453.169 242.251 453.671 242.251C454.311 242.251 454.791 242.139 455.111 241.915C455.441 241.681 455.607 241.361 455.607 240.955C455.607 240.646 455.5 240.401 455.287 240.219C455.084 240.027 454.748 239.878 454.279 239.771L452.791 239.467C452.108 239.318 451.596 239.067 451.255 238.715C450.913 238.353 450.743 237.894 450.743 237.339C450.743 236.87 450.865 236.459 451.111 236.107C451.356 235.745 451.713 235.462 452.183 235.259C452.652 235.046 453.201 234.939 453.831 234.939C454.417 234.939 454.956 235.03 455.447 235.211C455.948 235.382 456.364 235.633 456.695 235.963L456.231 236.859C455.911 236.55 455.543 236.321 455.127 236.171C454.721 236.011 454.3 235.931 453.863 235.931C453.233 235.931 452.759 236.059 452.439 236.315C452.129 236.561 451.975 236.886 451.975 237.291C451.975 237.601 452.071 237.857 452.263 238.059C452.465 238.251 452.775 238.395 453.191 238.491L454.679 238.795C455.404 238.955 455.943 239.206 456.295 239.547C456.657 239.878 456.839 240.326 456.839 240.891C456.839 241.371 456.705 241.793 456.439 242.155C456.172 242.507 455.799 242.779 455.319 242.971C454.849 243.163 454.295 243.259 453.655 243.259ZM461.69 243.259C460.901 243.259 460.298 243.035 459.882 242.587C459.466 242.129 459.258 241.441 459.258 240.523V236.091H457.69V235.083H459.258V232.891L460.554 232.523V235.083H462.858V236.091H460.554V240.379C460.554 241.019 460.661 241.478 460.874 241.755C461.098 242.022 461.429 242.155 461.866 242.155C462.069 242.155 462.25 242.139 462.41 242.107C462.57 242.065 462.714 242.017 462.842 241.963V243.051C462.693 243.115 462.511 243.163 462.298 243.195C462.095 243.238 461.893 243.259 461.69 243.259ZM467.926 243.259C466.667 243.259 465.675 242.897 464.95 242.171C464.224 241.435 463.862 240.417 463.862 239.115C463.862 238.273 464.022 237.542 464.342 236.923C464.662 236.294 465.11 235.809 465.686 235.467C466.262 235.115 466.923 234.939 467.67 234.939C468.406 234.939 469.024 235.094 469.526 235.403C470.027 235.713 470.411 236.155 470.678 236.731C470.944 237.297 471.078 237.969 471.078 238.747V239.227H464.854V238.411H470.23L469.958 238.619C469.958 237.766 469.766 237.099 469.382 236.619C468.998 236.139 468.427 235.899 467.67 235.899C466.87 235.899 466.246 236.182 465.798 236.747C465.35 237.302 465.126 238.054 465.126 239.003V239.147C465.126 240.15 465.371 240.913 465.862 241.435C466.363 241.947 467.062 242.203 467.958 242.203C468.438 242.203 468.886 242.134 469.302 241.995C469.728 241.846 470.134 241.606 470.518 241.275L470.966 242.187C470.614 242.529 470.166 242.795 469.622 242.987C469.088 243.169 468.523 243.259 467.926 243.259ZM473.029 243.115V237.019C473.029 236.699 473.018 236.374 472.997 236.043C472.986 235.713 472.965 235.393 472.933 235.083H474.181L474.341 237.035L474.117 237.051C474.224 236.571 474.41 236.177 474.677 235.867C474.944 235.558 475.258 235.329 475.621 235.179C475.984 235.019 476.362 234.939 476.757 234.939C476.917 234.939 477.056 234.945 477.173 234.955C477.301 234.966 477.418 234.993 477.525 235.035L477.509 236.187C477.349 236.134 477.2 236.102 477.061 236.091C476.933 236.07 476.784 236.059 476.613 236.059C476.144 236.059 475.733 236.171 475.381 236.395C475.04 236.619 474.778 236.907 474.597 237.259C474.426 237.611 474.341 237.985 474.341 238.379V243.115H473.029ZM478.873 243.115V235.083H480.169V243.115H478.873ZM478.713 233.259V231.803H480.313V233.259H478.713ZM482.686 243.115V236.939C482.686 236.641 482.67 236.337 482.638 236.027C482.617 235.707 482.59 235.393 482.558 235.083H483.806L483.966 236.843H483.774C484.009 236.225 484.382 235.755 484.894 235.435C485.417 235.105 486.019 234.939 486.702 234.939C487.651 234.939 488.366 235.195 488.846 235.707C489.337 236.209 489.582 237.003 489.582 238.091V243.115H488.286V238.171C488.286 237.414 488.131 236.865 487.822 236.523C487.523 236.171 487.054 235.995 486.414 235.995C485.667 235.995 485.075 236.225 484.638 236.683C484.201 237.142 483.982 237.755 483.982 238.523V243.115H482.686ZM495.597 246.683C494.904 246.683 494.264 246.598 493.677 246.427C493.09 246.257 492.562 245.995 492.093 245.643L492.477 244.667C492.808 244.902 493.133 245.089 493.453 245.227C493.773 245.366 494.104 245.467 494.445 245.531C494.786 245.606 495.149 245.643 495.533 245.643C496.322 245.643 496.92 245.435 497.325 245.019C497.73 244.603 497.933 244.011 497.933 243.243V240.891H498.093C497.922 241.521 497.57 242.022 497.037 242.395C496.504 242.758 495.88 242.939 495.165 242.939C494.429 242.939 493.789 242.779 493.245 242.459C492.712 242.129 492.296 241.665 491.997 241.067C491.709 240.459 491.565 239.745 491.565 238.923C491.565 238.113 491.709 237.409 491.997 236.811C492.296 236.214 492.712 235.755 493.245 235.435C493.789 235.105 494.429 234.939 495.165 234.939C495.89 234.939 496.514 235.121 497.037 235.483C497.57 235.846 497.922 236.347 498.093 236.987L497.933 236.827L498.077 235.083H499.341C499.298 235.393 499.266 235.707 499.245 236.027C499.224 236.337 499.213 236.641 499.213 236.939V243.067C499.213 244.262 498.904 245.163 498.285 245.771C497.677 246.379 496.781 246.683 495.597 246.683ZM495.405 241.883C496.184 241.883 496.797 241.627 497.245 241.115C497.693 240.593 497.917 239.862 497.917 238.923C497.917 237.985 497.693 237.259 497.245 236.747C496.797 236.235 496.184 235.979 495.405 235.979C494.637 235.979 494.024 236.235 493.565 236.747C493.106 237.259 492.877 237.985 492.877 238.923C492.877 239.862 493.106 240.593 493.565 241.115C494.024 241.627 494.637 241.883 495.405 241.883ZM509.905 243.259C509.18 243.259 508.556 243.078 508.033 242.715C507.511 242.342 507.159 241.835 506.977 241.195H507.153V243.115H505.873V231.339H507.169V236.955H506.977C507.159 236.337 507.511 235.846 508.033 235.483C508.556 235.121 509.18 234.939 509.905 234.939C510.631 234.939 511.255 235.11 511.777 235.451C512.311 235.782 512.721 236.257 513.009 236.875C513.308 237.494 513.457 238.235 513.457 239.099C513.457 239.963 513.308 240.705 513.009 241.323C512.711 241.942 512.295 242.422 511.761 242.763C511.239 243.094 510.62 243.259 509.905 243.259ZM509.633 242.203C510.391 242.203 510.999 241.942 511.457 241.419C511.916 240.897 512.145 240.123 512.145 239.099C512.145 238.075 511.916 237.302 511.457 236.779C510.999 236.246 510.391 235.979 509.633 235.979C508.876 235.979 508.268 236.246 507.809 236.779C507.361 237.302 507.137 238.075 507.137 239.099C507.137 240.113 507.361 240.886 507.809 241.419C508.268 241.942 508.876 242.203 509.633 242.203ZM519.035 243.259C517.776 243.259 516.784 242.897 516.059 242.171C515.334 241.435 514.971 240.417 514.971 239.115C514.971 238.273 515.131 237.542 515.451 236.923C515.771 236.294 516.219 235.809 516.795 235.467C517.371 235.115 518.032 234.939 518.779 234.939C519.515 234.939 520.134 235.094 520.635 235.403C521.136 235.713 521.52 236.155 521.787 236.731C522.054 237.297 522.187 237.969 522.187 238.747V239.227H515.963V238.411H521.339L521.067 238.619C521.067 237.766 520.875 237.099 520.491 236.619C520.107 236.139 519.536 235.899 518.779 235.899C517.979 235.899 517.355 236.182 516.907 236.747C516.459 237.302 516.235 238.054 516.235 239.003V239.147C516.235 240.15 516.48 240.913 516.971 241.435C517.472 241.947 518.171 242.203 519.067 242.203C519.547 242.203 519.995 242.134 520.411 241.995C520.838 241.846 521.243 241.606 521.627 241.275L522.075 242.187C521.723 242.529 521.275 242.795 520.731 242.987C520.198 243.169 519.632 243.259 519.035 243.259ZM524.586 243.115V236.091H523.018V235.083H524.938L524.586 235.419V234.075C524.586 233.169 524.816 232.475 525.274 231.995C525.733 231.515 526.389 231.275 527.242 231.275C527.456 231.275 527.674 231.297 527.898 231.339C528.133 231.371 528.325 231.419 528.474 231.483V232.555C528.346 232.502 528.186 232.459 527.994 232.427C527.813 232.385 527.626 232.363 527.434 232.363C527.104 232.363 526.821 232.433 526.586 232.571C526.352 232.699 526.176 232.897 526.058 233.163C525.941 233.43 525.882 233.771 525.882 234.187V235.355L525.674 235.083H528.122V236.091H525.882V243.115H524.586ZM532.654 243.259C531.886 243.259 531.214 243.094 530.638 242.763C530.072 242.422 529.635 241.942 529.326 241.323C529.016 240.694 528.862 239.953 528.862 239.099C528.862 238.235 529.016 237.494 529.326 236.875C529.635 236.257 530.072 235.782 530.638 235.451C531.214 235.11 531.886 234.939 532.654 234.939C533.432 234.939 534.104 235.11 534.67 235.451C535.246 235.782 535.688 236.257 535.998 236.875C536.318 237.494 536.478 238.235 536.478 239.099C536.478 239.953 536.318 240.694 535.998 241.323C535.688 241.942 535.246 242.422 534.67 242.763C534.104 243.094 533.432 243.259 532.654 243.259ZM532.654 242.203C533.422 242.203 534.03 241.942 534.478 241.419C534.926 240.886 535.15 240.113 535.15 239.099C535.15 238.075 534.92 237.302 534.462 236.779C534.014 236.246 533.411 235.979 532.654 235.979C531.896 235.979 531.294 236.246 530.846 236.779C530.398 237.302 530.174 238.075 530.174 239.099C530.174 240.113 530.398 240.886 530.846 241.419C531.294 241.942 531.896 242.203 532.654 242.203ZM538.466 243.115V237.019C538.466 236.699 538.456 236.374 538.434 236.043C538.424 235.713 538.402 235.393 538.37 235.083H539.618L539.778 237.035L539.554 237.051C539.661 236.571 539.848 236.177 540.114 235.867C540.381 235.558 540.696 235.329 541.058 235.179C541.421 235.019 541.8 234.939 542.194 234.939C542.354 234.939 542.493 234.945 542.61 234.955C542.738 234.966 542.856 234.993 542.962 235.035L542.946 236.187C542.786 236.134 542.637 236.102 542.498 236.091C542.37 236.07 542.221 236.059 542.05 236.059C541.581 236.059 541.17 236.171 540.818 236.395C540.477 236.619 540.216 236.907 540.034 237.259C539.864 237.611 539.778 237.985 539.778 238.379V243.115H538.466ZM547.785 243.259C546.526 243.259 545.534 242.897 544.809 242.171C544.084 241.435 543.721 240.417 543.721 239.115C543.721 238.273 543.881 237.542 544.201 236.923C544.521 236.294 544.969 235.809 545.545 235.467C546.121 235.115 546.782 234.939 547.529 234.939C548.265 234.939 548.884 235.094 549.385 235.403C549.886 235.713 550.27 236.155 550.537 236.731C550.804 237.297 550.937 237.969 550.937 238.747V239.227H544.713V238.411H550.089L549.817 238.619C549.817 237.766 549.625 237.099 549.241 236.619C548.857 236.139 548.286 235.899 547.529 235.899C546.729 235.899 546.105 236.182 545.657 236.747C545.209 237.302 544.985 238.054 544.985 239.003V239.147C544.985 240.15 545.23 240.913 545.721 241.435C546.222 241.947 546.921 242.203 547.817 242.203C548.297 242.203 548.745 242.134 549.161 241.995C549.588 241.846 549.993 241.606 550.377 241.275L550.825 242.187C550.473 242.529 550.025 242.795 549.481 242.987C548.948 243.169 548.382 243.259 547.785 243.259ZM556.82 237.467C556.82 236.273 557.023 235.249 557.428 234.395C557.844 233.531 558.436 232.865 559.204 232.395C559.983 231.926 560.916 231.691 562.004 231.691C563.06 231.691 563.977 231.926 564.756 232.395C565.535 232.865 566.132 233.531 566.548 234.395C566.975 235.249 567.188 236.267 567.188 237.451C567.188 238.646 566.975 239.675 566.548 240.539C566.121 241.403 565.519 242.075 564.74 242.555C563.972 243.025 563.06 243.259 562.004 243.259C560.916 243.259 559.988 243.025 559.22 242.555C558.452 242.075 557.86 241.403 557.444 240.539C557.028 239.675 556.82 238.651 556.82 237.467ZM558.212 237.467C558.212 238.918 558.532 240.054 559.172 240.875C559.812 241.686 560.756 242.091 562.004 242.091C563.199 242.091 564.127 241.686 564.788 240.875C565.46 240.054 565.796 238.918 565.796 237.467C565.796 236.006 565.465 234.875 564.804 234.075C564.143 233.265 563.209 232.859 562.004 232.859C560.756 232.859 559.812 233.265 559.172 234.075C558.532 234.875 558.212 236.006 558.212 237.467ZM572.828 243.259C572.038 243.259 571.35 243.089 570.764 242.747C570.188 242.406 569.74 241.921 569.42 241.291C569.11 240.662 568.956 239.915 568.956 239.051C568.956 238.177 569.116 237.435 569.436 236.827C569.756 236.209 570.204 235.739 570.78 235.419C571.366 235.099 572.049 234.939 572.828 234.939C573.34 234.939 573.836 235.03 574.316 235.211C574.806 235.393 575.212 235.649 575.532 235.979L575.068 236.907C574.748 236.598 574.396 236.369 574.012 236.219C573.638 236.07 573.27 235.995 572.908 235.995C572.076 235.995 571.43 236.257 570.972 236.779C570.513 237.302 570.284 238.065 570.284 239.067C570.284 240.059 570.513 240.827 570.972 241.371C571.43 241.915 572.076 242.187 572.908 242.187C573.26 242.187 573.622 242.118 573.996 241.979C574.38 241.841 574.737 241.611 575.068 241.291L575.532 242.203C575.201 242.545 574.79 242.806 574.3 242.987C573.809 243.169 573.318 243.259 572.828 243.259ZM580.221 243.259C579.432 243.259 578.829 243.035 578.413 242.587C577.997 242.129 577.789 241.441 577.789 240.523V236.091H576.221V235.083H577.789V232.891L579.085 232.523V235.083H581.389V236.091H579.085V240.379C579.085 241.019 579.192 241.478 579.405 241.755C579.629 242.022 579.96 242.155 580.397 242.155C580.6 242.155 580.781 242.139 580.941 242.107C581.101 242.065 581.245 242.017 581.373 241.963V243.051C581.224 243.115 581.043 243.163 580.829 243.195C580.627 243.238 580.424 243.259 580.221 243.259ZM587.251 243.115V242.123L591.251 237.947C591.774 237.403 592.163 236.886 592.419 236.395C592.686 235.894 592.819 235.377 592.819 234.843C592.819 234.193 592.616 233.702 592.211 233.371C591.806 233.03 591.219 232.859 590.451 232.859C589.854 232.859 589.299 232.966 588.787 233.179C588.286 233.382 587.8 233.707 587.331 234.155L586.851 233.115C587.278 232.689 587.822 232.347 588.483 232.091C589.144 231.825 589.843 231.691 590.579 231.691C591.72 231.691 592.6 231.958 593.219 232.491C593.838 233.014 594.147 233.761 594.147 234.731C594.147 235.446 593.971 236.129 593.619 236.779C593.278 237.419 592.776 238.081 592.115 238.763L588.579 242.347V241.979H594.627V243.115H587.251ZM600.205 243.259C599.447 243.259 598.722 243.142 598.029 242.907C597.335 242.673 596.754 242.337 596.285 241.899L596.781 240.875C597.303 241.302 597.842 241.611 598.397 241.803C598.951 241.995 599.549 242.091 600.189 242.091C601.031 242.091 601.671 241.915 602.109 241.563C602.546 241.201 602.765 240.673 602.765 239.979C602.765 239.318 602.541 238.817 602.093 238.475C601.645 238.123 600.989 237.947 600.125 237.947H598.429V236.843H600.013C600.759 236.843 601.351 236.651 601.789 236.267C602.226 235.883 602.445 235.361 602.445 234.699C602.445 234.102 602.242 233.649 601.837 233.339C601.442 233.019 600.871 232.859 600.125 232.859C598.909 232.859 597.858 233.291 596.973 234.155L596.477 233.115C596.914 232.667 597.463 232.321 598.125 232.075C598.786 231.819 599.479 231.691 600.205 231.691C601.314 231.691 602.183 231.947 602.813 232.459C603.442 232.971 603.757 233.681 603.757 234.587C603.757 235.281 603.559 235.878 603.165 236.379C602.77 236.87 602.237 237.206 601.565 237.387V237.211C602.365 237.339 602.983 237.659 603.421 238.171C603.858 238.673 604.077 239.307 604.077 240.075C604.077 241.057 603.73 241.835 603.037 242.411C602.354 242.977 601.41 243.259 600.205 243.259ZM606.743 244.939L606.135 244.475C606.423 244.177 606.609 243.894 606.695 243.627C606.791 243.371 606.839 243.11 606.839 242.843L607.127 243.115H606.071V241.483H607.703V242.635C607.703 243.062 607.633 243.462 607.495 243.835C607.356 244.219 607.105 244.587 606.743 244.939ZM614.251 243.115V242.123L618.251 237.947C618.774 237.403 619.163 236.886 619.419 236.395C619.686 235.894 619.819 235.377 619.819 234.843C619.819 234.193 619.616 233.702 619.211 233.371C618.806 233.03 618.219 232.859 617.451 232.859C616.854 232.859 616.299 232.966 615.787 233.179C615.286 233.382 614.8 233.707 614.331 234.155L613.851 233.115C614.278 232.689 614.822 232.347 615.483 232.091C616.144 231.825 616.843 231.691 617.579 231.691C618.72 231.691 619.6 231.958 620.219 232.491C620.838 233.014 621.147 233.761 621.147 234.731C621.147 235.446 620.971 236.129 620.619 236.779C620.278 237.419 619.776 238.081 619.115 238.763L615.579 242.347V241.979H621.627V243.115H614.251ZM627.269 243.259C625.989 243.259 625.007 242.763 624.325 241.771C623.642 240.779 623.301 239.345 623.301 237.467C623.301 235.579 623.642 234.145 624.325 233.163C625.007 232.182 625.989 231.691 627.269 231.691C628.559 231.691 629.541 232.182 630.213 233.163C630.895 234.145 631.237 235.574 631.237 237.451C631.237 239.339 630.895 240.779 630.213 241.771C629.53 242.763 628.549 243.259 627.269 243.259ZM627.269 242.107C628.165 242.107 628.831 241.729 629.269 240.971C629.706 240.214 629.925 239.041 629.925 237.451C629.925 235.851 629.706 234.683 629.269 233.947C628.831 233.201 628.165 232.827 627.269 232.827C626.383 232.827 625.717 233.201 625.269 233.947C624.831 234.694 624.613 235.862 624.613 237.451C624.613 239.041 624.831 240.214 625.269 240.971C625.717 241.729 626.383 242.107 627.269 242.107ZM633.439 243.115V242.123L637.439 237.947C637.961 237.403 638.351 236.886 638.607 236.395C638.873 235.894 639.007 235.377 639.007 234.843C639.007 234.193 638.804 233.702 638.399 233.371C637.993 233.03 637.407 232.859 636.639 232.859C636.041 232.859 635.487 232.966 634.975 233.179C634.473 233.382 633.988 233.707 633.519 234.155L633.039 233.115C633.465 232.689 634.009 232.347 634.671 232.091C635.332 231.825 636.031 231.691 636.766 231.691C637.908 231.691 638.788 231.958 639.407 232.491C640.025 233.014 640.335 233.761 640.335 234.731C640.335 235.446 640.159 236.129 639.807 236.779C639.465 237.419 638.964 238.081 638.303 238.763L634.767 242.347V241.979H640.815V243.115H633.439ZM643.032 243.115V242.123L647.032 237.947C647.555 237.403 647.944 236.886 648.2 236.395C648.467 235.894 648.6 235.377 648.6 234.843C648.6 234.193 648.398 233.702 647.992 233.371C647.587 233.03 647 232.859 646.232 232.859C645.635 232.859 645.08 232.966 644.568 233.179C644.067 233.382 643.582 233.707 643.112 234.155L642.632 233.115C643.059 232.689 643.603 232.347 644.264 232.091C644.926 231.825 645.624 231.691 646.36 231.691C647.502 231.691 648.382 231.958 649 232.491C649.619 233.014 649.928 233.761 649.928 234.731C649.928 235.446 649.752 236.129 649.4 236.779C649.059 237.419 648.558 238.081 647.896 238.763L644.36 242.347V241.979H650.408V243.115H643.032ZM354.365 263.259C353.597 263.259 352.925 263.094 352.349 262.763C351.783 262.422 351.346 261.942 351.037 261.323C350.727 260.694 350.573 259.953 350.573 259.099C350.573 258.235 350.727 257.494 351.037 256.875C351.346 256.257 351.783 255.782 352.349 255.451C352.925 255.11 353.597 254.939 354.365 254.939C355.143 254.939 355.815 255.11 356.381 255.451C356.957 255.782 357.399 256.257 357.709 256.875C358.029 257.494 358.189 258.235 358.189 259.099C358.189 259.953 358.029 260.694 357.709 261.323C357.399 261.942 356.957 262.422 356.381 262.763C355.815 263.094 355.143 263.259 354.365 263.259ZM354.365 262.203C355.133 262.203 355.741 261.942 356.189 261.419C356.637 260.886 356.861 260.113 356.861 259.099C356.861 258.075 356.631 257.302 356.173 256.779C355.725 256.246 355.122 255.979 354.365 255.979C353.607 255.979 353.005 256.246 352.557 256.779C352.109 257.302 351.885 258.075 351.885 259.099C351.885 260.113 352.109 260.886 352.557 261.419C353.005 261.942 353.607 262.203 354.365 262.203ZM360.177 263.115V257.019C360.177 256.699 360.167 256.374 360.145 256.043C360.135 255.713 360.113 255.393 360.081 255.083H361.329L361.489 257.035L361.265 257.051C361.372 256.571 361.559 256.177 361.825 255.867C362.092 255.558 362.407 255.329 362.769 255.179C363.132 255.019 363.511 254.939 363.905 254.939C364.065 254.939 364.204 254.945 364.321 254.955C364.449 254.966 364.567 254.993 364.673 255.035L364.657 256.187C364.497 256.134 364.348 256.102 364.209 256.091C364.081 256.07 363.932 256.059 363.761 256.059C363.292 256.059 362.881 256.171 362.529 256.395C362.188 256.619 361.927 256.907 361.745 257.259C361.575 257.611 361.489 257.985 361.489 258.379V263.115H360.177ZM370.162 263.115V257.019C370.162 256.699 370.151 256.374 370.13 256.043C370.119 255.713 370.098 255.393 370.066 255.083H371.314L371.474 257.035L371.25 257.051C371.356 256.571 371.543 256.177 371.81 255.867C372.076 255.558 372.391 255.329 372.754 255.179C373.116 255.019 373.495 254.939 373.89 254.939C374.05 254.939 374.188 254.945 374.306 254.955C374.434 254.966 374.551 254.993 374.658 255.035L374.642 256.187C374.482 256.134 374.332 256.102 374.194 256.091C374.066 256.07 373.916 256.059 373.746 256.059C373.276 256.059 372.866 256.171 372.514 256.395C372.172 256.619 371.911 256.907 371.73 257.259C371.559 257.611 371.474 257.985 371.474 258.379V263.115H370.162ZM379.48 263.259C378.222 263.259 377.23 262.897 376.504 262.171C375.779 261.435 375.416 260.417 375.416 259.115C375.416 258.273 375.576 257.542 375.896 256.923C376.216 256.294 376.664 255.809 377.24 255.467C377.816 255.115 378.478 254.939 379.224 254.939C379.96 254.939 380.579 255.094 381.08 255.403C381.582 255.713 381.966 256.155 382.232 256.731C382.499 257.297 382.632 257.969 382.632 258.747V259.227H376.408V258.411H381.784L381.512 258.619C381.512 257.766 381.32 257.099 380.936 256.619C380.552 256.139 379.982 255.899 379.224 255.899C378.424 255.899 377.8 256.182 377.352 256.747C376.904 257.302 376.68 258.054 376.68 259.003V259.147C376.68 260.15 376.926 260.913 377.416 261.435C377.918 261.947 378.616 262.203 379.512 262.203C379.992 262.203 380.44 262.134 380.856 261.995C381.283 261.846 381.688 261.606 382.072 261.275L382.52 262.187C382.168 262.529 381.72 262.795 381.176 262.987C380.643 263.169 380.078 263.259 379.48 263.259ZM388.152 266.683C387.458 266.683 386.818 266.598 386.232 266.427C385.645 266.257 385.117 265.995 384.648 265.643L385.032 264.667C385.362 264.902 385.688 265.089 386.008 265.227C386.328 265.366 386.658 265.467 387 265.531C387.341 265.606 387.704 265.643 388.088 265.643C388.877 265.643 389.474 265.435 389.88 265.019C390.285 264.603 390.488 264.011 390.488 263.243V260.891H390.648C390.477 261.521 390.125 262.022 389.592 262.395C389.058 262.758 388.434 262.939 387.72 262.939C386.984 262.939 386.344 262.779 385.8 262.459C385.266 262.129 384.85 261.665 384.552 261.067C384.264 260.459 384.12 259.745 384.12 258.923C384.12 258.113 384.264 257.409 384.552 256.811C384.85 256.214 385.266 255.755 385.8 255.435C386.344 255.105 386.984 254.939 387.72 254.939C388.445 254.939 389.069 255.121 389.592 255.483C390.125 255.846 390.477 256.347 390.648 256.987L390.488 256.827L390.632 255.083H391.896C391.853 255.393 391.821 255.707 391.8 256.027C391.778 256.337 391.768 256.641 391.768 256.939V263.067C391.768 264.262 391.458 265.163 390.84 265.771C390.232 266.379 389.336 266.683 388.152 266.683ZM387.96 261.883C388.738 261.883 389.352 261.627 389.8 261.115C390.248 260.593 390.472 259.862 390.472 258.923C390.472 257.985 390.248 257.259 389.8 256.747C389.352 256.235 388.738 255.979 387.96 255.979C387.192 255.979 386.578 256.235 386.12 256.747C385.661 257.259 385.432 257.985 385.432 258.923C385.432 259.862 385.661 260.593 386.12 261.115C386.578 261.627 387.192 261.883 387.96 261.883ZM394.256 263.115V255.083H395.552V263.115H394.256ZM394.096 253.259V251.803H395.696V253.259H394.096ZM400.741 263.259C400.101 263.259 399.503 263.174 398.949 263.003C398.394 262.822 397.935 262.571 397.573 262.251L398.021 261.339C398.415 261.649 398.842 261.878 399.301 262.027C399.77 262.177 400.255 262.251 400.757 262.251C401.397 262.251 401.877 262.139 402.197 261.915C402.527 261.681 402.693 261.361 402.693 260.955C402.693 260.646 402.586 260.401 402.373 260.219C402.17 260.027 401.834 259.878 401.365 259.771L399.877 259.467C399.194 259.318 398.682 259.067 398.341 258.715C397.999 258.353 397.829 257.894 397.829 257.339C397.829 256.87 397.951 256.459 398.197 256.107C398.442 255.745 398.799 255.462 399.269 255.259C399.738 255.046 400.287 254.939 400.917 254.939C401.503 254.939 402.042 255.03 402.533 255.211C403.034 255.382 403.45 255.633 403.781 255.963L403.317 256.859C402.997 256.55 402.629 256.321 402.213 256.171C401.807 256.011 401.386 255.931 400.949 255.931C400.319 255.931 399.845 256.059 399.525 256.315C399.215 256.561 399.061 256.886 399.061 257.291C399.061 257.601 399.157 257.857 399.349 258.059C399.551 258.251 399.861 258.395 400.277 258.491L401.765 258.795C402.49 258.955 403.029 259.206 403.381 259.547C403.743 259.878 403.925 260.326 403.925 260.891C403.925 261.371 403.791 261.793 403.525 262.155C403.258 262.507 402.885 262.779 402.405 262.971C401.935 263.163 401.381 263.259 400.741 263.259ZM408.776 263.259C407.987 263.259 407.384 263.035 406.968 262.587C406.552 262.129 406.344 261.441 406.344 260.523V256.091H404.776V255.083H406.344V252.891L407.64 252.523V255.083H409.944V256.091H407.64V260.379C407.64 261.019 407.747 261.478 407.96 261.755C408.184 262.022 408.515 262.155 408.952 262.155C409.155 262.155 409.336 262.139 409.496 262.107C409.656 262.065 409.8 262.017 409.928 261.963V263.051C409.779 263.115 409.597 263.163 409.384 263.195C409.181 263.238 408.979 263.259 408.776 263.259ZM415.012 263.259C413.753 263.259 412.761 262.897 412.036 262.171C411.31 261.435 410.948 260.417 410.948 259.115C410.948 258.273 411.108 257.542 411.428 256.923C411.748 256.294 412.196 255.809 412.772 255.467C413.348 255.115 414.009 254.939 414.756 254.939C415.492 254.939 416.11 255.094 416.612 255.403C417.113 255.713 417.497 256.155 417.764 256.731C418.03 257.297 418.164 257.969 418.164 258.747V259.227H411.94V258.411H417.316L417.044 258.619C417.044 257.766 416.852 257.099 416.468 256.619C416.084 256.139 415.513 255.899 414.756 255.899C413.956 255.899 413.332 256.182 412.884 256.747C412.436 257.302 412.212 258.054 412.212 259.003V259.147C412.212 260.15 412.457 260.913 412.948 261.435C413.449 261.947 414.148 262.203 415.044 262.203C415.524 262.203 415.972 262.134 416.388 261.995C416.814 261.846 417.22 261.606 417.604 261.275L418.052 262.187C417.7 262.529 417.252 262.795 416.708 262.987C416.174 263.169 415.609 263.259 415.012 263.259ZM420.115 263.115V257.019C420.115 256.699 420.104 256.374 420.083 256.043C420.072 255.713 420.051 255.393 420.019 255.083H421.267L421.427 257.035L421.203 257.051C421.309 256.571 421.496 256.177 421.763 255.867C422.029 255.558 422.344 255.329 422.707 255.179C423.069 255.019 423.448 254.939 423.843 254.939C424.003 254.939 424.141 254.945 424.259 254.955C424.387 254.966 424.504 254.993 424.611 255.035L424.595 256.187C424.435 256.134 424.285 256.102 424.147 256.091C424.019 256.07 423.869 256.059 423.699 256.059C423.229 256.059 422.819 256.171 422.467 256.395C422.125 256.619 421.864 256.907 421.683 257.259C421.512 257.611 421.427 257.985 421.427 258.379V263.115H420.115ZM425.959 263.115V255.083H427.255V263.115H425.959ZM425.799 253.259V251.803H427.399V253.259H425.799ZM429.772 263.115V256.939C429.772 256.641 429.756 256.337 429.724 256.027C429.702 255.707 429.676 255.393 429.644 255.083H430.892L431.052 256.843H430.86C431.094 256.225 431.468 255.755 431.98 255.435C432.502 255.105 433.105 254.939 433.788 254.939C434.737 254.939 435.452 255.195 435.932 255.707C436.422 256.209 436.668 257.003 436.668 258.091V263.115H435.372V258.171C435.372 257.414 435.217 256.865 434.908 256.523C434.609 256.171 434.14 255.995 433.5 255.995C432.753 255.995 432.161 256.225 431.724 256.683C431.286 257.142 431.068 257.755 431.068 258.523V263.115H429.772ZM442.683 266.683C441.989 266.683 441.349 266.598 440.763 266.427C440.176 266.257 439.648 265.995 439.179 265.643L439.563 264.667C439.893 264.902 440.219 265.089 440.539 265.227C440.859 265.366 441.189 265.467 441.531 265.531C441.872 265.606 442.235 265.643 442.619 265.643C443.408 265.643 444.005 265.435 444.411 265.019C444.816 264.603 445.019 264.011 445.019 263.243V260.891H445.179C445.008 261.521 444.656 262.022 444.123 262.395C443.589 262.758 442.965 262.939 442.251 262.939C441.515 262.939 440.875 262.779 440.331 262.459C439.797 262.129 439.381 261.665 439.083 261.067C438.795 260.459 438.651 259.745 438.651 258.923C438.651 258.113 438.795 257.409 439.083 256.811C439.381 256.214 439.797 255.755 440.331 255.435C440.875 255.105 441.515 254.939 442.251 254.939C442.976 254.939 443.6 255.121 444.123 255.483C444.656 255.846 445.008 256.347 445.179 256.987L445.019 256.827L445.163 255.083H446.427C446.384 255.393 446.352 255.707 446.331 256.027C446.309 256.337 446.299 256.641 446.299 256.939V263.067C446.299 264.262 445.989 265.163 445.371 265.771C444.763 266.379 443.867 266.683 442.683 266.683ZM442.491 261.883C443.269 261.883 443.883 261.627 444.331 261.115C444.779 260.593 445.003 259.862 445.003 258.923C445.003 257.985 444.779 257.259 444.331 256.747C443.883 256.235 443.269 255.979 442.491 255.979C441.723 255.979 441.109 256.235 440.651 256.747C440.192 257.259 439.963 257.985 439.963 258.923C439.963 259.862 440.192 260.593 440.651 261.115C441.109 261.627 441.723 261.883 442.491 261.883ZM452.959 263.115V255.083H454.255V263.115H452.959ZM452.799 253.259V251.803H454.399V253.259H452.799ZM456.772 263.115V256.939C456.772 256.641 456.756 256.337 456.724 256.027C456.702 255.707 456.676 255.393 456.644 255.083H457.892L458.052 256.843H457.86C458.094 256.225 458.468 255.755 458.98 255.435C459.502 255.105 460.105 254.939 460.788 254.939C461.737 254.939 462.452 255.195 462.932 255.707C463.422 256.209 463.668 257.003 463.668 258.091V263.115H462.372V258.171C462.372 257.414 462.217 256.865 461.908 256.523C461.609 256.171 461.14 255.995 460.5 255.995C459.753 255.995 459.161 256.225 458.724 256.683C458.286 257.142 458.068 257.755 458.068 258.523V263.115H456.772ZM473.855 266.683C473.161 266.683 472.521 266.598 471.935 266.427C471.348 266.257 470.82 265.995 470.351 265.643L470.735 264.667C471.065 264.902 471.391 265.089 471.711 265.227C472.031 265.366 472.361 265.467 472.703 265.531C473.044 265.606 473.407 265.643 473.791 265.643C474.58 265.643 475.177 265.435 475.583 265.019C475.988 264.603 476.191 264.011 476.191 263.243V260.891H476.351C476.18 261.521 475.828 262.022 475.295 262.395C474.761 262.758 474.137 262.939 473.423 262.939C472.687 262.939 472.047 262.779 471.503 262.459C470.969 262.129 470.553 261.665 470.255 261.067C469.967 260.459 469.823 259.745 469.823 258.923C469.823 258.113 469.967 257.409 470.255 256.811C470.553 256.214 470.969 255.755 471.503 255.435C472.047 255.105 472.687 254.939 473.423 254.939C474.148 254.939 474.772 255.121 475.295 255.483C475.828 255.846 476.18 256.347 476.351 256.987L476.191 256.827L476.335 255.083H477.599C477.556 255.393 477.524 255.707 477.503 256.027C477.481 256.337 477.471 256.641 477.471 256.939V263.067C477.471 264.262 477.161 265.163 476.543 265.771C475.935 266.379 475.039 266.683 473.855 266.683ZM473.663 261.883C474.441 261.883 475.055 261.627 475.503 261.115C475.951 260.593 476.175 259.862 476.175 258.923C476.175 257.985 475.951 257.259 475.503 256.747C475.055 256.235 474.441 255.979 473.663 255.979C472.895 255.979 472.281 256.235 471.823 256.747C471.364 257.259 471.135 257.985 471.135 258.923C471.135 259.862 471.364 260.593 471.823 261.115C472.281 261.627 472.895 261.883 473.663 261.883ZM479.927 263.115V257.019C479.927 256.699 479.917 256.374 479.895 256.043C479.885 255.713 479.863 255.393 479.831 255.083H481.079L481.239 257.035L481.015 257.051C481.122 256.571 481.309 256.177 481.575 255.867C481.842 255.558 482.157 255.329 482.519 255.179C482.882 255.019 483.261 254.939 483.655 254.939C483.815 254.939 483.954 254.945 484.071 254.955C484.199 254.966 484.317 254.993 484.423 255.035L484.407 256.187C484.247 256.134 484.098 256.102 483.959 256.091C483.831 256.07 483.682 256.059 483.511 256.059C483.042 256.059 482.631 256.171 482.279 256.395C481.938 256.619 481.677 256.907 481.495 257.259C481.325 257.611 481.239 257.985 481.239 258.379V263.115H479.927ZM488.974 263.259C488.206 263.259 487.534 263.094 486.958 262.763C486.393 262.422 485.955 261.942 485.646 261.323C485.337 260.694 485.182 259.953 485.182 259.099C485.182 258.235 485.337 257.494 485.646 256.875C485.955 256.257 486.393 255.782 486.958 255.451C487.534 255.11 488.206 254.939 488.974 254.939C489.753 254.939 490.425 255.11 490.99 255.451C491.566 255.782 492.009 256.257 492.318 256.875C492.638 257.494 492.798 258.235 492.798 259.099C492.798 259.953 492.638 260.694 492.318 261.323C492.009 261.942 491.566 262.422 490.99 262.763C490.425 263.094 489.753 263.259 488.974 263.259ZM488.974 262.203C489.742 262.203 490.35 261.942 490.798 261.419C491.246 260.886 491.47 260.113 491.47 259.099C491.47 258.075 491.241 257.302 490.782 256.779C490.334 256.246 489.731 255.979 488.974 255.979C488.217 255.979 487.614 256.246 487.166 256.779C486.718 257.302 486.494 258.075 486.494 259.099C486.494 260.113 486.718 260.886 487.166 261.419C487.614 261.942 488.217 262.203 488.974 262.203ZM497.651 263.259C496.701 263.259 495.981 262.998 495.491 262.475C495.011 261.953 494.771 261.153 494.771 260.075V255.083H496.067V260.043C496.067 260.779 496.216 261.323 496.515 261.675C496.813 262.017 497.277 262.187 497.907 262.187C498.611 262.187 499.176 261.958 499.603 261.499C500.029 261.041 500.243 260.427 500.243 259.659V255.083H501.539V263.115H500.275V261.307H500.483C500.259 261.926 499.896 262.406 499.395 262.747C498.904 263.089 498.323 263.259 497.651 263.259ZM504.053 266.571V256.939C504.053 256.641 504.037 256.337 504.005 256.027C503.984 255.707 503.957 255.393 503.925 255.083H505.173L505.349 256.987H505.157C505.328 256.358 505.674 255.862 506.197 255.499C506.72 255.126 507.344 254.939 508.069 254.939C508.794 254.939 509.418 255.105 509.941 255.435C510.474 255.766 510.89 256.241 511.189 256.859C511.488 257.478 511.637 258.225 511.637 259.099C511.637 259.963 511.488 260.705 511.189 261.323C510.901 261.942 510.49 262.422 509.957 262.763C509.424 263.094 508.794 263.259 508.069 263.259C507.354 263.259 506.736 263.078 506.213 262.715C505.69 262.353 505.344 261.857 505.173 261.227H505.349V266.571H504.053ZM507.813 262.203C508.581 262.203 509.189 261.942 509.637 261.419C510.096 260.886 510.325 260.113 510.325 259.099C510.325 258.075 510.096 257.302 509.637 256.779C509.189 256.246 508.581 255.979 507.813 255.979C507.056 255.979 506.448 256.246 505.989 256.779C505.541 257.302 505.317 258.075 505.317 259.099C505.317 260.113 505.541 260.886 505.989 261.419C506.448 261.942 507.056 262.203 507.813 262.203ZM521.115 263.259C520.347 263.259 519.675 263.094 519.099 262.763C518.533 262.422 518.096 261.942 517.787 261.323C517.477 260.694 517.323 259.953 517.323 259.099C517.323 258.235 517.477 257.494 517.787 256.875C518.096 256.257 518.533 255.782 519.099 255.451C519.675 255.11 520.347 254.939 521.115 254.939C521.893 254.939 522.565 255.11 523.131 255.451C523.707 255.782 524.149 256.257 524.459 256.875C524.779 257.494 524.939 258.235 524.939 259.099C524.939 259.953 524.779 260.694 524.459 261.323C524.149 261.942 523.707 262.422 523.131 262.763C522.565 263.094 521.893 263.259 521.115 263.259ZM521.115 262.203C521.883 262.203 522.491 261.942 522.939 261.419C523.387 260.886 523.611 260.113 523.611 259.099C523.611 258.075 523.381 257.302 522.923 256.779C522.475 256.246 521.872 255.979 521.115 255.979C520.357 255.979 519.755 256.246 519.307 256.779C518.859 257.302 518.635 258.075 518.635 259.099C518.635 260.113 518.859 260.886 519.307 261.419C519.755 261.942 520.357 262.203 521.115 262.203ZM527.297 263.115V256.091H525.729V255.083H527.649L527.297 255.419V254.075C527.297 253.169 527.527 252.475 527.985 251.995C528.444 251.515 529.1 251.275 529.953 251.275C530.167 251.275 530.385 251.297 530.609 251.339C530.844 251.371 531.036 251.419 531.185 251.483V252.555C531.057 252.502 530.897 252.459 530.705 252.427C530.524 252.385 530.337 252.363 530.145 252.363C529.815 252.363 529.532 252.433 529.297 252.571C529.063 252.699 528.887 252.897 528.769 253.163C528.652 253.43 528.593 253.771 528.593 254.187V255.355L528.385 255.083H530.833V256.091H528.593V263.115H527.297ZM539.307 263.259C538.518 263.259 537.915 263.035 537.499 262.587C537.083 262.129 536.875 261.441 536.875 260.523V256.091H535.307V255.083H536.875V252.891L538.171 252.523V255.083H540.475V256.091H538.171V260.379C538.171 261.019 538.278 261.478 538.491 261.755C538.715 262.022 539.046 262.155 539.483 262.155C539.686 262.155 539.867 262.139 540.027 262.107C540.187 262.065 540.331 262.017 540.459 261.963V263.051C540.31 263.115 540.129 263.163 539.915 263.195C539.713 263.238 539.51 263.259 539.307 263.259ZM542.053 263.115V251.339H543.349V256.859H543.141C543.365 256.23 543.738 255.755 544.261 255.435C544.794 255.105 545.408 254.939 546.101 254.939C547.061 254.939 547.776 255.201 548.245 255.723C548.714 256.235 548.949 257.014 548.949 258.059V263.115H547.653V258.139C547.653 257.393 547.504 256.849 547.205 256.507C546.917 256.166 546.448 255.995 545.797 255.995C545.05 255.995 544.453 256.225 544.005 256.683C543.568 257.142 543.349 257.745 543.349 258.491V263.115H542.053ZM551.396 263.115V257.019C551.396 256.699 551.385 256.374 551.364 256.043C551.353 255.713 551.332 255.393 551.3 255.083H552.548L552.708 257.035L552.484 257.051C552.591 256.571 552.777 256.177 553.044 255.867C553.311 255.558 553.625 255.329 553.988 255.179C554.351 255.019 554.729 254.939 555.124 254.939C555.284 254.939 555.423 254.945 555.54 254.955C555.668 254.966 555.785 254.993 555.892 255.035L555.876 256.187C555.716 256.134 555.567 256.102 555.428 256.091C555.3 256.07 555.151 256.059 554.98 256.059C554.511 256.059 554.1 256.171 553.748 256.395C553.407 256.619 553.145 256.907 552.964 257.259C552.793 257.611 552.708 257.985 552.708 258.379V263.115H551.396ZM560.715 263.259C559.456 263.259 558.464 262.897 557.739 262.171C557.013 261.435 556.651 260.417 556.651 259.115C556.651 258.273 556.811 257.542 557.131 256.923C557.451 256.294 557.899 255.809 558.475 255.467C559.051 255.115 559.712 254.939 560.459 254.939C561.195 254.939 561.813 255.094 562.315 255.403C562.816 255.713 563.2 256.155 563.467 256.731C563.733 257.297 563.867 257.969 563.867 258.747V259.227H557.643V258.411H563.019L562.747 258.619C562.747 257.766 562.555 257.099 562.171 256.619C561.787 256.139 561.216 255.899 560.459 255.899C559.659 255.899 559.035 256.182 558.587 256.747C558.139 257.302 557.915 258.054 557.915 259.003V259.147C557.915 260.15 558.16 260.913 558.651 261.435C559.152 261.947 559.851 262.203 560.747 262.203C561.227 262.203 561.675 262.134 562.091 261.995C562.517 261.846 562.923 261.606 563.307 261.275L563.755 262.187C563.403 262.529 562.955 262.795 562.411 262.987C561.877 263.169 561.312 263.259 560.715 263.259ZM569.418 263.259C568.159 263.259 567.167 262.897 566.442 262.171C565.717 261.435 565.354 260.417 565.354 259.115C565.354 258.273 565.514 257.542 565.834 256.923C566.154 256.294 566.602 255.809 567.178 255.467C567.754 255.115 568.415 254.939 569.162 254.939C569.898 254.939 570.517 255.094 571.018 255.403C571.519 255.713 571.903 256.155 572.17 256.731C572.437 257.297 572.57 257.969 572.57 258.747V259.227H566.346V258.411H571.722L571.45 258.619C571.45 257.766 571.258 257.099 570.874 256.619C570.49 256.139 569.919 255.899 569.162 255.899C568.362 255.899 567.738 256.182 567.29 256.747C566.842 257.302 566.618 258.054 566.618 259.003V259.147C566.618 260.15 566.863 260.913 567.354 261.435C567.855 261.947 568.554 262.203 569.45 262.203C569.93 262.203 570.378 262.134 570.794 261.995C571.221 261.846 571.626 261.606 572.01 261.275L572.458 262.187C572.106 262.529 571.658 262.795 571.114 262.987C570.581 263.169 570.015 263.259 569.418 263.259ZM582.021 263.259C581.253 263.259 580.581 263.094 580.005 262.763C579.44 262.422 579.002 261.942 578.693 261.323C578.384 260.694 578.229 259.953 578.229 259.099C578.229 258.235 578.384 257.494 578.693 256.875C579.002 256.257 579.44 255.782 580.005 255.451C580.581 255.11 581.253 254.939 582.021 254.939C582.8 254.939 583.472 255.11 584.037 255.451C584.613 255.782 585.056 256.257 585.365 256.875C585.685 257.494 585.845 258.235 585.845 259.099C585.845 259.953 585.685 260.694 585.365 261.323C585.056 261.942 584.613 262.422 584.037 262.763C583.472 263.094 582.8 263.259 582.021 263.259ZM582.021 262.203C582.789 262.203 583.397 261.942 583.845 261.419C584.293 260.886 584.517 260.113 584.517 259.099C584.517 258.075 584.288 257.302 583.829 256.779C583.381 256.246 582.778 255.979 582.021 255.979C581.264 255.979 580.661 256.246 580.213 256.779C579.765 257.302 579.541 258.075 579.541 259.099C579.541 260.113 579.765 260.886 580.213 261.419C580.661 261.942 581.264 262.203 582.021 262.203ZM587.834 263.115V257.019C587.834 256.699 587.823 256.374 587.802 256.043C587.791 255.713 587.77 255.393 587.738 255.083H588.986L589.146 257.035L588.922 257.051C589.028 256.571 589.215 256.177 589.482 255.867C589.748 255.558 590.063 255.329 590.426 255.179C590.788 255.019 591.167 254.939 591.562 254.939C591.722 254.939 591.86 254.945 591.978 254.955C592.106 254.966 592.223 254.993 592.33 255.035L592.314 256.187C592.154 256.134 592.004 256.102 591.866 256.091C591.738 256.07 591.588 256.059 591.418 256.059C590.948 256.059 590.538 256.171 590.186 256.395C589.844 256.619 589.583 256.907 589.402 257.259C589.231 257.611 589.146 257.985 589.146 258.379V263.115H587.834ZM597.85 263.115V256.939C597.85 256.641 597.834 256.337 597.802 256.027C597.781 255.707 597.754 255.393 597.722 255.083H598.97L599.13 256.843H598.938C599.151 256.235 599.487 255.766 599.946 255.435C600.415 255.105 600.981 254.939 601.642 254.939C602.314 254.939 602.858 255.099 603.274 255.419C603.701 255.739 603.989 256.235 604.138 256.907H603.898C604.101 256.299 604.458 255.819 604.97 255.467C605.482 255.115 606.079 254.939 606.762 254.939C607.647 254.939 608.314 255.195 608.762 255.707C609.21 256.209 609.434 257.003 609.434 258.091V263.115H608.138V258.171C608.138 257.414 608.005 256.865 607.738 256.523C607.471 256.171 607.045 255.995 606.458 255.995C605.786 255.995 605.253 256.23 604.858 256.699C604.474 257.158 604.282 257.777 604.282 258.555V263.115H602.986V258.171C602.986 257.414 602.853 256.865 602.586 256.523C602.319 256.171 601.893 255.995 601.306 255.995C600.634 255.995 600.106 256.23 599.722 256.699C599.338 257.158 599.146 257.777 599.146 258.555V263.115H597.85ZM615.193 263.259C614.425 263.259 613.753 263.094 613.177 262.763C612.611 262.422 612.174 261.942 611.865 261.323C611.555 260.694 611.401 259.953 611.401 259.099C611.401 258.235 611.555 257.494 611.865 256.875C612.174 256.257 612.611 255.782 613.177 255.451C613.753 255.11 614.425 254.939 615.193 254.939C615.971 254.939 616.643 255.11 617.209 255.451C617.785 255.782 618.227 256.257 618.537 256.875C618.857 257.494 619.017 258.235 619.017 259.099C619.017 259.953 618.857 260.694 618.537 261.323C618.227 261.942 617.785 262.422 617.209 262.763C616.643 263.094 615.971 263.259 615.193 263.259ZM615.193 262.203C615.961 262.203 616.569 261.942 617.017 261.419C617.465 260.886 617.689 260.113 617.689 259.099C617.689 258.075 617.459 257.302 617.001 256.779C616.553 256.246 615.95 255.979 615.193 255.979C614.435 255.979 613.833 256.246 613.385 256.779C612.937 257.302 612.713 258.075 612.713 259.099C612.713 260.113 612.937 260.886 613.385 261.419C613.833 261.942 614.435 262.203 615.193 262.203ZM621.005 263.115V257.019C621.005 256.699 620.995 256.374 620.973 256.043C620.963 255.713 620.941 255.393 620.909 255.083H622.157L622.317 257.035L622.093 257.051C622.2 256.571 622.387 256.177 622.653 255.867C622.92 255.558 623.235 255.329 623.597 255.179C623.96 255.019 624.339 254.939 624.733 254.939C624.893 254.939 625.032 254.945 625.149 254.955C625.277 254.966 625.395 254.993 625.501 255.035L625.485 256.187C625.325 256.134 625.176 256.102 625.037 256.091C624.909 256.07 624.76 256.059 624.589 256.059C624.12 256.059 623.709 256.171 623.357 256.395C623.016 256.619 622.755 256.907 622.573 257.259C622.403 257.611 622.317 257.985 622.317 258.379V263.115H621.005ZM630.324 263.259C629.066 263.259 628.074 262.897 627.348 262.171C626.623 261.435 626.26 260.417 626.26 259.115C626.26 258.273 626.42 257.542 626.74 256.923C627.06 256.294 627.508 255.809 628.084 255.467C628.66 255.115 629.322 254.939 630.068 254.939C630.804 254.939 631.423 255.094 631.924 255.403C632.426 255.713 632.81 256.155 633.076 256.731C633.343 257.297 633.476 257.969 633.476 258.747V259.227H627.252V258.411H632.628L632.356 258.619C632.356 257.766 632.164 257.099 631.78 256.619C631.396 256.139 630.826 255.899 630.068 255.899C629.268 255.899 628.644 256.182 628.196 256.747C627.748 257.302 627.524 258.054 627.524 259.003V259.147C627.524 260.15 627.77 260.913 628.26 261.435C628.762 261.947 629.46 262.203 630.356 262.203C630.836 262.203 631.284 262.134 631.7 261.995C632.127 261.846 632.532 261.606 632.916 261.275L633.364 262.187C633.012 262.529 632.564 262.795 632.02 262.987C631.487 263.169 630.922 263.259 630.324 263.259Z" fill="#005AAA"/>
<path d="M351.344 350.115V344.896L366.156 328.74C367.76 326.928 369.021 325.365 369.938 324.053C370.854 322.74 371.5 321.542 371.875 320.459C372.25 319.376 372.438 318.282 372.438 317.178C372.438 315.199 371.854 313.521 370.688 312.146C369.521 310.771 367.833 310.084 365.625 310.084C363.292 310.084 361.5 310.824 360.25 312.303C359 313.761 358.375 315.803 358.375 318.428H350.75L350.688 318.24C350.625 315.553 351.198 313.136 352.406 310.99C353.615 308.824 355.354 307.115 357.625 305.865C359.917 304.594 362.635 303.959 365.781 303.959C368.802 303.959 371.396 304.511 373.562 305.615C375.729 306.719 377.396 308.251 378.562 310.209C379.75 312.167 380.344 314.428 380.344 316.99C380.344 318.719 380.01 320.396 379.344 322.021C378.698 323.646 377.708 325.334 376.375 327.084C375.062 328.834 373.406 330.782 371.406 332.928L361.25 343.896L361.312 344.053H374.938L375.406 339.334H381.688V350.115H351.344ZM388.344 350.115V342.834H396.188V350.115H388.344ZM416.219 350.115V345.303L421.188 344.365V339.396H401.844L401.562 335.365L420.969 304.615H429.031V333.865H434.656V339.396H429.031V344.365L433.969 345.303V350.115H416.219ZM409.281 333.865H421.188V315.334L421 315.271L420.312 316.74L409.281 333.865ZM455 350.771C450.354 350.771 446.677 349.219 443.969 346.115C441.281 342.99 439.938 338.469 439.938 332.553V322.209C439.938 316.292 441.281 311.771 443.969 308.646C446.656 305.521 450.312 303.959 454.938 303.959C459.542 303.959 463.198 305.521 465.906 308.646C468.615 311.771 469.969 316.292 469.969 322.209V332.553C469.969 338.49 468.625 343.011 465.938 346.115C463.25 349.219 459.604 350.771 455 350.771ZM455 344.709C457.312 344.709 459.073 343.803 460.281 341.99C461.49 340.178 462.094 337.376 462.094 333.584V321.115C462.094 317.365 461.479 314.584 460.25 312.771C459.021 310.959 457.25 310.053 454.938 310.053C452.604 310.053 450.823 310.959 449.594 312.771C448.385 314.563 447.781 317.344 447.781 321.115V333.584C447.781 337.376 448.396 340.178 449.625 341.99C450.854 343.803 452.646 344.709 455 344.709ZM491.562 350.771C486.917 350.771 483.24 349.219 480.531 346.115C477.844 342.99 476.5 338.469 476.5 332.553V322.209C476.5 316.292 477.844 311.771 480.531 308.646C483.219 305.521 486.875 303.959 491.5 303.959C496.104 303.959 499.76 305.521 502.469 308.646C505.177 311.771 506.531 316.292 506.531 322.209V332.553C506.531 338.49 505.188 343.011 502.5 346.115C499.812 349.219 496.167 350.771 491.562 350.771ZM491.562 344.709C493.875 344.709 495.635 343.803 496.844 341.99C498.052 340.178 498.656 337.376 498.656 333.584V321.115C498.656 317.365 498.042 314.584 496.812 312.771C495.583 310.959 493.812 310.053 491.5 310.053C489.167 310.053 487.385 310.959 486.156 312.771C484.948 314.563 484.344 317.344 484.344 321.115V333.584C484.344 337.376 484.958 340.178 486.188 341.99C487.417 343.803 489.208 344.709 491.562 344.709ZM513.969 350.115V342.834H521.812V350.115H513.969ZM544.062 350.771C539.417 350.771 535.74 349.219 533.031 346.115C530.344 342.99 529 338.469 529 332.553V322.209C529 316.292 530.344 311.771 533.031 308.646C535.719 305.521 539.375 303.959 544 303.959C548.604 303.959 552.26 305.521 554.969 308.646C557.677 311.771 559.031 316.292 559.031 322.209V332.553C559.031 338.49 557.688 343.011 555 346.115C552.312 349.219 548.667 350.771 544.062 350.771ZM544.062 344.709C546.375 344.709 548.135 343.803 549.344 341.99C550.552 340.178 551.156 337.376 551.156 333.584V321.115C551.156 317.365 550.542 314.584 549.312 312.771C548.083 310.959 546.312 310.053 544 310.053C541.667 310.053 539.885 310.959 538.656 312.771C537.448 314.563 536.844 317.344 536.844 321.115V333.584C536.844 337.376 537.458 340.178 538.688 341.99C539.917 343.803 541.708 344.709 544.062 344.709ZM580.625 350.771C575.979 350.771 572.302 349.219 569.594 346.115C566.906 342.99 565.562 338.469 565.562 332.553V322.209C565.562 316.292 566.906 311.771 569.594 308.646C572.281 305.521 575.938 303.959 580.562 303.959C585.167 303.959 588.823 305.521 591.531 308.646C594.24 311.771 595.594 316.292 595.594 322.209V332.553C595.594 338.49 594.25 343.011 591.562 346.115C588.875 349.219 585.229 350.771 580.625 350.771ZM580.625 344.709C582.938 344.709 584.698 343.803 585.906 341.99C587.115 340.178 587.719 337.376 587.719 333.584V321.115C587.719 317.365 587.104 314.584 585.875 312.771C584.646 310.959 582.875 310.053 580.562 310.053C578.229 310.053 576.448 310.959 575.219 312.771C574.01 314.563 573.406 317.344 573.406 321.115V333.584C573.406 337.376 574.021 340.178 575.25 341.99C576.479 343.803 578.271 344.709 580.625 344.709ZM617.188 350.771C612.542 350.771 608.865 349.219 606.156 346.115C603.469 342.99 602.125 338.469 602.125 332.553V322.209C602.125 316.292 603.469 311.771 606.156 308.646C608.844 305.521 612.5 303.959 617.125 303.959C621.729 303.959 625.385 305.521 628.094 308.646C630.802 311.771 632.156 316.292 632.156 322.209V332.553C632.156 338.49 630.812 343.011 628.125 346.115C625.438 349.219 621.792 350.771 617.188 350.771ZM617.188 344.709C619.5 344.709 621.26 343.803 622.469 341.99C623.677 340.178 624.281 337.376 624.281 333.584V321.115C624.281 317.365 623.667 314.584 622.438 312.771C621.208 310.959 619.438 310.053 617.125 310.053C614.792 310.053 613.01 310.959 611.781 312.771C610.573 314.563 609.969 317.344 609.969 321.115V333.584C609.969 337.376 610.583 340.178 611.812 341.99C613.042 343.803 614.833 344.709 617.188 344.709Z" fill="#005AAA"/>
<path d="M497.331 395.115L489.963 378.195H492.099L498.651 393.531H497.907L504.507 378.195H506.571L499.155 395.115H497.331ZM508.76 395.115V378.195H510.32L521.168 392.595H520.616V378.195H522.464V395.115H520.928L510.08 380.715H510.608V395.115H508.76ZM526.69 395.115V378.195H532.306C534.178 378.195 535.762 378.523 537.058 379.179C538.354 379.819 539.338 380.771 540.01 382.035C540.682 383.283 541.018 384.819 541.018 386.643C541.018 388.451 540.682 389.987 540.01 391.251C539.338 392.515 538.354 393.475 537.058 394.131C535.762 394.787 534.178 395.115 532.306 395.115H526.69ZM528.682 393.411H532.162C534.466 393.411 536.178 392.851 537.298 391.731C538.418 390.595 538.978 388.899 538.978 386.643C538.978 384.371 538.418 382.675 537.298 381.555C536.178 380.435 534.466 379.875 532.162 379.875H528.682V393.411ZM524.626 387.291V385.755H533.434V387.291H524.626ZM543.401 396.435H541.721L548.009 377.163H549.689L543.401 396.435ZM561.614 395.115V379.875H555.638V378.195H569.558V379.875H563.606V395.115H561.614ZM571.995 395.115V378.195H573.987V395.115H571.995ZM585.574 395.331C583.878 395.331 582.438 394.979 581.254 394.275C580.07 393.571 579.158 392.571 578.518 391.275C577.894 389.979 577.582 388.435 577.582 386.643C577.582 384.851 577.894 383.315 578.518 382.035C579.158 380.739 580.07 379.739 581.254 379.035C582.438 378.331 583.878 377.979 585.574 377.979C586.774 377.979 587.846 378.163 588.79 378.531C589.734 378.899 590.558 379.435 591.262 380.139L590.518 381.723C589.75 381.051 588.99 380.563 588.238 380.259C587.486 379.939 586.606 379.779 585.598 379.779C583.662 379.779 582.19 380.379 581.182 381.579C580.174 382.779 579.67 384.467 579.67 386.643C579.67 388.819 580.174 390.515 581.182 391.731C582.19 392.931 583.662 393.531 585.598 393.531C586.606 393.531 587.486 393.379 588.238 393.075C588.99 392.755 589.75 392.251 590.518 391.563L591.262 393.171C590.558 393.859 589.734 394.395 588.79 394.779C587.846 395.147 586.774 395.331 585.574 395.331ZM594.612 395.115V378.195H596.604V385.875H596.652L604.764 378.195H607.308L597.972 386.931L597.996 385.923L607.98 395.115H605.364L596.652 387.147H596.604V395.115H594.612ZM609.823 395.115V378.195H620.623V379.827H611.767V385.707H620.095V387.363H611.767V393.459H620.623V395.115H609.823ZM627.732 395.115V379.875H621.756V378.195H635.676V379.875H629.724V395.115H627.732Z" fill="#005AAA"/>
<rect width="424" height="377.073" transform="translate(736 151.042)" fill="white"/>
<path d="M821.701 217.411C819.814 217.411 818.098 217.2 816.551 216.778C815.004 216.356 813.48 215.624 811.98 214.581V208.394H815.953L816.498 212.032C817.025 212.478 817.752 212.841 818.678 213.122C819.604 213.392 820.611 213.526 821.701 213.526C822.627 213.526 823.406 213.397 824.039 213.14C824.684 212.882 825.17 212.519 825.498 212.05C825.838 211.569 826.008 211.007 826.008 210.362C826.008 209.753 825.855 209.214 825.551 208.745C825.258 208.265 824.766 207.831 824.074 207.444C823.395 207.046 822.469 206.665 821.297 206.302C819.27 205.704 817.588 205.054 816.252 204.351C814.928 203.636 813.932 202.786 813.264 201.802C812.607 200.806 812.279 199.61 812.279 198.216C812.279 196.833 812.66 195.614 813.422 194.56C814.195 193.493 815.262 192.655 816.621 192.046C817.98 191.437 819.551 191.12 821.332 191.097C823.301 191.073 825.041 191.308 826.553 191.8C828.076 192.292 829.389 192.978 830.49 193.856V199.622H826.641L825.973 196.106C825.527 195.825 824.924 195.579 824.162 195.368C823.412 195.157 822.557 195.052 821.596 195.052C820.775 195.052 820.049 195.175 819.416 195.421C818.795 195.667 818.303 196.024 817.939 196.493C817.576 196.962 817.395 197.53 817.395 198.198C817.395 198.772 817.553 199.276 817.869 199.71C818.186 200.132 818.713 200.536 819.451 200.923C820.201 201.298 821.232 201.702 822.545 202.136C825.369 202.921 827.508 203.958 828.961 205.247C830.426 206.536 831.158 208.229 831.158 210.327C831.158 211.78 830.766 213.04 829.98 214.106C829.195 215.161 828.094 215.976 826.676 216.55C825.258 217.124 823.6 217.411 821.701 217.411ZM839.086 217.042V213.966L841.828 213.438V195.403H837.17L836.889 198.462H833.004V191.448H855.838V198.462H851.936L851.654 195.403H846.961V213.438L849.721 213.966V217.042H839.086ZM854.203 217.042V213.966L856.031 213.702L864.17 191.448H869.426L877.512 213.702L879.34 213.966V217.042H870.621V213.966L872.396 213.649L871.271 210.134H862.271L861.146 213.649L862.922 213.966V217.042H854.203ZM863.484 206.354H870.059L867.07 197.583L866.824 196.81H866.719L866.455 197.636L863.484 206.354ZM881.045 217.042V213.966L883.77 213.438V195.069L881.045 194.542V191.448H883.77H888.973L900.117 209.202L900.223 209.185V195.069L896.953 194.542V191.448H904.811H907.553V194.542L904.811 195.069V217.042H899.854L888.463 199.464L888.357 199.481V213.438L891.645 213.966V217.042H881.045ZM909.24 217.042V213.966L912 213.386V195.14L909.24 194.542V191.448H912H920.473C922.758 191.448 924.773 191.987 926.52 193.065C928.266 194.132 929.625 195.614 930.598 197.513C931.582 199.399 932.074 201.567 932.074 204.017V204.491C932.074 206.917 931.588 209.079 930.615 210.978C929.654 212.864 928.307 214.347 926.572 215.425C924.838 216.503 922.828 217.042 920.543 217.042H909.24ZM917.133 213.122H920.279C921.697 213.122 922.898 212.753 923.883 212.015C924.867 211.265 925.617 210.239 926.133 208.938C926.66 207.638 926.924 206.155 926.924 204.491V203.999C926.924 202.312 926.66 200.823 926.133 199.534C925.617 198.233 924.867 197.22 923.883 196.493C922.898 195.755 921.697 195.386 920.279 195.386H917.133V213.122ZM932.988 217.042V213.966L934.816 213.702L942.955 191.448H948.211L956.297 213.702L958.125 213.966V217.042H949.406V213.966L951.182 213.649L950.057 210.134H941.057L939.932 213.649L941.707 213.966V217.042H932.988ZM942.27 206.354H948.844L945.855 197.583L945.609 196.81H945.504L945.24 197.636L942.27 206.354ZM959.83 217.042V213.966L962.555 213.438V195.069L959.83 194.542V191.448H971.959C973.928 191.448 975.615 191.753 977.021 192.362C978.428 192.972 979.506 193.845 980.256 194.981C981.018 196.118 981.398 197.483 981.398 199.077C981.398 200.577 981.023 201.919 980.273 203.103C979.523 204.286 978.48 205.218 977.145 205.897C975.809 206.577 974.268 206.923 972.521 206.935H967.688V213.438L970.43 213.966V217.042H959.83ZM976.301 217.042L971.994 205.985L976.617 204.843L980.344 213.456L982.523 213.966V217.042H976.301ZM967.688 202.979H971.871C973.348 202.979 974.449 202.669 975.176 202.048C975.914 201.415 976.283 200.501 976.283 199.306C976.283 198.122 975.92 197.179 975.193 196.476C974.467 195.761 973.389 195.403 971.959 195.403H967.688V202.979ZM984.58 217.042V213.966L987.34 213.386V195.14L984.58 194.542V191.448H987.34H995.812C998.098 191.448 1000.11 191.987 1001.86 193.065C1003.61 194.132 1004.96 195.614 1005.94 197.513C1006.92 199.399 1007.41 201.567 1007.41 204.017V204.491C1007.41 206.917 1006.93 209.079 1005.96 210.978C1004.99 212.864 1003.65 214.347 1001.91 215.425C1000.18 216.503 998.168 217.042 995.883 217.042H984.58ZM992.473 213.122H995.619C997.037 213.122 998.238 212.753 999.223 212.015C1000.21 211.265 1000.96 210.239 1001.47 208.938C1002 207.638 1002.26 206.155 1002.26 204.491V203.999C1002.26 202.312 1002 200.823 1001.47 199.534C1000.96 198.233 1000.21 197.22 999.223 196.493C998.238 195.755 997.037 195.386 995.619 195.386H992.473V213.122ZM1018.47 217.042V213.966L1021.2 213.438V195.069L1018.47 194.542V191.448H1038.84V198.462H1034.91L1034.68 195.403H1026.33V202.452H1035.29V206.407H1026.33V213.438L1029.07 213.966V217.042H1018.47ZM1040.72 217.042V213.966L1043.45 213.438V195.069L1040.72 194.542V191.448H1060.59V198.356H1056.65L1056.42 195.403H1048.58V201.837H1057.25V205.792H1048.58V213.104H1056.84L1057.07 210.046H1060.97V217.042H1040.72ZM1063.72 217.042V213.966L1066.44 213.438V195.069L1063.72 194.542V191.448H1083.58V198.356H1079.64L1079.41 195.403H1071.57V201.837H1080.24V205.792H1071.57V213.104H1079.84L1080.06 210.046H1083.97V217.042H1063.72Z" fill="#FF6600"/>
<path d="M822.031 349.771C819.177 349.771 816.604 349.261 814.312 348.24C812.042 347.219 810.25 345.761 808.938 343.865C807.625 341.949 807 339.646 807.062 336.959L807.125 336.771H814.719C814.719 338.146 815.01 339.355 815.594 340.396C816.198 341.417 817.042 342.23 818.125 342.834C819.229 343.417 820.531 343.709 822.031 343.709C824.344 343.709 826.156 343.074 827.469 341.803C828.802 340.511 829.469 338.667 829.469 336.271C829.469 333.855 828.844 332.032 827.594 330.803C826.344 329.553 824.417 328.928 821.812 328.928H816.688V322.928H821.938C823.542 322.928 824.844 322.657 825.844 322.115C826.865 321.553 827.604 320.761 828.062 319.74C828.542 318.699 828.781 317.469 828.781 316.053C828.781 313.824 828.208 312.105 827.062 310.896C825.917 309.667 824.24 309.053 822.031 309.053C820.656 309.053 819.458 309.324 818.438 309.865C817.417 310.407 816.615 311.167 816.031 312.146C815.469 313.126 815.188 314.271 815.188 315.584H807.562L807.5 315.396C807.438 313.042 808.01 310.928 809.219 309.053C810.448 307.157 812.167 305.667 814.375 304.584C816.583 303.501 819.115 302.959 821.969 302.959C826.427 302.959 829.99 304.084 832.656 306.334C835.323 308.563 836.656 311.74 836.656 315.865C836.656 317.886 836.073 319.782 834.906 321.553C833.76 323.324 832.031 324.73 829.719 325.771C832.323 326.667 834.24 328.053 835.469 329.928C836.719 331.803 837.344 333.959 837.344 336.396C837.344 339.167 836.688 341.553 835.375 343.553C834.062 345.553 832.25 347.094 829.938 348.178C827.625 349.24 824.99 349.771 822.031 349.771ZM843.969 349.115V341.834H851.812V349.115H843.969ZM874.062 349.771C869.417 349.771 865.74 348.219 863.031 345.115C860.344 341.99 859 337.469 859 331.553V321.209C859 315.292 860.344 310.771 863.031 307.646C865.719 304.521 869.375 302.959 874 302.959C878.604 302.959 882.26 304.521 884.969 307.646C887.677 310.771 889.031 315.292 889.031 321.209V331.553C889.031 337.49 887.688 342.011 885 345.115C882.312 348.219 878.667 349.771 874.062 349.771ZM874.062 343.709C876.375 343.709 878.135 342.803 879.344 340.99C880.552 339.178 881.156 336.376 881.156 332.584V320.115C881.156 316.365 880.542 313.584 879.312 311.771C878.083 309.959 876.312 309.053 874 309.053C871.667 309.053 869.885 309.959 868.656 311.771C867.448 313.563 866.844 316.344 866.844 320.115V332.584C866.844 336.376 867.458 339.178 868.688 340.99C869.917 342.803 871.708 343.709 874.062 343.709ZM910.625 349.771C905.979 349.771 902.302 348.219 899.594 345.115C896.906 341.99 895.562 337.469 895.562 331.553V321.209C895.562 315.292 896.906 310.771 899.594 307.646C902.281 304.521 905.938 302.959 910.562 302.959C915.167 302.959 918.823 304.521 921.531 307.646C924.24 310.771 925.594 315.292 925.594 321.209V331.553C925.594 337.49 924.25 342.011 921.562 345.115C918.875 348.219 915.229 349.771 910.625 349.771ZM910.625 343.709C912.938 343.709 914.698 342.803 915.906 340.99C917.115 339.178 917.719 336.376 917.719 332.584V320.115C917.719 316.365 917.104 313.584 915.875 311.771C914.646 309.959 912.875 309.053 910.562 309.053C908.229 309.053 906.448 309.959 905.219 311.771C904.01 313.563 903.406 316.344 903.406 320.115V332.584C903.406 336.376 904.021 339.178 905.25 340.99C906.479 342.803 908.271 343.709 910.625 343.709ZM947.188 349.771C942.542 349.771 938.865 348.219 936.156 345.115C933.469 341.99 932.125 337.469 932.125 331.553V321.209C932.125 315.292 933.469 310.771 936.156 307.646C938.844 304.521 942.5 302.959 947.125 302.959C951.729 302.959 955.385 304.521 958.094 307.646C960.802 310.771 962.156 315.292 962.156 321.209V331.553C962.156 337.49 960.812 342.011 958.125 345.115C955.438 348.219 951.792 349.771 947.188 349.771ZM947.188 343.709C949.5 343.709 951.26 342.803 952.469 340.99C953.677 339.178 954.281 336.376 954.281 332.584V320.115C954.281 316.365 953.667 313.584 952.438 311.771C951.208 309.959 949.438 309.053 947.125 309.053C944.792 309.053 943.01 309.959 941.781 311.771C940.573 313.563 939.969 316.344 939.969 320.115V332.584C939.969 336.376 940.583 339.178 941.812 340.99C943.042 342.803 944.833 343.709 947.188 343.709ZM969.594 349.115V341.834H977.438V349.115H969.594ZM999.688 349.771C995.042 349.771 991.365 348.219 988.656 345.115C985.969 341.99 984.625 337.469 984.625 331.553V321.209C984.625 315.292 985.969 310.771 988.656 307.646C991.344 304.521 995 302.959 999.625 302.959C1004.23 302.959 1007.89 304.521 1010.59 307.646C1013.3 310.771 1014.66 315.292 1014.66 321.209V331.553C1014.66 337.49 1013.31 342.011 1010.62 345.115C1007.94 348.219 1004.29 349.771 999.688 349.771ZM999.688 343.709C1002 343.709 1003.76 342.803 1004.97 340.99C1006.18 339.178 1006.78 336.376 1006.78 332.584V320.115C1006.78 316.365 1006.17 313.584 1004.94 311.771C1003.71 309.959 1001.94 309.053 999.625 309.053C997.292 309.053 995.51 309.959 994.281 311.771C993.073 313.563 992.469 316.344 992.469 320.115V332.584C992.469 336.376 993.083 339.178 994.312 340.99C995.542 342.803 997.333 343.709 999.688 343.709ZM1036.25 349.771C1031.6 349.771 1027.93 348.219 1025.22 345.115C1022.53 341.99 1021.19 337.469 1021.19 331.553V321.209C1021.19 315.292 1022.53 310.771 1025.22 307.646C1027.91 304.521 1031.56 302.959 1036.19 302.959C1040.79 302.959 1044.45 304.521 1047.16 307.646C1049.86 310.771 1051.22 315.292 1051.22 321.209V331.553C1051.22 337.49 1049.88 342.011 1047.19 345.115C1044.5 348.219 1040.85 349.771 1036.25 349.771ZM1036.25 343.709C1038.56 343.709 1040.32 342.803 1041.53 340.99C1042.74 339.178 1043.34 336.376 1043.34 332.584V320.115C1043.34 316.365 1042.73 313.584 1041.5 311.771C1040.27 309.959 1038.5 309.053 1036.19 309.053C1033.85 309.053 1032.07 309.959 1030.84 311.771C1029.64 313.563 1029.03 316.344 1029.03 320.115V332.584C1029.03 336.376 1029.65 339.178 1030.88 340.99C1032.1 342.803 1033.9 343.709 1036.25 343.709ZM1072.81 349.771C1068.17 349.771 1064.49 348.219 1061.78 345.115C1059.09 341.99 1057.75 337.469 1057.75 331.553V321.209C1057.75 315.292 1059.09 310.771 1061.78 307.646C1064.47 304.521 1068.12 302.959 1072.75 302.959C1077.35 302.959 1081.01 304.521 1083.72 307.646C1086.43 310.771 1087.78 315.292 1087.78 321.209V331.553C1087.78 337.49 1086.44 342.011 1083.75 345.115C1081.06 348.219 1077.42 349.771 1072.81 349.771ZM1072.81 343.709C1075.12 343.709 1076.89 342.803 1078.09 340.99C1079.3 339.178 1079.91 336.376 1079.91 332.584V320.115C1079.91 316.365 1079.29 313.584 1078.06 311.771C1076.83 309.959 1075.06 309.053 1072.75 309.053C1070.42 309.053 1068.64 309.959 1067.41 311.771C1066.2 313.563 1065.59 316.344 1065.59 320.115V332.584C1065.59 336.376 1066.21 339.178 1067.44 340.99C1068.67 342.803 1070.46 343.709 1072.81 343.709Z" fill="#005AAA"/>
<path d="M953.331 394.115L945.963 377.195H948.099L954.651 392.531H953.907L960.507 377.195H962.571L955.155 394.115H953.331ZM964.76 394.115V377.195H966.32L977.168 391.595H976.616V377.195H978.464V394.115H976.928L966.08 379.715H966.608V394.115H964.76ZM982.69 394.115V377.195H988.306C990.178 377.195 991.762 377.523 993.058 378.179C994.354 378.819 995.338 379.771 996.01 381.035C996.682 382.283 997.018 383.819 997.018 385.643C997.018 387.451 996.682 388.987 996.01 390.251C995.338 391.515 994.354 392.475 993.058 393.131C991.762 393.787 990.178 394.115 988.306 394.115H982.69ZM984.682 392.411H988.162C990.466 392.411 992.178 391.851 993.298 390.731C994.418 389.595 994.978 387.899 994.978 385.643C994.978 383.371 994.418 381.675 993.298 380.555C992.178 379.435 990.466 378.875 988.162 378.875H984.682V392.411ZM980.626 386.291V384.755H989.434V386.291H980.626ZM999.401 395.435H997.721L1004.01 376.163H1005.69L999.401 395.435ZM1017.61 394.115V378.875H1011.64V377.195H1025.56V378.875H1019.61V394.115H1017.61ZM1027.99 394.115V377.195H1029.99V394.115H1027.99ZM1041.57 394.331C1039.88 394.331 1038.44 393.979 1037.25 393.275C1036.07 392.571 1035.16 391.571 1034.52 390.275C1033.89 388.979 1033.58 387.435 1033.58 385.643C1033.58 383.851 1033.89 382.315 1034.52 381.035C1035.16 379.739 1036.07 378.739 1037.25 378.035C1038.44 377.331 1039.88 376.979 1041.57 376.979C1042.77 376.979 1043.85 377.163 1044.79 377.531C1045.73 377.899 1046.56 378.435 1047.26 379.139L1046.52 380.723C1045.75 380.051 1044.99 379.563 1044.24 379.259C1043.49 378.939 1042.61 378.779 1041.6 378.779C1039.66 378.779 1038.19 379.379 1037.18 380.579C1036.17 381.779 1035.67 383.467 1035.67 385.643C1035.67 387.819 1036.17 389.515 1037.18 390.731C1038.19 391.931 1039.66 392.531 1041.6 392.531C1042.61 392.531 1043.49 392.379 1044.24 392.075C1044.99 391.755 1045.75 391.251 1046.52 390.563L1047.26 392.171C1046.56 392.859 1045.73 393.395 1044.79 393.779C1043.85 394.147 1042.77 394.331 1041.57 394.331ZM1050.61 394.115V377.195H1052.6V384.875H1052.65L1060.76 377.195H1063.31L1053.97 385.931L1054 384.923L1063.98 394.115H1061.36L1052.65 386.147H1052.6V394.115H1050.61ZM1065.82 394.115V377.195H1076.62V378.827H1067.77V384.707H1076.09V386.363H1067.77V392.459H1076.62V394.115H1065.82ZM1083.73 394.115V378.875H1077.76V377.195H1091.68V378.875H1085.72V394.115H1083.73Z" fill="#005AAA"/>
<defs>
<linearGradient id="paint0_linear_8_331" x1="-1153.52" y1="284.558" x2="2775.32" y2="284.558" gradientUnits="userSpaceOnUse">
<stop stop-color="#00CCFF"/>
<stop offset="1" stop-color="#FF00FF"/>
</linearGradient>
</defs>
</svg>
