<svg width="360" height="279" viewBox="0 0 360 279" fill="none" xmlns="http://www.w3.org/2000/svg">
<rect width="360" height="278.312" transform="translate(0 0.0844727)" fill="url(#paint0_linear_30_627)"/>
<path d="M28.88 36.0845V24.1045H24.22V21.9845H36.12V24.1045H31.46V36.0845H28.88ZM37.9428 36.0845V21.9845H40.5228V27.8645H47.7428V21.9845H50.3228V36.0845H47.7428V30.0045H40.5228V36.0845H37.9428ZM52.9711 29.0245C52.9711 27.5445 53.2378 26.2645 53.7711 25.1845C54.3178 24.1045 55.0978 23.2711 56.1111 22.6845C57.1244 22.0845 58.3311 21.7845 59.7311 21.7845C61.1178 21.7845 62.3178 22.0845 63.3311 22.6845C64.3444 23.2711 65.1244 24.1045 65.6711 25.1845C66.2311 26.2645 66.5111 27.5378 66.5111 29.0045C66.5111 30.4845 66.2311 31.7711 65.6711 32.8645C65.1244 33.9445 64.3444 34.7845 63.3311 35.3845C62.3178 35.9845 61.1178 36.2845 59.7311 36.2845C58.3311 36.2845 57.1244 35.9845 56.1111 35.3845C55.1111 34.7845 54.3378 33.9445 53.7911 32.8645C53.2444 31.7711 52.9711 30.4911 52.9711 29.0245ZM55.6711 29.0245C55.6711 30.6111 56.0111 31.8511 56.6911 32.7445C57.3711 33.6378 58.3844 34.0845 59.7311 34.0845C61.0378 34.0845 62.0444 33.6378 62.7511 32.7445C63.4578 31.8511 63.8111 30.6111 63.8111 29.0245C63.8111 27.4245 63.4578 26.1845 62.7511 25.3045C62.0578 24.4245 61.0511 23.9845 59.7311 23.9845C58.3844 23.9845 57.3711 24.4245 56.6911 25.3045C56.0111 26.1845 55.6711 27.4245 55.6711 29.0245ZM56.1711 20.7845L58.6511 17.3045H60.8111L63.2911 20.7845H61.5511L59.7311 18.7045L57.9111 20.7845H56.1711ZM69.1733 36.0845V21.9845H71.1133L79.2933 32.5645H78.7733V21.9845H81.1733V36.0845H79.2333L71.0733 25.5045H71.5733V36.0845H69.1733ZM91.0709 36.2845C89.4843 36.2845 88.1509 35.9911 87.0709 35.4045C85.9909 34.8178 85.1776 33.9845 84.6309 32.9045C84.0843 31.8245 83.8109 30.5445 83.8109 29.0645C83.8109 27.5711 84.1043 26.2845 84.6909 25.2045C85.2776 24.1111 86.1176 23.2711 87.2109 22.6845C88.3176 22.0845 89.6443 21.7845 91.1909 21.7845C92.2176 21.7845 93.1176 21.9245 93.8909 22.2045C94.6643 22.4711 95.3443 22.8645 95.9309 23.3845L95.0709 25.3845C94.6443 25.0511 94.2376 24.7845 93.8509 24.5845C93.4643 24.3845 93.0643 24.2445 92.6509 24.1645C92.2376 24.0711 91.7576 24.0245 91.2109 24.0245C89.6643 24.0245 88.4909 24.4645 87.6909 25.3445C86.9043 26.2111 86.5109 27.4578 86.5109 29.0845C86.5109 30.7111 86.8843 31.9511 87.6309 32.8045C88.3909 33.6578 89.5776 34.0845 91.1909 34.0845C91.7376 34.0845 92.2843 34.0311 92.8309 33.9245C93.3909 33.8178 93.9376 33.6645 94.4709 33.4645L93.9909 34.5445V30.3245H90.6909V28.4445H96.1309V35.2245C95.4776 35.5578 94.6976 35.8178 93.7909 36.0045C92.8843 36.1911 91.9776 36.2845 91.0709 36.2845ZM107.884 36.0845V24.1045H103.224V21.9845H115.124V24.1045H110.464V36.0845H107.884ZM116.947 36.0845V21.9845H119.527V36.0845H116.947ZM122.63 36.0845V21.9845H124.57L132.75 32.5645H132.23V21.9845H134.63V36.0845H132.69L124.53 25.5045H125.03V36.0845H122.63ZM147.776 36.0845L141.496 21.9845H144.276L149.336 33.8245H148.496L153.556 21.9845H156.236L149.956 36.0845H147.776ZM157.63 36.0845V21.9845H167.13V24.0045H160.11V27.9045H166.67V29.9445H160.11V34.0445H167.13V36.0845H157.63ZM161.83 20.7845L164.21 17.3045H166.81L163.63 20.7845H161.83Z" fill="white"/>
<line x1="24" y1="47.0845" x2="134" y2="47.0845" stroke="white" stroke-width="2"/>
<rect width="154" height="196.312" transform="translate(24 58.0845)" fill="white"/>
<path d="M63.8673 82.0845L60.211 72.2095L59.1954 72.0845V70.7095H63.7188V72.0845L62.6954 72.2407L64.9298 78.9517L65.1016 79.5767H65.1485L65.3126 78.9673L67.5469 72.2407L66.3516 72.0845V70.7095H70.6641V72.0845L69.6329 72.2095L66.2032 82.0845H63.8673ZM71.3673 82.0845V80.7173L72.5782 80.4829V72.3188L71.3673 72.0845V70.7095H80.1954V73.7798H78.4454L78.3438 72.4673H74.8594V75.3267H78.711V77.0845H74.8594V80.3345H78.5313L78.6329 78.9751H80.3673V82.0845H71.3673ZM74.6798 69.8267L76.2344 67.6938H78.6485L78.6641 67.7407L76.5079 69.8267H74.7423H74.6798ZM91.1407 82.2485C90.2344 82.2485 89.4376 82.0949 88.7501 81.7876C88.0678 81.4751 87.5365 81.022 87.1563 80.4282C86.7761 79.8293 86.586 79.1053 86.586 78.2563V72.3188L85.3751 72.0845V70.7095H90.086V72.0845L88.8751 72.3188V78.2563C88.8751 78.7563 88.9662 79.173 89.1485 79.5063C89.3308 79.8397 89.5912 80.0897 89.9298 80.2563C90.2683 80.4178 90.6719 80.4985 91.1407 80.4985C91.6147 80.4985 92.0209 80.4178 92.3594 80.2563C92.7032 80.0897 92.9662 79.8397 93.1485 79.5063C93.3308 79.173 93.4219 78.7563 93.4219 78.2563V72.3188L92.211 72.0845V70.7095H95.7188V78.2563C95.7188 79.1053 95.5261 79.8293 95.1407 80.4282C94.7553 81.022 94.2188 81.4751 93.5313 81.7876C92.8438 82.0949 92.0469 82.2485 91.1407 82.2485ZM95.4688 74.1079L95.5079 72.6626C96.0964 72.6782 96.4844 72.509 96.6719 72.1548C96.8594 71.8006 96.9532 71.2251 96.9532 70.4282H98.7813V70.4673C98.7969 71.66 98.5548 72.561 98.0548 73.1704C97.5548 73.7746 96.6928 74.0871 95.4688 74.1079ZM104.992 82.2485C104.091 82.2485 103.297 82.0923 102.609 81.7798C101.927 81.4673 101.396 81.0142 101.016 80.4204C100.635 79.8267 100.445 79.1053 100.445 78.2563V72.3188L99.2344 72.0845V70.7095H103.945V72.0845L102.727 72.3188V78.2563C102.727 78.7563 102.818 79.173 103 79.5063C103.182 79.8397 103.443 80.0897 103.781 80.2563C104.12 80.4178 104.524 80.4985 104.992 80.4985C105.471 80.4985 105.88 80.4178 106.219 80.2563C106.563 80.0897 106.826 79.8397 107.008 79.5063C107.19 79.173 107.281 78.7563 107.281 78.2563V72.3188L106.07 72.0845V70.7095H110.781V72.0845L109.563 72.3188V78.2563C109.563 79.1053 109.37 79.8293 108.984 80.4282C108.604 81.022 108.07 81.4751 107.383 81.7876C106.701 82.0949 105.904 82.2485 104.992 82.2485ZM115.445 82.0845V80.7173L116.672 80.4595V72.3501L115.445 72.0845V70.7095H116.672H120.438C121.453 70.7095 122.349 70.9491 123.125 71.4282C123.901 71.9022 124.505 72.561 124.938 73.4048C125.375 74.2433 125.594 75.2069 125.594 76.2954V76.5063C125.594 77.5845 125.378 78.5454 124.945 79.3892C124.518 80.2277 123.919 80.8866 123.149 81.3657C122.378 81.8449 121.484 82.0845 120.469 82.0845H115.445ZM118.953 80.3423H120.352C120.982 80.3423 121.516 80.1782 121.953 79.8501C122.391 79.5168 122.724 79.061 122.953 78.4829C123.188 77.9048 123.305 77.2459 123.305 76.5063V76.2876C123.305 75.5376 123.188 74.8761 122.953 74.3032C122.724 73.7251 122.391 73.2746 121.953 72.9517C121.516 72.6235 120.982 72.4595 120.352 72.4595H118.953V80.3423ZM115.359 76.9282V75.7173H120.508V76.9282H115.359ZM126 82.0845V80.7173L126.813 80.6001L130.43 70.7095H132.766L136.359 80.6001L137.172 80.7173V82.0845H133.297V80.7173L134.086 80.5767L133.586 79.0142H129.586L129.086 80.5767L129.875 80.7173V82.0845H126ZM130.125 77.3345H133.047L131.719 73.436L131.609 73.0923H131.563L131.445 73.4595L130.125 77.3345ZM129.852 69.8579L128.672 69.5454C128.672 69.1965 128.753 68.8735 128.914 68.5767C129.081 68.2798 129.3 68.0402 129.57 67.8579C129.841 67.6756 130.135 67.5845 130.453 67.5845C130.703 67.5845 130.964 67.647 131.234 67.772C131.505 67.897 131.763 68.0246 132.008 68.1548C132.258 68.2798 132.469 68.3423 132.641 68.3423C132.854 68.3371 133.024 68.2563 133.149 68.1001C133.279 67.9386 133.344 67.7355 133.344 67.4907L134.524 67.8188C134.524 68.1782 134.44 68.5063 134.274 68.8032C134.112 69.0949 133.896 69.3293 133.625 69.5063C133.354 69.6782 133.057 69.7642 132.734 69.7642C132.464 69.7642 132.193 69.7017 131.922 69.5767C131.651 69.4517 131.399 69.3267 131.164 69.2017C130.93 69.0715 130.724 69.0063 130.547 69.0063C130.333 69.0063 130.164 69.0897 130.039 69.2563C129.914 69.423 129.852 69.6235 129.852 69.8579ZM137.93 82.0845V80.7173L139.141 80.4829V72.3188L137.93 72.0845V70.7095H142.633V72.0845L141.422 72.3188V80.4829L142.633 80.7173V82.0845H137.93Z" fill="#FF6600"/>
<path d="M56.7628 96.4243V89.3743H59.1028C59.8828 89.3743 60.5428 89.511 61.0828 89.7843C61.6228 90.051 62.0328 90.4476 62.3128 90.9743C62.5928 91.4943 62.7328 92.1343 62.7328 92.8943C62.7328 93.6476 62.5928 94.2876 62.3128 94.8143C62.0328 95.341 61.6228 95.741 61.0828 96.0143C60.5428 96.2876 59.8828 96.4243 59.1028 96.4243H56.7628ZM57.5928 95.7143H59.0428C60.0028 95.7143 60.7161 95.481 61.1828 95.0143C61.6495 94.541 61.8828 93.8343 61.8828 92.8943C61.8828 91.9476 61.6495 91.241 61.1828 90.7743C60.7161 90.3076 60.0028 90.0743 59.0428 90.0743H57.5928V95.7143ZM55.9028 93.1643V92.5243H59.5728V93.1643H55.9028ZM66.0535 96.5143C65.6068 96.5143 65.2168 96.411 64.8835 96.2043C64.5502 95.991 64.2902 95.691 64.1035 95.3043C63.9235 94.9176 63.8335 94.4543 63.8335 93.9143C63.8335 93.3676 63.9235 92.901 64.1035 92.5143C64.2902 92.1276 64.5502 91.831 64.8835 91.6243C65.2168 91.4176 65.6068 91.3143 66.0535 91.3143C66.5068 91.3143 66.8968 91.431 67.2235 91.6643C67.5568 91.891 67.7768 92.201 67.8835 92.5943H67.7635L67.8735 91.4043H68.6535C68.6335 91.5976 68.6135 91.7943 68.5935 91.9943C68.5802 92.1876 68.5735 92.3776 68.5735 92.5643V96.4243H67.7635V95.2443H67.8735C67.7668 95.6376 67.5468 95.9476 67.2135 96.1743C66.8802 96.401 66.4935 96.5143 66.0535 96.5143ZM66.2135 95.8543C66.6935 95.8543 67.0735 95.691 67.3535 95.3643C67.6335 95.031 67.7735 94.5476 67.7735 93.9143C67.7735 93.2743 67.6335 92.791 67.3535 92.4643C67.0735 92.131 66.6935 91.9643 66.2135 91.9643C65.7402 91.9643 65.3602 92.131 65.0735 92.4643C64.7935 92.791 64.6535 93.2743 64.6535 93.9143C64.6535 94.5476 64.7935 95.031 65.0735 95.3643C65.3602 95.691 65.7402 95.8543 66.2135 95.8543ZM66.2935 90.9343C65.9935 90.9343 65.7302 90.8576 65.5035 90.7043C65.2768 90.551 65.1002 90.3343 64.9735 90.0543C64.8468 89.7676 64.7735 89.4276 64.7535 89.0343L65.2635 88.9843C65.2902 89.431 65.3902 89.7776 65.5635 90.0243C65.7435 90.2643 65.9868 90.3843 66.2935 90.3843C66.6002 90.3843 66.8402 90.2643 67.0135 90.0243C67.1935 89.7776 67.2968 89.431 67.3235 88.9843L67.8335 89.0343C67.8202 89.4276 67.7468 89.7676 67.6135 90.0543C67.4868 90.3343 67.3102 90.551 67.0835 90.7043C66.8568 90.8576 66.5935 90.9343 66.2935 90.9343ZM70.1396 96.4243V92.5643C70.1396 92.3776 70.1296 92.1876 70.1096 91.9943C70.0963 91.7943 70.0796 91.5976 70.0596 91.4043H70.8396L70.9396 92.5043H70.8196C70.9663 92.1176 71.1996 91.8243 71.5196 91.6243C71.8463 91.4176 72.2229 91.3143 72.6496 91.3143C73.2429 91.3143 73.6896 91.4743 73.9896 91.7943C74.2963 92.1076 74.4496 92.6043 74.4496 93.2843V96.4243H73.6396V93.3343C73.6396 92.861 73.5429 92.5176 73.3496 92.3043C73.1629 92.0843 72.8696 91.9743 72.4696 91.9743C72.0029 91.9743 71.6329 92.1176 71.3596 92.4043C71.0863 92.691 70.9496 93.0743 70.9496 93.5543V96.4243H70.1396ZM78.209 98.6543C77.7757 98.6543 77.3757 98.601 77.009 98.4943C76.6423 98.3876 76.3123 98.2243 76.019 98.0043L76.259 97.3943C76.4657 97.541 76.669 97.6576 76.869 97.7443C77.069 97.831 77.2757 97.8943 77.489 97.9343C77.7023 97.981 77.929 98.0043 78.169 98.0043C78.6623 98.0043 79.0357 97.8743 79.289 97.6143C79.5423 97.3543 79.669 96.9843 79.669 96.5043V95.0343H79.769C79.6623 95.4276 79.4423 95.741 79.109 95.9743C78.7757 96.201 78.3857 96.3143 77.939 96.3143C77.479 96.3143 77.079 96.2143 76.739 96.0143C76.4057 95.8076 76.1457 95.5176 75.959 95.1443C75.779 94.7643 75.689 94.3176 75.689 93.8043C75.689 93.2976 75.779 92.8576 75.959 92.4843C76.1457 92.111 76.4057 91.8243 76.739 91.6243C77.079 91.4176 77.479 91.3143 77.939 91.3143C78.3923 91.3143 78.7823 91.4276 79.109 91.6543C79.4423 91.881 79.6623 92.1943 79.769 92.5943L79.669 92.4943L79.759 91.4043H80.549C80.5223 91.5976 80.5023 91.7943 80.489 91.9943C80.4757 92.1876 80.469 92.3776 80.469 92.5643V96.3943C80.469 97.141 80.2757 97.7043 79.889 98.0843C79.509 98.4643 78.949 98.6543 78.209 98.6543ZM78.089 95.6543C78.5757 95.6543 78.959 95.4943 79.239 95.1743C79.519 94.8476 79.659 94.391 79.659 93.8043C79.659 93.2176 79.519 92.7643 79.239 92.4443C78.959 92.1243 78.5757 91.9643 78.089 91.9643C77.609 91.9643 77.2257 92.1243 76.939 92.4443C76.6523 92.7643 76.509 93.2176 76.509 93.8043C76.509 94.391 76.6523 94.8476 76.939 95.1743C77.2257 95.4943 77.609 95.6543 78.089 95.6543ZM84.6318 96.4243V89.0643H85.4418V93.6343H85.4618L87.7918 91.4043H88.8118L86.0618 94.0243L86.0818 93.6143L89.0718 96.4243H88.0218L85.4618 94.0643H85.4418V96.4243H84.6318ZM89.422 98.6943L89.232 98.0243C89.5454 97.951 89.8054 97.8643 90.012 97.7643C90.2254 97.671 90.402 97.5443 90.542 97.3843C90.682 97.2243 90.802 97.0243 90.902 96.7843L91.162 96.1943L91.142 96.5343L88.952 91.4043H89.832L91.642 95.8143H91.382L93.172 91.4043H94.022L91.702 96.8443C91.5687 97.1643 91.422 97.431 91.262 97.6443C91.102 97.8643 90.9287 98.041 90.742 98.1743C90.562 98.3143 90.362 98.4243 90.142 98.5043C89.922 98.5843 89.682 98.6476 89.422 98.6943ZM91.192 90.9143L92.222 88.8943H93.092L91.772 90.9143H91.192ZM99.322 96.5143C98.8286 96.5143 98.452 96.3743 98.192 96.0943C97.932 95.8076 97.802 95.3776 97.802 94.8043V92.0343H96.822V91.4043H97.802V90.0343L98.612 89.8043V91.4043H100.052V92.0343H98.612V94.7143C98.612 95.1143 98.6786 95.401 98.812 95.5743C98.952 95.741 99.1586 95.8243 99.432 95.8243C99.5586 95.8243 99.672 95.8143 99.772 95.7943C99.872 95.7676 99.962 95.7376 100.042 95.7043V96.3843C99.9486 96.4243 99.8353 96.4543 99.702 96.4743C99.5753 96.501 99.4486 96.5143 99.322 96.5143ZM101.018 96.4243V92.6143C101.018 92.4143 101.011 92.211 100.998 92.0043C100.991 91.7976 100.978 91.5976 100.958 91.4043H101.738L101.838 92.6243L101.698 92.6343C101.765 92.3343 101.881 92.0876 102.048 91.8943C102.215 91.701 102.411 91.5576 102.638 91.4643C102.865 91.3643 103.101 91.3143 103.348 91.3143C103.448 91.3143 103.535 91.3176 103.608 91.3243C103.688 91.331 103.761 91.3476 103.828 91.3743L103.818 92.0943C103.718 92.061 103.625 92.041 103.538 92.0343C103.458 92.021 103.365 92.0143 103.258 92.0143C102.965 92.0143 102.708 92.0843 102.488 92.2243C102.275 92.3643 102.111 92.5443 101.998 92.7643C101.891 92.9843 101.838 93.2176 101.838 93.4643V96.4243H101.018ZM106.441 96.5143C105.848 96.5143 105.398 96.351 105.091 96.0243C104.791 95.6976 104.641 95.1976 104.641 94.5243V91.4043H105.451V94.5043C105.451 94.9643 105.544 95.3043 105.731 95.5243C105.918 95.7376 106.208 95.8443 106.601 95.8443C107.041 95.8443 107.394 95.701 107.661 95.4143C107.928 95.1276 108.061 94.7443 108.061 94.2643V91.4043H108.871V96.4243H108.081V95.2943H108.211C108.071 95.681 107.844 95.981 107.531 96.1943C107.224 96.4076 106.861 96.5143 106.441 96.5143ZM108.621 91.9043L108.201 91.6243V91.4043C108.481 91.3976 108.701 91.3543 108.861 91.2743C109.021 91.1943 109.134 91.071 109.201 90.9043C109.268 90.7376 109.301 90.5243 109.301 90.2643V90.1043H110.021V90.3843C110.021 90.6843 109.964 90.9443 109.851 91.1643C109.744 91.3843 109.584 91.5576 109.371 91.6843C109.164 91.811 108.914 91.8843 108.621 91.9043ZM112.502 96.5143C112.022 96.5143 111.602 96.411 111.242 96.2043C110.889 95.991 110.616 95.691 110.422 95.3043C110.229 94.911 110.132 94.4476 110.132 93.9143C110.132 93.3743 110.229 92.911 110.422 92.5243C110.616 92.1376 110.889 91.841 111.242 91.6343C111.602 91.421 112.022 91.3143 112.502 91.3143C112.989 91.3143 113.409 91.421 113.762 91.6343C114.122 91.841 114.399 92.1376 114.592 92.5243C114.792 92.911 114.892 93.3743 114.892 93.9143C114.892 94.4476 114.792 94.911 114.592 95.3043C114.399 95.691 114.122 95.991 113.762 96.2043C113.409 96.411 112.989 96.5143 112.502 96.5143ZM112.502 95.8543C112.982 95.8543 113.362 95.691 113.642 95.3643C113.922 95.031 114.062 94.5476 114.062 93.9143C114.062 93.2743 113.919 92.791 113.632 92.4643C113.352 92.131 112.976 91.9643 112.502 91.9643C112.029 91.9643 111.652 92.131 111.372 92.4643C111.092 92.791 110.952 93.2743 110.952 93.9143C110.952 94.5476 111.092 95.031 111.372 95.3643C111.652 95.691 112.029 95.8543 112.502 95.8543ZM113.442 91.9043L113.022 91.6243V91.4043C113.302 91.3976 113.522 91.3543 113.682 91.2743C113.842 91.1943 113.956 91.071 114.022 90.9043C114.089 90.7376 114.122 90.5243 114.122 90.2643V90.1043H114.842V90.3843C114.842 90.6843 114.786 90.9443 114.672 91.1643C114.566 91.3843 114.406 91.5576 114.192 91.6843C113.986 91.811 113.736 91.8843 113.442 91.9043ZM112.172 90.9143L113.202 88.8943H114.072L112.752 90.9143H112.172ZM118.265 96.5143C117.772 96.5143 117.342 96.4076 116.975 96.1943C116.615 95.981 116.335 95.6776 116.135 95.2843C115.942 94.891 115.845 94.4243 115.845 93.8843C115.845 93.3376 115.945 92.8743 116.145 92.4943C116.345 92.1076 116.625 91.8143 116.985 91.6143C117.352 91.4143 117.779 91.3143 118.265 91.3143C118.585 91.3143 118.895 91.371 119.195 91.4843C119.502 91.5976 119.755 91.7576 119.955 91.9643L119.665 92.5443C119.465 92.351 119.245 92.2076 119.005 92.1143C118.772 92.021 118.542 91.9743 118.315 91.9743C117.795 91.9743 117.392 92.1376 117.105 92.4643C116.819 92.791 116.675 93.2676 116.675 93.8943C116.675 94.5143 116.819 94.9943 117.105 95.3343C117.392 95.6743 117.795 95.8443 118.315 95.8443C118.535 95.8443 118.762 95.801 118.995 95.7143C119.235 95.6276 119.459 95.4843 119.665 95.2843L119.955 95.8543C119.749 96.0676 119.492 96.231 119.185 96.3443C118.879 96.4576 118.572 96.5143 118.265 96.5143ZM123.714 96.4243V92.5643C123.714 92.3776 123.704 92.1876 123.684 91.9943C123.67 91.7943 123.654 91.5976 123.634 91.4043H124.414L124.514 92.5043H124.394C124.54 92.1176 124.774 91.8243 125.094 91.6243C125.42 91.4176 125.797 91.3143 126.224 91.3143C126.817 91.3143 127.264 91.4743 127.564 91.7943C127.87 92.1076 128.024 92.6043 128.024 93.2843V96.4243H127.214V93.3343C127.214 92.861 127.117 92.5176 126.924 92.3043C126.737 92.0843 126.444 91.9743 126.044 91.9743C125.577 91.9743 125.207 92.1176 124.934 92.4043C124.66 92.691 124.524 93.0743 124.524 93.5543V96.4243H123.714ZM131.783 98.6543C131.35 98.6543 130.95 98.601 130.583 98.4943C130.217 98.3876 129.887 98.2243 129.593 98.0043L129.833 97.3943C130.04 97.541 130.243 97.6576 130.443 97.7443C130.643 97.831 130.85 97.8943 131.063 97.9343C131.277 97.981 131.503 98.0043 131.743 98.0043C132.237 98.0043 132.61 97.8743 132.863 97.6143C133.117 97.3543 133.243 96.9843 133.243 96.5043V95.0343H133.343C133.237 95.4276 133.017 95.741 132.683 95.9743C132.35 96.201 131.96 96.3143 131.513 96.3143C131.053 96.3143 130.653 96.2143 130.313 96.0143C129.98 95.8076 129.72 95.5176 129.533 95.1443C129.353 94.7643 129.263 94.3176 129.263 93.8043C129.263 93.2976 129.353 92.8576 129.533 92.4843C129.72 92.111 129.98 91.8243 130.313 91.6243C130.653 91.4176 131.053 91.3143 131.513 91.3143C131.967 91.3143 132.357 91.4276 132.683 91.6543C133.017 91.881 133.237 92.1943 133.343 92.5943L133.243 92.4943L133.333 91.4043H134.123C134.097 91.5976 134.077 91.7943 134.063 91.9943C134.05 92.1876 134.043 92.3776 134.043 92.5643V96.3943C134.043 97.141 133.85 97.7043 133.463 98.0843C133.083 98.4643 132.523 98.6543 131.783 98.6543ZM131.663 95.6543C132.15 95.6543 132.533 95.4943 132.813 95.1743C133.093 94.8476 133.233 94.391 133.233 93.8043C133.233 93.2176 133.093 92.7643 132.813 92.4443C132.533 92.1243 132.15 91.9643 131.663 91.9643C131.183 91.9643 130.8 92.1243 130.513 92.4443C130.227 92.7643 130.083 93.2176 130.083 93.8043C130.083 94.391 130.227 94.8476 130.513 95.1743C130.8 95.4943 131.183 95.6543 131.663 95.6543ZM137.509 96.5143C137.062 96.5143 136.672 96.411 136.339 96.2043C136.005 95.991 135.745 95.691 135.559 95.3043C135.379 94.9176 135.289 94.4543 135.289 93.9143C135.289 93.3676 135.379 92.901 135.559 92.5143C135.745 92.1276 136.005 91.831 136.339 91.6243C136.672 91.4176 137.062 91.3143 137.509 91.3143C137.962 91.3143 138.352 91.431 138.679 91.6643C139.012 91.891 139.232 92.201 139.339 92.5943H139.219L139.329 91.4043H140.109C140.089 91.5976 140.069 91.7943 140.049 91.9943C140.035 92.1876 140.029 92.3776 140.029 92.5643V96.4243H139.219V95.2443H139.329C139.222 95.6376 139.002 95.9476 138.669 96.1743C138.335 96.401 137.949 96.5143 137.509 96.5143ZM137.669 95.8543C138.149 95.8543 138.529 95.691 138.809 95.3643C139.089 95.031 139.229 94.5476 139.229 93.9143C139.229 93.2743 139.089 92.791 138.809 92.4643C138.529 92.131 138.149 91.9643 137.669 91.9643C137.195 91.9643 136.815 92.131 136.529 92.4643C136.249 92.791 136.109 93.2743 136.109 93.9143C136.109 94.5476 136.249 95.031 136.529 95.3643C136.815 95.691 137.195 95.8543 137.669 95.8543ZM137.459 90.9143L136.139 88.8943H137.009L138.039 90.9143H137.459ZM141.395 98.6943L141.205 98.0243C141.518 97.951 141.778 97.8643 141.985 97.7643C142.198 97.671 142.375 97.5443 142.515 97.3843C142.655 97.2243 142.775 97.0243 142.875 96.7843L143.135 96.1943L143.115 96.5343L140.925 91.4043H141.805L143.615 95.8143H143.355L145.145 91.4043H145.995L143.675 96.8443C143.541 97.1643 143.395 97.431 143.235 97.6443C143.075 97.8643 142.901 98.041 142.715 98.1743C142.535 98.3143 142.335 98.4243 142.115 98.5043C141.895 98.5843 141.655 98.6476 141.395 98.6943ZM48.0416 109.424V108.804L50.5416 106.194C50.8683 105.854 51.1116 105.531 51.2716 105.224C51.4383 104.911 51.5216 104.588 51.5216 104.254C51.5216 103.848 51.395 103.541 51.1416 103.334C50.8883 103.121 50.5216 103.014 50.0416 103.014C49.6683 103.014 49.3216 103.081 49.0016 103.214C48.6883 103.341 48.385 103.544 48.0916 103.824L47.7916 103.174C48.0583 102.908 48.3983 102.694 48.8116 102.534C49.225 102.368 49.6616 102.284 50.1216 102.284C50.835 102.284 51.385 102.451 51.7716 102.784C52.1583 103.111 52.3516 103.578 52.3516 104.184C52.3516 104.631 52.2416 105.058 52.0216 105.464C51.8083 105.864 51.495 106.278 51.0816 106.704L48.8716 108.944V108.714H52.6516V109.424H48.0416ZM56.1377 109.514C55.6644 109.514 55.2111 109.441 54.7777 109.294C54.3444 109.148 53.9811 108.938 53.6877 108.664L53.9977 108.024C54.3244 108.291 54.6611 108.484 55.0077 108.604C55.3544 108.724 55.7277 108.784 56.1277 108.784C56.6544 108.784 57.0544 108.674 57.3277 108.454C57.6011 108.228 57.7377 107.898 57.7377 107.464C57.7377 107.051 57.5977 106.738 57.3177 106.524C57.0377 106.304 56.6277 106.194 56.0877 106.194H55.0277V105.504H56.0177C56.4844 105.504 56.8544 105.384 57.1277 105.144C57.4011 104.904 57.5377 104.578 57.5377 104.164C57.5377 103.791 57.4111 103.508 57.1577 103.314C56.9111 103.114 56.5544 103.014 56.0877 103.014C55.3277 103.014 54.6711 103.284 54.1177 103.824L53.8077 103.174C54.0811 102.894 54.4244 102.678 54.8377 102.524C55.2511 102.364 55.6844 102.284 56.1377 102.284C56.8311 102.284 57.3744 102.444 57.7677 102.764C58.1611 103.084 58.3577 103.528 58.3577 104.094C58.3577 104.528 58.2344 104.901 57.9877 105.214C57.7411 105.521 57.4077 105.731 56.9877 105.844V105.734C57.4877 105.814 57.8744 106.014 58.1477 106.334C58.4211 106.648 58.5577 107.044 58.5577 107.524C58.5577 108.138 58.3411 108.624 57.9077 108.984C57.4811 109.338 56.8911 109.514 56.1377 109.514ZM59.6438 109.974H58.9438L61.5638 101.944H62.2638L59.6438 109.974ZM63.3052 109.424V108.714H64.9652V103.084H65.4052L63.4652 104.294V103.464L65.1952 102.374H65.7952V108.714H67.3552V109.424H63.3052ZM71.0313 109.514C70.2313 109.514 69.6179 109.204 69.1913 108.584C68.7646 107.964 68.5513 107.068 68.5513 105.894C68.5513 104.714 68.7646 103.818 69.1913 103.204C69.6179 102.591 70.2313 102.284 71.0313 102.284C71.8379 102.284 72.4513 102.591 72.8713 103.204C73.2979 103.818 73.5113 104.711 73.5113 105.884C73.5113 107.064 73.2979 107.964 72.8713 108.584C72.4446 109.204 71.8313 109.514 71.0313 109.514ZM71.0313 108.794C71.5913 108.794 72.0079 108.558 72.2813 108.084C72.5546 107.611 72.6913 106.878 72.6913 105.884C72.6913 104.884 72.5546 104.154 72.2813 103.694C72.0079 103.228 71.5913 102.994 71.0313 102.994C70.4779 102.994 70.0613 103.228 69.7813 103.694C69.5079 104.161 69.3713 104.891 69.3713 105.884C69.3713 106.878 69.5079 107.611 69.7813 108.084C70.0613 108.558 70.4779 108.794 71.0313 108.794ZM74.4973 109.974H73.7973L76.4173 101.944H77.1173L74.4973 109.974ZM77.7487 109.424V108.804L80.2487 106.194C80.5753 105.854 80.8187 105.531 80.9787 105.224C81.1453 104.911 81.2287 104.588 81.2287 104.254C81.2287 103.848 81.102 103.541 80.8487 103.334C80.5953 103.121 80.2287 103.014 79.7487 103.014C79.3753 103.014 79.0287 103.081 78.7087 103.214C78.3953 103.341 78.092 103.544 77.7987 103.824L77.4987 103.174C77.7653 102.908 78.1053 102.694 78.5187 102.534C78.932 102.368 79.3687 102.284 79.8287 102.284C80.542 102.284 81.092 102.451 81.4787 102.784C81.8653 103.111 82.0587 103.578 82.0587 104.184C82.0587 104.631 81.9487 105.058 81.7287 105.464C81.5153 105.864 81.202 106.278 80.7887 106.704L78.5787 108.944V108.714H82.3587V109.424H77.7487ZM85.8848 109.514C85.0848 109.514 84.4714 109.204 84.0448 108.584C83.6181 107.964 83.4048 107.068 83.4048 105.894C83.4048 104.714 83.6181 103.818 84.0448 103.204C84.4714 102.591 85.0848 102.284 85.8848 102.284C86.6914 102.284 87.3048 102.591 87.7248 103.204C88.1514 103.818 88.3648 104.711 88.3648 105.884C88.3648 107.064 88.1514 107.964 87.7248 108.584C87.2981 109.204 86.6848 109.514 85.8848 109.514ZM85.8848 108.794C86.4448 108.794 86.8614 108.558 87.1348 108.084C87.4081 107.611 87.5448 106.878 87.5448 105.884C87.5448 104.884 87.4081 104.154 87.1348 103.694C86.8614 103.228 86.4448 102.994 85.8848 102.994C85.3314 102.994 84.9148 103.228 84.6348 103.694C84.3614 104.161 84.2248 104.891 84.2248 105.884C84.2248 106.878 84.3614 107.611 84.6348 108.084C84.9148 108.558 85.3314 108.794 85.8848 108.794ZM89.7409 109.424V108.804L92.2409 106.194C92.5675 105.854 92.8109 105.531 92.9709 105.224C93.1375 104.911 93.2209 104.588 93.2209 104.254C93.2209 103.848 93.0942 103.541 92.8409 103.334C92.5875 103.121 92.2209 103.014 91.7409 103.014C91.3675 103.014 91.0209 103.081 90.7009 103.214C90.3875 103.341 90.0842 103.544 89.7909 103.824L89.4909 103.174C89.7575 102.908 90.0975 102.694 90.5109 102.534C90.9242 102.368 91.3609 102.284 91.8209 102.284C92.5342 102.284 93.0842 102.451 93.4709 102.784C93.8575 103.111 94.0509 103.578 94.0509 104.184C94.0509 104.631 93.9409 105.058 93.7209 105.464C93.5075 105.864 93.1942 106.278 92.7809 106.704L90.5709 108.944V108.714H94.3509V109.424H89.7409ZM95.737 109.424V108.804L98.237 106.194C98.5636 105.854 98.807 105.531 98.967 105.224C99.1336 104.911 99.217 104.588 99.217 104.254C99.217 103.848 99.0903 103.541 98.837 103.334C98.5836 103.121 98.217 103.014 97.737 103.014C97.3636 103.014 97.017 103.081 96.697 103.214C96.3836 103.341 96.0803 103.544 95.787 103.824L95.487 103.174C95.7536 102.908 96.0936 102.694 96.507 102.534C96.9203 102.368 97.357 102.284 97.817 102.284C98.5303 102.284 99.0803 102.451 99.467 102.784C99.8536 103.111 100.047 103.578 100.047 104.184C100.047 104.631 99.937 105.058 99.717 105.464C99.5036 105.864 99.1903 106.278 98.777 106.704L96.567 108.944V108.714H100.347V109.424H95.737ZM104.27 109.424V102.064H105.08V105.514H104.95C105.09 105.121 105.324 104.824 105.65 104.624C105.984 104.418 106.367 104.314 106.8 104.314C107.4 104.314 107.847 104.478 108.14 104.804C108.434 105.124 108.58 105.611 108.58 106.264V109.424H107.77V106.314C107.77 105.848 107.677 105.508 107.49 105.294C107.31 105.081 107.017 104.974 106.61 104.974C106.144 104.974 105.77 105.118 105.49 105.404C105.217 105.691 105.08 106.068 105.08 106.534V109.424H104.27ZM112.19 109.514C111.71 109.514 111.29 109.411 110.93 109.204C110.577 108.991 110.303 108.691 110.11 108.304C109.917 107.911 109.82 107.448 109.82 106.914C109.82 106.374 109.917 105.911 110.11 105.524C110.303 105.138 110.577 104.841 110.93 104.634C111.29 104.421 111.71 104.314 112.19 104.314C112.677 104.314 113.097 104.421 113.45 104.634C113.81 104.841 114.087 105.138 114.28 105.524C114.48 105.911 114.58 106.374 114.58 106.914C114.58 107.448 114.48 107.911 114.28 108.304C114.087 108.691 113.81 108.991 113.45 109.204C113.097 109.411 112.677 109.514 112.19 109.514ZM112.19 108.854C112.67 108.854 113.05 108.691 113.33 108.364C113.61 108.031 113.75 107.548 113.75 106.914C113.75 106.274 113.607 105.791 113.32 105.464C113.04 105.131 112.663 104.964 112.19 104.964C111.717 104.964 111.34 105.131 111.06 105.464C110.78 105.791 110.64 106.274 110.64 106.914C110.64 107.548 110.78 108.031 111.06 108.364C111.34 108.691 111.717 108.854 112.19 108.854ZM117.753 109.514C117.306 109.514 116.916 109.411 116.583 109.204C116.249 108.991 115.989 108.691 115.803 108.304C115.623 107.918 115.533 107.454 115.533 106.914C115.533 106.368 115.623 105.901 115.803 105.514C115.989 105.128 116.249 104.831 116.583 104.624C116.916 104.418 117.306 104.314 117.753 104.314C118.206 104.314 118.596 104.431 118.923 104.664C119.256 104.891 119.476 105.201 119.583 105.594H119.463L119.573 104.404H120.353C120.333 104.598 120.313 104.794 120.293 104.994C120.279 105.188 120.273 105.378 120.273 105.564V109.424H119.463V108.244H119.573C119.466 108.638 119.246 108.948 118.913 109.174C118.579 109.401 118.193 109.514 117.753 109.514ZM117.913 108.854C118.393 108.854 118.773 108.691 119.053 108.364C119.333 108.031 119.473 107.548 119.473 106.914C119.473 106.274 119.333 105.791 119.053 105.464C118.773 105.131 118.393 104.964 117.913 104.964C117.439 104.964 117.059 105.131 116.773 105.464C116.493 105.791 116.353 106.274 116.353 106.914C116.353 107.548 116.493 108.031 116.773 108.364C117.059 108.691 117.439 108.854 117.913 108.854ZM117.523 111.294V110.414H118.443V111.294H117.523ZM117.993 103.934C117.693 103.934 117.429 103.858 117.203 103.704C116.976 103.551 116.799 103.334 116.673 103.054C116.546 102.768 116.473 102.428 116.453 102.034L116.963 101.984C116.989 102.431 117.089 102.778 117.263 103.024C117.443 103.264 117.686 103.384 117.993 103.384C118.299 103.384 118.539 103.264 118.713 103.024C118.893 102.778 118.996 102.431 119.023 101.984L119.533 102.034C119.519 102.428 119.446 102.768 119.313 103.054C119.186 103.334 119.009 103.551 118.783 103.704C118.556 103.858 118.293 103.934 117.993 103.934ZM123.949 109.514C123.455 109.514 123.025 109.408 122.659 109.194C122.299 108.981 122.019 108.678 121.819 108.284C121.625 107.891 121.529 107.424 121.529 106.884C121.529 106.338 121.629 105.874 121.829 105.494C122.029 105.108 122.309 104.814 122.669 104.614C123.035 104.414 123.462 104.314 123.949 104.314C124.269 104.314 124.579 104.371 124.879 104.484C125.185 104.598 125.439 104.758 125.639 104.964L125.349 105.544C125.149 105.351 124.929 105.208 124.689 105.114C124.455 105.021 124.225 104.974 123.999 104.974C123.479 104.974 123.075 105.138 122.789 105.464C122.502 105.791 122.359 106.268 122.359 106.894C122.359 107.514 122.502 107.994 122.789 108.334C123.075 108.674 123.479 108.844 123.999 108.844C124.219 108.844 124.445 108.801 124.679 108.714C124.919 108.628 125.142 108.484 125.349 108.284L125.639 108.854C125.432 109.068 125.175 109.231 124.869 109.344C124.562 109.458 124.255 109.514 123.949 109.514ZM129.397 109.424V105.564C129.397 105.378 129.387 105.188 129.367 104.994C129.354 104.794 129.337 104.598 129.317 104.404H130.097L130.197 105.504H130.077C130.224 105.118 130.457 104.824 130.777 104.624C131.104 104.418 131.481 104.314 131.907 104.314C132.501 104.314 132.947 104.474 133.247 104.794C133.554 105.108 133.707 105.604 133.707 106.284V109.424H132.897V106.334C132.897 105.861 132.801 105.518 132.607 105.304C132.421 105.084 132.127 104.974 131.727 104.974C131.261 104.974 130.891 105.118 130.617 105.404C130.344 105.691 130.207 106.074 130.207 106.554V109.424H129.397ZM135.257 109.424V102.064H136.067V105.514H135.937C136.077 105.121 136.31 104.824 136.637 104.624C136.97 104.418 137.353 104.314 137.787 104.314C138.387 104.314 138.833 104.478 139.127 104.804C139.42 105.124 139.567 105.611 139.567 106.264V109.424H138.757V106.314C138.757 105.848 138.663 105.508 138.477 105.294C138.297 105.081 138.003 104.974 137.597 104.974C137.13 104.974 136.757 105.118 136.477 105.404C136.203 105.691 136.067 106.068 136.067 106.534V109.424H135.257ZM143.176 109.514C142.696 109.514 142.276 109.411 141.916 109.204C141.563 108.991 141.29 108.691 141.096 108.304C140.903 107.911 140.806 107.448 140.806 106.914C140.806 106.374 140.903 105.911 141.096 105.524C141.29 105.138 141.563 104.841 141.916 104.634C142.276 104.421 142.696 104.314 143.176 104.314C143.663 104.314 144.083 104.421 144.436 104.634C144.796 104.841 145.073 105.138 145.266 105.524C145.466 105.911 145.566 106.374 145.566 106.914C145.566 107.448 145.466 107.911 145.266 108.304C145.073 108.691 144.796 108.991 144.436 109.204C144.083 109.411 143.663 109.514 143.176 109.514ZM143.176 108.854C143.656 108.854 144.036 108.691 144.316 108.364C144.596 108.031 144.736 107.548 144.736 106.914C144.736 106.274 144.593 105.791 144.306 105.464C144.026 105.131 143.65 104.964 143.176 104.964C142.703 104.964 142.326 105.131 142.046 105.464C141.766 105.791 141.626 106.274 141.626 106.914C141.626 107.548 141.766 108.031 142.046 108.364C142.326 108.691 142.703 108.854 143.176 108.854ZM142.896 103.914L143.926 101.894H144.796L143.476 103.914H142.896ZM146.829 109.424V105.564C146.829 105.378 146.819 105.188 146.799 104.994C146.786 104.794 146.769 104.598 146.749 104.404H147.529L147.629 105.504H147.509C147.642 105.124 147.852 104.831 148.139 104.624C148.432 104.418 148.786 104.314 149.199 104.314C149.619 104.314 149.959 104.414 150.219 104.614C150.486 104.814 150.666 105.124 150.759 105.544H150.609C150.736 105.164 150.959 104.864 151.279 104.644C151.599 104.424 151.972 104.314 152.399 104.314C152.952 104.314 153.369 104.474 153.649 104.794C153.929 105.108 154.069 105.604 154.069 106.284V109.424H153.259V106.334C153.259 105.861 153.176 105.518 153.009 105.304C152.842 105.084 152.576 104.974 152.209 104.974C151.789 104.974 151.456 105.121 151.209 105.414C150.969 105.701 150.849 106.088 150.849 106.574V109.424H150.039V106.334C150.039 105.861 149.956 105.518 149.789 105.304C149.622 105.084 149.356 104.974 148.989 104.974C148.569 104.974 148.239 105.121 147.999 105.414C147.759 105.701 147.639 106.088 147.639 106.574V109.424H146.829ZM67.9844 122.514C67.1844 122.514 66.571 122.204 66.1444 121.584C65.7177 120.964 65.5044 120.068 65.5044 118.894C65.5044 117.714 65.7177 116.818 66.1444 116.204C66.571 115.591 67.1844 115.284 67.9844 115.284C68.791 115.284 69.4044 115.591 69.8244 116.204C70.251 116.818 70.4644 117.711 70.4644 118.884C70.4644 120.064 70.251 120.964 69.8244 121.584C69.3977 122.204 68.7844 122.514 67.9844 122.514ZM67.9844 121.794C68.5444 121.794 68.961 121.558 69.2344 121.084C69.5077 120.611 69.6444 119.878 69.6444 118.884C69.6444 117.884 69.5077 117.154 69.2344 116.694C68.961 116.228 68.5444 115.994 67.9844 115.994C67.431 115.994 67.0144 116.228 66.7344 116.694C66.461 117.161 66.3244 117.891 66.3244 118.884C66.3244 119.878 66.461 120.611 66.7344 121.084C67.0144 121.558 67.431 121.794 67.9844 121.794ZM73.9405 122.514C73.4671 122.514 73.0138 122.441 72.5805 122.294C72.1471 122.148 71.7838 121.938 71.4905 121.664L71.8005 121.024C72.1271 121.291 72.4638 121.484 72.8105 121.604C73.1571 121.724 73.5305 121.784 73.9305 121.784C74.4571 121.784 74.8571 121.674 75.1305 121.454C75.4038 121.228 75.5405 120.898 75.5405 120.464C75.5405 120.051 75.4005 119.738 75.1205 119.524C74.8405 119.304 74.4305 119.194 73.8905 119.194H72.8305V118.504H73.8205C74.2871 118.504 74.6571 118.384 74.9305 118.144C75.2038 117.904 75.3405 117.578 75.3405 117.164C75.3405 116.791 75.2138 116.508 74.9605 116.314C74.7138 116.114 74.3571 116.014 73.8905 116.014C73.1305 116.014 72.4738 116.284 71.9205 116.824L71.6105 116.174C71.8838 115.894 72.2271 115.678 72.6405 115.524C73.0538 115.364 73.4871 115.284 73.9405 115.284C74.6338 115.284 75.1771 115.444 75.5705 115.764C75.9638 116.084 76.1605 116.528 76.1605 117.094C76.1605 117.528 76.0371 117.901 75.7905 118.214C75.5438 118.521 75.2105 118.731 74.7905 118.844V118.734C75.2905 118.814 75.6771 119.014 75.9505 119.334C76.2238 119.648 76.3605 120.044 76.3605 120.524C76.3605 121.138 76.1438 121.624 75.7105 121.984C75.2838 122.338 74.6938 122.514 73.9405 122.514ZM80.374 122.424V118.564C80.374 118.378 80.364 118.188 80.344 117.994C80.3307 117.794 80.314 117.598 80.294 117.404H81.074L81.174 118.504H81.054C81.2007 118.118 81.434 117.824 81.754 117.624C82.0807 117.418 82.4573 117.314 82.884 117.314C83.4773 117.314 83.924 117.474 84.224 117.794C84.5307 118.108 84.684 118.604 84.684 119.284V122.424H83.874V119.334C83.874 118.861 83.7773 118.518 83.584 118.304C83.3973 118.084 83.104 117.974 82.704 117.974C82.2373 117.974 81.8673 118.118 81.594 118.404C81.3207 118.691 81.184 119.074 81.184 119.554V122.424H80.374ZM88.4434 124.654C88.01 124.654 87.61 124.601 87.2434 124.494C86.8767 124.388 86.5467 124.224 86.2534 124.004L86.4934 123.394C86.7 123.541 86.9034 123.658 87.1034 123.744C87.3034 123.831 87.51 123.894 87.7234 123.934C87.9367 123.981 88.1634 124.004 88.4034 124.004C88.8967 124.004 89.27 123.874 89.5234 123.614C89.7767 123.354 89.9034 122.984 89.9034 122.504V121.034H90.0034C89.8967 121.428 89.6767 121.741 89.3434 121.974C89.01 122.201 88.62 122.314 88.1734 122.314C87.7134 122.314 87.3134 122.214 86.9734 122.014C86.64 121.808 86.38 121.518 86.1934 121.144C86.0134 120.764 85.9234 120.318 85.9234 119.804C85.9234 119.298 86.0134 118.858 86.1934 118.484C86.38 118.111 86.64 117.824 86.9734 117.624C87.3134 117.418 87.7134 117.314 88.1734 117.314C88.6267 117.314 89.0167 117.428 89.3434 117.654C89.6767 117.881 89.8967 118.194 90.0034 118.594L89.9034 118.494L89.9934 117.404H90.7834C90.7567 117.598 90.7367 117.794 90.7234 117.994C90.71 118.188 90.7034 118.378 90.7034 118.564V122.394C90.7034 123.141 90.51 123.704 90.1234 124.084C89.7434 124.464 89.1834 124.654 88.4434 124.654ZM88.3234 121.654C88.81 121.654 89.1934 121.494 89.4734 121.174C89.7534 120.848 89.8934 120.391 89.8934 119.804C89.8934 119.218 89.7534 118.764 89.4734 118.444C89.1934 118.124 88.81 117.964 88.3234 117.964C87.8434 117.964 87.46 118.124 87.1734 118.444C86.8867 118.764 86.7434 119.218 86.7434 119.804C86.7434 120.391 86.8867 120.848 87.1734 121.174C87.46 121.494 87.8434 121.654 88.3234 121.654ZM94.0288 122.514C93.4354 122.514 92.9854 122.351 92.6788 122.024C92.3788 121.698 92.2288 121.198 92.2288 120.524V117.404H93.0388V120.504C93.0388 120.964 93.1321 121.304 93.3188 121.524C93.5054 121.738 93.7954 121.844 94.1888 121.844C94.6288 121.844 94.9821 121.701 95.2488 121.414C95.5154 121.128 95.6488 120.744 95.6488 120.264V117.404H96.4588V122.424H95.6688V121.294H95.7988C95.6588 121.681 95.4321 121.981 95.1188 122.194C94.8121 122.408 94.4488 122.514 94.0288 122.514ZM96.2088 117.904L95.7888 117.624V117.404C96.0688 117.398 96.2888 117.354 96.4488 117.274C96.6088 117.194 96.7221 117.071 96.7888 116.904C96.8554 116.738 96.8888 116.524 96.8888 116.264V116.104H97.6088V116.384C97.6088 116.684 97.5521 116.944 97.4388 117.164C97.3321 117.384 97.1721 117.558 96.9588 117.684C96.7521 117.811 96.5021 117.884 96.2088 117.904ZM100.09 122.514C99.6102 122.514 99.1902 122.411 98.8302 122.204C98.4769 121.991 98.2036 121.691 98.0102 121.304C97.8169 120.911 97.7202 120.448 97.7202 119.914C97.7202 119.374 97.8169 118.911 98.0102 118.524C98.2036 118.138 98.4769 117.841 98.8302 117.634C99.1902 117.421 99.6102 117.314 100.09 117.314C100.577 117.314 100.997 117.421 101.35 117.634C101.71 117.841 101.987 118.138 102.18 118.524C102.38 118.911 102.48 119.374 102.48 119.914C102.48 120.448 102.38 120.911 102.18 121.304C101.987 121.691 101.71 121.991 101.35 122.204C100.997 122.411 100.577 122.514 100.09 122.514ZM100.09 121.854C100.57 121.854 100.95 121.691 101.23 121.364C101.51 121.031 101.65 120.548 101.65 119.914C101.65 119.274 101.507 118.791 101.22 118.464C100.94 118.131 100.564 117.964 100.09 117.964C99.6169 117.964 99.2402 118.131 98.9602 118.464C98.6802 118.791 98.5402 119.274 98.5402 119.914C98.5402 120.548 98.6802 121.031 98.9602 121.364C99.2402 121.691 99.6169 121.854 100.09 121.854ZM101.03 117.904L100.61 117.624V117.404C100.89 117.398 101.11 117.354 101.27 117.274C101.43 117.194 101.544 117.071 101.61 116.904C101.677 116.738 101.71 116.524 101.71 116.264V116.104H102.43V116.384C102.43 116.684 102.374 116.944 102.26 117.164C102.154 117.384 101.994 117.558 101.78 117.684C101.574 117.811 101.324 117.884 101.03 117.904ZM99.7602 116.914L98.4402 114.894H99.3102L100.34 116.914H99.7602ZM103.743 122.424V117.404H104.553V122.424H103.743ZM103.643 116.264V115.354H104.643V116.264H103.643ZM110.513 122.514C110.02 122.514 109.643 122.374 109.383 122.094C109.123 121.808 108.993 121.378 108.993 120.804V118.034H108.013V117.404H108.993V116.034L109.803 115.804V117.404H111.243V118.034H109.803V120.714C109.803 121.114 109.87 121.401 110.003 121.574C110.143 121.741 110.35 121.824 110.623 121.824C110.75 121.824 110.863 121.814 110.963 121.794C111.063 121.768 111.153 121.738 111.233 121.704V122.384C111.14 122.424 111.027 122.454 110.893 122.474C110.767 122.501 110.64 122.514 110.513 122.514ZM112.209 122.424V118.614C112.209 118.414 112.203 118.211 112.189 118.004C112.183 117.798 112.169 117.598 112.149 117.404H112.929L113.029 118.624L112.889 118.634C112.956 118.334 113.073 118.088 113.239 117.894C113.406 117.701 113.603 117.558 113.829 117.464C114.056 117.364 114.293 117.314 114.539 117.314C114.639 117.314 114.726 117.318 114.799 117.324C114.879 117.331 114.953 117.348 115.019 117.374L115.009 118.094C114.909 118.061 114.816 118.041 114.729 118.034C114.649 118.021 114.556 118.014 114.449 118.014C114.156 118.014 113.899 118.084 113.679 118.224C113.466 118.364 113.303 118.544 113.189 118.764C113.083 118.984 113.029 119.218 113.029 119.464V122.424H112.209ZM117.864 122.514C117.384 122.514 116.964 122.411 116.604 122.204C116.25 121.991 115.977 121.691 115.784 121.304C115.59 120.911 115.494 120.448 115.494 119.914C115.494 119.374 115.59 118.911 115.784 118.524C115.977 118.138 116.25 117.841 116.604 117.634C116.964 117.421 117.384 117.314 117.864 117.314C118.35 117.314 118.77 117.421 119.124 117.634C119.484 117.841 119.76 118.138 119.954 118.524C120.154 118.911 120.254 119.374 120.254 119.914C120.254 120.448 120.154 120.911 119.954 121.304C119.76 121.691 119.484 121.991 119.124 122.204C118.77 122.411 118.35 122.514 117.864 122.514ZM117.864 121.854C118.344 121.854 118.724 121.691 119.004 121.364C119.284 121.031 119.424 120.548 119.424 119.914C119.424 119.274 119.28 118.791 118.994 118.464C118.714 118.131 118.337 117.964 117.864 117.964C117.39 117.964 117.014 118.131 116.734 118.464C116.454 118.791 116.314 119.274 116.314 119.914C116.314 120.548 116.454 121.031 116.734 121.364C117.014 121.691 117.39 121.854 117.864 121.854ZM118.804 117.904L118.384 117.624V117.404C118.664 117.398 118.884 117.354 119.044 117.274C119.204 117.194 119.317 117.071 119.384 116.904C119.45 116.738 119.484 116.524 119.484 116.264V116.104H120.204V116.384C120.204 116.684 120.147 116.944 120.034 117.164C119.927 117.384 119.767 117.558 119.554 117.684C119.347 117.811 119.097 117.884 118.804 117.904ZM117.554 116.914V116.704C117.554 116.551 117.584 116.424 117.644 116.324C117.71 116.224 117.784 116.141 117.864 116.074C117.944 116.001 118.014 115.928 118.074 115.854C118.14 115.781 118.174 115.698 118.174 115.604C118.174 115.511 118.134 115.441 118.054 115.394C117.98 115.348 117.867 115.324 117.714 115.324C117.607 115.324 117.504 115.338 117.404 115.364C117.31 115.384 117.2 115.421 117.074 115.474L116.944 115.054C117.064 114.974 117.2 114.918 117.354 114.884C117.514 114.851 117.684 114.834 117.864 114.834C118.17 114.834 118.407 114.894 118.574 115.014C118.747 115.128 118.834 115.294 118.834 115.514C118.834 115.681 118.797 115.814 118.724 115.914C118.65 116.014 118.564 116.101 118.464 116.174C118.37 116.248 118.284 116.328 118.204 116.414C118.13 116.501 118.094 116.614 118.094 116.754V116.914H117.554ZM124.124 122.424V115.064H124.934V122.424H124.124ZM128.737 122.514C127.95 122.514 127.33 122.288 126.877 121.834C126.423 121.374 126.197 120.738 126.197 119.924C126.197 119.398 126.297 118.941 126.497 118.554C126.697 118.161 126.977 117.858 127.337 117.644C127.697 117.424 128.11 117.314 128.577 117.314C129.037 117.314 129.423 117.411 129.737 117.604C130.05 117.798 130.29 118.074 130.457 118.434C130.623 118.788 130.707 119.208 130.707 119.694V119.994H126.817V119.484H130.177L130.007 119.614C130.007 119.081 129.887 118.664 129.647 118.364C129.407 118.064 129.05 117.914 128.577 117.914C128.077 117.914 127.687 118.091 127.407 118.444C127.127 118.791 126.987 119.261 126.987 119.854V119.944C126.987 120.571 127.14 121.048 127.447 121.374C127.76 121.694 128.197 121.854 128.757 121.854C129.057 121.854 129.337 121.811 129.597 121.724C129.863 121.631 130.117 121.481 130.357 121.274L130.637 121.844C130.417 122.058 130.137 122.224 129.797 122.344C129.463 122.458 129.11 122.514 128.737 122.514ZM127.097 116.914L128.187 114.894H128.967L130.057 116.914H129.497L128.577 115.434L127.657 116.914H127.097ZM131.946 122.424V118.564C131.946 118.378 131.936 118.188 131.916 117.994C131.903 117.794 131.886 117.598 131.866 117.404H132.646L132.746 118.504H132.626C132.773 118.118 133.006 117.824 133.326 117.624C133.653 117.418 134.03 117.314 134.456 117.314C135.05 117.314 135.496 117.474 135.796 117.794C136.103 118.108 136.256 118.604 136.256 119.284V122.424H135.446V119.334C135.446 118.861 135.35 118.518 135.156 118.304C134.97 118.084 134.676 117.974 134.276 117.974C133.81 117.974 133.44 118.118 133.166 118.404C132.893 118.691 132.756 119.074 132.756 119.554V122.424H131.946Z" fill="#005AAA"/>
<path d="M48.2539 154.424V152.467L53.8086 146.409C54.4102 145.729 54.8828 145.143 55.2266 144.651C55.5703 144.159 55.8125 143.709 55.9531 143.303C56.0938 142.897 56.1641 142.487 56.1641 142.073C56.1641 141.331 55.9453 140.702 55.5078 140.186C55.0703 139.67 54.4375 139.413 53.6094 139.413C52.7344 139.413 52.0625 139.69 51.5938 140.245C51.125 140.792 50.8906 141.557 50.8906 142.542H48.0312L48.0078 142.471C47.9844 141.463 48.1992 140.557 48.6523 139.752C49.1055 138.94 49.7578 138.299 50.6094 137.831C51.4688 137.354 52.4883 137.116 53.668 137.116C54.8008 137.116 55.7734 137.323 56.5859 137.737C57.3984 138.151 58.0234 138.725 58.4609 139.459C58.9062 140.194 59.1289 141.042 59.1289 142.002C59.1289 142.651 59.0039 143.28 58.7539 143.889C58.5117 144.499 58.1406 145.131 57.6406 145.788C57.1484 146.444 56.5273 147.174 55.7773 147.979L51.9688 152.092L51.9922 152.151H57.1016L57.2773 150.381H59.6328V154.424H48.2539ZM62.1289 154.424V151.694H65.0703V154.424H62.1289ZM72.582 154.424V152.62L74.4453 152.268V150.405H67.1914L67.0859 148.893L74.3633 137.362H77.3867V148.331H79.4961V150.405H77.3867V152.268L79.2383 152.62V154.424H72.582ZM69.9805 148.331H74.4453V141.381L74.375 141.358L74.1172 141.909L69.9805 148.331ZM87.125 154.67C85.3828 154.67 84.0039 154.088 82.9883 152.924C81.9805 151.752 81.4766 150.057 81.4766 147.838V143.959C81.4766 141.741 81.9805 140.045 82.9883 138.874C83.9961 137.702 85.3672 137.116 87.1016 137.116C88.8281 137.116 90.1992 137.702 91.2148 138.874C92.2305 140.045 92.7383 141.741 92.7383 143.959V147.838C92.7383 150.065 92.2344 151.76 91.2266 152.924C90.2188 154.088 88.8516 154.67 87.125 154.67ZM87.125 152.397C87.9922 152.397 88.6523 152.057 89.1055 151.377C89.5586 150.698 89.7852 149.647 89.7852 148.225V143.549C89.7852 142.143 89.5547 141.1 89.0938 140.42C88.6328 139.741 87.9688 139.401 87.1016 139.401C86.2266 139.401 85.5586 139.741 85.0977 140.42C84.6445 141.092 84.418 142.135 84.418 143.549V148.225C84.418 149.647 84.6484 150.698 85.1094 151.377C85.5703 152.057 86.2422 152.397 87.125 152.397ZM100.836 154.67C99.0938 154.67 97.7148 154.088 96.6992 152.924C95.6914 151.752 95.1875 150.057 95.1875 147.838V143.959C95.1875 141.741 95.6914 140.045 96.6992 138.874C97.707 137.702 99.0781 137.116 100.812 137.116C102.539 137.116 103.91 137.702 104.926 138.874C105.941 140.045 106.449 141.741 106.449 143.959V147.838C106.449 150.065 105.945 151.76 104.938 152.924C103.93 154.088 102.562 154.67 100.836 154.67ZM100.836 152.397C101.703 152.397 102.363 152.057 102.816 151.377C103.27 150.698 103.496 149.647 103.496 148.225V143.549C103.496 142.143 103.266 141.1 102.805 140.42C102.344 139.741 101.68 139.401 100.812 139.401C99.9375 139.401 99.2695 139.741 98.8086 140.42C98.3555 141.092 98.1289 142.135 98.1289 143.549V148.225C98.1289 149.647 98.3594 150.698 98.8203 151.377C99.2812 152.057 99.9531 152.397 100.836 152.397ZM109.238 154.424V151.694H112.18V154.424H109.238ZM120.523 154.67C118.781 154.67 117.402 154.088 116.387 152.924C115.379 151.752 114.875 150.057 114.875 147.838V143.959C114.875 141.741 115.379 140.045 116.387 138.874C117.395 137.702 118.766 137.116 120.5 137.116C122.227 137.116 123.598 137.702 124.613 138.874C125.629 140.045 126.137 141.741 126.137 143.959V147.838C126.137 150.065 125.633 151.76 124.625 152.924C123.617 154.088 122.25 154.67 120.523 154.67ZM120.523 152.397C121.391 152.397 122.051 152.057 122.504 151.377C122.957 150.698 123.184 149.647 123.184 148.225V143.549C123.184 142.143 122.953 141.1 122.492 140.42C122.031 139.741 121.367 139.401 120.5 139.401C119.625 139.401 118.957 139.741 118.496 140.42C118.043 141.092 117.816 142.135 117.816 143.549V148.225C117.816 149.647 118.047 150.698 118.508 151.377C118.969 152.057 119.641 152.397 120.523 152.397ZM134.234 154.67C132.492 154.67 131.113 154.088 130.098 152.924C129.09 151.752 128.586 150.057 128.586 147.838V143.959C128.586 141.741 129.09 140.045 130.098 138.874C131.105 137.702 132.477 137.116 134.211 137.116C135.938 137.116 137.309 137.702 138.324 138.874C139.34 140.045 139.848 141.741 139.848 143.959V147.838C139.848 150.065 139.344 151.76 138.336 152.924C137.328 154.088 135.961 154.67 134.234 154.67ZM134.234 152.397C135.102 152.397 135.762 152.057 136.215 151.377C136.668 150.698 136.895 149.647 136.895 148.225V143.549C136.895 142.143 136.664 141.1 136.203 140.42C135.742 139.741 135.078 139.401 134.211 139.401C133.336 139.401 132.668 139.741 132.207 140.42C131.754 141.092 131.527 142.135 131.527 143.549V148.225C131.527 149.647 131.758 150.698 132.219 151.377C132.68 152.057 133.352 152.397 134.234 152.397ZM147.945 154.67C146.203 154.67 144.824 154.088 143.809 152.924C142.801 151.752 142.297 150.057 142.297 147.838V143.959C142.297 141.741 142.801 140.045 143.809 138.874C144.816 137.702 146.188 137.116 147.922 137.116C149.648 137.116 151.02 137.702 152.035 138.874C153.051 140.045 153.559 141.741 153.559 143.959V147.838C153.559 150.065 153.055 151.76 152.047 152.924C151.039 154.088 149.672 154.67 147.945 154.67ZM147.945 152.397C148.812 152.397 149.473 152.057 149.926 151.377C150.379 150.698 150.605 149.647 150.605 148.225V143.549C150.605 142.143 150.375 141.1 149.914 140.42C149.453 139.741 148.789 139.401 147.922 139.401C147.047 139.401 146.379 139.741 145.918 140.42C145.465 141.092 145.238 142.135 145.238 143.549V148.225C145.238 149.647 145.469 150.698 145.93 151.377C146.391 152.057 147.062 152.397 147.945 152.397Z" fill="#005AAA"/>
<path d="M123.656 170.877L121.2 165.237H121.912L124.096 170.349H123.848L126.048 165.237H126.736L124.264 170.877H123.656ZM127.466 170.877V165.237H127.986L131.602 170.037H131.418V165.237H132.034V170.877H131.522L127.906 166.077H128.082V170.877H127.466ZM133.443 170.877V165.237H135.315C135.939 165.237 136.467 165.346 136.899 165.565C137.331 165.778 137.659 166.096 137.883 166.517C138.107 166.933 138.219 167.445 138.219 168.053C138.219 168.656 138.107 169.168 137.883 169.589C137.659 170.01 137.331 170.33 136.899 170.549C136.467 170.768 135.939 170.877 135.315 170.877H133.443ZM134.107 170.309H135.267C136.035 170.309 136.605 170.122 136.979 169.749C137.352 169.37 137.539 168.805 137.539 168.053C137.539 167.296 137.352 166.73 136.979 166.357C136.605 165.984 136.035 165.797 135.267 165.797H134.107V170.309ZM132.755 168.269V167.757H135.691V168.269H132.755ZM139.013 171.317H138.453L140.549 164.893H141.109L139.013 171.317ZM145.492 170.877L143.036 165.237H143.748L145.932 170.349H145.684L147.884 165.237H148.572L146.1 170.877H145.492ZM149.302 170.877V165.237H152.902V165.781H149.95V167.741H152.726V168.293H149.95V170.325H152.902V170.877H149.302ZM150.974 164.757L151.918 163.381H152.646L151.47 164.757H150.974Z" fill="#005AAA"/>
<rect width="154" height="195.973" transform="translate(182 58.0845)" fill="white"/>
<path d="M200.227 82.0845L196.57 72.2095L195.555 72.0845V70.7095H200.078V72.0845L199.055 72.2407L201.289 78.9517L201.461 79.5767H201.508L201.672 78.9673L203.906 72.2407L202.711 72.0845V70.7095H207.023V72.0845L205.992 72.2095L202.562 82.0845H200.227ZM207.727 82.0845V80.7173L208.938 80.4829V72.3188L207.727 72.0845V70.7095H216.555V73.7798H214.805L214.703 72.4673H211.219V75.3267H215.07V77.0845H211.219V80.3345H214.891L214.992 78.9751H216.727V82.0845H207.727ZM211.039 69.8267L212.594 67.6938H215.008L215.023 67.7407L212.867 69.8267H211.102H211.039ZM224.484 82.0845V80.7173L225.703 80.4829V72.4673H223.633L223.508 73.8267H221.781V70.7095H231.93V73.8267H230.195L230.07 72.4673H227.984V80.4829L229.211 80.7173V82.0845H224.484ZM232.727 82.0845V80.7173L233.938 80.4829V72.3188L232.727 72.0845V70.7095H237.43V72.0845L236.219 72.3188V80.4829L237.43 80.7173V82.0845H232.727ZM238.305 82.0845V80.7173L239.516 80.4829V72.3188L238.305 72.0845V70.7095H247.133V73.7798H245.383L245.281 72.4673H241.797V75.3267H245.648V77.0845H241.797V80.3345H245.469L245.57 78.9751H247.305V82.0845H238.305ZM240.148 69.7954V69.5923L242.141 67.6938H243.82L245.797 69.6157V69.7954H244.016L242.977 68.6704L241.906 69.7954H240.148ZM254.148 82.2485C253.247 82.2485 252.453 82.0923 251.766 81.7798C251.083 81.4673 250.552 81.0142 250.172 80.4204C249.792 79.8267 249.602 79.1053 249.602 78.2563V72.3188L248.391 72.0845V70.7095H253.102V72.0845L251.883 72.3188V78.2563C251.883 78.7563 251.974 79.173 252.156 79.5063C252.339 79.8397 252.599 80.0897 252.938 80.2563C253.276 80.4178 253.68 80.4985 254.148 80.4985C254.628 80.4985 255.036 80.4178 255.375 80.2563C255.719 80.0897 255.982 79.8397 256.164 79.5063C256.346 79.173 256.438 78.7563 256.438 78.2563V72.3188L255.227 72.0845V70.7095H259.938V72.0845L258.719 72.3188V78.2563C258.719 79.1053 258.526 79.8293 258.141 80.4282C257.76 81.022 257.227 81.4751 256.539 81.7876C255.857 82.0949 255.06 82.2485 254.148 82.2485ZM270.016 82.2485C268.911 82.2485 267.951 82.0194 267.133 81.561C266.315 81.0975 265.682 80.4438 265.234 79.6001C264.792 78.7511 264.57 77.7485 264.57 76.5923V76.2095C264.57 75.1053 264.784 74.1287 265.211 73.2798C265.643 72.4256 266.258 71.7563 267.055 71.272C267.852 70.7876 268.799 70.5454 269.898 70.5454C270.669 70.5454 271.391 70.6548 272.062 70.8735C272.74 71.0923 273.344 71.4256 273.875 71.8735V74.6235H272.18L271.945 72.897C271.773 72.772 271.586 72.6652 271.383 72.5767C271.18 72.4881 270.958 72.4204 270.719 72.3735C270.484 72.3267 270.229 72.3032 269.953 72.3032C269.307 72.3032 268.753 72.4621 268.289 72.7798C267.826 73.0975 267.469 73.548 267.219 74.1313C266.974 74.7095 266.852 75.397 266.852 76.1938V76.5923C266.852 77.3892 266.982 78.0793 267.242 78.6626C267.503 79.2459 267.872 79.6991 268.352 80.022C268.831 80.3397 269.398 80.4985 270.055 80.4985C270.383 80.4985 270.711 80.4621 271.039 80.3892C271.372 80.311 271.674 80.2121 271.945 80.0923L272.18 78.4907H273.875V81.2095C273.432 81.5011 272.88 81.7485 272.219 81.9517C271.557 82.1496 270.823 82.2485 270.016 82.2485ZM274.93 82.0845V80.7173L276.141 80.4829V72.3188L274.93 72.0845V70.7095H279.641V72.0845L278.422 72.3188V75.6001H283.062V72.3188L281.844 72.0845V70.7095H283.062H285.336H286.555V72.0845L285.336 72.3188V80.4829L286.555 80.7173V82.0845H281.844V80.7173L283.062 80.4829V77.3579H278.422V80.4829L279.641 80.7173V82.0845H274.93ZM293.055 82.2485C292.154 82.2485 291.359 82.0923 290.672 81.7798C289.99 81.4673 289.458 81.0142 289.078 80.4204C288.698 79.8267 288.508 79.1053 288.508 78.2563V72.3188L287.297 72.0845V70.7095H292.008V72.0845L290.789 72.3188V78.2563C290.789 78.7563 290.88 79.173 291.062 79.5063C291.245 79.8397 291.505 80.0897 291.844 80.2563C292.182 80.4178 292.586 80.4985 293.055 80.4985C293.534 80.4985 293.943 80.4178 294.281 80.2563C294.625 80.0897 294.888 79.8397 295.07 79.5063C295.253 79.173 295.344 78.7563 295.344 78.2563V72.3188L294.133 72.0845V70.7095H298.844V72.0845L297.625 72.3188V78.2563C297.625 79.1053 297.432 79.8293 297.047 80.4282C296.667 81.022 296.133 81.4751 295.445 81.7876C294.763 82.0949 293.966 82.2485 293.055 82.2485ZM298.688 82.0845V80.7173L299.5 80.6001L303.117 70.7095H305.453L309.047 80.6001L309.859 80.7173V82.0845H305.984V80.7173L306.773 80.5767L306.273 79.0142H302.273L301.773 80.5767L302.562 80.7173V82.0845H298.688ZM302.812 77.3345H305.734L304.406 73.436L304.297 73.0923H304.25L304.133 73.4595L302.812 77.3345ZM301.445 70.1079V69.9048L303.438 68.1548H305.148L307.125 69.9282V70.1079H305.312L304.281 69.0923L303.227 70.1079H301.445ZM306.062 68.4907L305.945 67.5845C306.294 67.5741 306.547 67.5376 306.703 67.4751C306.859 67.4074 306.938 67.3032 306.938 67.1626C306.938 67.0011 306.849 66.8866 306.672 66.8188C306.495 66.7511 306.25 66.7173 305.938 66.7173L305.992 65.8267C306.826 65.8267 307.464 65.936 307.906 66.1548C308.349 66.3735 308.57 66.673 308.57 67.0532C308.57 67.3449 308.466 67.5715 308.258 67.7329C308.049 67.8892 307.786 67.9881 307.469 68.0298L307.461 68.4907H306.062ZM310.617 82.0845V80.7173L311.828 80.4829V72.3188L310.617 72.0845V70.7095H311.828H314.141L319.094 78.6001L319.141 78.5923V72.3188L317.688 72.0845V70.7095H321.18H322.398V72.0845L321.18 72.3188V82.0845H318.977L313.914 74.272L313.867 74.2798V80.4829L315.328 80.7173V82.0845H310.617Z" fill="#FF6600"/>
<path d="M211.762 154.331C210.691 154.331 209.727 154.139 208.867 153.756C208.016 153.374 207.344 152.827 206.852 152.116C206.359 151.397 206.125 150.534 206.148 149.526L206.172 149.456H209.02C209.02 149.971 209.129 150.424 209.348 150.815C209.574 151.198 209.891 151.502 210.297 151.729C210.711 151.948 211.199 152.057 211.762 152.057C212.629 152.057 213.309 151.819 213.801 151.342C214.301 150.858 214.551 150.167 214.551 149.268C214.551 148.362 214.316 147.678 213.848 147.217C213.379 146.749 212.656 146.514 211.68 146.514H209.758V144.264H211.727C212.328 144.264 212.816 144.163 213.191 143.959C213.574 143.749 213.852 143.452 214.023 143.069C214.203 142.678 214.293 142.217 214.293 141.686C214.293 140.85 214.078 140.206 213.648 139.752C213.219 139.292 212.59 139.061 211.762 139.061C211.246 139.061 210.797 139.163 210.414 139.366C210.031 139.569 209.73 139.854 209.512 140.221C209.301 140.588 209.195 141.018 209.195 141.51H206.336L206.312 141.44C206.289 140.557 206.504 139.764 206.957 139.061C207.418 138.35 208.062 137.792 208.891 137.385C209.719 136.979 210.668 136.776 211.738 136.776C213.41 136.776 214.746 137.198 215.746 138.042C216.746 138.877 217.246 140.069 217.246 141.616C217.246 142.374 217.027 143.084 216.59 143.749C216.16 144.413 215.512 144.94 214.645 145.331C215.621 145.667 216.34 146.186 216.801 146.889C217.27 147.592 217.504 148.401 217.504 149.315C217.504 150.354 217.258 151.249 216.766 151.999C216.273 152.749 215.594 153.327 214.727 153.733C213.859 154.131 212.871 154.331 211.762 154.331ZM219.988 154.084V151.354H222.93V154.084H219.988ZM231.273 154.331C229.531 154.331 228.152 153.749 227.137 152.584C226.129 151.413 225.625 149.717 225.625 147.499V143.62C225.625 141.401 226.129 139.706 227.137 138.534C228.145 137.362 229.516 136.776 231.25 136.776C232.977 136.776 234.348 137.362 235.363 138.534C236.379 139.706 236.887 141.401 236.887 143.62V147.499C236.887 149.725 236.383 151.42 235.375 152.584C234.367 153.749 233 154.331 231.273 154.331ZM231.273 152.057C232.141 152.057 232.801 151.717 233.254 151.038C233.707 150.358 233.934 149.307 233.934 147.885V143.209C233.934 141.803 233.703 140.76 233.242 140.081C232.781 139.401 232.117 139.061 231.25 139.061C230.375 139.061 229.707 139.401 229.246 140.081C228.793 140.752 228.566 141.795 228.566 143.209V147.885C228.566 149.307 228.797 150.358 229.258 151.038C229.719 151.717 230.391 152.057 231.273 152.057ZM244.984 154.331C243.242 154.331 241.863 153.749 240.848 152.584C239.84 151.413 239.336 149.717 239.336 147.499V143.62C239.336 141.401 239.84 139.706 240.848 138.534C241.855 137.362 243.227 136.776 244.961 136.776C246.688 136.776 248.059 137.362 249.074 138.534C250.09 139.706 250.598 141.401 250.598 143.62V147.499C250.598 149.725 250.094 151.42 249.086 152.584C248.078 153.749 246.711 154.331 244.984 154.331ZM244.984 152.057C245.852 152.057 246.512 151.717 246.965 151.038C247.418 150.358 247.645 149.307 247.645 147.885V143.209C247.645 141.803 247.414 140.76 246.953 140.081C246.492 139.401 245.828 139.061 244.961 139.061C244.086 139.061 243.418 139.401 242.957 140.081C242.504 140.752 242.277 141.795 242.277 143.209V147.885C242.277 149.307 242.508 150.358 242.969 151.038C243.43 151.717 244.102 152.057 244.984 152.057ZM258.695 154.331C256.953 154.331 255.574 153.749 254.559 152.584C253.551 151.413 253.047 149.717 253.047 147.499V143.62C253.047 141.401 253.551 139.706 254.559 138.534C255.566 137.362 256.938 136.776 258.672 136.776C260.398 136.776 261.77 137.362 262.785 138.534C263.801 139.706 264.309 141.401 264.309 143.62V147.499C264.309 149.725 263.805 151.42 262.797 152.584C261.789 153.749 260.422 154.331 258.695 154.331ZM258.695 152.057C259.562 152.057 260.223 151.717 260.676 151.038C261.129 150.358 261.355 149.307 261.355 147.885V143.209C261.355 141.803 261.125 140.76 260.664 140.081C260.203 139.401 259.539 139.061 258.672 139.061C257.797 139.061 257.129 139.401 256.668 140.081C256.215 140.752 255.988 141.795 255.988 143.209V147.885C255.988 149.307 256.219 150.358 256.68 151.038C257.141 151.717 257.812 152.057 258.695 152.057ZM267.098 154.084V151.354H270.039V154.084H267.098ZM278.383 154.331C276.641 154.331 275.262 153.749 274.246 152.584C273.238 151.413 272.734 149.717 272.734 147.499V143.62C272.734 141.401 273.238 139.706 274.246 138.534C275.254 137.362 276.625 136.776 278.359 136.776C280.086 136.776 281.457 137.362 282.473 138.534C283.488 139.706 283.996 141.401 283.996 143.62V147.499C283.996 149.725 283.492 151.42 282.484 152.584C281.477 153.749 280.109 154.331 278.383 154.331ZM278.383 152.057C279.25 152.057 279.91 151.717 280.363 151.038C280.816 150.358 281.043 149.307 281.043 147.885V143.209C281.043 141.803 280.812 140.76 280.352 140.081C279.891 139.401 279.227 139.061 278.359 139.061C277.484 139.061 276.816 139.401 276.355 140.081C275.902 140.752 275.676 141.795 275.676 143.209V147.885C275.676 149.307 275.906 150.358 276.367 151.038C276.828 151.717 277.5 152.057 278.383 152.057ZM292.094 154.331C290.352 154.331 288.973 153.749 287.957 152.584C286.949 151.413 286.445 149.717 286.445 147.499V143.62C286.445 141.401 286.949 139.706 287.957 138.534C288.965 137.362 290.336 136.776 292.07 136.776C293.797 136.776 295.168 137.362 296.184 138.534C297.199 139.706 297.707 141.401 297.707 143.62V147.499C297.707 149.725 297.203 151.42 296.195 152.584C295.188 153.749 293.82 154.331 292.094 154.331ZM292.094 152.057C292.961 152.057 293.621 151.717 294.074 151.038C294.527 150.358 294.754 149.307 294.754 147.885V143.209C294.754 141.803 294.523 140.76 294.062 140.081C293.602 139.401 292.938 139.061 292.07 139.061C291.195 139.061 290.527 139.401 290.066 140.081C289.613 140.752 289.387 141.795 289.387 143.209V147.885C289.387 149.307 289.617 150.358 290.078 151.038C290.539 151.717 291.211 152.057 292.094 152.057ZM305.805 154.331C304.062 154.331 302.684 153.749 301.668 152.584C300.66 151.413 300.156 149.717 300.156 147.499V143.62C300.156 141.401 300.66 139.706 301.668 138.534C302.676 137.362 304.047 136.776 305.781 136.776C307.508 136.776 308.879 137.362 309.895 138.534C310.91 139.706 311.418 141.401 311.418 143.62V147.499C311.418 149.725 310.914 151.42 309.906 152.584C308.898 153.749 307.531 154.331 305.805 154.331ZM305.805 152.057C306.672 152.057 307.332 151.717 307.785 151.038C308.238 150.358 308.465 149.307 308.465 147.885V143.209C308.465 141.803 308.234 140.76 307.773 140.081C307.312 139.401 306.648 139.061 305.781 139.061C304.906 139.061 304.238 139.401 303.777 140.081C303.324 140.752 303.098 141.795 303.098 143.209V147.885C303.098 149.307 303.328 150.358 303.789 151.038C304.25 151.717 304.922 152.057 305.805 152.057Z" fill="#005AAA"/>
<path d="M281.656 170.537L279.2 164.897H279.912L282.096 170.009H281.848L284.048 164.897H284.736L282.264 170.537H281.656ZM285.466 170.537V164.897H285.986L289.602 169.697H289.418V164.897H290.034V170.537H289.522L285.906 165.737H286.082V170.537H285.466ZM291.443 170.537V164.897H293.315C293.939 164.897 294.467 165.006 294.899 165.225C295.331 165.438 295.659 165.756 295.883 166.177C296.107 166.593 296.219 167.105 296.219 167.713C296.219 168.316 296.107 168.828 295.883 169.249C295.659 169.67 295.331 169.99 294.899 170.209C294.467 170.428 293.939 170.537 293.315 170.537H291.443ZM292.107 169.969H293.267C294.035 169.969 294.605 169.782 294.979 169.409C295.352 169.03 295.539 168.465 295.539 167.713C295.539 166.956 295.352 166.39 294.979 166.017C294.605 165.644 294.035 165.457 293.267 165.457H292.107V169.969ZM290.755 167.929V167.417H293.691V167.929H290.755ZM297.013 170.977H296.453L298.549 164.553H299.109L297.013 170.977ZM303.492 170.537L301.036 164.897H301.748L303.932 170.009H303.684L305.884 164.897H306.572L304.1 170.537H303.492ZM307.302 170.537V164.897H310.902V165.441H307.95V167.401H310.726V167.953H307.95V169.985H310.902V170.537H307.302ZM308.974 164.417L309.918 163.041H310.646L309.47 164.417H308.974Z" fill="#005AAA"/>
<defs>
<linearGradient id="paint0_linear_30_627" x1="-288.38" y1="139.156" x2="693.83" y2="139.156" gradientUnits="userSpaceOnUse">
<stop stop-color="#00CCFF"/>
<stop offset="1" stop-color="#FF00FF"/>
</linearGradient>
</defs>
</svg>
