<svg width="200" height="41" viewBox="0 0 200 41" fill="none" xmlns="http://www.w3.org/2000/svg">
<rect y="0.115234" width="200" height="40" rx="20" fill="url(#paint0_linear_8_347)"/>
<path d="M4.93087 25.1152V15.2452H9.25687C10.3302 15.2452 11.1562 15.4739 11.7349 15.9312C12.3135 16.3792 12.6029 17.0046 12.6029 17.8072C12.6029 18.4046 12.4255 18.9086 12.0709 19.3192C11.7162 19.7299 11.2262 20.0052 10.6009 20.1452V19.9352C11.3195 20.0379 11.8749 20.2992 12.2669 20.7192C12.6682 21.1299 12.8689 21.6759 12.8689 22.3572C12.8689 23.2346 12.5655 23.9159 11.9589 24.4012C11.3522 24.8772 10.5075 25.1152 9.42487 25.1152H4.93087ZM6.66687 23.7432H9.21487C9.82153 23.7432 10.2929 23.6312 10.6289 23.4072C10.9649 23.1739 11.1329 22.7959 11.1329 22.2732C11.1329 21.7412 10.9649 21.3632 10.6289 21.1392C10.2929 20.9059 9.82153 20.7892 9.21487 20.7892H6.66687V23.7432ZM6.66687 19.4312H8.94887C9.59287 19.4312 10.0689 19.3146 10.3769 19.0812C10.6942 18.8386 10.8529 18.4839 10.8529 18.0172C10.8529 17.5506 10.6942 17.2006 10.3769 16.9672C10.0689 16.7246 9.59287 16.6032 8.94887 16.6032H6.66687V19.4312ZM14.2749 20.1732C14.2749 19.1372 14.4615 18.2412 14.8349 17.4852C15.2175 16.7292 15.7635 16.1459 16.4729 15.7352C17.1822 15.3152 18.0269 15.1052 19.0069 15.1052C19.9775 15.1052 20.8175 15.3152 21.5269 15.7352C22.2362 16.1459 22.7822 16.7292 23.1649 17.4852C23.5569 18.2412 23.7529 19.1326 23.7529 20.1592C23.7529 21.1952 23.5569 22.0959 23.1649 22.8612C22.7822 23.6172 22.2362 24.2052 21.5269 24.6252C20.8175 25.0452 19.9775 25.2552 19.0069 25.2552C18.0269 25.2552 17.1822 25.0452 16.4729 24.6252C15.7729 24.2052 15.2315 23.6172 14.8489 22.8612C14.4662 22.0959 14.2749 21.1999 14.2749 20.1732ZM16.1649 20.1732C16.1649 21.2839 16.4029 22.1519 16.8789 22.7772C17.3549 23.4026 18.0642 23.7152 19.0069 23.7152C19.9215 23.7152 20.6262 23.4026 21.1209 22.7772C21.6155 22.1519 21.8629 21.2839 21.8629 20.1732C21.8629 19.0532 21.6155 18.1852 21.1209 17.5692C20.6355 16.9532 19.9309 16.6452 19.0069 16.6452C18.0642 16.6452 17.3549 16.9532 16.8789 17.5692C16.4029 18.1852 16.1649 19.0532 16.1649 20.1732ZM25.2944 20.1732C25.2944 19.1372 25.4811 18.2412 25.8544 17.4852C26.2371 16.7292 26.7831 16.1459 27.4924 15.7352C28.2017 15.3152 29.0464 15.1052 30.0264 15.1052C30.9971 15.1052 31.8371 15.3152 32.5464 15.7352C33.2557 16.1459 33.8017 16.7292 34.1844 17.4852C34.5764 18.2412 34.7724 19.1326 34.7724 20.1592C34.7724 21.1952 34.5764 22.0959 34.1844 22.8612C33.8017 23.6172 33.2557 24.2052 32.5464 24.6252C31.8371 25.0452 30.9971 25.2552 30.0264 25.2552C29.0464 25.2552 28.2017 25.0452 27.4924 24.6252C26.7924 24.2052 26.2511 23.6172 25.8684 22.8612C25.4857 22.0959 25.2944 21.1999 25.2944 20.1732ZM27.1844 20.1732C27.1844 21.2839 27.4224 22.1519 27.8984 22.7772C28.3744 23.4026 29.0837 23.7152 30.0264 23.7152C30.9411 23.7152 31.6457 23.4026 32.1404 22.7772C32.6351 22.1519 32.8824 21.2839 32.8824 20.1732C32.8824 19.0532 32.6351 18.1852 32.1404 17.5692C31.6551 16.9532 30.9504 16.6452 30.0264 16.6452C29.0837 16.6452 28.3744 16.9532 27.8984 17.5692C27.4224 18.1852 27.1844 19.0532 27.1844 20.1732ZM36.6359 25.1152V15.2452H38.4419V19.6132H38.4699L42.7679 15.2452H44.9519L39.7999 20.3832L39.8139 19.5992L45.2879 25.1152H43.0339L38.4699 20.5512H38.4419V25.1152H36.6359ZM49.802 25.1152V15.2452H51.16L56.886 22.6512H56.522V15.2452H58.202V25.1152H56.844L51.132 17.7092H51.482V25.1152H49.802ZM60.0483 20.1732C60.0483 19.1372 60.235 18.2412 60.6083 17.4852C60.991 16.7292 61.537 16.1459 62.2463 15.7352C62.9557 15.3152 63.8003 15.1052 64.7803 15.1052C65.751 15.1052 66.591 15.3152 67.3003 15.7352C68.0097 16.1459 68.5557 16.7292 68.9383 17.4852C69.3303 18.2412 69.5263 19.1326 69.5263 20.1592C69.5263 21.1952 69.3303 22.0959 68.9383 22.8612C68.5557 23.6172 68.0097 24.2052 67.3003 24.6252C66.591 25.0452 65.751 25.2552 64.7803 25.2552C63.8003 25.2552 62.9557 25.0452 62.2463 24.6252C61.5463 24.2052 61.005 23.6172 60.6223 22.8612C60.2397 22.0959 60.0483 21.1999 60.0483 20.1732ZM61.9383 20.1732C61.9383 21.2839 62.1763 22.1519 62.6523 22.7772C63.1283 23.4026 63.8377 23.7152 64.7803 23.7152C65.695 23.7152 66.3997 23.4026 66.8943 22.7772C67.389 22.1519 67.6363 21.2839 67.6363 20.1732C67.6363 19.0532 67.389 18.1852 66.8943 17.5692C66.409 16.9532 65.7043 16.6452 64.7803 16.6452C63.8377 16.6452 63.1283 16.9532 62.6523 17.5692C62.1763 18.1852 61.9383 19.0532 61.9383 20.1732ZM73.8878 25.1152L70.4018 15.2452H72.2778L74.9658 23.3372H74.4058L77.3038 15.2452H78.6478L81.3358 23.3372H80.8178L83.6318 15.2452H85.3958L81.8818 25.1152H80.3838L77.7798 17.5272H78.0878L75.3858 25.1152H73.8878ZM93.8729 25.1152L89.4769 15.2452H91.4229L94.9649 23.5332H94.3769L97.9189 15.2452H99.7949L95.3989 25.1152H93.8729ZM100.771 25.1152V15.2452H102.577V25.1152H100.771ZM103.657 25.1152L108.123 15.2452H109.635L114.157 25.1152H112.323L111.119 22.3432L111.847 22.8332H105.925L106.681 22.3432L105.477 25.1152H103.657ZM108.865 17.1772L106.891 21.8532L106.527 21.4192H111.231L110.937 21.8532L108.921 17.1772H108.865ZM121.415 25.1152V16.7292H118.153V15.2452H126.483V16.7292H123.221V25.1152H121.415ZM127.759 25.1152V15.2452H129.565V25.1152H127.759ZM136.33 25.2552C135.303 25.2552 134.421 25.0499 133.684 24.6392C132.956 24.2192 132.396 23.6312 132.004 22.8752C131.612 22.1099 131.416 21.2092 131.416 20.1732C131.416 19.1372 131.612 18.2412 132.004 17.4852C132.396 16.7292 132.956 16.1459 133.684 15.7352C134.421 15.3152 135.303 15.1052 136.33 15.1052C137.02 15.1052 137.641 15.2032 138.192 15.3992C138.752 15.5952 139.232 15.8846 139.634 16.2672L139.046 17.6952C138.607 17.3406 138.182 17.0886 137.772 16.9392C137.37 16.7806 136.908 16.7012 136.386 16.7012C135.387 16.7012 134.622 17.0046 134.09 17.6112C133.567 18.2086 133.306 19.0626 133.306 20.1732C133.306 21.2839 133.567 22.1426 134.09 22.7492C134.622 23.3559 135.387 23.6592 136.386 23.6592C136.908 23.6592 137.37 23.5846 137.772 23.4352C138.182 23.2766 138.607 23.0152 139.046 22.6512L139.634 24.0792C139.232 24.4526 138.752 24.7419 138.192 24.9472C137.641 25.1526 137.02 25.2552 136.33 25.2552ZM141.321 25.1152V15.2452H143.127V19.6132H143.155L147.453 15.2452H149.637L144.485 20.3832L144.499 19.5992L149.973 25.1152H147.719L143.155 20.5512H143.127V25.1152H141.321ZM150.646 25.1152V15.2452H157.296V16.6592H152.382V19.3892H156.974V20.8172H152.382V23.6872H157.296V25.1152H150.646ZM161.228 25.1152V16.7292H157.966V15.2452H166.296V16.7292H163.034V25.1152H161.228ZM167.571 25.1152V15.2452H171.897C172.971 15.2452 173.797 15.4739 174.375 15.9312C174.954 16.3792 175.243 17.0046 175.243 17.8072C175.243 18.4046 175.066 18.9086 174.711 19.3192C174.357 19.7299 173.867 20.0052 173.241 20.1452V19.9352C173.96 20.0379 174.515 20.2992 174.907 20.7192C175.309 21.1299 175.509 21.6759 175.509 22.3572C175.509 23.2346 175.206 23.9159 174.599 24.4012C173.993 24.8772 173.148 25.1152 172.065 25.1152H167.571ZM169.307 23.7432H171.855C172.462 23.7432 172.933 23.6312 173.269 23.4072C173.605 23.1739 173.773 22.7959 173.773 22.2732C173.773 21.7412 173.605 21.3632 173.269 21.1392C172.933 20.9059 172.462 20.7892 171.855 20.7892H169.307V23.7432ZM169.307 19.4312H171.589C172.233 19.4312 172.709 19.3146 173.017 19.0812C173.335 18.8386 173.493 18.4839 173.493 18.0172C173.493 17.5506 173.335 17.2006 173.017 16.9672C172.709 16.7246 172.233 16.6032 171.589 16.6032H169.307V19.4312ZM176.916 20.1732C176.916 19.1372 177.102 18.2412 177.476 17.4852C177.858 16.7292 178.404 16.1459 179.114 15.7352C179.823 15.3152 180.668 15.1052 181.648 15.1052C182.618 15.1052 183.458 15.3152 184.168 15.7352C184.877 16.1459 185.423 16.7292 185.806 17.4852C186.198 18.2412 186.394 19.1326 186.394 20.1592C186.394 21.1952 186.198 22.0959 185.806 22.8612C185.423 23.6172 184.877 24.2052 184.168 24.6252C183.458 25.0452 182.618 25.2552 181.648 25.2552C180.668 25.2552 179.823 25.0452 179.114 24.6252C178.414 24.2052 177.872 23.6172 177.49 22.8612C177.107 22.0959 176.916 21.1999 176.916 20.1732ZM178.806 20.1732C178.806 21.2839 179.044 22.1519 179.52 22.7772C179.996 23.4026 180.705 23.7152 181.648 23.7152C182.562 23.7152 183.267 23.4026 183.762 22.7772C184.256 22.1519 184.504 21.2839 184.504 20.1732C184.504 19.0532 184.256 18.1852 183.762 17.5692C183.276 16.9532 182.572 16.6452 181.648 16.6452C180.705 16.6452 179.996 16.9532 179.52 17.5692C179.044 18.1852 178.806 19.0532 178.806 20.1732ZM186.657 25.1152L190.717 19.7112V20.4812L186.797 15.2452H188.911L191.753 19.1792H191.179L194.007 15.2452H196.135L192.201 20.4812V19.7112L196.275 25.1152H194.147L191.151 20.9992H191.767L188.771 25.1152H186.657Z" fill="white"/>
<defs>
<linearGradient id="paint0_linear_8_347" x1="-127.556" y1="20.1152" x2="182.589" y2="20.1152" gradientUnits="userSpaceOnUse">
<stop stop-color="#00CCFF"/>
<stop offset="1" stop-color="#FF00FF"/>
</linearGradient>
</defs>
</svg>
