<svg width="122" height="25" viewBox="0 0 122 25" fill="none" xmlns="http://www.w3.org/2000/svg">
<rect y="0.21283" width="122" height="24.76" rx="12.38" fill="url(#paint0_linear_8_391)"/>
<path d="M6.67478 15.0928V9.45283H9.14678C9.76011 9.45283 10.2321 9.5835 10.5628 9.84483C10.8934 10.1008 11.0588 10.4582 11.0588 10.9168C11.0588 11.2582 10.9574 11.5462 10.7548 11.7808C10.5521 12.0155 10.2721 12.1728 9.91478 12.2528V12.1328C10.3254 12.1915 10.6428 12.3408 10.8668 12.5808C11.0961 12.8155 11.2108 13.1275 11.2108 13.5168C11.2108 14.0182 11.0374 14.4075 10.6908 14.6848C10.3441 14.9568 9.86145 15.0928 9.24278 15.0928H6.67478ZM7.66678 14.3088H9.12278C9.46945 14.3088 9.73878 14.2448 9.93078 14.1168C10.1228 13.9835 10.2188 13.7675 10.2188 13.4688C10.2188 13.1648 10.1228 12.9488 9.93078 12.8208C9.73878 12.6875 9.46945 12.6208 9.12278 12.6208H7.66678V14.3088ZM7.66678 11.8448H8.97078C9.33878 11.8448 9.61078 11.7782 9.78678 11.6448C9.96811 11.5062 10.0588 11.3035 10.0588 11.0368C10.0588 10.7702 9.96811 10.5702 9.78678 10.4368C9.61078 10.2982 9.33878 10.2288 8.97078 10.2288H7.66678V11.8448ZM12.0142 12.2688C12.0142 11.6768 12.1209 11.1648 12.3342 10.7328C12.5529 10.3008 12.8649 9.9675 13.2702 9.73283C13.6756 9.49283 14.1582 9.37283 14.7182 9.37283C15.2729 9.37283 15.7529 9.49283 16.1582 9.73283C16.5636 9.9675 16.8756 10.3008 17.0942 10.7328C17.3182 11.1648 17.4302 11.6742 17.4302 12.2608C17.4302 12.8528 17.3182 13.3675 17.0942 13.8048C16.8756 14.2368 16.5636 14.5728 16.1582 14.8128C15.7529 15.0528 15.2729 15.1728 14.7182 15.1728C14.1582 15.1728 13.6756 15.0528 13.2702 14.8128C12.8702 14.5728 12.5609 14.2368 12.3422 13.8048C12.1236 13.3675 12.0142 12.8555 12.0142 12.2688ZM13.0942 12.2688C13.0942 12.9035 13.2302 13.3995 13.5022 13.7568C13.7742 14.1142 14.1796 14.2928 14.7182 14.2928C15.2409 14.2928 15.6436 14.1142 15.9262 13.7568C16.2089 13.3995 16.3502 12.9035 16.3502 12.2688C16.3502 11.6288 16.2089 11.1328 15.9262 10.7808C15.6489 10.4288 15.2462 10.2528 14.7182 10.2528C14.1796 10.2528 13.7742 10.4288 13.5022 10.7808C13.2302 11.1328 13.0942 11.6288 13.0942 12.2688ZM18.3111 12.2688C18.3111 11.6768 18.4178 11.1648 18.6311 10.7328C18.8498 10.3008 19.1618 9.9675 19.5671 9.73283C19.9724 9.49283 20.4551 9.37283 21.0151 9.37283C21.5698 9.37283 22.0498 9.49283 22.4551 9.73283C22.8604 9.9675 23.1724 10.3008 23.3911 10.7328C23.6151 11.1648 23.7271 11.6742 23.7271 12.2608C23.7271 12.8528 23.6151 13.3675 23.3911 13.8048C23.1724 14.2368 22.8604 14.5728 22.4551 14.8128C22.0498 15.0528 21.5698 15.1728 21.0151 15.1728C20.4551 15.1728 19.9724 15.0528 19.5671 14.8128C19.1671 14.5728 18.8578 14.2368 18.6391 13.8048C18.4204 13.3675 18.3111 12.8555 18.3111 12.2688ZM19.3911 12.2688C19.3911 12.9035 19.5271 13.3995 19.7991 13.7568C20.0711 14.1142 20.4764 14.2928 21.0151 14.2928C21.5378 14.2928 21.9404 14.1142 22.2231 13.7568C22.5058 13.3995 22.6471 12.9035 22.6471 12.2688C22.6471 11.6288 22.5058 11.1328 22.2231 10.7808C21.9458 10.4288 21.5431 10.2528 21.0151 10.2528C20.4764 10.2528 20.0711 10.4288 19.7991 10.7808C19.5271 11.1328 19.3911 11.6288 19.3911 12.2688ZM24.792 15.0928V9.45283H25.824V11.9488H25.84L28.296 9.45283H29.544L26.6 12.3888L26.608 11.9408L29.736 15.0928H28.448L25.84 12.4848H25.824V15.0928H24.792ZM32.3154 15.0928V9.45283H33.0914L36.3634 13.6848H36.1554V9.45283H37.1154V15.0928H36.3394L33.0754 10.8608H33.2754V15.0928H32.3154ZM38.1705 12.2688C38.1705 11.6768 38.2771 11.1648 38.4905 10.7328C38.7091 10.3008 39.0211 9.9675 39.4265 9.73283C39.8318 9.49283 40.3145 9.37283 40.8745 9.37283C41.4291 9.37283 41.9091 9.49283 42.3145 9.73283C42.7198 9.9675 43.0318 10.3008 43.2505 10.7328C43.4745 11.1648 43.5865 11.6742 43.5865 12.2608C43.5865 12.8528 43.4745 13.3675 43.2505 13.8048C43.0318 14.2368 42.7198 14.5728 42.3145 14.8128C41.9091 15.0528 41.4291 15.1728 40.8745 15.1728C40.3145 15.1728 39.8318 15.0528 39.4265 14.8128C39.0265 14.5728 38.7171 14.2368 38.4985 13.8048C38.2798 13.3675 38.1705 12.8555 38.1705 12.2688ZM39.2505 12.2688C39.2505 12.9035 39.3865 13.3995 39.6585 13.7568C39.9305 14.1142 40.3358 14.2928 40.8745 14.2928C41.3971 14.2928 41.7998 14.1142 42.0825 13.7568C42.3651 13.3995 42.5065 12.9035 42.5065 12.2688C42.5065 11.6288 42.3651 11.1328 42.0825 10.7808C41.8051 10.4288 41.4025 10.2528 40.8745 10.2528C40.3358 10.2528 39.9305 10.4288 39.6585 10.7808C39.3865 11.1328 39.2505 11.6288 39.2505 12.2688ZM46.0787 15.0928L44.0867 9.45283H45.1587L46.6947 14.0768H46.3747L48.0307 9.45283H48.7987L50.3347 14.0768H50.0387L51.6467 9.45283H52.6547L50.6467 15.0928H49.7907L48.3027 10.7568H48.4787L46.9347 15.0928H46.0787ZM57.4988 15.0928L54.9868 9.45283H56.0988L58.1228 14.1888H57.7868L59.8108 9.45283H60.8828L58.3708 15.0928H57.4988ZM61.4404 15.0928V9.45283H62.4724V15.0928H61.4404ZM63.0898 15.0928L65.6418 9.45283H66.5058L69.0898 15.0928H68.0418L67.3538 13.5088L67.7698 13.7888H64.3858L64.8178 13.5088L64.1298 15.0928H63.0898ZM66.0658 10.5568L64.9378 13.2288L64.7298 12.9808H67.4178L67.2498 13.2288L66.0978 10.5568H66.0658ZM73.2372 15.0928V10.3008H71.3732V9.45283H76.1332V10.3008H74.2692V15.0928H73.2372ZM76.8623 15.0928V9.45283H77.8943V15.0928H76.8623ZM81.7597 15.1728C81.1731 15.1728 80.6691 15.0555 80.2477 14.8208C79.8317 14.5808 79.5117 14.2448 79.2877 13.8128C79.0637 13.3755 78.9517 12.8608 78.9517 12.2688C78.9517 11.6768 79.0637 11.1648 79.2877 10.7328C79.5117 10.3008 79.8317 9.9675 80.2477 9.73283C80.6691 9.49283 81.1731 9.37283 81.7597 9.37283C82.1544 9.37283 82.5091 9.42883 82.8237 9.54083C83.1437 9.65283 83.4184 9.81817 83.6477 10.0368L83.3117 10.8528C83.0611 10.6502 82.8184 10.5062 82.5837 10.4208C82.3544 10.3302 82.0904 10.2848 81.7917 10.2848C81.2211 10.2848 80.7837 10.4582 80.4797 10.8048C80.1811 11.1462 80.0317 11.6342 80.0317 12.2688C80.0317 12.9035 80.1811 13.3942 80.4797 13.7408C80.7837 14.0875 81.2211 14.2608 81.7917 14.2608C82.0904 14.2608 82.3544 14.2182 82.5837 14.1328C82.8184 14.0422 83.0611 13.8928 83.3117 13.6848L83.6477 14.5008C83.4184 14.7142 83.1437 14.8795 82.8237 14.9968C82.5091 15.1142 82.1544 15.1728 81.7597 15.1728ZM84.6123 15.0928V9.45283H85.6443V11.9488H85.6603L88.1163 9.45283H89.3643L86.4203 12.3888L86.4283 11.9408L89.5563 15.0928H88.2683L85.6603 12.4848H85.6443V15.0928H84.6123ZM89.9404 15.0928V9.45283H93.7404V10.2608H90.9324V11.8208H93.5564V12.6368H90.9324V14.2768H93.7404V15.0928H89.9404ZM95.9872 15.0928V10.3008H94.1232V9.45283H98.8832V10.3008H97.0192V15.0928H95.9872ZM99.6123 15.0928V9.45283H102.084C102.698 9.45283 103.17 9.5835 103.5 9.84483C103.831 10.1008 103.996 10.4582 103.996 10.9168C103.996 11.2582 103.895 11.5462 103.692 11.7808C103.49 12.0155 103.21 12.1728 102.852 12.2528V12.1328C103.263 12.1915 103.58 12.3408 103.804 12.5808C104.034 12.8155 104.148 13.1275 104.148 13.5168C104.148 14.0182 103.975 14.4075 103.628 14.6848C103.282 14.9568 102.799 15.0928 102.18 15.0928H99.6123ZM100.604 14.3088H102.06C102.407 14.3088 102.676 14.2448 102.868 14.1168C103.06 13.9835 103.156 13.7675 103.156 13.4688C103.156 13.1648 103.06 12.9488 102.868 12.8208C102.676 12.6875 102.407 12.6208 102.06 12.6208H100.604V14.3088ZM100.604 11.8448H101.908C102.276 11.8448 102.548 11.7782 102.724 11.6448C102.906 11.5062 102.996 11.3035 102.996 11.0368C102.996 10.7702 102.906 10.5702 102.724 10.4368C102.548 10.2982 102.276 10.2288 101.908 10.2288H100.604V11.8448ZM104.952 12.2688C104.952 11.6768 105.058 11.1648 105.272 10.7328C105.49 10.3008 105.802 9.9675 106.208 9.73283C106.613 9.49283 107.096 9.37283 107.656 9.37283C108.21 9.37283 108.69 9.49283 109.096 9.73283C109.501 9.9675 109.813 10.3008 110.032 10.7328C110.256 11.1648 110.368 11.6742 110.368 12.2608C110.368 12.8528 110.256 13.3675 110.032 13.8048C109.813 14.2368 109.501 14.5728 109.096 14.8128C108.69 15.0528 108.21 15.1728 107.656 15.1728C107.096 15.1728 106.613 15.0528 106.208 14.8128C105.808 14.5728 105.498 14.2368 105.28 13.8048C105.061 13.3675 104.952 12.8555 104.952 12.2688ZM106.032 12.2688C106.032 12.9035 106.168 13.3995 106.44 13.7568C106.712 14.1142 107.117 14.2928 107.656 14.2928C108.178 14.2928 108.581 14.1142 108.864 13.7568C109.146 13.3995 109.288 12.9035 109.288 12.2688C109.288 11.6288 109.146 11.1328 108.864 10.7808C108.586 10.4288 108.184 10.2528 107.656 10.2528C107.117 10.2528 106.712 10.4288 106.44 10.7808C106.168 11.1328 106.032 11.6288 106.032 12.2688ZM110.518 15.0928L112.838 12.0048V12.4448L110.598 9.45283H111.806L113.43 11.7008H113.102L114.718 9.45283H115.934L113.686 12.4448V12.0048L116.014 15.0928H114.798L113.086 12.7408H113.438L111.726 15.0928H110.518Z" fill="white"/>
<defs>
<linearGradient id="paint0_linear_8_391" x1="-77.8089" y1="12.5928" x2="111.38" y2="12.5928" gradientUnits="userSpaceOnUse">
<stop stop-color="#00CCFF"/>
<stop offset="1" stop-color="#FF00FF"/>
</linearGradient>
</defs>
</svg>
