<svg width="200" height="41" viewBox="0 0 200 41" fill="none" xmlns="http://www.w3.org/2000/svg">
<rect y="0.0732422" width="200" height="40" rx="20" fill="url(#paint0_linear_7_170)"/>
<path d="M16.8664 25.0732V15.2032H20.4504C21.5797 15.2032 22.5317 15.3992 23.3064 15.7912C24.0904 16.1739 24.6831 16.7339 25.0844 17.4712C25.4857 18.1992 25.6864 19.0859 25.6864 20.1312C25.6864 21.1672 25.4857 22.0539 25.0844 22.7912C24.6831 23.5286 24.0904 24.0932 23.3064 24.4852C22.5317 24.8772 21.5797 25.0732 20.4504 25.0732H16.8664ZM18.6724 23.5752H20.3384C21.5331 23.5752 22.4197 23.2906 22.9984 22.7212C23.5771 22.1519 23.8664 21.2886 23.8664 20.1312C23.8664 18.9646 23.5771 18.1012 22.9984 17.5412C22.4197 16.9719 21.5331 16.6872 20.3384 16.6872H18.6724V23.5752ZM15.6904 20.7332V19.4172H21.3604V20.7332H15.6904ZM26.2334 25.0732L30.6994 15.2032H32.2114L36.7334 25.0732H34.8994L33.6954 22.3012L34.4234 22.7912H28.5014L29.2574 22.3012L28.0534 25.0732H26.2334ZM31.4414 17.1352L29.4674 21.8112L29.1034 21.3772H33.8074L33.5134 21.8112L31.4974 17.1352H31.4414ZM30.6154 27.9292V26.3052H32.3234V27.9292H30.6154ZM31.4694 14.4332C30.7414 14.4332 30.1441 14.2186 29.6774 13.7892C29.2201 13.3599 28.9634 12.7812 28.9074 12.0532L29.9014 11.9272C29.9481 12.3846 30.1067 12.7439 30.3774 13.0052C30.6481 13.2572 31.0074 13.3832 31.4554 13.3832C31.9127 13.3832 32.2814 13.2572 32.5614 13.0052C32.8414 12.7439 33.0001 12.3846 33.0374 11.9272L34.0314 12.0532C33.9754 12.7812 33.7141 13.3599 33.2474 13.7892C32.7901 14.2186 32.1974 14.4332 31.4694 14.4332ZM39.0556 25.0732V16.6872H35.7936V15.2032H44.1236V16.6872H40.8616V25.0732H39.0556ZM52.4334 25.0732L48.0374 15.2032H49.9834L53.5254 23.4912H52.9374L56.4794 15.2032H58.3554L53.9594 25.0732H52.4334ZM59.3313 25.0732V15.2032H65.9813V16.6172H61.0673V19.3472H65.6593V20.7752H61.0673V23.6452H65.9813V25.0732H59.3313ZM62.2713 14.3632L63.9373 11.9272H65.7573L63.5313 14.3632H62.2713ZM78.5552 27.7612C78.2566 27.5932 77.9532 27.3692 77.6452 27.0892C77.3466 26.8186 77.0666 26.5106 76.8052 26.1652C76.5439 25.8199 76.3199 25.4699 76.1332 25.1152L77.5752 24.4992C77.8086 24.9846 78.1259 25.4232 78.5272 25.8152C78.9286 26.2072 79.3439 26.5386 79.7732 26.8092L78.5552 27.7612ZM71.1772 20.1312C71.1772 19.0952 71.3639 18.1992 71.7372 17.4432C72.1199 16.6872 72.6659 16.1039 73.3752 15.6932C74.0846 15.2732 74.9292 15.0632 75.9092 15.0632C76.8799 15.0632 77.7199 15.2732 78.4292 15.6932C79.1386 16.1039 79.6846 16.6872 80.0672 17.4432C80.4592 18.1992 80.6552 19.0906 80.6552 20.1172C80.6552 21.1532 80.4592 22.0539 80.0672 22.8192C79.6846 23.5752 79.1386 24.1632 78.4292 24.5832C77.7199 25.0032 76.8799 25.2132 75.9092 25.2132C74.9292 25.2132 74.0846 25.0032 73.3752 24.5832C72.6752 24.1632 72.1339 23.5752 71.7512 22.8192C71.3686 22.0539 71.1772 21.1579 71.1772 20.1312ZM73.0672 20.1312C73.0672 21.2419 73.3052 22.1099 73.7812 22.7352C74.2572 23.3606 74.9666 23.6732 75.9092 23.6732C76.8239 23.6732 77.5286 23.3606 78.0232 22.7352C78.5179 22.1099 78.7652 21.2419 78.7652 20.1312C78.7652 19.0112 78.5179 18.1432 78.0232 17.5272C77.5379 16.9112 76.8332 16.6032 75.9092 16.6032C74.9666 16.6032 74.2572 16.9112 73.7812 17.5272C73.3052 18.1432 73.0672 19.0112 73.0672 20.1312ZM86.6348 25.2132C85.2254 25.2132 84.1754 24.8632 83.4848 24.1632C82.8034 23.4539 82.4628 22.4086 82.4628 21.0272V15.2032H84.2688V21.0132C84.2688 21.8906 84.4554 22.5532 84.8288 23.0012C85.2114 23.4492 85.8134 23.6732 86.6348 23.6732C87.4188 23.6732 88.0068 23.4492 88.3988 23.0012C88.8001 22.5532 89.0008 21.8906 89.0008 21.0132V15.2032H90.7788V21.0272C90.7788 22.4086 90.4288 23.4539 89.7288 24.1632C89.0381 24.8632 88.0068 25.2132 86.6348 25.2132ZM91.7217 25.0732L96.1877 15.2032H97.6997L102.222 25.0732H100.388L99.1837 22.3012L99.9117 22.7912H93.9897L94.7457 22.3012L93.5417 25.0732H91.7217ZM96.9297 17.1352L94.9557 21.8112L94.5917 21.3772H99.2957L99.0017 21.8112L96.9857 17.1352H96.9297ZM109.479 25.0732V16.6872H106.217V15.2032H114.547V16.6872H111.285V25.0732H109.479ZM115.823 25.0732V15.2032H117.629V25.0732H115.823ZM124.394 25.2132C123.367 25.2132 122.485 25.0079 121.748 24.5972C121.02 24.1772 120.46 23.5892 120.068 22.8332C119.676 22.0679 119.48 21.1672 119.48 20.1312C119.48 19.0952 119.676 18.1992 120.068 17.4432C120.46 16.6872 121.02 16.1039 121.748 15.6932C122.485 15.2732 123.367 15.0632 124.394 15.0632C125.085 15.0632 125.705 15.1612 126.256 15.3572C126.816 15.5532 127.297 15.8426 127.698 16.2252L127.11 17.6532C126.671 17.2986 126.247 17.0466 125.836 16.8972C125.435 16.7386 124.973 16.6592 124.45 16.6592C123.451 16.6592 122.686 16.9626 122.154 17.5692C121.631 18.1666 121.37 19.0206 121.37 20.1312C121.37 21.2419 121.631 22.1006 122.154 22.7072C122.686 23.3139 123.451 23.6172 124.45 23.6172C124.973 23.6172 125.435 23.5426 125.836 23.3932C126.247 23.2346 126.671 22.9732 127.11 22.6092L127.698 24.0372C127.297 24.4106 126.816 24.6999 126.256 24.9052C125.705 25.1106 125.085 25.2132 124.394 25.2132ZM129.386 25.0732V15.2032H131.192V19.5712H131.22L135.518 15.2032H137.702L132.55 20.3412L132.564 19.5572L138.038 25.0732H135.784L131.22 20.5092H131.192V25.0732H129.386ZM138.71 25.0732V15.2032H145.36V16.6172H140.446V19.3472H145.038V20.7752H140.446V23.6452H145.36V25.0732H138.71ZM149.292 25.0732V16.6872H146.03V15.2032H154.36V16.6872H151.098V25.0732H149.292ZM155.636 25.0732V15.2032H159.962C161.035 15.2032 161.861 15.4319 162.44 15.8892C163.019 16.3372 163.308 16.9626 163.308 17.7652C163.308 18.3626 163.131 18.8666 162.776 19.2772C162.421 19.6879 161.931 19.9632 161.306 20.1032V19.8932C162.025 19.9959 162.58 20.2572 162.972 20.6772C163.373 21.0879 163.574 21.6339 163.574 22.3152C163.574 23.1926 163.271 23.8739 162.664 24.3592C162.057 24.8352 161.213 25.0732 160.13 25.0732H155.636ZM157.372 23.7012H159.92C160.527 23.7012 160.998 23.5892 161.334 23.3652C161.67 23.1319 161.838 22.7539 161.838 22.2312C161.838 21.6992 161.67 21.3212 161.334 21.0972C160.998 20.8639 160.527 20.7472 159.92 20.7472H157.372V23.7012ZM157.372 19.3892H159.654C160.298 19.3892 160.774 19.2726 161.082 19.0392C161.399 18.7966 161.558 18.4419 161.558 17.9752C161.558 17.5086 161.399 17.1586 161.082 16.9252C160.774 16.6826 160.298 16.5612 159.654 16.5612H157.372V19.3892ZM164.98 20.1312C164.98 19.0952 165.167 18.1992 165.54 17.4432C165.923 16.6872 166.469 16.1039 167.178 15.6932C167.887 15.2732 168.732 15.0632 169.712 15.0632C170.683 15.0632 171.523 15.2732 172.232 15.6932C172.941 16.1039 173.487 16.6872 173.87 17.4432C174.262 18.1992 174.458 19.0906 174.458 20.1172C174.458 21.1532 174.262 22.0539 173.87 22.8192C173.487 23.5752 172.941 24.1632 172.232 24.5832C171.523 25.0032 170.683 25.2132 169.712 25.2132C168.732 25.2132 167.887 25.0032 167.178 24.5832C166.478 24.1632 165.937 23.5752 165.554 22.8192C165.171 22.0539 164.98 21.1579 164.98 20.1312ZM166.87 20.1312C166.87 21.2419 167.108 22.1099 167.584 22.7352C168.06 23.3606 168.769 23.6732 169.712 23.6732C170.627 23.6732 171.331 23.3606 171.826 22.7352C172.321 22.1099 172.568 21.2419 172.568 20.1312C172.568 19.0112 172.321 18.1432 171.826 17.5272C171.341 16.9112 170.636 16.6032 169.712 16.6032C168.769 16.6032 168.06 16.9112 167.584 17.5272C167.108 18.1432 166.87 19.0112 166.87 20.1312ZM174.721 25.0732L178.781 19.6692V20.4392L174.861 15.2032H176.975L179.817 19.1372H179.243L182.071 15.2032H184.199L180.265 20.4392V19.6692L184.339 25.0732H182.211L179.215 20.9572H179.831L176.835 25.0732H174.721Z" fill="white"/>
<defs>
<linearGradient id="paint0_linear_7_170" x1="-127.556" y1="20.0732" x2="182.589" y2="20.0732" gradientUnits="userSpaceOnUse">
<stop stop-color="#00CCFF"/>
<stop offset="1" stop-color="#FF00FF"/>
</linearGradient>
</defs>
</svg>
