<svg width="122" height="26" viewBox="0 0 122 26" fill="none" xmlns="http://www.w3.org/2000/svg">
<rect y="0.636719" width="122" height="24.76" rx="12.38" fill="url(#paint0_linear_30_643)"/>
<path d="M13.4951 15.5166V9.8766H15.5431C16.1884 9.8766 16.7324 9.9886 17.1751 10.2126C17.6231 10.4313 17.9618 10.7513 18.1911 11.1726C18.4204 11.5886 18.5351 12.0953 18.5351 12.6926C18.5351 13.2846 18.4204 13.7913 18.1911 14.2126C17.9618 14.6339 17.6231 14.9566 17.1751 15.1806C16.7324 15.4046 16.1884 15.5166 15.5431 15.5166H13.4951ZM14.5271 14.6606H15.4791C16.1618 14.6606 16.6684 14.4979 16.9991 14.1726C17.3298 13.8473 17.4951 13.3539 17.4951 12.6926C17.4951 12.0259 17.3298 11.5326 16.9991 11.2126C16.6684 10.8873 16.1618 10.7246 15.4791 10.7246H14.5271V14.6606ZM12.8231 13.0366V12.2846H16.0631V13.0366H12.8231ZM18.8477 15.5166L21.3997 9.8766H22.2637L24.8477 15.5166H23.7997L23.1117 13.9326L23.5277 14.2126H20.1437L20.5757 13.9326L19.8877 15.5166H18.8477ZM21.8237 10.9806L20.6957 13.6526L20.4877 13.4046H23.1757L23.0077 13.6526L21.8557 10.9806H21.8237ZM21.3517 17.1486V16.2206H22.3277V17.1486H21.3517ZM21.8397 9.4366C21.4237 9.4366 21.0823 9.31393 20.8157 9.0686C20.5543 8.82327 20.4077 8.4926 20.3757 8.0766L20.9437 8.0046C20.9703 8.26593 21.061 8.47127 21.2157 8.6206C21.3703 8.7646 21.5757 8.8366 21.8317 8.8366C22.093 8.8366 22.3037 8.7646 22.4637 8.6206C22.6237 8.47127 22.7143 8.26593 22.7357 8.0046L23.3037 8.0766C23.2717 8.4926 23.1223 8.82327 22.8557 9.0686C22.5943 9.31393 22.2557 9.4366 21.8397 9.4366ZM26.1747 15.5166V10.7246H24.3107V9.8766H29.0707V10.7246H27.2067V15.5166H26.1747ZM33.8191 15.5166L31.3071 9.8766H32.4191L34.4431 14.6126H34.1071L36.1311 9.8766H37.2031L34.6911 15.5166H33.8191ZM37.7607 15.5166V9.8766H41.5607V10.6846H38.7527V12.2446H41.3767V13.0606H38.7527V14.7006H41.5607V15.5166H37.7607ZM39.4407 9.3966L40.3927 8.0046H41.4327L40.1607 9.3966H39.4407ZM48.7458 17.0526C48.5752 16.9566 48.4018 16.8286 48.2258 16.6686C48.0552 16.5139 47.8952 16.3379 47.7458 16.1406C47.5965 15.9433 47.4685 15.7433 47.3618 15.5406L48.1858 15.1886C48.3192 15.4659 48.5005 15.7166 48.7298 15.9406C48.9592 16.1646 49.1965 16.3539 49.4418 16.5086L48.7458 17.0526ZM44.5298 12.6926C44.5298 12.1006 44.6365 11.5886 44.8498 11.1566C45.0685 10.7246 45.3805 10.3913 45.7858 10.1566C46.1912 9.9166 46.6738 9.7966 47.2338 9.7966C47.7885 9.7966 48.2685 9.9166 48.6738 10.1566C49.0792 10.3913 49.3912 10.7246 49.6098 11.1566C49.8338 11.5886 49.9458 12.0979 49.9458 12.6846C49.9458 13.2766 49.8338 13.7913 49.6098 14.2286C49.3912 14.6606 49.0792 14.9966 48.6738 15.2366C48.2685 15.4766 47.7885 15.5966 47.2338 15.5966C46.6738 15.5966 46.1912 15.4766 45.7858 15.2366C45.3858 14.9966 45.0765 14.6606 44.8578 14.2286C44.6392 13.7913 44.5298 13.2793 44.5298 12.6926ZM45.6098 12.6926C45.6098 13.3273 45.7458 13.8233 46.0178 14.1806C46.2898 14.5379 46.6952 14.7166 47.2338 14.7166C47.7565 14.7166 48.1592 14.5379 48.4418 14.1806C48.7245 13.8233 48.8658 13.3273 48.8658 12.6926C48.8658 12.0526 48.7245 11.5566 48.4418 11.2046C48.1645 10.8526 47.7618 10.6766 47.2338 10.6766C46.6952 10.6766 46.2898 10.8526 46.0178 11.2046C45.7458 11.5566 45.6098 12.0526 45.6098 12.6926ZM53.3627 15.5966C52.5574 15.5966 51.9574 15.3966 51.5627 14.9966C51.1734 14.5913 50.9787 13.9939 50.9787 13.2046V9.8766H52.0107V13.1966C52.0107 13.6979 52.1174 14.0766 52.3307 14.3326C52.5494 14.5886 52.8934 14.7166 53.3627 14.7166C53.8107 14.7166 54.1467 14.5886 54.3707 14.3326C54.6001 14.0766 54.7147 13.6979 54.7147 13.1966V9.8766H55.7307V13.2046C55.7307 13.9939 55.5307 14.5913 55.1307 14.9966C54.7361 15.3966 54.1467 15.5966 53.3627 15.5966ZM56.2695 15.5166L58.8215 9.8766H59.6855L62.2695 15.5166H61.2215L60.5335 13.9326L60.9495 14.2126H57.5655L57.9975 13.9326L57.3095 15.5166H56.2695ZM59.2455 10.9806L58.1175 13.6526L57.9095 13.4046H60.5975L60.4295 13.6526L59.2775 10.9806H59.2455ZM66.4168 15.5166V10.7246H64.5528V9.8766H69.3128V10.7246H67.4488V15.5166H66.4168ZM70.042 15.5166V9.8766H71.074V15.5166H70.042ZM74.9394 15.5966C74.3527 15.5966 73.8487 15.4793 73.4274 15.2446C73.0114 15.0046 72.6914 14.6686 72.4674 14.2366C72.2434 13.7993 72.1314 13.2846 72.1314 12.6926C72.1314 12.1006 72.2434 11.5886 72.4674 11.1566C72.6914 10.7246 73.0114 10.3913 73.4274 10.1566C73.8487 9.9166 74.3527 9.7966 74.9394 9.7966C75.3341 9.7966 75.6887 9.8526 76.0034 9.9646C76.3234 10.0766 76.5981 10.2419 76.8274 10.4606L76.4914 11.2766C76.2407 11.0739 75.9981 10.9299 75.7634 10.8446C75.5341 10.7539 75.2701 10.7086 74.9714 10.7086C74.4007 10.7086 73.9634 10.8819 73.6594 11.2286C73.3607 11.5699 73.2114 12.0579 73.2114 12.6926C73.2114 13.3273 73.3607 13.8179 73.6594 14.1646C73.9634 14.5113 74.4007 14.6846 74.9714 14.6846C75.2701 14.6846 75.5341 14.6419 75.7634 14.5566C75.9981 14.4659 76.2407 14.3166 76.4914 14.1086L76.8274 14.9246C76.5981 15.1379 76.3234 15.3033 76.0034 15.4206C75.6887 15.5379 75.3341 15.5966 74.9394 15.5966ZM77.792 15.5166V9.8766H78.824V12.3726H78.84L81.296 9.8766H82.544L79.6 12.8126L79.608 12.3646L82.736 15.5166H81.448L78.84 12.9086H78.824V15.5166H77.792ZM83.1201 15.5166V9.8766H86.9201V10.6846H84.1121V12.2446H86.7361V13.0606H84.1121V14.7006H86.9201V15.5166H83.1201ZM89.1668 15.5166V10.7246H87.3028V9.8766H92.0628V10.7246H90.1988V15.5166H89.1668ZM92.792 15.5166V9.8766H95.264C95.8773 9.8766 96.3493 10.0073 96.68 10.2686C97.0106 10.5246 97.176 10.8819 97.176 11.3406C97.176 11.6819 97.0746 11.9699 96.872 12.2046C96.6693 12.4393 96.3893 12.5966 96.032 12.6766V12.5566C96.4426 12.6153 96.76 12.7646 96.984 13.0046C97.2133 13.2393 97.328 13.5513 97.328 13.9406C97.328 14.4419 97.1546 14.8313 96.808 15.1086C96.4613 15.3806 95.9786 15.5166 95.36 15.5166H92.792ZM93.784 14.7326H95.24C95.5866 14.7326 95.856 14.6686 96.048 14.5406C96.24 14.4073 96.336 14.1913 96.336 13.8926C96.336 13.5886 96.24 13.3726 96.048 13.2446C95.856 13.1113 95.5866 13.0446 95.24 13.0446H93.784V14.7326ZM93.784 12.2686H95.088C95.456 12.2686 95.728 12.2019 95.904 12.0686C96.0853 11.9299 96.176 11.7273 96.176 11.4606C96.176 11.1939 96.0853 10.9939 95.904 10.8606C95.728 10.7219 95.456 10.6526 95.088 10.6526H93.784V12.2686ZM98.1314 12.6926C98.1314 12.1006 98.2381 11.5886 98.4514 11.1566C98.6701 10.7246 98.9821 10.3913 99.3874 10.1566C99.7927 9.9166 100.275 9.7966 100.835 9.7966C101.39 9.7966 101.87 9.9166 102.275 10.1566C102.681 10.3913 102.993 10.7246 103.211 11.1566C103.435 11.5886 103.547 12.0979 103.547 12.6846C103.547 13.2766 103.435 13.7913 103.211 14.2286C102.993 14.6606 102.681 14.9966 102.275 15.2366C101.87 15.4766 101.39 15.5966 100.835 15.5966C100.275 15.5966 99.7927 15.4766 99.3874 15.2366C98.9874 14.9966 98.6781 14.6606 98.4594 14.2286C98.2407 13.7913 98.1314 13.2793 98.1314 12.6926ZM99.2114 12.6926C99.2114 13.3273 99.3474 13.8233 99.6194 14.1806C99.8914 14.5379 100.297 14.7166 100.835 14.7166C101.358 14.7166 101.761 14.5379 102.043 14.1806C102.326 13.8233 102.467 13.3273 102.467 12.6926C102.467 12.0526 102.326 11.5566 102.043 11.2046C101.766 10.8526 101.363 10.6766 100.835 10.6766C100.297 10.6766 99.8914 10.8526 99.6194 11.2046C99.3474 11.5566 99.2114 12.0526 99.2114 12.6926ZM103.698 15.5166L106.018 12.4286V12.8686L103.778 9.8766H104.986L106.61 12.1246H106.282L107.898 9.8766H109.114L106.866 12.8686V12.4286L109.194 15.5166H107.978L106.266 13.1646H106.618L104.906 15.5166H103.698Z" fill="white"/>
<defs>
<linearGradient id="paint0_linear_30_643" x1="-77.8089" y1="13.0167" x2="111.38" y2="13.0167" gradientUnits="userSpaceOnUse">
<stop stop-color="#00CCFF"/>
<stop offset="1" stop-color="#FF00FF"/>
</linearGradient>
</defs>
</svg>
