<svg width="312" height="37" viewBox="0 0 312 37" fill="none" xmlns="http://www.w3.org/2000/svg">
<rect width="312" height="36" transform="translate(0 0.131348)" fill="url(#paint0_linear_46_3)"/>
<path d="M71.6953 24.1313L76.7993 12.8513H78.5273L83.6953 24.1313H81.5993L80.2233 20.9633L81.0553 21.5233H74.2873L75.1513 20.9633L73.7753 24.1313H71.6953ZM77.6473 15.0593L75.3913 20.4033L74.9753 19.9073H80.3513L80.0153 20.4033L77.7113 15.0593H77.6473ZM87.1262 24.1313L83.1422 12.8513H85.2862L88.3582 22.0993H87.7182L91.0302 12.8513H92.5662L95.6382 22.0993H95.0462L98.2622 12.8513H100.278L96.2622 24.1313H94.5502L91.5742 15.4593H91.9262L88.8382 24.1313H87.1262ZM99.7266 24.1313L104.831 12.8513H106.559L111.727 24.1313H109.631L108.255 20.9633L109.087 21.5233H102.319L103.183 20.9633L101.807 24.1313H99.7266ZM105.679 15.0593L103.423 20.4033L103.007 19.9073H108.383L108.047 20.4033L105.743 15.0593H105.679ZM112.975 24.1313V12.8513H117.903C119.14 12.8513 120.095 13.1447 120.767 13.7313C121.449 14.318 121.791 15.134 121.791 16.1793C121.791 16.8727 121.636 17.4647 121.327 17.9553C121.028 18.446 120.596 18.8247 120.031 19.0913C119.465 19.3473 118.799 19.4753 118.031 19.4753L118.255 19.1713H118.799C119.247 19.1713 119.647 19.2887 119.999 19.5233C120.351 19.758 120.639 20.1153 120.863 20.5953L122.511 24.1313H120.239L118.575 20.4673C118.425 20.094 118.196 19.8487 117.887 19.7313C117.588 19.614 117.225 19.5553 116.799 19.5553H115.039V24.1313H112.975ZM115.039 18.0353H117.567C118.292 18.0353 118.841 17.886 119.215 17.5873C119.599 17.278 119.791 16.83 119.791 16.2433C119.791 15.6567 119.599 15.214 119.215 14.9153C118.841 14.6167 118.292 14.4673 117.567 14.4673H115.039V18.0353ZM124.209 24.1313V12.8513H128.305C129.596 12.8513 130.684 13.0753 131.569 13.5233C132.465 13.9607 133.142 14.6007 133.601 15.4433C134.06 16.2753 134.289 17.2887 134.289 18.4833C134.289 19.6673 134.06 20.6807 133.601 21.5233C133.142 22.366 132.465 23.0113 131.569 23.4593C130.684 23.9073 129.596 24.1313 128.305 24.1313H124.209ZM126.273 22.4193H128.177C129.542 22.4193 130.556 22.094 131.217 21.4433C131.878 20.7927 132.209 19.806 132.209 18.4833C132.209 17.15 131.878 16.1633 131.217 15.5233C130.556 14.8727 129.542 14.5473 128.177 14.5473H126.273V22.4193ZM146.035 24.2913C144.862 24.2913 143.854 24.0567 143.011 23.5873C142.179 23.1073 141.539 22.4353 141.091 21.5713C140.643 20.6967 140.419 19.6673 140.419 18.4833C140.419 17.2993 140.643 16.2753 141.091 15.4113C141.539 14.5473 142.179 13.8807 143.011 13.4113C143.854 12.9313 144.862 12.6913 146.035 12.6913C146.824 12.6913 147.534 12.8033 148.163 13.0273C148.803 13.2513 149.352 13.582 149.811 14.0193L149.139 15.6513C148.638 15.246 148.152 14.958 147.683 14.7873C147.224 14.606 146.696 14.5153 146.099 14.5153C144.958 14.5153 144.083 14.862 143.475 15.5553C142.878 16.238 142.579 17.214 142.579 18.4833C142.579 19.7527 142.878 20.734 143.475 21.4273C144.083 22.1207 144.958 22.4673 146.099 22.4673C146.696 22.4673 147.224 22.382 147.683 22.2113C148.152 22.03 148.638 21.7313 149.139 21.3153L149.811 22.9473C149.352 23.374 148.803 23.7047 148.163 23.9393C147.534 24.174 146.824 24.2913 146.035 24.2913ZM150.258 24.1313L155.362 12.8513H157.09L162.258 24.1313H160.162L158.786 20.9633L159.618 21.5233H152.85L153.714 20.9633L152.338 24.1313H150.258ZM156.21 15.0593L153.954 20.4033L153.538 19.9073H158.914L158.578 20.4033L156.274 15.0593H156.21ZM164.912 24.1313V14.5473H161.184V12.8513H170.704V14.5473H166.976V24.1313H164.912ZM172.162 24.1313V12.8513H179.762V14.4673H174.146V17.5873H179.394V19.2193H174.146V22.4993H179.762V24.1313H172.162ZM187.102 24.2913C185.833 24.2913 184.766 24.0567 183.902 23.5873C183.038 23.118 182.387 22.4513 181.95 21.5873C181.513 20.7233 181.294 19.6993 181.294 18.5153C181.294 17.3207 181.529 16.2913 181.998 15.4273C182.467 14.5527 183.139 13.8807 184.014 13.4113C184.899 12.9313 185.961 12.6913 187.198 12.6913C188.019 12.6913 188.739 12.8033 189.358 13.0273C189.977 13.2407 190.521 13.5553 190.99 13.9713L190.302 15.5713C189.961 15.3047 189.635 15.0913 189.326 14.9313C189.017 14.7713 188.697 14.6593 188.366 14.5953C188.035 14.5207 187.651 14.4833 187.214 14.4833C185.977 14.4833 185.038 14.8353 184.398 15.5393C183.769 16.2327 183.454 17.23 183.454 18.5313C183.454 19.8327 183.753 20.8247 184.35 21.5073C184.958 22.19 185.907 22.5313 187.198 22.5313C187.635 22.5313 188.073 22.4887 188.51 22.4033C188.958 22.318 189.395 22.1953 189.822 22.0353L189.438 22.8993V19.5233H186.798V18.0193H191.15V23.4433C190.627 23.71 190.003 23.918 189.278 24.0673C188.553 24.2167 187.827 24.2913 187.102 24.2913ZM193.138 18.4833C193.138 17.2993 193.351 16.2753 193.778 15.4113C194.215 14.5473 194.839 13.8807 195.65 13.4113C196.46 12.9313 197.426 12.6913 198.546 12.6913C199.655 12.6913 200.615 12.9313 201.426 13.4113C202.236 13.8807 202.86 14.5473 203.298 15.4113C203.746 16.2753 203.97 17.294 203.97 18.4673C203.97 19.6513 203.746 20.6807 203.298 21.5553C202.86 22.4193 202.236 23.0913 201.426 23.5713C200.615 24.0513 199.655 24.2913 198.546 24.2913C197.426 24.2913 196.46 24.0513 195.65 23.5713C194.85 23.0913 194.231 22.4193 193.794 21.5553C193.356 20.6807 193.138 19.6567 193.138 18.4833ZM195.298 18.4833C195.298 19.7527 195.57 20.7447 196.114 21.4593C196.658 22.174 197.468 22.5313 198.546 22.5313C199.591 22.5313 200.396 22.174 200.962 21.4593C201.527 20.7447 201.81 19.7527 201.81 18.4833C201.81 17.2033 201.527 16.2113 200.962 15.5073C200.407 14.8033 199.602 14.4513 198.546 14.4513C197.468 14.4513 196.658 14.8033 196.114 15.5073C195.57 16.2113 195.298 17.2033 195.298 18.4833ZM206.1 24.1313V12.8513H211.028C212.265 12.8513 213.22 13.1447 213.892 13.7313C214.574 14.318 214.916 15.134 214.916 16.1793C214.916 16.8727 214.761 17.4647 214.452 17.9553C214.153 18.446 213.721 18.8247 213.156 19.0913C212.59 19.3473 211.924 19.4753 211.156 19.4753L211.38 19.1713H211.924C212.372 19.1713 212.772 19.2887 213.124 19.5233C213.476 19.758 213.764 20.1153 213.988 20.5953L215.636 24.1313H213.364L211.7 20.4673C211.55 20.094 211.321 19.8487 211.012 19.7313C210.713 19.614 210.35 19.5553 209.924 19.5553H208.164V24.1313H206.1ZM208.164 18.0353H210.692C211.417 18.0353 211.966 17.886 212.34 17.5873C212.724 17.278 212.916 16.83 212.916 16.2433C212.916 15.6567 212.724 15.214 212.34 14.9153C211.966 14.6167 211.417 14.4673 210.692 14.4673H208.164V18.0353ZM217.334 24.1313V12.8513H219.398V24.1313H217.334ZM221.881 24.1313V12.8513H229.481V14.4673H223.865V17.5873H229.113V19.2193H223.865V22.4993H229.481V24.1313H221.881ZM235.176 24.2913C234.27 24.2913 233.432 24.1793 232.664 23.9553C231.907 23.7207 231.256 23.4007 230.712 22.9953L231.352 21.3793C231.715 21.6353 232.094 21.854 232.488 22.0353C232.883 22.206 233.304 22.3393 233.752 22.4353C234.2 22.5207 234.675 22.5633 235.176 22.5633C236.019 22.5633 236.627 22.4247 237 22.1473C237.374 21.87 237.56 21.5073 237.56 21.0593C237.56 20.6647 237.432 20.366 237.176 20.1633C236.92 19.95 236.462 19.774 235.8 19.6353L233.992 19.2673C232.958 19.054 232.184 18.6967 231.672 18.1953C231.16 17.694 230.904 17.022 230.904 16.1793C230.904 15.4753 231.091 14.862 231.464 14.3393C231.838 13.8167 232.36 13.4113 233.032 13.1233C233.704 12.8353 234.488 12.6913 235.384 12.6913C236.184 12.6913 236.926 12.8087 237.608 13.0433C238.291 13.2673 238.862 13.5927 239.32 14.0193L238.68 15.5553C238.222 15.1713 237.72 14.8887 237.176 14.7073C236.632 14.5153 236.024 14.4193 235.352 14.4193C234.595 14.4193 234.003 14.5687 233.576 14.8673C233.16 15.1553 232.952 15.5553 232.952 16.0673C232.952 16.462 233.08 16.7767 233.336 17.0113C233.603 17.246 234.051 17.4273 234.68 17.5553L236.472 17.9073C237.539 18.1207 238.328 18.4727 238.84 18.9633C239.352 19.4433 239.608 20.094 239.608 20.9153C239.608 21.5873 239.427 22.1793 239.064 22.6913C238.702 23.1927 238.19 23.5873 237.528 23.8753C236.867 24.1527 236.083 24.2913 235.176 24.2913Z" fill="white"/>
<defs>
<linearGradient id="paint0_linear_46_3" x1="-249.919" y1="18" x2="601.327" y2="18" gradientUnits="userSpaceOnUse">
<stop stop-color="#00CCFF"/>
<stop offset="1" stop-color="#FF00FF"/>
</linearGradient>
</defs>
</svg>
