<svg width="122" height="26" viewBox="0 0 122 26" fill="none" xmlns="http://www.w3.org/2000/svg">
<rect y="0.876953" width="122" height="24.76" rx="12.38" fill="url(#paint0_linear_30_641)"/>
<path d="M28.999 15.7568V10.1168H31.047C31.6923 10.1168 32.2363 10.2288 32.679 10.4528C33.127 10.6715 33.4657 10.9915 33.695 11.4128C33.9243 11.8288 34.039 12.3355 34.039 12.9328C34.039 13.5248 33.9243 14.0315 33.695 14.4528C33.4657 14.8742 33.127 15.1968 32.679 15.4208C32.2363 15.6448 31.6923 15.7568 31.047 15.7568H28.999ZM30.031 14.9008H30.983C31.6657 14.9008 32.1723 14.7382 32.503 14.4128C32.8337 14.0875 32.999 13.5942 32.999 12.9328C32.999 12.2662 32.8337 11.7728 32.503 11.4528C32.1723 11.1275 31.6657 10.9648 30.983 10.9648H30.031V14.9008ZM28.327 13.2768V12.5248H31.567V13.2768H28.327ZM34.3516 15.7568L36.9036 10.1168H37.7676L40.3516 15.7568H39.3036L38.6156 14.1728L39.0316 14.4528H35.6476L36.0796 14.1728L35.3916 15.7568H34.3516ZM37.3276 11.2208L36.1996 13.8928L35.9916 13.6448H38.6796L38.5116 13.8928L37.3596 11.2208H37.3276ZM36.8556 17.3888V16.4608H37.8316V17.3888H36.8556ZM37.3436 9.67684C36.9276 9.67684 36.5862 9.55417 36.3196 9.30884C36.0582 9.0635 35.9116 8.73284 35.8796 8.31684L36.4476 8.24484C36.4742 8.50617 36.5649 8.7115 36.7196 8.86084C36.8742 9.00484 37.0796 9.07684 37.3356 9.07684C37.5969 9.07684 37.8076 9.00484 37.9676 8.86084C38.1276 8.7115 38.2182 8.50617 38.2396 8.24484L38.8076 8.31684C38.7756 8.73284 38.6262 9.0635 38.3596 9.30884C38.0982 9.55417 37.7596 9.67684 37.3436 9.67684ZM41.6786 15.7568V10.9648H39.8146V10.1168H44.5746V10.9648H42.7106V15.7568H41.6786ZM49.323 15.7568L46.811 10.1168H47.923L49.947 14.8528H49.611L51.635 10.1168H52.707L50.195 15.7568H49.323ZM53.2646 15.7568V10.1168H57.0646V10.9248H54.2566V12.4848H56.8806V13.3008H54.2566V14.9408H57.0646V15.7568H53.2646ZM54.9446 9.63684L55.8966 8.24484H56.9366L55.6646 9.63684H54.9446ZM64.2498 17.2928C64.0791 17.1968 63.9058 17.0688 63.7298 16.9088C63.5591 16.7542 63.3991 16.5782 63.2498 16.3808C63.1004 16.1835 62.9724 15.9835 62.8658 15.7808L63.6898 15.4288C63.8231 15.7062 64.0044 15.9568 64.2338 16.1808C64.4631 16.4048 64.7004 16.5942 64.9458 16.7488L64.2498 17.2928ZM60.0338 12.9328C60.0338 12.3408 60.1404 11.8288 60.3538 11.3968C60.5724 10.9648 60.8844 10.6315 61.2898 10.3968C61.6951 10.1568 62.1778 10.0368 62.7378 10.0368C63.2924 10.0368 63.7724 10.1568 64.1778 10.3968C64.5831 10.6315 64.8951 10.9648 65.1138 11.3968C65.3378 11.8288 65.4498 12.3382 65.4498 12.9248C65.4498 13.5168 65.3378 14.0315 65.1138 14.4688C64.8951 14.9008 64.5831 15.2368 64.1778 15.4768C63.7724 15.7168 63.2924 15.8368 62.7378 15.8368C62.1778 15.8368 61.6951 15.7168 61.2898 15.4768C60.8898 15.2368 60.5804 14.9008 60.3618 14.4688C60.1431 14.0315 60.0338 13.5195 60.0338 12.9328ZM61.1138 12.9328C61.1138 13.5675 61.2498 14.0635 61.5218 14.4208C61.7938 14.7782 62.1991 14.9568 62.7378 14.9568C63.2604 14.9568 63.6631 14.7782 63.9458 14.4208C64.2284 14.0635 64.3698 13.5675 64.3698 12.9328C64.3698 12.2928 64.2284 11.7968 63.9458 11.4448C63.6684 11.0928 63.2658 10.9168 62.7378 10.9168C62.1991 10.9168 61.7938 11.0928 61.5218 11.4448C61.2498 11.7968 61.1138 12.2928 61.1138 12.9328ZM68.8666 15.8368C68.0613 15.8368 67.4613 15.6368 67.0666 15.2368C66.6773 14.8315 66.4826 14.2342 66.4826 13.4448V10.1168H67.5146V13.4368C67.5146 13.9382 67.6213 14.3168 67.8346 14.5728C68.0533 14.8288 68.3973 14.9568 68.8666 14.9568C69.3146 14.9568 69.6506 14.8288 69.8746 14.5728C70.104 14.3168 70.2186 13.9382 70.2186 13.4368V10.1168H71.2346V13.4448C71.2346 14.2342 71.0346 14.8315 70.6346 15.2368C70.24 15.6368 69.6506 15.8368 68.8666 15.8368ZM71.7734 15.7568L74.3254 10.1168H75.1894L77.7734 15.7568H76.7254L76.0374 14.1728L76.4534 14.4528H73.0694L73.5014 14.1728L72.8134 15.7568H71.7734ZM74.7494 11.2208L73.6214 13.8928L73.4134 13.6448H76.1014L75.9334 13.8928L74.7814 11.2208H74.7494ZM82.4168 15.7568L79.9047 10.1168H81.0168L83.0408 14.8528H82.7048L84.7288 10.1168H85.8008L83.2888 15.7568H82.4168ZM86.3584 15.7568V10.1168H87.3904V15.7568H86.3584ZM88.6318 15.7568V10.1168H91.0958C91.7145 10.1168 92.1918 10.2635 92.5278 10.5568C92.8691 10.8502 93.0398 11.2582 93.0398 11.7808C93.0398 12.1275 92.9625 12.4235 92.8078 12.6688C92.6585 12.9142 92.4425 13.1035 92.1598 13.2368C91.8771 13.3648 91.5438 13.4288 91.1598 13.4288L91.2718 13.2768H91.5438C91.7678 13.2768 91.9678 13.3355 92.1438 13.4528C92.3198 13.5702 92.4638 13.7488 92.5758 13.9888L93.3998 15.7568H92.2638L91.4318 13.9248C91.3571 13.7382 91.2425 13.6155 91.0878 13.5568C90.9385 13.4982 90.7571 13.4688 90.5438 13.4688H89.6638V15.7568H88.6318ZM89.6638 12.7088H90.9278C91.2905 12.7088 91.5651 12.6342 91.7518 12.4848C91.9438 12.3302 92.0398 12.1062 92.0398 11.8128C92.0398 11.5195 91.9438 11.2982 91.7518 11.1488C91.5651 10.9995 91.2905 10.9248 90.9278 10.9248H89.6638V12.7088Z" fill="white"/>
<defs>
<linearGradient id="paint0_linear_30_641" x1="-77.8089" y1="13.257" x2="111.38" y2="13.257" gradientUnits="userSpaceOnUse">
<stop stop-color="#00CCFF"/>
<stop offset="1" stop-color="#FF00FF"/>
</linearGradient>
</defs>
</svg>
