<svg width="200" height="41" viewBox="0 0 200 41" fill="none" xmlns="http://www.w3.org/2000/svg">
<rect y="0.0732422" width="200" height="40" rx="20" fill="url(#paint0_linear_7_168)"/>
<path d="M43.9983 25.0732V15.2032H47.5823C48.7116 15.2032 49.6636 15.3992 50.4383 15.7912C51.2223 16.1739 51.8149 16.7339 52.2163 17.4712C52.6176 18.1992 52.8183 19.0859 52.8183 20.1312C52.8183 21.1672 52.6176 22.0539 52.2163 22.7912C51.8149 23.5286 51.2223 24.0932 50.4383 24.4852C49.6636 24.8772 48.7116 25.0732 47.5823 25.0732H43.9983ZM45.8043 23.5752H47.4703C48.6649 23.5752 49.5516 23.2906 50.1303 22.7212C50.7089 22.1519 50.9983 21.2886 50.9983 20.1312C50.9983 18.9646 50.7089 18.1012 50.1303 17.5412C49.5516 16.9719 48.6649 16.6872 47.4703 16.6872H45.8043V23.5752ZM42.8222 20.7332V19.4172H48.4923V20.7332H42.8222ZM53.3652 25.0732L57.8312 15.2032H59.3432L63.8652 25.0732H62.0312L60.8272 22.3012L61.5552 22.7912H55.6332L56.3892 22.3012L55.1852 25.0732H53.3652ZM58.5732 17.1352L56.5992 21.8112L56.2352 21.3772H60.9392L60.6452 21.8112L58.6292 17.1352H58.5732ZM57.7472 27.9292V26.3052H59.4552V27.9292H57.7472ZM58.6012 14.4332C57.8732 14.4332 57.2759 14.2186 56.8092 13.7892C56.3519 13.3599 56.0952 12.7812 56.0392 12.0532L57.0332 11.9272C57.0799 12.3846 57.2386 12.7439 57.5092 13.0052C57.7799 13.2572 58.1392 13.3832 58.5872 13.3832C59.0446 13.3832 59.4132 13.2572 59.6932 13.0052C59.9732 12.7439 60.1319 12.3846 60.1692 11.9272L61.1632 12.0532C61.1072 12.7812 60.8459 13.3599 60.3792 13.7892C59.9219 14.2186 59.3292 14.4332 58.6012 14.4332ZM66.1875 25.0732V16.6872H62.9255V15.2032H71.2555V16.6872H67.9935V25.0732H66.1875ZM79.5653 25.0732L75.1692 15.2032H77.1153L80.6573 23.4912H80.0693L83.6113 15.2032H85.4873L81.0913 25.0732H79.5653ZM86.4631 25.0732V15.2032H93.1131V16.6172H88.1991V19.3472H92.7911V20.7752H88.1991V23.6452H93.1131V25.0732H86.4631ZM89.4031 14.3632L91.0691 11.9272H92.8891L90.6631 14.3632H89.4031ZM105.687 27.7612C105.388 27.5932 105.085 27.3692 104.777 27.0892C104.478 26.8186 104.198 26.5106 103.937 26.1652C103.676 25.8199 103.452 25.4699 103.265 25.1152L104.707 24.4992C104.94 24.9846 105.258 25.4232 105.659 25.8152C106.06 26.2072 106.476 26.5386 106.905 26.8092L105.687 27.7612ZM98.3091 20.1312C98.3091 19.0952 98.4957 18.1992 98.8691 17.4432C99.2517 16.6872 99.7977 16.1039 100.507 15.6932C101.216 15.2732 102.061 15.0632 103.041 15.0632C104.012 15.0632 104.852 15.2732 105.561 15.6932C106.27 16.1039 106.816 16.6872 107.199 17.4432C107.591 18.1992 107.787 19.0906 107.787 20.1172C107.787 21.1532 107.591 22.0539 107.199 22.8192C106.816 23.5752 106.27 24.1632 105.561 24.5832C104.852 25.0032 104.012 25.2132 103.041 25.2132C102.061 25.2132 101.216 25.0032 100.507 24.5832C99.8071 24.1632 99.2657 23.5752 98.8831 22.8192C98.5004 22.0539 98.3091 21.1579 98.3091 20.1312ZM100.199 20.1312C100.199 21.2419 100.437 22.1099 100.913 22.7352C101.389 23.3606 102.098 23.6732 103.041 23.6732C103.956 23.6732 104.66 23.3606 105.155 22.7352C105.65 22.1099 105.897 21.2419 105.897 20.1312C105.897 19.0112 105.65 18.1432 105.155 17.5272C104.67 16.9112 103.965 16.6032 103.041 16.6032C102.098 16.6032 101.389 16.9112 100.913 17.5272C100.437 18.1432 100.199 19.0112 100.199 20.1312ZM113.767 25.2132C112.357 25.2132 111.307 24.8632 110.617 24.1632C109.935 23.4539 109.595 22.4086 109.595 21.0272V15.2032H111.401V21.0132C111.401 21.8906 111.587 22.5532 111.961 23.0012C112.343 23.4492 112.945 23.6732 113.767 23.6732C114.551 23.6732 115.139 23.4492 115.531 23.0012C115.932 22.5532 116.133 21.8906 116.133 21.0132V15.2032H117.911V21.0272C117.911 22.4086 117.561 23.4539 116.861 24.1632C116.17 24.8632 115.139 25.2132 113.767 25.2132ZM118.854 25.0732L123.32 15.2032H124.832L129.354 25.0732H127.52L126.316 22.3012L127.044 22.7912H121.122L121.878 22.3012L120.674 25.0732H118.854ZM124.062 17.1352L122.088 21.8112L121.724 21.3772H126.428L126.134 21.8112L124.118 17.1352H124.062ZM137.479 25.0732L133.083 15.2032H135.029L138.571 23.4912H137.983L141.525 15.2032H143.401L139.005 25.0732H137.479ZM144.377 25.0732V15.2032H146.183V25.0732H144.377ZM148.356 25.0732V15.2032H152.668C153.75 15.2032 154.586 15.4599 155.174 15.9732C155.771 16.4866 156.07 17.2006 156.07 18.1152C156.07 18.7219 155.934 19.2399 155.664 19.6692C155.402 20.0986 155.024 20.4299 154.53 20.6632C154.035 20.8872 153.452 20.9992 152.78 20.9992L152.976 20.7332H153.452C153.844 20.7332 154.194 20.8359 154.502 21.0412C154.81 21.2466 155.062 21.5592 155.258 21.9792L156.7 25.0732H154.712L153.256 21.8672C153.125 21.5406 152.924 21.3259 152.654 21.2232C152.392 21.1206 152.075 21.0692 151.702 21.0692H150.162V25.0732H148.356ZM150.162 19.7392H152.374C153.008 19.7392 153.489 19.6086 153.816 19.3472C154.152 19.0766 154.32 18.6846 154.32 18.1712C154.32 17.6579 154.152 17.2706 153.816 17.0092C153.489 16.7479 153.008 16.6172 152.374 16.6172H150.162V19.7392Z" fill="white"/>
<defs>
<linearGradient id="paint0_linear_7_168" x1="-127.556" y1="20.0732" x2="182.589" y2="20.0732" gradientUnits="userSpaceOnUse">
<stop stop-color="#00CCFF"/>
<stop offset="1" stop-color="#FF00FF"/>
</linearGradient>
</defs>
</svg>
