<svg width="200" height="41" viewBox="0 0 200 41" fill="none" xmlns="http://www.w3.org/2000/svg">
<rect y="0.115234" width="200" height="40" rx="20" fill="url(#paint0_linear_8_345)"/>
<path d="M32.0627 25.1152V15.2452H36.3887C37.462 15.2452 38.288 15.4739 38.8667 15.9312C39.4454 16.3792 39.7347 17.0046 39.7347 17.8072C39.7347 18.4046 39.5574 18.9086 39.2027 19.3192C38.848 19.7299 38.358 20.0052 37.7327 20.1452V19.9352C38.4514 20.0379 39.0067 20.2992 39.3987 20.7192C39.8 21.1299 40.0007 21.6759 40.0007 22.3572C40.0007 23.2346 39.6974 23.9159 39.0907 24.4012C38.484 24.8772 37.6394 25.1152 36.5567 25.1152H32.0627ZM33.7987 23.7432H36.3467C36.9534 23.7432 37.4247 23.6312 37.7607 23.4072C38.0967 23.1739 38.2647 22.7959 38.2647 22.2732C38.2647 21.7412 38.0967 21.3632 37.7607 21.1392C37.4247 20.9059 36.9534 20.7892 36.3467 20.7892H33.7987V23.7432ZM33.7987 19.4312H36.0807C36.7247 19.4312 37.2007 19.3146 37.5087 19.0812C37.826 18.8386 37.9847 18.4839 37.9847 18.0172C37.9847 17.5506 37.826 17.2006 37.5087 16.9672C37.2007 16.7246 36.7247 16.6032 36.0807 16.6032H33.7987V19.4312ZM41.4067 20.1732C41.4067 19.1372 41.5934 18.2412 41.9667 17.4852C42.3494 16.7292 42.8954 16.1459 43.6047 15.7352C44.3141 15.3152 45.1587 15.1052 46.1387 15.1052C47.1094 15.1052 47.9494 15.3152 48.6587 15.7352C49.3681 16.1459 49.9141 16.7292 50.2967 17.4852C50.6887 18.2412 50.8847 19.1326 50.8847 20.1592C50.8847 21.1952 50.6887 22.0959 50.2967 22.8612C49.9141 23.6172 49.3681 24.2052 48.6587 24.6252C47.9494 25.0452 47.1094 25.2552 46.1387 25.2552C45.1587 25.2552 44.3141 25.0452 43.6047 24.6252C42.9047 24.2052 42.3634 23.6172 41.9807 22.8612C41.5981 22.0959 41.4067 21.1999 41.4067 20.1732ZM43.2967 20.1732C43.2967 21.2839 43.5347 22.1519 44.0107 22.7772C44.4867 23.4026 45.1961 23.7152 46.1387 23.7152C47.0534 23.7152 47.7581 23.4026 48.2527 22.7772C48.7474 22.1519 48.9947 21.2839 48.9947 20.1732C48.9947 19.0532 48.7474 18.1852 48.2527 17.5692C47.7674 16.9532 47.0627 16.6452 46.1387 16.6452C45.1961 16.6452 44.4867 16.9532 44.0107 17.5692C43.5347 18.1852 43.2967 19.0532 43.2967 20.1732ZM52.4263 20.1732C52.4263 19.1372 52.6129 18.2412 52.9863 17.4852C53.3689 16.7292 53.9149 16.1459 54.6243 15.7352C55.3336 15.3152 56.1783 15.1052 57.1583 15.1052C58.1289 15.1052 58.9689 15.3152 59.6783 15.7352C60.3876 16.1459 60.9336 16.7292 61.3163 17.4852C61.7083 18.2412 61.9043 19.1326 61.9043 20.1592C61.9043 21.1952 61.7083 22.0959 61.3163 22.8612C60.9336 23.6172 60.3876 24.2052 59.6783 24.6252C58.9689 25.0452 58.1289 25.2552 57.1583 25.2552C56.1783 25.2552 55.3336 25.0452 54.6243 24.6252C53.9243 24.2052 53.3829 23.6172 53.0003 22.8612C52.6176 22.0959 52.4263 21.1999 52.4263 20.1732ZM54.3163 20.1732C54.3163 21.2839 54.5543 22.1519 55.0303 22.7772C55.5063 23.4026 56.2156 23.7152 57.1583 23.7152C58.0729 23.7152 58.7776 23.4026 59.2723 22.7772C59.7669 22.1519 60.0143 21.2839 60.0143 20.1732C60.0143 19.0532 59.7669 18.1852 59.2723 17.5692C58.7869 16.9532 58.0823 16.6452 57.1583 16.6452C56.2156 16.6452 55.5063 16.9532 55.0303 17.5692C54.5543 18.1852 54.3163 19.0532 54.3163 20.1732ZM63.7678 25.1152V15.2452H65.5738V19.6132H65.6018L69.8998 15.2452H72.0838L66.9318 20.3832L66.9458 19.5992L72.4198 25.1152H70.1658L65.6018 20.5512H65.5738V25.1152H63.7678ZM76.9338 25.1152V15.2452H78.2918L84.0178 22.6512H83.6538V15.2452H85.3338V25.1152H83.9758L78.2638 17.7092H78.6138V25.1152H76.9338ZM87.1802 20.1732C87.1802 19.1372 87.3668 18.2412 87.7402 17.4852C88.1228 16.7292 88.6688 16.1459 89.3782 15.7352C90.0875 15.3152 90.9322 15.1052 91.9122 15.1052C92.8828 15.1052 93.7228 15.3152 94.4322 15.7352C95.1415 16.1459 95.6875 16.7292 96.0702 17.4852C96.4622 18.2412 96.6582 19.1326 96.6582 20.1592C96.6582 21.1952 96.4622 22.0959 96.0702 22.8612C95.6875 23.6172 95.1415 24.2052 94.4322 24.6252C93.7228 25.0452 92.8828 25.2552 91.9122 25.2552C90.9322 25.2552 90.0875 25.0452 89.3782 24.6252C88.6782 24.2052 88.1368 23.6172 87.7542 22.8612C87.3715 22.0959 87.1802 21.1999 87.1802 20.1732ZM89.0702 20.1732C89.0702 21.2839 89.3082 22.1519 89.7842 22.7772C90.2602 23.4026 90.9695 23.7152 91.9122 23.7152C92.8268 23.7152 93.5315 23.4026 94.0262 22.7772C94.5208 22.1519 94.7682 21.2839 94.7682 20.1732C94.7682 19.0532 94.5208 18.1852 94.0262 17.5692C93.5408 16.9532 92.8362 16.6452 91.9122 16.6452C90.9695 16.6452 90.2602 16.9532 89.7842 17.5692C89.3082 18.1852 89.0702 19.0532 89.0702 20.1732ZM101.02 25.1152L97.5336 15.2452H99.4096L102.098 23.3372H101.538L104.436 15.2452H105.78L108.468 23.3372H107.95L110.764 15.2452H112.528L109.014 25.1152H107.516L104.912 17.5272H105.22L102.518 25.1152H101.02ZM121.005 25.1152L116.609 15.2452H118.555L122.097 23.5332H121.509L125.051 15.2452H126.927L122.531 25.1152H121.005ZM127.903 25.1152V15.2452H129.709V25.1152H127.903ZM130.789 25.1152L135.255 15.2452H136.767L141.289 25.1152H139.455L138.251 22.3432L138.979 22.8332H133.057L133.813 22.3432L132.609 25.1152H130.789ZM135.997 17.1772L134.023 21.8532L133.659 21.4192H138.363L138.069 21.8532L136.053 17.1772H135.997ZM149.415 25.1152L145.019 15.2452H146.965L150.507 23.5332H149.919L153.461 15.2452H155.337L150.941 25.1152H149.415ZM156.313 25.1152V15.2452H158.119V25.1152H156.313ZM160.291 25.1152V15.2452H164.603C165.686 15.2452 166.521 15.5019 167.109 16.0152C167.707 16.5286 168.005 17.2426 168.005 18.1572C168.005 18.7639 167.87 19.2819 167.599 19.7112C167.338 20.1406 166.96 20.4719 166.465 20.7052C165.971 20.9292 165.387 21.0412 164.715 21.0412L164.911 20.7752H165.387C165.779 20.7752 166.129 20.8779 166.437 21.0832C166.745 21.2886 166.997 21.6012 167.193 22.0212L168.635 25.1152H166.647L165.191 21.9092C165.061 21.5826 164.86 21.3679 164.589 21.2652C164.328 21.1626 164.011 21.1112 163.637 21.1112H162.097V25.1152H160.291ZM162.097 19.7812H164.309C164.944 19.7812 165.425 19.6506 165.751 19.3892C166.087 19.1186 166.255 18.7266 166.255 18.2132C166.255 17.6999 166.087 17.3126 165.751 17.0512C165.425 16.7899 164.944 16.6592 164.309 16.6592H162.097V19.7812Z" fill="white"/>
<defs>
<linearGradient id="paint0_linear_8_345" x1="-127.556" y1="20.1152" x2="182.589" y2="20.1152" gradientUnits="userSpaceOnUse">
<stop stop-color="#00CCFF"/>
<stop offset="1" stop-color="#FF00FF"/>
</linearGradient>
</defs>
</svg>
