<svg width="122" height="26" viewBox="0 0 122 26" fill="none" xmlns="http://www.w3.org/2000/svg">
<rect y="0.45282" width="122" height="24.76" rx="12.38" fill="url(#paint0_linear_8_389)"/>
<path d="M22.1787 15.3328V9.69282H24.6507C25.264 9.69282 25.736 9.82349 26.0667 10.0848C26.3974 10.3408 26.5627 10.6982 26.5627 11.1568C26.5627 11.4982 26.4614 11.7862 26.2587 12.0208C26.056 12.2555 25.776 12.4128 25.4187 12.4928V12.3728C25.8294 12.4315 26.1467 12.5808 26.3707 12.8208C26.6 13.0555 26.7147 13.3675 26.7147 13.7568C26.7147 14.2582 26.5414 14.6475 26.1947 14.9248C25.848 15.1968 25.3654 15.3328 24.7467 15.3328H22.1787ZM23.1707 14.5488H24.6267C24.9734 14.5488 25.2427 14.4848 25.4347 14.3568C25.6267 14.2235 25.7227 14.0075 25.7227 13.7088C25.7227 13.4048 25.6267 13.1888 25.4347 13.0608C25.2427 12.9275 24.9734 12.8608 24.6267 12.8608H23.1707V14.5488ZM23.1707 12.0848H24.4747C24.8427 12.0848 25.1147 12.0182 25.2907 11.8848C25.472 11.7462 25.5627 11.5435 25.5627 11.2768C25.5627 11.0102 25.472 10.8102 25.2907 10.6768C25.1147 10.5382 24.8427 10.4688 24.4747 10.4688H23.1707V12.0848ZM27.5181 12.5088C27.5181 11.9168 27.6248 11.4048 27.8381 10.9728C28.0568 10.5408 28.3688 10.2075 28.7741 9.97282C29.1795 9.73282 29.6621 9.61282 30.2221 9.61282C30.7768 9.61282 31.2568 9.73282 31.6621 9.97282C32.0675 10.2075 32.3795 10.5408 32.5981 10.9728C32.8221 11.4048 32.9341 11.9142 32.9341 12.5008C32.9341 13.0928 32.8221 13.6075 32.5981 14.0448C32.3795 14.4768 32.0675 14.8128 31.6621 15.0528C31.2568 15.2928 30.7768 15.4128 30.2221 15.4128C29.6621 15.4128 29.1795 15.2928 28.7741 15.0528C28.3741 14.8128 28.0648 14.4768 27.8461 14.0448C27.6275 13.6075 27.5181 13.0955 27.5181 12.5088ZM28.5981 12.5088C28.5981 13.1435 28.7341 13.6395 29.0061 13.9968C29.2781 14.3542 29.6835 14.5328 30.2221 14.5328C30.7448 14.5328 31.1475 14.3542 31.4301 13.9968C31.7128 13.6395 31.8541 13.1435 31.8541 12.5088C31.8541 11.8688 31.7128 11.3728 31.4301 11.0208C31.1528 10.6688 30.7501 10.4928 30.2221 10.4928C29.6835 10.4928 29.2781 10.6688 29.0061 11.0208C28.7341 11.3728 28.5981 11.8688 28.5981 12.5088ZM33.815 12.5088C33.815 11.9168 33.9217 11.4048 34.135 10.9728C34.3537 10.5408 34.6657 10.2075 35.071 9.97282C35.4763 9.73282 35.959 9.61282 36.519 9.61282C37.0737 9.61282 37.5537 9.73282 37.959 9.97282C38.3643 10.2075 38.6763 10.5408 38.895 10.9728C39.119 11.4048 39.231 11.9142 39.231 12.5008C39.231 13.0928 39.119 13.6075 38.895 14.0448C38.6763 14.4768 38.3643 14.8128 37.959 15.0528C37.5537 15.2928 37.0737 15.4128 36.519 15.4128C35.959 15.4128 35.4763 15.2928 35.071 15.0528C34.671 14.8128 34.3617 14.4768 34.143 14.0448C33.9243 13.6075 33.815 13.0955 33.815 12.5088ZM34.895 12.5088C34.895 13.1435 35.031 13.6395 35.303 13.9968C35.575 14.3542 35.9803 14.5328 36.519 14.5328C37.0417 14.5328 37.4443 14.3542 37.727 13.9968C38.0097 13.6395 38.151 13.1435 38.151 12.5088C38.151 11.8688 38.0097 11.3728 37.727 11.0208C37.4497 10.6688 37.047 10.4928 36.519 10.4928C35.9803 10.4928 35.575 10.6688 35.303 11.0208C35.031 11.3728 34.895 11.8688 34.895 12.5088ZM40.2959 15.3328V9.69282H41.3279V12.1888H41.3439L43.7999 9.69282H45.0479L42.1039 12.6288L42.1119 12.1808L45.2399 15.3328H43.9519L41.3439 12.7248H41.3279V15.3328H40.2959ZM47.8193 15.3328V9.69282H48.5953L51.8673 13.9248H51.6593V9.69282H52.6193V15.3328H51.8433L48.5793 11.1008H48.7793V15.3328H47.8193ZM53.6744 12.5088C53.6744 11.9168 53.781 11.4048 53.9944 10.9728C54.213 10.5408 54.525 10.2075 54.9304 9.97282C55.3357 9.73282 55.8184 9.61282 56.3784 9.61282C56.933 9.61282 57.413 9.73282 57.8184 9.97282C58.2237 10.2075 58.5357 10.5408 58.7544 10.9728C58.9784 11.4048 59.0904 11.9142 59.0904 12.5008C59.0904 13.0928 58.9784 13.6075 58.7544 14.0448C58.5357 14.4768 58.2237 14.8128 57.8184 15.0528C57.413 15.2928 56.933 15.4128 56.3784 15.4128C55.8184 15.4128 55.3357 15.2928 54.9304 15.0528C54.5304 14.8128 54.221 14.4768 54.0024 14.0448C53.7837 13.6075 53.6744 13.0955 53.6744 12.5088ZM54.7544 12.5088C54.7544 13.1435 54.8904 13.6395 55.1624 13.9968C55.4344 14.3542 55.8397 14.5328 56.3784 14.5328C56.901 14.5328 57.3037 14.3542 57.5864 13.9968C57.869 13.6395 58.0104 13.1435 58.0104 12.5088C58.0104 11.8688 57.869 11.3728 57.5864 11.0208C57.309 10.6688 56.9064 10.4928 56.3784 10.4928C55.8397 10.4928 55.4344 10.6688 55.1624 11.0208C54.8904 11.3728 54.7544 11.8688 54.7544 12.5088ZM61.5826 15.3328L59.5906 9.69282H60.6626L62.1986 14.3168H61.8786L63.5346 9.69282H64.3026L65.8386 14.3168H65.5426L67.1506 9.69282H68.1586L66.1506 15.3328H65.2946L63.8066 10.9968H63.9826L62.4386 15.3328H61.5826ZM73.0027 15.3328L70.4907 9.69282H71.6027L73.6267 14.4288H73.2907L75.3147 9.69282H76.3867L73.8747 15.3328H73.0027ZM76.9443 15.3328V9.69282H77.9763V15.3328H76.9443ZM78.5938 15.3328L81.1458 9.69282H82.0098L84.5938 15.3328H83.5458L82.8578 13.7488L83.2738 14.0288H79.8898L80.3218 13.7488L79.6338 15.3328H78.5938ZM81.5698 10.7968L80.4418 13.4688L80.2338 13.2208H82.9218L82.7538 13.4688L81.6018 10.7968H81.5698ZM89.2371 15.3328L86.7251 9.69282H87.8371L89.8611 14.4288H89.5251L91.5491 9.69282H92.6211L90.1091 15.3328H89.2371ZM93.1787 15.3328V9.69282H94.2107V15.3328H93.1787ZM95.4521 15.3328V9.69282H97.9161C98.5348 9.69282 99.0121 9.83949 99.3481 10.1328C99.6895 10.4262 99.8601 10.8342 99.8601 11.3568C99.8601 11.7035 99.7828 11.9995 99.6281 12.2448C99.4788 12.4902 99.2628 12.6795 98.9801 12.8128C98.6975 12.9408 98.3641 13.0048 97.9801 13.0048L98.0921 12.8528H98.3641C98.5881 12.8528 98.7881 12.9115 98.9641 13.0288C99.1401 13.1462 99.2841 13.3248 99.3961 13.5648L100.22 15.3328H99.0841L98.2521 13.5008C98.1775 13.3142 98.0628 13.1915 97.9081 13.1328C97.7588 13.0742 97.5775 13.0448 97.3641 13.0448H96.4841V15.3328H95.4521ZM96.4841 12.2848H97.7481C98.1108 12.2848 98.3855 12.2102 98.5721 12.0608C98.7641 11.9062 98.8601 11.6822 98.8601 11.3888C98.8601 11.0955 98.7641 10.8742 98.5721 10.7248C98.3855 10.5755 98.1108 10.5008 97.7481 10.5008H96.4841V12.2848Z" fill="white"/>
<defs>
<linearGradient id="paint0_linear_8_389" x1="-77.8089" y1="12.8328" x2="111.38" y2="12.8328" gradientUnits="userSpaceOnUse">
<stop stop-color="#00CCFF"/>
<stop offset="1" stop-color="#FF00FF"/>
</linearGradient>
</defs>
</svg>
